<svg xmlns="http://www.w3.org/2000/svg" viewBox="0 0 223.36 150.61"><defs><style>.cls-1{fill:#d1e9c5;}</style></defs><g id="Layer_2" data-name="Layer 2"><g id="Layer_1-2" data-name="Layer 1"><path d="M115.22,1.31c30.42,4.83,59,13.22,85.7,26.46,17.38,8.62,24.5,20.37,21.93,35.89-4.68,28.29-20.44,51.86-45.66,70.92-17.72,13.39-40.49,18-65.18,15.29-25.82-2.83-50.93-8.45-72.72-21.71-9.9-6-17.67-12.86-21.53-22.67C14.19,96.42,8.52,87.8,4.11,78.88-3.76,63,.31,48.45,10.89,35.37,29.49,12.36,55-1.84,92.05.19,99.81.62,107.58.94,115.22,1.31Z"/><path class="cls-1" d="M47.45,64.5a3.61,3.61,0,0,1-2.9-1.25,5.57,5.57,0,0,1-1.06-3.71,5.59,5.59,0,0,1,1.09-3.75,3.61,3.61,0,0,1,2.9-1.27,3.84,3.84,0,0,1,1.33.2,3.15,3.15,0,0,1,1,.54,3.6,3.6,0,0,1,.69.77h.11c0-.18-.05-.43-.07-.75s0-.57,0-.77V50.65H52V64.33H50.77L50.55,63h-.06a3.25,3.25,0,0,1-1.68,1.35A4.28,4.28,0,0,1,47.45,64.5Zm.23-1.21a2.53,2.53,0,0,0,2.19-.88,4.48,4.48,0,0,0,.64-2.61v-.26a5.48,5.48,0,0,0-.61-2.83,2.42,2.42,0,0,0-2.22-1,2.22,2.22,0,0,0-2,1A5.12,5.12,0,0,0,45,59.58a4.82,4.82,0,0,0,.66,2.74A2.28,2.28,0,0,0,47.68,63.29Z"/><path class="cls-1" d="M63.34,59.49A6.61,6.61,0,0,1,63,61.61a4.28,4.28,0,0,1-.88,1.57,3.78,3.78,0,0,1-1.41,1,4.71,4.71,0,0,1-1.86.34,4.38,4.38,0,0,1-1.76-.34,3.78,3.78,0,0,1-1.39-1,4.33,4.33,0,0,1-.91-1.57,6.6,6.6,0,0,1-.32-2.12A6.12,6.12,0,0,1,55,56.8a3.78,3.78,0,0,1,1.53-1.7A4.61,4.61,0,0,1,59,54.52a4.3,4.3,0,0,1,2.3.59,3.92,3.92,0,0,1,1.54,1.7A5.93,5.93,0,0,1,63.34,59.49Zm-7.33,0a5.74,5.74,0,0,0,.31,2,2.66,2.66,0,0,0,1,1.32,3.13,3.13,0,0,0,3.3,0,2.66,2.66,0,0,0,1-1.32,5.74,5.74,0,0,0,.31-2,5.66,5.66,0,0,0-.31-2,2.65,2.65,0,0,0-1-1.3,2.83,2.83,0,0,0-1.66-.45,2.51,2.51,0,0,0-2.2,1A4.68,4.68,0,0,0,56,59.49Z"/><path class="cls-1" d="M73.7,64.31,72,58.7c-.08-.24-.15-.47-.21-.71s-.14-.45-.19-.66-.11-.42-.15-.6-.08-.35-.11-.48h-.06c0,.13-.06.29-.1.48l-.14.6c-.06.22-.12.44-.18.68s-.14.48-.22.72l-1.8,5.58H67.19l-2.65-9.63h1.51L67.44,60l.27,1,.22,1c.06.3.1.57.13.79h.07c0-.15.08-.32.12-.53s.09-.42.15-.65l.18-.7c.06-.23.13-.45.19-.65l1.78-5.58h1.57l1.72,5.57.26.88c.08.3.16.6.23.88a7.22,7.22,0,0,1,.15.76h.07c0-.2.07-.45.13-.74s.14-.61.22-1L75.17,60l1.41-5.31h1.48L75.4,64.31Z"/><path class="cls-1" d="M84.37,54.52a3.06,3.06,0,0,1,3.48,3.53v6.28H86.4V58.15a2.54,2.54,0,0,0-.55-1.8,2.15,2.15,0,0,0-1.68-.6,2.61,2.61,0,0,0-2.25.9,4.52,4.52,0,0,0-.65,2.63v5H79.81V54.69H81l.22,1.39h.08a2.76,2.76,0,0,1,.78-.85,3.4,3.4,0,0,1,1.06-.53A4.28,4.28,0,0,1,84.37,54.52Z"/><path class="cls-1" d="M92.32,64.33H90.85V50.65h1.47Z"/><path class="cls-1" d="M103.7,59.49a6.61,6.61,0,0,1-.31,2.12,4.28,4.28,0,0,1-.88,1.57,3.78,3.78,0,0,1-1.41,1,4.75,4.75,0,0,1-1.86.34,4.47,4.47,0,0,1-1.77-.34,3.75,3.75,0,0,1-1.38-1,4.33,4.33,0,0,1-.91-1.57,6.34,6.34,0,0,1-.32-2.12,6.26,6.26,0,0,1,.53-2.69,3.86,3.86,0,0,1,1.54-1.7,4.61,4.61,0,0,1,2.38-.58,4.3,4.3,0,0,1,2.3.59,3.92,3.92,0,0,1,1.54,1.7A5.93,5.93,0,0,1,103.7,59.49Zm-7.33,0a5.74,5.74,0,0,0,.31,2,2.66,2.66,0,0,0,.95,1.32,3.13,3.13,0,0,0,3.3,0,2.66,2.66,0,0,0,.95-1.32,5.74,5.74,0,0,0,.31-2,5.66,5.66,0,0,0-.31-2,2.65,2.65,0,0,0-.95-1.3,2.83,2.83,0,0,0-1.66-.45,2.51,2.51,0,0,0-2.2,1A4.68,4.68,0,0,0,96.37,59.49Z"/><path class="cls-1" d="M109.83,54.53a3.62,3.62,0,0,1,2.55.78,3.21,3.21,0,0,1,.84,2.47v6.55h-1.06l-.29-1.43h-.07a5.14,5.14,0,0,1-.84.89,3.14,3.14,0,0,1-1,.53,4.83,4.83,0,0,1-1.41.18,3.73,3.73,0,0,1-1.57-.31,2.36,2.36,0,0,1-1.07-.93,2.91,2.91,0,0,1-.39-1.58,2.5,2.5,0,0,1,1.14-2.21,6.67,6.67,0,0,1,3.48-.85l1.66-.07V58a2.33,2.33,0,0,0-.53-1.75,2.15,2.15,0,0,0-1.51-.5,4.82,4.82,0,0,0-1.44.22,10.06,10.06,0,0,0-1.3.52l-.45-1.11a8.28,8.28,0,0,1,1.49-.57A6.48,6.48,0,0,1,109.83,54.53Zm2,5-1.47.06a4.93,4.93,0,0,0-2.54.59A1.71,1.71,0,0,0,107,61.7a1.46,1.46,0,0,0,.5,1.22,2.13,2.13,0,0,0,1.33.4,3.06,3.06,0,0,0,2.1-.72,2.65,2.65,0,0,0,.82-2.13Z"/><path class="cls-1" d="M119.65,64.5a3.57,3.57,0,0,1-2.89-1.25,5.51,5.51,0,0,1-1.07-3.71,5.59,5.59,0,0,1,1.09-3.75,3.62,3.62,0,0,1,2.9-1.27,3.94,3.94,0,0,1,1.34.2,3.1,3.1,0,0,1,1,.54,3.13,3.13,0,0,1,.69.77h.11c0-.18,0-.43-.07-.75s0-.57,0-.77V50.65h1.46V64.33H123L122.76,63h-.07A3.25,3.25,0,0,1,121,64.3,4.24,4.24,0,0,1,119.65,64.5Zm.23-1.21a2.53,2.53,0,0,0,2.19-.88,4.41,4.41,0,0,0,.64-2.61v-.26a5.38,5.38,0,0,0-.61-2.83,2.42,2.42,0,0,0-2.22-1,2.22,2.22,0,0,0-2,1,5.12,5.12,0,0,0-.67,2.82,4.74,4.74,0,0,0,.67,2.74A2.26,2.26,0,0,0,119.88,63.29Z"/></g></g></svg>