<?xml version="1.0" encoding="utf-8"?>
<!-- Generator: Adobe Illustrator 25.2.1, SVG Export Plug-In . SVG Version: 6.00 Build 0)  -->
<svg version="1.1" id="Layer_1" xmlns="http://www.w3.org/2000/svg" xmlns:xlink="http://www.w3.org/1999/xlink" x="0px" y="0px"
	 viewBox="0 0 119.94 146.37" style="enable-background:new 0 0 119.94 146.37;" xml:space="preserve">
<path d="M83.25,32.91c-0.07-0.03-1.99-0.86-5.96-2.12c-2.2-0.69-4.34-1.55-6.56-2.19c-1.31-0.38-2.64-0.67-3.98-0.76
	c-3.43,2.45-6.29,5.5-8.78,8.9c-2.23,3.04-4.44,6.09-6.63,9.16c-1.49,2.08-2.95,4.18-3.9,6.6c-0.79,2.01-1.81,3.93-2.64,5.92
	c-0.66,1.59-1.23,3.23-1.77,4.87c-0.4,1.23-0.59,2.54-1.04,3.75c-1.38,3.72-1.71,7.65-2.32,11.52c-0.52,3.32-1.02,6.64-1.53,9.96
	c-0.22,1.44-0.54,2.88-0.64,4.33c-0.09,1.31,0.08,2.64,0.06,3.96c-0.01,0.82-0.06,1.63-0.11,2.45c0.72,5.46,2.07,9.82,3.27,12.96
	c6.51,17,19.15,25.29,23.82,25.72c2.4,0.22,4.33-0.59,4.33-0.59c1.91-0.8,3.03-2.14,3.58-2.81c5.79-7.08,11.31-16.86,12.13-18.33
	c0.53-0.95,1.45-2.81,2.54-5.34c0.48-1.11,0.89-2.28,1.17-3.45c0.83-3.48,1.58-6.97,2.34-10.46c0.48-2.23,1.02-4.45,1.35-6.7
	c0.37-2.49,0.52-5.01,0.8-7.52c0.3-2.7,0.55-4.48,0.68-5.51c2.3-17.74,3.45-26.61-0.32-33.98C92.96,42.85,88.88,35.06,83.25,32.91z"
	/>
</svg>
