<?xml version="1.0" encoding="utf-8"?>
<!-- Generator: Adobe Illustrator 25.2.1, SVG Export Plug-In . SVG Version: 6.00 Build 0)  -->
<svg version="1.1" id="Layer_1" xmlns="http://www.w3.org/2000/svg" xmlns:xlink="http://www.w3.org/1999/xlink" x="0px" y="0px"
	 viewBox="0 0 201.66 582.04" style="enable-background:new 0 0 201.66 582.04;" xml:space="preserve">
<path d="M96.25-0.72c-1.21,1.45-2.42,2.9-3.62,4.36c-2.44,2.98-4.92,5.93-7.29,8.96c-2.71,3.47-5.32,7.03-7.97,10.55
	c-2.69,3.58-5.41,7.15-8.05,10.77c-1.12,1.53-2.09,3.18-3.31,5.04c0.01-0.06,0-0.09-0.01-0.1c-0.32-0.16-5.3,9.22-14.93,28.13
	c-2.8,6.17-4.65,12.64-7.02,19.1c-6.92,22.29-11.54,38.84-12.39,43.2c-0.51,2.63-0.83,4.7-0.83,4.7c-0.35,2.44-0.6,4.89-0.94,7.33
	c-0.3,2.09-0.67,4.17-1.01,6.25c-0.25,1.55-0.5,3.1-0.77,4.65c-0.36,2.09-0.79,4.18-1.1,6.28c-0.33,2.17-0.55,4.36-0.83,6.54
	c-0.26,2-0.59,3.98-0.79,5.98c-0.23,2.32-0.3,4.66-0.54,6.98c-0.19,1.85-0.58,3.69-0.8,5.54c-0.26,2.15-0.47,4.31-0.65,6.47
	c-0.25,3.02-0.48,6.04-0.67,9.06c-0.1,1.65-0.09,3.3-0.13,4.96c-0.07,3.06-0.18,6.11-0.19,9.17c0,1.93,0.18,3.86,0.23,5.8
	c0.02,0.85-0.08,1.7-0.1,2.55c-0.03,1.43-0.07,2.85-0.05,4.28c0.05,3.02,0.04,6.06,0.23,9.07c0.15,2.42,0.58,4.82,0.87,7.22
	c0.53,4.35,1.05,8.71,1.57,13.07c0.31,2.59,0.63,5.18,0.9,7.77c0.21,1.99,0.3,4,0.52,5.99c0.25,2.13,0.53,4.26,0.81,6.4
	c10.49,78.03,44.25,171.46,129.92,270.96c8.2,7.99,17.97,16.43,29.46,24.66c5.63,4.03,11.14,7.63,16.46,10.84
	c-0.1-11.55-0.21-23.1-0.31-34.65c-0.36-182.63-0.71-365.25-1.07-547.88H96.25z"/>
</svg>
