<?xml version="1.0" encoding="utf-8"?>
<!-- Generator: Adobe Illustrator 25.2.1, SVG Export Plug-In . SVG Version: 6.00 Build 0)  -->
<svg version="1.1" id="Layer_1" xmlns="http://www.w3.org/2000/svg" xmlns:xlink="http://www.w3.org/1999/xlink" x="0px" y="0px"
	 viewBox="0 0 500 296.8" style="enable-background:new 0 0 500 296.8;" xml:space="preserve">
<style type="text/css">
	.st0{fill:#FF5902;}
</style>
<path class="st0" d="M322.4,74.8c-5-17.3-15.1-27.1-16.7-28.3c-1.8-1.5-3.9-3-3.9-3c-1.9-1.3-3.1-2-4.1-2.8
	c-2.5-1.9-5.4-2.7-8.2-3.9c-2.4-1-4.9-1.6-7.2-2.5c-2.1-0.8-4.1-1.8-6.1-2.7c-1.8-0.8-3.6-1.6-5.4-2.4c-1-0.4-2-0.8-3-1.2
	c-1.3-0.4-2.6-0.8-3.9-1.2c-2.9-0.9-5.8-1.8-8.6-2.8c-3.4-1.2-6.7-2.6-10.1-3.8c-3-1.1-6-2.2-9.1-3.1c-2.7-0.8-5.4-1.3-8.2-1.8
	c-2.3-0.5-4.7-0.9-7-1.2c-2.1-0.3-4.3-0.4-6.4-0.7c-3.9-0.5-7.7-1.1-11.6-1.6c-3.4-0.5-6.8-0.9-10.2-1.3c-2.9-0.3-5.8-0.6-8.6-0.9
	c-2.2-0.2-4.4-0.4-6.5-0.6c-2.1-0.2-4.3-0.2-6.4-0.4c-1.6-0.1-3.2-0.6-4.8-0.7c-2.1-0.2-4.3-0.2-6.4-0.3c-1.1-0.1-2.2-0.3-3.2-0.3
	c-1.5-0.1-3-0.1-4.5-0.1c-1.3,0-2.7,0-4,0c-1.4,0-2.7-0.1-4.1-0.1c-1.3,0-2.7-0.1-4,0c-1.4,0.1-2.8,0.3-4.2,0.3
	c-1.1,0-2.2-0.1-3.2-0.1c-3.9,0.2-7.9,0.4-11.8,0.7c-4,0.2-7.9,0.6-11.9,0.7c-2.7,0.1-5.4-0.2-8.1-0.3c-2.5-0.1-5.1-0.1-7.6-0.1
	c-1.7,0-3.4-0.1-5-0.1c-3.1,0-6.2,0-9.4,0c-3.3,0-5.7,0.1-6.2,0.2c-4.6,0.2-31.4,0.7-96.9,1.7c-20.3,64-71.9,239.7-17.3,272.5
	c5.1,3.1,9.9,4.1,30.4,5c14,0.6,27.2,0.9,41.5,0.6c53.1-1,89.6-4.1,139.1-14.7c54.1-11.6,74.3-23.5,81.2-27.7
	c24.1-14.8,37.3-30.6,40.6-34.6c19.6-24.1,26.3-47.8,29.5-60.1C330.7,114.4,325.6,86,322.4,74.8z"/>
</svg>
