<?xml version="1.0" encoding="utf-8"?>
<!-- Generator: Adobe Illustrator 25.2.1, SVG Export Plug-In . SVG Version: 6.00 Build 0)  -->
<svg version="1.1" id="Layer_1" xmlns="http://www.w3.org/2000/svg" xmlns:xlink="http://www.w3.org/1999/xlink" x="0px" y="0px"
	 viewBox="0 0 90.46 79.28" style="enable-background:new 0 0 90.46 79.28;" xml:space="preserve">
<path d="M52.51,68.3c1.26-0.1,2.5-0.5,3.79-0.91c1.81-0.93,3.58-1.92,5.24-3.09c1.89-1.33,3.63-2.94,4.91-4.88
	c1.39-2.11,2.21-4.52,2.56-7.01c0.23-1.68,0.45-4.09-0.61-9.68c-1.04-5.49-1.55-8.24-2.95-11.12c-3.31-6.81-9.6-10.46-13.54-12.22
	c-1.48-0.59-2.97-1.16-4.49-1.64c-1.96-0.63-7.66-2.16-12.28-1c-9.02,2.28-12.42,14.71-12.87,16.46
	c-1.66,6.43-0.46,11.94,0.69,17.22c0.83,3.79,1.32,5.95,3.01,8.36c3.02,4.29,7.26,6.03,12.78,7.72
	C43.19,67.86,47.82,68.66,52.51,68.3z"/>
</svg>
