<?xml version="1.0" encoding="utf-8"?>
<!-- Generator: Adobe Illustrator 25.2.1, SVG Export Plug-In . SVG Version: 6.00 Build 0)  -->
<svg version="1.1" id="Layer_1" xmlns="http://www.w3.org/2000/svg" xmlns:xlink="http://www.w3.org/1999/xlink" x="0px" y="0px"
	 viewBox="0 0 166.69 117.91" style="enable-background:new 0 0 166.69 117.91;" xml:space="preserve">
<path d="M137.06,94.63c1.64-1.16,14.63-10.58,14.65-24.2c0.01-4.18-2.58-9.52-7.77-20.2c-2.49-5.14-5.02-9.26-7.53-13.11
	c-1.33-2.04-2.89-3.94-4.35-5.9c-28.43,0-56.85,0-85.28,0c-0.83,0.62-1.66,1.24-2.49,1.86c-0.9,0.66-1.78,1.35-2.7,1.98
	c-2.39,1.63-4.78,3.26-6.75,5.41c-1.81,1.97-3.12,4.27-3.96,6.79c-0.58,1.74-1.12,3.51-1.4,5.32c-0.56,3.64,0.55,7.04,1.81,10.4
	c2.12,5.69,5.25,10.82,8.96,15.58c2.4,3.08,4.96,6.03,8.27,8.26c0.14,0.09,3.2,2.67,6.74,4.98c8.85,5.76,19.19,9.01,23.42,10.22
	c2.14,0.5,4.25,0.99,6.37,1.49c17.72,1.65,31-0.92,39.15-3.21C130.18,98.6,133.75,96.97,137.06,94.63z"/>
</svg>
