<?xml version="1.0" encoding="utf-8"?>
<!-- Generator: Adobe Illustrator 25.2.1, SVG Export Plug-In . SVG Version: 6.00 Build 0)  -->
<svg version="1.1" id="Layer_1" xmlns="http://www.w3.org/2000/svg" xmlns:xlink="http://www.w3.org/1999/xlink" x="0px" y="0px"
	 viewBox="0 0 499.97 296.82" style="enable-background:new 0 0 499.97 296.82;" xml:space="preserve">
<path d="M322.4,74.77c-4.97-17.27-15.15-27.1-16.66-28.33c-1.84-1.48-3.88-2.96-3.88-2.96c-1.87-1.33-3.1-2.04-4.11-2.81
	c-2.48-1.87-5.41-2.74-8.22-3.86c-2.37-0.95-4.86-1.59-7.25-2.52c-2.07-0.8-4.06-1.8-6.08-2.71c-1.8-0.81-3.6-1.63-5.41-2.42
	c-0.97-0.43-1.95-0.84-2.95-1.19c-1.28-0.44-2.59-0.8-3.87-1.22c-2.87-0.93-5.76-1.8-8.6-2.82c-3.37-1.2-6.68-2.57-10.05-3.79
	c-3.01-1.09-6.02-2.21-9.09-3.1c-2.69-0.77-5.45-1.28-8.2-1.83c-2.32-0.46-4.66-0.87-7-1.2c-2.14-0.31-4.3-0.44-6.45-0.72
	c-3.85-0.51-7.7-1.09-11.55-1.61c-3.4-0.46-6.8-0.9-10.2-1.29c-2.87-0.34-5.75-0.61-8.63-0.9c-2.18-0.22-4.35-0.45-6.54-0.62
	c-2.12-0.16-4.26-0.19-6.38-0.39c-1.62-0.15-3.21-0.56-4.83-0.69c-2.14-0.17-4.29-0.15-6.44-0.27c-1.09-0.06-2.16-0.27-3.25-0.32
	c-1.5-0.08-3-0.08-4.5-0.09c-1.34-0.01-2.68,0.03-4.02,0.02c-1.35-0.01-2.7-0.07-4.06-0.09c-1.34-0.02-2.68-0.07-4.01-0.02
	c-1.39,0.05-2.77,0.26-4.16,0.31c-1.08,0.04-2.17-0.13-3.25-0.07c-3.94,0.2-7.89,0.45-11.83,0.69c-3.97,0.24-7.94,0.6-11.92,0.71
	c-2.7,0.07-5.4-0.24-8.11-0.32c-2.52-0.07-5.05-0.05-7.57-0.09c-1.68-0.03-3.36-0.13-5.04-0.14c-3.12-0.03-6.24-0.04-9.36-0.02
	c-3.28,0.02-5.71,0.15-6.17,0.17c-4.63,0.18-31.37,0.67-96.9,1.68c-20.31,63.98-71.89,239.7-17.27,272.47
	c5.14,3.08,9.91,4.12,30.38,4.97c13.96,0.58,27.25,0.86,41.54,0.58c53.1-1.05,89.6-4.06,139.05-14.72
	c54.07-11.65,74.31-23.46,81.24-27.71c24.09-14.81,37.3-30.56,40.56-34.55c19.62-24.05,26.26-47.83,29.54-60.09
	C330.68,114.38,325.65,86.03,322.4,74.77z"/>
</svg>
