<?xml version="1.0" encoding="utf-8"?>
<!-- Generator: Adobe Illustrator 25.2.1, SVG Export Plug-In . SVG Version: 6.00 Build 0)  -->
<svg version="1.1" id="Layer_1" xmlns="http://www.w3.org/2000/svg" xmlns:xlink="http://www.w3.org/1999/xlink" x="0px" y="0px"
	 viewBox="0 0 1048 5235.09" style="enable-background:new 0 0 1048 5235.09;" xml:space="preserve">
<style type="text/css">
	.st0{fill:#283B00;}
	.st1{fill:#FFF7B1;}
	.st2{fill:#FF5902;}
	.st3{fill:#D1E9C5;}
</style>
<g>
	<path d="M306.64,1135.92c30.42,4.83,59.02,13.22,85.7,26.46c17.39,8.63,24.5,20.37,21.93,35.89
		c-4.68,28.29-20.45,51.86-45.66,70.92c-17.72,13.4-40.49,18-65.18,15.29c-25.83-2.83-50.93-8.45-72.72-21.71
		c-9.9-6.02-17.67-12.87-21.53-22.67c-3.57-9.08-9.24-17.7-13.66-26.61c-7.86-15.88-3.79-30.43,6.79-43.51
		c18.6-23,44.06-37.21,81.16-35.18C291.23,1135.23,299,1135.55,306.64,1135.92z"/>
	<g>
		<g>
			<path class="st3" d="M238.87,1199.11c-1.22,0-2.19-0.42-2.9-1.25c-0.71-0.83-1.07-2.07-1.07-3.71c0-1.66,0.36-2.91,1.09-3.76
				s1.69-1.27,2.9-1.27c0.51,0,0.96,0.07,1.34,0.2s0.71,0.32,0.98,0.54s0.51,0.48,0.7,0.77h0.11c-0.02-0.18-0.05-0.43-0.07-0.75
				s-0.04-0.57-0.04-0.77v-3.86h1.46v13.68h-1.18l-0.22-1.37h-0.06c-0.18,0.29-0.41,0.55-0.69,0.78c-0.28,0.23-0.61,0.42-0.99,0.56
				C239.84,1199.04,239.39,1199.11,238.87,1199.11z M239.1,1197.9c1.03,0,1.76-0.29,2.19-0.88s0.64-1.46,0.64-2.61v-0.26
				c0-1.22-0.21-2.17-0.61-2.82c-0.41-0.66-1.15-0.98-2.22-0.98c-0.9,0-1.57,0.34-2.01,1.03s-0.67,1.63-0.67,2.82
				c0,1.18,0.22,2.1,0.66,2.74C237.52,1197.58,238.2,1197.9,239.1,1197.9z"/>
			<path class="st3" d="M254.76,1194.1c0,0.79-0.1,1.5-0.31,2.12s-0.5,1.15-0.89,1.57s-0.86,0.75-1.4,0.98
				c-0.55,0.23-1.17,0.34-1.86,0.34c-0.64,0-1.23-0.11-1.77-0.34c-0.54-0.23-1-0.55-1.39-0.98c-0.39-0.43-0.69-0.95-0.91-1.57
				c-0.21-0.62-0.32-1.33-0.32-2.12c0-1.05,0.18-1.95,0.54-2.69s0.87-1.31,1.54-1.7c0.66-0.39,1.46-0.58,2.38-0.58
				c0.88,0,1.65,0.2,2.31,0.59c0.66,0.39,1.17,0.96,1.54,1.7C254.58,1192.16,254.76,1193.05,254.76,1194.1z M247.43,1194.1
				c0,0.77,0.1,1.44,0.31,2.01s0.52,1.01,0.95,1.32s0.98,0.47,1.65,0.47c0.67,0,1.22-0.16,1.65-0.47c0.43-0.31,0.75-0.75,0.95-1.32
				s0.31-1.24,0.31-2.01c0-0.77-0.1-1.43-0.31-1.99s-0.52-0.99-0.95-1.3s-0.98-0.46-1.66-0.46c-1,0-1.74,0.33-2.2,0.99
				C247.66,1192.01,247.43,1192.93,247.43,1194.1z"/>
			<path class="st3" d="M265.12,1198.92l-1.71-5.61c-0.08-0.24-0.15-0.48-0.21-0.71c-0.07-0.23-0.13-0.45-0.19-0.67
				c-0.06-0.21-0.11-0.41-0.15-0.6c-0.04-0.18-0.08-0.34-0.11-0.48h-0.06c-0.02,0.13-0.06,0.29-0.1,0.48s-0.09,0.38-0.14,0.6
				c-0.06,0.22-0.12,0.44-0.18,0.68s-0.14,0.48-0.22,0.72l-1.79,5.58h-1.64l-2.65-9.63h1.51l1.39,5.32c0.09,0.35,0.18,0.7,0.27,1.04
				c0.08,0.34,0.16,0.67,0.22,0.97c0.06,0.3,0.11,0.56,0.13,0.79h0.07c0.04-0.15,0.08-0.32,0.12-0.53c0.04-0.21,0.09-0.42,0.15-0.65
				c0.05-0.23,0.12-0.46,0.18-0.69s0.13-0.45,0.19-0.66l1.78-5.58h1.57l1.71,5.57c0.09,0.28,0.17,0.57,0.26,0.88
				c0.08,0.3,0.16,0.6,0.23,0.88s0.12,0.54,0.15,0.76h0.07c0.02-0.2,0.07-0.45,0.13-0.74s0.14-0.62,0.22-0.97
				c0.08-0.35,0.17-0.71,0.27-1.07l1.41-5.32h1.48l-2.66,9.63H265.12z"/>
			<path class="st3" d="M275.79,1189.13c1.14,0,2.01,0.28,2.59,0.84s0.88,1.46,0.88,2.69v6.28h-1.44v-6.18c0-0.8-0.18-1.4-0.55-1.8
				c-0.37-0.4-0.93-0.6-1.68-0.6c-1.07,0-1.82,0.3-2.25,0.91s-0.65,1.48-0.65,2.63v5.04h-1.46v-9.63h1.18l0.22,1.39h0.08
				c0.21-0.34,0.46-0.62,0.78-0.86s0.67-0.41,1.06-0.53S275.36,1189.13,275.79,1189.13z"/>
			<path class="st3" d="M283.74,1198.94h-1.47v-13.68h1.47V1198.94z"/>
			<path class="st3" d="M295.12,1194.1c0,0.79-0.1,1.5-0.31,2.12s-0.5,1.15-0.89,1.57s-0.86,0.75-1.4,0.98
				c-0.55,0.23-1.17,0.34-1.86,0.34c-0.64,0-1.23-0.11-1.77-0.34c-0.54-0.23-1-0.55-1.39-0.98c-0.39-0.43-0.69-0.95-0.91-1.57
				c-0.21-0.62-0.32-1.33-0.32-2.12c0-1.05,0.18-1.95,0.54-2.69s0.87-1.31,1.54-1.7c0.66-0.39,1.46-0.58,2.38-0.58
				c0.88,0,1.65,0.2,2.31,0.59c0.66,0.39,1.17,0.96,1.54,1.7C294.94,1192.16,295.12,1193.05,295.12,1194.1z M287.79,1194.1
				c0,0.77,0.1,1.44,0.31,2.01s0.52,1.01,0.95,1.32s0.98,0.47,1.65,0.47c0.67,0,1.22-0.16,1.65-0.47c0.43-0.31,0.75-0.75,0.95-1.32
				s0.31-1.24,0.31-2.01c0-0.77-0.1-1.43-0.31-1.99s-0.52-0.99-0.95-1.3s-0.98-0.46-1.66-0.46c-1,0-1.74,0.33-2.2,0.99
				C288.02,1192.01,287.79,1192.93,287.79,1194.1z"/>
			<path class="st3" d="M301.24,1189.15c1.15,0,2,0.26,2.56,0.77s0.83,1.34,0.83,2.47v6.55h-1.06l-0.28-1.42h-0.07
				c-0.27,0.35-0.55,0.65-0.84,0.88s-0.63,0.42-1.02,0.54c-0.38,0.12-0.85,0.18-1.41,0.18c-0.59,0-1.11-0.1-1.56-0.31
				c-0.46-0.21-0.81-0.52-1.07-0.93c-0.26-0.42-0.39-0.94-0.39-1.58c0-0.96,0.38-1.7,1.14-2.21s1.92-0.8,3.48-0.84l1.66-0.07v-0.59
				c0-0.83-0.18-1.42-0.54-1.75s-0.86-0.5-1.51-0.5c-0.5,0-0.98,0.07-1.44,0.22s-0.89,0.32-1.3,0.52l-0.45-1.11
				c0.43-0.22,0.93-0.41,1.49-0.57S300.62,1189.15,301.24,1189.15z M303.2,1194.19l-1.47,0.06c-1.2,0.05-2.05,0.24-2.54,0.59
				s-0.74,0.83-0.74,1.47c0,0.55,0.17,0.96,0.5,1.22s0.78,0.4,1.33,0.4c0.86,0,1.56-0.24,2.1-0.71s0.82-1.19,0.82-2.14V1194.19z"/>
			<path class="st3" d="M311.07,1199.11c-1.22,0-2.18-0.42-2.89-1.25c-0.71-0.83-1.07-2.07-1.07-3.71c0-1.66,0.36-2.91,1.09-3.76
				s1.69-1.27,2.9-1.27c0.51,0,0.96,0.07,1.34,0.2s0.71,0.32,0.98,0.54s0.51,0.48,0.69,0.77h0.11c-0.02-0.18-0.05-0.43-0.07-0.75
				s-0.04-0.57-0.04-0.77v-3.86h1.46v13.68h-1.18l-0.22-1.37h-0.06c-0.18,0.29-0.41,0.55-0.69,0.78c-0.28,0.23-0.61,0.42-0.99,0.56
				C312.04,1199.04,311.59,1199.11,311.07,1199.11z M311.3,1197.9c1.03,0,1.76-0.29,2.19-0.88s0.64-1.46,0.64-2.61v-0.26
				c0-1.22-0.2-2.17-0.61-2.82c-0.41-0.66-1.15-0.98-2.22-0.98c-0.9,0-1.57,0.34-2.01,1.03s-0.67,1.63-0.67,2.82
				c0,1.18,0.22,2.1,0.66,2.74C309.72,1197.58,310.4,1197.9,311.3,1197.9z"/>
		</g>
	</g>
</g>
</svg>
