<?xml version="1.0" encoding="utf-8"?>
<!-- Generator: Adobe Illustrator 25.2.1, SVG Export Plug-In . SVG Version: 6.00 Build 0)  -->
<svg version="1.1" id="Layer_1" xmlns="http://www.w3.org/2000/svg" xmlns:xlink="http://www.w3.org/1999/xlink" x="0px" y="0px"
	 viewBox="0 0 214.1 80.9" style="enable-background:new 0 0 214.1 80.9;" xml:space="preserve">
<style type="text/css">
	.st0{clip-path:url(#SVGID_2_);}
	.st1{enable-background:new    ;}
	.st2{fill:#D3EBC7;}
</style>
<g>
	<g>
		<g>
			<defs>
				<rect id="SVGID_1_" x="6" y="8.9" width="211.1" height="66.9"/>
			</defs>
			<clipPath id="SVGID_2_">
				<use xlink:href="#SVGID_1_"  style="overflow:visible;"/>
			</clipPath>
			<path class="st0" d="M6.1,35.1c0-0.2-0.1-0.4,0-0.6c0-0.6,0.1-1.2,0.6-1.7c0.3-0.3,0.7-0.8,0.8-1.3c0.2-0.6,0.2-1.2,0.6-1.8
				c0.3-0.5,0.6-0.9,0.9-1.4c0.2-0.4,0.6-0.7,0.9-1c0.1-0.1,0.1-0.1,0.2-0.2c0.2-0.3,0.4-0.6,0.7-0.8c0.3-0.3,0.6-0.7,0.9-1
				c0.1-0.1,0.2-0.1,0.3-0.2c0.2-0.2,0.3-0.3,0.5-0.5c0.1-0.1,0.3-0.3,0.4-0.4c0.1,0,0.2,0,0.2-0.1c0.1-0.4,0.5-0.4,0.7-0.6
				c0.4-0.4,1-0.7,1.5-1c0.3-0.2,0.6-0.4,0.9-0.5c0,0,0.1,0,0.1-0.1c0.2-0.3,0.5-0.5,0.8-0.7c0.4-0.2,0.8-0.6,1.2-0.8
				c0.4-0.2,0.8-0.4,1.1-0.7c0.6-0.6,1.5-0.9,2.1-1.5c0.4-0.4,0.9-0.6,1.4-0.8c0.8-0.4,1.6-0.7,2.5-1c0.5-0.2,1.1-0.3,1.6-0.4
				c0.1,0,0.2,0,0.2,0c0.8-0.4,1.7-0.5,2.5-0.7c0.9-0.2,1.7-0.6,2.6-0.8c0.4-0.1,0.8-0.3,1.2-0.5c0.4-0.1,0.8-0.2,1.1-0.3
				c0.9-0.2,1.8-0.3,2.7-0.6c0.5-0.1,0.9-0.2,1.3-0.3c0.7-0.1,1.5-0.4,2.2-0.6c0,0,0.1,0,0.2,0c0.7,0,1.4-0.3,2.1-0.5
				c0.8-0.2,1.5-0.3,2.3-0.4c0.2,0,0.5-0.1,0.7-0.1c0.7-0.2,1.4-0.1,2.1-0.4c0.5-0.2,1.1-0.2,1.7-0.3c0.4-0.1,0.8-0.2,1.2-0.2
				c0.3-0.1,0.7-0.1,1.1-0.1c0.5-0.1,1-0.2,1.6-0.3c0.3-0.1,0.6-0.1,0.9-0.1c0.8,0.1,1.4-0.4,2.2-0.3c0.3,0,0.7-0.1,1-0.1
				c0.6-0.1,1.3-0.1,1.9-0.1c0.3,0,0.6-0.1,0.8-0.1c0.5,0,0.9,0,1.3,0c0.5,0,1.1-0.1,1.7-0.1c0.4,0,0.9-0.2,1.3,0c0.1,0,0.1,0,0.2,0
				c0.4,0,0.8-0.1,1.2-0.1c0.6-0.1,1.1-0.1,1.7-0.1c0,0,0,0,0.1,0c1.1,0.2,2.1-0.2,3.2,0.1c0.1,0,0.1,0,0.2,0c0.5-0.1,1.1,0,1.6-0.1
				c0.1,0,0.2,0,0.3,0.1c0.1,0,0.2,0.1,0.3,0c0.3-0.2,0.6,0,1,0c0.6,0,1.1,0,1.7,0c0.1,0,0.1,0,0.2,0C77,9,77.5,9,78,9
				c0.5-0.1,0.9,0,1.4,0.1c0.8,0,1.5,0,2.3,0c0,0,0.1,0,0.1,0c0.5,0.3,1,0.1,1.5,0.1c0.4,0,0.8,0.1,1.3,0.1c0.6,0,1.2,0,1.8,0
				c0.1,0,0.3,0,0.4,0c0.4,0.2,0.9,0.2,1.4,0.1c0.2,0,0.4,0.1,0.6,0.1c0.6-0.1,1.2,0.1,1.9,0c1.1-0.1,2.2,0,3.3,0.1
				c0.9,0,1.7,0,2.6,0c0.3,0,0.7,0.1,1,0.1c0.2,0,0.5-0.1,0.7-0.1c0.4,0,0.9,0,1.3,0.1c0.3,0.1,0.5,0,0.8,0c0.9,0,1.8-0.1,2.6-0.1
				c0.4,0,0.9-0.1,1.3-0.1c1,0,2-0.1,3-0.1c0.5,0,1,0.1,1.5,0.1c0.3,0,0.6-0.1,0.8-0.1c0.5,0,0.9,0.1,1.4,0.1c0.2,0,0.4,0,0.6,0
				c0.1,0,0.3,0,0.4,0c0.9,0.1,1.7,0.1,2.6,0c0.6-0.1,1.3,0,1.9,0c0.4,0,0.7,0,1.1,0c0.3,0,0.7,0,1,0c0,0,0.1,0,0.1,0
				c0.6-0.2,1.1,0.2,1.7,0c0.2-0.1,0.5,0,0.8,0c0.3,0,0.5-0.1,0.8-0.1c0.1,0,0.1,0,0.2,0c1.1,0.2,2.3,0.2,3.4,0.2c0.8,0,1.5,0,2.3,0
				c0.4,0,0.9,0.1,1.3,0.1c0.3,0,0.6,0,1,0c0.6,0,1.2,0,1.8,0.1c0.3,0,0.6,0.1,0.9-0.1c0.1-0.1,0.4,0.1,0.6,0.1c0.6,0,1.3,0,2,0
				c0.5,0,1,0.1,1.5,0c0.5-0.1,1,0,1.5-0.1c0.3,0,0.5,0.1,0.8,0.1c0.5,0,1.1,0,1.6,0c0.7,0.1,1.4-0.1,2.1,0.1c0.1,0,0.1,0,0.2,0
				c0.7-0.2,1.3,0.1,2,0.1c0.7,0,1.3,0.1,2,0.1c0.1,0,0.1,0,0.1,0c0.5,0.3,1.2,0.3,1.8,0.4c0.5,0.1,1,0.1,1.5,0.1
				c0.7,0.1,1.4,0.2,2,0.3c0.4,0.1,0.9,0.1,1.3,0.2c0.5,0.1,0.9,0.1,1.4,0.2c0.3,0.1,0.6,0.2,0.9,0c0.1,0,0.2,0,0.2,0
				c0.5,0.2,0.9,0.4,1.5,0.2c0.2-0.1,0.5,0,0.7,0.1c0.8,0.2,1.6,0.3,2.3,0.3c0.5,0,1.1,0.2,1.6,0.3c0.8,0.1,1.6,0.3,2.4,0.4
				c0.4,0.1,0.9,0.1,1.2,0.3c0.1,0,0.1,0.1,0.1,0c0.4-0.2,0.8,0.1,1.2,0.1c0.4,0,0.8,0.2,1.2,0.3c0.5,0.1,1,0.2,1.4,0.3
				c0,0,0.1,0,0.1,0c0.5,0.3,1,0.4,1.6,0.5c0.6,0.2,1.1,0.3,1.7,0.4c0.6,0.1,1.3,0.3,1.9,0.4c0.1,0,0.3,0.1,0.4,0.1
				c0.3,0.1,0.6,0.1,0.9,0.3c0.2,0.1,0.5,0.2,0.7,0.2c0.6,0.1,1.1,0.2,1.7,0.3c0.2,0,0.4,0.1,0.6,0.2c0.2,0.1,0.3,0.2,0.5,0.2
				c0.9,0.2,1.8,0.5,2.6,0.8c0.6,0.2,1.2,0.2,1.8,0.4c0.5,0.1,1,0.3,1.5,0.5c0.2,0.1,0.3,0.1,0.5,0.2c1.1,0.4,2.2,0.7,3.2,1.1
				c0.6,0.3,1.2,0.6,1.9,0.9c0.5,0.2,0.9,0.5,1.4,0.8c0.6,0.3,1.2,0.5,1.7,1c0.1,0.1,0.2,0.1,0.3,0.2c0.4,0.2,0.8,0.3,1.1,0.7
				c0.1,0.2,0.4,0.2,0.6,0.4c0.4,0.4,0.9,0.7,1.3,1.1c0.4,0.4,0.8,0.9,1.1,1.4c0.7,1,1.3,2,1.7,3.1c0.5,1.2,1,2.4,1.4,3.7
				c0.9,2.7,1.5,5.4,1.8,8.2c0.2,1.3,0.2,2.5,0,3.8c-0.1,0.6-0.1,1.3-0.3,1.9c-0.2,0.7-0.5,1.3-0.7,1.9c-0.1,0.3-0.3,0.7-0.4,1
				c-0.1,0.3-0.2,0.5-0.5,0.7c-0.3,0.2-0.5,0.6-0.6,0.9c-0.4,0.8-0.9,1.4-1.4,2.1c-0.3,0.4-0.6,0.8-1,1.1c-0.1,0.1-0.1,0.2-0.2,0.3
				c-0.1,0.2-0.3,0.4-0.5,0.6c-0.1,0.1-0.1,0.1-0.2,0.2c-0.3,0.6-0.8,0.9-1.2,1.4c-0.6,0.6-1.3,1.2-2,1.7c-0.6,0.5-1.2,1-1.8,1.5
				c-0.1,0.1-0.2,0.3-0.4,0.4c-0.5,0.5-1,1-1.7,1.2c0,0-0.1,0-0.1,0.1c-0.4,0.6-1,0.8-1.6,1.2c-0.2,0.1-0.4,0.2-0.5,0.3
				c-0.1,0.1-0.2,0.1-0.3,0.2c-0.2,0.2-0.3,0.4-0.6,0.4c-0.1,0-0.1,0.1-0.2,0.2c-0.3,0.2-0.5,0.3-0.8,0.5c-0.4,0.2-0.8,0.3-1.2,0.6
				c-0.2,0.2-0.4,0.3-0.6,0.4c-0.6,0.3-1.3,0.7-1.9,1c-0.1,0.1-0.3,0.1-0.5,0.2c-0.3,0.1-0.5,0.3-0.8,0.4c-0.4,0.2-0.7,0.5-1.1,0.5
				c0,0-0.1,0-0.1,0c-0.5,0.4-1.2,0.4-1.7,0.8c-0.1,0.1-0.2,0.1-0.3,0.1c-0.5,0.2-1,0.4-1.5,0.6c-0.3,0.1-0.6,0.1-0.9,0.2
				c-0.4,0.1-0.8,0.3-1.1,0.5c-0.1,0-0.1,0.1-0.2,0.1c-0.5,0.2-1.1,0.3-1.6,0.5c-0.1,0-0.2,0.1-0.3,0.2c-0.7,0.2-1.3,0.6-2.1,0.7
				c-0.1,0-0.1,0-0.1,0c-0.6,0.4-1.2,0.3-1.8,0.6c-0.9,0.4-1.9,0.4-2.9,0.8c-0.1,0-0.2,0.1-0.4,0c-0.4-0.1-0.8,0-1.2,0.2
				c-0.3,0.1-0.6,0.2-0.9,0.1c-0.4,0-0.9,0.1-1.3,0.2c-0.3,0.1-0.6,0.2-0.9,0.2c-0.4-0.1-0.8,0.1-1.3,0.1c-0.5,0-1,0.1-1.5,0.2
				c-0.8,0.1-1.5,0.2-2.3,0.3c-0.6,0.1-1.3,0-1.9,0.1c-0.3,0-0.6,0.1-0.9,0.2c-0.3,0.1-0.6-0.1-1,0c-0.6,0.1-1.1,0.3-1.7,0.1
				c0,0-0.1,0-0.1,0c-0.6,0.2-1.2,0.1-1.8,0.2c-0.1,0-0.2,0.1-0.2,0.1c-0.5-0.2-0.9,0-1.4,0.1c-0.2,0.1-0.5,0-0.8,0
				c-0.5,0.1-0.9,0.2-1.4,0.2c-0.4,0-0.8,0-1.2,0.1c-0.2,0-0.5,0.1-0.8,0.1c-0.4,0-0.8,0.2-1.2,0.1c-0.1,0-0.3,0-0.4,0.1
				c-0.2,0.1-0.3,0.1-0.5,0c-0.3,0-0.5,0-0.8,0c-0.6,0-1.2,0.1-1.9,0c-0.2,0-0.4,0-0.6,0.1c-0.8,0.1-1.6-0.1-2.4,0
				c-0.7,0-1.4-0.1-2.1-0.1c-0.5,0-1.1,0.1-1.6,0.1c-0.2,0-0.4,0-0.6,0c-0.4-0.1-0.7-0.1-1.1,0c-0.2,0.1-0.4-0.1-0.6,0
				c-0.9,0.1-1.8-0.1-2.7-0.1c-0.4,0-0.7,0.1-1.1,0.1c-0.6,0-1.3,0.1-1.9,0c-0.4,0-0.9,0.1-1.3-0.1c-0.1-0.1-0.3,0.1-0.5,0
				c-0.6-0.1-1.2,0-1.8-0.1c-0.7-0.1-1.3-0.1-1.9,0c-0.3,0-0.7-0.1-1.1-0.1c-0.2,0-0.4-0.1-0.6-0.1c-0.6,0.1-1.2,0-1.8-0.1
				c-0.2,0-0.4,0-0.6,0c-0.7,0-1.3-0.1-1.9-0.1c-0.3,0-0.6,0-0.9,0c-0.3,0-0.6,0-0.9,0c-0.3,0-0.7-0.1-1-0.1c-0.5,0-0.9,0.1-1.4,0
				c-0.4-0.1-0.9,0-1.3-0.1c-0.3-0.1-0.6-0.2-1-0.1c-0.3,0.1-0.6-0.1-0.9-0.1c-0.5-0.1-1.1-0.1-1.6-0.2c-0.7,0-1.3,0-2-0.1
				c-0.7-0.1-1.4-0.1-2.1-0.2c-0.4-0.1-0.8,0-1.3-0.1c-0.3,0-0.6,0-0.9-0.1c-0.6-0.1-1.2-0.3-1.8-0.2c-0.9,0-1.7-0.1-2.6-0.1
				c-1-0.1-1.9-0.1-2.9-0.2c-0.2,0-0.4-0.1-0.6-0.1c-0.7,0.1-1.3-0.2-2-0.2c-0.6,0-1.2,0-1.8-0.1c-0.2,0-0.4-0.1-0.7-0.1
				c0,0,0,0-0.1,0c-0.4,0.2-0.7,0-1.1-0.1c-1-0.1-2,0-3.1-0.2c-0.5-0.1-1.1-0.1-1.6-0.1c-0.5,0-1,0.1-1.5-0.1c-0.1,0-0.2,0-0.2,0
				c-0.4,0.2-0.8,0-1.1,0c-0.5,0-0.9,0-1.4-0.1c-0.7,0-1.3,0.1-1.9-0.1c-0.4-0.1-0.8,0-1.2,0c-0.1,0-0.3-0.1-0.4-0.1
				c-0.2,0-0.3,0-0.5-0.1c-0.6,0-1.1-0.1-1.6-0.1c-0.2,0-0.4,0-0.6,0c-0.4,0-0.8,0-1.2-0.1c-0.3-0.1-0.7-0.1-1.1-0.1
				c-0.7-0.1-1.4-0.1-2.1-0.2c-0.4-0.1-0.8-0.2-1.2-0.1c-0.1,0-0.2,0-0.2,0c-0.5-0.3-1.1-0.3-1.6-0.3c-0.6,0-1.1-0.3-1.7-0.2
				c-0.5,0.1-1-0.2-1.6-0.1c-0.5,0-1-0.2-1.6-0.3c-0.1,0-0.2-0.1-0.2-0.1c-1.2,0.1-2.3-0.3-3.5-0.5c-0.6-0.1-1.2-0.1-1.8-0.2
				c-0.4-0.1-0.9-0.1-1.3-0.2c-0.4-0.1-0.8-0.1-1.2-0.2c-0.2,0-0.3-0.1-0.5-0.1c-0.7-0.1-1.3-0.1-2-0.2c-0.3,0-0.6-0.1-1-0.2
				c-0.8-0.1-1.5-0.2-2.3-0.4c-0.7-0.1-1.3-0.3-2-0.4c-0.6-0.1-1.3-0.3-1.9-0.3c-0.7,0-1.3-0.4-2-0.2c-0.1,0-0.2-0.1-0.3-0.1
				c-0.3-0.1-0.5-0.2-0.8-0.1c-0.1,0-0.3,0-0.4-0.1c-0.3-0.1-0.7-0.3-1.1-0.2c0,0,0,0,0,0c-1-0.3-2.1-0.4-3-0.9
				c-0.1,0-0.1-0.1-0.2-0.1c-0.6-0.1-1.2-0.4-1.8-0.7c-0.7-0.4-1.4-0.7-2.1-1.1c-0.5-0.3-1-0.7-1.5-1c-0.3-0.2-0.5-0.3-0.8-0.5
				c-0.9-0.6-1.8-1.2-2.7-1.9c-1.1-0.9-2.1-1.8-3.1-2.7c-0.8-0.7-1.4-1.6-2.1-2.4c-0.8-1-1.6-2.1-2.3-3.1c-0.5-0.7-1-1.5-1.5-2.2
				c-0.4-0.6-0.9-1.2-1.4-1.9c-0.4-0.5-0.7-1-1-1.5c-1.3-2-2.4-4.1-3-6.4c-0.3-1.4-0.8-2.7-1.1-4.1C6.1,36.3,6.1,35.7,6.1,35.1
				C6.1,35.1,6.1,35.1,6.1,35.1"/>
		</g>
	</g>
	<g class="st1">
		<path class="st2" d="M29.5,50.6l4.8-1.2c0.3,1.6,1.6,2.8,3.4,2.8c1.9,0,3.4-1.5,3.4-3.5v-2.4c-1.1,1.3-2.6,2.1-4.5,2.1
			c-3.9,0-6.8-3.2-6.8-7.6c0-4.6,2.7-7.9,6.5-7.9c2,0,3.7,0.9,4.9,2.5l0.8-2.2h3.5v14.7c0,4.7-3.4,8.1-8.1,8.1
			C33.4,56.2,30.1,53.8,29.5,50.6z M37.9,45.4c1.9,0,3.3-1.7,3.3-4c0-2.3-1.4-4-3.3-4c-1.9,0-3.3,1.7-3.3,4
			C34.6,43.7,36,45.4,37.9,45.4z"/>
		<path class="st2" d="M51,26.3c1.6,0,2.8,1.2,2.8,2.8c0,1.6-1.2,2.8-2.8,2.8s-2.8-1.2-2.8-2.8C48.3,27.5,49.4,26.3,51,26.3z
			 M53.3,33.4v16.1h-4.5V33.4H53.3z"/>
	</g>
	<g class="st1">
		<path class="st2" d="M60,33.4l3.6,11.4L67,33.4h4.9l-5.5,16.1h-5.5L55,33.4H60z"/>
	</g>
	<g class="st1">
		<path class="st2" d="M72.4,41.5c0-4.9,3.4-8.5,8-8.5c4.5,0,7.8,3.5,7.8,8.5c0,0.5,0,0.8-0.1,1H77.1c0.4,1.9,1.7,3.2,3.5,3.2
			c1.3,0,2.5-0.8,2.9-1.9l4.5,1.4c-1,2.7-4,4.6-7.5,4.6C75.8,49.9,72.4,46.4,72.4,41.5z M83.5,39.9c-0.3-1.5-1.6-2.7-3.1-2.7
			s-2.7,1.1-3.2,2.7H83.5z"/>
		<path class="st2" d="M96.7,43.6c0-2.3,1.5-4.3,4-5.2c-1.9-1-3-2.4-3-4.4c0-3.4,3-5.9,7.2-5.9c1.2,0,2.1,0.2,3.1,0.6l-1.3,3.8
			c-0.5-0.2-1.2-0.3-1.7-0.3c-1.6,0-2.8,1-2.8,2.5c0,1.4,1.1,2.5,2.6,2.5h1.8c1,0,1.7-0.8,1.7-2V34l4.6-1v4.1h2.7v2.5H113v4
			c0,3.7-3.4,6.3-8.1,6.3C100.2,49.9,96.7,47.3,96.7,43.6z M104.9,45.4c1.9,0,3.3-1.3,3.3-3v-2.8h-3.4c-1.9,0-3.2,1.2-3.2,2.9
			C101.6,44.2,103,45.4,104.9,45.4z"/>
		<path class="st2" d="M123.2,33.4h1c0.9,0,1.5-0.7,1.5-1.7v-2.8h4.3v4.5h3.6v4H130v6c0,1.5,0.9,2.2,2.2,2.2c0.3,0,0.6,0,1.2-0.2
			l0.8,4.1c-0.6,0.2-1.6,0.4-3.2,0.4c-3.2,0-5.5-2.2-5.5-5.3v-7.2h-2.3V33.4z"/>
		<path class="st2" d="M139.1,40.8l5.3-1.1c0.4-0.1,0.6-0.3,0.6-0.6c0-1.1-0.9-1.9-2.3-1.9c-1.3,0-2.3,0.9-2.5,2.1l-4.4-1.5
			c0.7-2.7,3.5-4.6,6.6-4.6c4,0,7,2.5,7,6.1v7.2l0.1,3.2H146l-0.7-1.9c-1,1.4-2.7,2.3-4.8,2.3c-3.1,0-5.3-2-5.3-4.8
			C135.2,43.1,136.8,41.2,139.1,40.8z M143.8,42.2l-2.5,0.5c-0.9,0.2-1.4,0.8-1.4,1.5c0,0.9,0.6,1.5,1.8,1.5c1.7,0,3.2-1.4,3.2-3.5
			v-0.3C144.9,42,144.5,42,143.8,42.2z"/>
	</g>
	<g class="st1">
		<path class="st2" d="M157.1,27.6v11.6l4.8-5.8h5.8l-5.8,6.4l6.5,9.7h-5.5l-3.9-6.5l-1.7,1.9v4.6h-4.5V27.6H157.1z"/>
	</g>
	<g class="st1">
		<path class="st2" d="M168.4,41.5c0-4.9,3.4-8.5,8-8.5c4.5,0,7.8,3.5,7.8,8.5c0,0.5,0,0.8-0.1,1h-11.1c0.4,1.9,1.7,3.2,3.5,3.2
			c1.3,0,2.5-0.8,2.9-1.9l4.5,1.4c-1,2.7-4,4.6-7.5,4.6C171.8,49.9,168.4,46.4,168.4,41.5z M179.5,39.9c-0.3-1.5-1.6-2.7-3.1-2.7
			c-1.5,0-2.7,1.1-3.2,2.7H179.5z"/>
	</g>
</g>
</svg>
