<?xml version="1.0" encoding="utf-8"?>
<!-- Generator: Adobe Illustrator 25.2.1, SVG Export Plug-In . SVG Version: 6.00 Build 0)  -->
<svg version="1.1" id="Layer_1" xmlns="http://www.w3.org/2000/svg" xmlns:xlink="http://www.w3.org/1999/xlink" x="0px" y="0px"
	 viewBox="0 0 1048 535.62" style="enable-background:new 0 0 1048 535.62;" xml:space="preserve">
<style type="text/css">
	.st0{fill:#283B00;}
	.st1{fill:#D1E9C5;}
	.st2{fill:#FFF7B1;}
	.st3{fill:#FF5902;}
</style>
<path class="st0" d="M241.1,125.18c29.27-13.67,60.17-22.67,91.51-29.84c44.9-10.27,87.07,0.05,126.98,22.61
	c31.86,18.01,59.8,41.52,86.84,66.02c27.9,25.27,42.09,58.23,49.16,94.66c2.62,13.51-0.42,25.61-7.89,36.69
	c-19.65,29.18-45.57,48.32-81.5,51.37c-36.56,3.1-73.21,5.49-109.67,9.38c-58.42,6.24-115.17-3.84-171.44-19.12
	c-17.96-4.88-34.56-13.06-48.8-25.72c-9.19-8.18-13.5-18.04-12.27-30.41c0.58-5.83-0.58-10.84-0.62-12.38
	c-1.87-70.15,20.32-109.8,20.32-109.8c6.28-11.23,17.43-37.46,45.16-47.82C233.07,129.24,237.03,127.07,241.1,125.18z"/>
<path class="st0" d="M679.45,140.52c27.18-2.3,54.07-2.81,80.85-1.63c33.24,1.46,66.73,2.13,98.54,8.14
	c12.17,2.3,24.27,4.77,36.22,7.47c9.77,2.21,17.39,6.43,22.69,12.32c1.63,1.81,2.63,3.92,3.77,5.94c1.45,2.56,2.78,5.15,4.09,7.75
	c0.83,1.64,1.84,3.26,2.22,4.98c4.6,20.65-0.95,40.77-16.26,60.07c-9.91,12.5-25.65,20.9-44.98,25.79
	c-10.22,2.59-20.76,4.47-31.22,6.49c-14.71,2.84-29.46,5.5-44.2,8.25c-17.88,3.34-35.87,3.64-53.86,4.21
	c-15.03,0.47-29.98,0.52-44.03-2.64c-40.9-9.19-73.26-25.56-95.5-50.22c-12.13-13.45-15.44-28.78-11.19-44.87
	c6.39-24.14,28.89-39.43,63.31-46.94C659.61,143.51,669.6,142.2,679.45,140.52z"/>
<path class="st0" d="M828.87,310.42c39.53,5.21,71.19,13.57,84.18,18.31c4.97,1.81,18.46,6.76,29.51,10.53
	c11.05,3.76,12.72,4.06,21.2,7.8c9.27,4.09,21.84,12.15,48.46,26.32c15.16,8.07,23.07,19.99,26.93,33.68
	c3.54,12.59-1.78,23.25-11.79,32.24c-10.46,9.38-23.96,14.72-38.51,18.61c-31.34,8.37-63.95,12.45-96.85,15.21
	c-56.16,4.71-112.55,8.33-169.39,6.44c-28.54-0.94-57.22-3.8-85.62-7.44c-20.47-2.62-39.38-10.26-56.37-21
	c-18.36-11.62-27.78-27.07-29.02-45.31c-1.99-29.08,10.23-52.66,39.02-69.12c28.65-16.39,61.44-24.21,95.99-28.02
	C706.74,306.43,761.53,301.54,828.87,310.42z"/>
<path class="st0" d="M638.87,24.82c6.34-0.6,24.2-1.26,45.43,4.65c12.87,3.58,22.07,10.81,30.64,20.33
	c11.92,13.25,8.75,27.34-5.07,38.4c-11.01,8.82-23.98,14.26-38.35,16.98c-27.49,5.2-55.03,10.17-82.5,15.44
	c-48.29,9.26-93.74,6.21-111.37-18.61c-1.67-2.36-5.89-8.46-6.09-16.7c-0.55-23.17,31.22-40.49,40-45.27
	C539.51,24.79,548.12,33.33,638.87,24.82z"/>
<g>
	<g>
		<path class="st1" d="M536.47,59.99c2.4,0,4.32,0.83,5.75,2.48s2.14,4.14,2.14,7.45c0,2.19-0.33,4.03-0.98,5.52
			s-1.58,2.61-2.77,3.38s-2.59,1.14-4.21,1.14c-1.02,0-1.92-0.13-2.69-0.4s-1.44-0.63-1.99-1.09s-1.01-0.96-1.37-1.49h-0.21
			c0.04,0.46,0.08,1.01,0.13,1.65s0.08,1.21,0.08,1.69v7.91h-2.94V60.34h2.41l0.39,2.85h0.14c0.38-0.59,0.83-1.12,1.37-1.61
			s1.2-0.87,1.98-1.16S535.41,59.99,536.47,59.99z M535.96,62.45c-1.34,0-2.41,0.26-3.22,0.77s-1.41,1.29-1.79,2.31
			s-0.57,2.31-0.6,3.86v0.56c0,1.63,0.18,3.01,0.54,4.13s0.95,1.98,1.78,2.57s1.94,0.88,3.33,0.88c1.2,0,2.19-0.32,2.99-0.97
			s1.39-1.54,1.79-2.7s0.59-2.48,0.59-3.98c0-2.27-0.44-4.08-1.33-5.42S537.79,62.45,535.96,62.45z"/>
		<path class="st1" d="M566.06,69.94c0,1.58-0.21,2.99-0.62,4.24s-1,2.29-1.78,3.15s-1.71,1.51-2.8,1.96s-2.34,0.68-3.72,0.68
			c-1.29,0-2.47-0.23-3.54-0.68s-2-1.1-2.78-1.96s-1.38-1.9-1.81-3.15s-0.64-2.65-0.64-4.24c0-2.11,0.36-3.91,1.07-5.39
			s1.74-2.61,3.07-3.39s2.91-1.17,4.75-1.17c1.76,0,3.3,0.39,4.62,1.18s2.34,1.92,3.08,3.4S566.06,67.84,566.06,69.94z M551.4,69.94
			c0,1.55,0.21,2.89,0.62,4.03s1.04,2.02,1.9,2.64s1.96,0.93,3.3,0.93c1.34,0,2.44-0.31,3.3-0.93s1.5-1.5,1.91-2.64
			s0.62-2.48,0.62-4.03c0-1.54-0.21-2.86-0.62-3.98s-1.04-1.98-1.9-2.59s-1.96-0.91-3.32-0.91c-2,0-3.47,0.66-4.4,1.99
			S551.4,67.6,551.4,69.94z"/>
		<path class="st1" d="M580.15,59.99c2.4,0,4.32,0.83,5.75,2.48s2.14,4.14,2.14,7.45c0,2.19-0.33,4.03-0.98,5.52
			s-1.58,2.61-2.77,3.38s-2.59,1.14-4.21,1.14c-1.02,0-1.92-0.13-2.69-0.4s-1.44-0.63-1.99-1.09s-1.01-0.96-1.37-1.49h-0.21
			c0.04,0.46,0.08,1.01,0.13,1.65s0.08,1.21,0.08,1.69v7.91h-2.94V60.34h2.41l0.39,2.85h0.14c0.38-0.59,0.83-1.12,1.37-1.61
			s1.2-0.87,1.98-1.16S579.09,59.99,580.15,59.99z M579.64,62.45c-1.34,0-2.41,0.26-3.22,0.77s-1.41,1.29-1.79,2.31
			s-0.57,2.31-0.6,3.86v0.56c0,1.63,0.18,3.01,0.54,4.13s0.95,1.98,1.78,2.57s1.94,0.88,3.33,0.88c1.2,0,2.19-0.32,2.99-0.97
			s1.39-1.54,1.79-2.7s0.59-2.48,0.59-3.98c0-2.27-0.44-4.08-1.33-5.42S581.47,62.45,579.64,62.45z"/>
		<path class="st1" d="M618.39,60.34v19.27H616l-0.42-2.71h-0.16c-0.4,0.67-0.91,1.23-1.55,1.69s-1.34,0.8-2.13,1.03
			s-1.63,0.34-2.52,0.34c-1.52,0-2.8-0.25-3.83-0.74s-1.81-1.25-2.33-2.29s-0.78-2.36-0.78-3.97V60.34h2.95v12.41
			c0,1.61,0.36,2.8,1.09,3.59s1.83,1.19,3.32,1.19c1.43,0,2.57-0.27,3.42-0.81s1.46-1.33,1.84-2.38s0.56-2.33,0.56-3.86V60.34
			H618.39z"/>
		<path class="st1" d="M633.61,59.99c2.4,0,4.32,0.83,5.75,2.48s2.14,4.14,2.14,7.45c0,2.19-0.33,4.03-0.98,5.52
			s-1.58,2.61-2.77,3.38s-2.59,1.14-4.21,1.14c-1.02,0-1.92-0.13-2.69-0.4s-1.44-0.63-1.99-1.09s-1.01-0.96-1.37-1.49h-0.21
			c0.04,0.46,0.08,1.01,0.13,1.65s0.08,1.21,0.08,1.69v7.91h-2.94V60.34h2.41l0.39,2.85h0.14c0.38-0.59,0.83-1.12,1.37-1.61
			s1.2-0.87,1.98-1.16S632.54,59.99,633.61,59.99z M633.1,62.45c-1.34,0-2.41,0.26-3.22,0.77s-1.41,1.29-1.79,2.31
			s-0.57,2.31-0.6,3.86v0.56c0,1.63,0.18,3.01,0.54,4.13s0.95,1.98,1.78,2.57s1.94,0.88,3.33,0.88c1.2,0,2.19-0.32,2.99-0.97
			s1.39-1.54,1.79-2.7s0.59-2.48,0.59-3.98c0-2.27-0.44-4.08-1.33-5.42S634.93,62.45,633.1,62.45z"/>
		<path class="st1" d="M659.04,74.33c0,1.23-0.31,2.26-0.92,3.1s-1.49,1.47-2.64,1.89s-2.51,0.63-4.09,0.63
			c-1.35,0-2.51-0.11-3.5-0.32s-1.85-0.51-2.58-0.9v-2.69c0.79,0.39,1.72,0.74,2.81,1.05s2.2,0.47,3.34,0.47
			c1.66,0,2.87-0.27,3.62-0.81s1.12-1.27,1.12-2.2c0-0.53-0.15-0.99-0.45-1.4s-0.8-0.8-1.5-1.18s-1.68-0.8-2.92-1.26
			c-1.23-0.47-2.29-0.94-3.19-1.4s-1.59-1.03-2.07-1.7s-0.73-1.54-0.73-2.6c0-1.63,0.66-2.88,1.98-3.75s3.05-1.31,5.19-1.31
			c1.16,0,2.25,0.11,3.26,0.34s1.96,0.54,2.84,0.92l-0.98,2.34c-0.8-0.34-1.65-0.63-2.55-0.86s-1.82-0.35-2.76-0.35
			c-1.35,0-2.38,0.22-3.1,0.67s-1.08,1.05-1.08,1.83c0,0.6,0.17,1.09,0.5,1.48s0.87,0.75,1.61,1.09s1.71,0.74,2.92,1.2
			c1.21,0.45,2.25,0.9,3.13,1.38s1.56,1.05,2.03,1.72S659.04,73.28,659.04,74.33z"/>
	</g>
</g>
<g>
	<g>
		<path class="st1" d="M725.84,387.82c-1.27,0-2.24-0.24-2.93-0.71s-1.03-1.13-1.03-1.98c0-0.6,0.19-1.12,0.58-1.55
			s0.92-0.71,1.6-0.85c-0.25-0.12-0.47-0.29-0.65-0.53s-0.27-0.5-0.27-0.81c0-0.35,0.1-0.66,0.29-0.93c0.2-0.27,0.5-0.52,0.9-0.77
			c-0.5-0.21-0.91-0.55-1.23-1.04s-0.47-1.06-0.47-1.71c0-0.69,0.14-1.28,0.43-1.77s0.7-0.86,1.25-1.12s1.2-0.39,1.98-0.39
			c0.17,0,0.34,0.01,0.51,0.02c0.17,0.01,0.34,0.04,0.5,0.06s0.3,0.06,0.41,0.09h3.3v0.94l-1.78,0.22c0.18,0.23,0.32,0.5,0.44,0.83
			s0.18,0.68,0.18,1.07c0,0.96-0.33,1.72-0.98,2.29s-1.54,0.85-2.68,0.85c-0.27,0-0.54-0.02-0.83-0.07
			c-0.29,0.16-0.5,0.33-0.66,0.53c-0.15,0.19-0.22,0.42-0.22,0.67c0,0.19,0.06,0.34,0.17,0.45c0.12,0.11,0.28,0.19,0.5,0.24
			s0.48,0.07,0.78,0.07h1.7c1.05,0,1.85,0.22,2.41,0.66c0.56,0.44,0.84,1.08,0.84,1.92c0,1.07-0.43,1.88-1.3,2.45
			S727.48,387.82,725.84,387.82z M725.88,386.67c0.8,0,1.46-0.08,1.98-0.24c0.52-0.16,0.92-0.39,1.18-0.69
			c0.26-0.3,0.39-0.66,0.39-1.08c0-0.39-0.09-0.68-0.26-0.87s-0.43-0.33-0.77-0.4s-0.76-0.1-1.25-0.1h-1.67
			c-0.43,0-0.81,0.07-1.13,0.2s-0.57,0.33-0.74,0.6s-0.26,0.59-0.26,0.98c0,0.52,0.22,0.92,0.66,1.19S725.07,386.67,725.88,386.67z
			 M726.26,378.97c0.7,0,1.22-0.18,1.57-0.53s0.53-0.86,0.53-1.54c0-0.72-0.18-1.26-0.54-1.62s-0.88-0.54-1.58-0.54
			c-0.67,0-1.18,0.19-1.54,0.56c-0.36,0.37-0.54,0.92-0.54,1.63c0,0.66,0.18,1.16,0.54,1.51S725.58,378.97,726.26,378.97z"/>
		<path class="st1" d="M736.52,373.7c1.15,0,2,0.26,2.56,0.77s0.83,1.34,0.83,2.47v6.55h-1.06l-0.28-1.42h-0.07
			c-0.27,0.35-0.55,0.65-0.84,0.88s-0.63,0.42-1.02,0.54s-0.85,0.18-1.41,0.18c-0.59,0-1.11-0.1-1.56-0.31s-0.81-0.52-1.07-0.93
			s-0.39-0.94-0.39-1.58c0-0.96,0.38-1.7,1.14-2.21s1.92-0.8,3.48-0.84l1.66-0.07v-0.59c0-0.83-0.18-1.42-0.54-1.75
			s-0.86-0.5-1.51-0.5c-0.5,0-0.98,0.07-1.44,0.22s-0.89,0.32-1.3,0.52l-0.45-1.11c0.43-0.22,0.93-0.41,1.49-0.57
			S735.9,373.7,736.52,373.7z M738.48,378.74l-1.47,0.06c-1.2,0.05-2.05,0.24-2.54,0.59s-0.74,0.83-0.74,1.47
			c0,0.55,0.17,0.96,0.5,1.22s0.78,0.4,1.33,0.4c0.86,0,1.56-0.24,2.1-0.71s0.82-1.19,0.82-2.14V378.74z"/>
		<path class="st1" d="M746.03,382.47c0.24,0,0.49-0.02,0.74-0.06s0.46-0.09,0.62-0.15v1.13c-0.17,0.08-0.41,0.14-0.71,0.19
			s-0.6,0.08-0.88,0.08c-0.51,0-0.97-0.09-1.39-0.27s-0.75-0.48-1-0.91s-0.37-1.02-0.37-1.78V375h-1.37v-0.71l1.38-0.57l0.58-2.09
			h0.88v2.23h2.82V375h-2.82v5.67c0,0.6,0.14,1.05,0.42,1.35S745.57,382.47,746.03,382.47z"/>
		<path class="st1" d="M750.8,369.82v4.09c0,0.23-0.01,0.47-0.02,0.71s-0.03,0.46-0.06,0.65h0.1c0.2-0.34,0.45-0.62,0.76-0.86
			c0.31-0.23,0.66-0.41,1.05-0.53s0.81-0.18,1.25-0.18c0.77,0,1.42,0.12,1.94,0.37c0.52,0.25,0.91,0.63,1.17,1.14s0.39,1.18,0.39,2
			v6.28h-1.44v-6.18c0-0.8-0.18-1.4-0.55-1.8s-0.93-0.6-1.68-0.6c-0.71,0-1.29,0.14-1.71,0.41s-0.73,0.67-0.91,1.2
			c-0.18,0.53-0.28,1.17-0.28,1.93v5.04h-1.46v-13.68H750.8z"/>
		<path class="st1" d="M764.09,373.68c0.82,0,1.52,0.18,2.11,0.54s1.03,0.87,1.34,1.53s0.47,1.42,0.47,2.29v0.91h-6.65
			c0.02,1.13,0.3,1.99,0.84,2.58s1.31,0.89,2.3,0.89c0.61,0,1.15-0.06,1.62-0.17s0.96-0.28,1.46-0.49v1.28
			c-0.49,0.22-0.97,0.38-1.45,0.47c-0.48,0.1-1.04,0.15-1.69,0.15c-0.93,0-1.73-0.19-2.42-0.57c-0.69-0.38-1.22-0.93-1.6-1.67
			s-0.57-1.63-0.57-2.69c0-1.04,0.17-1.93,0.52-2.69c0.35-0.76,0.84-1.34,1.48-1.75C762.48,373.89,763.23,373.68,764.09,373.68z
			 M764.07,374.88c-0.78,0-1.4,0.25-1.86,0.76s-0.74,1.22-0.83,2.14h5.1c-0.01-0.57-0.1-1.08-0.27-1.52s-0.43-0.78-0.79-1.02
			S764.62,374.88,764.07,374.88z"/>
		<path class="st1" d="M774.86,373.68c0.19,0,0.4,0.01,0.61,0.03s0.4,0.05,0.56,0.08l-0.18,1.35c-0.16-0.04-0.33-0.07-0.53-0.1
			s-0.38-0.04-0.54-0.04c-0.39,0-0.75,0.08-1.09,0.23c-0.34,0.16-0.64,0.38-0.9,0.67s-0.46,0.64-0.61,1.05s-0.22,0.86-0.22,1.36
			v5.17h-1.47v-9.63h1.21l0.16,1.78h0.06c0.2-0.36,0.44-0.68,0.72-0.98s0.61-0.53,0.98-0.71
			C773.99,373.77,774.4,373.68,774.86,373.68z"/>
		<path class="st1" d="M788.75,380.85c0,0.62-0.15,1.13-0.46,1.55c-0.31,0.42-0.75,0.73-1.32,0.94c-0.57,0.21-1.25,0.32-2.04,0.32
			c-0.67,0-1.26-0.05-1.75-0.16s-0.92-0.25-1.29-0.45v-1.34c0.39,0.19,0.86,0.37,1.41,0.53s1.1,0.24,1.67,0.24
			c0.83,0,1.44-0.13,1.81-0.4s0.56-0.64,0.56-1.1c0-0.26-0.08-0.5-0.22-0.7c-0.15-0.2-0.4-0.4-0.75-0.59s-0.84-0.4-1.46-0.63
			c-0.62-0.23-1.15-0.47-1.6-0.7c-0.45-0.23-0.79-0.51-1.04-0.85s-0.36-0.77-0.36-1.3c0-0.81,0.33-1.44,0.99-1.88
			c0.66-0.44,1.52-0.66,2.6-0.66c0.58,0,1.12,0.06,1.63,0.17s0.98,0.27,1.42,0.46l-0.49,1.17c-0.4-0.17-0.82-0.31-1.27-0.43
			s-0.91-0.18-1.38-0.18c-0.67,0-1.19,0.11-1.55,0.33c-0.36,0.22-0.54,0.53-0.54,0.91c0,0.3,0.08,0.54,0.25,0.74
			c0.17,0.19,0.44,0.38,0.8,0.54s0.86,0.37,1.46,0.6c0.6,0.22,1.12,0.45,1.56,0.69s0.78,0.52,1.02,0.86
			C788.63,379.9,788.75,380.33,788.75,380.85z"/>
		<path class="st1" d="M799.4,378.66c0,0.79-0.1,1.5-0.31,2.12s-0.5,1.15-0.89,1.57s-0.85,0.75-1.4,0.98s-1.17,0.34-1.86,0.34
			c-0.64,0-1.24-0.11-1.77-0.34c-0.54-0.23-1-0.55-1.39-0.98c-0.39-0.43-0.69-0.95-0.91-1.57s-0.32-1.33-0.32-2.12
			c0-1.05,0.18-1.95,0.54-2.69s0.87-1.31,1.53-1.7c0.66-0.39,1.46-0.58,2.38-0.58c0.88,0,1.65,0.2,2.31,0.59
			c0.66,0.39,1.17,0.96,1.54,1.7C799.22,376.71,799.4,377.61,799.4,378.66z M792.07,378.66c0,0.77,0.1,1.44,0.31,2.01
			s0.52,1.01,0.95,1.32s0.98,0.47,1.65,0.47c0.67,0,1.22-0.16,1.65-0.47c0.43-0.31,0.75-0.75,0.95-1.32s0.31-1.24,0.31-2.01
			c0-0.77-0.1-1.43-0.31-1.99s-0.52-0.99-0.95-1.3s-0.98-0.46-1.66-0.46c-1,0-1.74,0.33-2.2,0.99
			C792.3,376.57,792.07,377.49,792.07,378.66z"/>
		<path class="st1" d="M812.38,373.68c1.06,0,1.86,0.28,2.4,0.83s0.81,1.44,0.81,2.67v6.31h-1.44v-6.24c0-0.78-0.17-1.36-0.51-1.75
			s-0.84-0.58-1.5-0.58c-0.93,0-1.61,0.27-2.03,0.81s-0.63,1.33-0.63,2.38v5.39h-1.45v-6.24c0-0.52-0.07-0.96-0.22-1.3
			c-0.15-0.35-0.37-0.6-0.67-0.78s-0.67-0.26-1.12-0.26c-0.64,0-1.15,0.13-1.54,0.4s-0.67,0.66-0.84,1.17s-0.26,1.16-0.26,1.91v5.1
			h-1.46v-9.63h1.18l0.22,1.36h0.08c0.19-0.33,0.44-0.62,0.73-0.84s0.62-0.4,0.98-0.52s0.75-0.18,1.16-0.18
			c0.73,0,1.35,0.14,1.84,0.41c0.49,0.27,0.85,0.69,1.08,1.24h0.08c0.32-0.56,0.75-0.97,1.3-1.24S811.73,373.68,812.38,373.68z"/>
		<path class="st1" d="M822.3,373.68c0.82,0,1.52,0.18,2.11,0.54s1.03,0.87,1.34,1.53s0.47,1.42,0.47,2.29v0.91h-6.65
			c0.02,1.13,0.3,1.99,0.84,2.58s1.31,0.89,2.3,0.89c0.61,0,1.15-0.06,1.62-0.17s0.96-0.28,1.46-0.49v1.28
			c-0.49,0.22-0.97,0.38-1.45,0.47c-0.48,0.1-1.04,0.15-1.69,0.15c-0.93,0-1.73-0.19-2.42-0.57c-0.69-0.38-1.22-0.93-1.6-1.67
			s-0.57-1.63-0.57-2.69c0-1.04,0.17-1.93,0.52-2.69c0.35-0.76,0.84-1.34,1.48-1.75C820.69,373.89,821.44,373.68,822.3,373.68z
			 M822.28,374.88c-0.78,0-1.4,0.25-1.86,0.76s-0.74,1.22-0.83,2.14h5.1c-0.01-0.57-0.1-1.08-0.27-1.52s-0.43-0.78-0.79-1.02
			S822.83,374.88,822.28,374.88z"/>
		<path class="st1" d="M836.97,373.7c1.15,0,2,0.26,2.56,0.77s0.83,1.34,0.83,2.47v6.55h-1.06l-0.28-1.42h-0.07
			c-0.27,0.35-0.55,0.65-0.84,0.88s-0.63,0.42-1.02,0.54s-0.85,0.18-1.41,0.18c-0.59,0-1.11-0.1-1.56-0.31s-0.81-0.52-1.07-0.93
			s-0.39-0.94-0.39-1.58c0-0.96,0.38-1.7,1.14-2.21s1.92-0.8,3.48-0.84l1.66-0.07v-0.59c0-0.83-0.18-1.42-0.54-1.75
			s-0.86-0.5-1.51-0.5c-0.5,0-0.98,0.07-1.44,0.22s-0.89,0.32-1.3,0.52l-0.45-1.11c0.43-0.22,0.93-0.41,1.49-0.57
			S836.35,373.7,836.97,373.7z M838.93,378.74l-1.47,0.06c-1.2,0.05-2.05,0.24-2.54,0.59s-0.74,0.83-0.74,1.47
			c0,0.55,0.17,0.96,0.5,1.22s0.78,0.4,1.33,0.4c0.86,0,1.56-0.24,2.1-0.71s0.82-1.19,0.82-2.14V378.74z"/>
		<path class="st1" d="M847.75,373.68c0.19,0,0.4,0.01,0.61,0.03s0.4,0.05,0.56,0.08l-0.18,1.35c-0.16-0.04-0.33-0.07-0.53-0.1
			s-0.38-0.04-0.54-0.04c-0.39,0-0.75,0.08-1.09,0.23c-0.34,0.16-0.64,0.38-0.9,0.67s-0.46,0.64-0.61,1.05s-0.22,0.86-0.22,1.36
			v5.17h-1.47v-9.63h1.21l0.16,1.78h0.06c0.2-0.36,0.44-0.68,0.72-0.98s0.61-0.53,0.98-0.71
			C846.88,373.77,847.29,373.68,847.75,373.68z"/>
		<path class="st1" d="M853.84,382.47c0.24,0,0.49-0.02,0.74-0.06s0.46-0.09,0.62-0.15v1.13c-0.17,0.08-0.41,0.14-0.71,0.19
			s-0.6,0.08-0.88,0.08c-0.51,0-0.97-0.09-1.39-0.27s-0.75-0.48-1-0.91s-0.37-1.02-0.37-1.78V375h-1.37v-0.71l1.38-0.57l0.58-2.09
			h0.88v2.23h2.82V375h-2.82v5.67c0,0.6,0.14,1.05,0.42,1.35S853.38,382.47,853.84,382.47z"/>
		<path class="st1" d="M864.98,383.47l-1.71-5.61c-0.08-0.24-0.15-0.48-0.21-0.71c-0.07-0.23-0.13-0.45-0.19-0.67
			s-0.11-0.41-0.15-0.6c-0.04-0.18-0.08-0.34-0.11-0.48h-0.06c-0.02,0.13-0.06,0.29-0.1,0.48s-0.09,0.38-0.15,0.6
			s-0.12,0.44-0.18,0.68s-0.14,0.48-0.22,0.72l-1.79,5.58h-1.64l-2.65-9.63h1.51l1.39,5.32c0.09,0.35,0.18,0.7,0.27,1.04
			s0.16,0.67,0.22,0.97c0.06,0.3,0.11,0.56,0.14,0.79h0.07c0.04-0.15,0.08-0.32,0.12-0.53c0.04-0.21,0.09-0.42,0.15-0.65
			c0.05-0.23,0.12-0.46,0.18-0.69s0.13-0.45,0.19-0.66l1.78-5.58h1.57l1.71,5.57c0.09,0.28,0.17,0.57,0.26,0.88
			c0.08,0.3,0.16,0.6,0.23,0.88s0.12,0.54,0.15,0.76h0.07c0.02-0.2,0.07-0.45,0.13-0.74s0.14-0.62,0.22-0.97
			c0.08-0.35,0.17-0.71,0.27-1.07l1.41-5.32h1.49l-2.66,9.63H864.98z"/>
		<path class="st1" d="M879.4,378.66c0,0.79-0.1,1.5-0.31,2.12s-0.5,1.15-0.89,1.57s-0.85,0.75-1.4,0.98s-1.17,0.34-1.86,0.34
			c-0.64,0-1.24-0.11-1.77-0.34c-0.54-0.23-1-0.55-1.39-0.98c-0.39-0.43-0.69-0.95-0.91-1.57s-0.32-1.33-0.32-2.12
			c0-1.05,0.18-1.95,0.54-2.69s0.87-1.31,1.53-1.7c0.66-0.39,1.46-0.58,2.38-0.58c0.88,0,1.65,0.2,2.31,0.59
			c0.66,0.39,1.17,0.96,1.54,1.7C879.22,376.71,879.4,377.61,879.4,378.66z M872.07,378.66c0,0.77,0.1,1.44,0.31,2.01
			s0.52,1.01,0.95,1.32s0.98,0.47,1.65,0.47c0.67,0,1.22-0.16,1.65-0.47c0.43-0.31,0.75-0.75,0.95-1.32s0.31-1.24,0.31-2.01
			c0-0.77-0.1-1.43-0.31-1.99s-0.52-0.99-0.95-1.3s-0.98-0.46-1.66-0.46c-1,0-1.74,0.33-2.2,0.99
			C872.3,376.57,872.07,377.49,872.07,378.66z"/>
		<path class="st1" d="M886.3,373.68c0.19,0,0.4,0.01,0.61,0.03s0.4,0.05,0.56,0.08l-0.18,1.35c-0.16-0.04-0.33-0.07-0.53-0.1
			s-0.38-0.04-0.54-0.04c-0.39,0-0.75,0.08-1.09,0.23c-0.34,0.16-0.64,0.38-0.9,0.67s-0.46,0.64-0.61,1.05s-0.22,0.86-0.22,1.36
			v5.17h-1.47v-9.63h1.21l0.16,1.78h0.06c0.2-0.36,0.44-0.68,0.72-0.98s0.61-0.53,0.98-0.71
			C885.43,373.77,885.84,373.68,886.3,373.68z"/>
		<path class="st1" d="M890.73,369.82v7.1c0,0.23-0.01,0.52-0.03,0.86s-0.03,0.63-0.04,0.89h0.06c0.12-0.15,0.3-0.38,0.54-0.68
			c0.24-0.3,0.44-0.54,0.6-0.72l3.2-3.41h1.71l-3.88,4.11l4.16,5.52h-1.76l-3.4-4.56l-1.17,1.07v3.49h-1.45v-13.68H890.73z"/>
		<path class="st1" d="M906.52,382.47c0.24,0,0.49-0.02,0.74-0.06s0.46-0.09,0.62-0.15v1.13c-0.17,0.08-0.41,0.14-0.71,0.19
			s-0.6,0.08-0.88,0.08c-0.51,0-0.97-0.09-1.39-0.27s-0.75-0.48-1-0.91s-0.37-1.02-0.37-1.78V375h-1.37v-0.71l1.38-0.57l0.58-2.09
			h0.88v2.23h2.82V375h-2.82v5.67c0,0.6,0.14,1.05,0.42,1.35S906.06,382.47,906.52,382.47z"/>
		<path class="st1" d="M911.29,369.82v4.09c0,0.23-0.01,0.47-0.02,0.71s-0.03,0.46-0.06,0.65h0.1c0.2-0.34,0.45-0.62,0.76-0.86
			c0.31-0.23,0.66-0.41,1.05-0.53s0.81-0.18,1.25-0.18c0.77,0,1.42,0.12,1.94,0.37c0.52,0.25,0.91,0.63,1.17,1.14s0.39,1.18,0.39,2
			v6.28h-1.44v-6.18c0-0.8-0.18-1.4-0.55-1.8s-0.93-0.6-1.68-0.6c-0.71,0-1.29,0.14-1.71,0.41s-0.73,0.67-0.91,1.2
			c-0.18,0.53-0.28,1.17-0.28,1.93v5.04h-1.46v-13.68H911.29z"/>
		<path class="st1" d="M924.47,373.7c1.15,0,2,0.26,2.56,0.77s0.83,1.34,0.83,2.47v6.55h-1.06l-0.28-1.42h-0.07
			c-0.27,0.35-0.55,0.65-0.84,0.88s-0.63,0.42-1.02,0.54s-0.85,0.18-1.41,0.18c-0.59,0-1.11-0.1-1.56-0.31s-0.81-0.52-1.07-0.93
			s-0.39-0.94-0.39-1.58c0-0.96,0.38-1.7,1.14-2.21s1.92-0.8,3.48-0.84l1.66-0.07v-0.59c0-0.83-0.18-1.42-0.54-1.75
			s-0.86-0.5-1.51-0.5c-0.5,0-0.98,0.07-1.44,0.22s-0.89,0.32-1.3,0.52l-0.45-1.11c0.43-0.22,0.93-0.41,1.49-0.57
			S923.85,373.7,924.47,373.7z M926.42,378.74l-1.47,0.06c-1.2,0.05-2.05,0.24-2.54,0.59s-0.74,0.83-0.74,1.47
			c0,0.55,0.17,0.96,0.5,1.22s0.78,0.4,1.33,0.4c0.86,0,1.56-0.24,2.1-0.71s0.82-1.19,0.82-2.14V378.74z"/>
		<path class="st1" d="M933.98,382.47c0.24,0,0.49-0.02,0.74-0.06s0.46-0.09,0.62-0.15v1.13c-0.17,0.08-0.41,0.14-0.71,0.19
			s-0.6,0.08-0.88,0.08c-0.51,0-0.97-0.09-1.39-0.27s-0.75-0.48-1-0.91s-0.37-1.02-0.37-1.78V375h-1.37v-0.71l1.38-0.57l0.58-2.09
			h0.88v2.23h2.82V375h-2.82v5.67c0,0.6,0.14,1.05,0.42,1.35S933.52,382.47,933.98,382.47z"/>
		<path class="st1" d="M938.44,370.64l0.13,0.19c-0.11,0.43-0.24,0.89-0.4,1.38s-0.34,0.98-0.54,1.46s-0.39,0.94-0.58,1.37h-1.07
			c0.09-0.33,0.18-0.69,0.27-1.07s0.18-0.77,0.26-1.16s0.16-0.77,0.22-1.14c0.07-0.37,0.12-0.71,0.17-1.03H938.44z"/>
		<path class="st1" d="M946.56,380.85c0,0.62-0.15,1.13-0.46,1.55c-0.31,0.42-0.75,0.73-1.32,0.94c-0.57,0.21-1.25,0.32-2.04,0.32
			c-0.67,0-1.26-0.05-1.75-0.16s-0.92-0.25-1.29-0.45v-1.34c0.39,0.19,0.86,0.37,1.41,0.53s1.1,0.24,1.67,0.24
			c0.83,0,1.44-0.13,1.81-0.4s0.56-0.64,0.56-1.1c0-0.26-0.08-0.5-0.22-0.7c-0.15-0.2-0.4-0.4-0.75-0.59s-0.84-0.4-1.46-0.63
			c-0.62-0.23-1.15-0.47-1.6-0.7c-0.45-0.23-0.79-0.51-1.04-0.85s-0.36-0.77-0.36-1.3c0-0.81,0.33-1.44,0.99-1.88
			c0.66-0.44,1.52-0.66,2.6-0.66c0.58,0,1.12,0.06,1.63,0.17s0.98,0.27,1.42,0.46l-0.49,1.17c-0.4-0.17-0.82-0.31-1.27-0.43
			s-0.91-0.18-1.38-0.18c-0.67,0-1.19,0.11-1.55,0.33c-0.36,0.22-0.54,0.53-0.54,0.91c0,0.3,0.08,0.54,0.25,0.74
			c0.17,0.19,0.44,0.38,0.8,0.54s0.86,0.37,1.46,0.6c0.6,0.22,1.12,0.45,1.56,0.69s0.78,0.52,1.02,0.86
			C946.45,379.9,946.56,380.33,946.56,380.85z"/>
		<path class="st1" d="M727.01,405.67c-0.87,0-1.63-0.18-2.29-0.54s-1.18-0.9-1.55-1.63s-0.55-1.66-0.55-2.77
			c0-1.17,0.19-2.12,0.58-2.86s0.93-1.29,1.61-1.65s1.46-0.54,2.34-0.54c0.48,0,0.95,0.05,1.39,0.15c0.45,0.1,0.82,0.22,1.1,0.36
			l-0.44,1.22c-0.29-0.12-0.63-0.22-1.02-0.32s-0.74-0.14-1.08-0.14c-0.67,0-1.22,0.14-1.67,0.43s-0.77,0.71-0.99,1.27
			c-0.22,0.56-0.33,1.24-0.33,2.06c0,0.78,0.11,1.44,0.32,2s0.53,0.97,0.96,1.26c0.42,0.29,0.96,0.43,1.59,0.43
			c0.51,0,0.97-0.05,1.38-0.16s0.78-0.24,1.12-0.38v1.3c-0.32,0.16-0.68,0.29-1.08,0.38C728.02,405.62,727.55,405.67,727.01,405.67z
			"/>
		<path class="st1" d="M740.07,400.66c0,0.79-0.1,1.5-0.31,2.12s-0.5,1.15-0.89,1.57s-0.85,0.75-1.4,0.98s-1.17,0.34-1.86,0.34
			c-0.64,0-1.24-0.11-1.77-0.34c-0.54-0.23-1-0.55-1.39-0.98c-0.39-0.43-0.69-0.95-0.91-1.57s-0.32-1.33-0.32-2.12
			c0-1.05,0.18-1.95,0.54-2.69s0.87-1.31,1.53-1.7c0.66-0.39,1.46-0.58,2.38-0.58c0.88,0,1.65,0.2,2.31,0.59
			c0.66,0.39,1.17,0.96,1.54,1.7C739.89,398.71,740.07,399.61,740.07,400.66z M732.74,400.66c0,0.77,0.1,1.44,0.31,2.01
			s0.52,1.01,0.95,1.32s0.98,0.47,1.65,0.47c0.67,0,1.22-0.16,1.65-0.47c0.43-0.31,0.75-0.75,0.95-1.32s0.31-1.24,0.31-2.01
			c0-0.77-0.1-1.43-0.31-1.99s-0.52-0.99-0.95-1.3s-0.98-0.46-1.66-0.46c-1,0-1.74,0.33-2.2,0.99
			C732.98,398.57,732.74,399.49,732.74,400.66z"/>
		<path class="st1" d="M747.16,395.68c1.14,0,2.01,0.28,2.59,0.84s0.88,1.46,0.88,2.69v6.28h-1.44v-6.18c0-0.8-0.18-1.4-0.55-1.8
			s-0.93-0.6-1.68-0.6c-1.07,0-1.82,0.3-2.25,0.91s-0.65,1.48-0.65,2.63v5.04h-1.46v-9.63h1.18l0.22,1.39h0.08
			c0.21-0.34,0.47-0.62,0.78-0.86s0.67-0.41,1.06-0.53S746.73,395.68,747.16,395.68z"/>
		<path class="st1" d="M759.87,402.85c0,0.62-0.15,1.13-0.46,1.55c-0.31,0.42-0.75,0.73-1.32,0.94c-0.57,0.21-1.25,0.32-2.04,0.32
			c-0.67,0-1.26-0.05-1.75-0.16s-0.92-0.25-1.29-0.45v-1.34c0.39,0.19,0.86,0.37,1.41,0.53s1.1,0.24,1.67,0.24
			c0.83,0,1.44-0.13,1.81-0.4s0.56-0.64,0.56-1.1c0-0.26-0.08-0.5-0.22-0.7c-0.15-0.2-0.4-0.4-0.75-0.59s-0.84-0.4-1.46-0.63
			c-0.62-0.23-1.15-0.47-1.6-0.7c-0.45-0.23-0.79-0.51-1.04-0.85s-0.36-0.77-0.36-1.3c0-0.81,0.33-1.44,0.99-1.88
			c0.66-0.44,1.52-0.66,2.6-0.66c0.58,0,1.12,0.06,1.63,0.17s0.98,0.27,1.42,0.46l-0.49,1.17c-0.4-0.17-0.82-0.31-1.27-0.43
			s-0.91-0.18-1.38-0.18c-0.67,0-1.19,0.11-1.55,0.33c-0.36,0.22-0.54,0.53-0.54,0.91c0,0.3,0.08,0.54,0.25,0.74
			c0.17,0.19,0.44,0.38,0.8,0.54s0.86,0.37,1.46,0.6c0.6,0.22,1.12,0.45,1.56,0.69s0.78,0.52,1.02,0.86
			C759.75,401.9,759.87,402.33,759.87,402.85z"/>
		<path class="st1" d="M762.96,392.25c0.24,0,0.45,0.08,0.62,0.23s0.26,0.4,0.26,0.72c0,0.32-0.09,0.56-0.26,0.72
			s-0.38,0.24-0.62,0.24c-0.25,0-0.46-0.08-0.63-0.24c-0.17-0.16-0.25-0.4-0.25-0.72c0-0.33,0.08-0.57,0.25-0.72
			C762.5,392.33,762.71,392.25,762.96,392.25z M763.67,395.86v9.63h-1.46v-9.63H763.67z"/>
		<path class="st1" d="M770.19,405.67c-1.22,0-2.18-0.42-2.9-1.25c-0.71-0.83-1.07-2.07-1.07-3.71c0-1.66,0.36-2.91,1.09-3.76
			s1.69-1.27,2.9-1.27c0.51,0,0.96,0.07,1.34,0.2s0.71,0.32,0.98,0.54s0.51,0.48,0.69,0.77h0.11c-0.02-0.18-0.05-0.43-0.07-0.75
			s-0.04-0.57-0.04-0.77v-3.86h1.46v13.68h-1.18l-0.22-1.37h-0.06c-0.18,0.29-0.41,0.55-0.69,0.78s-0.61,0.42-0.99,0.56
			C771.16,405.6,770.71,405.67,770.19,405.67z M770.41,404.45c1.03,0,1.76-0.29,2.19-0.88s0.64-1.46,0.64-2.61v-0.26
			c0-1.22-0.2-2.17-0.61-2.82c-0.41-0.66-1.15-0.98-2.22-0.98c-0.9,0-1.57,0.34-2.01,1.03s-0.67,1.63-0.67,2.82
			c0,1.18,0.22,2.1,0.66,2.74C768.84,404.13,769.51,404.45,770.41,404.45z"/>
		<path class="st1" d="M781.48,395.68c0.82,0,1.52,0.18,2.11,0.54s1.03,0.87,1.34,1.53s0.47,1.42,0.47,2.29v0.91h-6.65
			c0.02,1.13,0.3,1.99,0.84,2.58s1.31,0.89,2.3,0.89c0.61,0,1.15-0.06,1.62-0.17s0.96-0.28,1.46-0.49v1.28
			c-0.49,0.22-0.97,0.38-1.45,0.47c-0.48,0.1-1.04,0.15-1.69,0.15c-0.93,0-1.73-0.19-2.42-0.57c-0.69-0.38-1.22-0.93-1.6-1.67
			s-0.57-1.63-0.57-2.69c0-1.04,0.17-1.93,0.52-2.69c0.35-0.76,0.84-1.34,1.48-1.75C779.87,395.89,780.62,395.68,781.48,395.68z
			 M781.46,396.88c-0.78,0-1.4,0.25-1.86,0.76s-0.74,1.22-0.83,2.14h5.1c-0.01-0.57-0.1-1.08-0.27-1.52s-0.43-0.78-0.79-1.02
			S782.01,396.88,781.46,396.88z"/>
		<path class="st1" d="M792.26,395.68c0.19,0,0.4,0.01,0.61,0.03s0.4,0.05,0.56,0.08l-0.18,1.35c-0.16-0.04-0.33-0.07-0.53-0.1
			s-0.38-0.04-0.54-0.04c-0.39,0-0.75,0.08-1.09,0.23c-0.34,0.16-0.64,0.38-0.9,0.67s-0.46,0.64-0.61,1.05s-0.22,0.86-0.22,1.36
			v5.17h-1.47v-9.63h1.21l0.16,1.78h0.06c0.2-0.36,0.44-0.68,0.72-0.98s0.61-0.53,0.98-0.71
			C791.38,395.77,791.8,395.68,792.26,395.68z"/>
		<path class="st1" d="M798.94,395.68c0.82,0,1.52,0.18,2.11,0.54s1.03,0.87,1.34,1.53s0.47,1.42,0.47,2.29v0.91h-6.65
			c0.02,1.13,0.3,1.99,0.84,2.58s1.31,0.89,2.3,0.89c0.61,0,1.15-0.06,1.62-0.17s0.96-0.28,1.46-0.49v1.28
			c-0.49,0.22-0.97,0.38-1.45,0.47c-0.48,0.1-1.04,0.15-1.69,0.15c-0.93,0-1.73-0.19-2.42-0.57c-0.69-0.38-1.22-0.93-1.6-1.67
			s-0.57-1.63-0.57-2.69c0-1.04,0.17-1.93,0.52-2.69c0.35-0.76,0.84-1.34,1.48-1.75C797.33,395.89,798.08,395.68,798.94,395.68z
			 M798.93,396.88c-0.78,0-1.4,0.25-1.86,0.76s-0.74,1.22-0.83,2.14h5.1c-0.01-0.57-0.1-1.08-0.27-1.52s-0.43-0.78-0.79-1.02
			S799.48,396.88,798.93,396.88z"/>
		<path class="st1" d="M808.77,405.67c-1.22,0-2.18-0.42-2.9-1.25c-0.71-0.83-1.07-2.07-1.07-3.71c0-1.66,0.36-2.91,1.09-3.76
			s1.69-1.27,2.9-1.27c0.51,0,0.96,0.07,1.34,0.2s0.71,0.32,0.98,0.54s0.51,0.48,0.69,0.77h0.11c-0.02-0.18-0.05-0.43-0.07-0.75
			s-0.04-0.57-0.04-0.77v-3.86h1.46v13.68h-1.18l-0.22-1.37h-0.06c-0.18,0.29-0.41,0.55-0.69,0.78s-0.61,0.42-0.99,0.56
			C809.74,405.6,809.29,405.67,808.77,405.67z M809,404.45c1.03,0,1.76-0.29,2.19-0.88s0.64-1.46,0.64-2.61v-0.26
			c0-1.22-0.2-2.17-0.61-2.82c-0.41-0.66-1.15-0.98-2.22-0.98c-0.9,0-1.57,0.34-2.01,1.03s-0.67,1.63-0.67,2.82
			c0,1.18,0.22,2.1,0.66,2.74C807.42,404.13,808.1,404.45,809,404.45z"/>
		<path class="st1" d="M822.31,392.64c-0.12,0.45-0.25,0.94-0.36,1.46c-0.12,0.52-0.23,1.04-0.33,1.55s-0.18,0.97-0.24,1.39h-1.55
			l-0.11-0.19c0.11-0.43,0.24-0.88,0.4-1.37s0.34-0.97,0.53-1.46s0.39-0.95,0.59-1.38H822.31z M825.55,392.64
			c-0.12,0.45-0.25,0.94-0.36,1.46c-0.12,0.52-0.23,1.04-0.33,1.55s-0.18,0.97-0.24,1.39h-1.56l-0.13-0.19
			c0.11-0.43,0.24-0.88,0.41-1.37c0.17-0.49,0.35-0.97,0.54-1.46c0.2-0.49,0.39-0.95,0.59-1.38H825.55z"/>
		<path class="st1" d="M831.16,405.67c-0.87,0-1.63-0.18-2.29-0.54s-1.18-0.9-1.55-1.63s-0.55-1.66-0.55-2.77
			c0-1.17,0.19-2.12,0.58-2.86s0.93-1.29,1.61-1.65s1.46-0.54,2.34-0.54c0.48,0,0.95,0.05,1.39,0.15c0.45,0.1,0.82,0.22,1.1,0.36
			l-0.44,1.22c-0.29-0.12-0.63-0.22-1.02-0.32s-0.74-0.14-1.08-0.14c-0.67,0-1.22,0.14-1.67,0.43s-0.77,0.71-0.99,1.27
			c-0.22,0.56-0.33,1.24-0.33,2.06c0,0.78,0.11,1.44,0.32,2s0.53,0.97,0.96,1.26c0.42,0.29,0.96,0.43,1.59,0.43
			c0.51,0,0.97-0.05,1.38-0.16s0.78-0.24,1.12-0.38v1.3c-0.32,0.16-0.68,0.29-1.08,0.38C832.18,405.62,831.71,405.67,831.16,405.67z
			"/>
		<path class="st1" d="M840.31,395.68c0.19,0,0.4,0.01,0.61,0.03s0.4,0.05,0.56,0.08l-0.18,1.35c-0.16-0.04-0.33-0.07-0.53-0.1
			s-0.38-0.04-0.54-0.04c-0.39,0-0.75,0.08-1.09,0.23c-0.34,0.16-0.64,0.38-0.9,0.67s-0.46,0.64-0.61,1.05s-0.22,0.86-0.22,1.36
			v5.17h-1.47v-9.63h1.21l0.16,1.78h0.06c0.2-0.36,0.44-0.68,0.72-0.98s0.61-0.53,0.98-0.71
			C839.43,395.77,839.85,395.68,840.31,395.68z"/>
		<path class="st1" d="M846.99,395.68c0.82,0,1.52,0.18,2.11,0.54s1.03,0.87,1.34,1.53s0.47,1.42,0.47,2.29v0.91h-6.65
			c0.02,1.13,0.3,1.99,0.84,2.58s1.31,0.89,2.3,0.89c0.61,0,1.15-0.06,1.62-0.17s0.96-0.28,1.46-0.49v1.28
			c-0.49,0.22-0.97,0.38-1.45,0.47c-0.48,0.1-1.04,0.15-1.69,0.15c-0.93,0-1.73-0.19-2.42-0.57c-0.69-0.38-1.22-0.93-1.6-1.67
			s-0.57-1.63-0.57-2.69c0-1.04,0.17-1.93,0.52-2.69c0.35-0.76,0.84-1.34,1.48-1.75C845.38,395.89,846.13,395.68,846.99,395.68z
			 M846.98,396.88c-0.78,0-1.4,0.25-1.86,0.76s-0.74,1.22-0.83,2.14h5.1c-0.01-0.57-0.1-1.08-0.27-1.52s-0.43-0.78-0.79-1.02
			S847.53,396.88,846.98,396.88z"/>
		<path class="st1" d="M857,395.7c1.15,0,2,0.26,2.56,0.77s0.83,1.34,0.83,2.47v6.55h-1.06l-0.28-1.42h-0.07
			c-0.27,0.35-0.55,0.65-0.84,0.88s-0.63,0.42-1.02,0.54s-0.85,0.18-1.41,0.18c-0.59,0-1.11-0.1-1.56-0.31s-0.81-0.52-1.07-0.93
			s-0.39-0.94-0.39-1.58c0-0.96,0.38-1.7,1.14-2.21s1.92-0.8,3.48-0.84l1.66-0.07v-0.59c0-0.83-0.18-1.42-0.54-1.75
			s-0.86-0.5-1.51-0.5c-0.5,0-0.98,0.07-1.44,0.22s-0.89,0.32-1.3,0.52l-0.45-1.11c0.43-0.22,0.93-0.41,1.49-0.57
			S856.37,395.7,857,395.7z M858.95,400.74l-1.47,0.06c-1.2,0.05-2.05,0.24-2.54,0.59s-0.74,0.83-0.74,1.47
			c0,0.55,0.17,0.96,0.5,1.22s0.78,0.4,1.33,0.4c0.86,0,1.56-0.24,2.1-0.71s0.82-1.19,0.82-2.14V400.74z"/>
		<path class="st1" d="M866.51,404.47c0.24,0,0.49-0.02,0.74-0.06s0.46-0.09,0.62-0.15v1.13c-0.17,0.08-0.41,0.14-0.71,0.19
			s-0.6,0.08-0.88,0.08c-0.51,0-0.97-0.09-1.39-0.27s-0.75-0.48-1-0.91s-0.37-1.02-0.37-1.78V397h-1.37v-0.71l1.38-0.57l0.58-2.09
			h0.88v2.23h2.82V397h-2.82v5.67c0,0.6,0.14,1.05,0.42,1.35S866.04,404.47,866.51,404.47z"/>
		<path class="st1" d="M870.56,392.25c0.24,0,0.45,0.08,0.62,0.23s0.26,0.4,0.26,0.72c0,0.32-0.09,0.56-0.26,0.72
			s-0.38,0.24-0.62,0.24c-0.25,0-0.46-0.08-0.63-0.24c-0.17-0.16-0.25-0.4-0.25-0.72c0-0.33,0.08-0.57,0.25-0.72
			C870.1,392.33,870.31,392.25,870.56,392.25z M871.27,395.86v9.63h-1.46v-9.63H871.27z"/>
		<path class="st1" d="M876.47,405.49l-3.66-9.63h1.56l2.12,5.83c0.15,0.4,0.3,0.84,0.45,1.32s0.26,0.87,0.32,1.16h0.06
			c0.07-0.29,0.19-0.68,0.35-1.16s0.31-0.92,0.45-1.31l2.12-5.83h1.56l-3.67,9.63H876.47z"/>
		<path class="st1" d="M887.05,395.68c0.82,0,1.52,0.18,2.11,0.54s1.03,0.87,1.34,1.53s0.47,1.42,0.47,2.29v0.91h-6.65
			c0.02,1.13,0.3,1.99,0.84,2.58s1.31,0.89,2.3,0.89c0.61,0,1.15-0.06,1.62-0.17s0.96-0.28,1.46-0.49v1.28
			c-0.49,0.22-0.97,0.38-1.45,0.47c-0.48,0.1-1.04,0.15-1.69,0.15c-0.93,0-1.73-0.19-2.42-0.57c-0.69-0.38-1.22-0.93-1.6-1.67
			s-0.57-1.63-0.57-2.69c0-1.04,0.17-1.93,0.52-2.69c0.35-0.76,0.84-1.34,1.48-1.75C885.44,395.89,886.19,395.68,887.05,395.68z
			 M887.04,396.88c-0.78,0-1.4,0.25-1.86,0.76s-0.74,1.22-0.83,2.14h5.1c-0.01-0.57-0.1-1.08-0.27-1.52s-0.43-0.78-0.79-1.02
			S887.59,396.88,887.04,396.88z"/>
		<path class="st1" d="M905.97,405.47l-1.71-5.61c-0.08-0.24-0.15-0.48-0.21-0.71c-0.07-0.23-0.13-0.45-0.19-0.67
			s-0.11-0.41-0.15-0.6c-0.04-0.18-0.08-0.34-0.11-0.48h-0.06c-0.02,0.13-0.06,0.29-0.1,0.48s-0.09,0.38-0.15,0.6
			s-0.12,0.44-0.18,0.68s-0.14,0.48-0.22,0.72l-1.79,5.58h-1.64l-2.65-9.63h1.51l1.39,5.32c0.09,0.35,0.18,0.7,0.27,1.04
			s0.16,0.67,0.22,0.97c0.06,0.3,0.11,0.56,0.14,0.79h0.07c0.04-0.15,0.08-0.32,0.12-0.53c0.04-0.21,0.09-0.42,0.15-0.65
			c0.05-0.23,0.12-0.46,0.18-0.69s0.13-0.45,0.19-0.66l1.78-5.58h1.57l1.71,5.57c0.09,0.28,0.17,0.57,0.26,0.88
			c0.08,0.3,0.16,0.6,0.23,0.88s0.12,0.54,0.15,0.76h0.07c0.02-0.2,0.07-0.45,0.13-0.74s0.14-0.62,0.22-0.97
			c0.08-0.35,0.17-0.71,0.27-1.07l1.41-5.32h1.49l-2.66,9.63H905.97z"/>
		<path class="st1" d="M915.68,395.7c1.15,0,2,0.26,2.56,0.77s0.83,1.34,0.83,2.47v6.55h-1.06l-0.28-1.42h-0.07
			c-0.27,0.35-0.55,0.65-0.84,0.88s-0.63,0.42-1.02,0.54s-0.85,0.18-1.41,0.18c-0.59,0-1.11-0.1-1.56-0.31s-0.81-0.52-1.07-0.93
			s-0.39-0.94-0.39-1.58c0-0.96,0.38-1.7,1.14-2.21s1.92-0.8,3.48-0.84l1.66-0.07v-0.59c0-0.83-0.18-1.42-0.54-1.75
			s-0.86-0.5-1.51-0.5c-0.5,0-0.98,0.07-1.44,0.22s-0.89,0.32-1.3,0.52l-0.45-1.11c0.43-0.22,0.93-0.41,1.49-0.57
			S915.06,395.7,915.68,395.7z M917.63,400.74l-1.47,0.06c-1.2,0.05-2.05,0.24-2.54,0.59s-0.74,0.83-0.74,1.47
			c0,0.55,0.17,0.96,0.5,1.22s0.78,0.4,1.33,0.4c0.86,0,1.56-0.24,2.1-0.71s0.82-1.19,0.82-2.14V400.74z"/>
		<path class="st1" d="M928.31,402.85c0,0.62-0.15,1.13-0.46,1.55c-0.31,0.42-0.75,0.73-1.32,0.94c-0.57,0.21-1.25,0.32-2.04,0.32
			c-0.67,0-1.26-0.05-1.75-0.16s-0.92-0.25-1.29-0.45v-1.34c0.39,0.19,0.86,0.37,1.41,0.53s1.1,0.24,1.67,0.24
			c0.83,0,1.44-0.13,1.81-0.4s0.56-0.64,0.56-1.1c0-0.26-0.08-0.5-0.22-0.7c-0.15-0.2-0.4-0.4-0.75-0.59s-0.84-0.4-1.46-0.63
			c-0.62-0.23-1.15-0.47-1.6-0.7c-0.45-0.23-0.79-0.51-1.04-0.85s-0.36-0.77-0.36-1.3c0-0.81,0.33-1.44,0.99-1.88
			c0.66-0.44,1.52-0.66,2.6-0.66c0.58,0,1.12,0.06,1.63,0.17s0.98,0.27,1.42,0.46l-0.49,1.17c-0.4-0.17-0.82-0.31-1.27-0.43
			s-0.91-0.18-1.38-0.18c-0.67,0-1.19,0.11-1.55,0.33c-0.36,0.22-0.54,0.53-0.54,0.91c0,0.3,0.08,0.54,0.25,0.74
			c0.17,0.19,0.44,0.38,0.8,0.54s0.86,0.37,1.46,0.6c0.6,0.22,1.12,0.45,1.56,0.69s0.78,0.52,1.02,0.86
			C928.19,401.9,928.31,402.33,928.31,402.85z"/>
		<path class="st1" d="M933.77,404.47c0.24,0,0.49-0.02,0.74-0.06s0.46-0.09,0.62-0.15v1.13c-0.17,0.08-0.41,0.14-0.71,0.19
			s-0.6,0.08-0.88,0.08c-0.51,0-0.97-0.09-1.39-0.27s-0.75-0.48-1-0.91s-0.37-1.02-0.37-1.78V397h-1.37v-0.71l1.38-0.57l0.58-2.09
			h0.88v2.23h2.82V397h-2.82v5.67c0,0.6,0.14,1.05,0.42,1.35S933.31,404.47,933.77,404.47z"/>
		<path class="st1" d="M940.78,395.68c0.82,0,1.52,0.18,2.11,0.54s1.03,0.87,1.34,1.53s0.47,1.42,0.47,2.29v0.91h-6.65
			c0.02,1.13,0.3,1.99,0.84,2.58s1.31,0.89,2.3,0.89c0.61,0,1.15-0.06,1.62-0.17s0.96-0.28,1.46-0.49v1.28
			c-0.49,0.22-0.97,0.38-1.45,0.47c-0.48,0.1-1.04,0.15-1.69,0.15c-0.93,0-1.73-0.19-2.42-0.57c-0.69-0.38-1.22-0.93-1.6-1.67
			s-0.57-1.63-0.57-2.69c0-1.04,0.17-1.93,0.52-2.69c0.35-0.76,0.84-1.34,1.48-1.75C939.17,395.89,939.92,395.68,940.78,395.68z
			 M940.76,396.88c-0.78,0-1.4,0.25-1.86,0.76s-0.74,1.22-0.83,2.14h5.1c-0.01-0.57-0.1-1.08-0.27-1.52s-0.43-0.78-0.79-1.02
			S941.31,396.88,940.76,396.88z"/>
		<path class="st1" d="M948.32,392.64l0.12,0.19c-0.1,0.43-0.23,0.9-0.4,1.38c-0.17,0.49-0.35,0.98-0.54,1.46s-0.39,0.94-0.58,1.37
			h-1.05c0.09-0.33,0.18-0.69,0.27-1.07s0.18-0.77,0.26-1.16c0.08-0.39,0.15-0.77,0.22-1.14s0.12-0.71,0.16-1.03H948.32z
			 M951.56,392.64l0.13,0.19c-0.11,0.43-0.24,0.9-0.4,1.38s-0.34,0.98-0.54,1.46s-0.39,0.94-0.58,1.37h-1.1
			c0.12-0.45,0.25-0.93,0.37-1.45s0.23-1.04,0.33-1.56s0.18-0.98,0.24-1.4H951.56z"/>
		<path class="st1" d="M726.26,426.47c0.24,0,0.49-0.02,0.74-0.06s0.46-0.09,0.62-0.15v1.13c-0.17,0.08-0.41,0.14-0.71,0.19
			s-0.6,0.08-0.88,0.08c-0.51,0-0.97-0.09-1.39-0.27s-0.75-0.48-1-0.91s-0.37-1.02-0.37-1.78V419h-1.37v-0.71l1.38-0.57l0.58-2.09
			h0.88v2.23h2.82V419h-2.82v5.67c0,0.6,0.14,1.05,0.42,1.35S725.8,426.47,726.26,426.47z"/>
		<path class="st1" d="M737.87,422.66c0,0.79-0.1,1.5-0.31,2.12s-0.5,1.15-0.89,1.57s-0.85,0.75-1.4,0.98s-1.17,0.34-1.86,0.34
			c-0.64,0-1.24-0.11-1.77-0.34c-0.54-0.23-1-0.55-1.39-0.98c-0.39-0.43-0.69-0.95-0.91-1.57s-0.32-1.33-0.32-2.12
			c0-1.05,0.18-1.95,0.54-2.69s0.87-1.31,1.53-1.7c0.66-0.39,1.46-0.58,2.38-0.58c0.88,0,1.65,0.2,2.31,0.59
			c0.66,0.39,1.17,0.96,1.54,1.7C737.69,420.71,737.87,421.61,737.87,422.66z M730.54,422.66c0,0.77,0.1,1.44,0.31,2.01
			s0.52,1.01,0.95,1.32s0.98,0.47,1.65,0.47c0.67,0,1.22-0.16,1.65-0.47c0.43-0.31,0.75-0.75,0.95-1.32s0.31-1.24,0.31-2.01
			c0-0.77-0.1-1.43-0.31-1.99s-0.52-0.99-0.95-1.3s-0.98-0.46-1.66-0.46c-1,0-1.74,0.33-2.2,0.99
			C730.77,420.57,730.54,421.49,730.54,422.66z"/>
		<path class="st1" d="M751.3,424.85c0,0.62-0.15,1.13-0.46,1.55c-0.31,0.42-0.75,0.73-1.32,0.94c-0.57,0.21-1.25,0.32-2.04,0.32
			c-0.67,0-1.26-0.05-1.75-0.16s-0.92-0.25-1.29-0.45v-1.34c0.39,0.19,0.86,0.37,1.41,0.53s1.1,0.24,1.67,0.24
			c0.83,0,1.44-0.13,1.81-0.4s0.56-0.64,0.56-1.1c0-0.26-0.08-0.5-0.22-0.7c-0.15-0.2-0.4-0.4-0.75-0.59s-0.84-0.4-1.46-0.63
			c-0.62-0.23-1.15-0.47-1.6-0.7c-0.45-0.23-0.79-0.51-1.04-0.85s-0.36-0.77-0.36-1.3c0-0.81,0.33-1.44,0.99-1.88
			c0.66-0.44,1.52-0.66,2.6-0.66c0.58,0,1.12,0.06,1.63,0.17s0.98,0.27,1.42,0.46l-0.49,1.17c-0.4-0.17-0.82-0.31-1.27-0.43
			s-0.91-0.18-1.38-0.18c-0.67,0-1.19,0.11-1.55,0.33c-0.36,0.22-0.54,0.53-0.54,0.91c0,0.3,0.08,0.54,0.25,0.74
			c0.17,0.19,0.44,0.38,0.8,0.54s0.86,0.37,1.46,0.6c0.6,0.22,1.12,0.45,1.56,0.69s0.78,0.52,1.02,0.86
			C751.18,423.9,751.3,424.33,751.3,424.85z"/>
		<path class="st1" d="M756.76,426.47c0.24,0,0.49-0.02,0.74-0.06s0.46-0.09,0.62-0.15v1.13c-0.17,0.08-0.41,0.14-0.71,0.19
			s-0.6,0.08-0.88,0.08c-0.51,0-0.97-0.09-1.39-0.27s-0.75-0.48-1-0.91s-0.37-1.02-0.37-1.78V419h-1.37v-0.71l1.38-0.57l0.58-2.09
			h0.88v2.23h2.82V419h-2.82v5.67c0,0.6,0.14,1.05,0.42,1.35S756.29,426.47,756.76,426.47z"/>
		<path class="st1" d="M763.66,417.7c1.15,0,2,0.26,2.56,0.77s0.83,1.34,0.83,2.47v6.55h-1.06l-0.28-1.42h-0.07
			c-0.27,0.35-0.55,0.65-0.84,0.88s-0.63,0.42-1.02,0.54s-0.85,0.18-1.41,0.18c-0.59,0-1.11-0.1-1.56-0.31s-0.81-0.52-1.07-0.93
			s-0.39-0.94-0.39-1.58c0-0.96,0.38-1.7,1.14-2.21s1.92-0.8,3.48-0.84l1.66-0.07v-0.59c0-0.83-0.18-1.42-0.54-1.75
			s-0.86-0.5-1.51-0.5c-0.5,0-0.98,0.07-1.44,0.22s-0.89,0.32-1.3,0.52l-0.45-1.11c0.43-0.22,0.93-0.41,1.49-0.57
			S763.04,417.7,763.66,417.7z M765.62,422.74l-1.47,0.06c-1.2,0.05-2.05,0.24-2.54,0.59s-0.74,0.83-0.74,1.47
			c0,0.55,0.17,0.96,0.5,1.22s0.78,0.4,1.33,0.4c0.86,0,1.56-0.24,2.1-0.71s0.82-1.19,0.82-2.14V422.74z"/>
		<path class="st1" d="M774.44,417.68c0.19,0,0.4,0.01,0.61,0.03s0.4,0.05,0.56,0.08l-0.18,1.35c-0.16-0.04-0.33-0.07-0.53-0.1
			s-0.38-0.04-0.54-0.04c-0.39,0-0.75,0.08-1.09,0.23c-0.34,0.16-0.64,0.38-0.9,0.67s-0.46,0.64-0.61,1.05s-0.22,0.86-0.22,1.36
			v5.17h-1.47v-9.63h1.21l0.16,1.78h0.06c0.2-0.36,0.44-0.68,0.72-0.98s0.61-0.53,0.98-0.71
			C773.57,417.77,773.98,417.68,774.44,417.68z"/>
		<path class="st1" d="M780.53,426.47c0.24,0,0.49-0.02,0.74-0.06s0.46-0.09,0.62-0.15v1.13c-0.17,0.08-0.41,0.14-0.71,0.19
			s-0.6,0.08-0.88,0.08c-0.51,0-0.97-0.09-1.39-0.27s-0.75-0.48-1-0.91s-0.37-1.02-0.37-1.78V419h-1.37v-0.71l1.38-0.57l0.58-2.09
			H779v2.23h2.82V419H779v5.67c0,0.6,0.14,1.05,0.42,1.35S780.07,426.47,780.53,426.47z"/>
		<path class="st1" d="M796.82,422.66c0,0.79-0.1,1.5-0.31,2.12s-0.5,1.15-0.89,1.57s-0.85,0.75-1.4,0.98s-1.17,0.34-1.86,0.34
			c-0.64,0-1.24-0.11-1.77-0.34c-0.54-0.23-1-0.55-1.39-0.98c-0.39-0.43-0.69-0.95-0.91-1.57s-0.32-1.33-0.32-2.12
			c0-1.05,0.18-1.95,0.54-2.69s0.87-1.31,1.53-1.7c0.66-0.39,1.46-0.58,2.38-0.58c0.88,0,1.65,0.2,2.31,0.59
			c0.66,0.39,1.17,0.96,1.54,1.7C796.63,420.71,796.82,421.61,796.82,422.66z M789.49,422.66c0,0.77,0.1,1.44,0.31,2.01
			s0.52,1.01,0.95,1.32s0.98,0.47,1.65,0.47c0.67,0,1.22-0.16,1.65-0.47c0.43-0.31,0.75-0.75,0.95-1.32s0.31-1.24,0.31-2.01
			c0-0.77-0.1-1.43-0.31-1.99s-0.52-0.99-0.95-1.3s-0.98-0.46-1.66-0.46c-1,0-1.74,0.33-2.2,0.99
			C789.72,420.57,789.49,421.49,789.49,422.66z"/>
		<path class="st1" d="M803.63,419h-2.4v8.49h-1.46V419h-1.71v-0.7l1.71-0.48v-0.64c0-0.81,0.12-1.47,0.36-1.97s0.59-0.88,1.05-1.12
			s1.01-0.36,1.67-0.36c0.37,0,0.71,0.03,1.02,0.1c0.31,0.06,0.58,0.14,0.81,0.22l-0.38,1.15c-0.2-0.06-0.42-0.12-0.67-0.18
			s-0.5-0.08-0.76-0.08c-0.56,0-0.97,0.18-1.23,0.54c-0.27,0.36-0.4,0.92-0.4,1.69v0.7h2.4V419z M809.68,419h-2.4v8.49h-1.46V419
			h-1.71v-0.7l1.71-0.48v-0.64c0-0.81,0.12-1.47,0.36-1.97s0.59-0.88,1.05-1.12s1.01-0.36,1.67-0.36c0.37,0,0.71,0.03,1.01,0.1
			c0.31,0.06,0.58,0.14,0.81,0.22l-0.38,1.15c-0.2-0.06-0.42-0.12-0.67-0.18c-0.25-0.06-0.5-0.08-0.76-0.08
			c-0.56,0-0.97,0.18-1.24,0.54s-0.4,0.92-0.4,1.69v0.7h2.4V419z"/>
		<path class="st1" d="M819.24,426.47c0.24,0,0.49-0.02,0.74-0.06s0.46-0.09,0.62-0.15v1.13c-0.17,0.08-0.41,0.14-0.71,0.19
			s-0.6,0.08-0.88,0.08c-0.51,0-0.97-0.09-1.39-0.27s-0.75-0.48-1-0.91s-0.37-1.02-0.37-1.78V419h-1.37v-0.71l1.38-0.57l0.58-2.09
			h0.88v2.23h2.82V419h-2.82v5.67c0,0.6,0.14,1.05,0.42,1.35S818.77,426.47,819.24,426.47z"/>
		<path class="st1" d="M824,413.82v4.09c0,0.23-0.01,0.47-0.02,0.71s-0.03,0.46-0.06,0.65h0.1c0.2-0.34,0.45-0.62,0.76-0.86
			c0.31-0.23,0.66-0.41,1.05-0.53s0.81-0.18,1.25-0.18c0.77,0,1.42,0.12,1.94,0.37c0.52,0.25,0.91,0.63,1.17,1.14s0.39,1.18,0.39,2
			v6.28h-1.44v-6.18c0-0.8-0.18-1.4-0.55-1.8s-0.93-0.6-1.68-0.6c-0.71,0-1.29,0.14-1.71,0.41s-0.73,0.67-0.91,1.2
			c-0.18,0.53-0.28,1.17-0.28,1.93v5.04h-1.46v-13.68H824z"/>
		<path class="st1" d="M837.29,417.68c0.82,0,1.52,0.18,2.11,0.54s1.03,0.87,1.34,1.53s0.47,1.42,0.47,2.29v0.91h-6.65
			c0.02,1.13,0.3,1.99,0.84,2.58s1.31,0.89,2.3,0.89c0.61,0,1.15-0.06,1.62-0.17s0.96-0.28,1.46-0.49v1.28
			c-0.49,0.22-0.97,0.38-1.45,0.47c-0.48,0.1-1.04,0.15-1.69,0.15c-0.93,0-1.73-0.19-2.42-0.57c-0.69-0.38-1.22-0.93-1.6-1.67
			s-0.57-1.63-0.57-2.69c0-1.04,0.17-1.93,0.52-2.69c0.35-0.76,0.84-1.34,1.48-1.75C835.68,417.89,836.43,417.68,837.29,417.68z
			 M837.27,418.88c-0.78,0-1.4,0.25-1.86,0.76s-0.74,1.22-0.83,2.14h5.1c-0.01-0.57-0.1-1.08-0.27-1.52s-0.43-0.78-0.79-1.02
			S837.82,418.88,837.27,418.88z"/>
		<path class="st1" d="M852.07,417.68c0.82,0,1.52,0.18,2.11,0.54s1.03,0.87,1.34,1.53s0.47,1.42,0.47,2.29v0.91h-6.65
			c0.02,1.13,0.3,1.99,0.84,2.58s1.31,0.89,2.3,0.89c0.61,0,1.15-0.06,1.62-0.17s0.96-0.28,1.46-0.49v1.28
			c-0.49,0.22-0.97,0.38-1.45,0.47c-0.48,0.1-1.04,0.15-1.69,0.15c-0.93,0-1.73-0.19-2.42-0.57c-0.69-0.38-1.22-0.93-1.6-1.67
			s-0.57-1.63-0.57-2.69c0-1.04,0.17-1.93,0.52-2.69c0.35-0.76,0.84-1.34,1.48-1.75C850.46,417.89,851.21,417.68,852.07,417.68z
			 M852.06,418.88c-0.78,0-1.4,0.25-1.86,0.76s-0.74,1.22-0.83,2.14h5.1c-0.01-0.57-0.1-1.08-0.27-1.52s-0.43-0.78-0.79-1.02
			S852.61,418.88,852.06,418.88z"/>
		<path class="st1" d="M860.77,422.56l-3.33-4.7h1.67l2.54,3.71l2.53-3.71h1.65l-3.33,4.7l3.52,4.93h-1.67l-2.7-3.93l-2.72,3.93
			h-1.65L860.77,422.56z"/>
		<path class="st1" d="M871.75,427.67c-0.87,0-1.63-0.18-2.29-0.54s-1.18-0.9-1.55-1.63s-0.55-1.66-0.55-2.77
			c0-1.17,0.19-2.12,0.58-2.86s0.93-1.29,1.61-1.65s1.46-0.54,2.34-0.54c0.48,0,0.95,0.05,1.39,0.15c0.45,0.1,0.82,0.22,1.1,0.36
			l-0.44,1.22c-0.29-0.12-0.63-0.22-1.02-0.32s-0.74-0.14-1.08-0.14c-0.67,0-1.22,0.14-1.67,0.43s-0.77,0.71-0.99,1.27
			c-0.22,0.56-0.33,1.24-0.33,2.06c0,0.78,0.11,1.44,0.32,2s0.53,0.97,0.96,1.26c0.42,0.29,0.96,0.43,1.59,0.43
			c0.51,0,0.97-0.05,1.38-0.16s0.78-0.24,1.12-0.38v1.3c-0.32,0.16-0.68,0.29-1.08,0.38C872.77,427.62,872.3,427.67,871.75,427.67z"
			/>
		<path class="st1" d="M877.98,413.82v4.09c0,0.23-0.01,0.47-0.02,0.71s-0.03,0.46-0.06,0.65h0.1c0.2-0.34,0.45-0.62,0.76-0.86
			c0.31-0.23,0.66-0.41,1.05-0.53s0.81-0.18,1.25-0.18c0.77,0,1.42,0.12,1.94,0.37c0.52,0.25,0.91,0.63,1.17,1.14s0.39,1.18,0.39,2
			v6.28h-1.44v-6.18c0-0.8-0.18-1.4-0.55-1.8s-0.93-0.6-1.68-0.6c-0.71,0-1.29,0.14-1.71,0.41s-0.73,0.67-0.91,1.2
			c-0.18,0.53-0.28,1.17-0.28,1.93v5.04h-1.46v-13.68H877.98z"/>
		<path class="st1" d="M891.16,417.7c1.15,0,2,0.26,2.56,0.77s0.83,1.34,0.83,2.47v6.55h-1.06l-0.28-1.42h-0.07
			c-0.27,0.35-0.55,0.65-0.84,0.88s-0.63,0.42-1.02,0.54s-0.85,0.18-1.41,0.18c-0.59,0-1.11-0.1-1.56-0.31s-0.81-0.52-1.07-0.93
			s-0.39-0.94-0.39-1.58c0-0.96,0.38-1.7,1.14-2.21s1.92-0.8,3.48-0.84l1.66-0.07v-0.59c0-0.83-0.18-1.42-0.54-1.75
			s-0.86-0.5-1.51-0.5c-0.5,0-0.98,0.07-1.44,0.22s-0.89,0.32-1.3,0.52l-0.45-1.11c0.43-0.22,0.93-0.41,1.49-0.57
			S890.54,417.7,891.16,417.7z M893.11,422.74l-1.47,0.06c-1.2,0.05-2.05,0.24-2.54,0.59s-0.74,0.83-0.74,1.47
			c0,0.55,0.17,0.96,0.5,1.22s0.78,0.4,1.33,0.4c0.86,0,1.56-0.24,2.1-0.71s0.82-1.19,0.82-2.14V422.74z"/>
		<path class="st1" d="M902.12,417.68c1.14,0,2.01,0.28,2.59,0.84s0.88,1.46,0.88,2.69v6.28h-1.44v-6.18c0-0.8-0.18-1.4-0.55-1.8
			s-0.93-0.6-1.68-0.6c-1.07,0-1.82,0.3-2.25,0.91s-0.65,1.48-0.65,2.63v5.04h-1.46v-9.63h1.18l0.22,1.39h0.08
			c0.21-0.34,0.47-0.62,0.78-0.86s0.67-0.41,1.06-0.53S901.69,417.68,902.12,417.68z"/>
		<path class="st1" d="M911.29,431.82c-1.27,0-2.24-0.24-2.93-0.71s-1.03-1.13-1.03-1.98c0-0.6,0.19-1.12,0.58-1.55
			s0.92-0.71,1.6-0.85c-0.25-0.12-0.47-0.29-0.65-0.53s-0.27-0.5-0.27-0.81c0-0.35,0.1-0.66,0.29-0.93c0.2-0.27,0.5-0.52,0.9-0.77
			c-0.5-0.21-0.91-0.55-1.23-1.04s-0.47-1.06-0.47-1.71c0-0.69,0.14-1.28,0.43-1.77s0.7-0.86,1.25-1.12s1.2-0.39,1.98-0.39
			c0.17,0,0.34,0.01,0.51,0.02c0.17,0.01,0.34,0.04,0.5,0.06s0.3,0.06,0.41,0.09h3.3v0.94L914.7,419c0.18,0.23,0.32,0.5,0.44,0.83
			s0.18,0.68,0.18,1.07c0,0.96-0.33,1.72-0.98,2.29s-1.54,0.85-2.68,0.85c-0.27,0-0.54-0.02-0.83-0.07
			c-0.29,0.16-0.5,0.33-0.66,0.53c-0.15,0.19-0.22,0.42-0.22,0.67c0,0.19,0.06,0.34,0.17,0.45c0.12,0.11,0.28,0.19,0.5,0.24
			s0.48,0.07,0.78,0.07h1.7c1.05,0,1.85,0.22,2.41,0.66c0.56,0.44,0.84,1.08,0.84,1.92c0,1.07-0.43,1.88-1.3,2.45
			S912.93,431.82,911.29,431.82z M911.33,430.67c0.8,0,1.46-0.08,1.98-0.24c0.52-0.16,0.92-0.39,1.18-0.69
			c0.26-0.3,0.39-0.66,0.39-1.08c0-0.39-0.09-0.68-0.26-0.87s-0.43-0.33-0.77-0.4s-0.76-0.1-1.25-0.1h-1.67
			c-0.43,0-0.81,0.07-1.13,0.2s-0.57,0.33-0.74,0.6s-0.26,0.59-0.26,0.98c0,0.52,0.22,0.92,0.66,1.19S910.52,430.67,911.33,430.67z
			 M911.71,422.97c0.7,0,1.22-0.18,1.57-0.53s0.53-0.86,0.53-1.54c0-0.72-0.18-1.26-0.54-1.62s-0.88-0.54-1.58-0.54
			c-0.67,0-1.18,0.19-1.54,0.56c-0.36,0.37-0.54,0.92-0.54,1.63c0,0.66,0.18,1.16,0.54,1.51S911.03,422.97,911.71,422.97z"/>
		<path class="st1" d="M922.08,417.68c0.82,0,1.52,0.18,2.11,0.54s1.03,0.87,1.34,1.53s0.47,1.42,0.47,2.29v0.91h-6.65
			c0.02,1.13,0.3,1.99,0.84,2.58s1.31,0.89,2.3,0.89c0.61,0,1.15-0.06,1.62-0.17s0.96-0.28,1.46-0.49v1.28
			c-0.49,0.22-0.97,0.38-1.45,0.47c-0.48,0.1-1.04,0.15-1.69,0.15c-0.93,0-1.73-0.19-2.42-0.57c-0.69-0.38-1.22-0.93-1.6-1.67
			s-0.57-1.63-0.57-2.69c0-1.04,0.17-1.93,0.52-2.69c0.35-0.76,0.84-1.34,1.48-1.75C920.47,417.89,921.22,417.68,922.08,417.68z
			 M922.06,418.88c-0.78,0-1.4,0.25-1.86,0.76s-0.74,1.22-0.83,2.14h5.1c-0.01-0.57-0.1-1.08-0.27-1.52s-0.43-0.78-0.79-1.02
			S922.61,418.88,922.06,418.88z"/>
	</g>
</g>
<g>
	<g>
		<path class="st1" d="M648.94,189.49c0,0.62-0.15,1.13-0.46,1.55c-0.31,0.42-0.75,0.73-1.32,0.95c-0.57,0.21-1.25,0.32-2.04,0.32
			c-0.67,0-1.26-0.05-1.75-0.16s-0.92-0.26-1.29-0.45v-1.34c0.39,0.19,0.86,0.37,1.41,0.53s1.1,0.24,1.67,0.24
			c0.83,0,1.44-0.13,1.81-0.4s0.56-0.63,0.56-1.1c0-0.26-0.08-0.5-0.22-0.7c-0.15-0.2-0.4-0.4-0.75-0.59s-0.84-0.4-1.46-0.63
			c-0.62-0.23-1.15-0.47-1.6-0.7c-0.45-0.23-0.79-0.51-1.04-0.85s-0.36-0.77-0.36-1.3c0-0.81,0.33-1.44,0.99-1.88
			c0.66-0.44,1.52-0.65,2.6-0.65c0.58,0,1.12,0.06,1.63,0.17s0.98,0.27,1.42,0.46l-0.49,1.17c-0.4-0.17-0.82-0.31-1.27-0.43
			s-0.91-0.18-1.38-0.18c-0.67,0-1.19,0.11-1.55,0.33c-0.36,0.22-0.54,0.53-0.54,0.91c0,0.3,0.08,0.54,0.25,0.74
			c0.17,0.19,0.44,0.38,0.8,0.54s0.86,0.37,1.46,0.6c0.6,0.22,1.12,0.45,1.56,0.69s0.78,0.52,1.02,0.86
			C648.82,188.53,648.94,188.96,648.94,189.49z"/>
		<path class="st1" d="M654.4,191.11c0.24,0,0.49-0.02,0.74-0.06s0.46-0.09,0.62-0.15v1.13c-0.17,0.08-0.41,0.14-0.71,0.19
			s-0.6,0.08-0.88,0.08c-0.51,0-0.97-0.09-1.39-0.27s-0.75-0.48-1-0.91s-0.37-1.02-0.37-1.78v-5.71h-1.37v-0.71l1.38-0.57l0.58-2.09
			h0.88v2.23h2.82v1.14h-2.82v5.67c0,0.6,0.14,1.05,0.42,1.35S653.93,191.11,654.4,191.11z"/>
		<path class="st1" d="M666.01,187.29c0,0.79-0.1,1.5-0.31,2.12s-0.5,1.15-0.89,1.57s-0.85,0.75-1.4,0.98s-1.17,0.34-1.86,0.34
			c-0.64,0-1.24-0.11-1.77-0.34c-0.54-0.23-1-0.55-1.39-0.98c-0.39-0.43-0.69-0.95-0.91-1.57s-0.32-1.33-0.32-2.12
			c0-1.05,0.18-1.95,0.54-2.69s0.87-1.31,1.53-1.7c0.66-0.39,1.46-0.58,2.38-0.58c0.88,0,1.65,0.2,2.31,0.59
			c0.66,0.39,1.17,0.96,1.54,1.7C665.82,185.35,666.01,186.24,666.01,187.29z M658.68,187.29c0,0.77,0.1,1.44,0.31,2.01
			s0.52,1.01,0.95,1.32s0.98,0.47,1.65,0.47c0.67,0,1.22-0.16,1.65-0.47c0.43-0.31,0.75-0.75,0.95-1.32s0.31-1.24,0.31-2.01
			c0-0.77-0.1-1.43-0.31-1.99s-0.52-0.99-0.95-1.3s-0.98-0.46-1.66-0.46c-1,0-1.74,0.33-2.2,0.99
			C658.91,185.2,658.68,186.12,658.68,187.29z"/>
		<path class="st1" d="M676.83,187.29c0,0.79-0.1,1.5-0.31,2.12s-0.5,1.15-0.89,1.57s-0.85,0.75-1.4,0.98s-1.17,0.34-1.86,0.34
			c-0.64,0-1.24-0.11-1.77-0.34c-0.54-0.23-1-0.55-1.39-0.98c-0.39-0.43-0.69-0.95-0.91-1.57s-0.32-1.33-0.32-2.12
			c0-1.05,0.18-1.95,0.54-2.69s0.87-1.31,1.53-1.7c0.66-0.39,1.46-0.58,2.38-0.58c0.88,0,1.65,0.2,2.31,0.59
			c0.66,0.39,1.17,0.96,1.54,1.7C676.65,185.35,676.83,186.24,676.83,187.29z M669.5,187.29c0,0.77,0.1,1.44,0.31,2.01
			s0.52,1.01,0.95,1.32s0.98,0.47,1.65,0.47c0.67,0,1.22-0.16,1.65-0.47c0.43-0.31,0.75-0.75,0.95-1.32s0.31-1.24,0.31-2.01
			c0-0.77-0.1-1.43-0.31-1.99s-0.52-0.99-0.95-1.3s-0.98-0.46-1.66-0.46c-1,0-1.74,0.33-2.2,0.99
			C669.74,185.2,669.5,186.12,669.5,187.29z"/>
		<path class="st1" d="M683.88,182.32c1.2,0,2.16,0.41,2.87,1.24s1.07,2.07,1.07,3.73c0,1.1-0.16,2.02-0.49,2.76
			s-0.79,1.31-1.38,1.69c-0.6,0.38-1.3,0.57-2.11,0.57c-0.51,0-0.96-0.07-1.34-0.2s-0.72-0.32-0.99-0.54s-0.5-0.48-0.69-0.75h-0.11
			c0.02,0.23,0.04,0.5,0.07,0.83c0.03,0.32,0.04,0.6,0.04,0.84v3.96h-1.47v-13.94h1.2l0.19,1.42h0.07c0.19-0.29,0.42-0.56,0.69-0.8
			s0.6-0.44,0.99-0.58S683.35,182.32,683.88,182.32z M683.63,183.55c-0.67,0-1.21,0.13-1.61,0.39c-0.41,0.26-0.71,0.64-0.89,1.16
			s-0.29,1.16-0.3,1.93v0.28c0,0.81,0.09,1.5,0.27,2.07s0.47,0.99,0.89,1.28c0.41,0.29,0.97,0.44,1.67,0.44
			c0.6,0,1.1-0.16,1.49-0.48s0.7-0.77,0.89-1.35s0.29-1.24,0.29-1.99c0-1.14-0.22-2.04-0.66-2.71S684.54,183.55,683.63,183.55z"/>
		<path class="st1" d="M698.65,182.34c1.15,0,2,0.26,2.56,0.77s0.83,1.34,0.83,2.47v6.55h-1.06l-0.28-1.42h-0.07
			c-0.27,0.35-0.55,0.65-0.84,0.88s-0.63,0.42-1.02,0.54s-0.85,0.18-1.41,0.18c-0.59,0-1.11-0.1-1.56-0.31s-0.81-0.52-1.07-0.93
			s-0.39-0.94-0.39-1.58c0-0.96,0.38-1.7,1.14-2.21s1.92-0.8,3.48-0.84l1.66-0.07v-0.59c0-0.83-0.18-1.42-0.54-1.75
			s-0.86-0.5-1.51-0.5c-0.5,0-0.98,0.07-1.44,0.22s-0.89,0.32-1.3,0.52l-0.45-1.11c0.43-0.22,0.93-0.41,1.49-0.57
			S698.03,182.34,698.65,182.34z M700.6,187.38l-1.47,0.06c-1.2,0.05-2.05,0.24-2.54,0.59s-0.74,0.83-0.74,1.47
			c0,0.55,0.17,0.96,0.5,1.22s0.78,0.39,1.33,0.39c0.86,0,1.56-0.24,2.1-0.71s0.82-1.19,0.82-2.14V187.38z"/>
		<path class="st1" d="M709.61,182.32c1.14,0,2.01,0.28,2.59,0.84s0.88,1.46,0.88,2.69v6.28h-1.44v-6.18c0-0.8-0.18-1.4-0.55-1.8
			s-0.93-0.6-1.68-0.6c-1.07,0-1.82,0.3-2.25,0.9s-0.65,1.48-0.65,2.63v5.04h-1.46v-9.63h1.18l0.22,1.39h0.08
			c0.21-0.34,0.47-0.63,0.78-0.86s0.67-0.41,1.06-0.53S709.18,182.32,709.61,182.32z"/>
		<path class="st1" d="M714.57,182.49h1.56l2.13,5.59c0.12,0.33,0.24,0.64,0.34,0.94s0.2,0.59,0.28,0.87s0.15,0.54,0.19,0.8h0.06
			c0.08-0.29,0.2-0.68,0.35-1.16s0.32-0.97,0.49-1.46l2.01-5.58h1.57l-4.19,11.05c-0.22,0.59-0.48,1.11-0.78,1.55
			s-0.65,0.78-1.08,1.02s-0.93,0.36-1.53,0.36c-0.28,0-0.52-0.02-0.73-0.05s-0.39-0.07-0.54-0.11v-1.17
			c0.13,0.03,0.29,0.05,0.47,0.08c0.19,0.02,0.38,0.04,0.58,0.04c0.36,0,0.68-0.07,0.95-0.21c0.27-0.14,0.5-0.34,0.69-0.6
			s0.36-0.58,0.5-0.94l0.53-1.35L714.57,182.49z"/>
		<path class="st1" d="M728.22,191.11c0.24,0,0.49-0.02,0.74-0.06s0.46-0.09,0.62-0.15v1.13c-0.17,0.08-0.41,0.14-0.71,0.19
			s-0.6,0.08-0.88,0.08c-0.51,0-0.97-0.09-1.39-0.27s-0.75-0.48-1-0.91s-0.37-1.02-0.37-1.78v-5.71h-1.37v-0.71l1.38-0.57l0.58-2.09
			h0.88v2.23h2.82v1.14h-2.82v5.67c0,0.6,0.14,1.05,0.42,1.35S727.75,191.11,728.22,191.11z"/>
		<path class="st1" d="M732.98,178.45v4.09c0,0.23-0.01,0.47-0.02,0.71s-0.03,0.46-0.06,0.66h0.1c0.2-0.34,0.45-0.63,0.76-0.86
			c0.31-0.23,0.66-0.41,1.05-0.53s0.81-0.18,1.25-0.18c0.77,0,1.42,0.12,1.94,0.37c0.52,0.25,0.91,0.63,1.17,1.14s0.39,1.18,0.39,2
			v6.28h-1.44v-6.18c0-0.8-0.18-1.4-0.55-1.8s-0.93-0.6-1.68-0.6c-0.71,0-1.29,0.14-1.71,0.41s-0.73,0.67-0.91,1.2
			c-0.18,0.53-0.28,1.17-0.28,1.93v5.04h-1.46v-13.68H732.98z"/>
		<path class="st1" d="M743.31,178.89c0.24,0,0.45,0.08,0.62,0.23s0.26,0.4,0.26,0.72c0,0.32-0.09,0.56-0.26,0.72
			s-0.38,0.24-0.62,0.24c-0.25,0-0.46-0.08-0.63-0.24c-0.17-0.16-0.25-0.4-0.25-0.72c0-0.33,0.08-0.57,0.25-0.72
			C742.85,178.97,743.05,178.89,743.31,178.89z M744.02,182.49v9.63h-1.46v-9.63H744.02z"/>
		<path class="st1" d="M751.66,182.32c1.14,0,2.01,0.28,2.59,0.84s0.88,1.46,0.88,2.69v6.28h-1.44v-6.18c0-0.8-0.18-1.4-0.55-1.8
			s-0.93-0.6-1.68-0.6c-1.07,0-1.82,0.3-2.25,0.9s-0.65,1.48-0.65,2.63v5.04h-1.46v-9.63h1.18l0.22,1.39h0.08
			c0.21-0.34,0.47-0.63,0.78-0.86s0.67-0.41,1.06-0.53S751.23,182.32,751.66,182.32z"/>
		<path class="st1" d="M760.83,196.45c-1.27,0-2.24-0.24-2.93-0.71s-1.03-1.13-1.03-1.98c0-0.6,0.19-1.12,0.58-1.55
			s0.92-0.71,1.6-0.85c-0.25-0.12-0.47-0.29-0.65-0.53s-0.27-0.5-0.27-0.81c0-0.35,0.1-0.66,0.29-0.93c0.2-0.27,0.5-0.52,0.9-0.77
			c-0.5-0.21-0.91-0.55-1.23-1.04s-0.47-1.06-0.47-1.71c0-0.69,0.14-1.28,0.43-1.77s0.7-0.86,1.25-1.12s1.2-0.39,1.98-0.39
			c0.17,0,0.34,0.01,0.51,0.02c0.17,0.01,0.34,0.04,0.5,0.06s0.3,0.06,0.41,0.09h3.3v0.94l-1.78,0.22c0.18,0.23,0.32,0.5,0.44,0.83
			s0.18,0.68,0.18,1.07c0,0.96-0.33,1.72-0.98,2.29s-1.54,0.85-2.68,0.85c-0.27,0-0.54-0.02-0.83-0.07
			c-0.29,0.16-0.5,0.33-0.66,0.53c-0.15,0.19-0.22,0.42-0.22,0.67c0,0.19,0.06,0.34,0.17,0.45c0.12,0.11,0.28,0.19,0.5,0.24
			s0.48,0.08,0.78,0.08h1.7c1.05,0,1.85,0.22,2.41,0.66c0.56,0.44,0.84,1.08,0.84,1.93c0,1.07-0.43,1.88-1.3,2.45
			S762.47,196.45,760.83,196.45z M760.88,195.31c0.8,0,1.46-0.08,1.98-0.24c0.52-0.16,0.92-0.39,1.18-0.69
			c0.26-0.3,0.39-0.66,0.39-1.08c0-0.39-0.09-0.68-0.26-0.87s-0.43-0.33-0.77-0.4s-0.76-0.1-1.25-0.1h-1.67
			c-0.43,0-0.81,0.07-1.13,0.2s-0.57,0.33-0.74,0.6s-0.26,0.59-0.26,0.98c0,0.52,0.22,0.92,0.66,1.19S760.06,195.31,760.88,195.31z
			 M761.25,187.61c0.7,0,1.22-0.18,1.57-0.53s0.53-0.87,0.53-1.54c0-0.72-0.18-1.26-0.54-1.62s-0.88-0.54-1.58-0.54
			c-0.67,0-1.18,0.19-1.54,0.56c-0.36,0.37-0.54,0.92-0.54,1.63c0,0.66,0.18,1.16,0.54,1.51S760.58,187.61,761.25,187.61z"/>
		<path class="st1" d="M776.45,192.3c-0.87,0-1.63-0.18-2.29-0.54s-1.18-0.9-1.55-1.63s-0.55-1.65-0.55-2.77
			c0-1.17,0.19-2.12,0.58-2.86s0.93-1.29,1.61-1.65s1.46-0.54,2.34-0.54c0.48,0,0.95,0.05,1.39,0.14c0.45,0.1,0.82,0.22,1.1,0.37
			l-0.44,1.22c-0.29-0.12-0.63-0.22-1.02-0.32s-0.74-0.14-1.08-0.14c-0.67,0-1.22,0.14-1.67,0.43s-0.77,0.71-0.99,1.27
			c-0.22,0.56-0.33,1.24-0.33,2.06c0,0.78,0.11,1.44,0.32,1.99s0.53,0.97,0.96,1.26c0.42,0.29,0.96,0.44,1.59,0.44
			c0.51,0,0.97-0.05,1.38-0.16s0.78-0.24,1.12-0.38v1.3c-0.32,0.16-0.68,0.29-1.08,0.38C777.47,192.26,776.99,192.3,776.45,192.3z"
			/>
		<path class="st1" d="M782.68,192.13h-1.47v-13.68h1.47V192.13z"/>
		<path class="st1" d="M794.06,187.29c0,0.79-0.1,1.5-0.31,2.12s-0.5,1.15-0.89,1.57s-0.85,0.75-1.4,0.98s-1.17,0.34-1.86,0.34
			c-0.64,0-1.24-0.11-1.77-0.34c-0.54-0.23-1-0.55-1.39-0.98c-0.39-0.43-0.69-0.95-0.91-1.57s-0.32-1.33-0.32-2.12
			c0-1.05,0.18-1.95,0.54-2.69s0.87-1.31,1.53-1.7c0.66-0.39,1.46-0.58,2.38-0.58c0.88,0,1.65,0.2,2.31,0.59
			c0.66,0.39,1.17,0.96,1.54,1.7C793.88,185.35,794.06,186.24,794.06,187.29z M786.73,187.29c0,0.77,0.1,1.44,0.31,2.01
			s0.52,1.01,0.95,1.32s0.98,0.47,1.65,0.47c0.67,0,1.22-0.16,1.65-0.47c0.43-0.31,0.75-0.75,0.95-1.32s0.31-1.24,0.31-2.01
			c0-0.77-0.1-1.43-0.31-1.99s-0.52-0.99-0.95-1.3s-0.98-0.46-1.66-0.46c-1,0-1.74,0.33-2.2,0.99
			C786.97,185.2,786.73,186.12,786.73,187.29z"/>
		<path class="st1" d="M802.82,189.49c0,0.62-0.15,1.13-0.46,1.55c-0.31,0.42-0.75,0.73-1.32,0.95c-0.57,0.21-1.25,0.32-2.04,0.32
			c-0.67,0-1.26-0.05-1.75-0.16s-0.92-0.26-1.29-0.45v-1.34c0.39,0.19,0.86,0.37,1.41,0.53s1.1,0.24,1.67,0.24
			c0.83,0,1.44-0.13,1.81-0.4s0.56-0.63,0.56-1.1c0-0.26-0.08-0.5-0.22-0.7c-0.15-0.2-0.4-0.4-0.75-0.59s-0.84-0.4-1.46-0.63
			c-0.62-0.23-1.15-0.47-1.6-0.7c-0.45-0.23-0.79-0.51-1.04-0.85s-0.36-0.77-0.36-1.3c0-0.81,0.33-1.44,0.99-1.88
			c0.66-0.44,1.52-0.65,2.6-0.65c0.58,0,1.12,0.06,1.63,0.17s0.98,0.27,1.42,0.46l-0.49,1.17c-0.4-0.17-0.82-0.31-1.27-0.43
			s-0.91-0.18-1.38-0.18c-0.67,0-1.19,0.11-1.55,0.33c-0.36,0.22-0.54,0.53-0.54,0.91c0,0.3,0.08,0.54,0.25,0.74
			c0.17,0.19,0.44,0.38,0.8,0.54s0.86,0.37,1.46,0.6c0.6,0.22,1.12,0.45,1.56,0.69s0.78,0.52,1.02,0.86
			C802.7,188.53,802.82,188.96,802.82,189.49z"/>
		<path class="st1" d="M808.87,182.32c0.82,0,1.52,0.18,2.11,0.54s1.03,0.87,1.34,1.52s0.47,1.42,0.47,2.29v0.9h-6.65
			c0.02,1.13,0.3,1.99,0.84,2.58s1.31,0.89,2.3,0.89c0.61,0,1.15-0.06,1.62-0.17s0.96-0.28,1.46-0.49v1.28
			c-0.49,0.22-0.97,0.38-1.45,0.47c-0.48,0.1-1.04,0.15-1.69,0.15c-0.93,0-1.73-0.19-2.42-0.57c-0.69-0.38-1.22-0.93-1.6-1.67
			s-0.57-1.63-0.57-2.69c0-1.04,0.17-1.94,0.52-2.69c0.35-0.76,0.84-1.34,1.48-1.75C807.26,182.52,808.01,182.32,808.87,182.32z
			 M808.85,183.51c-0.78,0-1.4,0.25-1.86,0.76s-0.74,1.22-0.83,2.14h5.1c-0.01-0.57-0.1-1.08-0.27-1.52s-0.43-0.78-0.79-1.02
			S809.41,183.51,808.85,183.51z"/>
		<path class="st1" d="M823.06,191.11c0.24,0,0.49-0.02,0.74-0.06s0.46-0.09,0.62-0.15v1.13c-0.17,0.08-0.41,0.14-0.71,0.19
			s-0.6,0.08-0.88,0.08c-0.51,0-0.97-0.09-1.39-0.27s-0.75-0.48-1-0.91s-0.37-1.02-0.37-1.78v-5.71h-1.37v-0.71l1.38-0.57l0.58-2.09
			h0.88v2.23h2.82v1.14h-2.82v5.67c0,0.6,0.14,1.05,0.42,1.35S822.6,191.11,823.06,191.11z"/>
		<path class="st1" d="M834.67,187.29c0,0.79-0.1,1.5-0.31,2.12s-0.5,1.15-0.89,1.57s-0.85,0.75-1.4,0.98s-1.17,0.34-1.86,0.34
			c-0.64,0-1.24-0.11-1.77-0.34c-0.54-0.23-1-0.55-1.39-0.98c-0.39-0.43-0.69-0.95-0.91-1.57s-0.32-1.33-0.32-2.12
			c0-1.05,0.18-1.95,0.54-2.69s0.87-1.31,1.53-1.7c0.66-0.39,1.46-0.58,2.38-0.58c0.88,0,1.65,0.2,2.31,0.59
			c0.66,0.39,1.17,0.96,1.54,1.7C834.48,185.35,834.67,186.24,834.67,187.29z M827.34,187.29c0,0.77,0.1,1.44,0.31,2.01
			s0.52,1.01,0.95,1.32s0.98,0.47,1.65,0.47c0.67,0,1.22-0.16,1.65-0.47c0.43-0.31,0.75-0.75,0.95-1.32s0.31-1.24,0.31-2.01
			c0-0.77-0.1-1.43-0.31-1.99s-0.52-0.99-0.95-1.3s-0.98-0.46-1.66-0.46c-1,0-1.74,0.33-2.2,0.99
			C827.57,185.2,827.34,186.12,827.34,187.29z"/>
		<path class="st1" d="M845.47,182.34c1.15,0,2,0.26,2.56,0.77s0.83,1.34,0.83,2.47v6.55h-1.06l-0.28-1.42h-0.07
			c-0.27,0.35-0.55,0.65-0.84,0.88s-0.63,0.42-1.02,0.54s-0.85,0.18-1.41,0.18c-0.59,0-1.11-0.1-1.56-0.31s-0.81-0.52-1.07-0.93
			s-0.39-0.94-0.39-1.58c0-0.96,0.38-1.7,1.14-2.21s1.92-0.8,3.48-0.84l1.66-0.07v-0.59c0-0.83-0.18-1.42-0.54-1.75
			s-0.86-0.5-1.51-0.5c-0.5,0-0.98,0.07-1.44,0.22s-0.89,0.32-1.3,0.52l-0.45-1.11c0.43-0.22,0.93-0.41,1.49-0.57
			S844.85,182.34,845.47,182.34z M847.42,187.38l-1.47,0.06c-1.2,0.05-2.05,0.24-2.54,0.59s-0.74,0.83-0.74,1.47
			c0,0.55,0.17,0.96,0.5,1.22s0.78,0.39,1.33,0.39c0.86,0,1.56-0.24,2.1-0.71s0.82-1.19,0.82-2.14V187.38z"/>
		<path class="st1" d="M645.82,213.11c0.24,0,0.49-0.02,0.74-0.06s0.46-0.09,0.62-0.15v1.13c-0.17,0.08-0.41,0.14-0.71,0.19
			s-0.6,0.08-0.88,0.08c-0.51,0-0.97-0.09-1.39-0.27s-0.75-0.48-1-0.91s-0.37-1.02-0.37-1.78v-5.71h-1.37v-0.71l1.38-0.57l0.58-2.09
			h0.88v2.23h2.82v1.14h-2.82v5.67c0,0.6,0.14,1.05,0.42,1.35S645.35,213.11,645.82,213.11z"/>
		<path class="st1" d="M652.73,204.34c1.15,0,2,0.26,2.56,0.77s0.83,1.34,0.83,2.47v6.55h-1.06l-0.28-1.42h-0.07
			c-0.27,0.35-0.55,0.65-0.84,0.88s-0.63,0.42-1.02,0.54s-0.85,0.18-1.41,0.18c-0.59,0-1.11-0.1-1.56-0.31s-0.81-0.52-1.07-0.93
			s-0.39-0.94-0.39-1.58c0-0.96,0.38-1.7,1.14-2.21s1.92-0.8,3.48-0.84l1.66-0.07v-0.59c0-0.83-0.18-1.42-0.54-1.75
			s-0.86-0.5-1.51-0.5c-0.5,0-0.98,0.07-1.44,0.22s-0.89,0.32-1.3,0.52l-0.45-1.11c0.43-0.22,0.93-0.41,1.49-0.57
			S652.1,204.34,652.73,204.34z M654.68,209.38l-1.47,0.06c-1.2,0.05-2.05,0.24-2.54,0.59s-0.74,0.83-0.74,1.47
			c0,0.55,0.17,0.96,0.5,1.22s0.78,0.39,1.33,0.39c0.86,0,1.56-0.24,2.1-0.71s0.82-1.19,0.82-2.14V209.38z"/>
		<path class="st1" d="M660.58,200.45v3.42c0,0.39-0.01,0.77-0.03,1.14c-0.02,0.37-0.04,0.66-0.05,0.86h0.08
			c0.26-0.43,0.64-0.8,1.14-1.1s1.13-0.45,1.91-0.45c1.21,0,2.17,0.42,2.89,1.25s1.08,2.08,1.08,3.72c0,1.08-0.16,2-0.49,2.74
			s-0.79,1.31-1.39,1.69s-1.3,0.57-2.12,0.57c-0.76,0-1.39-0.14-1.88-0.43s-0.87-0.63-1.13-1.04h-0.11l-0.3,1.29h-1.05v-13.68
			H660.58z M663.4,205.55c-0.7,0-1.25,0.14-1.66,0.41s-0.71,0.68-0.88,1.23c-0.18,0.55-0.27,1.24-0.27,2.08v0.08
			c0,1.21,0.2,2.14,0.61,2.78s1.14,0.96,2.21,0.96c0.9,0,1.57-0.33,2.02-0.98c0.45-0.66,0.67-1.59,0.67-2.81
			c0-1.24-0.22-2.18-0.66-2.8C664.98,205.86,664.3,205.55,663.4,205.55z"/>
		<path class="st1" d="M671.6,214.13h-1.47v-13.68h1.47V214.13z"/>
		<path class="st1" d="M678.39,204.32c0.82,0,1.52,0.18,2.11,0.54s1.03,0.87,1.34,1.52s0.47,1.42,0.47,2.29v0.9h-6.65
			c0.02,1.13,0.3,1.99,0.84,2.58s1.31,0.89,2.3,0.89c0.61,0,1.15-0.06,1.62-0.17s0.96-0.28,1.46-0.49v1.28
			c-0.49,0.22-0.97,0.38-1.45,0.47c-0.48,0.1-1.04,0.15-1.69,0.15c-0.93,0-1.73-0.19-2.42-0.57c-0.69-0.38-1.22-0.93-1.6-1.67
			s-0.57-1.63-0.57-2.69c0-1.04,0.17-1.94,0.52-2.69c0.35-0.76,0.84-1.34,1.48-1.75C676.78,204.52,677.53,204.32,678.39,204.32z
			 M678.37,205.51c-0.78,0-1.4,0.25-1.86,0.76s-0.74,1.22-0.83,2.14h5.1c-0.01-0.57-0.1-1.08-0.27-1.52s-0.43-0.78-0.79-1.02
			S678.92,205.51,678.37,205.51z"/>
		<path class="st1" d="M693.07,204.34c1.15,0,2,0.26,2.56,0.77s0.83,1.34,0.83,2.47v6.55h-1.06l-0.28-1.42h-0.07
			c-0.27,0.35-0.55,0.65-0.84,0.88s-0.63,0.42-1.02,0.54s-0.85,0.18-1.41,0.18c-0.59,0-1.11-0.1-1.56-0.31s-0.81-0.52-1.07-0.93
			s-0.39-0.94-0.39-1.58c0-0.96,0.38-1.7,1.14-2.21s1.92-0.8,3.48-0.84l1.66-0.07v-0.59c0-0.83-0.18-1.42-0.54-1.75
			s-0.86-0.5-1.51-0.5c-0.5,0-0.98,0.07-1.44,0.22s-0.89,0.32-1.3,0.52l-0.45-1.11c0.43-0.22,0.93-0.41,1.49-0.57
			S692.45,204.34,693.07,204.34z M695.02,209.38l-1.47,0.06c-1.2,0.05-2.05,0.24-2.54,0.59s-0.74,0.83-0.74,1.47
			c0,0.55,0.17,0.96,0.5,1.22s0.78,0.39,1.33,0.39c0.86,0,1.56-0.24,2.1-0.71s0.82-1.19,0.82-2.14V209.38z"/>
		<path class="st1" d="M704.03,204.32c1.14,0,2.01,0.28,2.59,0.84s0.88,1.46,0.88,2.69v6.28h-1.44v-6.18c0-0.8-0.18-1.4-0.55-1.8
			s-0.93-0.6-1.68-0.6c-1.07,0-1.82,0.3-2.25,0.9s-0.65,1.48-0.65,2.63v5.04h-1.46v-9.63h1.18l0.22,1.39h0.08
			c0.21-0.34,0.47-0.63,0.78-0.86s0.67-0.41,1.06-0.53S703.59,204.32,704.03,204.32z"/>
		<path class="st1" d="M713.93,214.3c-1.22,0-2.18-0.42-2.9-1.25c-0.71-0.83-1.07-2.07-1.07-3.71c0-1.66,0.36-2.91,1.09-3.76
			s1.69-1.27,2.9-1.27c0.51,0,0.96,0.07,1.34,0.2s0.71,0.32,0.98,0.54s0.51,0.48,0.69,0.77h0.11c-0.02-0.18-0.05-0.43-0.07-0.75
			s-0.04-0.57-0.04-0.77v-3.86h1.46v13.68h-1.18l-0.22-1.37h-0.06c-0.18,0.29-0.41,0.55-0.69,0.78s-0.61,0.42-0.99,0.56
			C714.91,214.23,714.45,214.3,713.93,214.3z M714.16,213.09c1.03,0,1.76-0.29,2.19-0.88s0.64-1.46,0.64-2.61v-0.26
			c0-1.22-0.2-2.16-0.61-2.82c-0.41-0.66-1.15-0.98-2.22-0.98c-0.9,0-1.57,0.34-2.01,1.03s-0.67,1.63-0.67,2.82
			c0,1.18,0.22,2.1,0.66,2.74C712.59,212.77,713.26,213.09,714.16,213.09z"/>
		<path class="st1" d="M727.65,200.45v4.09c0,0.23-0.01,0.47-0.02,0.71s-0.03,0.46-0.06,0.66h0.1c0.2-0.34,0.45-0.63,0.76-0.86
			c0.31-0.23,0.66-0.41,1.05-0.53s0.81-0.18,1.25-0.18c0.77,0,1.42,0.12,1.94,0.37c0.52,0.25,0.91,0.63,1.17,1.14s0.39,1.18,0.39,2
			v6.28h-1.44v-6.18c0-0.8-0.18-1.4-0.55-1.8s-0.93-0.6-1.68-0.6c-0.71,0-1.29,0.14-1.71,0.41s-0.73,0.67-0.91,1.2
			c-0.18,0.53-0.28,1.17-0.28,1.93v5.04h-1.46v-13.68H727.65z"/>
		<path class="st1" d="M745.54,209.29c0,0.79-0.1,1.5-0.31,2.12s-0.5,1.15-0.89,1.57s-0.85,0.75-1.4,0.98s-1.17,0.34-1.86,0.34
			c-0.64,0-1.24-0.11-1.77-0.34c-0.54-0.23-1-0.55-1.39-0.98c-0.39-0.43-0.69-0.95-0.91-1.57s-0.32-1.33-0.32-2.12
			c0-1.05,0.18-1.95,0.54-2.69s0.87-1.31,1.53-1.7c0.66-0.39,1.46-0.58,2.38-0.58c0.88,0,1.65,0.2,2.31,0.59
			c0.66,0.39,1.17,0.96,1.54,1.7C745.35,207.35,745.54,208.24,745.54,209.29z M738.21,209.29c0,0.77,0.1,1.44,0.31,2.01
			s0.52,1.01,0.95,1.32s0.98,0.47,1.65,0.47c0.67,0,1.22-0.16,1.65-0.47c0.43-0.31,0.75-0.75,0.95-1.32s0.31-1.24,0.31-2.01
			c0-0.77-0.1-1.43-0.31-1.99s-0.52-0.99-0.95-1.3s-0.98-0.46-1.66-0.46c-1,0-1.74,0.33-2.2,0.99
			C738.44,207.2,738.21,208.12,738.21,209.29z"/>
		<path class="st1" d="M754.29,211.49c0,0.62-0.15,1.13-0.46,1.55c-0.31,0.42-0.75,0.73-1.32,0.95c-0.57,0.21-1.25,0.32-2.04,0.32
			c-0.67,0-1.26-0.05-1.75-0.16s-0.92-0.26-1.29-0.45v-1.34c0.39,0.19,0.86,0.37,1.41,0.53s1.1,0.24,1.67,0.24
			c0.83,0,1.44-0.13,1.81-0.4s0.56-0.63,0.56-1.1c0-0.26-0.08-0.5-0.22-0.7c-0.15-0.2-0.4-0.4-0.75-0.59s-0.84-0.4-1.46-0.63
			c-0.62-0.23-1.15-0.47-1.6-0.7c-0.45-0.23-0.79-0.51-1.04-0.85s-0.36-0.77-0.36-1.3c0-0.81,0.33-1.44,0.99-1.88
			c0.66-0.44,1.52-0.65,2.6-0.65c0.58,0,1.12,0.06,1.63,0.17s0.98,0.27,1.42,0.46l-0.49,1.17c-0.4-0.17-0.82-0.31-1.27-0.43
			s-0.91-0.18-1.38-0.18c-0.67,0-1.19,0.11-1.55,0.33c-0.36,0.22-0.54,0.53-0.54,0.91c0,0.3,0.08,0.54,0.25,0.74
			c0.17,0.19,0.44,0.38,0.8,0.54s0.86,0.37,1.46,0.6c0.6,0.22,1.12,0.45,1.56,0.69s0.78,0.52,1.02,0.86
			C754.17,210.53,754.29,210.96,754.29,211.49z"/>
		<path class="st1" d="M759.75,213.11c0.24,0,0.49-0.02,0.74-0.06s0.46-0.09,0.62-0.15v1.13c-0.17,0.08-0.41,0.14-0.71,0.19
			s-0.6,0.08-0.88,0.08c-0.51,0-0.97-0.09-1.39-0.27s-0.75-0.48-1-0.91s-0.37-1.02-0.37-1.78v-5.71h-1.37v-0.71l1.38-0.57l0.58-2.09
			h0.88v2.23h2.82v1.14h-2.82v5.67c0,0.6,0.14,1.05,0.42,1.35S759.29,213.11,759.75,213.11z"/>
		<path class="st1" d="M771.33,204.34c1.15,0,2,0.26,2.56,0.77s0.83,1.34,0.83,2.47v6.55h-1.06l-0.28-1.42h-0.07
			c-0.27,0.35-0.55,0.65-0.84,0.88s-0.63,0.42-1.02,0.54s-0.85,0.18-1.41,0.18c-0.59,0-1.11-0.1-1.56-0.31s-0.81-0.52-1.07-0.93
			s-0.39-0.94-0.39-1.58c0-0.96,0.38-1.7,1.14-2.21s1.92-0.8,3.48-0.84l1.66-0.07v-0.59c0-0.83-0.18-1.42-0.54-1.75
			s-0.86-0.5-1.51-0.5c-0.5,0-0.98,0.07-1.44,0.22s-0.89,0.32-1.3,0.52l-0.45-1.11c0.43-0.22,0.93-0.41,1.49-0.57
			S770.71,204.34,771.33,204.34z M773.29,209.38l-1.47,0.06c-1.2,0.05-2.05,0.24-2.54,0.59s-0.74,0.83-0.74,1.47
			c0,0.55,0.17,0.96,0.5,1.22s0.78,0.39,1.33,0.39c0.86,0,1.56-0.24,2.1-0.71s0.82-1.19,0.82-2.14V209.38z"/>
		<path class="st1" d="M782.29,204.32c1.14,0,2.01,0.28,2.59,0.84s0.88,1.46,0.88,2.69v6.28h-1.44v-6.18c0-0.8-0.18-1.4-0.55-1.8
			s-0.93-0.6-1.68-0.6c-1.07,0-1.82,0.3-2.25,0.9s-0.65,1.48-0.65,2.63v5.04h-1.46v-9.63h1.18l0.22,1.39h0.08
			c0.21-0.34,0.47-0.63,0.78-0.86s0.67-0.41,1.06-0.53S781.86,204.32,782.29,204.32z"/>
		<path class="st1" d="M797.16,204.32c0.82,0,1.52,0.18,2.11,0.54s1.03,0.87,1.34,1.52s0.47,1.42,0.47,2.29v0.9h-6.65
			c0.02,1.13,0.3,1.99,0.84,2.58s1.31,0.89,2.3,0.89c0.61,0,1.15-0.06,1.62-0.17s0.96-0.28,1.46-0.49v1.28
			c-0.49,0.22-0.97,0.38-1.45,0.47c-0.48,0.1-1.04,0.15-1.69,0.15c-0.93,0-1.73-0.19-2.42-0.57c-0.69-0.38-1.22-0.93-1.6-1.67
			s-0.57-1.63-0.57-2.69c0-1.04,0.17-1.94,0.52-2.69c0.35-0.76,0.84-1.34,1.48-1.75C795.55,204.52,796.3,204.32,797.16,204.32z
			 M797.14,205.51c-0.78,0-1.4,0.25-1.86,0.76s-0.74,1.22-0.83,2.14h5.1c-0.01-0.57-0.1-1.08-0.27-1.52s-0.43-0.78-0.79-1.02
			S797.69,205.51,797.14,205.51z"/>
		<path class="st1" d="M805.85,209.2l-3.33-4.7h1.67l2.54,3.71l2.53-3.71h1.65l-3.33,4.7l3.52,4.93h-1.67l-2.7-3.93l-2.72,3.93
			h-1.65L805.85,209.2z"/>
		<path class="st1" d="M816.84,214.3c-0.87,0-1.63-0.18-2.29-0.54s-1.18-0.9-1.55-1.63s-0.55-1.65-0.55-2.77
			c0-1.17,0.19-2.12,0.58-2.86s0.93-1.29,1.61-1.65s1.46-0.54,2.34-0.54c0.48,0,0.95,0.05,1.39,0.14c0.45,0.1,0.82,0.22,1.1,0.37
			l-0.44,1.22c-0.29-0.12-0.63-0.22-1.02-0.32s-0.74-0.14-1.08-0.14c-0.67,0-1.22,0.14-1.67,0.43s-0.77,0.71-0.99,1.27
			c-0.22,0.56-0.33,1.24-0.33,2.06c0,0.78,0.11,1.44,0.32,1.99s0.53,0.97,0.96,1.26c0.42,0.29,0.96,0.44,1.59,0.44
			c0.51,0,0.97-0.05,1.38-0.16s0.78-0.24,1.12-0.38v1.3c-0.32,0.16-0.68,0.29-1.08,0.38C817.85,214.26,817.38,214.3,816.84,214.3z"
			/>
		<path class="st1" d="M823.06,200.45v4.09c0,0.23-0.01,0.47-0.02,0.71s-0.03,0.46-0.06,0.66h0.1c0.2-0.34,0.45-0.63,0.76-0.86
			c0.31-0.23,0.66-0.41,1.05-0.53s0.81-0.18,1.25-0.18c0.77,0,1.42,0.12,1.94,0.37c0.52,0.25,0.91,0.63,1.17,1.14s0.39,1.18,0.39,2
			v6.28h-1.44v-6.18c0-0.8-0.18-1.4-0.55-1.8s-0.93-0.6-1.68-0.6c-0.71,0-1.29,0.14-1.71,0.41s-0.73,0.67-0.91,1.2
			c-0.18,0.53-0.28,1.17-0.28,1.93v5.04h-1.46v-13.68H823.06z"/>
		<path class="st1" d="M836.24,204.34c1.15,0,2,0.26,2.56,0.77s0.83,1.34,0.83,2.47v6.55h-1.06l-0.28-1.42h-0.07
			c-0.27,0.35-0.55,0.65-0.84,0.88s-0.63,0.42-1.02,0.54s-0.85,0.18-1.41,0.18c-0.59,0-1.11-0.1-1.56-0.31s-0.81-0.52-1.07-0.93
			s-0.39-0.94-0.39-1.58c0-0.96,0.38-1.7,1.14-2.21s1.92-0.8,3.48-0.84l1.66-0.07v-0.59c0-0.83-0.18-1.42-0.54-1.75
			s-0.86-0.5-1.51-0.5c-0.5,0-0.98,0.07-1.44,0.22s-0.89,0.32-1.3,0.52l-0.45-1.11c0.43-0.22,0.93-0.41,1.49-0.57
			S835.62,204.34,836.24,204.34z M838.19,209.38l-1.47,0.06c-1.2,0.05-2.05,0.24-2.54,0.59s-0.74,0.83-0.74,1.47
			c0,0.55,0.17,0.96,0.5,1.22s0.78,0.39,1.33,0.39c0.86,0,1.56-0.24,2.1-0.71s0.82-1.19,0.82-2.14V209.38z"/>
		<path class="st1" d="M847.2,204.32c1.14,0,2.01,0.28,2.59,0.84s0.88,1.46,0.88,2.69v6.28h-1.44v-6.18c0-0.8-0.18-1.4-0.55-1.8
			s-0.93-0.6-1.68-0.6c-1.07,0-1.82,0.3-2.25,0.9s-0.65,1.48-0.65,2.63v5.04h-1.46v-9.63h1.18l0.22,1.39h0.08
			c0.21-0.34,0.47-0.63,0.78-0.86s0.67-0.41,1.06-0.53S846.77,204.32,847.2,204.32z"/>
		<path class="st1" d="M856.37,218.45c-1.27,0-2.24-0.24-2.93-0.71s-1.03-1.13-1.03-1.98c0-0.6,0.19-1.12,0.58-1.55
			s0.92-0.71,1.6-0.85c-0.25-0.12-0.47-0.29-0.65-0.53s-0.27-0.5-0.27-0.81c0-0.35,0.1-0.66,0.29-0.93c0.2-0.27,0.5-0.52,0.9-0.77
			c-0.5-0.21-0.91-0.55-1.23-1.04s-0.47-1.06-0.47-1.71c0-0.69,0.14-1.28,0.43-1.77s0.7-0.86,1.25-1.12s1.2-0.39,1.98-0.39
			c0.17,0,0.34,0.01,0.51,0.02c0.17,0.01,0.34,0.04,0.5,0.06s0.3,0.06,0.41,0.09h3.3v0.94l-1.78,0.22c0.18,0.23,0.32,0.5,0.44,0.83
			s0.18,0.68,0.18,1.07c0,0.96-0.33,1.72-0.98,2.29s-1.54,0.85-2.68,0.85c-0.27,0-0.54-0.02-0.83-0.07
			c-0.29,0.16-0.5,0.33-0.66,0.53c-0.15,0.19-0.22,0.42-0.22,0.67c0,0.19,0.06,0.34,0.17,0.45c0.12,0.11,0.28,0.19,0.5,0.24
			s0.48,0.08,0.78,0.08h1.7c1.05,0,1.85,0.22,2.41,0.66c0.56,0.44,0.84,1.08,0.84,1.93c0,1.07-0.43,1.88-1.3,2.45
			S858.01,218.45,856.37,218.45z M856.41,217.31c0.8,0,1.46-0.08,1.98-0.24c0.52-0.16,0.92-0.39,1.18-0.69
			c0.26-0.3,0.39-0.66,0.39-1.08c0-0.39-0.09-0.68-0.26-0.87s-0.43-0.33-0.77-0.4s-0.76-0.1-1.25-0.1h-1.67
			c-0.43,0-0.81,0.07-1.13,0.2s-0.57,0.33-0.74,0.6s-0.26,0.59-0.26,0.98c0,0.52,0.22,0.92,0.66,1.19S855.6,217.31,856.41,217.31z
			 M856.79,209.61c0.7,0,1.22-0.18,1.57-0.53s0.53-0.87,0.53-1.54c0-0.72-0.18-1.26-0.54-1.62s-0.88-0.54-1.58-0.54
			c-0.67,0-1.18,0.19-1.54,0.56c-0.36,0.37-0.54,0.92-0.54,1.63c0,0.66,0.18,1.16,0.54,1.51S856.12,209.61,856.79,209.61z"/>
		<path class="st1" d="M867.16,204.32c0.82,0,1.52,0.18,2.11,0.54s1.03,0.87,1.34,1.52s0.47,1.42,0.47,2.29v0.9h-6.65
			c0.02,1.13,0.3,1.99,0.84,2.58s1.31,0.89,2.3,0.89c0.61,0,1.15-0.06,1.62-0.17s0.96-0.28,1.46-0.49v1.28
			c-0.49,0.22-0.97,0.38-1.45,0.47c-0.48,0.1-1.04,0.15-1.69,0.15c-0.93,0-1.73-0.19-2.42-0.57c-0.69-0.38-1.22-0.93-1.6-1.67
			s-0.57-1.63-0.57-2.69c0-1.04,0.17-1.94,0.52-2.69c0.35-0.76,0.84-1.34,1.48-1.75C865.55,204.52,866.3,204.32,867.16,204.32z
			 M867.14,205.51c-0.78,0-1.4,0.25-1.86,0.76s-0.74,1.22-0.83,2.14h5.1c-0.01-0.57-0.1-1.08-0.27-1.52s-0.43-0.78-0.79-1.02
			S867.69,205.51,867.14,205.51z"/>
		<path class="st1" d="M647.23,226.32c1.2,0,2.16,0.41,2.87,1.24s1.07,2.07,1.07,3.73c0,1.1-0.16,2.02-0.49,2.76
			s-0.79,1.31-1.38,1.69c-0.6,0.38-1.3,0.57-2.11,0.57c-0.51,0-0.96-0.07-1.34-0.2s-0.72-0.32-0.99-0.54s-0.5-0.48-0.69-0.75h-0.11
			c0.02,0.23,0.04,0.5,0.07,0.83c0.03,0.32,0.04,0.6,0.04,0.84v3.96h-1.47v-13.94h1.2l0.19,1.42h0.07c0.19-0.29,0.42-0.56,0.69-0.8
			s0.6-0.44,0.99-0.58S646.7,226.32,647.23,226.32z M646.98,227.55c-0.67,0-1.21,0.13-1.61,0.39c-0.41,0.26-0.71,0.64-0.89,1.16
			s-0.29,1.16-0.3,1.93v0.28c0,0.81,0.09,1.5,0.27,2.07s0.47,0.99,0.89,1.28c0.41,0.29,0.97,0.44,1.67,0.44
			c0.6,0,1.1-0.16,1.49-0.48s0.7-0.77,0.89-1.35s0.29-1.24,0.29-1.99c0-1.14-0.22-2.04-0.66-2.71S647.89,227.55,646.98,227.55z"/>
		<path class="st1" d="M662.02,231.29c0,0.79-0.1,1.5-0.31,2.12s-0.5,1.15-0.89,1.57s-0.85,0.75-1.4,0.98s-1.17,0.34-1.86,0.34
			c-0.64,0-1.24-0.11-1.77-0.34c-0.54-0.23-1-0.55-1.39-0.98c-0.39-0.43-0.69-0.95-0.91-1.57s-0.32-1.33-0.32-2.12
			c0-1.05,0.18-1.95,0.54-2.69s0.87-1.31,1.53-1.7c0.66-0.39,1.46-0.58,2.38-0.58c0.88,0,1.65,0.2,2.31,0.59
			c0.66,0.39,1.17,0.96,1.54,1.7C661.84,229.35,662.02,230.24,662.02,231.29z M654.69,231.29c0,0.77,0.1,1.44,0.31,2.01
			s0.52,1.01,0.95,1.32s0.98,0.47,1.65,0.47c0.67,0,1.22-0.16,1.65-0.47c0.43-0.31,0.75-0.75,0.95-1.32s0.31-1.24,0.31-2.01
			c0-0.77-0.1-1.43-0.31-1.99s-0.52-0.99-0.95-1.3s-0.98-0.46-1.66-0.46c-1,0-1.74,0.33-2.2,0.99
			C654.93,229.2,654.69,230.12,654.69,231.29z"/>
		<path class="st1" d="M669.07,226.32c1.2,0,2.16,0.41,2.87,1.24s1.07,2.07,1.07,3.73c0,1.1-0.16,2.02-0.49,2.76
			s-0.79,1.31-1.38,1.69c-0.6,0.38-1.3,0.57-2.11,0.57c-0.51,0-0.96-0.07-1.34-0.2s-0.72-0.32-0.99-0.54s-0.5-0.48-0.69-0.75h-0.11
			c0.02,0.23,0.04,0.5,0.07,0.83c0.03,0.32,0.04,0.6,0.04,0.84v3.96h-1.47v-13.94h1.2l0.19,1.42h0.07c0.19-0.29,0.42-0.56,0.69-0.8
			s0.6-0.44,0.99-0.58S668.54,226.32,669.07,226.32z M668.82,227.55c-0.67,0-1.21,0.13-1.61,0.39c-0.41,0.26-0.71,0.64-0.89,1.16
			s-0.29,1.16-0.3,1.93v0.28c0,0.81,0.09,1.5,0.27,2.07s0.47,0.99,0.89,1.28c0.41,0.29,0.97,0.44,1.67,0.44
			c0.6,0,1.1-0.16,1.49-0.48s0.7-0.77,0.89-1.35s0.29-1.24,0.29-1.99c0-1.14-0.22-2.04-0.66-2.71S669.73,227.55,668.82,227.55z"/>
		<path class="st1" d="M688.19,226.49v9.63h-1.2l-0.21-1.35h-0.08c-0.2,0.33-0.46,0.62-0.77,0.84s-0.67,0.4-1.07,0.51
			c-0.4,0.11-0.82,0.17-1.26,0.17c-0.76,0-1.4-0.12-1.92-0.37s-0.9-0.63-1.16-1.14c-0.26-0.52-0.39-1.18-0.39-1.99v-6.31h1.48v6.21
			c0,0.8,0.18,1.4,0.54,1.8s0.92,0.59,1.66,0.59c0.71,0,1.28-0.13,1.71-0.4s0.73-0.67,0.92-1.19s0.28-1.17,0.28-1.93v-5.07H688.19z"
			/>
		<path class="st1" d="M695.8,226.32c1.2,0,2.16,0.41,2.87,1.24s1.07,2.07,1.07,3.73c0,1.1-0.16,2.02-0.49,2.76
			s-0.79,1.31-1.38,1.69c-0.6,0.38-1.3,0.57-2.11,0.57c-0.51,0-0.96-0.07-1.34-0.2s-0.72-0.32-0.99-0.54s-0.5-0.48-0.69-0.75h-0.11
			c0.02,0.23,0.04,0.5,0.07,0.83c0.03,0.32,0.04,0.6,0.04,0.84v3.96h-1.47v-13.94h1.2l0.19,1.42h0.07c0.19-0.29,0.42-0.56,0.69-0.8
			s0.6-0.44,0.99-0.58S695.27,226.32,695.8,226.32z M695.55,227.55c-0.67,0-1.21,0.13-1.61,0.39c-0.41,0.26-0.71,0.64-0.89,1.16
			s-0.29,1.16-0.3,1.93v0.28c0,0.81,0.09,1.5,0.27,2.07s0.47,0.99,0.89,1.28c0.41,0.29,0.97,0.44,1.67,0.44
			c0.6,0,1.1-0.16,1.49-0.48s0.7-0.77,0.89-1.35s0.29-1.24,0.29-1.99c0-1.14-0.22-2.04-0.66-2.71S696.46,227.55,695.55,227.55z"/>
		<path class="st1" d="M715.27,231.29c0,0.79-0.1,1.5-0.31,2.12s-0.5,1.15-0.89,1.57s-0.85,0.75-1.4,0.98s-1.17,0.34-1.86,0.34
			c-0.64,0-1.24-0.11-1.77-0.34c-0.54-0.23-1-0.55-1.39-0.98c-0.39-0.43-0.69-0.95-0.91-1.57s-0.32-1.33-0.32-2.12
			c0-1.05,0.18-1.95,0.54-2.69s0.87-1.31,1.53-1.7c0.66-0.39,1.46-0.58,2.38-0.58c0.88,0,1.65,0.2,2.31,0.59
			c0.66,0.39,1.17,0.96,1.54,1.7C715.09,229.35,715.27,230.24,715.27,231.29z M707.94,231.29c0,0.77,0.1,1.44,0.31,2.01
			s0.52,1.01,0.95,1.32s0.98,0.47,1.65,0.47c0.67,0,1.22-0.16,1.65-0.47c0.43-0.31,0.75-0.75,0.95-1.32s0.31-1.24,0.31-2.01
			c0-0.77-0.1-1.43-0.31-1.99s-0.52-0.99-0.95-1.3s-0.98-0.46-1.66-0.46c-1,0-1.74,0.33-2.2,0.99
			C708.17,229.2,707.94,230.12,707.94,231.29z"/>
		<path class="st1" d="M722.35,226.32c1.14,0,2.01,0.28,2.59,0.84s0.88,1.46,0.88,2.69v6.28h-1.44v-6.18c0-0.8-0.18-1.4-0.55-1.8
			s-0.93-0.6-1.68-0.6c-1.07,0-1.82,0.3-2.25,0.9s-0.65,1.48-0.65,2.63v5.04h-1.46v-9.63h1.18l0.22,1.39h0.08
			c0.21-0.34,0.47-0.63,0.78-0.86s0.67-0.41,1.06-0.53S721.92,226.32,722.35,226.32z"/>
		<path class="st1" d="M734.25,222.89c0.24,0,0.45,0.08,0.62,0.23s0.26,0.4,0.26,0.72c0,0.32-0.09,0.56-0.26,0.72
			s-0.38,0.24-0.62,0.24c-0.25,0-0.46-0.08-0.63-0.24c-0.17-0.16-0.25-0.4-0.25-0.72c0-0.33,0.08-0.57,0.25-0.72
			C733.79,222.97,734,222.89,734.25,222.89z M734.97,226.49v9.63h-1.46v-9.63H734.97z"/>
		<path class="st1" d="M741.16,235.11c0.24,0,0.49-0.02,0.74-0.06s0.46-0.09,0.62-0.15v1.13c-0.17,0.08-0.41,0.14-0.71,0.19
			s-0.6,0.08-0.88,0.08c-0.51,0-0.97-0.09-1.39-0.27s-0.75-0.48-1-0.91s-0.37-1.02-0.37-1.78v-5.71h-1.37v-0.71l1.38-0.57l0.58-2.09
			h0.88v2.23h2.82v1.14h-2.82v5.67c0,0.6,0.14,1.05,0.42,1.35S740.7,235.11,741.16,235.11z"/>
	</g>
</g>
<g>
	<path class="st1" d="M435.05,298.8c-2.91-0.1-6.07-0.29-9.23-0.3c-9.18-0.02-18.37,0.13-27.55,0.03c-4.81-0.05-9.62-0.6-14.44-0.69
		c-5.54-0.11-11.09-0.1-16.64,0.08c-13.74,0.44-27.46,0.11-41.18-0.44c-9.63-0.38-19.26-0.66-28.9-0.98c-1.08-0.04-2.15,0-3.53,0
		c-0.05,1.02-0.14,1.89-0.14,2.76c0.03,8.37-0.42,16.78,0.27,25.09c0.53,6.35-0.55,12.4-1.15,18.58c-0.25,2.62-0.2,5.27-0.42,7.9
		c-0.23,2.83-0.29,2.89-2.99,3.12c-4.44,0.38-8.88,0.67-13.32,0.99c-4.98,0.35-9.96,0.72-14.95,0.98c-1.13,0.06-2.34-0.17-3.42-0.55
		c-1.06-0.37-1.71-1.24-1.75-2.51c-0.16-6.09-0.37-12.17-0.52-18.26c-0.03-1.18,0.19-2.36,0.19-3.54c0-1.67,0.03-3.15,1.76-4.24
		c0.65-0.41,0.87-1.94,0.81-2.94c-0.28-4.9-0.77-9.79-1.07-14.7c-0.25-4.16-0.45-8.34-0.43-12.5c0.01-1.63-1.56-1.9-1.91-2.99
		c0.78-0.83,1.5-1.64,2.28-2.39c1.64-1.57,2.36-3.37,2.59-5.73c1.79-18.48,2.78-37,3.33-55.55c0.34-11.45,0.92-22.9,1.38-34.35
		c0.52-13,1.03-25.99,1.54-38.99c0.24-6.09,0.46-12.18,0.71-18.27c0.08-1.89,0.25-3.78,0.39-5.73c2.08-0.25,3.71,0.39,5.36,1.15
		c9.43,4.4,19.34,7.38,29.41,9.91c6.34,1.6,12.62,3.49,18.98,5c3.88,0.93,7.87,1.4,11.81,2.07c0.8,0.14,1.76,0.03,2.39,0.44
		c2.36,1.53,5.03,1.46,7.63,1.58c9.26,0.43,18.53,0.74,27.79,1.15c2.72,0.12,5.44,0.39,8.15,0.69c7.52,0.84,15.06,0.84,22.6,0.66
		c1.35-0.03,2.7-0.2,4.35-0.33c0.55,0.94,1.16,2.01,1.87,3.23c3.35-1.74,7.73-1.63,10.43-5.72c-0.28,0.13-0.1-0.04,0.04-0.01
		c2.84,0.62,5.06-0.86,7.36-2.14c3.25-1.82,6.57-3.53,9.81-5.37c0.82-0.47,1.47-1.24,2.21-1.86c0.26-0.22,0.57-0.6,0.82-0.58
		c2.06,0.22,3.36-1.24,4.86-2.18c3.08-1.94,6.02-4.1,9.16-5.92c2.27-1.32,3.1-3.08,2.87-5.61c-0.14-1.61-0.03-3.24-0.03-4.81
		c2.16-0.38,2.53-0.25,2.71,1.21c0.19,1.62,0.33,3.28,0.21,4.9c-1.03,13.83-0.06,27.64,0.26,41.45c0.07,2.99,0.18,5.97,0.28,9.09
		c1-0.23,1.77-0.58,2.51-0.53c1.14,0.09,2.34,0.29,3.38,0.75c0.91,0.41,1.7,1.35,0.97,2.44c-0.78,1.15-1.55,0.26-2.26-0.29
		c-0.2-0.15-0.44-0.25-0.72-0.4c-0.08,1.58-0.22,3.1-0.21,4.61c0.01,1.54,0.11,3.09,0.31,4.62c0.1,0.74,0.33,1.66,0.85,2.11
		c3.8,3.35,6.65,7.45,9.41,11.62c1.6,2.41,3.1,4.88,4.76,7.49c-2.23,1.24-4.47,0.91-6.7,0.87c-2.9-0.05-5.8,0.02-8.7,0.07
		c-0.43,0.01-0.86,0.17-1.52,0.31c0,1.04-0.06,2.02,0.01,2.98c0.85,12.16,1.68,24.32,2.61,36.48c0.6,7.8,1.45,15.58,2,23.38
		c0.24,3.42,0.04,6.87,0.04,10.72c1.54,1.17,3.34,2.52,5.13,3.89c1.37,1.05,2.79,2.05,4.07,3.21c0.85,0.77,1.57,1.72,2.19,2.7
		c0.68,1.08,0.02,1.94-0.53,2.95c-0.42,0.77-0.2,1.95-0.1,2.94c0.78,8.17-0.58,16.14-2.27,24.07c-0.09,0.44-0.13,0.88-0.23,1.6
		c1,0.38,1.96,0.87,2.98,1.12c1.34,0.32,1.94,1.04,2.15,2.41c0.39,2.6,0.88,5.2,1.48,7.76c1.01,4.33,0.98,8.65,0.18,13
		c-0.36,1.97-0.68,3.94-0.93,5.93c-0.17,1.39-0.94,2.18-2.24,2.35c-1.43,0.19-2.92,0.42-4.33,0.23c-7.55-1-15.07,0.1-22.6,0.26
		c-4.72,0.1-9.45,0.2-14.17,0.21c-2.04,0.01-2.2-0.22-2.51-2.38c-0.97-6.88-0.71-13.79-0.44-20.7c0.14-3.54,0.42-7.08,0.64-10.62
		c0.02-0.36-0.03-0.89,0.17-1.04c1.72-1.29,1.09-3.13,1.13-4.77C434.77,315.04,434.9,307.06,435.05,298.8z M416.81,155.98
		c-3.49,1.46-6.8,2.85-10.1,4.24c-0.27,2.11-0.52,4.08-0.79,6.24c-5.01,0.89-9.89,2.23-14.83,2.52
		c-10.62,0.62-21.28,0.75-31.87-0.62c-7.5-0.97-14.97-1.96-22.55-1.12c-1.81,0.2-3.62,0.34-5.44,0.42
		c-3.52,0.17-4.46-1.25-3.02-4.49c1.22-2.74,2.45-5.48,3.65-8.23c0.34-0.79,0.58-1.62,0.83-2.34c-21.93-4.48-43.74-8.41-64.13-18.46
		c-0.1,1.95-0.21,3.39-0.25,4.83c-0.18,6.09-0.3,12.19-0.52,18.28c-0.5,14-1.03,27.99-1.56,41.99c-0.32,8.54-0.7,17.09-0.98,25.63
		c-0.42,12.82-0.66,25.64-1.19,38.46c-0.26,6.35-1,12.69-1.51,19.03c-0.05,0.65-0.01,1.31-0.01,2.62c2.15-1.99,3.78-3.54,5.47-5.02
		c0.51-0.45,1.15-0.99,1.76-1.03c3.35-0.19,6.7-0.35,10.05-0.32c5.36,0.05,10.72,0.44,16.08,0.37c6.63-0.09,13.25-0.52,19.88-0.79
		c16.18-0.66,32.35-0.43,48.52,0.22c4.36,0.17,8.76,0.41,13.08-0.04c8.1-0.84,16.15-0.64,24.22,0.07c6.7,0.59,13.4,1.19,20.1,1.76
		c10.01,0.84,19.98-0.34,29.97-0.65c2.12-0.07,3.6,0.49,5.08,1.91c1.55,1.47,3.37,2.64,5.47,4.25c-0.07-1.23-0.02-1.86-0.15-2.45
		c-2.15-9.65-2.34-19.49-2.96-29.29c-0.77-12.17-1.42-24.34-2.14-36.51c-0.05-0.86-0.17-1.72-0.26-2.6
		c-6.4,0.32-12.27,2.98-18.99,1.62c0.87-0.94,1.4-1.53,1.95-2.09c1.66-1.67,3.44-3.24,4.99-5.01c3.18-3.62,6.17-7.41,9.38-11
		c1.39-1.55,1.83-3.12,1.77-5.17c-0.56-18.64-1.03-37.28-1.54-55.92c-0.01-0.47-0.23-0.94-0.31-1.26
		c-4.58,2.89-9.01,5.68-13.67,8.62c0.39,0.46,0.72,1.23,1.13,1.27c2.48,0.23,3.31,1.87,3.8,3.97c0.2,0.88,0.66,1.69,0.98,2.54
		c1.25,3.31,2.54,6.6,3.02,10.45c-3.29,1.9-6.48,4.01-9.89,5.67c-4.98,2.43-10.1,4.59-15.21,6.75c-1.4,0.59-2.95,0.96-4.46,1.12
		c-1.9,0.2-2.51-0.38-2.63-2.26c-0.29-4.35-0.45-8.72-0.77-13.07c-0.09-1.23,0.48-1.84,1.46-2.36
		C417.45,157.83,417.16,156.99,416.81,155.98z M258.32,292.58c0.71,0.15,0.96,0.25,1.22,0.25c6.09-0.06,12.18-0.14,18.27-0.2
		c3.09-0.03,6.19-0.13,9.27-0.01c13.62,0.55,27.24,1.31,40.87,1.74c11.99,0.37,23.99,0.42,35.99,0.57
		c7.73,0.1,15.46,0.04,23.18,0.21c8.27,0.19,16.54,1.03,24.79,0.76c12.47-0.42,24.91,0.12,37.36,0.31
		c6.81,0.1,13.62,0.62,20.43,0.92c0.55,0.02,1.1-0.16,1.78-0.26c-0.26-0.38-0.34-0.55-0.47-0.67c-5.02-4.33-10.07-8.63-15.04-13.02
		c-0.93-0.83-1.83-0.92-2.96-0.9c-7.81,0.14-15.64,0.5-23.44,0.24c-8.98-0.3-17.97-0.92-26.92-1.85
		c-11.25-1.17-22.51-0.87-33.78-0.95c-9.18-0.07-18.37-0.21-27.55-0.12c-9.73,0.1-19.45,0.45-29.18,0.65
		c-5.81,0.12-11.63,0.26-17.45,0.23c-7.45-0.04-14.87-1.04-22.34-0.34c-1.16,0.11-2.01,0.32-2.79,1.3c-1.18,1.48-2.58,2.8-3.94,4.14
		C263.32,287.83,260.97,290.05,258.32,292.58z M472.96,360.01c2.45-9.66,1.67-19.4,0.51-29.41c-12.3-0.7-24.69-0.83-37.1-2.15
		c0,2.53,0.07,5.06-0.01,7.57c-0.23,6.99-0.53,13.98-0.79,20.98c-0.06,1.53-0.06,3.06,1.03,4.76
		C448.63,361.18,460.75,360.6,472.96,360.01z M467.93,328.05c1.92-9.19,2.98-18.32,3.48-27.82c-11.31-0.1-22.37-1.39-33.51-1.36
		c-0.19,9.34-0.94,18.28-0.66,27.28c0.61,0.09,0.96,0.2,1.31,0.19c7.65-0.12,15.22,0.73,22.8,1.68
		C463.41,328.26,465.51,328.05,467.93,328.05z M291.56,326.35c-0.73-0.04-1.17-0.11-1.6-0.09c-4.72,0.22-9.44,0.53-14.16,0.67
		c-2.54,0.07-5.08-0.15-7.62-0.2c-2.27-0.05-4.54-0.14-6.81-0.03c-1.93,0.1-3.07,1.47-3.08,3.43c-0.01,1.64,0.04,3.27,0.06,4.91
		c0.07,5.73,0.12,11.46,0.23,17.19c0.04,2.19,0.85,2.83,3.1,2.68c2.08-0.14,4.17-0.27,6.25-0.41c0.66-0.05,1.32-0.13,2.34-0.23
		c-1.74-1.03-1.74-1.03-2.24-2.25c1.77-1.06,3.03-1.29,5.41-1.27c1.37,0.01,2.27,0.46,2.61,1.84c0.1,0.41,0.32,0.8,0.54,1.31
		c3.95-0.3,7.83-0.22,11.82-1.08C287.92,343.78,290.35,335.32,291.56,326.35z M289.91,296.43c-2.95-0.5-29.13-0.62-30.68-0.09
		c2.71,9.56,0.86,19.41,1.39,29.3c9.62-0.31,19.03,0.67,28.41-0.79C289.32,315.36,289.61,305.97,289.91,296.43z M445.91,161.83
		c-1.41-4.36-2.81-8.72-4.23-13.13c-6.4,3.14-12.47,6.2-18.62,9.09c-2.44,1.15-3.5,2.59-3.05,5.43c0.55,3.46,0.59,6.99,0.89,11.01
		C429.41,170,438.35,167.6,445.91,161.83z M334.97,153.5c-1.47,4.13-2.83,7.95-4.32,12.13c2.53-0.14,4.76-0.34,7.01-0.36
		c3.63-0.02,7.28-0.19,10.87,0.2c10.32,1.12,20.63,2.06,31.02,1.35c1.99-0.13,4.01-0.26,6-0.13c6.21,0.42,11.9-2.3,17.94-2.87
		c0.15-0.01,0.27-0.22,0.56-0.47c0.22-1.79,0.45-3.73,0.7-5.77c-1.32,0-2.3,0-3.29,0c-4.73,0.02-9.46,0.24-14.18,0
		c-7.44-0.38-14.87-1.16-22.31-1.6C355.02,155.4,344.98,155.98,334.97,153.5z M460.14,194.3c-0.53,1.18-1.19,1.96-1.16,2.71
		c0.22,5.26,0.59,10.5,0.92,15.91c4.27-0.16,8.26-0.3,12.73-0.46C468.49,206.21,465.14,200.01,460.14,194.3z M441.42,216.32
		c5.43-1.01,10.36-1.93,15.21-2.84c0.24-3.82-0.42-11.58-1.02-13C451.04,205.6,446.42,210.74,441.42,216.32z M421.66,156.28
		c5.36-2.83,10.6-5.59,15.74-8.3c-0.35-1.77-1.14-1.79-2.26-1.22c-3.79,1.93-7.6,3.81-11.39,5.74c-1.02,0.52-1.99,1.14-3.06,1.75
		C421.05,155,421.31,155.55,421.66,156.28z M458.9,189.33c-0.05,0.04-0.1,0.08-0.15,0.11c0,0.83,0,1.66,0,2.5
		c0.1-0.01,0.19-0.02,0.29-0.04C458.99,191.04,458.94,190.19,458.9,189.33z"/>
	<path class="st1" d="M363.84,286.17c4.74-1.12,9.19-1.21,13.68-0.22c2.83,0.62,5.68,1.3,8.56,1.6c2.13,0.22,4.32-0.1,6.47-0.27
		c0.89-0.07,1.79-0.32,2.65-0.61c3.94-1.35,7.7-1.31,11.58,0.59c3.75,1.84,7.8,1.28,11.75,0.36c5.09-1.18,10.07-0.81,15.02,0.76
		c1.37,0.44,2.17,1.17,2.4,2.67c-1.02,0.98-2.24,0.84-3.29,0.37c-3.7-1.66-7.43-1.14-11.22-0.49c-2.93,0.51-5.86,1.47-8.88,0.75
		c-2.28-0.54-4.58-1.08-6.75-1.93c-1.85-0.73-3.63-1.07-5.57-0.69c-1.69,0.34-3.45,0.49-5.06,1.05c-4.31,1.49-8.62,1.13-12.9,0.14
		c-4.53-1.05-9.06-1.81-13.74-1.59C365.96,288.79,365.13,288.23,363.84,286.17z"/>
	<path class="st1" d="M337.25,290.89c-4.01,1.7-8.03,1.81-12,1.6c-5.79-0.31-11.57-0.91-17.35-1.48c-2.61-0.26-3.72-0.75-3.94-3.47
		c1.64-0.87,3.47-1.65,5.11-2.74c3.82-2.54,8.1-2.89,12.46-2.93c4.08-0.03,8.17-0.06,12.24,0.09c3.44,0.13,4.33,1.53,3.67,4.99
		C337.22,288.17,337.31,289.45,337.25,290.89z M309.58,287.76c0.01,0.19,0.02,0.39,0.03,0.58c3.67,0.35,7.33,0.79,11.01,1.02
		c3.52,0.22,7.06,0.29,10.59,0.27c1.68-0.01,3.44-0.09,5.05-1.32c-0.23-1.02-0.46-2.04-0.68-3.01c-3.03-0.77-14.78-1.64-17.69-1.32
		c-0.45,0.05-0.93,0.09-1.32,0.28C314.23,285.39,311.91,286.58,309.58,287.76z"/>
	<path class="st1" d="M461.47,335.46c-4.94,0.36-15.91-1.73-17.93-3.45c0.5-0.26,0.9-0.63,1.35-0.68c4.98-0.66,9.91-0.22,14.79,0.9
		C461.38,332.62,461.59,333.86,461.47,335.46z"/>
	<path class="st1" d="M454.1,355.12c1.54,0,3.09-0.02,4.63,0.01c0.63,0.01,1.39-0.07,1.84,0.25c0.51,0.35,0.94,1.09,1,1.69
		c0.03,0.32-0.78,0.9-1.3,1.03c-0.77,0.19-1.62,0.11-2.44,0.11c-2.72-0.02-5.44-0.01-8.16-0.11c-0.68-0.02-1.44-0.26-1.99-0.64
		c-0.35-0.24-0.62-1-0.5-1.41c0.1-0.36,0.77-0.78,1.2-0.8c1.9-0.09,3.81-0.04,5.71-0.04C454.1,355.19,454.1,355.16,454.1,355.12z"/>
	<path class="st1" d="M468.07,342.04c-0.7-0.22-1.7-0.41-2.54-0.87c-0.44-0.24-0.88-1.01-0.82-1.49c0.05-0.43,0.72-1.04,1.19-1.12
		c0.95-0.17,1.97-0.15,2.93,0.01c1.38,0.23,2.26,1.35,1.98,2.4C470.45,342.34,469.26,341.88,468.07,342.04z"/>
	<path class="st1" d="M441.4,349.82c2.97-0.64,5.08-0.54,7.36,0.76c-1.79,1.75-3.8,1.88-5.79,1.52
		C442.44,352.01,442.1,350.88,441.4,349.82z"/>
	<path class="st1" d="M442.11,338.91c1.94-0.96,3.64-0.77,5.28,0.21c0.69,0.41,1.18,1.35,0.42,1.7c-0.96,0.45-2.23,0.45-3.33,0.32
		C442.97,340.97,442.73,340.61,442.11,338.91z"/>
	<path class="st1" d="M453.75,349.38c1.65,0.16,3.06,0.24,4.45,0.48c0.32,0.05,0.74,0.61,0.76,0.95c0.02,0.33-0.33,0.83-0.65,1.01
		c-0.54,0.3-1.17,0.44-1.79,0.57C454.29,352.85,453.86,352.44,453.75,349.38z"/>
	<path class="st1" d="M450.4,345c-2.81,1.54-4.41,1.28-5.88-0.8C446.74,342.72,448.29,342.9,450.4,345z"/>
	<path class="st1" d="M459.66,346.99c-3.81,0.82-4.48,0.54-4.91-1.98C457.67,344.04,459.01,344.54,459.66,346.99z"/>
	<path class="st1" d="M457.88,341.83c-2.39-0.03-3.35-0.65-3.21-2c0.1-0.99,0.77-1.4,1.65-1.43
		C457.64,338.34,458.11,339.35,457.88,341.83z"/>
	<path class="st1" d="M469.23,348.33c-0.85,0-1.57,0.08-2.27-0.02c-0.95-0.14-1.55-0.84-1.13-1.71c0.2-0.4,1.2-0.64,1.8-0.57
		C468.7,346.16,469.47,346.77,469.23,348.33z"/>
	<path class="st1" d="M468.47,352.2c-1.46,0-2.53,0.09-3.57-0.05c-0.36-0.05-0.64-0.66-0.96-1.02c0.32-0.25,0.65-0.73,0.96-0.72
		C466.15,350.45,467.6,350.19,468.47,352.2z"/>
	<path class="st1" d="M448.32,301.88c4.22-0.28,8.36-0.16,12.49,0.31c0.44,0.05,0.99,0.16,1.26,0.45c0.46,0.49,1.05,1.19,0.99,1.73
		c-0.06,0.48-0.91,1.21-1.44,1.23c-2.71,0.11-5.42,0.09-8.13-0.04c-1.25-0.06-2.48-0.49-3.73-0.72
		C448.24,304.58,447.85,303.68,448.32,301.88z"/>
	<path class="st1" d="M466.46,312.44c-2.2,0.63-4.26,0.03-6.18-0.99c-1.1-0.58-0.98-1.93,0.22-2.23c1.36-0.33,2.87-0.46,4.24-0.25
		C466.28,309.2,466.58,310.09,466.46,312.44z"/>
	<path class="st1" d="M450.03,323.63c-1.74,1.29-3.71,1.38-5.09,0.25c-0.7-0.58-0.8-1.45-0.04-1.74c0.94-0.35,2.08-0.31,3.11-0.19
		C448.93,322.07,450.01,322.3,450.03,323.63z"/>
	<path class="st1" d="M445.32,314.79c1.94-0.71,3.23-0.56,4.39,0.3c0.79,0.59,0.7,1.72-0.19,1.91c-0.92,0.19-2.01,0.19-2.86-0.15
		C446.11,316.64,445.86,315.67,445.32,314.79z"/>
	<path class="st1" d="M457.46,317.57c-2.15-0.07-3.31-0.74-3.25-1.61c0.06-0.77,1.62-1.31,2.99-1.09c0.93,0.15,1.65,0.7,1.48,1.55
		C458.58,316.96,457.71,317.35,457.46,317.57z"/>
	<path class="st1" d="M459.03,325.57c-1.33-0.11-2.41-0.07-3.41-0.34c-0.44-0.12-0.72-0.83-1.08-1.28c0.5-0.28,0.98-0.78,1.49-0.82
		C457.95,322.99,458.64,323.52,459.03,325.57z"/>
	<path class="st1" d="M443.75,308.77c1.57-0.83,2.78-0.56,3.78,0.57c0.23,0.26,0.33,0.88,0.18,1.18c-0.16,0.32-0.66,0.61-1.04,0.65
		C445.52,311.28,444.39,310.35,443.75,308.77z"/>
	<path class="st1" d="M464.23,317.57c2.44-1.88,3.92-1.4,4.32,1.11C466.96,319.24,465.68,318.71,464.23,317.57z"/>
	<path class="st1" d="M452.79,311.8c-0.58-0.77-1.05-1.3-1.35-1.91c-0.05-0.1,0.66-0.79,1.06-0.84c0.96-0.13,1.51,0.51,1.47,1.42
		C453.95,310.83,453.38,311.16,452.79,311.8z"/>
	<path class="st1" d="M465.96,325.5c-0.9,0.09-1.77,0.19-1.87-1.09c-0.02-0.21,0.41-0.66,0.64-0.66
		C465.81,323.71,466.39,324.17,465.96,325.5z"/>
	<path class="st1" d="M278.81,332.75c-3.57,0.03-6.96-0.21-10.33-0.85c-1.15-0.22-1.64-1.02-1.36-2.37
		c0.44-0.11,0.94-0.35,1.43-0.34c2.62,0.04,5.24,0.08,7.85,0.22C278.65,329.53,278.76,329.73,278.81,332.75z"/>
	<path class="st1" d="M274.09,343.97c-0.93,1.32-2.1,1.36-3.22,0.97c-0.44-0.16-0.93-0.95-0.91-1.43c0.01-0.36,0.78-0.92,1.26-0.98
		C272.32,342.39,273.36,342.67,274.09,343.97z"/>
	<path class="st1" d="M266.81,338.05c-2.15,1.46-2.88,1.33-4.19-0.58C264.52,336.32,265.02,336.37,266.81,338.05z"/>
	<path class="st1" d="M267.03,348.95c-2.66,1.79-3.43,1.67-4.31-0.56C264.2,347.52,265.52,347.67,267.03,348.95z"/>
	<path class="st1" d="M265.24,344.47c-2.42,0.2-2.42,0.2-3.76-0.76C263.48,342.05,264.49,342.2,265.24,344.47z"/>
	<path class="st1" d="M277.47,338.14c1.62-1.54,2.37-1.55,4.14,0C280.17,339.03,278.88,339.16,277.47,338.14z"/>
	<path class="st1" d="M281.39,345.52c-1.34,0.27-2.29,0.06-2.82-1.1c0.45-1.18,1.26-1.38,2.23-1.05
		C281.87,343.72,281.73,344.52,281.39,345.52z"/>
	<path class="st1" d="M275.14,348.73c-0.35,0.38-0.39,0.47-0.47,0.51c-0.86,0.42-1.73,0.66-2.26-0.43c-0.1-0.21,0.09-0.79,0.3-0.9
		C273.78,347.32,274.51,347.8,275.14,348.73z"/>
	<path class="st1" d="M271.46,336.86c0.36,0.55,0.74,0.91,0.8,1.32c0.03,0.19-0.69,0.73-0.87,0.66c-0.4-0.18-0.67-0.64-1-0.99
		C270.69,337.57,270.99,337.3,271.46,336.86z"/>
	<path class="st1" d="M283.29,348.38c-0.16,0.4-0.18,0.55-0.22,0.55c-0.62,0.05-1.25,0.09-1.87,0.13c-0.01-0.24-0.12-0.59,0-0.72
		C281.86,347.65,282.52,347.83,283.29,348.38z"/>
	<path class="st1" d="M283.84,299.92c-5.35-0.28-10.3,0.58-15.23-0.47c-1.31-0.28-2.45-0.69-2.7-2.28c0.19-0.15,0.39-0.43,0.6-0.45
		c5.06-0.5,10.09-0.23,15.11,0.45C282.91,297.36,283.29,298.36,283.84,299.92z"/>
	<path class="st1" d="M279.67,324.2c-2.31-0.11-4.19-0.19-6.06-0.29c-0.82-0.04-1.65-0.03-2.44-0.2c-0.64-0.13-1.57-0.35-1.75-0.78
		c-0.22-0.54,0.01-1.5,0.4-1.99c0.47-0.59,1.27-1.06,2.01-1.25C274.64,319,278.09,320.86,279.67,324.2z"/>
	<path class="st1" d="M268.03,307.93c-2.13-0.72-4.25-0.14-5.58-2.07C265.43,303.97,266.84,304.42,268.03,307.93z"/>
	<path class="st1" d="M283.67,313.28c-2.84,0.59-4.07,0.21-5.06-1.54C281.51,310.7,282.68,311.05,283.67,313.28z"/>
	<path class="st1" d="M267.28,318.55c-1.73,0.33-3.36,0.48-4.61-1.2C265.44,316.17,266.57,316.46,267.28,318.55z"/>
	<path class="st1" d="M275.31,307.28c-2.31,1.26-2.85,1.07-3.83-1.34C273.64,305.36,274.12,305.52,275.31,307.28z"/>
	<path class="st1" d="M267.09,311.53c-2.37,1.14-2.78,1.03-4-1C264.57,310.04,265.79,310.19,267.09,311.53z"/>
	<path class="st1" d="M284.17,307.78c-1.88,0.72-1.91,0.7-2.93-1.41C283.2,305.78,283.27,305.81,284.17,307.78z"/>
	<path class="st1" d="M270.13,310.93c2.42-0.34,2.44-0.32,3.19,1.81C271.84,312.77,270.79,312.37,270.13,310.93z"/>
	<path class="st1" d="M270.74,316.81c1.06,0.16,2.12,0.31,3.68,0.54c-1.67,1.19-2.76,1.25-3.81,0.26
		C270.65,317.34,270.69,317.08,270.74,316.81z"/>
	<path class="st1" d="M282.84,317.22c0.71,0.69,1.19,1.16,1.67,1.63C283.03,318.79,283.03,318.79,282.84,317.22z"/>
	<path class="st1" d="M390.46,165.49c-5.78-0.42-11.3-0.71-16.8-1.25c-7.6-0.75-15.21-0.88-22.83-0.64
		c-2.44,0.08-4.89-0.22-7.34-0.35c-2.02-0.11-3.38-1.2-4.25-2.95c-0.79-1.58-0.46-2.46,1.23-2.82c1.41-0.3,2.89-0.59,4.31-0.47
		c10.42,0.84,20.86,0.67,31.29,0.93c3.33,0.08,6.65,0.74,9.98,1.13c1.98,0.23,3.96,0.44,5.94,0.72c1.02,0.14,1.86,0.5,2.25,1.66
		c0.8,2.35,0.04,3.71-2.42,4.04C391.28,165.55,390.73,165.49,390.46,165.49z"/>
</g>
<path class="st1" d="M650.71,458.2c-1.71,0.07-3.24,0.17-4.77,0.18c-2.23,0.01-4.38-0.5-6.48-1.22c-0.99-0.34-2.03-0.52-3-0.9
	c-1.7-0.66-3.37-1.43-5.05-2.14c-0.47-0.2-0.97-0.32-1.43-0.53c-1.98-0.91-3.92-1.88-5.92-2.75c-2.46-1.07-4.96-2.05-7.44-3.08
	c-1.2-0.5-2.38-1.03-3.57-1.55c-1.57-0.68-3.16-1.33-4.72-2.03c-1.52-0.69-3-1.45-4.52-2.15c-1.18-0.54-2.37-1.07-3.59-1.52
	c-1.34-0.49-1.6-1.63-0.92-2.65c0.79-1.18,1.85-2.18,2.78-3.26c0.39-0.45,0.78-0.91,1.17-1.38c0.09-0.11,0.22-0.29,0.18-0.36
	c-0.45-0.98,0.46-1.35,0.9-1.81c1.69-1.79,3.88-2.92,5.95-4.2c0.87-0.54,1.71-1.12,2.59-1.62c1.17-0.66,2.38-1.23,3.55-1.89
	c0.79-0.44,1.56-0.91,2.29-1.43c2.18-1.52,4.34-3.07,6.51-4.62c1.47-1.05,2.89-2.18,4.41-3.14c0.74-0.47,1.67-0.62,2.61-0.95
	c-0.59-0.29-1.2-0.58-1.79-0.9c-1.49-0.8-2.96-1.62-4.44-2.43c-0.79-0.43-1.62-0.81-2.38-1.3c-1.4-0.9-2.71-1.95-4.15-2.79
	c-1.96-1.14-3.99-2.17-6.02-3.2c-1.36-0.7-2.75-1.35-4.15-1.98c-0.74-0.33-1.52-0.57-2.27-0.87c-0.4-0.16-0.78-0.36-1.25-0.57
	c0.22-0.26,0.34-0.41,0.49-0.58c-0.34-0.43-0.66-0.88-0.03-1.33c-1.24-2.38-1.4-5-1.83-7.55c-0.34-2-0.64-4.01-1-6.01
	c-0.39-2.16-0.86-4.31-1.21-6.48c-0.18-1.13-0.53-2.09-1.51-2.74c-1.44-0.96-1.66-2.4-1.42-3.93c0.33-2.04,0.77-4.06,1.18-6.09
	c0.56-2.76,1.18-5.5,1.68-8.26c0.39-2.14,1.07-4.18,2.14-6.05c1.15-2.01,2.57-3.84,4.46-5.23c2.28-1.67,4.65-3.2,7.53-3.52
	c1.6-0.18,3.24-0.13,4.86-0.04c0.79,0.04,1.54,0.19,2.33-0.03c1.61-0.44,3.18,0,4.77,0.26c3.37,0.55,6.6,1.6,9.74,2.92
	c1.68,0.7,3.29,1.57,4.53,2.93c1.46,1.61,3.19,2.99,4.18,4.99c0.37,0.76,0.67,1.55,1.03,2.31c0.3,0.62,0.66,1.22,0.95,1.84
	c0.55,1.19,0.77,2.48,0.99,3.77c0.03,0.19,0.23,0.46,0.41,0.51c0.71,0.21,1.43,0.42,2.16,0.5c1.3,0.13,2.6,0.14,3.9,0.24
	c4.06,0.32,8.12,0.62,12.17,1.03c1.96,0.2,3.72,1.06,5.42,2.09c1.82,1.1,2.85,2.78,3.74,4.59c1.43,2.9,2.4,5.98,3.22,9.1
	c0.51,1.94,0.93,3.91,1.39,5.87c0.14,0.58,0.23,1.18,0.42,1.74c0.05,0.14,0.34,0.26,0.54,0.3c1.24,0.22,1.23,0.21,1.4,1.47
	c0.29,2.22,0.65,4.43,0.84,6.66c0.14,1.64,0.42,3.24,0.93,4.8c0.32,0.98,0.75,1.93,1.06,2.92c0.31,1.01,0.47,2.06,0.79,3.06
	c0.73,2.26,1.52,4.49,2.27,6.74c0.55,1.65,1.15,3.32,1.06,5.07c-0.04,0.8-0.45,1.65-0.91,2.34c-1.36,2.03-2.76,4.06-4.29,5.97
	c-1.3,1.62-2.8,3.08-4.23,4.59c-0.2,0.22-0.47,0.4-0.74,0.52c-1.26,0.6-2.01,1.75-2.95,2.69c-0.76,0.76-1.48,1.57-2.17,2.4
	c-1.01,1.2-1.98,2.44-2.97,3.66c-0.71,0.88-1.43,1.75-2.13,2.63c-0.91,1.16-1.78,2.34-2.7,3.49c-0.53,0.67-1.11,1.3-1.66,1.95
	c-1.4,1.66-2.65,3.41-3.74,5.29c-0.87,1.5-1.8,2.96-2.74,4.42c-0.71,1.1-1.46,2.17-2.23,3.23c-0.2,0.27-0.48,0.51-0.78,0.67
	c-1.8,0.93-3.73,1.43-5.76,1.49c-1.17,0.03-1.27-0.24-0.96-1.37C650.63,460.11,650.61,459.15,650.71,458.2z M648.77,426.15
	c0.15-1.66-0.69-2.64-1.68-3.51c-0.5-0.44-1.14-0.72-1.68-1.12c-0.78-0.57-1.52-1.2-2.3-1.77c-1.38-1.02-2.81-1.98-4.17-3.02
	c-1.03-0.79-1.75-0.85-2.81-0.07c-0.46,0.34-0.93,0.69-1.41,1.01c-1.61,1.05-3.22,2.09-4.84,3.13c-1.42,0.91-2.8,1.89-4.29,2.69
	c-2.51,1.35-5.08,2.6-7.64,3.86c-2.47,1.21-4.85,2.55-6.99,4.29c-0.45,0.36-0.91,0.72-1.29,1.14c-0.58,0.65-1.1,1.36-1.65,2.04
	c-0.63,0.77-1.3,1.5-1.89,2.3c-0.49,0.66-0.43,1.15,0.25,1.61c0.57,0.38,1.22,0.66,1.87,0.89c2.79,0.96,5.6,1.87,8.38,2.84
	c2.58,0.9,5.14,1.88,7.72,2.79c1.92,0.68,3.87,1.27,5.78,1.98c1.28,0.48,2.51,1.08,3.75,1.65c1.51,0.69,3.01,1.42,4.53,2.1
	c1.55,0.69,3.11,1.34,4.67,1.98c2.21,0.9,4.42,1.79,6.66,2.63c0.94,0.35,1.2,0.11,1.27-0.91c0.04-0.58,0.04-1.16,0.12-1.74
	c0.38-2.88-0.03-5.71-0.5-8.54c-0.17-1.03-0.33-2.07-0.45-3.11c-0.08-0.65-0.07-1.32-0.13-1.97c-0.19-1.98-0.4-3.96-0.58-5.94
	c-0.14-1.5-0.23-3-0.37-4.5C649.02,427.9,648.87,426.93,648.77,426.15z M641.18,374.47c-0.12-0.35-0.26-0.64-0.33-0.95
	c-0.3-1.48-0.92-2.94-0.51-4.5c0.02-0.09,0.01-0.19,0-0.28c-0.17-1.23-0.4-2.45-0.5-3.68c-0.11-1.35-0.09-2.72-0.13-4.08
	c-0.03-1.24,0.01-2.49-0.12-3.72c-0.08-0.78-0.44-1.54-0.66-2.31c-0.31-1.08-0.6-2.17-0.91-3.25c-0.16-0.55-0.27-1.14-0.55-1.63
	c-0.5-0.88-1.04-1.75-1.69-2.52c-1.05-1.27-2.12-2.54-3.86-2.93c-1.39-0.31-2.69-0.95-4.19-0.88c-1.21,0.06-1.95,0.51-2.35,1.61
	c-0.24,0.65-0.76,0.87-1.34,0.64c-0.69-0.28-1.31-0.73-1.97-1.08c-0.26-0.14-0.61-0.35-0.84-0.27c-1.19,0.37-2.44,0.69-3.52,1.29
	c-1.11,0.63-2.16,1.46-3.03,2.39c-1.04,1.11-1.94,2.36-2.76,3.65c-0.66,1.03-1.3,2.15-1.61,3.32c-0.71,2.67-1.21,5.4-1.78,8.1
	c-0.37,1.76-0.69,3.53-1.06,5.29c-0.32,1.53-0.8,3.05-0.28,4.64c0.12,0.37,0.27,0.76,0.28,1.14c0.02,0.91,0.55,1.29,1.35,1.52
	c3.09,0.92,6.16,1.93,9.27,2.79c3.65,1.02,7.33,1.93,11,2.86c0.25,0.06,0.63-0.01,0.84-0.17c1.73-1.33,3.4-2.75,5.16-4.03
	c1.5-1.1,2.96-2.33,4.88-2.7C640.37,374.65,640.78,374.56,641.18,374.47z M652.43,418.96c0.84-0.7,0.62-1.79,0.61-2.79
	c-0.01-1.86-0.12-3.71-0.2-5.57c-0.07-1.72-0.13-3.44-0.26-5.16c-0.05-0.75-0.2-1.5-0.41-2.23c-0.32-1.15-0.66-2.31-1.12-3.41
	c-0.35-0.84-0.84-1.63-1.36-2.38c-0.57-0.83-1.17-1.64-1.88-2.35c-0.75-0.75-1.63-1.36-2.46-2.04c-0.94-0.78-1.79-1.71-2.83-2.32
	c-2.53-1.47-5.14-2.79-7.74-4.14c-0.2-0.1-0.57-0.09-0.76,0.03c-1.35,0.88-2.68,1.81-4.02,2.71c-1.78,1.2-3.68,2.15-5.71,2.84
	c-0.24,0.08-0.49,0.16-0.72,0.27c-1.44,0.74-2.88,1.49-4.32,2.23c-1.5,0.77-3,1.55-4.52,2.3c-0.86,0.42-1.75,0.79-2.73,1.23
	c0.89,0.43,1.69,0.88,2.53,1.22c2.35,0.94,4.76,1.74,7.07,2.78c2.66,1.21,5.26,2.56,7.82,3.96c1.68,0.92,3.06,2.35,4.95,2.94
	c0.11,0.03,0.2,0.12,0.3,0.18c1.74,0.96,3.47,1.96,5.24,2.87c1.88,0.97,3.85,1.77,5.7,2.79C647.92,416.2,650.14,417.6,652.43,418.96
	z M677.26,393.78c-0.63,0.73-1.25,1.42-1.85,2.13c-1.72,2.06-3.41,4.16-4.72,6.53c-0.7,1.27-1.28,2.62-2.08,3.82
	c-0.77,1.14-1.78,2.12-2.63,3.21c-1.11,1.44-2.19,2.92-3.24,4.41c-0.35,0.5-0.8,1.07-0.83,1.63c-0.11,1.54-0.06,3.09,0,4.63
	c0.13,3.01,0.34,6.02,0.46,9.03c0.03,0.73-0.1,1.48-0.27,2.19c-0.28,1.15-1.27,1.54-2.27,1.81c-0.48,0.13-0.64,0.4-0.63,0.85
	c0.02,1.4,0.1,2.8,0.06,4.2c-0.05,1.84-0.2,3.67-0.3,5.51c-0.03,0.55,0,1.1,0,1.77c0.25-0.26,0.45-0.41,0.57-0.6
	c0.96-1.49,1.89-2.99,2.85-4.48c0.88-1.38,1.68-2.83,2.7-4.1c1.41-1.76,3-3.38,4.5-5.07c0.58-0.65,1.12-1.34,1.71-1.98
	c0.36-0.39,0.79-0.71,1.17-1.08c0.56-0.55,1.1-1.11,1.66-1.67c0.54-0.54,1.12-1.05,1.64-1.6c0.96-1.03,1.89-2.09,2.84-3.13
	c0.42-0.46,0.8-0.96,1.25-1.39c0.87-0.82,1.82-1.58,2.66-2.43c0.26-0.26,0.44-0.74,0.43-1.1c-0.03-0.66-0.21-1.31-0.39-1.95
	c-0.21-0.75-0.5-1.48-0.73-2.22c-0.34-1.1-0.64-2.2-0.97-3.3c-0.51-1.67-1.08-3.33-1.53-5.01c-0.25-0.95-0.23-1.97-0.46-2.93
	c-0.48-1.93-0.58-3.87-0.48-5.83C678.43,394.31,678.46,394.31,677.26,393.78z M675.69,390.15c-0.29-0.11-0.48-0.19-0.67-0.24
	c-2.35-0.66-4.68-1.41-7.05-1.96c-2.69-0.62-4.92-2.06-7.14-3.59c-1.65-1.14-3.4-2.15-5.17-3.1c-0.99-0.53-2.13-0.78-3.17-1.23
	c-1.74-0.76-3.45-1.61-5.19-2.39c-0.78-0.35-1.56-0.71-2.33,0.13c-0.52,0.57-1.17,1.03-1.77,1.52c-1.47,1.19-2.95,2.37-4.41,3.57
	c-0.44,0.36-0.83,0.76-1.32,1.22c1.33,0.58,2.57,1.06,3.75,1.64c2.39,1.18,4.76,2.41,7.14,3.64c0.8,0.41,1.65,0.78,2.37,1.31
	c1.46,1.06,2.9,2.16,4.27,3.33c1.32,1.14,2.79,2.09,3.8,3.61c1.48,2.24,2.63,4.57,2.98,7.25c0.05,0.39,0.16,0.78,0.25,1.24
	c0.77-0.68,1.53-1.2,2.08-1.88c0.97-1.18,1.75-2.51,2.72-3.69c1.92-2.35,3.9-4.64,5.87-6.95
	C673.66,392.45,674.65,391.35,675.69,390.15z M675.51,387.85c-0.26-1.08-0.43-1.92-0.66-2.75c-0.4-1.46-0.77-2.94-1.28-4.36
	c-0.47-1.31-1.16-2.53-1.68-3.83c-0.75-1.86-1.47-3.74-2.11-5.64c-0.63-1.84-1.63-3.46-2.75-5.02c-0.64-0.89-1.59-1.38-2.57-1.64
	c-0.99-0.27-2.08-0.2-3.12-0.31c-3.75-0.37-7.5-0.73-11.24-1.13c-0.52-0.06-0.71,0.08-0.7,0.54c0.02,1.45,0.08,2.9,0.07,4.34
	c0,0.79-0.04,1.6-0.2,2.37c-0.19,0.89-0.6,1.74-0.8,2.63c-0.18,0.81-0.2,1.66-0.29,2.5c0.2,0.01,0.3,0.03,0.39,0.02
	c3.01-0.25,5.77,0.5,8.43,1.91c2.48,1.31,5.08,2.38,7.57,3.69c1.28,0.67,2.45,1.58,3.62,2.44c1.13,0.83,2.14,1.85,3.34,2.55
	C672.7,386.86,674.05,387.25,675.51,387.85z M627.09,383.67c-3.3-0.88-6.4-1.67-9.49-2.54c-3.08-0.87-5.96-2.37-9.21-3.15
	c0.6,2.79,1.21,5.4,1.7,8.03c0.48,2.61,0.83,5.24,1.25,7.96c1.18-0.85,2.22-1.61,3.28-2.36c0.68-0.48,1.34-1,2.06-1.42
	c1.24-0.72,2.55-1.33,3.77-2.08c1.73-1.07,3.4-2.22,5.09-3.34C626.03,384.45,626.49,384.1,627.09,383.67z"/>
</svg>
