<?xml version="1.0" encoding="utf-8"?>
<!-- Generator: Adobe Illustrator 25.2.1, SVG Export Plug-In . SVG Version: 6.00 Build 0)  -->
<svg version="1.1" id="Layer_1" xmlns="http://www.w3.org/2000/svg" xmlns:xlink="http://www.w3.org/1999/xlink" x="0px" y="0px"
	 viewBox="0 0 1048 355.96" style="enable-background:new 0 0 1048 355.96;" xml:space="preserve">
<style type="text/css">
	.st0{fill:#283B00;}
	.st1{fill:#D1E9C5;}
	.st2{fill:#FFF7B1;}
	.st3{fill:#FF5902;}
</style>
<path class="st0" d="M731.03,38.54c32.53,3.12,62.27,15.67,91.56,29.7c22.12,10.59,36.96,29.24,48.33,51.94
	c7.08,14.13,4.99,27.77-2.85,40.1c-5.15,8.09-12.31,15.2-19.71,20.98c-12.99,10.13-27.84,16.42-43.31,20.34
	c-19.09,4.83-38.17,10.04-57.46,13.48c-15.45,2.76-31.21,4.03-46.83,4.34c-29.07,0.57-58.18,0.65-87.2-0.36
	c-27.27-0.95-53.95-6.49-79.32-17.16c-18.38-7.73-34.04-20.02-45.63-37.67c-13.83-21.05-13.16-40.94,3.54-60.13
	c7.86-9.04,17.44-16.8,27.28-23.2c21.4-13.94,44.86-22.56,69.04-28.08c37.63-8.59,75.5-15.4,113.95-15.54
	C711.96,37.25,721.49,38.1,731.03,38.54z"/>
<path class="st0" d="M281.45,256.6c-1.05,9.21-2.13,18.87-3.25,28.54c-0.68,5.86-0.39,11.32,2.26,17.01
	c4.12,8.84,1.48,12.64-8.53,12.76c-3.95,0.05-8.73-0.92-11.73-3.24c-9.66-7.45-16.16-16.78-13.04-30.07
	c3.25-13.86,6.26-27.78,9.63-41.6c1.51-6.2,4.52-7.65,10.87-6.12c9.06,2.17,12.44,6.06,13.35,15.45
	C281.24,251.57,281.29,253.85,281.45,256.6z"/>
<path class="st0" d="M343.11,208.48c-1.8-2.97-0.19-7.45-0.03-7.71c1.74-2.9,4.67-5.54,7.69-7.14c8.81-4.66,17.84-8.91,26.93-12.99
	c6.27-2.81,12.12-0.17,17.51,2.83c4.06,2.26,5.06,5.9,2.32,8.81c-7.39,7.84-12.85,10.91-12.85,10.91
	C374.01,208.19,347.92,216.42,343.11,208.48z"/>
<path class="st0" d="M310.06,212.02c0.38,7.24-7.75,17.64-13.02,18.55c-5.1,0.89-11.33-4.56-10.71-9.71
	c0.72-6.03,3.55-11.05,8.41-14.8c2.94-2.27,6.13-2.27,8.96-0.04C306.32,208.09,308.6,210.62,310.06,212.02z"/>
<path class="st0" d="M430.81,185c-8.6,0.02-12.72-2.7-14.56-7.67c-1.29-3.5-0.86-6.81,2.18-8.62c2.19-1.3,5.47-1.9,7.92-1.32
	c2.64,0.63,5.39,2.58,7.15,4.72c1.84,2.24,4.17,6.07,3.37,8.01C435.79,182.72,431.93,184.18,430.81,185z"/>
<path class="st0" d="M464.97,175.22c-2.46,1.14-6.14-1.44-7.4-2.22c-3.98-2.47-4.85-5.6-3.39-9.88c1.07-3.14,2.69-5.15,4.78-5.77
	c2.78-0.82,5.35,0.99,5.51,1.1C469.55,162.13,468.92,173.39,464.97,175.22z"/>
<path class="st0" d="M327.61,208.05c-6.82-0.35-12.84-5.35-12.75-9.24c0.08-3.58,2.77-5.96,6.38-5.64
	c5.67,0.51,11.07,5.22,10.16,9.61C330.94,205.01,328.54,206.83,327.61,208.05z"/>
<g>
	<g>
		<path class="st1" d="M563.93,116.11c0,1.52-0.38,2.82-1.13,3.89s-1.81,1.89-3.17,2.45s-2.96,0.84-4.8,0.84
			c-0.97,0-1.89-0.05-2.76-0.14s-1.66-0.23-2.39-0.4s-1.37-0.39-1.92-0.65v-2.87c0.88,0.36,1.95,0.7,3.22,1.01s2.59,0.47,3.97,0.47
			c1.29,0,2.38-0.17,3.27-0.52s1.57-0.84,2.03-1.49s0.69-1.43,0.69-2.35c0-0.88-0.19-1.62-0.58-2.21s-1.03-1.13-1.92-1.62
			s-2.12-1-3.67-1.55c-1.09-0.39-2.05-0.81-2.88-1.28s-1.53-0.99-2.09-1.57s-0.99-1.27-1.27-2.04s-0.43-1.66-0.43-2.65
			c0-1.37,0.35-2.55,1.05-3.53s1.66-1.73,2.9-2.25s2.66-0.78,4.26-0.78c1.37,0,2.64,0.13,3.81,0.39s2.24,0.6,3.21,1.04l-0.93,2.57
			c-0.93-0.39-1.91-0.71-2.94-0.97s-2.11-0.39-3.21-0.39s-2.03,0.16-2.79,0.48s-1.33,0.78-1.73,1.36s-0.6,1.28-0.6,2.09
			c0,0.9,0.19,1.65,0.57,2.25s0.99,1.13,1.83,1.59s1.95,0.95,3.33,1.45c1.51,0.55,2.79,1.13,3.85,1.75s1.86,1.37,2.41,2.25
			S563.93,114.75,563.93,116.11z"/>
		<path class="st1" d="M574.95,120.91c0.48,0,0.97-0.04,1.48-0.12s0.91-0.18,1.23-0.3v2.27c-0.34,0.15-0.81,0.28-1.42,0.39
			s-1.19,0.16-1.77,0.16c-1.02,0-1.95-0.18-2.78-0.54s-1.5-0.96-2-1.82s-0.75-2.04-0.75-3.55v-11.43h-2.74v-1.42l2.76-1.14
			l1.16-4.18h1.76v4.46h5.64v2.29h-5.64v11.34c0,1.21,0.28,2.11,0.83,2.71S574.02,120.91,574.95,120.91z"/>
		<path class="st1" d="M588.98,103.33c1.64,0,3.05,0.36,4.22,1.09s2.07,1.74,2.69,3.05s0.93,2.83,0.93,4.58v1.81h-13.31
			c0.04,2.26,0.6,3.98,1.69,5.17s2.62,1.78,4.61,1.78c1.22,0,2.3-0.11,3.23-0.33s1.91-0.55,2.92-0.98v2.57
			c-0.97,0.43-1.94,0.75-2.89,0.95s-2.08,0.3-3.38,0.3c-1.85,0-3.47-0.38-4.84-1.13s-2.45-1.87-3.21-3.33s-1.14-3.26-1.14-5.38
			c0-2.07,0.35-3.87,1.05-5.39s1.68-2.69,2.95-3.51S587.25,103.33,588.98,103.33z M588.94,105.72c-1.56,0-2.8,0.51-3.73,1.53
			s-1.48,2.44-1.65,4.27h10.2c-0.01-1.15-0.19-2.16-0.54-3.03s-0.87-1.55-1.57-2.04S590.04,105.72,588.94,105.72z"/>
		<path class="st1" d="M610.83,103.33c2.4,0,4.32,0.83,5.75,2.48s2.14,4.14,2.14,7.45c0,2.19-0.33,4.03-0.98,5.52
			s-1.58,2.61-2.77,3.38s-2.59,1.14-4.21,1.14c-1.02,0-1.92-0.13-2.69-0.4s-1.44-0.63-1.99-1.09s-1.01-0.96-1.37-1.49h-0.21
			c0.04,0.46,0.08,1.01,0.13,1.65s0.08,1.21,0.08,1.69v7.91h-2.94v-27.88h2.41l0.39,2.85h0.14c0.38-0.59,0.83-1.12,1.37-1.61
			s1.2-0.87,1.98-1.16S609.76,103.33,610.83,103.33z M610.32,105.79c-1.34,0-2.41,0.26-3.23,0.77s-1.41,1.29-1.78,2.31
			s-0.57,2.31-0.6,3.86v0.56c0,1.63,0.18,3.01,0.54,4.13s0.95,1.98,1.78,2.57s1.94,0.88,3.33,0.88c1.2,0,2.19-0.32,2.99-0.97
			s1.39-1.54,1.78-2.7s0.59-2.48,0.59-3.98c0-2.27-0.44-4.08-1.33-5.42S612.14,105.79,610.32,105.79z"/>
		<path class="st1" d="M641.48,122.94h-3.01V99.88h-8.09v-2.64h19.14v2.64h-8.05V122.94z"/>
		<path class="st1" d="M668.66,122.91l-3.43-11.21c-0.15-0.48-0.3-0.95-0.43-1.42s-0.26-0.91-0.37-1.34s-0.21-0.83-0.3-1.2
			s-0.16-0.69-0.22-0.96h-0.12c-0.05,0.27-0.11,0.59-0.19,0.96s-0.18,0.77-0.29,1.21s-0.23,0.89-0.36,1.36s-0.28,0.95-0.44,1.43
			l-3.59,11.16h-3.29l-5.31-19.27h3.02l2.78,10.63c0.19,0.7,0.37,1.4,0.54,2.08s0.32,1.33,0.44,1.93s0.21,1.13,0.27,1.57h0.14
			c0.07-0.29,0.15-0.64,0.24-1.05s0.19-0.85,0.3-1.31s0.23-0.93,0.36-1.39s0.26-0.9,0.39-1.31l3.55-11.16h3.15l3.43,11.14
			c0.18,0.56,0.35,1.15,0.52,1.76s0.33,1.2,0.47,1.77s0.24,1.08,0.3,1.52h0.14c0.05-0.4,0.13-0.89,0.26-1.48s0.28-1.23,0.45-1.93
			s0.35-1.42,0.54-2.14l2.81-10.63h2.97l-5.33,19.27H668.66z"/>
		<path class="st1" d="M697.49,113.28c0,1.58-0.21,2.99-0.62,4.24s-1,2.29-1.78,3.15s-1.71,1.51-2.8,1.96s-2.33,0.68-3.72,0.68
			c-1.29,0-2.47-0.23-3.54-0.68s-2-1.1-2.78-1.96s-1.38-1.9-1.81-3.15s-0.64-2.65-0.64-4.24c0-2.11,0.36-3.91,1.07-5.39
			s1.74-2.61,3.07-3.39s2.92-1.17,4.75-1.17c1.76,0,3.3,0.39,4.61,1.18s2.34,1.92,3.08,3.4S697.49,111.18,697.49,113.28z
			 M682.83,113.28c0,1.55,0.21,2.89,0.62,4.03s1.04,2.02,1.9,2.64s1.96,0.93,3.3,0.93c1.34,0,2.43-0.31,3.3-0.93s1.5-1.5,1.91-2.64
			s0.62-2.48,0.62-4.03c0-1.54-0.21-2.86-0.62-3.98s-1.04-1.98-1.9-2.59s-1.96-0.91-3.32-0.91c-2,0-3.47,0.66-4.4,1.99
			S682.83,110.93,682.83,113.28z"/>
		<path class="st1" d="M702.09,105.52c0-0.84,0.2-1.44,0.6-1.79s0.88-0.52,1.46-0.52c0.6,0,1.1,0.17,1.51,0.52s0.62,0.94,0.62,1.79
			c0,0.8-0.21,1.38-0.62,1.74s-0.91,0.54-1.51,0.54c-0.57,0-1.06-0.18-1.46-0.54S702.09,106.32,702.09,105.52z M702.09,121.12
			c0-0.82,0.2-1.4,0.6-1.75s0.88-0.52,1.46-0.52c0.6,0,1.1,0.17,1.51,0.52s0.62,0.93,0.62,1.75c0,0.81-0.21,1.4-0.62,1.77
			s-0.91,0.55-1.51,0.55c-0.57,0-1.06-0.19-1.46-0.55S702.09,121.92,702.09,121.12z"/>
		<path class="st1" d="M556.14,141.25c3.32,0,5.74,0.65,7.27,1.94s2.29,3.15,2.29,5.56c0,1.09-0.18,2.12-0.54,3.1
			s-0.93,1.84-1.73,2.58s-1.84,1.33-3.14,1.76s-2.88,0.64-4.75,0.64h-3.13v10.11h-2.99v-25.7H556.14z M555.86,143.79h-3.45v10.48
			h2.79c1.64,0,3.01-0.18,4.1-0.53s1.92-0.92,2.47-1.71s0.83-1.84,0.83-3.15c0-1.71-0.54-2.99-1.63-3.82
			S558.18,143.79,555.86,143.79z"/>
		<path class="st1" d="M573.56,139.59v8.17c0,0.47-0.01,0.94-0.04,1.41s-0.06,0.91-0.12,1.31h0.19c0.4-0.68,0.91-1.25,1.52-1.71
			s1.32-0.81,2.1-1.05s1.62-0.36,2.5-0.36c1.55,0,2.84,0.25,3.88,0.74s1.82,1.25,2.34,2.29s0.78,2.37,0.78,4.01v12.55h-2.88v-12.36
			c0-1.61-0.37-2.81-1.1-3.6s-1.85-1.2-3.37-1.2c-1.43,0-2.57,0.27-3.42,0.82s-1.46,1.35-1.83,2.4s-0.55,2.34-0.55,3.87v10.07h-2.92
			v-27.35H573.56z"/>
		<path class="st1" d="M589.68,147.68h3.13l4.25,11.18c0.25,0.66,0.47,1.29,0.69,1.89s0.4,1.18,0.56,1.73s0.29,1.08,0.39,1.6h0.12
			c0.16-0.59,0.4-1.36,0.7-2.31s0.63-1.93,0.98-2.93l4.03-11.16h3.15l-8.38,22.1c-0.45,1.18-0.96,2.21-1.56,3.09
			s-1.31,1.55-2.15,2.03s-1.86,0.71-3.06,0.71c-0.55,0-1.04-0.03-1.46-0.1s-0.79-0.14-1.09-0.22v-2.34
			c0.26,0.06,0.57,0.11,0.94,0.16s0.75,0.07,1.15,0.07c0.73,0,1.36-0.14,1.89-0.41s0.99-0.68,1.38-1.2s0.72-1.15,1-1.88l1.05-2.71
			L589.68,147.68z"/>
		<path class="st1" d="M623.22,161.67c0,1.23-0.31,2.26-0.92,3.1s-1.49,1.47-2.64,1.89s-2.5,0.63-4.09,0.63
			c-1.35,0-2.51-0.11-3.5-0.32s-1.85-0.51-2.58-0.9v-2.69c0.79,0.39,1.72,0.74,2.81,1.05s2.2,0.47,3.34,0.47
			c1.66,0,2.87-0.27,3.62-0.81s1.12-1.27,1.12-2.2c0-0.53-0.15-0.99-0.45-1.4s-0.8-0.8-1.5-1.18s-1.68-0.8-2.92-1.26
			c-1.23-0.47-2.29-0.94-3.19-1.4s-1.59-1.03-2.07-1.7s-0.73-1.54-0.73-2.6c0-1.63,0.66-2.88,1.98-3.75s3.05-1.31,5.19-1.31
			c1.16,0,2.25,0.11,3.26,0.34s1.96,0.54,2.84,0.92l-0.98,2.34c-0.8-0.34-1.65-0.63-2.55-0.86s-1.82-0.35-2.76-0.35
			c-1.35,0-2.38,0.22-3.1,0.67s-1.08,1.05-1.08,1.83c0,0.6,0.17,1.09,0.5,1.48s0.87,0.75,1.61,1.09s1.71,0.74,2.92,1.2
			c1.21,0.45,2.25,0.9,3.13,1.38s1.56,1.05,2.03,1.72S623.22,160.62,623.22,161.67z"/>
		<path class="st1" d="M629.41,140.47c0.48,0,0.89,0.15,1.24,0.46s0.52,0.79,0.52,1.45c0,0.64-0.17,1.12-0.52,1.44
			s-0.76,0.47-1.24,0.47c-0.5,0-0.92-0.16-1.26-0.47s-0.5-0.8-0.5-1.44c0-0.66,0.17-1.14,0.5-1.45S628.9,140.47,629.41,140.47z
			 M630.83,147.68v19.27h-2.92v-19.27H630.83z"/>
		<path class="st1" d="M644.72,167.3c-1.73,0-3.26-0.36-4.59-1.07s-2.36-1.8-3.09-3.27s-1.11-3.31-1.11-5.54
			c0-2.33,0.39-4.24,1.17-5.72s1.85-2.58,3.23-3.29s2.93-1.07,4.68-1.07c0.96,0,1.89,0.1,2.79,0.29s1.63,0.44,2.21,0.73l-0.88,2.44
			c-0.59-0.23-1.26-0.45-2.03-0.63s-1.49-0.28-2.15-0.28c-1.34,0-2.45,0.29-3.33,0.86s-1.55,1.42-1.99,2.53s-0.66,2.48-0.66,4.11
			c0,1.56,0.21,2.89,0.64,3.99s1.07,1.94,1.92,2.52s1.91,0.87,3.19,0.87c1.02,0,1.94-0.11,2.76-0.33s1.56-0.47,2.23-0.76v2.6
			c-0.64,0.33-1.36,0.58-2.15,0.76S645.81,167.3,644.72,167.3z"/>
		<path class="st1" d="M661.45,147.36c2.3,0,4,0.52,5.12,1.55s1.67,2.68,1.67,4.94v13.1h-2.13l-0.56-2.85h-0.14
			c-0.54,0.7-1.1,1.29-1.69,1.77s-1.26,0.83-2.03,1.07s-1.71,0.36-2.82,0.36c-1.17,0-2.21-0.21-3.12-0.62s-1.62-1.03-2.14-1.86
			s-0.78-1.89-0.78-3.16c0-1.92,0.76-3.4,2.29-4.43s3.84-1.59,6.96-1.69l3.32-0.14v-1.18c0-1.66-0.36-2.83-1.07-3.5s-1.72-1-3.02-1
			c-1.01,0-1.97,0.15-2.88,0.44s-1.78,0.64-2.6,1.04l-0.9-2.21c0.87-0.45,1.86-0.83,2.99-1.14S660.21,147.36,661.45,147.36z
			 M665.35,157.45l-2.94,0.12c-2.4,0.09-4.1,0.49-5.08,1.18s-1.48,1.67-1.48,2.94c0,1.1,0.33,1.92,1,2.44s1.55,0.79,2.65,0.79
			c1.71,0,3.11-0.47,4.2-1.42s1.63-2.37,1.63-4.27V157.45z"/>
		<path class="st1" d="M677.18,166.94h-2.94v-27.35h2.94V166.94z"/>
		<path class="st1" d="M709.25,166.94l-3.16-8.16h-10.3l-3.15,8.16h-3.02l10.05-25.8h2.69l9.98,25.8H709.25z M705.18,156.13
			l-3.01-8.1c-0.07-0.21-0.18-0.56-0.34-1.04s-0.32-0.98-0.48-1.49s-0.3-0.93-0.4-1.25c-0.12,0.48-0.24,0.96-0.38,1.43
			s-0.27,0.91-0.4,1.32s-0.24,0.75-0.33,1.03l-3.06,8.1H705.18z"/>
		<path class="st1" d="M727.91,161.67c0,1.23-0.31,2.26-0.92,3.1s-1.49,1.47-2.64,1.89s-2.5,0.63-4.09,0.63
			c-1.35,0-2.51-0.11-3.5-0.32s-1.85-0.51-2.58-0.9v-2.69c0.79,0.39,1.72,0.74,2.81,1.05s2.2,0.47,3.34,0.47
			c1.66,0,2.87-0.27,3.62-0.81s1.12-1.27,1.12-2.2c0-0.53-0.15-0.99-0.45-1.4s-0.8-0.8-1.5-1.18s-1.68-0.8-2.92-1.26
			c-1.23-0.47-2.29-0.94-3.19-1.4s-1.59-1.03-2.07-1.7s-0.73-1.54-0.73-2.6c0-1.63,0.66-2.88,1.98-3.75s3.05-1.31,5.19-1.31
			c1.16,0,2.25,0.11,3.26,0.34s1.96,0.54,2.84,0.92l-0.98,2.34c-0.8-0.34-1.65-0.63-2.55-0.86s-1.82-0.35-2.76-0.35
			c-1.35,0-2.38,0.22-3.1,0.67s-1.08,1.05-1.08,1.83c0,0.6,0.17,1.09,0.5,1.48s0.87,0.75,1.61,1.09s1.71,0.74,2.92,1.2
			c1.21,0.45,2.25,0.9,3.13,1.38s1.56,1.05,2.03,1.72S727.91,160.62,727.91,161.67z"/>
		<path class="st1" d="M745.07,161.67c0,1.23-0.31,2.26-0.92,3.1s-1.49,1.47-2.64,1.89s-2.5,0.63-4.09,0.63
			c-1.35,0-2.51-0.11-3.5-0.32s-1.85-0.51-2.58-0.9v-2.69c0.79,0.39,1.72,0.74,2.81,1.05s2.2,0.47,3.34,0.47
			c1.66,0,2.87-0.27,3.62-0.81s1.12-1.27,1.12-2.2c0-0.53-0.15-0.99-0.45-1.4s-0.8-0.8-1.5-1.18s-1.68-0.8-2.92-1.26
			c-1.23-0.47-2.29-0.94-3.19-1.4s-1.59-1.03-2.07-1.7s-0.73-1.54-0.73-2.6c0-1.63,0.66-2.88,1.98-3.75s3.05-1.31,5.19-1.31
			c1.16,0,2.25,0.11,3.26,0.34s1.96,0.54,2.84,0.92l-0.98,2.34c-0.8-0.34-1.65-0.63-2.55-0.86s-1.82-0.35-2.76-0.35
			c-1.35,0-2.38,0.22-3.1,0.67s-1.08,1.05-1.08,1.83c0,0.6,0.17,1.09,0.5,1.48s0.87,0.75,1.61,1.09s1.71,0.74,2.92,1.2
			c1.21,0.45,2.25,0.9,3.13,1.38s1.56,1.05,2.03,1.72S745.07,160.62,745.07,161.67z"/>
		<path class="st1" d="M757.18,147.33c1.64,0,3.05,0.36,4.22,1.09s2.07,1.74,2.69,3.05s0.93,2.83,0.93,4.58v1.81h-13.31
			c0.04,2.26,0.6,3.98,1.69,5.17s2.62,1.78,4.61,1.78c1.22,0,2.3-0.11,3.23-0.33s1.91-0.55,2.92-0.98v2.57
			c-0.97,0.43-1.94,0.75-2.89,0.95s-2.08,0.3-3.38,0.3c-1.85,0-3.47-0.38-4.84-1.13s-2.45-1.87-3.21-3.33s-1.14-3.26-1.14-5.38
			c0-2.07,0.35-3.87,1.05-5.39s1.68-2.69,2.95-3.51S755.46,147.33,757.18,147.33z M757.15,149.72c-1.56,0-2.8,0.51-3.73,1.53
			s-1.48,2.44-1.65,4.27h10.2c-0.01-1.15-0.19-2.16-0.54-3.03s-0.87-1.55-1.57-2.04S758.25,149.72,757.15,149.72z"/>
		<path class="st1" d="M776.2,164.91c0.48,0,0.97-0.04,1.48-0.12s0.91-0.18,1.23-0.3v2.27c-0.34,0.15-0.81,0.28-1.42,0.39
			s-1.19,0.16-1.77,0.16c-1.02,0-1.95-0.18-2.78-0.54s-1.5-0.96-2-1.82s-0.75-2.04-0.75-3.55v-11.43h-2.74v-1.42l2.76-1.14
			l1.16-4.18h1.76v4.46h5.64v2.29h-5.64v11.34c0,1.21,0.28,2.11,0.83,2.71S775.27,164.91,776.2,164.91z"/>
		<path class="st1" d="M795.27,161.67c0,1.23-0.31,2.26-0.92,3.1s-1.49,1.47-2.64,1.89s-2.5,0.63-4.09,0.63
			c-1.35,0-2.51-0.11-3.5-0.32s-1.85-0.51-2.58-0.9v-2.69c0.79,0.39,1.72,0.74,2.81,1.05s2.2,0.47,3.34,0.47
			c1.66,0,2.87-0.27,3.62-0.81s1.12-1.27,1.12-2.2c0-0.53-0.15-0.99-0.45-1.4s-0.8-0.8-1.5-1.18s-1.68-0.8-2.92-1.26
			c-1.23-0.47-2.29-0.94-3.19-1.4s-1.59-1.03-2.07-1.7s-0.73-1.54-0.73-2.6c0-1.63,0.66-2.88,1.98-3.75s3.05-1.31,5.19-1.31
			c1.16,0,2.25,0.11,3.26,0.34s1.96,0.54,2.84,0.92l-0.98,2.34c-0.8-0.34-1.65-0.63-2.55-0.86s-1.82-0.35-2.76-0.35
			c-1.35,0-2.38,0.22-3.1,0.67s-1.08,1.05-1.08,1.83c0,0.6,0.17,1.09,0.5,1.48s0.87,0.75,1.61,1.09s1.71,0.74,2.92,1.2
			c1.21,0.45,2.25,0.9,3.13,1.38s1.56,1.05,2.03,1.72S795.27,160.62,795.27,161.67z"/>
	</g>
</g>
</svg>
