<?xml version="1.0" encoding="utf-8"?>
<!-- Generator: Adobe Illustrator 25.2.1, SVG Export Plug-In . SVG Version: 6.00 Build 0)  -->
<svg version="1.1" id="Layer_1" xmlns="http://www.w3.org/2000/svg" xmlns:xlink="http://www.w3.org/1999/xlink" x="0px" y="0px"
	 viewBox="0 0 1048 631.45" style="enable-background:new 0 0 1048 631.45;" xml:space="preserve">
<style type="text/css">
	.st0{fill:#283B00;}
	.st1{fill:#D1E9C5;}
	.st2{fill:#FFF7B1;}
	.st3{fill:#FF5902;}
</style>
<path class="st0" d="M520.67,425.19c-8.57-5-15.65-11.67-15.65-11.67c-10.04-8.99-16.85-19.1-20.55-30.15
	c-5.37-16.03-2.93-30.32-1.38-38.18c26.36-134.08,131.2-185.88,131.2-185.88c16.57-8.97,52.03-25.19,97.8-23.29
	c11.31,0.47,40.38,1.98,71.95,18.08c5.93,3.02,11.3,7.62,23.43,14.57c25.38,14.53,46.93,33.85,67.69,54.05
	c13.31,12.96,22.65,28.58,21.3,47.96c-0.65,9.3-3.17,18.75-6.45,27.54c-21.59,57.85-60.75,99.7-118.19,122.11
	c-17.69,6.9-32.27,10.81-45.63,13.03c-23.45,3.89-34.28,4.33-106.82,5.14C587.87,438.85,545.03,439.41,520.67,425.19z"/>
<path class="st0" d="M304.67,47.62c11.57,0.91,23.15,1.76,34.72,2.75c5.71,0.49,6.64,2.27,23.39,8.76
	c28.26,10.96,25.99,8.95,35.12,13.33c6.43,3.08,15.19,9.48,33.7,20.47c10.54,6.26,16.16,16.29,19.01,28.09
	c2.63,10.86-0.86,20.49-7.61,28.92c-7.04,8.8-16.23,14.21-26.18,18.41c-21.41,9.04-43.74,14.38-66.3,18.58
	c-38.51,7.17-77.19,13.4-116.27,14.82c-19.62,0.72-39.37-0.24-58.94-1.89c-14.1-1.19-27.21-6.87-39.04-15.37
	c-12.79-9.2-19.5-22.24-20.63-38.18c-1.81-25.4,6.23-46.75,25.75-62.75c19.43-15.93,41.84-24.56,65.52-29.78
	C239.22,46.65,271.9,46.16,304.67,47.62z"/>
<path class="st0" d="M301.41,276.4c35.71-1.29,69.75,6.86,103.58,16.19c4.56,1.26,8.85,3.39,13.33,4.93
	c16.63,5.7,26.27,17.97,33.51,32.39c5.93,11.8-0.77,26.54-10.86,32.12c-14.7,8.14-31,11.67-47.07,15.81
	c-8.85,2.28-18.08,3.21-27.04,5.17c-15.97,3.5-31.91,1.21-47.89,0.42c-14.28-0.71-28.59-1.45-42.88-1.29
	c-15.93,0.18-31.33-1.26-45.72-8.31c-22.76-11.14-31.03-31.45-21.21-54.03c10.59-24.34,28.54-40.09,57.52-41.69
	C278.25,277.46,289.84,276.96,301.41,276.4z"/>
<path class="st0" d="M320.85,467.41c18.05-12.6,39.24-23.28,62.55-27.89c30.17-5.97,59.18-2.48,87.12,4.44
	c17.94,4.45,32.19,14.86,39.76,32.43c3.4,7.88,9.17,14.55,13.2,22.16c2.89,5.46,4.88,11.48,6.85,17.43
	c1.49,4.48,2.14,9.31,3.49,13.86c7.12,24.05-1.54,44.01-25.46,56.88c-27.26,14.66-55.49,19.86-84.63,16.49
	c-15.86-1.84-31.86-3.67-47.99-3.58c-31.14,0.19-54.7-13.07-75.04-32.4c-12.2-11.6-15.72-26.83-11.69-44.35
	C293.71,502.47,301.59,483.47,320.85,467.41z"/>
<path class="st0" d="M702.09,586.12c-34.84-2.66-66.09-10.74-94.58-24c-24.48-11.39-29.18-21.22-18.06-37.61
	c8.28-12.2,20.58-22.58,37.65-30.43c28.05-12.9,58.34-23.67,91.8-31.05c34.92-7.7,72.8-8.98,109.91-9.98
	c33.04-0.89,60.23,10.73,78.34,29.57c5.32,5.54,11.04,11.01,17.42,16.13c39.15,31.44,34.11,51.24-17.38,73.48
	c-19.52,8.43-43.29,12.74-68.3,13.09C793.35,585.98,747.69,585.9,702.09,586.12z"/>
<path class="st0" d="M469.05,122.1c-0.86-2-2.1-4.31-2.86-6.77c-1.99-6.49,1.79-10.92,7.96-8.49c14.49,5.7,28.66,12.24,39.63,23.86
	c5,5.3,5.62,8.95,2.9,12.89c-2.81,4.06-9.71,6.16-14.82,4.5c-0.61-0.2-1.29-0.35-1.8-0.72c-9.08-6.74-18.19-13.46-27.17-20.34
	C471.41,125.88,470.5,123.99,469.05,122.1z"/>
<path class="st0" d="M536.83,167.63c3.38,5.25,2.58,11.66-1.83,14.7c-6.43,4.44-13.79,3.67-17.02-1.77
	c-3.43-5.78-2.22-13.73,2.51-16.49C526.09,160.79,533.47,162.4,536.83,167.63z"/>
<g>
	<g>
		<path class="st1" d="M661.15,513.13v9.63h-1.2l-0.21-1.35h-0.08c-0.2,0.33-0.46,0.62-0.77,0.84s-0.67,0.4-1.07,0.51
			c-0.4,0.12-0.82,0.17-1.26,0.17c-0.76,0-1.4-0.12-1.92-0.37s-0.9-0.63-1.16-1.14c-0.26-0.52-0.39-1.18-0.39-1.99v-6.31h1.48v6.21
			c0,0.8,0.18,1.4,0.54,1.8c0.36,0.4,0.92,0.59,1.66,0.59c0.71,0,1.28-0.13,1.71-0.4s0.73-0.67,0.92-1.19
			c0.19-0.52,0.28-1.17,0.28-1.93v-5.07H661.15z"/>
		<path class="st1" d="M670.46,520.13c0,0.62-0.15,1.13-0.46,1.55c-0.31,0.42-0.75,0.73-1.32,0.95c-0.57,0.21-1.25,0.32-2.04,0.32
			c-0.67,0-1.26-0.05-1.75-0.16s-0.92-0.25-1.29-0.45v-1.34c0.39,0.19,0.86,0.37,1.41,0.53s1.1,0.24,1.67,0.24
			c0.83,0,1.44-0.13,1.81-0.4s0.56-0.64,0.56-1.1c0-0.26-0.08-0.5-0.22-0.7c-0.15-0.2-0.4-0.4-0.75-0.59
			c-0.35-0.19-0.84-0.4-1.46-0.63c-0.62-0.23-1.15-0.47-1.6-0.7c-0.45-0.23-0.79-0.51-1.04-0.85s-0.36-0.77-0.36-1.3
			c0-0.81,0.33-1.44,0.99-1.88c0.66-0.44,1.52-0.65,2.6-0.65c0.58,0,1.12,0.06,1.63,0.17c0.51,0.11,0.98,0.27,1.42,0.46l-0.49,1.17
			c-0.4-0.17-0.82-0.31-1.27-0.43s-0.91-0.18-1.38-0.18c-0.67,0-1.19,0.11-1.55,0.33c-0.36,0.22-0.54,0.53-0.54,0.91
			c0,0.3,0.08,0.54,0.25,0.74c0.17,0.19,0.44,0.38,0.8,0.54s0.86,0.37,1.46,0.6c0.6,0.22,1.12,0.45,1.56,0.69
			c0.44,0.24,0.78,0.53,1.02,0.86C670.34,519.17,670.46,519.6,670.46,520.13z"/>
		<path class="st1" d="M676.52,512.95c0.82,0,1.52,0.18,2.11,0.54s1.03,0.87,1.34,1.53c0.31,0.65,0.47,1.42,0.47,2.29v0.91h-6.65
			c0.02,1.13,0.3,1.99,0.84,2.58s1.31,0.89,2.3,0.89c0.61,0,1.15-0.06,1.62-0.17s0.96-0.28,1.46-0.49v1.28
			c-0.49,0.22-0.97,0.38-1.45,0.47c-0.48,0.1-1.04,0.15-1.69,0.15c-0.93,0-1.73-0.19-2.42-0.57c-0.69-0.38-1.22-0.93-1.6-1.67
			s-0.57-1.63-0.57-2.69c0-1.04,0.17-1.94,0.52-2.69c0.35-0.76,0.84-1.34,1.48-1.75C674.91,513.16,675.66,512.95,676.52,512.95z
			 M676.5,514.15c-0.78,0-1.4,0.25-1.86,0.76s-0.74,1.22-0.83,2.14h5.1c-0.01-0.57-0.1-1.08-0.27-1.52
			c-0.17-0.44-0.43-0.78-0.79-1.02C677.5,514.27,677.05,514.15,676.5,514.15z"/>
		<path class="st1" d="M695.9,517.93c0,0.79-0.1,1.5-0.31,2.12s-0.5,1.15-0.89,1.57s-0.85,0.75-1.4,0.98
			c-0.55,0.22-1.17,0.34-1.86,0.34c-0.64,0-1.24-0.11-1.77-0.34c-0.54-0.23-1-0.55-1.39-0.98c-0.39-0.43-0.69-0.95-0.91-1.57
			s-0.32-1.33-0.32-2.12c0-1.05,0.18-1.95,0.54-2.69c0.36-0.74,0.87-1.31,1.53-1.7c0.66-0.39,1.46-0.58,2.38-0.58
			c0.88,0,1.65,0.2,2.31,0.59c0.66,0.39,1.17,0.96,1.54,1.7C695.71,515.99,695.9,516.88,695.9,517.93z M688.57,517.93
			c0,0.77,0.1,1.44,0.31,2.01s0.52,1.01,0.95,1.32s0.98,0.47,1.65,0.47c0.67,0,1.22-0.16,1.65-0.47c0.43-0.31,0.75-0.75,0.95-1.32
			s0.31-1.24,0.31-2.01c0-0.77-0.1-1.43-0.31-1.99c-0.21-0.56-0.52-0.99-0.95-1.3s-0.98-0.46-1.66-0.46c-1,0-1.74,0.33-2.2,0.99
			C688.8,515.84,688.57,516.76,688.57,517.93z"/>
		<path class="st1" d="M702.71,514.27h-2.4v8.49h-1.46v-8.49h-1.71v-0.7l1.71-0.48v-0.64c0-0.81,0.12-1.47,0.36-1.97
			c0.24-0.51,0.59-0.88,1.05-1.12s1.01-0.36,1.67-0.36c0.37,0,0.71,0.03,1.02,0.1c0.31,0.06,0.58,0.14,0.81,0.22l-0.38,1.15
			c-0.2-0.06-0.42-0.12-0.67-0.18c-0.25-0.06-0.5-0.08-0.76-0.08c-0.56,0-0.97,0.18-1.23,0.54c-0.27,0.36-0.4,0.92-0.4,1.69v0.7h2.4
			V514.27z"/>
		<path class="st1" d="M710.61,509.09v3.42c0,0.39-0.01,0.77-0.03,1.14c-0.02,0.37-0.04,0.66-0.05,0.86h0.08
			c0.26-0.43,0.64-0.8,1.14-1.1s1.13-0.45,1.91-0.45c1.21,0,2.17,0.42,2.89,1.25c0.72,0.83,1.08,2.08,1.08,3.72
			c0,1.08-0.16,2-0.49,2.74s-0.79,1.31-1.39,1.69s-1.3,0.57-2.12,0.57c-0.76,0-1.39-0.14-1.88-0.43c-0.49-0.29-0.87-0.63-1.13-1.04
			h-0.11l-0.3,1.29h-1.05v-13.68H710.61z M713.42,514.18c-0.7,0-1.25,0.14-1.66,0.41c-0.41,0.27-0.71,0.68-0.88,1.23
			c-0.18,0.55-0.27,1.24-0.27,2.08v0.08c0,1.21,0.2,2.14,0.61,2.78c0.4,0.64,1.14,0.96,2.21,0.96c0.9,0,1.57-0.33,2.02-0.98
			c0.45-0.66,0.67-1.59,0.67-2.81c0-1.24-0.22-2.18-0.66-2.8C715.01,514.5,714.33,514.18,713.42,514.18z"/>
		<path class="st1" d="M721.63,522.76h-1.47v-13.68h1.47V522.76z"/>
		<path class="st1" d="M728.31,512.97c1.15,0,2,0.26,2.56,0.77s0.83,1.34,0.83,2.47v6.55h-1.06l-0.28-1.42h-0.07
			c-0.27,0.35-0.55,0.65-0.84,0.88c-0.29,0.24-0.63,0.42-1.02,0.54c-0.38,0.12-0.85,0.18-1.41,0.18c-0.59,0-1.11-0.1-1.56-0.31
			s-0.81-0.52-1.07-0.93s-0.39-0.94-0.39-1.58c0-0.96,0.38-1.7,1.14-2.21s1.92-0.8,3.48-0.84l1.66-0.07v-0.59
			c0-0.83-0.18-1.42-0.54-1.75s-0.86-0.5-1.51-0.5c-0.5,0-0.98,0.07-1.44,0.22s-0.89,0.32-1.3,0.52l-0.45-1.11
			c0.43-0.22,0.93-0.41,1.49-0.57S727.69,512.97,728.31,512.97z M730.26,518.02l-1.47,0.06c-1.2,0.05-2.05,0.24-2.54,0.59
			s-0.74,0.83-0.74,1.47c0,0.55,0.17,0.96,0.5,1.22s0.78,0.4,1.33,0.4c0.86,0,1.56-0.24,2.1-0.71s0.82-1.19,0.82-2.14V518.02z"/>
		<path class="st1" d="M738.57,522.94c-0.87,0-1.63-0.18-2.29-0.54s-1.18-0.9-1.55-1.63s-0.55-1.66-0.55-2.77
			c0-1.17,0.19-2.12,0.58-2.86c0.39-0.74,0.93-1.29,1.61-1.65s1.46-0.54,2.34-0.54c0.48,0,0.95,0.05,1.39,0.14
			c0.45,0.1,0.82,0.22,1.1,0.37l-0.44,1.22c-0.29-0.12-0.63-0.22-1.02-0.32s-0.74-0.14-1.08-0.14c-0.67,0-1.22,0.14-1.67,0.43
			s-0.77,0.71-0.99,1.27c-0.22,0.56-0.33,1.24-0.33,2.06c0,0.78,0.11,1.44,0.32,2s0.53,0.97,0.96,1.26
			c0.42,0.29,0.96,0.44,1.59,0.44c0.51,0,0.97-0.05,1.38-0.16c0.41-0.11,0.78-0.24,1.12-0.38v1.3c-0.32,0.16-0.68,0.29-1.08,0.38
			C739.58,522.89,739.11,522.94,738.57,522.94z"/>
		<path class="st1" d="M744.78,509.09v7.1c0,0.23-0.01,0.52-0.03,0.86c-0.02,0.34-0.03,0.63-0.04,0.89h0.06
			c0.12-0.15,0.3-0.38,0.54-0.68c0.24-0.3,0.44-0.54,0.6-0.72l3.2-3.41h1.71l-3.88,4.11l4.16,5.52h-1.76l-3.4-4.56l-1.17,1.07v3.49
			h-1.45v-13.68H744.78z"/>
		<path class="st1" d="M761.99,512.95c1.2,0,2.16,0.41,2.87,1.24s1.07,2.07,1.07,3.73c0,1.1-0.16,2.02-0.49,2.76
			s-0.79,1.31-1.38,1.69c-0.6,0.38-1.3,0.57-2.11,0.57c-0.51,0-0.96-0.07-1.34-0.2s-0.72-0.32-0.99-0.54s-0.5-0.48-0.69-0.75h-0.11
			c0.02,0.23,0.04,0.5,0.07,0.83c0.03,0.32,0.04,0.6,0.04,0.84v3.96h-1.47v-13.94h1.2l0.19,1.42h0.07c0.19-0.29,0.42-0.56,0.69-0.8
			c0.27-0.24,0.6-0.44,0.99-0.58C761,513.03,761.46,512.95,761.99,512.95z M761.74,514.18c-0.67,0-1.21,0.13-1.61,0.39
			c-0.41,0.26-0.71,0.64-0.89,1.16c-0.19,0.51-0.29,1.16-0.3,1.93v0.28c0,0.81,0.09,1.5,0.27,2.07s0.47,0.99,0.89,1.28
			c0.41,0.29,0.97,0.44,1.67,0.44c0.6,0,1.1-0.16,1.49-0.48s0.7-0.77,0.89-1.35c0.2-0.58,0.29-1.24,0.29-1.99
			c0-1.14-0.22-2.04-0.66-2.71C763.33,514.52,762.65,514.18,761.74,514.18z"/>
		<path class="st1" d="M769.23,509.53c0.24,0,0.45,0.08,0.62,0.23c0.17,0.16,0.26,0.4,0.26,0.73c0,0.32-0.09,0.56-0.26,0.72
			s-0.38,0.24-0.62,0.24c-0.25,0-0.46-0.08-0.63-0.24c-0.17-0.16-0.25-0.4-0.25-0.72c0-0.33,0.08-0.57,0.25-0.73
			C768.76,509.6,768.97,509.53,769.23,509.53z M769.94,513.13v9.63h-1.46v-9.63H769.94z"/>
		<path class="st1" d="M775.32,517.83l-3.33-4.7h1.67l2.54,3.71l2.53-3.71h1.65l-3.33,4.7l3.52,4.93h-1.67l-2.7-3.93l-2.72,3.93
			h-1.65L775.32,517.83z"/>
		<path class="st1" d="M786.15,512.95c0.82,0,1.52,0.18,2.11,0.54s1.03,0.87,1.34,1.53c0.31,0.65,0.47,1.42,0.47,2.29v0.91h-6.65
			c0.02,1.13,0.3,1.99,0.84,2.58s1.31,0.89,2.3,0.89c0.61,0,1.15-0.06,1.62-0.17s0.96-0.28,1.46-0.49v1.28
			c-0.49,0.22-0.97,0.38-1.45,0.47c-0.48,0.1-1.04,0.15-1.69,0.15c-0.93,0-1.73-0.19-2.42-0.57c-0.69-0.38-1.22-0.93-1.6-1.67
			s-0.57-1.63-0.57-2.69c0-1.04,0.17-1.94,0.52-2.69c0.35-0.76,0.84-1.34,1.48-1.75C784.54,513.16,785.29,512.95,786.15,512.95z
			 M786.14,514.15c-0.78,0-1.4,0.25-1.86,0.76s-0.74,1.22-0.83,2.14h5.1c-0.01-0.57-0.1-1.08-0.27-1.52
			c-0.17-0.44-0.43-0.78-0.79-1.02C787.14,514.27,786.69,514.15,786.14,514.15z"/>
		<path class="st1" d="M794.02,522.76h-1.47v-13.68h1.47V522.76z"/>
		<path class="st1" d="M803.33,520.13c0,0.62-0.15,1.13-0.46,1.55c-0.31,0.42-0.75,0.73-1.32,0.95c-0.57,0.21-1.25,0.32-2.04,0.32
			c-0.67,0-1.26-0.05-1.75-0.16s-0.92-0.25-1.29-0.45v-1.34c0.39,0.19,0.86,0.37,1.41,0.53s1.1,0.24,1.67,0.24
			c0.83,0,1.44-0.13,1.81-0.4s0.56-0.64,0.56-1.1c0-0.26-0.08-0.5-0.22-0.7c-0.15-0.2-0.4-0.4-0.75-0.59
			c-0.35-0.19-0.84-0.4-1.46-0.63c-0.62-0.23-1.15-0.47-1.6-0.7c-0.45-0.23-0.79-0.51-1.04-0.85s-0.36-0.77-0.36-1.3
			c0-0.81,0.33-1.44,0.99-1.88c0.66-0.44,1.52-0.65,2.6-0.65c0.58,0,1.12,0.06,1.63,0.17c0.51,0.11,0.98,0.27,1.42,0.46l-0.49,1.17
			c-0.4-0.17-0.82-0.31-1.27-0.43s-0.91-0.18-1.38-0.18c-0.67,0-1.19,0.11-1.55,0.33c-0.36,0.22-0.54,0.53-0.54,0.91
			c0,0.3,0.08,0.54,0.25,0.74c0.17,0.19,0.44,0.38,0.8,0.54s0.86,0.37,1.46,0.6c0.6,0.22,1.12,0.45,1.56,0.69
			c0.44,0.24,0.78,0.53,1.02,0.86C803.21,519.17,803.33,519.6,803.33,520.13z"/>
		<path class="st1" d="M807.34,520.67l0.11,0.2c-0.11,0.43-0.24,0.88-0.4,1.37s-0.34,0.97-0.53,1.46c-0.19,0.49-0.38,0.95-0.58,1.38
			h-1.09c0.12-0.47,0.24-0.96,0.36-1.48c0.12-0.52,0.22-1.03,0.32-1.54c0.1-0.51,0.17-0.97,0.23-1.39H807.34z"/>
		<path class="st1" d="M817.7,527.09c-1.27,0-2.24-0.24-2.93-0.71c-0.69-0.47-1.03-1.13-1.03-1.98c0-0.6,0.19-1.12,0.58-1.55
			s0.92-0.71,1.6-0.85c-0.25-0.12-0.47-0.29-0.65-0.53s-0.27-0.5-0.27-0.81c0-0.35,0.1-0.66,0.29-0.93c0.2-0.27,0.5-0.52,0.9-0.77
			c-0.5-0.21-0.91-0.55-1.23-1.04c-0.31-0.49-0.47-1.06-0.47-1.71c0-0.69,0.14-1.28,0.43-1.77c0.29-0.49,0.7-0.86,1.25-1.12
			s1.2-0.39,1.98-0.39c0.17,0,0.34,0.01,0.51,0.02c0.17,0.02,0.34,0.04,0.5,0.06c0.16,0.03,0.3,0.06,0.41,0.09h3.3v0.94l-1.78,0.22
			c0.18,0.23,0.32,0.5,0.44,0.83s0.18,0.68,0.18,1.07c0,0.96-0.33,1.72-0.98,2.29c-0.65,0.57-1.54,0.85-2.68,0.85
			c-0.27,0-0.54-0.02-0.83-0.07c-0.29,0.16-0.5,0.33-0.66,0.53c-0.15,0.19-0.22,0.42-0.22,0.67c0,0.19,0.06,0.34,0.17,0.45
			c0.12,0.11,0.28,0.19,0.5,0.24c0.22,0.05,0.48,0.07,0.78,0.07h1.7c1.05,0,1.85,0.22,2.41,0.66c0.56,0.44,0.84,1.08,0.84,1.92
			c0,1.07-0.43,1.88-1.3,2.45S819.34,527.09,817.7,527.09z M817.74,525.94c0.8,0,1.46-0.08,1.98-0.24c0.52-0.16,0.92-0.39,1.18-0.69
			c0.26-0.3,0.39-0.66,0.39-1.08c0-0.39-0.09-0.68-0.26-0.87c-0.18-0.2-0.43-0.33-0.77-0.4c-0.34-0.07-0.76-0.1-1.25-0.1h-1.67
			c-0.43,0-0.81,0.07-1.13,0.2s-0.57,0.33-0.74,0.6s-0.26,0.59-0.26,0.98c0,0.52,0.22,0.92,0.66,1.19
			C816.3,525.81,816.93,525.94,817.74,525.94z M818.12,518.25c0.7,0,1.22-0.18,1.57-0.53s0.53-0.86,0.53-1.54
			c0-0.72-0.18-1.26-0.54-1.62c-0.36-0.36-0.88-0.54-1.58-0.54c-0.67,0-1.18,0.19-1.54,0.56c-0.36,0.37-0.54,0.92-0.54,1.63
			c0,0.66,0.18,1.16,0.54,1.51S817.44,518.25,818.12,518.25z"/>
		<path class="st1" d="M829.16,512.95c0.19,0,0.4,0.01,0.61,0.03c0.21,0.02,0.4,0.05,0.56,0.08l-0.18,1.35
			c-0.16-0.04-0.33-0.07-0.53-0.1s-0.38-0.04-0.54-0.04c-0.39,0-0.75,0.08-1.09,0.23c-0.34,0.16-0.64,0.38-0.9,0.67
			c-0.26,0.29-0.46,0.64-0.61,1.05c-0.15,0.41-0.22,0.86-0.22,1.36v5.17h-1.47v-9.63h1.21l0.16,1.78h0.06
			c0.2-0.36,0.44-0.68,0.72-0.98c0.28-0.29,0.61-0.53,0.98-0.71C828.29,513.04,828.7,512.95,829.16,512.95z"/>
		<path class="st1" d="M835.85,512.95c0.82,0,1.52,0.18,2.11,0.54s1.03,0.87,1.34,1.53c0.31,0.65,0.47,1.42,0.47,2.29v0.91h-6.65
			c0.02,1.13,0.3,1.99,0.84,2.58s1.31,0.89,2.3,0.89c0.61,0,1.15-0.06,1.62-0.17s0.96-0.28,1.46-0.49v1.28
			c-0.49,0.22-0.97,0.38-1.45,0.47c-0.48,0.1-1.04,0.15-1.69,0.15c-0.93,0-1.73-0.19-2.42-0.57c-0.69-0.38-1.22-0.93-1.6-1.67
			s-0.57-1.63-0.57-2.69c0-1.04,0.17-1.94,0.52-2.69c0.35-0.76,0.84-1.34,1.48-1.75C834.24,513.16,834.98,512.95,835.85,512.95z
			 M835.83,514.15c-0.78,0-1.4,0.25-1.86,0.76s-0.74,1.22-0.83,2.14h5.1c-0.01-0.57-0.1-1.08-0.27-1.52
			c-0.17-0.44-0.43-0.78-0.79-1.02C836.83,514.27,836.38,514.15,835.83,514.15z"/>
		<path class="st1" d="M845.95,512.95c0.82,0,1.52,0.18,2.11,0.54s1.03,0.87,1.34,1.53c0.31,0.65,0.47,1.42,0.47,2.29v0.91h-6.65
			c0.02,1.13,0.3,1.99,0.84,2.58s1.31,0.89,2.3,0.89c0.61,0,1.15-0.06,1.62-0.17s0.96-0.28,1.46-0.49v1.28
			c-0.49,0.22-0.97,0.38-1.45,0.47c-0.48,0.1-1.04,0.15-1.69,0.15c-0.93,0-1.73-0.19-2.42-0.57c-0.69-0.38-1.22-0.93-1.6-1.67
			s-0.57-1.63-0.57-2.69c0-1.04,0.17-1.94,0.52-2.69c0.35-0.76,0.84-1.34,1.48-1.75C844.34,513.16,845.09,512.95,845.95,512.95z
			 M845.94,514.15c-0.78,0-1.4,0.25-1.86,0.76s-0.74,1.22-0.83,2.14h5.1c-0.01-0.57-0.1-1.08-0.27-1.52
			c-0.17-0.44-0.43-0.78-0.79-1.02C846.94,514.27,846.49,514.15,845.94,514.15z"/>
		<path class="st1" d="M856.91,512.95c1.14,0,2.01,0.28,2.59,0.84c0.59,0.56,0.88,1.46,0.88,2.69v6.28h-1.44v-6.18
			c0-0.8-0.18-1.4-0.55-1.8s-0.93-0.6-1.68-0.6c-1.07,0-1.82,0.3-2.25,0.91s-0.65,1.48-0.65,2.63v5.04h-1.46v-9.63h1.18l0.22,1.39
			h0.08c0.21-0.34,0.47-0.62,0.78-0.86c0.32-0.23,0.67-0.41,1.06-0.53C856.07,513.01,856.48,512.95,856.91,512.95z"/>
		<path class="st1" d="M871.67,512.97c1.15,0,2,0.26,2.56,0.77s0.83,1.34,0.83,2.47v6.55H874l-0.28-1.42h-0.07
			c-0.27,0.35-0.55,0.65-0.84,0.88c-0.29,0.24-0.63,0.42-1.02,0.54c-0.38,0.12-0.85,0.18-1.41,0.18c-0.59,0-1.11-0.1-1.56-0.31
			s-0.81-0.52-1.07-0.93s-0.39-0.94-0.39-1.58c0-0.96,0.38-1.7,1.14-2.21s1.92-0.8,3.48-0.84l1.66-0.07v-0.59
			c0-0.83-0.18-1.42-0.54-1.75s-0.86-0.5-1.51-0.5c-0.5,0-0.98,0.07-1.44,0.22s-0.89,0.32-1.3,0.52l-0.45-1.11
			c0.43-0.22,0.93-0.41,1.49-0.57S871.05,512.97,871.67,512.97z M873.62,518.02l-1.47,0.06c-1.2,0.05-2.05,0.24-2.54,0.59
			s-0.74,0.83-0.74,1.47c0,0.55,0.17,0.96,0.5,1.22s0.78,0.4,1.33,0.4c0.86,0,1.56-0.24,2.1-0.71s0.82-1.19,0.82-2.14V518.02z"/>
		<path class="st1" d="M882.63,512.95c1.14,0,2.01,0.28,2.59,0.84c0.59,0.56,0.88,1.46,0.88,2.69v6.28h-1.44v-6.18
			c0-0.8-0.18-1.4-0.55-1.8s-0.93-0.6-1.68-0.6c-1.07,0-1.82,0.3-2.25,0.91s-0.65,1.48-0.65,2.63v5.04h-1.46v-9.63h1.18l0.22,1.39
			h0.08c0.21-0.34,0.47-0.62,0.78-0.86c0.32-0.23,0.67-0.41,1.06-0.53C881.78,513.01,882.2,512.95,882.63,512.95z"/>
		<path class="st1" d="M892.54,522.94c-1.22,0-2.18-0.42-2.9-1.25c-0.71-0.83-1.07-2.07-1.07-3.71c0-1.66,0.36-2.91,1.09-3.76
			c0.73-0.85,1.69-1.27,2.9-1.27c0.51,0,0.96,0.07,1.34,0.2s0.71,0.32,0.98,0.54c0.28,0.23,0.51,0.48,0.69,0.77h0.11
			c-0.02-0.18-0.05-0.43-0.07-0.75s-0.04-0.57-0.04-0.77v-3.86h1.46v13.68h-1.18l-0.22-1.37h-0.06c-0.18,0.29-0.41,0.55-0.69,0.78
			s-0.61,0.42-0.99,0.56C893.51,522.87,893.06,522.94,892.54,522.94z M892.76,521.73c1.03,0,1.76-0.29,2.19-0.88
			s0.64-1.46,0.64-2.61v-0.26c0-1.22-0.2-2.17-0.61-2.82c-0.41-0.66-1.15-0.98-2.22-0.98c-0.9,0-1.57,0.34-2.01,1.03
			c-0.45,0.69-0.67,1.63-0.67,2.82c0,1.18,0.22,2.1,0.66,2.74C891.19,521.4,891.86,521.73,892.76,521.73z"/>
		<path class="st1" d="M657.57,534.95c0.19,0,0.4,0.01,0.61,0.03c0.21,0.02,0.4,0.05,0.56,0.08l-0.18,1.35
			c-0.16-0.04-0.33-0.07-0.53-0.1s-0.38-0.04-0.54-0.04c-0.39,0-0.75,0.08-1.09,0.23c-0.34,0.16-0.64,0.38-0.9,0.67
			c-0.26,0.29-0.46,0.64-0.61,1.05c-0.15,0.41-0.22,0.86-0.22,1.36v5.17h-1.47v-9.63h1.21l0.16,1.78h0.06
			c0.2-0.36,0.44-0.68,0.72-0.98c0.28-0.29,0.61-0.53,0.98-0.71C656.7,535.04,657.11,534.95,657.57,534.95z"/>
		<path class="st1" d="M664.26,534.95c0.82,0,1.52,0.18,2.11,0.54s1.03,0.87,1.34,1.53c0.31,0.65,0.47,1.42,0.47,2.29v0.91h-6.65
			c0.02,1.13,0.3,1.99,0.84,2.58s1.31,0.89,2.3,0.89c0.61,0,1.15-0.06,1.62-0.17s0.96-0.28,1.46-0.49v1.28
			c-0.49,0.22-0.97,0.38-1.45,0.47c-0.48,0.1-1.04,0.15-1.69,0.15c-0.93,0-1.73-0.19-2.42-0.57c-0.69-0.38-1.22-0.93-1.6-1.67
			s-0.57-1.63-0.57-2.69c0-1.04,0.17-1.94,0.52-2.69c0.35-0.76,0.84-1.34,1.48-1.75C662.65,535.16,663.4,534.95,664.26,534.95z
			 M664.24,536.15c-0.78,0-1.4,0.25-1.86,0.76s-0.74,1.22-0.83,2.14h5.1c-0.01-0.57-0.1-1.08-0.27-1.52
			c-0.17-0.44-0.43-0.78-0.79-1.02C665.24,536.27,664.79,536.15,664.24,536.15z"/>
		<path class="st1" d="M674.08,544.94c-1.22,0-2.18-0.42-2.9-1.25c-0.71-0.83-1.07-2.07-1.07-3.71c0-1.66,0.36-2.91,1.09-3.76
			c0.73-0.85,1.69-1.27,2.9-1.27c0.51,0,0.96,0.07,1.34,0.2s0.71,0.32,0.98,0.54c0.28,0.23,0.51,0.48,0.69,0.77h0.11
			c-0.02-0.18-0.05-0.43-0.07-0.75s-0.04-0.57-0.04-0.77v-3.86h1.46v13.68h-1.18l-0.22-1.37h-0.06c-0.18,0.29-0.41,0.55-0.69,0.78
			s-0.61,0.42-0.99,0.56C675.06,544.87,674.6,544.94,674.08,544.94z M674.31,543.73c1.03,0,1.76-0.29,2.19-0.88s0.64-1.46,0.64-2.61
			v-0.26c0-1.22-0.2-2.17-0.61-2.82c-0.41-0.66-1.15-0.98-2.22-0.98c-0.9,0-1.57,0.34-2.01,1.03c-0.45,0.69-0.67,1.63-0.67,2.82
			c0,1.18,0.22,2.1,0.66,2.74C672.74,543.4,673.41,543.73,674.31,543.73z"/>
		<path class="st1" d="M690.87,534.95c1.2,0,2.16,0.41,2.87,1.24s1.07,2.07,1.07,3.73c0,1.1-0.16,2.02-0.49,2.76
			s-0.79,1.31-1.38,1.69c-0.6,0.38-1.3,0.57-2.11,0.57c-0.51,0-0.96-0.07-1.34-0.2s-0.72-0.32-0.99-0.54s-0.5-0.48-0.69-0.75h-0.11
			c0.02,0.23,0.04,0.5,0.07,0.83c0.03,0.32,0.04,0.6,0.04,0.84v3.96h-1.47v-13.94h1.2l0.19,1.42h0.07c0.19-0.29,0.42-0.56,0.69-0.8
			c0.27-0.24,0.6-0.44,0.99-0.58C689.88,535.03,690.34,534.95,690.87,534.95z M690.62,536.18c-0.67,0-1.21,0.13-1.61,0.39
			c-0.41,0.26-0.71,0.64-0.89,1.16c-0.19,0.51-0.29,1.16-0.3,1.93v0.28c0,0.81,0.09,1.5,0.27,2.07s0.47,0.99,0.89,1.28
			c0.41,0.29,0.97,0.44,1.67,0.44c0.6,0,1.1-0.16,1.49-0.48s0.7-0.77,0.89-1.35c0.2-0.58,0.29-1.24,0.29-1.99
			c0-1.14-0.22-2.04-0.66-2.71C692.21,536.52,691.53,536.18,690.62,536.18z"/>
		<path class="st1" d="M698.1,531.53c0.24,0,0.45,0.08,0.62,0.23c0.17,0.16,0.26,0.4,0.26,0.73c0,0.32-0.09,0.56-0.26,0.72
			s-0.38,0.24-0.62,0.24c-0.25,0-0.46-0.08-0.63-0.24c-0.17-0.16-0.25-0.4-0.25-0.72c0-0.33,0.08-0.57,0.25-0.73
			C697.64,531.6,697.85,531.53,698.1,531.53z M698.82,535.13v9.63h-1.46v-9.63H698.82z"/>
		<path class="st1" d="M704.19,539.83l-3.33-4.7h1.67l2.54,3.71l2.53-3.71h1.65l-3.33,4.7l3.52,4.93h-1.67l-2.7-3.93l-2.72,3.93
			h-1.65L704.19,539.83z"/>
		<path class="st1" d="M715.03,534.95c0.82,0,1.52,0.18,2.11,0.54s1.03,0.87,1.34,1.53c0.31,0.65,0.47,1.42,0.47,2.29v0.91h-6.65
			c0.02,1.13,0.3,1.99,0.84,2.58s1.31,0.89,2.3,0.89c0.61,0,1.15-0.06,1.62-0.17s0.96-0.28,1.46-0.49v1.28
			c-0.49,0.22-0.97,0.38-1.45,0.47c-0.48,0.1-1.04,0.15-1.69,0.15c-0.93,0-1.73-0.19-2.42-0.57c-0.69-0.38-1.22-0.93-1.6-1.67
			s-0.57-1.63-0.57-2.69c0-1.04,0.17-1.94,0.52-2.69c0.35-0.76,0.84-1.34,1.48-1.75C713.42,535.16,714.17,534.95,715.03,534.95z
			 M715.01,536.15c-0.78,0-1.4,0.25-1.86,0.76s-0.74,1.22-0.83,2.14h5.1c-0.01-0.57-0.1-1.08-0.27-1.52
			c-0.17-0.44-0.43-0.78-0.79-1.02C716.02,536.27,715.56,536.15,715.01,536.15z"/>
		<path class="st1" d="M722.9,544.76h-1.47v-13.68h1.47V544.76z"/>
		<path class="st1" d="M732.21,542.13c0,0.62-0.15,1.13-0.46,1.55c-0.31,0.42-0.75,0.73-1.32,0.95c-0.57,0.21-1.25,0.32-2.04,0.32
			c-0.67,0-1.26-0.05-1.75-0.16s-0.92-0.25-1.29-0.45v-1.34c0.39,0.19,0.86,0.37,1.41,0.53s1.1,0.24,1.67,0.24
			c0.83,0,1.44-0.13,1.81-0.4s0.56-0.64,0.56-1.1c0-0.26-0.08-0.5-0.22-0.7c-0.15-0.2-0.4-0.4-0.75-0.59
			c-0.35-0.19-0.84-0.4-1.46-0.63c-0.62-0.23-1.15-0.47-1.6-0.7c-0.45-0.23-0.79-0.51-1.04-0.85s-0.36-0.77-0.36-1.3
			c0-0.81,0.33-1.44,0.99-1.88c0.66-0.44,1.52-0.65,2.6-0.65c0.58,0,1.12,0.06,1.63,0.17c0.51,0.11,0.98,0.27,1.42,0.46l-0.49,1.17
			c-0.4-0.17-0.82-0.31-1.27-0.43s-0.91-0.18-1.38-0.18c-0.67,0-1.19,0.11-1.55,0.33c-0.36,0.22-0.54,0.53-0.54,0.91
			c0,0.3,0.08,0.54,0.25,0.74c0.17,0.19,0.44,0.38,0.8,0.54s0.86,0.37,1.46,0.6c0.6,0.22,1.12,0.45,1.56,0.69
			c0.44,0.24,0.78,0.53,1.02,0.86C732.09,541.17,732.21,541.6,732.21,542.13z"/>
		<path class="st1" d="M742.34,543.74c0.24,0,0.49-0.02,0.74-0.06s0.46-0.09,0.62-0.15v1.13c-0.17,0.08-0.41,0.14-0.71,0.19
			s-0.6,0.08-0.88,0.08c-0.51,0-0.97-0.09-1.39-0.27c-0.42-0.18-0.75-0.48-1-0.91s-0.37-1.02-0.37-1.78v-5.71h-1.37v-0.71l1.38-0.57
			l0.58-2.09h0.88v2.23h2.82v1.14h-2.82v5.67c0,0.6,0.14,1.05,0.42,1.35S741.88,543.74,742.34,543.74z"/>
		<path class="st1" d="M753.95,539.93c0,0.79-0.1,1.5-0.31,2.12s-0.5,1.15-0.89,1.57s-0.85,0.75-1.4,0.98
			c-0.55,0.22-1.17,0.34-1.86,0.34c-0.64,0-1.24-0.11-1.77-0.34c-0.54-0.23-1-0.55-1.39-0.98c-0.39-0.43-0.69-0.95-0.91-1.57
			s-0.32-1.33-0.32-2.12c0-1.05,0.18-1.95,0.54-2.69c0.36-0.74,0.87-1.31,1.53-1.7c0.66-0.39,1.46-0.58,2.38-0.58
			c0.88,0,1.65,0.2,2.31,0.59c0.66,0.39,1.17,0.96,1.54,1.7C753.77,537.99,753.95,538.88,753.95,539.93z M746.62,539.93
			c0,0.77,0.1,1.44,0.31,2.01s0.52,1.01,0.95,1.32s0.98,0.47,1.65,0.47c0.67,0,1.22-0.16,1.65-0.47c0.43-0.31,0.75-0.75,0.95-1.32
			s0.31-1.24,0.31-2.01c0-0.77-0.1-1.43-0.31-1.99c-0.21-0.56-0.52-0.99-0.95-1.3s-0.98-0.46-1.66-0.46c-1,0-1.74,0.33-2.2,0.99
			C746.85,537.84,746.62,538.76,746.62,539.93z"/>
		<path class="st1" d="M769.1,535.13v9.63h-1.2l-0.21-1.35h-0.08c-0.2,0.33-0.46,0.62-0.77,0.84s-0.67,0.4-1.07,0.51
			c-0.4,0.12-0.82,0.17-1.26,0.17c-0.76,0-1.4-0.12-1.92-0.37s-0.9-0.63-1.16-1.14c-0.26-0.52-0.39-1.18-0.39-1.99v-6.31h1.48v6.21
			c0,0.8,0.18,1.4,0.54,1.8c0.36,0.4,0.92,0.59,1.66,0.59c0.71,0,1.28-0.13,1.71-0.4s0.73-0.67,0.92-1.19
			c0.19-0.52,0.28-1.17,0.28-1.93v-5.07H769.1z"/>
		<path class="st1" d="M778.42,542.13c0,0.62-0.15,1.13-0.46,1.55c-0.31,0.42-0.75,0.73-1.32,0.95c-0.57,0.21-1.25,0.32-2.04,0.32
			c-0.67,0-1.26-0.05-1.75-0.16s-0.92-0.25-1.29-0.45v-1.34c0.39,0.19,0.86,0.37,1.41,0.53s1.1,0.24,1.67,0.24
			c0.83,0,1.44-0.13,1.81-0.4s0.56-0.64,0.56-1.1c0-0.26-0.08-0.5-0.22-0.7c-0.15-0.2-0.4-0.4-0.75-0.59
			c-0.35-0.19-0.84-0.4-1.46-0.63c-0.62-0.23-1.15-0.47-1.6-0.7c-0.45-0.23-0.79-0.51-1.04-0.85s-0.36-0.77-0.36-1.3
			c0-0.81,0.33-1.44,0.99-1.88c0.66-0.44,1.52-0.65,2.6-0.65c0.58,0,1.12,0.06,1.63,0.17c0.51,0.11,0.98,0.27,1.42,0.46l-0.49,1.17
			c-0.4-0.17-0.82-0.31-1.27-0.43s-0.91-0.18-1.38-0.18c-0.67,0-1.19,0.11-1.55,0.33c-0.36,0.22-0.54,0.53-0.54,0.91
			c0,0.3,0.08,0.54,0.25,0.74c0.17,0.19,0.44,0.38,0.8,0.54s0.86,0.37,1.46,0.6c0.6,0.22,1.12,0.45,1.56,0.69
			c0.44,0.24,0.78,0.53,1.02,0.86C778.3,541.17,778.42,541.6,778.42,542.13z"/>
		<path class="st1" d="M784.47,534.95c0.82,0,1.52,0.18,2.11,0.54s1.03,0.87,1.34,1.53c0.31,0.65,0.47,1.42,0.47,2.29v0.91h-6.65
			c0.02,1.13,0.3,1.99,0.84,2.58s1.31,0.89,2.3,0.89c0.61,0,1.15-0.06,1.62-0.17s0.96-0.28,1.46-0.49v1.28
			c-0.49,0.22-0.97,0.38-1.45,0.47c-0.48,0.1-1.04,0.15-1.69,0.15c-0.93,0-1.73-0.19-2.42-0.57c-0.69-0.38-1.22-0.93-1.6-1.67
			s-0.57-1.63-0.57-2.69c0-1.04,0.17-1.94,0.52-2.69c0.35-0.76,0.84-1.34,1.48-1.75C782.86,535.16,783.61,534.95,784.47,534.95z
			 M784.46,536.15c-0.78,0-1.4,0.25-1.86,0.76s-0.74,1.22-0.83,2.14h5.1c-0.01-0.57-0.1-1.08-0.27-1.52
			c-0.17-0.44-0.43-0.78-0.79-1.02C785.46,536.27,785.01,536.15,784.46,536.15z"/>
		<path class="st1" d="M797.02,544.76h-1.47v-13.68h1.47V544.76z"/>
		<path class="st1" d="M803.8,534.95c0.82,0,1.52,0.18,2.11,0.54s1.03,0.87,1.34,1.53c0.31,0.65,0.47,1.42,0.47,2.29v0.91h-6.65
			c0.02,1.13,0.3,1.99,0.84,2.58s1.31,0.89,2.3,0.89c0.61,0,1.15-0.06,1.62-0.17s0.96-0.28,1.46-0.49v1.28
			c-0.49,0.22-0.97,0.38-1.45,0.47c-0.48,0.1-1.04,0.15-1.69,0.15c-0.93,0-1.73-0.19-2.42-0.57c-0.69-0.38-1.22-0.93-1.6-1.67
			s-0.57-1.63-0.57-2.69c0-1.04,0.17-1.94,0.52-2.69c0.35-0.76,0.84-1.34,1.48-1.75C802.19,535.16,802.94,534.95,803.8,534.95z
			 M803.78,536.15c-0.78,0-1.4,0.25-1.86,0.76s-0.74,1.22-0.83,2.14h5.1c-0.01-0.57-0.1-1.08-0.27-1.52
			c-0.17-0.44-0.43-0.78-0.79-1.02C804.79,536.27,804.33,536.15,803.78,536.15z"/>
		<path class="st1" d="M816.43,542.13c0,0.62-0.15,1.13-0.46,1.55c-0.31,0.42-0.75,0.73-1.32,0.95c-0.57,0.21-1.25,0.32-2.04,0.32
			c-0.67,0-1.26-0.05-1.75-0.16s-0.92-0.25-1.29-0.45v-1.34c0.39,0.19,0.86,0.37,1.41,0.53s1.1,0.24,1.67,0.24
			c0.83,0,1.44-0.13,1.81-0.4s0.56-0.64,0.56-1.1c0-0.26-0.08-0.5-0.22-0.7c-0.15-0.2-0.4-0.4-0.75-0.59
			c-0.35-0.19-0.84-0.4-1.46-0.63c-0.62-0.23-1.15-0.47-1.6-0.7c-0.45-0.23-0.79-0.51-1.04-0.85s-0.36-0.77-0.36-1.3
			c0-0.81,0.33-1.44,0.99-1.88c0.66-0.44,1.52-0.65,2.6-0.65c0.58,0,1.12,0.06,1.63,0.17c0.51,0.11,0.98,0.27,1.42,0.46l-0.49,1.17
			c-0.4-0.17-0.82-0.31-1.27-0.43s-0.91-0.18-1.38-0.18c-0.67,0-1.19,0.11-1.55,0.33c-0.36,0.22-0.54,0.53-0.54,0.91
			c0,0.3,0.08,0.54,0.25,0.74c0.17,0.19,0.44,0.38,0.8,0.54s0.86,0.37,1.46,0.6c0.6,0.22,1.12,0.45,1.56,0.69
			c0.44,0.24,0.78,0.53,1.02,0.86C816.31,541.17,816.43,541.6,816.43,542.13z"/>
		<path class="st1" d="M825.01,542.13c0,0.62-0.15,1.13-0.46,1.55c-0.31,0.42-0.75,0.73-1.32,0.95c-0.57,0.21-1.25,0.32-2.04,0.32
			c-0.67,0-1.26-0.05-1.75-0.16s-0.92-0.25-1.29-0.45v-1.34c0.39,0.19,0.86,0.37,1.41,0.53s1.1,0.24,1.67,0.24
			c0.83,0,1.44-0.13,1.81-0.4s0.56-0.64,0.56-1.1c0-0.26-0.08-0.5-0.22-0.7c-0.15-0.2-0.4-0.4-0.75-0.59
			c-0.35-0.19-0.84-0.4-1.46-0.63c-0.62-0.23-1.15-0.47-1.6-0.7c-0.45-0.23-0.79-0.51-1.04-0.85s-0.36-0.77-0.36-1.3
			c0-0.81,0.33-1.44,0.99-1.88c0.66-0.44,1.52-0.65,2.6-0.65c0.58,0,1.12,0.06,1.63,0.17c0.51,0.11,0.98,0.27,1.42,0.46l-0.49,1.17
			c-0.4-0.17-0.82-0.31-1.27-0.43s-0.91-0.18-1.38-0.18c-0.67,0-1.19,0.11-1.55,0.33c-0.36,0.22-0.54,0.53-0.54,0.91
			c0,0.3,0.08,0.54,0.25,0.74c0.17,0.19,0.44,0.38,0.8,0.54s0.86,0.37,1.46,0.6c0.6,0.22,1.12,0.45,1.56,0.69
			c0.44,0.24,0.78,0.53,1.02,0.86C824.89,541.17,825.01,541.6,825.01,542.13z"/>
		<path class="st1" d="M835.74,534.95c0.82,0,1.52,0.18,2.11,0.54s1.03,0.87,1.34,1.53c0.31,0.65,0.47,1.42,0.47,2.29v0.91h-6.65
			c0.02,1.13,0.3,1.99,0.84,2.58s1.31,0.89,2.3,0.89c0.61,0,1.15-0.06,1.62-0.17s0.96-0.28,1.46-0.49v1.28
			c-0.49,0.22-0.97,0.38-1.45,0.47c-0.48,0.1-1.04,0.15-1.69,0.15c-0.93,0-1.73-0.19-2.42-0.57c-0.69-0.38-1.22-0.93-1.6-1.67
			s-0.57-1.63-0.57-2.69c0-1.04,0.17-1.94,0.52-2.69c0.35-0.76,0.84-1.34,1.48-1.75C834.13,535.16,834.88,534.95,835.74,534.95z
			 M835.72,536.15c-0.78,0-1.4,0.25-1.86,0.76s-0.74,1.22-0.83,2.14h5.1c-0.01-0.57-0.1-1.08-0.27-1.52
			c-0.17-0.44-0.43-0.78-0.79-1.02C836.73,536.27,836.27,536.15,835.72,536.15z"/>
		<path class="st1" d="M846.7,534.95c1.14,0,2.01,0.28,2.59,0.84c0.59,0.56,0.88,1.46,0.88,2.69v6.28h-1.44v-6.18
			c0-0.8-0.18-1.4-0.55-1.8s-0.93-0.6-1.68-0.6c-1.07,0-1.82,0.3-2.25,0.91s-0.65,1.48-0.65,2.63v5.04h-1.46v-9.63h1.18l0.22,1.39
			h0.08c0.21-0.34,0.47-0.62,0.78-0.86c0.32-0.23,0.67-0.41,1.06-0.53C845.85,535.01,846.27,534.95,846.7,534.95z"/>
		<path class="st1" d="M856.89,534.95c0.82,0,1.52,0.18,2.11,0.54s1.03,0.87,1.34,1.53c0.31,0.65,0.47,1.42,0.47,2.29v0.91h-6.65
			c0.02,1.13,0.3,1.99,0.84,2.58s1.31,0.89,2.3,0.89c0.61,0,1.15-0.06,1.62-0.17s0.96-0.28,1.46-0.49v1.28
			c-0.49,0.22-0.97,0.38-1.45,0.47c-0.48,0.1-1.04,0.15-1.69,0.15c-0.93,0-1.73-0.19-2.42-0.57c-0.69-0.38-1.22-0.93-1.6-1.67
			s-0.57-1.63-0.57-2.69c0-1.04,0.17-1.94,0.52-2.69c0.35-0.76,0.84-1.34,1.48-1.75C855.28,535.16,856.03,534.95,856.89,534.95z
			 M856.87,536.15c-0.78,0-1.4,0.25-1.86,0.76s-0.74,1.22-0.83,2.14h5.1c-0.01-0.57-0.1-1.08-0.27-1.52
			c-0.17-0.44-0.43-0.78-0.79-1.02C857.87,536.27,857.42,536.15,856.87,536.15z"/>
		<path class="st1" d="M867.66,534.95c0.19,0,0.4,0.01,0.61,0.03c0.21,0.02,0.4,0.05,0.56,0.08l-0.18,1.35
			c-0.16-0.04-0.33-0.07-0.53-0.1s-0.38-0.04-0.54-0.04c-0.39,0-0.75,0.08-1.09,0.23c-0.34,0.16-0.64,0.38-0.9,0.67
			c-0.26,0.29-0.46,0.64-0.61,1.05c-0.15,0.41-0.22,0.86-0.22,1.36v5.17h-1.47v-9.63h1.21l0.16,1.78h0.06
			c0.2-0.36,0.44-0.68,0.72-0.98c0.28-0.29,0.61-0.53,0.98-0.71C866.79,535.04,867.21,534.95,867.66,534.95z"/>
		<path class="st1" d="M873.33,549.09c-1.27,0-2.24-0.24-2.93-0.71c-0.69-0.47-1.03-1.13-1.03-1.98c0-0.6,0.19-1.12,0.58-1.55
			s0.92-0.71,1.6-0.85c-0.25-0.12-0.47-0.29-0.65-0.53s-0.27-0.5-0.27-0.81c0-0.35,0.1-0.66,0.29-0.93c0.2-0.27,0.5-0.52,0.9-0.77
			c-0.5-0.21-0.91-0.55-1.23-1.04c-0.31-0.49-0.47-1.06-0.47-1.71c0-0.69,0.14-1.28,0.43-1.77c0.29-0.49,0.7-0.86,1.25-1.12
			s1.2-0.39,1.98-0.39c0.17,0,0.34,0.01,0.51,0.02c0.17,0.02,0.34,0.04,0.5,0.06c0.16,0.03,0.3,0.06,0.41,0.09h3.3v0.94l-1.78,0.22
			c0.18,0.23,0.32,0.5,0.44,0.83s0.18,0.68,0.18,1.07c0,0.96-0.33,1.72-0.98,2.29c-0.65,0.57-1.54,0.85-2.68,0.85
			c-0.27,0-0.54-0.02-0.83-0.07c-0.29,0.16-0.5,0.33-0.66,0.53c-0.15,0.19-0.22,0.42-0.22,0.67c0,0.19,0.06,0.34,0.17,0.45
			c0.12,0.11,0.28,0.19,0.5,0.24c0.22,0.05,0.48,0.07,0.78,0.07h1.7c1.05,0,1.85,0.22,2.41,0.66c0.56,0.44,0.84,1.08,0.84,1.92
			c0,1.07-0.43,1.88-1.3,2.45S874.97,549.09,873.33,549.09z M873.38,547.94c0.8,0,1.46-0.08,1.98-0.24
			c0.52-0.16,0.92-0.39,1.18-0.69c0.26-0.3,0.39-0.66,0.39-1.08c0-0.39-0.09-0.68-0.26-0.87c-0.18-0.2-0.43-0.33-0.77-0.4
			c-0.34-0.07-0.76-0.1-1.25-0.1h-1.67c-0.43,0-0.81,0.07-1.13,0.2s-0.57,0.33-0.74,0.6s-0.26,0.59-0.26,0.98
			c0,0.52,0.22,0.92,0.66,1.19C871.93,547.81,872.56,547.94,873.38,547.94z M873.75,540.25c0.7,0,1.22-0.18,1.57-0.53
			s0.53-0.86,0.53-1.54c0-0.72-0.18-1.26-0.54-1.62c-0.36-0.36-0.88-0.54-1.58-0.54c-0.67,0-1.18,0.19-1.54,0.56
			c-0.36,0.37-0.54,0.92-0.54,1.63c0,0.66,0.18,1.16,0.54,1.51S873.08,540.25,873.75,540.25z"/>
		<path class="st1" d="M878.89,535.13h1.56l2.13,5.59c0.12,0.33,0.24,0.64,0.34,0.95c0.11,0.3,0.2,0.59,0.28,0.87
			s0.15,0.54,0.19,0.8h0.06c0.08-0.29,0.2-0.68,0.35-1.16c0.15-0.48,0.32-0.97,0.49-1.46l2.01-5.58h1.57l-4.19,11.05
			c-0.22,0.59-0.48,1.11-0.78,1.55s-0.65,0.78-1.08,1.01c-0.42,0.24-0.93,0.36-1.53,0.36c-0.28,0-0.52-0.02-0.73-0.05
			c-0.21-0.03-0.39-0.07-0.54-0.11v-1.17c0.13,0.03,0.29,0.06,0.47,0.08c0.19,0.02,0.38,0.04,0.58,0.04c0.36,0,0.68-0.07,0.95-0.21
			c0.27-0.14,0.5-0.34,0.69-0.6s0.36-0.58,0.5-0.94l0.53-1.35L878.89,535.13z"/>
	</g>
</g>
<g>
	<g>
		<path class="st1" d="M331.24,508c-0.87,0-1.63-0.18-2.29-0.54s-1.18-0.9-1.55-1.63s-0.55-1.66-0.55-2.77
			c0-1.17,0.2-2.12,0.58-2.86c0.39-0.74,0.93-1.29,1.61-1.65s1.46-0.54,2.34-0.54c0.48,0,0.95,0.05,1.39,0.15
			c0.45,0.1,0.82,0.22,1.1,0.36l-0.44,1.22c-0.29-0.12-0.63-0.22-1.02-0.32c-0.38-0.09-0.74-0.14-1.08-0.14
			c-0.67,0-1.22,0.14-1.67,0.43c-0.44,0.29-0.77,0.71-0.99,1.27c-0.22,0.56-0.33,1.24-0.33,2.06c0,0.78,0.11,1.44,0.32,2
			c0.21,0.55,0.53,0.97,0.96,1.26c0.42,0.29,0.96,0.43,1.6,0.43c0.51,0,0.97-0.05,1.38-0.16c0.41-0.11,0.78-0.24,1.12-0.38v1.3
			c-0.32,0.16-0.68,0.29-1.08,0.38C332.26,507.95,331.79,508,331.24,508z"/>
		<path class="st1" d="M344.31,502.99c0,0.79-0.1,1.5-0.31,2.12s-0.5,1.15-0.89,1.57s-0.86,0.75-1.4,0.98
			c-0.55,0.23-1.17,0.34-1.86,0.34c-0.64,0-1.23-0.11-1.77-0.34c-0.54-0.22-1-0.55-1.39-0.98c-0.39-0.43-0.69-0.95-0.91-1.57
			c-0.21-0.62-0.32-1.33-0.32-2.12c0-1.05,0.18-1.95,0.54-2.69c0.36-0.74,0.87-1.31,1.54-1.7c0.66-0.39,1.46-0.58,2.38-0.58
			c0.88,0,1.65,0.2,2.31,0.59c0.66,0.39,1.17,0.96,1.54,1.7C344.13,501.04,344.31,501.94,344.31,502.99z M336.98,502.99
			c0,0.77,0.1,1.44,0.31,2.01s0.52,1.01,0.95,1.32s0.98,0.47,1.65,0.47c0.67,0,1.22-0.16,1.65-0.47c0.43-0.31,0.75-0.75,0.95-1.32
			s0.31-1.24,0.31-2.01c0-0.77-0.1-1.43-0.31-1.99c-0.21-0.56-0.52-0.99-0.95-1.3s-0.98-0.46-1.66-0.46c-1,0-1.74,0.33-2.2,0.99
			C337.21,500.9,336.98,501.82,336.98,502.99z"/>
		<path class="st1" d="M350.26,508c-1.22,0-2.18-0.42-2.89-1.25c-0.71-0.83-1.07-2.07-1.07-3.71c0-1.66,0.36-2.91,1.09-3.76
			c0.73-0.85,1.69-1.27,2.9-1.27c0.51,0,0.96,0.07,1.34,0.2s0.71,0.31,0.98,0.54c0.28,0.22,0.51,0.48,0.69,0.77h0.11
			c-0.02-0.18-0.05-0.43-0.07-0.75s-0.04-0.57-0.04-0.77v-3.86h1.46v13.68h-1.18l-0.22-1.37h-0.06c-0.18,0.29-0.41,0.55-0.69,0.78
			c-0.28,0.23-0.61,0.42-0.99,0.56C351.23,507.93,350.78,508,350.26,508z M350.49,506.79c1.03,0,1.76-0.29,2.19-0.88
			s0.64-1.46,0.64-2.61v-0.26c0-1.22-0.2-2.17-0.61-2.82c-0.41-0.66-1.15-0.98-2.22-0.98c-0.9,0-1.57,0.34-2.01,1.03
			c-0.45,0.69-0.67,1.63-0.67,2.82c0,1.18,0.22,2.1,0.66,2.74C348.91,506.46,349.59,506.79,350.49,506.79z"/>
		<path class="st1" d="M361.56,498.01c0.82,0,1.52,0.18,2.11,0.54s1.03,0.87,1.34,1.52c0.31,0.65,0.47,1.42,0.47,2.29v0.91h-6.65
			c0.02,1.13,0.3,1.99,0.84,2.58s1.31,0.89,2.3,0.89c0.61,0,1.15-0.06,1.62-0.17s0.96-0.28,1.46-0.49v1.28
			c-0.49,0.22-0.97,0.38-1.45,0.47c-0.48,0.1-1.04,0.15-1.69,0.15c-0.93,0-1.73-0.19-2.42-0.57c-0.69-0.38-1.22-0.93-1.6-1.67
			s-0.57-1.63-0.57-2.69c0-1.04,0.17-1.93,0.52-2.69c0.35-0.76,0.84-1.34,1.48-1.75C359.94,498.22,360.69,498.01,361.56,498.01z
			 M361.54,499.21c-0.78,0-1.4,0.25-1.86,0.76s-0.74,1.22-0.83,2.14h5.1c-0.01-0.57-0.1-1.08-0.27-1.52
			c-0.17-0.44-0.43-0.78-0.79-1.02C362.54,499.33,362.09,499.21,361.54,499.21z"/>
		<path class="st1" d="M371.38,508c-1.22,0-2.19-0.42-2.9-1.25c-0.71-0.83-1.07-2.07-1.07-3.71c0-1.66,0.36-2.91,1.09-3.76
			c0.73-0.85,1.69-1.27,2.9-1.27c0.51,0,0.96,0.07,1.34,0.2s0.71,0.31,0.98,0.54c0.28,0.22,0.51,0.48,0.7,0.77h0.11
			c-0.02-0.18-0.05-0.43-0.07-0.75s-0.04-0.57-0.04-0.77v-3.86h1.46v13.68h-1.18l-0.22-1.37h-0.06c-0.18,0.29-0.41,0.55-0.69,0.78
			c-0.28,0.23-0.61,0.42-0.99,0.56C372.35,507.93,371.9,508,371.38,508z M371.61,506.79c1.03,0,1.76-0.29,2.19-0.88
			s0.64-1.46,0.64-2.61v-0.26c0-1.22-0.21-2.17-0.61-2.82c-0.41-0.66-1.15-0.98-2.22-0.98c-0.9,0-1.57,0.34-2.01,1.03
			c-0.45,0.69-0.67,1.63-0.67,2.82c0,1.18,0.22,2.1,0.66,2.74C370.03,506.46,370.71,506.79,371.61,506.79z"/>
		<path class="st1" d="M387.93,499.33h-2.4v8.49h-1.46v-8.49h-1.71v-0.7l1.71-0.48v-0.64c0-0.81,0.12-1.47,0.36-1.97
			c0.24-0.51,0.59-0.88,1.05-1.12s1.01-0.36,1.67-0.36c0.37,0,0.71,0.03,1.02,0.1c0.31,0.06,0.58,0.14,0.81,0.22l-0.38,1.15
			c-0.2-0.06-0.42-0.12-0.67-0.18c-0.25-0.05-0.5-0.08-0.76-0.08c-0.56,0-0.97,0.18-1.23,0.54c-0.27,0.36-0.4,0.92-0.4,1.69v0.7h2.4
			V499.33z"/>
		<path class="st1" d="M394.07,498.01c0.19,0,0.39,0.01,0.61,0.03c0.21,0.02,0.4,0.05,0.56,0.08l-0.18,1.35
			c-0.16-0.04-0.33-0.07-0.53-0.1s-0.38-0.04-0.54-0.04c-0.39,0-0.75,0.08-1.1,0.23c-0.34,0.15-0.64,0.38-0.9,0.67
			c-0.26,0.29-0.46,0.64-0.61,1.04c-0.15,0.41-0.22,0.86-0.22,1.36v5.17h-1.47v-9.63h1.21l0.16,1.78h0.06
			c0.2-0.36,0.44-0.68,0.72-0.98c0.28-0.3,0.61-0.53,0.98-0.71C393.2,498.1,393.62,498.01,394.07,498.01z"/>
		<path class="st1" d="M405.36,502.99c0,0.79-0.1,1.5-0.31,2.12s-0.5,1.15-0.89,1.57s-0.86,0.75-1.4,0.98
			c-0.55,0.23-1.17,0.34-1.86,0.34c-0.64,0-1.23-0.11-1.77-0.34c-0.54-0.22-1-0.55-1.39-0.98c-0.39-0.43-0.69-0.95-0.91-1.57
			c-0.21-0.62-0.32-1.33-0.32-2.12c0-1.05,0.18-1.95,0.54-2.69c0.36-0.74,0.87-1.31,1.54-1.7c0.66-0.39,1.46-0.58,2.38-0.58
			c0.88,0,1.65,0.2,2.31,0.59c0.66,0.39,1.17,0.96,1.54,1.7C405.18,501.04,405.36,501.94,405.36,502.99z M398.03,502.99
			c0,0.77,0.1,1.44,0.31,2.01s0.52,1.01,0.95,1.32s0.98,0.47,1.65,0.47c0.67,0,1.22-0.16,1.65-0.47c0.43-0.31,0.75-0.75,0.95-1.32
			s0.31-1.24,0.31-2.01c0-0.77-0.1-1.43-0.31-1.99c-0.21-0.56-0.52-0.99-0.95-1.3s-0.98-0.46-1.66-0.46c-1,0-1.74,0.33-2.2,0.99
			C398.26,500.9,398.03,501.82,398.03,502.99z"/>
		<path class="st1" d="M418.34,498.01c1.06,0,1.86,0.28,2.4,0.83c0.54,0.55,0.81,1.44,0.81,2.67v6.31h-1.44v-6.24
			c0-0.78-0.17-1.36-0.51-1.75c-0.34-0.39-0.84-0.58-1.5-0.58c-0.93,0-1.61,0.27-2.03,0.81s-0.63,1.33-0.63,2.38v5.39h-1.45v-6.24
			c0-0.52-0.07-0.96-0.22-1.3c-0.15-0.35-0.37-0.6-0.67-0.78c-0.3-0.17-0.67-0.26-1.12-0.26c-0.64,0-1.15,0.13-1.54,0.4
			s-0.67,0.65-0.84,1.17c-0.17,0.52-0.26,1.16-0.26,1.91v5.1h-1.46v-9.63h1.18l0.22,1.36h0.08c0.19-0.33,0.44-0.62,0.73-0.84
			s0.62-0.4,0.98-0.52s0.75-0.18,1.16-0.18c0.73,0,1.35,0.14,1.84,0.41c0.49,0.27,0.85,0.69,1.08,1.24h0.08
			c0.32-0.56,0.75-0.97,1.3-1.24C417.08,498.15,417.68,498.01,418.34,498.01z"/>
		<path class="st1" d="M435.45,505.19c0,0.62-0.15,1.13-0.46,1.55c-0.31,0.42-0.75,0.73-1.32,0.94c-0.57,0.21-1.25,0.32-2.04,0.32
			c-0.67,0-1.26-0.05-1.75-0.16s-0.92-0.25-1.29-0.45v-1.34c0.39,0.19,0.86,0.37,1.41,0.53s1.1,0.24,1.67,0.24
			c0.83,0,1.44-0.13,1.81-0.4s0.56-0.64,0.56-1.1c0-0.26-0.07-0.5-0.22-0.7c-0.15-0.2-0.4-0.4-0.75-0.59
			c-0.35-0.19-0.84-0.4-1.46-0.63c-0.62-0.23-1.15-0.47-1.6-0.7c-0.45-0.23-0.79-0.51-1.04-0.85c-0.24-0.33-0.37-0.77-0.37-1.3
			c0-0.81,0.33-1.44,0.99-1.88c0.66-0.44,1.52-0.66,2.6-0.66c0.58,0,1.12,0.06,1.63,0.17c0.51,0.12,0.98,0.27,1.42,0.46l-0.49,1.17
			c-0.4-0.17-0.82-0.31-1.28-0.43s-0.91-0.18-1.38-0.18c-0.67,0-1.19,0.11-1.55,0.33c-0.36,0.22-0.54,0.53-0.54,0.91
			c0,0.3,0.08,0.54,0.25,0.74c0.17,0.19,0.44,0.38,0.8,0.54s0.86,0.37,1.46,0.6c0.6,0.22,1.12,0.45,1.56,0.69
			c0.44,0.24,0.78,0.52,1.02,0.86C435.33,504.23,435.45,504.66,435.45,505.19z"/>
		<path class="st1" d="M441.66,508c-0.87,0-1.63-0.18-2.29-0.54s-1.18-0.9-1.55-1.63s-0.55-1.66-0.55-2.77
			c0-1.17,0.19-2.12,0.58-2.86c0.39-0.74,0.93-1.29,1.61-1.65s1.46-0.54,2.34-0.54c0.48,0,0.95,0.05,1.39,0.15
			c0.45,0.1,0.82,0.22,1.1,0.36l-0.44,1.22c-0.29-0.12-0.63-0.22-1.02-0.32c-0.38-0.09-0.74-0.14-1.08-0.14
			c-0.67,0-1.22,0.14-1.67,0.43c-0.44,0.29-0.77,0.71-0.99,1.27c-0.22,0.56-0.33,1.24-0.33,2.06c0,0.78,0.11,1.44,0.32,2
			c0.21,0.55,0.53,0.97,0.96,1.26c0.42,0.29,0.96,0.43,1.59,0.43c0.51,0,0.97-0.05,1.38-0.16c0.41-0.11,0.78-0.24,1.12-0.38v1.3
			c-0.32,0.16-0.68,0.29-1.08,0.38C442.67,507.95,442.2,508,441.66,508z"/>
		<path class="st1" d="M450.8,498.01c0.19,0,0.39,0.01,0.61,0.03c0.21,0.02,0.4,0.05,0.56,0.08l-0.18,1.35
			c-0.16-0.04-0.33-0.07-0.53-0.1s-0.38-0.04-0.54-0.04c-0.39,0-0.75,0.08-1.1,0.23c-0.34,0.15-0.64,0.38-0.9,0.67
			c-0.26,0.29-0.46,0.64-0.61,1.04c-0.15,0.41-0.22,0.86-0.22,1.36v5.17h-1.47v-9.63h1.21l0.16,1.78h0.06
			c0.2-0.36,0.44-0.68,0.72-0.98c0.28-0.3,0.61-0.53,0.98-0.71C449.93,498.1,450.34,498.01,450.8,498.01z"/>
		<path class="st1" d="M457.38,498.03c1.15,0,2,0.26,2.56,0.77s0.83,1.34,0.83,2.47v6.55h-1.06l-0.28-1.42h-0.07
			c-0.27,0.35-0.55,0.65-0.84,0.88c-0.29,0.24-0.63,0.42-1.02,0.54c-0.38,0.12-0.85,0.18-1.41,0.18c-0.59,0-1.11-0.1-1.56-0.31
			c-0.46-0.21-0.81-0.52-1.07-0.93c-0.26-0.42-0.39-0.94-0.39-1.58c0-0.96,0.38-1.7,1.14-2.21s1.92-0.8,3.48-0.84l1.66-0.07v-0.59
			c0-0.83-0.18-1.42-0.54-1.75s-0.86-0.5-1.51-0.5c-0.5,0-0.98,0.07-1.44,0.22s-0.89,0.32-1.3,0.52l-0.45-1.11
			c0.43-0.22,0.93-0.41,1.49-0.57S456.76,498.03,457.38,498.03z M459.33,503.08l-1.47,0.06c-1.2,0.05-2.05,0.24-2.54,0.59
			s-0.74,0.83-0.74,1.47c0,0.55,0.17,0.96,0.5,1.22s0.78,0.4,1.33,0.4c0.86,0,1.56-0.24,2.1-0.71s0.82-1.19,0.82-2.14V503.08z"/>
		<path class="st1" d="M466.89,506.8c0.24,0,0.49-0.02,0.74-0.06s0.46-0.09,0.62-0.15v1.13c-0.17,0.08-0.41,0.14-0.71,0.19
			c-0.3,0.05-0.6,0.08-0.88,0.08c-0.51,0-0.97-0.09-1.39-0.27c-0.42-0.18-0.75-0.48-1-0.91c-0.25-0.43-0.37-1.02-0.37-1.78v-5.71
			h-1.37v-0.71l1.38-0.57l0.58-2.09h0.88v2.23h2.82v1.14h-2.82V505c0,0.6,0.14,1.05,0.42,1.35
			C466.06,506.65,466.43,506.8,466.89,506.8z"/>
		<path class="st1" d="M474.06,508c-0.87,0-1.63-0.18-2.29-0.54s-1.18-0.9-1.55-1.63s-0.55-1.66-0.55-2.77
			c0-1.17,0.19-2.12,0.58-2.86c0.39-0.74,0.93-1.29,1.61-1.65s1.46-0.54,2.34-0.54c0.48,0,0.95,0.05,1.39,0.15
			c0.45,0.1,0.82,0.22,1.1,0.36l-0.44,1.22c-0.29-0.12-0.63-0.22-1.02-0.32c-0.38-0.09-0.74-0.14-1.08-0.14
			c-0.67,0-1.22,0.14-1.67,0.43c-0.44,0.29-0.77,0.71-0.99,1.27c-0.22,0.56-0.33,1.24-0.33,2.06c0,0.78,0.11,1.44,0.32,2
			c0.21,0.55,0.53,0.97,0.96,1.26c0.42,0.29,0.96,0.43,1.59,0.43c0.51,0,0.97-0.05,1.38-0.16c0.41-0.11,0.78-0.24,1.12-0.38v1.3
			c-0.32,0.16-0.68,0.29-1.08,0.38C475.07,507.95,474.6,508,474.06,508z"/>
		<path class="st1" d="M480.28,494.15v4.09c0,0.23-0.01,0.47-0.02,0.71c-0.01,0.24-0.03,0.46-0.06,0.66h0.1
			c0.2-0.34,0.45-0.63,0.76-0.86c0.31-0.23,0.66-0.41,1.05-0.53c0.39-0.12,0.81-0.18,1.25-0.18c0.77,0,1.42,0.12,1.94,0.37
			c0.52,0.25,0.91,0.63,1.17,1.14c0.26,0.52,0.39,1.18,0.39,2v6.28h-1.44v-6.18c0-0.8-0.18-1.4-0.55-1.8
			c-0.37-0.4-0.93-0.6-1.68-0.6c-0.71,0-1.29,0.14-1.71,0.41c-0.42,0.27-0.73,0.67-0.91,1.2c-0.18,0.53-0.28,1.17-0.28,1.93v5.04
			h-1.46v-13.68H480.28z"/>
		<path class="st1" d="M489.64,499.11c0-0.42,0.1-0.72,0.3-0.89c0.2-0.17,0.44-0.26,0.73-0.26c0.3,0,0.55,0.09,0.76,0.26
			c0.21,0.17,0.31,0.47,0.31,0.89c0,0.4-0.1,0.69-0.31,0.87s-0.46,0.27-0.76,0.27c-0.29,0-0.53-0.09-0.73-0.27
			S489.64,499.51,489.64,499.11z M489.64,506.91c0-0.41,0.1-0.7,0.3-0.87c0.2-0.17,0.44-0.26,0.73-0.26c0.3,0,0.55,0.09,0.76,0.26
			c0.21,0.17,0.31,0.46,0.31,0.87c0,0.4-0.1,0.7-0.31,0.88c-0.21,0.18-0.46,0.28-0.76,0.28c-0.29,0-0.53-0.09-0.73-0.28
			C489.74,507.61,489.64,507.31,489.64,506.91z"/>
		<path class="st1" d="M328.84,516.15v4.09c0,0.23-0.01,0.47-0.02,0.71c-0.01,0.24-0.03,0.46-0.06,0.66h0.1
			c0.2-0.34,0.45-0.63,0.76-0.86c0.31-0.23,0.66-0.41,1.05-0.53c0.39-0.12,0.81-0.18,1.25-0.18c0.77,0,1.42,0.12,1.94,0.37
			c0.52,0.25,0.91,0.63,1.17,1.14c0.26,0.52,0.39,1.18,0.39,2v6.28h-1.44v-6.18c0-0.8-0.18-1.4-0.55-1.8
			c-0.37-0.4-0.93-0.6-1.68-0.6c-0.71,0-1.29,0.14-1.71,0.41c-0.42,0.27-0.73,0.67-0.91,1.2c-0.18,0.53-0.28,1.17-0.28,1.93v5.04
			h-1.46v-13.68H328.84z"/>
		<path class="st1" d="M341.53,528.8c0.24,0,0.49-0.02,0.74-0.06s0.46-0.09,0.62-0.15v1.13c-0.17,0.08-0.41,0.14-0.71,0.19
			c-0.3,0.05-0.6,0.08-0.88,0.08c-0.51,0-0.97-0.09-1.39-0.27c-0.42-0.18-0.75-0.48-1-0.91c-0.25-0.43-0.37-1.02-0.37-1.78v-5.71
			h-1.37v-0.71l1.38-0.57l0.58-2.09H340v2.23h2.82v1.14H340V527c0,0.6,0.14,1.05,0.42,1.35C340.7,528.65,341.07,528.8,341.53,528.8z
			"/>
		<path class="st1" d="M355.3,520.01c1.06,0,1.86,0.28,2.4,0.83c0.54,0.55,0.81,1.44,0.81,2.67v6.31h-1.44v-6.24
			c0-0.78-0.17-1.36-0.51-1.75c-0.34-0.39-0.84-0.58-1.5-0.58c-0.93,0-1.61,0.27-2.03,0.81s-0.63,1.33-0.63,2.38v5.39h-1.45v-6.24
			c0-0.52-0.07-0.96-0.22-1.3c-0.15-0.35-0.37-0.6-0.67-0.78c-0.29-0.17-0.67-0.26-1.12-0.26c-0.64,0-1.15,0.13-1.54,0.4
			s-0.67,0.65-0.84,1.17c-0.17,0.52-0.26,1.16-0.26,1.91v5.1h-1.46v-9.63h1.18l0.22,1.36h0.08c0.19-0.33,0.44-0.62,0.73-0.84
			s0.62-0.4,0.98-0.52s0.75-0.18,1.16-0.18c0.73,0,1.35,0.14,1.84,0.41c0.49,0.27,0.85,0.69,1.08,1.24h0.08
			c0.32-0.56,0.75-0.97,1.3-1.24C354.04,520.15,354.64,520.01,355.3,520.01z"/>
		<path class="st1" d="M362.97,529.82h-1.47v-13.68h1.47V529.82z"/>
		<path class="st1" d="M367.72,527.73l0.12,0.2c-0.11,0.43-0.24,0.88-0.4,1.37c-0.16,0.49-0.34,0.97-0.53,1.46
			c-0.19,0.49-0.38,0.95-0.58,1.38h-1.09c0.12-0.47,0.24-0.96,0.36-1.48c0.12-0.52,0.22-1.03,0.32-1.54
			c0.1-0.51,0.17-0.97,0.23-1.39H367.72z"/>
		<path class="st1" d="M379.24,530c-0.87,0-1.63-0.18-2.29-0.54s-1.18-0.9-1.55-1.63s-0.55-1.66-0.55-2.77
			c0-1.17,0.19-2.12,0.58-2.86c0.39-0.74,0.93-1.29,1.61-1.65s1.46-0.54,2.34-0.54c0.48,0,0.95,0.05,1.39,0.15
			c0.45,0.1,0.82,0.22,1.1,0.36l-0.44,1.22c-0.29-0.12-0.63-0.22-1.02-0.32c-0.38-0.09-0.74-0.14-1.08-0.14
			c-0.67,0-1.22,0.14-1.67,0.43c-0.44,0.29-0.77,0.71-0.99,1.27c-0.22,0.56-0.33,1.24-0.33,2.06c0,0.78,0.11,1.44,0.32,2
			c0.21,0.55,0.53,0.97,0.96,1.26c0.42,0.29,0.96,0.43,1.59,0.43c0.51,0,0.97-0.05,1.38-0.16c0.41-0.11,0.78-0.24,1.12-0.38v1.3
			c-0.32,0.16-0.68,0.29-1.08,0.38C380.25,529.95,379.78,530,379.24,530z"/>
		<path class="st1" d="M390.23,527.19c0,0.62-0.15,1.13-0.46,1.55c-0.31,0.42-0.75,0.73-1.32,0.94c-0.57,0.21-1.25,0.32-2.04,0.32
			c-0.67,0-1.26-0.05-1.75-0.16s-0.92-0.25-1.29-0.45v-1.34c0.39,0.19,0.86,0.37,1.41,0.53s1.1,0.24,1.67,0.24
			c0.83,0,1.44-0.13,1.81-0.4s0.56-0.64,0.56-1.1c0-0.26-0.08-0.5-0.22-0.7c-0.15-0.2-0.4-0.4-0.75-0.59
			c-0.35-0.19-0.84-0.4-1.46-0.63c-0.62-0.23-1.15-0.47-1.6-0.7c-0.45-0.23-0.79-0.51-1.04-0.85c-0.24-0.33-0.36-0.77-0.36-1.3
			c0-0.81,0.33-1.44,0.99-1.88c0.66-0.44,1.53-0.66,2.6-0.66c0.58,0,1.12,0.06,1.63,0.17c0.51,0.12,0.98,0.27,1.42,0.46l-0.49,1.17
			c-0.4-0.17-0.82-0.31-1.27-0.43s-0.91-0.18-1.38-0.18c-0.67,0-1.19,0.11-1.55,0.33c-0.36,0.22-0.54,0.53-0.54,0.91
			c0,0.3,0.08,0.54,0.25,0.74c0.17,0.19,0.44,0.38,0.8,0.54s0.86,0.37,1.46,0.6c0.6,0.22,1.12,0.45,1.56,0.69
			c0.44,0.24,0.78,0.52,1.02,0.86C390.11,526.23,390.23,526.66,390.23,527.19z"/>
		<path class="st1" d="M398.81,527.19c0,0.62-0.15,1.13-0.46,1.55c-0.31,0.42-0.75,0.73-1.32,0.94c-0.57,0.21-1.25,0.32-2.04,0.32
			c-0.67,0-1.26-0.05-1.75-0.16s-0.92-0.25-1.29-0.45v-1.34c0.39,0.19,0.86,0.37,1.41,0.53s1.1,0.24,1.67,0.24
			c0.83,0,1.44-0.13,1.81-0.4s0.56-0.64,0.56-1.1c0-0.26-0.08-0.5-0.22-0.7c-0.15-0.2-0.4-0.4-0.75-0.59
			c-0.35-0.19-0.84-0.4-1.46-0.63c-0.62-0.23-1.15-0.47-1.6-0.7c-0.45-0.23-0.79-0.51-1.04-0.85c-0.24-0.33-0.36-0.77-0.36-1.3
			c0-0.81,0.33-1.44,0.99-1.88c0.66-0.44,1.53-0.66,2.6-0.66c0.58,0,1.12,0.06,1.63,0.17c0.51,0.12,0.98,0.27,1.42,0.46l-0.49,1.17
			c-0.4-0.17-0.82-0.31-1.27-0.43s-0.91-0.18-1.38-0.18c-0.67,0-1.19,0.11-1.55,0.33c-0.36,0.22-0.54,0.53-0.54,0.91
			c0,0.3,0.08,0.54,0.25,0.74c0.17,0.19,0.44,0.38,0.8,0.54s0.86,0.37,1.46,0.6c0.6,0.22,1.12,0.45,1.56,0.69
			c0.44,0.24,0.78,0.52,1.02,0.86C398.69,526.23,398.81,526.66,398.81,527.19z"/>
		<path class="st1" d="M409.44,520.03c1.15,0,2,0.26,2.56,0.77s0.84,1.34,0.84,2.47v6.55h-1.06l-0.28-1.42h-0.07
			c-0.27,0.35-0.55,0.65-0.84,0.88c-0.29,0.24-0.63,0.42-1.02,0.54c-0.38,0.12-0.85,0.18-1.41,0.18c-0.59,0-1.11-0.1-1.56-0.31
			c-0.45-0.21-0.81-0.52-1.07-0.93c-0.26-0.42-0.39-0.94-0.39-1.58c0-0.96,0.38-1.7,1.14-2.21s1.92-0.8,3.48-0.84l1.66-0.07v-0.59
			c0-0.83-0.18-1.42-0.54-1.75s-0.86-0.5-1.51-0.5c-0.5,0-0.98,0.07-1.44,0.22s-0.89,0.32-1.3,0.52l-0.45-1.11
			c0.43-0.22,0.93-0.41,1.49-0.57S408.82,520.03,409.44,520.03z M411.39,525.08l-1.47,0.06c-1.2,0.05-2.05,0.24-2.54,0.59
			s-0.74,0.83-0.74,1.47c0,0.55,0.17,0.96,0.5,1.22s0.78,0.4,1.33,0.4c0.86,0,1.55-0.24,2.1-0.71s0.82-1.19,0.82-2.14V525.08z"/>
		<path class="st1" d="M420.4,520.01c1.14,0,2.01,0.28,2.59,0.84c0.59,0.56,0.88,1.46,0.88,2.69v6.28h-1.44v-6.18
			c0-0.8-0.18-1.4-0.55-1.8c-0.37-0.4-0.93-0.6-1.68-0.6c-1.07,0-1.82,0.3-2.25,0.91s-0.65,1.48-0.65,2.63v5.04h-1.46v-9.63h1.18
			l0.22,1.39h0.08c0.21-0.34,0.46-0.63,0.78-0.86c0.32-0.23,0.67-0.41,1.06-0.53C419.55,520.07,419.96,520.01,420.4,520.01z"/>
		<path class="st1" d="M430.3,530c-1.22,0-2.19-0.42-2.9-1.25c-0.71-0.83-1.07-2.07-1.07-3.71c0-1.66,0.36-2.91,1.09-3.76
			c0.73-0.85,1.69-1.27,2.9-1.27c0.51,0,0.96,0.07,1.34,0.2s0.71,0.31,0.98,0.54c0.28,0.22,0.51,0.48,0.7,0.77h0.11
			c-0.02-0.18-0.05-0.43-0.07-0.75s-0.04-0.57-0.04-0.77v-3.86h1.46v13.68h-1.18l-0.22-1.37h-0.06c-0.18,0.29-0.41,0.55-0.69,0.78
			c-0.28,0.23-0.61,0.42-0.99,0.56C431.28,529.93,430.82,530,430.3,530z M430.53,528.79c1.03,0,1.76-0.29,2.19-0.88
			s0.64-1.46,0.64-2.61v-0.26c0-1.22-0.21-2.17-0.61-2.82c-0.41-0.66-1.15-0.98-2.22-0.98c-0.9,0-1.57,0.34-2.01,1.03
			c-0.45,0.69-0.67,1.63-0.67,2.82c0,1.18,0.22,2.1,0.66,2.74C428.96,528.46,429.63,528.79,430.53,528.79z"/>
		<path class="st1" d="M446.17,520.03c1.15,0,2,0.26,2.56,0.77s0.83,1.34,0.83,2.47v6.55h-1.06l-0.28-1.42h-0.07
			c-0.27,0.35-0.55,0.65-0.84,0.88c-0.29,0.24-0.63,0.42-1.02,0.54c-0.38,0.12-0.85,0.18-1.41,0.18c-0.59,0-1.11-0.1-1.56-0.31
			c-0.46-0.21-0.81-0.52-1.07-0.93c-0.26-0.42-0.39-0.94-0.39-1.58c0-0.96,0.38-1.7,1.14-2.21s1.92-0.8,3.48-0.84l1.66-0.07v-0.59
			c0-0.83-0.18-1.42-0.54-1.75s-0.86-0.5-1.51-0.5c-0.5,0-0.98,0.07-1.44,0.22s-0.89,0.32-1.3,0.52l-0.45-1.11
			c0.43-0.22,0.93-0.41,1.49-0.57S445.55,520.03,446.17,520.03z M448.12,525.08l-1.47,0.06c-1.2,0.05-2.05,0.24-2.54,0.59
			s-0.74,0.83-0.74,1.47c0,0.55,0.17,0.96,0.5,1.22s0.78,0.4,1.33,0.4c0.86,0,1.56-0.24,2.1-0.71s0.82-1.19,0.82-2.14V525.08z"/>
		<path class="st1" d="M458.7,516.15v4.09c0,0.23-0.01,0.47-0.02,0.71c-0.01,0.24-0.03,0.46-0.06,0.66h0.1
			c0.2-0.34,0.45-0.63,0.76-0.86c0.31-0.23,0.66-0.41,1.05-0.53c0.39-0.12,0.81-0.18,1.25-0.18c0.77,0,1.42,0.12,1.94,0.37
			c0.52,0.25,0.91,0.63,1.17,1.14c0.26,0.52,0.39,1.18,0.39,2v6.28h-1.44v-6.18c0-0.8-0.18-1.4-0.55-1.8
			c-0.37-0.4-0.93-0.6-1.68-0.6c-0.71,0-1.29,0.14-1.71,0.41c-0.43,0.27-0.73,0.67-0.91,1.2c-0.18,0.53-0.28,1.17-0.28,1.93v5.04
			h-1.46v-13.68H458.7z"/>
		<path class="st1" d="M469.03,516.59c0.24,0,0.45,0.08,0.62,0.23c0.17,0.15,0.26,0.4,0.26,0.72c0,0.32-0.09,0.56-0.26,0.72
			c-0.17,0.16-0.38,0.24-0.62,0.24c-0.25,0-0.46-0.08-0.63-0.24c-0.17-0.16-0.25-0.4-0.25-0.72c0-0.33,0.08-0.57,0.25-0.72
			C468.57,516.66,468.78,516.59,469.03,516.59z M469.74,520.19v9.63h-1.46v-9.63H469.74z"/>
		<path class="st1" d="M477.39,520.01c1.14,0,2.01,0.28,2.59,0.84c0.59,0.56,0.88,1.46,0.88,2.69v6.28h-1.44v-6.18
			c0-0.8-0.18-1.4-0.55-1.8c-0.37-0.4-0.93-0.6-1.68-0.6c-1.07,0-1.82,0.3-2.25,0.91s-0.65,1.48-0.65,2.63v5.04h-1.46v-9.63H474
			l0.22,1.39h0.08c0.21-0.34,0.46-0.63,0.78-0.86c0.32-0.23,0.67-0.41,1.06-0.53C476.54,520.07,476.95,520.01,477.39,520.01z"/>
		<path class="st1" d="M486.98,528.8c0.24,0,0.49-0.02,0.74-0.06s0.46-0.09,0.62-0.15v1.13c-0.17,0.08-0.41,0.14-0.71,0.19
			c-0.3,0.05-0.6,0.08-0.88,0.08c-0.51,0-0.97-0.09-1.39-0.27c-0.42-0.18-0.75-0.48-1-0.91c-0.25-0.43-0.37-1.02-0.37-1.78v-5.71
			h-1.37v-0.71l1.38-0.57l0.58-2.09h0.88v2.23h2.82v1.14h-2.82V527c0,0.6,0.14,1.05,0.42,1.35
			C486.14,528.65,486.51,528.8,486.98,528.8z"/>
		<path class="st1" d="M335.69,546.99c0,0.79-0.1,1.5-0.31,2.12s-0.5,1.15-0.89,1.57s-0.85,0.75-1.4,0.98
			c-0.55,0.23-1.17,0.34-1.86,0.34c-0.64,0-1.24-0.11-1.77-0.34c-0.54-0.22-1-0.55-1.39-0.98c-0.39-0.43-0.69-0.95-0.91-1.57
			c-0.21-0.62-0.32-1.33-0.32-2.12c0-1.05,0.18-1.95,0.54-2.69c0.36-0.74,0.87-1.31,1.53-1.7c0.66-0.39,1.46-0.58,2.38-0.58
			c0.88,0,1.65,0.2,2.31,0.59c0.66,0.39,1.17,0.96,1.54,1.7C335.5,545.04,335.69,545.94,335.69,546.99z M328.36,546.99
			c0,0.77,0.1,1.44,0.31,2.01s0.52,1.01,0.95,1.32s0.98,0.47,1.65,0.47c0.67,0,1.22-0.16,1.65-0.47c0.43-0.31,0.75-0.75,0.96-1.32
			s0.31-1.24,0.31-2.01c0-0.77-0.1-1.43-0.31-1.99c-0.21-0.56-0.52-0.99-0.95-1.3s-0.98-0.46-1.66-0.46c-1,0-1.74,0.33-2.2,0.99
			C328.59,544.9,328.36,545.82,328.36,546.99z"/>
		<path class="st1" d="M342.5,543.33h-2.4v8.49h-1.46v-8.49h-1.71v-0.7l1.71-0.48v-0.64c0-0.81,0.12-1.47,0.36-1.97
			c0.24-0.51,0.59-0.88,1.04-1.12s1.01-0.36,1.67-0.36c0.37,0,0.71,0.03,1.02,0.1c0.31,0.06,0.58,0.14,0.81,0.22l-0.38,1.15
			c-0.2-0.06-0.42-0.12-0.67-0.18c-0.25-0.05-0.5-0.08-0.76-0.08c-0.56,0-0.97,0.18-1.23,0.54c-0.27,0.36-0.4,0.92-0.4,1.69v0.7h2.4
			V543.33z"/>
		<path class="st1" d="M347.78,556.15c-0.3,0-0.56-0.02-0.78-0.07c-0.22-0.04-0.42-0.1-0.58-0.15v-1.19
			c0.18,0.06,0.37,0.1,0.55,0.14c0.19,0.03,0.4,0.05,0.63,0.05c0.4,0,0.72-0.11,0.97-0.33s0.37-0.63,0.37-1.21v-11.19h1.46v11.15
			c0,0.59-0.09,1.09-0.28,1.51c-0.19,0.42-0.47,0.74-0.86,0.96S348.38,556.15,347.78,556.15z M348.81,539.54
			c0-0.33,0.08-0.57,0.25-0.72c0.17-0.16,0.38-0.23,0.63-0.23c0.24,0,0.45,0.08,0.62,0.23c0.17,0.15,0.26,0.4,0.26,0.72
			c0,0.32-0.09,0.56-0.26,0.72c-0.17,0.16-0.38,0.24-0.62,0.24c-0.25,0-0.46-0.08-0.63-0.24
			C348.89,540.11,348.81,539.87,348.81,539.54z"/>
		<path class="st1" d="M357.09,542.03c1.15,0,2,0.26,2.56,0.77s0.84,1.34,0.84,2.47v6.55h-1.06l-0.28-1.42h-0.07
			c-0.27,0.35-0.55,0.65-0.84,0.88c-0.29,0.24-0.63,0.42-1.02,0.54c-0.38,0.12-0.85,0.18-1.41,0.18c-0.59,0-1.11-0.1-1.56-0.31
			c-0.45-0.21-0.81-0.52-1.07-0.93c-0.26-0.42-0.39-0.94-0.39-1.58c0-0.96,0.38-1.7,1.14-2.21s1.92-0.8,3.48-0.84l1.66-0.07v-0.59
			c0-0.83-0.18-1.42-0.54-1.75s-0.86-0.5-1.51-0.5c-0.5,0-0.98,0.07-1.44,0.22s-0.89,0.32-1.3,0.52l-0.45-1.11
			c0.43-0.22,0.93-0.41,1.49-0.57S356.47,542.03,357.09,542.03z M359.04,547.08l-1.47,0.06c-1.2,0.05-2.05,0.24-2.54,0.59
			s-0.74,0.83-0.74,1.47c0,0.55,0.17,0.96,0.5,1.22s0.78,0.4,1.33,0.4c0.86,0,1.55-0.24,2.1-0.71s0.82-1.19,0.82-2.14V547.08z"/>
		<path class="st1" d="M365.61,551.82l-3.66-9.63h1.56l2.12,5.83c0.15,0.4,0.29,0.84,0.45,1.32s0.26,0.87,0.32,1.16h0.06
			c0.07-0.29,0.19-0.68,0.35-1.16c0.16-0.48,0.31-0.92,0.45-1.31l2.12-5.83h1.56l-3.67,9.63H365.61z"/>
		<path class="st1" d="M376.08,542.03c1.15,0,2,0.26,2.56,0.77s0.83,1.34,0.83,2.47v6.55h-1.06l-0.28-1.42h-0.07
			c-0.27,0.35-0.55,0.65-0.84,0.88c-0.29,0.24-0.63,0.42-1.02,0.54c-0.38,0.12-0.85,0.18-1.41,0.18c-0.59,0-1.11-0.1-1.56-0.31
			c-0.46-0.21-0.81-0.52-1.07-0.93c-0.26-0.42-0.39-0.94-0.39-1.58c0-0.96,0.38-1.7,1.14-2.21s1.92-0.8,3.48-0.84l1.66-0.07v-0.59
			c0-0.83-0.18-1.42-0.54-1.75s-0.86-0.5-1.51-0.5c-0.5,0-0.98,0.07-1.44,0.22s-0.89,0.32-1.3,0.52l-0.45-1.11
			c0.43-0.22,0.93-0.41,1.49-0.57S375.46,542.03,376.08,542.03z M378.03,547.08l-1.47,0.06c-1.2,0.05-2.05,0.24-2.54,0.59
			s-0.74,0.83-0.74,1.47c0,0.55,0.17,0.96,0.5,1.22s0.78,0.4,1.33,0.4c0.86,0,1.56-0.24,2.1-0.71s0.82-1.19,0.82-2.14V547.08z"/>
		<path class="st1" d="M388.71,549.19c0,0.62-0.15,1.13-0.46,1.55c-0.31,0.42-0.75,0.73-1.32,0.94c-0.57,0.21-1.25,0.32-2.04,0.32
			c-0.67,0-1.26-0.05-1.75-0.16s-0.92-0.25-1.29-0.45v-1.34c0.39,0.19,0.86,0.37,1.41,0.53s1.1,0.24,1.67,0.24
			c0.83,0,1.44-0.13,1.81-0.4s0.56-0.64,0.56-1.1c0-0.26-0.07-0.5-0.22-0.7c-0.15-0.2-0.4-0.4-0.75-0.59
			c-0.35-0.19-0.84-0.4-1.46-0.63c-0.62-0.23-1.15-0.47-1.6-0.7c-0.45-0.23-0.79-0.51-1.04-0.85c-0.24-0.33-0.37-0.77-0.37-1.3
			c0-0.81,0.33-1.44,0.99-1.88c0.66-0.44,1.52-0.66,2.6-0.66c0.58,0,1.12,0.06,1.63,0.17c0.51,0.12,0.98,0.27,1.42,0.46l-0.49,1.17
			c-0.4-0.17-0.82-0.31-1.28-0.43s-0.91-0.18-1.38-0.18c-0.67,0-1.19,0.11-1.55,0.33c-0.36,0.22-0.54,0.53-0.54,0.91
			c0,0.3,0.08,0.54,0.25,0.74c0.17,0.19,0.44,0.38,0.8,0.54s0.86,0.37,1.46,0.6c0.6,0.22,1.12,0.45,1.56,0.69
			c0.44,0.24,0.78,0.52,1.02,0.86C388.59,548.23,388.71,548.66,388.71,549.19z"/>
		<path class="st1" d="M394.92,552c-0.87,0-1.63-0.18-2.29-0.54s-1.18-0.9-1.55-1.63s-0.55-1.66-0.55-2.77
			c0-1.17,0.19-2.12,0.58-2.86c0.39-0.74,0.93-1.29,1.61-1.65s1.46-0.54,2.34-0.54c0.48,0,0.95,0.05,1.39,0.15
			c0.45,0.1,0.82,0.22,1.1,0.36l-0.44,1.22c-0.29-0.12-0.63-0.22-1.02-0.32c-0.38-0.09-0.74-0.14-1.08-0.14
			c-0.67,0-1.22,0.14-1.67,0.43c-0.44,0.29-0.77,0.71-0.99,1.27c-0.22,0.56-0.33,1.24-0.33,2.06c0,0.78,0.11,1.44,0.32,2
			c0.21,0.55,0.53,0.97,0.96,1.26c0.42,0.29,0.96,0.43,1.59,0.43c0.51,0,0.97-0.05,1.38-0.16c0.41-0.11,0.78-0.24,1.12-0.38v1.3
			c-0.32,0.16-0.68,0.29-1.08,0.38C395.93,551.95,395.46,552,394.92,552z"/>
		<path class="st1" d="M404.06,542.01c0.19,0,0.39,0.01,0.61,0.03c0.21,0.02,0.4,0.05,0.56,0.08l-0.18,1.35
			c-0.16-0.04-0.33-0.07-0.53-0.1s-0.38-0.04-0.54-0.04c-0.39,0-0.75,0.08-1.1,0.23c-0.34,0.15-0.64,0.38-0.9,0.67
			c-0.26,0.29-0.46,0.64-0.61,1.04c-0.15,0.41-0.22,0.86-0.22,1.36v5.17h-1.47v-9.63h1.21l0.16,1.78h0.06
			c0.2-0.36,0.44-0.68,0.72-0.98c0.28-0.3,0.61-0.53,0.98-0.71C403.19,542.1,403.6,542.01,404.06,542.01z"/>
		<path class="st1" d="M407.79,538.59c0.24,0,0.45,0.08,0.62,0.23c0.17,0.15,0.26,0.4,0.26,0.72c0,0.32-0.09,0.56-0.26,0.72
			c-0.17,0.16-0.38,0.24-0.62,0.24c-0.25,0-0.46-0.08-0.63-0.24c-0.17-0.16-0.25-0.4-0.25-0.72c0-0.33,0.08-0.57,0.25-0.72
			C407.32,538.66,407.53,538.59,407.79,538.59z M408.5,542.19v9.63h-1.46v-9.63H408.5z"/>
		<path class="st1" d="M416.11,542.01c1.2,0,2.16,0.41,2.88,1.24s1.07,2.07,1.07,3.73c0,1.1-0.16,2.02-0.49,2.76
			s-0.79,1.31-1.38,1.69c-0.6,0.38-1.3,0.57-2.11,0.57c-0.51,0-0.96-0.07-1.34-0.2s-0.72-0.32-0.99-0.54s-0.5-0.48-0.69-0.75h-0.11
			c0.02,0.23,0.04,0.5,0.07,0.83c0.03,0.32,0.04,0.6,0.04,0.84v3.96h-1.47v-13.94h1.2l0.19,1.42h0.07c0.19-0.29,0.42-0.56,0.69-0.8
			c0.27-0.24,0.6-0.44,0.99-0.58C415.11,542.09,415.57,542.01,416.11,542.01z M415.85,543.24c-0.67,0-1.21,0.13-1.61,0.39
			c-0.41,0.26-0.71,0.64-0.89,1.16c-0.19,0.51-0.29,1.16-0.3,1.93V547c0,0.81,0.09,1.5,0.27,2.07c0.18,0.56,0.47,0.99,0.89,1.28
			c0.41,0.29,0.97,0.44,1.67,0.44c0.6,0,1.1-0.16,1.49-0.48s0.7-0.77,0.89-1.35c0.2-0.58,0.29-1.24,0.29-1.99
			c0-1.14-0.22-2.04-0.66-2.71C417.45,543.58,416.77,543.24,415.85,543.24z"/>
		<path class="st1" d="M425.71,550.8c0.24,0,0.49-0.02,0.74-0.06s0.46-0.09,0.62-0.15v1.13c-0.17,0.08-0.41,0.14-0.71,0.19
			c-0.3,0.05-0.6,0.08-0.88,0.08c-0.51,0-0.97-0.09-1.39-0.27c-0.42-0.18-0.75-0.48-1-0.91c-0.25-0.43-0.37-1.02-0.37-1.78v-5.71
			h-1.37v-0.71l1.38-0.57l0.58-2.09h0.88v2.23H427v1.14h-2.82V549c0,0.6,0.14,1.05,0.42,1.35
			C424.87,550.65,425.24,550.8,425.71,550.8z"/>
	</g>
</g>
<g>
	<g>
		<path class="st1" d="M236.57,330.07c1.14,0,2.01,0.28,2.59,0.84c0.59,0.56,0.88,1.46,0.88,2.69v6.28h-1.44v-6.18
			c0-0.8-0.18-1.4-0.55-1.8s-0.93-0.6-1.68-0.6c-1.07,0-1.82,0.3-2.25,0.91s-0.65,1.48-0.65,2.63v5.04h-1.46v-9.63h1.18l0.22,1.39
			h0.08c0.21-0.34,0.47-0.62,0.78-0.86c0.32-0.23,0.67-0.41,1.06-0.53C235.72,330.13,236.14,330.07,236.57,330.07z"/>
		<path class="st1" d="M251.35,335.05c0,0.79-0.1,1.5-0.31,2.12s-0.5,1.15-0.89,1.57s-0.85,0.75-1.4,0.98
			c-0.55,0.22-1.17,0.34-1.86,0.34c-0.64,0-1.24-0.11-1.77-0.34c-0.54-0.23-1-0.55-1.39-0.98c-0.39-0.43-0.69-0.95-0.91-1.57
			s-0.32-1.33-0.32-2.12c0-1.05,0.18-1.95,0.54-2.69c0.36-0.74,0.87-1.31,1.53-1.7c0.66-0.39,1.46-0.58,2.38-0.58
			c0.88,0,1.65,0.2,2.31,0.59c0.66,0.39,1.17,0.96,1.54,1.7C251.17,333.1,251.35,334,251.35,335.05z M244.02,335.05
			c0,0.77,0.1,1.44,0.31,2.01s0.52,1.01,0.95,1.32s0.98,0.47,1.65,0.47c0.67,0,1.22-0.16,1.65-0.47c0.43-0.31,0.75-0.75,0.95-1.32
			s0.31-1.24,0.31-2.01c0-0.77-0.1-1.43-0.31-1.99c-0.21-0.56-0.52-0.99-0.95-1.3s-0.98-0.46-1.66-0.46c-1,0-1.74,0.33-2.2,0.99
			C244.26,332.96,244.02,333.87,244.02,335.05z"/>
		<path class="st1" d="M261.66,338.86c0.24,0,0.49-0.02,0.74-0.06s0.46-0.09,0.62-0.15v1.13c-0.17,0.08-0.41,0.14-0.71,0.19
			s-0.6,0.08-0.88,0.08c-0.51,0-0.97-0.09-1.39-0.27c-0.42-0.18-0.75-0.48-1-0.91s-0.37-1.02-0.37-1.78v-5.71h-1.37v-0.71l1.38-0.57
			l0.58-2.09h0.88v2.23h2.82v1.14h-2.82v5.67c0,0.6,0.14,1.05,0.42,1.35S261.2,338.86,261.66,338.86z"/>
		<path class="st1" d="M266.43,326.2v4.09c0,0.23-0.01,0.47-0.02,0.71c-0.01,0.24-0.03,0.46-0.06,0.65h0.1
			c0.2-0.34,0.45-0.62,0.76-0.86c0.31-0.23,0.66-0.41,1.05-0.53c0.39-0.12,0.81-0.18,1.25-0.18c0.77,0,1.42,0.12,1.94,0.37
			c0.52,0.25,0.91,0.63,1.17,1.14s0.39,1.18,0.39,2v6.28h-1.44v-6.18c0-0.8-0.18-1.4-0.55-1.8s-0.93-0.6-1.68-0.6
			c-0.71,0-1.29,0.14-1.71,0.41c-0.42,0.27-0.73,0.67-0.91,1.2c-0.18,0.53-0.28,1.17-0.28,1.93v5.04h-1.46V326.2H266.43z"/>
		<path class="st1" d="M276.75,326.64c0.24,0,0.45,0.08,0.62,0.23c0.17,0.16,0.26,0.4,0.26,0.73c0,0.32-0.09,0.56-0.26,0.72
			s-0.38,0.24-0.62,0.24c-0.25,0-0.46-0.08-0.63-0.24c-0.17-0.16-0.25-0.4-0.25-0.72c0-0.33,0.08-0.57,0.25-0.73
			C276.29,326.72,276.5,326.64,276.75,326.64z M277.47,330.25v9.63h-1.46v-9.63H277.47z"/>
		<path class="st1" d="M284.93,330.07c0.19,0,0.4,0.01,0.61,0.03c0.21,0.02,0.4,0.05,0.56,0.08l-0.18,1.35
			c-0.16-0.04-0.33-0.07-0.53-0.1s-0.38-0.04-0.54-0.04c-0.39,0-0.75,0.08-1.09,0.23c-0.34,0.16-0.64,0.38-0.9,0.67
			c-0.26,0.29-0.46,0.64-0.61,1.05c-0.15,0.41-0.22,0.86-0.22,1.36v5.17h-1.47v-9.63h1.21l0.16,1.78h0.06
			c0.2-0.36,0.44-0.68,0.72-0.98c0.28-0.29,0.61-0.53,0.98-0.71C284.06,330.16,284.47,330.07,284.93,330.07z"/>
		<path class="st1" d="M291.33,340.06c-1.22,0-2.18-0.42-2.9-1.25c-0.71-0.83-1.07-2.07-1.07-3.71c0-1.66,0.36-2.91,1.09-3.76
			c0.73-0.85,1.69-1.27,2.9-1.27c0.51,0,0.96,0.07,1.34,0.2s0.71,0.32,0.98,0.54c0.28,0.23,0.51,0.48,0.69,0.77h0.11
			c-0.02-0.18-0.05-0.43-0.07-0.75s-0.04-0.57-0.04-0.77v-3.86h1.46v13.68h-1.18l-0.22-1.37h-0.06c-0.18,0.29-0.41,0.55-0.69,0.78
			s-0.61,0.42-0.99,0.56C292.31,339.99,291.86,340.06,291.33,340.06z M291.56,338.84c1.03,0,1.76-0.29,2.19-0.88
			s0.64-1.46,0.64-2.61v-0.26c0-1.22-0.2-2.17-0.61-2.82c-0.41-0.66-1.15-0.98-2.22-0.98c-0.9,0-1.57,0.34-2.01,1.03
			c-0.45,0.69-0.67,1.63-0.67,2.82c0,1.18,0.22,2.1,0.66,2.74C289.99,338.52,290.66,338.84,291.56,338.84z"/>
		<path class="st1" d="M298.1,335.7v-1.3h4.36v1.3H298.1z"/>
		<path class="st1" d="M309.24,330.07c1.2,0,2.16,0.41,2.87,1.24s1.07,2.07,1.07,3.73c0,1.1-0.16,2.02-0.49,2.76
			s-0.79,1.31-1.38,1.69c-0.6,0.38-1.3,0.57-2.11,0.57c-0.51,0-0.96-0.07-1.34-0.2s-0.72-0.32-0.99-0.54s-0.5-0.48-0.69-0.75h-0.11
			c0.02,0.23,0.04,0.5,0.07,0.83c0.03,0.32,0.04,0.6,0.04,0.84v3.96h-1.47v-13.94h1.2l0.19,1.42h0.07c0.19-0.29,0.42-0.56,0.69-0.8
			c0.27-0.24,0.6-0.44,0.99-0.58C308.24,330.14,308.7,330.07,309.24,330.07z M308.98,331.3c-0.67,0-1.21,0.13-1.61,0.39
			c-0.41,0.26-0.71,0.64-0.89,1.16c-0.19,0.51-0.29,1.16-0.3,1.93v0.28c0,0.81,0.09,1.5,0.27,2.07s0.47,0.99,0.89,1.28
			c0.41,0.29,0.97,0.44,1.67,0.44c0.6,0,1.1-0.16,1.49-0.48s0.7-0.77,0.89-1.35c0.2-0.58,0.29-1.24,0.29-1.99
			c0-1.14-0.22-2.04-0.66-2.71C310.57,331.64,309.9,331.3,308.98,331.3z"/>
		<path class="st1" d="M319.33,330.09c1.15,0,2,0.26,2.56,0.77s0.83,1.34,0.83,2.47v6.55h-1.06l-0.28-1.42h-0.07
			c-0.27,0.35-0.55,0.65-0.84,0.88c-0.29,0.24-0.63,0.42-1.02,0.54c-0.38,0.12-0.85,0.18-1.41,0.18c-0.59,0-1.11-0.1-1.56-0.31
			s-0.81-0.52-1.07-0.93s-0.39-0.94-0.39-1.58c0-0.96,0.38-1.7,1.14-2.21s1.92-0.8,3.48-0.84l1.66-0.07v-0.59
			c0-0.83-0.18-1.42-0.54-1.75s-0.86-0.5-1.51-0.5c-0.5,0-0.98,0.07-1.44,0.22s-0.89,0.32-1.3,0.52l-0.45-1.11
			c0.43-0.22,0.93-0.41,1.49-0.57S318.71,330.09,319.33,330.09z M321.28,335.13l-1.47,0.06c-1.2,0.05-2.05,0.24-2.54,0.59
			s-0.74,0.83-0.74,1.47c0,0.55,0.17,0.96,0.5,1.22s0.78,0.4,1.33,0.4c0.86,0,1.56-0.24,2.1-0.71s0.82-1.19,0.82-2.14V335.13z"/>
		<path class="st1" d="M330.1,330.07c0.19,0,0.4,0.01,0.61,0.03c0.21,0.02,0.4,0.05,0.56,0.08l-0.18,1.35
			c-0.16-0.04-0.33-0.07-0.53-0.1s-0.38-0.04-0.54-0.04c-0.39,0-0.75,0.08-1.09,0.23c-0.34,0.16-0.64,0.38-0.9,0.67
			c-0.26,0.29-0.46,0.64-0.61,1.05c-0.15,0.41-0.22,0.86-0.22,1.36v5.17h-1.47v-9.63h1.21l0.16,1.78h0.06
			c0.2-0.36,0.44-0.68,0.72-0.98c0.28-0.29,0.61-0.53,0.98-0.71C329.23,330.16,329.65,330.07,330.1,330.07z"/>
		<path class="st1" d="M336.19,338.86c0.24,0,0.49-0.02,0.74-0.06s0.46-0.09,0.62-0.15v1.13c-0.17,0.08-0.41,0.14-0.71,0.19
			s-0.6,0.08-0.88,0.08c-0.51,0-0.97-0.09-1.39-0.27c-0.42-0.18-0.75-0.48-1-0.91s-0.37-1.02-0.37-1.78v-5.71h-1.37v-0.71l1.38-0.57
			l0.58-2.09h0.88v2.23h2.82v1.14h-2.82v5.67c0,0.6,0.14,1.05,0.42,1.35S335.73,338.86,336.19,338.86z"/>
		<path class="st1" d="M337.98,330.25h1.56l2.13,5.59c0.12,0.33,0.24,0.64,0.34,0.95c0.11,0.3,0.2,0.59,0.28,0.87
			s0.15,0.54,0.19,0.8h0.06c0.08-0.29,0.2-0.68,0.35-1.16c0.15-0.48,0.32-0.97,0.49-1.46l2.01-5.58h1.57l-4.19,11.05
			c-0.22,0.59-0.48,1.11-0.78,1.55s-0.65,0.78-1.08,1.01c-0.42,0.24-0.93,0.36-1.53,0.36c-0.28,0-0.52-0.02-0.73-0.05
			c-0.21-0.03-0.39-0.07-0.54-0.11v-1.17c0.13,0.03,0.29,0.06,0.47,0.08c0.19,0.02,0.38,0.04,0.58,0.04c0.36,0,0.68-0.07,0.95-0.21
			c0.27-0.14,0.5-0.34,0.69-0.6s0.36-0.58,0.5-0.94l0.53-1.35L337.98,330.25z"/>
		<path class="st1" d="M354.65,326.2v4.09c0,0.23-0.01,0.47-0.02,0.71c-0.01,0.24-0.03,0.46-0.06,0.65h0.1
			c0.2-0.34,0.45-0.62,0.76-0.86c0.31-0.23,0.66-0.41,1.05-0.53c0.39-0.12,0.81-0.18,1.25-0.18c0.77,0,1.42,0.12,1.94,0.37
			c0.52,0.25,0.91,0.63,1.17,1.14s0.39,1.18,0.39,2v6.28h-1.44v-6.18c0-0.8-0.18-1.4-0.55-1.8s-0.93-0.6-1.68-0.6
			c-0.71,0-1.29,0.14-1.71,0.41c-0.42,0.27-0.73,0.67-0.91,1.2c-0.18,0.53-0.28,1.17-0.28,1.93v5.04h-1.46V326.2H354.65z"/>
		<path class="st1" d="M372.54,335.05c0,0.79-0.1,1.5-0.31,2.12s-0.5,1.15-0.89,1.57s-0.85,0.75-1.4,0.98
			c-0.55,0.22-1.17,0.34-1.86,0.34c-0.64,0-1.24-0.11-1.77-0.34c-0.54-0.23-1-0.55-1.39-0.98c-0.39-0.43-0.69-0.95-0.91-1.57
			s-0.32-1.33-0.32-2.12c0-1.05,0.18-1.95,0.54-2.69c0.36-0.74,0.87-1.31,1.53-1.7c0.66-0.39,1.46-0.58,2.38-0.58
			c0.88,0,1.65,0.2,2.31,0.59c0.66,0.39,1.17,0.96,1.54,1.7C372.35,333.1,372.54,334,372.54,335.05z M365.21,335.05
			c0,0.77,0.1,1.44,0.31,2.01s0.52,1.01,0.95,1.32s0.98,0.47,1.65,0.47c0.67,0,1.22-0.16,1.65-0.47c0.43-0.31,0.75-0.75,0.95-1.32
			s0.31-1.24,0.31-2.01c0-0.77-0.1-1.43-0.31-1.99c-0.21-0.56-0.52-0.99-0.95-1.3s-0.98-0.46-1.66-0.46c-1,0-1.74,0.33-2.2,0.99
			C365.44,332.96,365.21,333.87,365.21,335.05z"/>
		<path class="st1" d="M381.29,337.24c0,0.62-0.15,1.13-0.46,1.55c-0.31,0.42-0.75,0.73-1.32,0.95c-0.57,0.21-1.25,0.32-2.04,0.32
			c-0.67,0-1.26-0.05-1.75-0.16s-0.92-0.25-1.29-0.45v-1.34c0.39,0.19,0.86,0.37,1.41,0.53s1.1,0.24,1.67,0.24
			c0.83,0,1.44-0.13,1.81-0.4s0.56-0.64,0.56-1.1c0-0.26-0.08-0.5-0.22-0.7c-0.15-0.2-0.4-0.4-0.75-0.59
			c-0.35-0.19-0.84-0.4-1.46-0.63c-0.62-0.23-1.15-0.47-1.6-0.7c-0.45-0.23-0.79-0.51-1.04-0.85s-0.36-0.77-0.36-1.3
			c0-0.81,0.33-1.44,0.99-1.88c0.66-0.44,1.52-0.65,2.6-0.65c0.58,0,1.12,0.06,1.63,0.17c0.51,0.11,0.98,0.27,1.42,0.46l-0.49,1.17
			c-0.4-0.17-0.82-0.31-1.27-0.43s-0.91-0.18-1.38-0.18c-0.67,0-1.19,0.11-1.55,0.33c-0.36,0.22-0.54,0.53-0.54,0.91
			c0,0.3,0.08,0.54,0.25,0.74c0.17,0.19,0.44,0.38,0.8,0.54s0.86,0.37,1.46,0.6c0.6,0.22,1.12,0.45,1.56,0.69
			c0.44,0.24,0.78,0.53,1.02,0.86C381.17,336.28,381.29,336.72,381.29,337.24z"/>
		<path class="st1" d="M386.75,338.86c0.24,0,0.49-0.02,0.74-0.06s0.46-0.09,0.62-0.15v1.13c-0.17,0.08-0.41,0.14-0.71,0.19
			s-0.6,0.08-0.88,0.08c-0.51,0-0.97-0.09-1.39-0.27c-0.42-0.18-0.75-0.48-1-0.91s-0.37-1.02-0.37-1.78v-5.71h-1.37v-0.71l1.38-0.57
			l0.58-2.09h0.88v2.23h2.82v1.14h-2.82v5.67c0,0.6,0.14,1.05,0.42,1.35S386.29,338.86,386.75,338.86z"/>
		<path class="st1" d="M390.8,326.64c0.24,0,0.45,0.08,0.62,0.23c0.17,0.16,0.26,0.4,0.26,0.73c0,0.32-0.09,0.56-0.26,0.72
			s-0.38,0.24-0.62,0.24c-0.25,0-0.46-0.08-0.63-0.24c-0.17-0.16-0.25-0.4-0.25-0.72c0-0.33,0.08-0.57,0.25-0.73
			C390.34,326.72,390.55,326.64,390.8,326.64z M391.51,330.25v9.63h-1.46v-9.63H391.51z"/>
		<path class="st1" d="M399.16,330.07c1.14,0,2.01,0.28,2.59,0.84c0.59,0.56,0.88,1.46,0.88,2.69v6.28h-1.44v-6.18
			c0-0.8-0.18-1.4-0.55-1.8s-0.93-0.6-1.68-0.6c-1.07,0-1.82,0.3-2.25,0.91s-0.65,1.48-0.65,2.63v5.04h-1.46v-9.63h1.18l0.22,1.39
			h0.08c0.21-0.34,0.47-0.62,0.78-0.86c0.32-0.23,0.67-0.41,1.06-0.53C398.31,330.13,398.73,330.07,399.16,330.07z"/>
		<path class="st1" d="M408.33,344.2c-1.27,0-2.24-0.24-2.93-0.71c-0.69-0.47-1.03-1.13-1.03-1.98c0-0.6,0.19-1.12,0.58-1.55
			s0.92-0.71,1.6-0.85c-0.25-0.12-0.47-0.29-0.65-0.53s-0.27-0.5-0.27-0.81c0-0.35,0.1-0.66,0.29-0.93c0.2-0.27,0.5-0.52,0.9-0.77
			c-0.5-0.21-0.91-0.55-1.23-1.04c-0.31-0.49-0.47-1.06-0.47-1.71c0-0.69,0.14-1.28,0.43-1.77c0.29-0.49,0.7-0.86,1.25-1.12
			s1.2-0.39,1.98-0.39c0.17,0,0.34,0.01,0.51,0.02c0.17,0.02,0.34,0.04,0.5,0.06c0.16,0.03,0.3,0.06,0.41,0.09h3.3v0.94l-1.78,0.22
			c0.18,0.23,0.32,0.5,0.44,0.83s0.18,0.68,0.18,1.07c0,0.96-0.33,1.72-0.98,2.29c-0.65,0.57-1.54,0.85-2.68,0.85
			c-0.27,0-0.54-0.02-0.83-0.07c-0.29,0.16-0.5,0.33-0.66,0.53c-0.15,0.19-0.22,0.42-0.22,0.67c0,0.19,0.06,0.34,0.17,0.45
			c0.12,0.11,0.28,0.19,0.5,0.24c0.22,0.05,0.48,0.07,0.78,0.07h1.7c1.05,0,1.85,0.22,2.41,0.66c0.56,0.44,0.84,1.08,0.84,1.92
			c0,1.07-0.43,1.88-1.3,2.45S409.97,344.2,408.33,344.2z M408.37,343.06c0.8,0,1.46-0.08,1.98-0.24c0.52-0.16,0.92-0.39,1.18-0.69
			c0.26-0.3,0.39-0.66,0.39-1.08c0-0.39-0.09-0.68-0.26-0.87c-0.18-0.2-0.43-0.33-0.77-0.4c-0.34-0.07-0.76-0.1-1.25-0.1h-1.67
			c-0.43,0-0.81,0.07-1.13,0.2s-0.57,0.33-0.74,0.6s-0.26,0.59-0.26,0.98c0,0.52,0.22,0.92,0.66,1.19
			C406.93,342.92,407.56,343.06,408.37,343.06z M408.75,335.36c0.7,0,1.22-0.18,1.57-0.53s0.53-0.86,0.53-1.54
			c0-0.72-0.18-1.26-0.54-1.62c-0.36-0.36-0.88-0.54-1.58-0.54c-0.67,0-1.18,0.19-1.54,0.56c-0.36,0.37-0.54,0.92-0.54,1.63
			c0,0.66,0.18,1.16,0.54,1.51S408.07,335.36,408.75,335.36z"/>
	</g>
</g>
<g>
	<g>
		<path class="st1" d="M202.39,113.51c0,1.52-0.38,2.82-1.13,3.89s-1.81,1.89-3.17,2.45s-2.96,0.84-4.8,0.84
			c-0.97,0-1.89-0.05-2.76-0.14s-1.66-0.23-2.39-0.4s-1.37-0.39-1.92-0.65v-2.87c0.88,0.36,1.95,0.7,3.22,1.01s2.59,0.46,3.97,0.46
			c1.29,0,2.38-0.17,3.27-0.52s1.57-0.84,2.03-1.49s0.7-1.43,0.7-2.35c0-0.88-0.19-1.61-0.58-2.21s-1.03-1.13-1.93-1.62
			s-2.12-1.01-3.66-1.56c-1.09-0.39-2.05-0.81-2.88-1.27s-1.53-0.99-2.09-1.57s-0.99-1.27-1.28-2.04s-0.43-1.66-0.43-2.65
			c0-1.37,0.35-2.54,1.04-3.52s1.66-1.73,2.9-2.25s2.66-0.78,4.26-0.78c1.37,0,2.64,0.13,3.8,0.39s2.24,0.6,3.21,1.04l-0.93,2.57
			c-0.93-0.39-1.91-0.71-2.95-0.97s-2.11-0.39-3.21-0.39s-2.03,0.16-2.79,0.48s-1.33,0.78-1.73,1.36s-0.6,1.28-0.6,2.09
			c0,0.9,0.19,1.65,0.57,2.25s0.99,1.13,1.83,1.59s1.95,0.95,3.33,1.45c1.51,0.55,2.79,1.13,3.85,1.75s1.86,1.37,2.41,2.25
			S202.39,112.15,202.39,113.51z"/>
		<path class="st1" d="M213.41,118.31c0.48,0,0.97-0.04,1.48-0.12s0.91-0.18,1.23-0.3v2.27c-0.34,0.15-0.81,0.28-1.42,0.39
			s-1.19,0.16-1.77,0.16c-1.02,0-1.95-0.18-2.78-0.54s-1.5-0.96-2-1.82s-0.75-2.04-0.75-3.55v-11.43h-2.74v-1.42l2.76-1.14
			l1.16-4.18h1.76v4.46h5.64v2.29h-5.64v11.34c0,1.21,0.28,2.11,0.83,2.71S212.48,118.31,213.41,118.31z"/>
		<path class="st1" d="M227.43,100.73c1.64,0,3.05,0.36,4.22,1.09s2.07,1.74,2.69,3.05s0.93,2.83,0.93,4.58v1.81h-13.31
			c0.04,2.26,0.6,3.98,1.69,5.17s2.62,1.78,4.61,1.78c1.22,0,2.3-0.11,3.23-0.33s1.91-0.55,2.92-0.98v2.57
			c-0.97,0.43-1.94,0.75-2.89,0.95s-2.08,0.3-3.38,0.3c-1.85,0-3.47-0.38-4.84-1.13s-2.45-1.87-3.21-3.33s-1.14-3.26-1.14-5.38
			c0-2.07,0.35-3.87,1.04-5.39s1.68-2.69,2.95-3.51S225.71,100.73,227.43,100.73z M227.4,103.12c-1.56,0-2.8,0.51-3.73,1.53
			s-1.48,2.44-1.65,4.27h10.2c-0.01-1.15-0.19-2.16-0.54-3.03s-0.87-1.55-1.57-2.04S228.5,103.12,227.4,103.12z"/>
		<path class="st1" d="M249.28,100.73c2.4,0,4.32,0.83,5.75,2.48s2.14,4.14,2.14,7.45c0,2.19-0.33,4.03-0.98,5.52
			s-1.58,2.61-2.77,3.38s-2.59,1.14-4.21,1.14c-1.02,0-1.92-0.13-2.69-0.4s-1.44-0.63-1.99-1.09s-1.01-0.96-1.37-1.49h-0.21
			c0.04,0.46,0.08,1.01,0.13,1.65s0.08,1.21,0.08,1.69v7.91h-2.94v-27.88h2.41l0.39,2.85h0.14c0.38-0.59,0.83-1.12,1.37-1.61
			s1.2-0.87,1.98-1.16S248.22,100.73,249.28,100.73z M248.77,103.19c-1.34,0-2.41,0.26-3.23,0.77s-1.41,1.29-1.78,2.31
			s-0.57,2.31-0.6,3.86v0.56c0,1.63,0.18,3.01,0.54,4.13s0.95,1.98,1.78,2.57s1.94,0.88,3.33,0.88c1.2,0,2.19-0.32,2.99-0.97
			s1.39-1.54,1.78-2.7s0.59-2.48,0.59-3.98c0-2.27-0.44-4.08-1.33-5.42S250.6,103.19,248.77,103.19z"/>
		<path class="st1" d="M279.94,120.34h-3.01V97.28h-8.09v-2.64h19.14v2.64h-8.05V120.34z"/>
		<path class="st1" d="M294.35,92.99v8.17c0,0.47-0.01,0.94-0.04,1.42s-0.06,0.91-0.12,1.31h0.19c0.4-0.68,0.9-1.25,1.52-1.71
			s1.32-0.81,2.1-1.05s1.62-0.36,2.5-0.36c1.55,0,2.84,0.25,3.88,0.74s1.82,1.25,2.34,2.29s0.78,2.37,0.78,4.01v12.55h-2.88v-12.36
			c0-1.61-0.37-2.81-1.1-3.6s-1.85-1.2-3.37-1.2c-1.43,0-2.57,0.27-3.42,0.82s-1.46,1.34-1.83,2.4s-0.55,2.34-0.55,3.87v10.07h-2.92
			V92.99H294.35z"/>
		<path class="st1" d="M322.27,100.73c0.39,0,0.79,0.02,1.21,0.06s0.8,0.1,1.12,0.17l-0.37,2.71c-0.32-0.08-0.67-0.15-1.05-0.19
			s-0.75-0.07-1.09-0.07c-0.77,0-1.5,0.16-2.19,0.47s-1.29,0.76-1.8,1.34s-0.92,1.28-1.21,2.09s-0.44,1.72-0.44,2.71v10.34h-2.94
			v-19.27h2.43l0.32,3.55h0.12c0.4-0.71,0.88-1.37,1.44-1.96s1.21-1.06,1.96-1.42S321.35,100.73,322.27,100.73z"/>
		<path class="st1" d="M335.64,100.73c1.64,0,3.05,0.36,4.22,1.09s2.07,1.74,2.69,3.05s0.93,2.83,0.93,4.58v1.81h-13.31
			c0.04,2.26,0.6,3.98,1.69,5.17s2.62,1.78,4.61,1.78c1.22,0,2.3-0.11,3.23-0.33s1.91-0.55,2.92-0.98v2.57
			c-0.97,0.43-1.94,0.75-2.89,0.95s-2.08,0.3-3.38,0.3c-1.85,0-3.47-0.38-4.84-1.13s-2.45-1.87-3.21-3.33s-1.14-3.26-1.14-5.38
			c0-2.07,0.35-3.87,1.04-5.39s1.68-2.69,2.95-3.51S333.92,100.73,335.64,100.73z M335.61,103.12c-1.56,0-2.8,0.51-3.73,1.53
			s-1.48,2.44-1.65,4.27h10.2c-0.01-1.15-0.19-2.16-0.54-3.03s-0.87-1.55-1.57-2.04S336.71,103.12,335.61,103.12z"/>
		<path class="st1" d="M355.86,100.73c1.64,0,3.05,0.36,4.22,1.09s2.07,1.74,2.69,3.05s0.93,2.83,0.93,4.58v1.81h-13.31
			c0.04,2.26,0.6,3.98,1.69,5.17s2.62,1.78,4.61,1.78c1.22,0,2.3-0.11,3.23-0.33s1.91-0.55,2.92-0.98v2.57
			c-0.97,0.43-1.94,0.75-2.89,0.95s-2.08,0.3-3.38,0.3c-1.85,0-3.47-0.38-4.84-1.13s-2.45-1.87-3.21-3.33s-1.14-3.26-1.14-5.38
			c0-2.07,0.35-3.87,1.04-5.39s1.68-2.69,2.95-3.51S354.14,100.73,355.86,100.73z M355.82,103.12c-1.56,0-2.8,0.51-3.73,1.53
			s-1.48,2.44-1.65,4.27h10.2c-0.01-1.15-0.19-2.16-0.54-3.03s-0.87-1.55-1.57-2.04S356.93,103.12,355.82,103.12z"/>
		<path class="st1" d="M368.22,102.92c0-0.84,0.2-1.44,0.6-1.78s0.88-0.52,1.46-0.52c0.6,0,1.1,0.17,1.51,0.52s0.62,0.94,0.62,1.78
			c0,0.8-0.21,1.38-0.62,1.74s-0.91,0.54-1.51,0.54c-0.57,0-1.06-0.18-1.46-0.54S368.22,103.72,368.22,102.92z M368.22,118.52
			c0-0.82,0.2-1.4,0.6-1.75s0.88-0.52,1.46-0.52c0.6,0,1.1,0.17,1.51,0.52s0.62,0.93,0.62,1.75c0,0.81-0.21,1.4-0.62,1.77
			s-0.91,0.55-1.51,0.55c-0.57,0-1.06-0.18-1.46-0.55S368.22,119.33,368.22,118.52z"/>
		<path class="st1" d="M208.29,151.25c0,2.89-0.53,5.31-1.58,7.25s-2.58,3.4-4.58,4.38s-4.42,1.47-7.27,1.47h-6.98v-25.7h7.75
			c2.61,0,4.86,0.48,6.75,1.43s3.34,2.37,4.37,4.24S208.29,148.5,208.29,151.25z M205.14,151.35c0-2.31-0.38-4.21-1.15-5.71
			s-1.89-2.62-3.38-3.35s-3.29-1.1-5.44-1.1h-4.31v20.58h3.64c3.54,0,6.2-0.87,7.97-2.62S205.14,154.81,205.14,151.35z"/>
		<path class="st1" d="M215.06,137.87c0.48,0,0.89,0.16,1.24,0.47s0.52,0.79,0.52,1.45c0,0.64-0.17,1.12-0.52,1.44
			s-0.76,0.47-1.24,0.47c-0.5,0-0.92-0.16-1.26-0.47s-0.5-0.8-0.5-1.44c0-0.66,0.17-1.14,0.5-1.45S214.56,137.87,215.06,137.87z
			 M216.48,145.08v19.27h-2.92v-19.27H216.48z"/>
		<path class="st1" d="M228.03,172.99c-2.53,0-4.48-0.47-5.85-1.41s-2.06-2.27-2.06-3.96c0-1.21,0.38-2.24,1.15-3.09
			s1.83-1.42,3.19-1.71c-0.5-0.23-0.94-0.59-1.29-1.05s-0.54-1.01-0.54-1.62c0-0.7,0.2-1.32,0.59-1.85s0.99-1.05,1.8-1.54
			c-1.01-0.41-1.83-1.1-2.45-2.08s-0.94-2.12-0.94-3.42c0-1.38,0.29-2.56,0.86-3.54s1.41-1.73,2.5-2.24s2.41-0.77,3.96-0.77
			c0.34,0,0.68,0.02,1.03,0.04s0.68,0.07,0.99,0.12s0.59,0.11,0.83,0.18h6.61v1.88l-3.55,0.44c0.35,0.46,0.64,1.01,0.88,1.65
			s0.35,1.36,0.35,2.14c0,1.92-0.65,3.45-1.95,4.58s-3.09,1.7-5.36,1.7c-0.54,0-1.09-0.05-1.65-0.14c-0.57,0.32-1.01,0.67-1.31,1.05
			s-0.45,0.83-0.45,1.34c0,0.38,0.11,0.67,0.34,0.9s0.56,0.38,0.99,0.48s0.96,0.15,1.56,0.15h3.39c2.1,0,3.71,0.44,4.82,1.32
			s1.68,2.16,1.68,3.85c0,2.13-0.87,3.77-2.6,4.9S231.31,172.99,228.03,172.99z M228.12,170.71c1.59,0,2.91-0.16,3.96-0.48
			s1.83-0.79,2.36-1.39s0.78-1.32,0.78-2.15c0-0.77-0.18-1.36-0.53-1.75s-0.87-0.66-1.55-0.79s-1.51-0.2-2.5-0.2h-3.34
			c-0.87,0-1.62,0.13-2.27,0.4s-1.14,0.67-1.49,1.2s-0.52,1.18-0.52,1.97c0,1.04,0.44,1.84,1.32,2.38S226.49,170.71,228.12,170.71z
			 M228.88,155.31c1.39,0,2.44-0.35,3.15-1.05s1.05-1.73,1.05-3.08c0-1.44-0.36-2.52-1.07-3.24s-1.77-1.08-3.16-1.08
			c-1.34,0-2.37,0.37-3.09,1.12s-1.08,1.83-1.08,3.26c0,1.31,0.36,2.32,1.09,3.02S227.53,155.31,228.88,155.31z"/>
		<path class="st1" d="M243.69,137.87c0.48,0,0.89,0.16,1.24,0.47s0.52,0.79,0.52,1.45c0,0.64-0.17,1.12-0.52,1.44
			s-0.76,0.47-1.24,0.47c-0.5,0-0.92-0.16-1.26-0.47s-0.5-0.8-0.5-1.44c0-0.66,0.17-1.14,0.5-1.45S243.19,137.87,243.69,137.87z
			 M245.12,145.08v19.27h-2.92v-19.27H245.12z"/>
		<path class="st1" d="M257.51,162.31c0.48,0,0.97-0.04,1.48-0.12s0.91-0.18,1.23-0.3v2.27c-0.34,0.15-0.81,0.28-1.42,0.39
			s-1.19,0.16-1.77,0.16c-1.02,0-1.95-0.18-2.78-0.54s-1.5-0.96-2-1.82s-0.75-2.04-0.75-3.55v-11.43h-2.74v-1.42l2.76-1.14
			l1.16-4.18h1.76v4.46h5.64v2.29h-5.64v11.34c0,1.21,0.28,2.11,0.83,2.71S256.58,162.31,257.51,162.31z"/>
		<path class="st1" d="M271.33,144.76c2.3,0,4,0.52,5.12,1.55s1.67,2.68,1.67,4.94v13.1h-2.13l-0.56-2.85h-0.14
			c-0.54,0.7-1.1,1.29-1.69,1.77s-1.26,0.83-2.03,1.07s-1.71,0.36-2.82,0.36c-1.17,0-2.21-0.21-3.12-0.62s-1.62-1.03-2.14-1.86
			s-0.78-1.89-0.78-3.16c0-1.92,0.76-3.4,2.29-4.43s3.84-1.59,6.96-1.69l3.32-0.14v-1.18c0-1.66-0.36-2.83-1.07-3.5s-1.72-1-3.02-1
			c-1.01,0-1.97,0.15-2.88,0.44s-1.78,0.64-2.6,1.04l-0.9-2.21c0.87-0.45,1.86-0.83,2.99-1.14S270.08,144.76,271.33,144.76z
			 M275.23,154.85l-2.94,0.12c-2.4,0.09-4.1,0.49-5.08,1.18s-1.48,1.67-1.48,2.94c0,1.1,0.33,1.92,1,2.44s1.55,0.79,2.65,0.79
			c1.71,0,3.11-0.47,4.2-1.42s1.63-2.37,1.63-4.27V154.85z"/>
		<path class="st1" d="M287.06,164.34h-2.94v-27.35h2.94V164.34z"/>
	</g>
</g>
<g>
	<path class="st1" d="M652.42,360.98c0.39-2.11,1.72-3.24,2.89-4.52c2.22-2.43,4.43-4.87,6.45-7.46c0.72-0.92,1.27-2.29,1.23-3.44
		c-0.16-4.92-0.57-9.84-0.91-15.01c-1.48-0.16-2.9-0.42-4.32-0.44c-7.84-0.13-15.65-0.72-23.47-1.36
		c-7.91-0.65-15.87-0.19-23.76,0.89c-9.21,1.26-18.41,2.53-27.62,3.78c-0.75,0.1-1.53,0.01-2.5,0.01c-0.07-0.7-0.25-1.35-0.17-1.97
		c0.57-4.81,0.99-9.64,1.84-14.4c1.88-10.54,2.35-21.17,2.47-31.84c0.06-5.23,0.33-10.46,0.48-15.69
		c0.45-15.72-0.81-31.37-1.96-47.03c-0.4-5.42-0.18-10.8,0.33-16.3c0.58-0.11,1.04-0.3,1.49-0.28c11.89,0.53,23.79,0.07,35.68,0.19
		c16.96,0.17,33.89,0.95,50.8,2.16c10.91,0.78,21.85,1.23,32.78,1.84c18.76,1.05,37.55,1.58,56.23,3.86
		c7.78,0.95,15.61,1.59,23.41,2.36c3.21,0.32,3.23,0.46,2.65,3.8c-0.29,1.69-0.31,3.49-0.15,5.2c0.57,6.21,0.15,12.33-0.57,18.53
		c-1.67,14.52-3.9,29-3.8,43.7c0.08,12.59-0.27,25.19-0.37,37.78c-0.02,2.12,0.21,4.24,0.34,6.62c-1,0.33-1.96,0.75-2.96,0.95
		c-3.42,0.67-6.85,1.31-10.29,1.85c-1.62,0.25-3.28,0.36-4.92,0.31c-13.26-0.37-26.52-1.01-39.78-1.12
		c-7.77-0.06-15.49-0.23-23.17-1.4c-0.56-0.09-1.15-0.01-1.88-0.01c-1.45,3-2.9,6.05-4.39,9.08c-0.71,1.44-0.4,2.5,0.83,3.55
		c3.24,2.75,6.41,5.59,9.57,8.43c2.06,1.85,4.3,3.55,5.86,6.45c-1.13,0.23-2.02,0.57-2.92,0.57c-6.48-0.01-12.97,0.06-19.45-0.18
		c-5.22-0.2-10.41-0.89-15.63-1.16c-1.9-0.1-3.86,0.27-5.74,0.67c-2.84,0.61-5.64,1.41-8.44,2.18
		C656.41,362.72,654.42,362.37,652.42,360.98z M777.29,331.62c0-7.34-0.06-14.31,0.01-21.27c0.2-19,0.48-37.99,3.14-56.86
		c0.77-5.46,0.97-11,1.39-16.5c0.43-5.68,0.8-11.36,1.21-17.19c-0.96-0.1-1.81-0.21-2.66-0.29c-7.33-0.71-14.67-1.3-21.98-2.15
		c-17.82-2.06-35.72-2.94-53.62-3.85c-9.1-0.46-18.21-0.66-27.29-1.3c-16.05-1.14-32.1-2.02-48.2-2.13
		c-11.92-0.08-23.83-0.38-35.75-0.62c-2.21-0.04-4.41-0.23-7.02-0.37c-0.07,2.66-0.34,5.16-0.18,7.62
		c0.65,10.06,1.51,20.11,2.14,30.17c0.35,5.51,0.56,11.03,0.56,16.55c0.01,8.72-0.17,17.45-0.34,26.17
		c-0.16,7.65-0.07,15.32-1.39,22.91c-0.56,3.25-1.1,6.5-1.48,9.77c-0.36,3.03-0.5,6.09-0.74,9.29c0.92-0.07,1.39-0.08,1.86-0.15
		c8.25-1.16,16.49-2.31,24.74-3.5c8.46-1.22,16.99-1.54,25.51-1.37c6.38,0.13,12.74,0.9,19.12,1.22
		c12.19,0.61,24.39,1.06,36.57,1.68c6.28,0.32,12.55,0.89,18.82,1.33c3.96,0.28,7.91,0.65,11.88,0.76
		c9.58,0.26,19.17,0.36,28.76,0.58c4.26,0.1,8.55,0.06,12.76,0.61C769.36,333.28,773.36,332.54,777.29,331.62z M656.72,359.72
		c0.09,0.13,0.18,0.26,0.28,0.39c1.93-0.55,3.87-1.1,5.8-1.65c3.3-0.94,6.61-1,10.05-0.76c8.4,0.6,16.83,0.86,25.26,1.13
		c2.16,0.07,4.34-0.32,7.18-0.56c-1.38-1.49-2.29-2.58-3.29-3.56c-2.9-2.84-5.86-5.62-8.75-8.46c-3.92-3.85-4.63-2.78-1.52-9.32
		c0.73-1.53,1.44-3.08,2.34-4.99c-5.28-0.28-10.08-0.58-14.88-0.77c-4.76-0.19-9.51-0.27-14.36-0.4c0.07,0.65,0.09,0.94,0.13,1.22
		c0.68,4.6,1.36,9.19,2.06,13.79c0.27,1.76-0.3,3.24-1.5,4.51c-2.31,2.48-4.61,4.96-6.92,7.44
		C657.98,358.39,657.35,359.05,656.72,359.72z"/>
	<path class="st1" d="M585.78,361.45c1.69,0.22,2.99,0.55,4.28,0.52c12.32-0.21,24.59,0.71,36.87,1.52
		c9.96,0.66,19.93,1.2,29.9,1.49c11.52,0.34,23.05,0.49,34.58,0.44c6.19-0.02,12.38-0.69,18.57-0.96
		c10.94-0.47,21.88-0.83,32.82-1.27c4.45-0.18,8.91-0.33,13.35-0.69c1.76-0.14,2.99,0.33,4.04,1.66c2.8,3.59,5.67,7.13,8.44,10.74
		c2.06,2.69,4.03,5.46,6,8.22c0.97,1.35,1.67,2.83,1.58,4.72c-2.55,0.92-5.18,0.54-7.72,0.45c-16.85-0.62-33.7-1.15-50.53-2.12
		c-11.41-0.66-22.77-2.03-34.16-2.97c-4.63-0.38-9.29-0.61-13.93-0.62c-18.04-0.03-36.01-1.27-53.96-2.93
		c-10.13-0.94-20.28-1.63-30.43-2.32c-2.5-0.17-5.03,0.19-7.55,0.18c-2.37-0.01-3.87-2.68-2.41-4.5c2.96-3.7,6.14-7.23,9.25-10.8
		C585.12,361.79,585.67,361.53,585.78,361.45z M579.43,373.52c0.12,0.22,0.24,0.44,0.37,0.66c1.71-0.08,3.44-0.31,5.14-0.2
		c11.21,0.7,22.44,1.26,33.63,2.26c14.87,1.33,29.75,2.05,44.67,2.4c9.39,0.22,18.78,0.52,28.15,1.06c8.6,0.49,17.17,1.52,25.78,2
		c17.89,0.99,35.79,1.78,53.69,2.64c0.52,0.02,1.04-0.12,1.66-0.19c-0.19-0.51-0.24-0.81-0.4-1.03
		c-3.85-5.11-7.76-10.16-11.54-15.32c-1.14-1.55-2.4-2.05-4.22-1.7c-1.13,0.22-2.31,0.21-3.47,0.25
		c-12.19,0.48-24.39,0.94-36.58,1.42c-11.32,0.45-22.64,1.32-33.96,1.3c-15.88-0.03-31.76-0.64-47.63-1.13
		c-6.38-0.19-12.74-0.7-19.23-1.07c-0.2,0.64-0.4,1.24-0.61,1.92c-2.38,0.16-4.76,0.63-5.5-2.42c-0.68-0.09-1.16-0.22-1.63-0.19
		c-1.64,0.1-3.68-1.22-4.67,1.34c-0.08,0.22-0.93,0.31-1.36,0.2c-1.12-0.28-2.51-0.39-3.22-1.13c-1.32-1.35-2.87-1.42-4.49-1.62
		c-1.63-0.2-3.28-0.34-4.88-0.68c-1.11-0.24-1.87,0.06-2.56,0.86C584.19,367.96,581.81,370.74,579.43,373.52z"/>
	<path class="st1" d="M774.27,361.82c0.16,0.01,0.87-0.09,1.5,0.1c7.22,2.15,13.73,5.34,17.41,12.43c0.48,0.93,0.84,1.97,1.02,3
		c0.29,1.61-0.32,2.76-1.56,4.04c-3.19,3.29-6.7,3.9-10.8,2.32c-1.17-0.45-2.41-0.79-3.46-1.44c-4.43-2.74-8.08-6.33-10.7-10.83
		c-3.04-5.21-0.79-9.22,5.21-9.56C773.17,361.88,773.46,361.86,774.27,361.82z M779.7,367.24c-2.84,1.14-4.32,3.66-6.68,5.28
		c4.01,5.25,8.78,8.86,15.37,9.55c1.39,0.15,2.03-0.47,1.79-1.82c-0.12-0.65-0.36-1.32-0.71-1.89
		C786.87,374.12,783.26,370.78,779.7,367.24z M776.14,368.04c0.77-0.51,1.52-1,2.58-1.71c-1.47-1.04-2.64-1.85-3.8-2.69
		c-1.52-1.1-2.97-1.12-4.39,0.18C772.38,365.22,774.19,366.58,776.14,368.04z M773.68,370.32c-1.29-1.51-2.37-2.77-3.6-4.19
		c0.24,2.53,0.26,2.58,1.92,4.94c0.32-0.13,0.68-0.24,1.01-0.4C773.36,370.51,773.69,370.31,773.68,370.32z"/>
	<path class="st1" d="M768.85,321.14c-2.86,0-5.27,0.17-7.65-0.03c-10.23-0.88-20.51-1.45-30.66-2.93
		c-15.49-2.25-31.11-2.24-46.66-3.34c-18.94-1.34-37.89-2.62-56.86-3.65c-7.24-0.39-14.52-0.01-21.79,0.02
		c-0.97,0-1.94,0.11-2.9,0.03c-2.02-0.17-4.03-0.38-5.94,0.6c-0.3,0.15-0.74,0.02-1.15,0.02c-1.11-5.93-1.41-11.81-1.43-17.72
		c-0.03-9.59-0.01-19.19-0.09-28.78c-0.09-10.18-0.29-20.35-0.4-30.53c-0.05-4.07-0.01-8.14,0.02-12.22
		c0.01-1.26,0.15-2.51,0.2-3.77c0.06-1.53,0.75-2.25,2.37-2.18c6.38,0.27,12.8,0.18,19.15,0.76c14.85,1.36,29.64,3.31,44.56,3.96
		c14.8,0.65,29.57,2.08,44.37,2.94c11.7,0.68,23.43,1,35.14,1.49c7.16,0.3,14.32,0.64,21.48,0.95c2.71,0.12,5.43,0.15,8.13,0.34
		c2.55,0.18,2.92,0.88,2.5,3.36c-0.24,1.4-0.18,2.87-0.15,4.3c0.11,4.99-1.32,9.77-2.09,14.62c-0.78,4.97-2.15,9.84-2.22,14.91
		c-0.02,1.83-0.1,3.68,0,5.5c0.68,11.99,1.9,23.95,1.12,35.99c-0.21,3.26,0.34,6.57,0.55,9.86
		C768.59,317.29,768.7,318.92,768.85,321.14z M596.49,219.19c0.12,2.51,0.24,4.43,0.29,6.35c0.26,11.14,1.08,22.3,0.59,33.41
		c-0.62,13.87-0.48,27.7,0.02,41.55c0.1,2.66,0.66,5.31,1.03,8.17c1.64-0.2,2.87-0.41,4.12-0.5c5.79-0.41,11.6-1.19,17.38-1.08
		c8.9,0.17,17.8,0.92,26.69,1.51c16.53,1.11,33.05,2.24,49.57,3.44c9.37,0.68,18.74,1.39,28.08,2.33
		c11.37,1.14,22.71,2.57,34.07,3.79c2.2,0.24,4.45,0.13,6.67,0.07c0.71-0.02,1.41-0.38,2.21-0.61c-0.14-1.28-0.29-2.32-0.38-3.37
		c-0.34-4.24-1.06-8.5-0.92-12.73c0.39-11.46-0.53-22.84-1.25-34.24c-0.23-3.66-0.22-7.36,0.06-11.02c0.25-3.26,0.96-6.49,1.59-9.71
		c0.91-4.65,1.94-9.27,2.88-13.92c0.13-0.62,0.02-1.29,0.02-2.06c-0.87-0.08-1.53-0.15-2.19-0.19c-3.29-0.18-6.57-0.35-9.86-0.52
		c-4.64-0.24-9.28-0.66-13.92-0.68c-17.74-0.1-35.45-0.79-53.14-2.06c-11.01-0.79-22.04-1.52-33.07-1.99
		c-10.95-0.46-21.84-1.43-32.71-2.79C615.22,221.23,606.08,220.27,596.49,219.19z"/>
	<path class="st1" d="M657.4,373.94c-1.42,0.42-2.88,0.42-4.17-0.29c-0.53-0.29-0.96-1.19-0.99-1.83c-0.01-0.34,0.89-0.93,1.45-1.04
		C656.34,370.26,657.41,371.19,657.4,373.94z"/>
	<path class="st1" d="M685.28,376.38c-1.66-0.23-3.12-0.44-4.59-0.65c0.43-2.31,1.31-2.97,3.24-2.67
		C685.48,373.3,685.65,373.67,685.28,376.38z"/>
	<path class="st1" d="M647.2,371.53c-2.08,0-3.76,0-5.53,0c-0.69-1.57,0.3-2.07,1.49-2.4C645,368.62,646.03,369.15,647.2,371.53z"/>
	<path class="st1" d="M628.96,371.06c-0.46,0.17-1.08,0.59-1.71,0.6c-1.46,0.03-2.59-0.86-2.5-1.84c0.1-1.09,0.91-1.41,1.86-1.38
		C627.79,368.49,628.99,369.63,628.96,371.06z"/>
	<path class="st1" d="M593.27,369.12c3.18-1.18,4.17-0.83,5.02,1.73C595.72,371.63,594.28,371.13,593.27,369.12z"/>
	<path class="st1" d="M640.15,375.4c-1.38-0.12-2.52-0.08-3.57-0.37c-0.43-0.12-0.86-0.94-0.89-1.47c-0.02-0.34,0.62-0.92,1.07-1.05
		C638.64,371.97,639.87,372.91,640.15,375.4z"/>
	<path class="st1" d="M625.02,373.89c-3.28,0.5-3.39,0.44-3.64-1.94C624.06,371.28,624.54,371.51,625.02,373.89z"/>
	<path class="st1" d="M695.21,376.67c0.01-1.61,0.95-2.04,1.99-2.29c1.01-0.24,1.67,0.24,1.77,1.28c0.1,1.02-0.39,1.69-1.46,1.59
		C696.72,377.17,695.94,376.86,695.21,376.67z"/>
	<path class="st1" d="M667.45,376.57c-0.78-0.9-1.5-1.35-1.58-1.9c-0.16-0.99,0.54-1.6,1.57-1.65c0.89-0.05,1.68,0.39,1.56,1.27
		C668.9,374.96,668.18,375.54,667.45,376.57z"/>
	<path class="st1" d="M668.92,371.76c1.53-2.12,2.78-2.12,4.44-0.06C671.87,372.7,670.44,372.71,668.92,371.76z"/>
	<path class="st1" d="M729.46,381.3c-1.29,0-2.1,0-2.85,0c-0.66-1.23-0.15-1.97,0.74-2.48c0.35-0.2,1.18-0.26,1.26-0.11
		C728.96,379.44,729.14,380.26,729.46,381.3z"/>
	<path class="st1" d="M614.58,372.18c-1.86,0.13-3.24,0.15-4.03-1.57C612.96,369.78,613.1,369.83,614.58,372.18z"/>
	<path class="st1" d="M710.82,378.31c-1.42-0.47-2.57-0.8-2.47-2.44C711.16,375.37,711.23,375.43,710.82,378.31z"/>
	<path class="st1" d="M748.01,374.69c-1.74,0-2.82,0-3.95,0C744.55,372.48,745.4,372.38,748.01,374.69z"/>
	<path class="st1" d="M685.74,372.29c0.33-1.57,1.1-2.07,2.28-1.49c0.35,0.17,0.72,1.14,0.56,1.36
		C687.72,373.36,686.79,372.44,685.74,372.29z"/>
	<path class="st1" d="M712.43,373.31c0.55-1.15,0.8-2.12,2.06-1.81c0.23,0.06,0.52,0.63,0.46,0.9
		C714.68,373.61,713.82,373.65,712.43,373.31z"/>
	<path class="st1" d="M699.61,373.9c-0.02-1.89,0.44-2.62,1.65-2.32c0.3,0.07,0.42,0.87,0.63,1.34
		C701.24,373.19,700.59,373.47,699.61,373.9z"/>
	<path class="st1" d="M751.76,378.79c-0.83-0.35-1.39-0.59-2.05-0.86c0.27-0.39,0.38-0.74,0.57-0.8
		C751.3,376.81,751.95,377.05,751.76,378.79z"/>
	<path class="st1" d="M756.66,376.36c-0.59-0.24-1.18-0.48-2.07-0.85c1.32-1.03,1.89-0.61,2.35,0.19
		C756.85,375.93,756.75,376.14,756.66,376.36z"/>
</g>
</svg>
