<?xml version="1.0" encoding="utf-8"?>
<!-- Generator: Adobe Illustrator 25.2.1, SVG Export Plug-In . SVG Version: 6.00 Build 0)  -->
<svg version="1.1" id="Layer_1" xmlns="http://www.w3.org/2000/svg" xmlns:xlink="http://www.w3.org/1999/xlink" x="0px" y="0px"
	 viewBox="0 0 1048 699.26" style="enable-background:new 0 0 1048 699.26;" xml:space="preserve">
<style type="text/css">
	.st0{fill:#283B00;}
	.st1{fill:#D1E9C5;}
	.st2{fill:#FFF7B1;}
	.st3{fill:#FF5902;}
</style>
<path class="st0" d="M786.78,318.68c-14.48-7.46-22.95-15.4-24.73-30.18c-1.25-10.37,1.86-19.01,9.62-26.62
	c10.8-10.6,22.94-18.05,36.13-21.69c31.57-8.72,63.22-15.82,94.28-11.93c24.07,3.02,48.23,5.89,68.93,18.86
	c11.01,6.9,20.04,15.98,26.14,28.24c2.31,4.63,3.39,10.21,4.68,15.52c1.76,7.28-1.43,13.35-7.01,18.2
	c-3.15,2.74-6.62,5.27-10.18,7.03c-17.68,8.74-35.65,14.95-54.17,16.17c-15.02,0.98-30.13,2.84-45.08,3.33
	c-10.89,0.36-21.75-0.24-32.35-1.57c-13.71-1.71-27.32-4.04-40.64-7.12C802.35,324.6,792.82,320.67,786.78,318.68z"/>
<path class="st0" d="M596.01,151.81c-21.77,4.41-42.99,8.31-63.99,13.08c-22.84,5.18-45.59,10.77-68.19,16.9
	c-39.08,10.61-78.95,16.32-119.39,17.13c-14.78,0.3-30.35-1.73-44.44-6.39c-21.9-7.23-43.53-16.22-64.02-27
	c-30.16-15.87-33.96-56.34-11.39-81.89c14.28-16.18,30.21-21.93,50.95-23.91c42.1-4.03,84.22-5.29,126.47-4.86
	c27.83,0.28,55.32,3.9,82.19,12.05c27.59,8.36,55.22,16.55,82.68,25.37c10.77,3.46,21.39,7.8,31.51,12.93
	c6.63,3.36,13.1,8.06,18.14,13.58c8.7,9.55,6.76,20-4.26,26.24C607.03,148,601.09,149.73,596.01,151.81z"/>
<path class="st0" d="M858.53,59.83c26.54,6.45,55.07,25.62,75.63,39.45c7.16,4.81,12.39,9.09,13.82,10.01
	c31.25,20.19,36.53,39.67,22.96,57.48c-13.03,17.11-35.44,29.36-70.11,33.77c-15.29,1.94-30.67,3.85-46.59,4.98
	c-36.95,2.62-76.33-3.73-114.67-13.39c-48.08-12.11-75.07-46.64-56.34-68.99c3.5-4.17,5.59-11.62,49.61-30.56
	C795.5,65.61,826.83,52.13,858.53,59.83z"/>
<path class="st0" d="M517.89,321.05c-25.94-5.42-43.59-12.44-55.74-29.76c-8.33-11.88-9.44-24.13-3.31-37.45
	c5.53-12.01,13.31-21.8,24.78-28.26c38.27-21.54,78.41-29.63,121.14-19.31c13.74,3.32,27.21,6.34,41.88,5.6
	c25.93-1.31,51.54,18.86,58.84,43.07c2.45,8.13,1.8,15.2-2.97,22.6c-11.82,18.35-27.71,31.54-48.42,35.64
	C606.84,322.54,559.2,325.77,517.89,321.05z"/>
<path class="st0" d="M678.24,466.96c11.54-37.34,23.01-74.76,49-105.39c0.53-0.63,1.08-1.24,1.61-1.87
	c3.99-4.81,8.23-10.47,15.21-8.21c7.31,2.38,12.8,8.08,13.91,15.95c0.78,5.54,0.21,11.51-1,17.01c-1.31,5.97-3.54,11.88-6.28,17.37
	c-10.29,20.6-20.81,41.09-31.51,61.49c-6.18,11.78-14.61,21.78-25.13,30.07c-3.94,3.11-8,4.03-12.63,3.06
	c-6.62-1.39-8.85-4.75-7.45-11.48C675.22,478.93,676.8,472.96,678.24,466.96z"/>
<path class="st0" d="M644.67,497.7c7.91-1.43,14.47,1.82,20.47,6.33c7.2,5.41,7.93,12.24,0.68,17.07
	c-12.07,8.05-25.95,11.99-40.41,12.77c-3.2,0.17-6.68-2.68-9.84-4.47c-5.08-2.88-6.15-6.94-3.8-12.46
	c4.64-10.91,13.61-15.89,24.34-18.54C638.86,497.73,641.81,497.91,644.67,497.7z"/>
<path class="st0" d="M550.62,584.32c-2.19-1.2-6.62-2.71-9.68-5.64c-1.67-1.6-2.44-6.74-1.17-8.35c5.24-6.64,10.75-13.4,17.43-18.45
	c6.27-4.75,21.09,1.98,23.32,9.56c0.41,1.4,0.16,3.23-0.36,4.63C577.12,574.14,561.23,584.66,550.62,584.32z"/>
<path class="st0" d="M571.77,660.18c-6.24-0.14-11.75-9.58-7.6-14.38c4.95-5.72,10.96-11.03,17.53-14.7
	c6.42-3.59,13.25,2.71,12.14,10.08C592.76,648.34,578.82,660.34,571.77,660.18z"/>
<path class="st0" d="M558.02,628.34c-0.66,0.16-5.25,1.34-9.69-1.25c-3.85-2.25-5.84-6.93-8.01-13.42c-1.61-4.79,0.65-8,5.5-9.14
	c5.58-1.31,10.93-0.37,14.69,4.01c3.05,3.56,7.58,7.73,6.58,12.38C565.92,626.33,558.4,628.24,558.02,628.34z"/>
<path class="st0" d="M746.01,332.12c-7.75,0.18-17.38-6.5-17.83-12.35c-0.42-5.47,3.23-9.62,8.64-9.83
	c8.29-0.31,18.9,6.95,18.64,12.75C755.22,327.92,751.13,332.01,746.01,332.12z"/>
<path class="st0" d="M598.94,553.01c-4.28-0.05-9.14-3.2-9.1-7.01c0.03-2.74,2.58-4.98,4.77-5.87c5.55-2.26,13.53,2.19,13.57,6.31
	C608.21,549.62,603.5,553.07,598.94,553.01z"/>
<g>
	<g>
		<path class="st1" d="M283.56,108.28c0.48,0,0.97-0.04,1.48-0.12s0.91-0.18,1.23-0.3v2.27c-0.34,0.15-0.81,0.28-1.42,0.39
			s-1.19,0.16-1.77,0.16c-1.02,0-1.95-0.18-2.78-0.54s-1.5-0.96-2-1.82s-0.75-2.04-0.75-3.55V93.34h-2.74v-1.42l2.76-1.14l1.16-4.18
			h1.76v4.46h5.64v2.29h-5.64v11.34c0,1.21,0.28,2.11,0.83,2.71S282.63,108.28,283.56,108.28z"/>
		<path class="st1" d="M287.12,91.06h3.13l4.25,11.18c0.25,0.66,0.47,1.29,0.69,1.89s0.4,1.18,0.56,1.73s0.29,1.08,0.39,1.6h0.12
			c0.16-0.59,0.4-1.36,0.7-2.31s0.63-1.93,0.98-2.93l4.03-11.16h3.15l-8.38,22.1c-0.45,1.18-0.96,2.21-1.56,3.09
			s-1.31,1.56-2.15,2.03s-1.86,0.71-3.06,0.71c-0.55,0-1.04-0.03-1.46-0.1s-0.79-0.14-1.09-0.22v-2.34
			c0.26,0.06,0.57,0.11,0.94,0.16s0.75,0.07,1.15,0.07c0.73,0,1.36-0.14,1.89-0.41s0.99-0.68,1.38-1.2s0.72-1.15,1-1.88l1.05-2.71
			L287.12,91.06z"/>
		<path class="st1" d="M317.25,90.71c2.4,0,4.32,0.83,5.75,2.48s2.14,4.14,2.14,7.45c0,2.19-0.33,4.03-0.98,5.52
			s-1.58,2.61-2.77,3.38s-2.59,1.14-4.21,1.14c-1.02,0-1.92-0.13-2.69-0.4s-1.44-0.63-1.99-1.09s-1.01-0.96-1.37-1.49h-0.21
			c0.04,0.46,0.08,1.01,0.13,1.65s0.08,1.21,0.08,1.69v7.91h-2.94V91.06h2.41l0.39,2.85h0.14c0.38-0.59,0.83-1.12,1.37-1.61
			s1.2-0.87,1.98-1.16S316.19,90.71,317.25,90.71z M316.74,93.17c-1.34,0-2.41,0.26-3.23,0.77s-1.41,1.29-1.78,2.31
			s-0.57,2.31-0.6,3.86v0.56c0,1.63,0.18,3.01,0.54,4.13s0.95,1.98,1.78,2.57s1.94,0.88,3.33,0.88c1.2,0,2.19-0.32,2.99-0.97
			s1.39-1.54,1.78-2.7s0.59-2.48,0.59-3.98c0-2.27-0.44-4.08-1.33-5.42S318.57,93.17,316.74,93.17z"/>
		<path class="st1" d="M337.64,90.71c1.64,0,3.05,0.36,4.22,1.09s2.07,1.74,2.69,3.05s0.93,2.83,0.93,4.58v1.81h-13.31
			c0.04,2.26,0.6,3.98,1.69,5.17s2.62,1.78,4.61,1.78c1.22,0,2.3-0.11,3.23-0.33s1.91-0.55,2.92-0.98v2.57
			c-0.97,0.43-1.94,0.75-2.89,0.95s-2.08,0.3-3.38,0.3c-1.85,0-3.47-0.38-4.84-1.13s-2.45-1.87-3.21-3.33s-1.14-3.26-1.14-5.38
			c0-2.07,0.35-3.87,1.05-5.39s1.68-2.69,2.95-3.51S335.92,90.71,337.64,90.71z M337.61,93.1c-1.56,0-2.8,0.51-3.73,1.53
			s-1.48,2.44-1.65,4.27h10.2c-0.01-1.15-0.19-2.16-0.54-3.03s-0.87-1.55-1.57-2.04S338.71,93.1,337.61,93.1z"/>
		<path class="st1" d="M279.76,135.33c1.15,0,2,0.26,2.56,0.77s0.83,1.34,0.83,2.47v6.55h-1.06l-0.28-1.42h-0.07
			c-0.27,0.35-0.55,0.65-0.84,0.88s-0.63,0.42-1.02,0.54s-0.85,0.18-1.41,0.18c-0.59,0-1.11-0.1-1.56-0.31s-0.81-0.52-1.07-0.93
			s-0.39-0.94-0.39-1.58c0-0.96,0.38-1.7,1.14-2.21s1.92-0.8,3.48-0.84l1.66-0.07v-0.59c0-0.83-0.18-1.42-0.54-1.75
			s-0.86-0.5-1.51-0.5c-0.5,0-0.98,0.07-1.44,0.22s-0.89,0.32-1.3,0.52l-0.45-1.11c0.43-0.22,0.93-0.41,1.49-0.57
			S279.14,135.33,279.76,135.33z M281.71,140.38l-1.47,0.06c-1.2,0.05-2.05,0.24-2.54,0.59s-0.74,0.83-0.74,1.47
			c0,0.55,0.17,0.96,0.5,1.22s0.78,0.4,1.33,0.4c0.86,0,1.56-0.24,2.1-0.71s0.82-1.19,0.82-2.14V140.38z"/>
		<path class="st1" d="M287.62,145.12h-1.47v-13.68h1.47V145.12z"/>
		<path class="st1" d="M292.17,145.12h-1.47v-13.68h1.47V145.12z"/>
		<path class="st1" d="M308.23,140.29c0,0.79-0.1,1.5-0.31,2.12s-0.5,1.15-0.89,1.57s-0.85,0.75-1.4,0.98s-1.17,0.34-1.86,0.34
			c-0.64,0-1.24-0.11-1.77-0.34c-0.54-0.23-1-0.55-1.39-0.98c-0.39-0.43-0.69-0.95-0.91-1.57s-0.32-1.33-0.32-2.12
			c0-1.05,0.18-1.95,0.54-2.69s0.87-1.31,1.53-1.7c0.66-0.39,1.46-0.58,2.38-0.58c0.88,0,1.65,0.2,2.31,0.59
			c0.66,0.39,1.17,0.96,1.54,1.7C308.04,138.34,308.23,139.24,308.23,140.29z M300.9,140.29c0,0.77,0.1,1.44,0.31,2.01
			s0.52,1.01,0.95,1.32s0.98,0.47,1.65,0.47c0.67,0,1.22-0.16,1.65-0.47c0.43-0.31,0.75-0.75,0.95-1.32s0.31-1.24,0.31-2.01
			c0-0.77-0.1-1.43-0.31-1.99s-0.52-0.99-0.95-1.3s-0.98-0.46-1.66-0.46c-1,0-1.74,0.33-2.2,0.99
			C301.13,138.2,300.9,139.12,300.9,140.29z"/>
		<path class="st1" d="M315.27,135.31c1.2,0,2.16,0.41,2.87,1.24s1.07,2.07,1.07,3.73c0,1.1-0.16,2.02-0.49,2.76
			s-0.79,1.31-1.38,1.69c-0.6,0.38-1.3,0.57-2.11,0.57c-0.51,0-0.96-0.07-1.34-0.2s-0.72-0.32-0.99-0.54s-0.5-0.48-0.69-0.75h-0.11
			c0.02,0.23,0.04,0.5,0.07,0.83c0.03,0.32,0.04,0.6,0.04,0.84v3.96h-1.47v-13.94h1.2l0.19,1.42h0.07c0.19-0.29,0.42-0.56,0.69-0.8
			s0.6-0.44,0.99-0.58S314.74,135.31,315.27,135.31z M315.02,136.54c-0.67,0-1.21,0.13-1.61,0.39c-0.41,0.26-0.71,0.64-0.89,1.16
			s-0.29,1.16-0.3,1.93v0.28c0,0.81,0.09,1.5,0.27,2.07s0.47,0.99,0.89,1.28c0.41,0.29,0.97,0.44,1.67,0.44
			c0.6,0,1.1-0.16,1.49-0.48s0.7-0.77,0.89-1.35s0.29-1.24,0.29-1.99c0-1.14-0.22-2.04-0.66-2.71S315.93,136.54,315.02,136.54z"/>
		<path class="st1" d="M325.47,135.31c0.82,0,1.52,0.18,2.11,0.54s1.03,0.87,1.34,1.52s0.47,1.42,0.47,2.29v0.91h-6.65
			c0.02,1.13,0.3,1.99,0.84,2.58s1.31,0.89,2.3,0.89c0.61,0,1.15-0.06,1.62-0.17s0.96-0.28,1.46-0.49v1.28
			c-0.49,0.22-0.97,0.38-1.45,0.47c-0.48,0.1-1.04,0.15-1.69,0.15c-0.93,0-1.73-0.19-2.42-0.57c-0.69-0.38-1.22-0.93-1.6-1.67
			s-0.57-1.63-0.57-2.69c0-1.04,0.17-1.94,0.52-2.69c0.35-0.76,0.84-1.34,1.48-1.75C323.86,135.52,324.61,135.31,325.47,135.31z
			 M325.45,136.51c-0.78,0-1.4,0.25-1.86,0.76s-0.74,1.22-0.83,2.14h5.1c-0.01-0.57-0.1-1.08-0.27-1.52s-0.43-0.78-0.79-1.02
			S326,136.51,325.45,136.51z"/>
		<path class="st1" d="M336.43,135.31c1.14,0,2.01,0.28,2.59,0.84s0.88,1.46,0.88,2.69v6.28h-1.44v-6.18c0-0.8-0.18-1.4-0.55-1.8
			s-0.93-0.6-1.68-0.6c-1.07,0-1.82,0.3-2.25,0.91s-0.65,1.48-0.65,2.63v5.04h-1.46v-9.63h1.18l0.22,1.39h0.08
			c0.21-0.34,0.47-0.63,0.78-0.86s0.67-0.41,1.06-0.53S336,135.31,336.43,135.31z"/>
		<path class="st1" d="M342.09,140.94v-1.3h4.36v1.3H342.09z"/>
		<path class="st1" d="M354.93,142.49c0,0.62-0.15,1.13-0.46,1.55c-0.31,0.42-0.75,0.73-1.32,0.94c-0.57,0.21-1.25,0.32-2.04,0.32
			c-0.67,0-1.26-0.05-1.75-0.16s-0.92-0.25-1.29-0.45v-1.34c0.39,0.19,0.86,0.37,1.41,0.53s1.1,0.24,1.67,0.24
			c0.83,0,1.44-0.13,1.81-0.4s0.56-0.64,0.56-1.1c0-0.26-0.08-0.5-0.22-0.7c-0.15-0.2-0.4-0.4-0.75-0.59s-0.84-0.4-1.46-0.63
			c-0.62-0.23-1.15-0.47-1.6-0.7c-0.45-0.23-0.79-0.51-1.04-0.85s-0.36-0.77-0.36-1.3c0-0.81,0.33-1.44,0.99-1.88
			c0.66-0.44,1.52-0.65,2.6-0.65c0.58,0,1.12,0.06,1.63,0.17s0.98,0.27,1.42,0.46l-0.49,1.17c-0.4-0.17-0.82-0.31-1.27-0.43
			s-0.91-0.18-1.38-0.18c-0.67,0-1.19,0.11-1.55,0.33c-0.36,0.22-0.54,0.53-0.54,0.91c0,0.3,0.08,0.54,0.25,0.74
			c0.17,0.19,0.44,0.38,0.8,0.54s0.86,0.37,1.46,0.6c0.6,0.22,1.12,0.45,1.56,0.69s0.78,0.52,1.02,0.86
			C354.81,141.53,354.93,141.96,354.93,142.49z"/>
		<path class="st1" d="M365.58,140.29c0,0.79-0.1,1.5-0.31,2.12s-0.5,1.15-0.89,1.57s-0.85,0.75-1.4,0.98s-1.17,0.34-1.86,0.34
			c-0.64,0-1.24-0.11-1.77-0.34c-0.54-0.23-1-0.55-1.39-0.98c-0.39-0.43-0.69-0.95-0.91-1.57s-0.32-1.33-0.32-2.12
			c0-1.05,0.18-1.95,0.54-2.69s0.87-1.31,1.53-1.7c0.66-0.39,1.46-0.58,2.38-0.58c0.88,0,1.65,0.2,2.31,0.59
			c0.66,0.39,1.17,0.96,1.54,1.7C365.4,138.34,365.58,139.24,365.58,140.29z M358.25,140.29c0,0.77,0.1,1.44,0.31,2.01
			s0.52,1.01,0.95,1.32s0.98,0.47,1.65,0.47c0.67,0,1.22-0.16,1.65-0.47c0.43-0.31,0.75-0.75,0.95-1.32s0.31-1.24,0.31-2.01
			c0-0.77-0.1-1.43-0.31-1.99s-0.52-0.99-0.95-1.3s-0.98-0.46-1.66-0.46c-1,0-1.74,0.33-2.2,0.99
			C358.49,138.2,358.25,139.12,358.25,140.29z"/>
		<path class="st1" d="M376.06,135.49v9.63h-1.2l-0.21-1.35h-0.08c-0.2,0.33-0.46,0.62-0.77,0.84s-0.67,0.4-1.07,0.51
			c-0.4,0.11-0.82,0.17-1.26,0.17c-0.76,0-1.4-0.12-1.92-0.37s-0.9-0.63-1.16-1.14c-0.26-0.52-0.39-1.18-0.39-1.99v-6.31h1.48v6.21
			c0,0.8,0.18,1.4,0.54,1.8s0.92,0.59,1.66,0.59c0.71,0,1.28-0.13,1.71-0.4s0.73-0.67,0.92-1.19s0.28-1.17,0.28-1.93v-5.07H376.06z"
			/>
		<path class="st1" d="M383.52,135.31c0.19,0,0.4,0.01,0.61,0.03s0.4,0.05,0.56,0.08l-0.18,1.35c-0.16-0.04-0.33-0.07-0.53-0.1
			s-0.38-0.04-0.54-0.04c-0.39,0-0.75,0.08-1.09,0.23c-0.34,0.16-0.64,0.38-0.9,0.67s-0.46,0.64-0.61,1.05s-0.22,0.86-0.22,1.36
			v5.17h-1.47v-9.63h1.21l0.16,1.78h0.06c0.2-0.36,0.44-0.68,0.72-0.98s0.61-0.53,0.98-0.71
			C382.65,135.4,383.07,135.31,383.52,135.31z"/>
		<path class="st1" d="M390.36,145.3c-0.87,0-1.63-0.18-2.29-0.54s-1.18-0.9-1.55-1.63s-0.55-1.66-0.55-2.77
			c0-1.17,0.19-2.12,0.58-2.86s0.93-1.29,1.61-1.65s1.46-0.54,2.34-0.54c0.48,0,0.95,0.05,1.39,0.15c0.45,0.1,0.82,0.22,1.1,0.36
			l-0.44,1.22c-0.29-0.12-0.63-0.22-1.02-0.32s-0.74-0.14-1.08-0.14c-0.67,0-1.22,0.14-1.67,0.43s-0.77,0.71-0.99,1.27
			c-0.22,0.56-0.33,1.24-0.33,2.06c0,0.78,0.11,1.44,0.32,2s0.53,0.97,0.96,1.26c0.42,0.29,0.96,0.44,1.59,0.44
			c0.51,0,0.97-0.05,1.38-0.16s0.78-0.24,1.12-0.38v1.3c-0.32,0.16-0.68,0.29-1.08,0.38C391.38,145.25,390.9,145.3,390.36,145.3z"/>
		<path class="st1" d="M398.83,135.31c0.82,0,1.52,0.18,2.11,0.54s1.03,0.87,1.34,1.52s0.47,1.42,0.47,2.29v0.91h-6.65
			c0.02,1.13,0.3,1.99,0.84,2.58s1.31,0.89,2.3,0.89c0.61,0,1.15-0.06,1.62-0.17s0.96-0.28,1.46-0.49v1.28
			c-0.49,0.22-0.97,0.38-1.45,0.47c-0.48,0.1-1.04,0.15-1.69,0.15c-0.93,0-1.73-0.19-2.42-0.57c-0.69-0.38-1.22-0.93-1.6-1.67
			s-0.57-1.63-0.57-2.69c0-1.04,0.17-1.94,0.52-2.69c0.35-0.76,0.84-1.34,1.48-1.75C397.22,135.52,397.97,135.31,398.83,135.31z
			 M398.82,136.51c-0.78,0-1.4,0.25-1.86,0.76s-0.74,1.22-0.83,2.14h5.1c-0.01-0.57-0.1-1.08-0.27-1.52s-0.43-0.78-0.79-1.02
			S399.37,136.51,398.82,136.51z"/>
		<path class="st1" d="M408.66,145.3c-1.22,0-2.18-0.42-2.9-1.25c-0.71-0.83-1.07-2.07-1.07-3.71c0-1.66,0.36-2.91,1.09-3.76
			s1.69-1.27,2.9-1.27c0.51,0,0.96,0.07,1.34,0.2s0.71,0.31,0.98,0.54s0.51,0.48,0.69,0.77h0.11c-0.02-0.18-0.05-0.43-0.07-0.75
			s-0.04-0.57-0.04-0.77v-3.86h1.46v13.68h-1.18l-0.22-1.37h-0.06c-0.18,0.29-0.41,0.55-0.69,0.78s-0.61,0.42-0.99,0.56
			C409.63,145.23,409.18,145.3,408.66,145.3z M408.89,144.09c1.03,0,1.76-0.29,2.19-0.88s0.64-1.46,0.64-2.61v-0.26
			c0-1.22-0.2-2.17-0.61-2.82c-0.41-0.66-1.15-0.98-2.22-0.98c-0.9,0-1.57,0.34-2.01,1.03s-0.67,1.63-0.67,2.82
			c0,1.18,0.22,2.1,0.66,2.74C407.31,143.76,407.98,144.09,408.89,144.09z"/>
		<path class="st1" d="M424.03,144.1c0.24,0,0.49-0.02,0.74-0.06s0.46-0.09,0.62-0.15v1.13c-0.17,0.08-0.41,0.14-0.71,0.19
			s-0.6,0.08-0.88,0.08c-0.51,0-0.97-0.09-1.39-0.27s-0.75-0.48-1-0.91s-0.37-1.02-0.37-1.78v-5.71h-1.37v-0.71l1.38-0.57l0.58-2.09
			h0.88v2.23h2.82v1.14h-2.82v5.67c0,0.6,0.14,1.05,0.42,1.35S423.57,144.1,424.03,144.1z"/>
		<path class="st1" d="M425.82,135.49h1.56l2.13,5.59c0.12,0.33,0.24,0.64,0.34,0.94s0.2,0.59,0.28,0.87s0.15,0.54,0.19,0.8h0.06
			c0.08-0.29,0.2-0.68,0.35-1.16s0.32-0.97,0.49-1.46l2.01-5.58h1.57l-4.19,11.05c-0.22,0.59-0.48,1.11-0.78,1.55
			s-0.65,0.78-1.08,1.02s-0.93,0.36-1.53,0.36c-0.28,0-0.52-0.02-0.73-0.05s-0.39-0.07-0.54-0.11v-1.17
			c0.13,0.03,0.29,0.06,0.47,0.08c0.19,0.02,0.38,0.04,0.58,0.04c0.36,0,0.68-0.07,0.95-0.21c0.27-0.14,0.5-0.34,0.69-0.6
			s0.36-0.58,0.5-0.94l0.53-1.35L425.82,135.49z"/>
		<path class="st1" d="M440.88,135.31c1.2,0,2.16,0.41,2.87,1.24s1.07,2.07,1.07,3.73c0,1.1-0.16,2.02-0.49,2.76
			s-0.79,1.31-1.38,1.69c-0.6,0.38-1.3,0.57-2.11,0.57c-0.51,0-0.96-0.07-1.34-0.2s-0.72-0.32-0.99-0.54s-0.5-0.48-0.69-0.75h-0.11
			c0.02,0.23,0.04,0.5,0.07,0.83c0.03,0.32,0.04,0.6,0.04,0.84v3.96h-1.47v-13.94h1.2l0.19,1.42h0.07c0.19-0.29,0.42-0.56,0.69-0.8
			s0.6-0.44,0.99-0.58S440.35,135.31,440.88,135.31z M440.62,136.54c-0.67,0-1.21,0.13-1.61,0.39c-0.41,0.26-0.71,0.64-0.89,1.16
			s-0.29,1.16-0.3,1.93v0.28c0,0.81,0.09,1.5,0.27,2.07s0.47,0.99,0.89,1.28c0.41,0.29,0.97,0.44,1.67,0.44
			c0.6,0,1.1-0.16,1.49-0.48s0.7-0.77,0.89-1.35s0.29-1.24,0.29-1.99c0-1.14-0.22-2.04-0.66-2.71S441.54,136.54,440.62,136.54z"/>
		<path class="st1" d="M451.07,135.31c0.82,0,1.52,0.18,2.11,0.54s1.03,0.87,1.34,1.52s0.47,1.42,0.47,2.29v0.91h-6.65
			c0.02,1.13,0.3,1.99,0.84,2.58s1.31,0.89,2.3,0.89c0.61,0,1.15-0.06,1.62-0.17s0.96-0.28,1.46-0.49v1.28
			c-0.49,0.22-0.97,0.38-1.45,0.47c-0.48,0.1-1.04,0.15-1.69,0.15c-0.93,0-1.73-0.19-2.42-0.57c-0.69-0.38-1.22-0.93-1.6-1.67
			s-0.57-1.63-0.57-2.69c0-1.04,0.17-1.94,0.52-2.69c0.35-0.76,0.84-1.34,1.48-1.75C449.46,135.52,450.21,135.31,451.07,135.31z
			 M451.06,136.51c-0.78,0-1.4,0.25-1.86,0.76s-0.74,1.22-0.83,2.14h5.1c-0.01-0.57-0.1-1.08-0.27-1.52s-0.43-0.78-0.79-1.02
			S451.61,136.51,451.06,136.51z"/>
		<path class="st1" d="M461.76,136.63h-2.4v8.49h-1.46v-8.49h-1.71v-0.7l1.71-0.48v-0.64c0-0.81,0.12-1.47,0.36-1.97
			s0.59-0.88,1.05-1.12s1.01-0.36,1.67-0.36c0.37,0,0.71,0.03,1.02,0.1c0.31,0.06,0.58,0.14,0.81,0.22l-0.38,1.15
			c-0.2-0.06-0.42-0.12-0.67-0.18s-0.5-0.08-0.76-0.08c-0.56,0-0.97,0.18-1.23,0.54c-0.27,0.36-0.4,0.92-0.4,1.69v0.7h2.4V136.63z"
			/>
		<path class="st1" d="M467.13,135.33c1.15,0,2,0.26,2.56,0.77s0.83,1.34,0.83,2.47v6.55h-1.06l-0.28-1.42h-0.07
			c-0.27,0.35-0.55,0.65-0.84,0.88s-0.63,0.42-1.02,0.54s-0.85,0.18-1.41,0.18c-0.59,0-1.11-0.1-1.56-0.31s-0.81-0.52-1.07-0.93
			s-0.39-0.94-0.39-1.58c0-0.96,0.38-1.7,1.14-2.21s1.92-0.8,3.48-0.84l1.66-0.07v-0.59c0-0.83-0.18-1.42-0.54-1.75
			s-0.86-0.5-1.51-0.5c-0.5,0-0.98,0.07-1.44,0.22s-0.89,0.32-1.3,0.52l-0.45-1.11c0.43-0.22,0.93-0.41,1.49-0.57
			S466.51,135.33,467.13,135.33z M469.08,140.38l-1.47,0.06c-1.2,0.05-2.05,0.24-2.54,0.59s-0.74,0.83-0.74,1.47
			c0,0.55,0.17,0.96,0.5,1.22s0.78,0.4,1.33,0.4c0.86,0,1.56-0.24,2.1-0.71s0.82-1.19,0.82-2.14V140.38z"/>
		<path class="st1" d="M477.39,145.3c-0.87,0-1.63-0.18-2.29-0.54s-1.18-0.9-1.55-1.63s-0.55-1.66-0.55-2.77
			c0-1.17,0.19-2.12,0.58-2.86s0.93-1.29,1.61-1.65s1.46-0.54,2.34-0.54c0.48,0,0.95,0.05,1.39,0.15c0.45,0.1,0.82,0.22,1.1,0.36
			l-0.44,1.22c-0.29-0.12-0.63-0.22-1.02-0.32s-0.74-0.14-1.08-0.14c-0.67,0-1.22,0.14-1.67,0.43s-0.77,0.71-0.99,1.27
			c-0.22,0.56-0.33,1.24-0.33,2.06c0,0.78,0.11,1.44,0.32,2s0.53,0.97,0.96,1.26c0.42,0.29,0.96,0.44,1.59,0.44
			c0.51,0,0.97-0.05,1.38-0.16s0.78-0.24,1.12-0.38v1.3c-0.32,0.16-0.68,0.29-1.08,0.38C478.4,145.25,477.93,145.3,477.39,145.3z"/>
		<path class="st1" d="M485.86,135.31c0.82,0,1.52,0.18,2.11,0.54s1.03,0.87,1.34,1.52s0.47,1.42,0.47,2.29v0.91h-6.65
			c0.02,1.13,0.3,1.99,0.84,2.58s1.31,0.89,2.3,0.89c0.61,0,1.15-0.06,1.62-0.17s0.96-0.28,1.46-0.49v1.28
			c-0.49,0.22-0.97,0.38-1.45,0.47c-0.48,0.1-1.04,0.15-1.69,0.15c-0.93,0-1.73-0.19-2.42-0.57c-0.69-0.38-1.22-0.93-1.6-1.67
			s-0.57-1.63-0.57-2.69c0-1.04,0.17-1.94,0.52-2.69c0.35-0.76,0.84-1.34,1.48-1.75C484.25,135.52,485,135.31,485.86,135.31z
			 M485.84,136.51c-0.78,0-1.4,0.25-1.86,0.76s-0.74,1.22-0.83,2.14h5.1c-0.01-0.57-0.1-1.08-0.27-1.52s-0.43-0.78-0.79-1.02
			S486.4,136.51,485.84,136.51z"/>
		<path class="st1" d="M498.49,142.49c0,0.62-0.15,1.13-0.46,1.55c-0.31,0.42-0.75,0.73-1.32,0.94c-0.57,0.21-1.25,0.32-2.04,0.32
			c-0.67,0-1.26-0.05-1.75-0.16s-0.92-0.25-1.29-0.45v-1.34c0.39,0.19,0.86,0.37,1.41,0.53s1.1,0.24,1.67,0.24
			c0.83,0,1.44-0.13,1.81-0.4s0.56-0.64,0.56-1.1c0-0.26-0.08-0.5-0.22-0.7c-0.15-0.2-0.4-0.4-0.75-0.59s-0.84-0.4-1.46-0.63
			c-0.62-0.23-1.15-0.47-1.6-0.7c-0.45-0.23-0.79-0.51-1.04-0.85s-0.36-0.77-0.36-1.3c0-0.81,0.33-1.44,0.99-1.88
			c0.66-0.44,1.52-0.65,2.6-0.65c0.58,0,1.12,0.06,1.63,0.17s0.98,0.27,1.42,0.46l-0.49,1.17c-0.4-0.17-0.82-0.31-1.27-0.43
			s-0.91-0.18-1.38-0.18c-0.67,0-1.19,0.11-1.55,0.33c-0.36,0.22-0.54,0.53-0.54,0.91c0,0.3,0.08,0.54,0.25,0.74
			c0.17,0.19,0.44,0.38,0.8,0.54s0.86,0.37,1.46,0.6c0.6,0.22,1.12,0.45,1.56,0.69s0.78,0.52,1.02,0.86
			C498.37,141.53,498.49,141.96,498.49,142.49z"/>
	</g>
</g>
<g>
	<g>
		<path class="st1" d="M507.62,244.31v3.42c0,0.39-0.01,0.77-0.03,1.14c-0.02,0.37-0.04,0.66-0.05,0.86h0.08
			c0.26-0.43,0.64-0.8,1.14-1.1s1.13-0.45,1.91-0.45c1.21,0,2.17,0.42,2.89,1.25s1.08,2.08,1.08,3.72c0,1.08-0.16,2-0.49,2.74
			c-0.33,0.74-0.79,1.31-1.39,1.69s-1.3,0.57-2.12,0.57c-0.76,0-1.39-0.14-1.88-0.43s-0.87-0.63-1.13-1.04h-0.11l-0.3,1.29h-1.05
			v-13.68H507.62z M510.43,249.41c-0.7,0-1.25,0.14-1.66,0.41s-0.71,0.68-0.88,1.23c-0.18,0.55-0.27,1.24-0.27,2.08v0.08
			c0,1.21,0.2,2.14,0.61,2.78c0.4,0.64,1.14,0.96,2.21,0.96c0.9,0,1.57-0.33,2.02-0.98c0.45-0.66,0.67-1.59,0.67-2.81
			c0-1.24-0.22-2.18-0.66-2.8C512.01,249.73,511.34,249.41,510.43,249.41z"/>
		<path class="st1" d="M525.48,253.16c0,0.79-0.1,1.5-0.31,2.12s-0.5,1.15-0.89,1.57s-0.85,0.75-1.4,0.98s-1.17,0.34-1.86,0.34
			c-0.64,0-1.24-0.11-1.77-0.34c-0.54-0.23-1-0.55-1.39-0.98c-0.39-0.43-0.69-0.95-0.91-1.57s-0.32-1.33-0.32-2.12
			c0-1.05,0.18-1.95,0.54-2.69s0.87-1.31,1.53-1.7c0.66-0.39,1.46-0.58,2.38-0.58c0.88,0,1.65,0.2,2.31,0.59
			c0.66,0.39,1.17,0.96,1.54,1.7C525.29,251.21,525.48,252.11,525.48,253.16z M518.15,253.16c0,0.77,0.1,1.44,0.31,2.01
			s0.52,1.01,0.95,1.32s0.98,0.47,1.65,0.47c0.67,0,1.22-0.16,1.65-0.47c0.43-0.31,0.75-0.75,0.95-1.32s0.31-1.24,0.31-2.01
			c0-0.77-0.1-1.43-0.31-1.99s-0.52-0.99-0.95-1.3s-0.98-0.46-1.66-0.46c-1,0-1.74,0.33-2.2,0.99
			C518.38,251.07,518.15,251.98,518.15,253.16z"/>
		<path class="st1" d="M531.43,258.17c-1.22,0-2.18-0.42-2.9-1.25c-0.71-0.83-1.07-2.07-1.07-3.71c0-1.66,0.36-2.91,1.09-3.76
			s1.69-1.27,2.9-1.27c0.51,0,0.96,0.07,1.34,0.2s0.71,0.32,0.98,0.54s0.51,0.48,0.69,0.77h0.11c-0.02-0.18-0.05-0.43-0.07-0.75
			s-0.04-0.57-0.04-0.77v-3.86h1.46v13.68h-1.18l-0.22-1.37h-0.06c-0.18,0.29-0.41,0.55-0.69,0.78s-0.61,0.42-0.99,0.56
			C532.4,258.1,531.95,258.17,531.43,258.17z M531.66,256.95c1.03,0,1.76-0.29,2.19-0.88c0.43-0.59,0.64-1.46,0.64-2.61v-0.26
			c0-1.22-0.2-2.17-0.61-2.82c-0.41-0.66-1.15-0.98-2.22-0.98c-0.9,0-1.57,0.34-2.01,1.03s-0.67,1.63-0.67,2.82
			c0,1.18,0.22,2.1,0.66,2.74C530.08,256.63,530.75,256.95,531.66,256.95z"/>
		<path class="st1" d="M537.49,248.36h1.56l2.13,5.59c0.12,0.33,0.24,0.64,0.34,0.95s0.2,0.59,0.28,0.87
			c0.08,0.28,0.15,0.54,0.19,0.8h0.06c0.08-0.29,0.2-0.68,0.35-1.16s0.32-0.97,0.49-1.46l2.01-5.58h1.57l-4.19,11.05
			c-0.22,0.59-0.48,1.11-0.78,1.55s-0.65,0.78-1.08,1.02s-0.93,0.36-1.53,0.36c-0.28,0-0.52-0.02-0.73-0.05s-0.39-0.07-0.54-0.11
			V261c0.13,0.03,0.29,0.06,0.47,0.08c0.19,0.02,0.38,0.04,0.58,0.04c0.36,0,0.68-0.07,0.95-0.21c0.27-0.14,0.5-0.34,0.69-0.6
			s0.36-0.58,0.5-0.94l0.53-1.35L537.49,248.36z"/>
		<path class="st1" d="M555.82,256.97c0.24,0,0.49-0.02,0.74-0.06s0.46-0.09,0.62-0.15v1.13c-0.17,0.08-0.41,0.14-0.71,0.19
			s-0.6,0.08-0.88,0.08c-0.51,0-0.97-0.09-1.39-0.27s-0.75-0.48-1-0.91s-0.37-1.02-0.37-1.78v-5.71h-1.37v-0.71l1.38-0.57l0.58-2.09
			h0.88v2.23h2.82v1.14h-2.82v5.67c0,0.6,0.14,1.05,0.42,1.35S555.35,256.97,555.82,256.97z"/>
		<path class="st1" d="M562.83,248.18c0.82,0,1.52,0.18,2.11,0.54s1.03,0.87,1.34,1.53s0.47,1.42,0.47,2.29v0.91h-6.65
			c0.02,1.13,0.3,1.99,0.84,2.58c0.54,0.59,1.31,0.89,2.3,0.89c0.61,0,1.15-0.06,1.62-0.17s0.96-0.28,1.46-0.49v1.28
			c-0.49,0.22-0.97,0.38-1.45,0.47c-0.48,0.1-1.04,0.15-1.69,0.15c-0.93,0-1.73-0.19-2.42-0.57c-0.69-0.38-1.22-0.93-1.6-1.67
			c-0.38-0.73-0.57-1.63-0.57-2.69c0-1.04,0.17-1.93,0.52-2.69c0.35-0.76,0.84-1.34,1.48-1.75
			C561.22,248.39,561.97,248.18,562.83,248.18z M562.81,249.38c-0.78,0-1.4,0.25-1.86,0.76s-0.74,1.22-0.83,2.14h5.1
			c-0.01-0.57-0.1-1.08-0.27-1.52s-0.43-0.78-0.79-1.02S563.36,249.38,562.81,249.38z"/>
		<path class="st1" d="M571.52,253.06l-3.33-4.7h1.67l2.54,3.71l2.53-3.71h1.65l-3.33,4.7l3.52,4.93h-1.67l-2.7-3.93l-2.72,3.93
			h-1.65L571.52,253.06z"/>
		<path class="st1" d="M581.76,256.97c0.24,0,0.49-0.02,0.74-0.06s0.46-0.09,0.62-0.15v1.13c-0.17,0.08-0.41,0.14-0.71,0.19
			s-0.6,0.08-0.88,0.08c-0.51,0-0.97-0.09-1.39-0.27s-0.75-0.48-1-0.91s-0.37-1.02-0.37-1.78v-5.71h-1.37v-0.71l1.38-0.57l0.58-2.09
			h0.88v2.23h2.82v1.14h-2.82v5.67c0,0.6,0.14,1.05,0.42,1.35S581.3,256.97,581.76,256.97z"/>
		<path class="st1" d="M584.85,249.28c0-0.42,0.1-0.72,0.3-0.89s0.44-0.26,0.73-0.26c0.3,0,0.55,0.09,0.76,0.26s0.31,0.47,0.31,0.89
			c0,0.4-0.1,0.69-0.31,0.87s-0.46,0.27-0.76,0.27c-0.29,0-0.53-0.09-0.73-0.27S584.85,249.68,584.85,249.28z M584.85,257.08
			c0-0.41,0.1-0.7,0.3-0.87s0.44-0.26,0.73-0.26c0.3,0,0.55,0.09,0.76,0.26s0.31,0.46,0.31,0.87c0,0.4-0.1,0.7-0.31,0.88
			s-0.46,0.28-0.76,0.28c-0.29,0-0.53-0.09-0.73-0.28S584.85,257.48,584.85,257.08z"/>
		<path class="st1" d="M517.52,273.55c0,0.99-0.13,1.89-0.38,2.7s-0.63,1.51-1.12,2.09c-0.5,0.58-1.11,1.03-1.84,1.35
			s-1.58,0.47-2.55,0.47c-1,0-1.87-0.16-2.61-0.47c-0.74-0.32-1.36-0.77-1.85-1.35c-0.49-0.59-0.86-1.29-1.1-2.1
			s-0.36-1.72-0.36-2.71c0-1.31,0.22-2.46,0.65-3.45s1.09-1.76,1.97-2.31c0.88-0.55,1.99-0.83,3.32-0.83c1.27,0,2.34,0.27,3.21,0.82
			c0.87,0.54,1.53,1.31,1.98,2.3C517.3,271.04,517.52,272.21,517.52,273.55z M507.29,273.55c0,1.09,0.16,2.03,0.47,2.83
			s0.79,1.41,1.43,1.85c0.64,0.43,1.46,0.65,2.45,0.65c1,0,1.81-0.22,2.45-0.65s1.11-1.05,1.41-1.85s0.46-1.74,0.46-2.83
			c0-1.66-0.35-2.95-1.04-3.89c-0.69-0.93-1.78-1.4-3.25-1.4c-1,0-1.82,0.21-2.46,0.64s-1.12,1.04-1.44,1.82
			C507.45,271.51,507.29,272.45,507.29,273.55z"/>
		<path class="st1" d="M524.69,270.18c1.2,0,2.16,0.41,2.87,1.24s1.07,2.07,1.07,3.73c0,1.1-0.16,2.02-0.49,2.76
			s-0.79,1.31-1.38,1.69c-0.6,0.38-1.3,0.57-2.11,0.57c-0.51,0-0.96-0.07-1.34-0.2s-0.72-0.32-0.99-0.54s-0.5-0.48-0.69-0.75h-0.11
			c0.02,0.23,0.04,0.5,0.07,0.83c0.03,0.32,0.04,0.6,0.04,0.84v3.96h-1.47v-13.94h1.2l0.19,1.42h0.07c0.19-0.29,0.42-0.56,0.69-0.8
			s0.6-0.44,0.99-0.58S524.15,270.18,524.69,270.18z M524.43,271.41c-0.67,0-1.21,0.13-1.61,0.39c-0.41,0.26-0.71,0.64-0.89,1.16
			s-0.29,1.16-0.3,1.93v0.28c0,0.81,0.09,1.5,0.27,2.07s0.47,0.99,0.89,1.28c0.41,0.29,0.97,0.44,1.67,0.44
			c0.6,0,1.1-0.16,1.49-0.48s0.7-0.77,0.89-1.35s0.29-1.24,0.29-1.99c0-1.14-0.22-2.04-0.66-2.71S525.35,271.41,524.43,271.41z"/>
		<path class="st1" d="M534.88,270.18c0.82,0,1.52,0.18,2.11,0.54s1.03,0.87,1.34,1.53s0.47,1.42,0.47,2.29v0.91h-6.65
			c0.02,1.13,0.3,1.99,0.84,2.58s1.31,0.89,2.3,0.89c0.61,0,1.15-0.06,1.62-0.17s0.96-0.28,1.46-0.49v1.28
			c-0.49,0.22-0.97,0.38-1.45,0.47c-0.48,0.1-1.04,0.15-1.69,0.15c-0.93,0-1.73-0.19-2.42-0.57c-0.69-0.38-1.22-0.93-1.6-1.67
			s-0.57-1.63-0.57-2.69c0-1.04,0.17-1.93,0.52-2.69c0.35-0.76,0.84-1.34,1.48-1.75C533.27,270.39,534.02,270.18,534.88,270.18z
			 M534.86,271.38c-0.78,0-1.4,0.25-1.86,0.76s-0.74,1.22-0.83,2.14h5.1c-0.01-0.57-0.1-1.08-0.27-1.52s-0.43-0.78-0.79-1.02
			S535.41,271.38,534.86,271.38z"/>
		<path class="st1" d="M545.84,270.18c1.14,0,2.01,0.28,2.59,0.84s0.88,1.46,0.88,2.69v6.28h-1.44v-6.18c0-0.8-0.18-1.4-0.55-1.8
			s-0.93-0.6-1.68-0.6c-1.07,0-1.82,0.3-2.25,0.91s-0.65,1.48-0.65,2.63v5.04h-1.46v-9.63h1.18l0.22,1.39h0.08
			c0.21-0.34,0.47-0.62,0.78-0.86s0.67-0.41,1.06-0.53S545.41,270.18,545.84,270.18z"/>
		<path class="st1" d="M564.47,276.57c0,0.76-0.19,1.41-0.57,1.95c-0.38,0.54-0.91,0.94-1.59,1.23s-1.48,0.42-2.4,0.42
			c-0.49,0-0.95-0.02-1.38-0.07s-0.83-0.11-1.2-0.2s-0.68-0.2-0.96-0.33v-1.43c0.44,0.18,0.98,0.35,1.61,0.51s1.29,0.23,1.99,0.23
			c0.64,0,1.19-0.09,1.63-0.26s0.78-0.42,1.02-0.75c0.23-0.33,0.35-0.72,0.35-1.17c0-0.44-0.1-0.81-0.29-1.1s-0.51-0.57-0.96-0.81
			c-0.45-0.24-1.06-0.5-1.83-0.78c-0.54-0.19-1.03-0.41-1.44-0.64s-0.76-0.49-1.05-0.79s-0.49-0.63-0.64-1.02s-0.21-0.83-0.21-1.33
			c0-0.69,0.17-1.27,0.52-1.76c0.35-0.49,0.83-0.86,1.45-1.12s1.33-0.39,2.13-0.39c0.69,0,1.32,0.06,1.9,0.19
			c0.58,0.13,1.12,0.3,1.6,0.52l-0.47,1.28c-0.46-0.19-0.95-0.35-1.47-0.48c-0.52-0.13-1.05-0.19-1.6-0.19s-1.01,0.08-1.39,0.24
			c-0.38,0.16-0.67,0.39-0.87,0.68s-0.3,0.64-0.3,1.05c0,0.45,0.09,0.83,0.29,1.12s0.5,0.56,0.91,0.8s0.97,0.47,1.67,0.72
			c0.76,0.28,1.4,0.57,1.92,0.88s0.93,0.68,1.2,1.12S564.47,275.89,564.47,276.57z"/>
		<path class="st1" d="M570.47,270.2c1.15,0,2,0.26,2.56,0.77s0.83,1.34,0.83,2.47v6.55h-1.06l-0.28-1.42h-0.07
			c-0.27,0.35-0.55,0.65-0.84,0.88s-0.63,0.42-1.02,0.54s-0.85,0.18-1.41,0.18c-0.59,0-1.11-0.1-1.56-0.31s-0.81-0.52-1.07-0.93
			s-0.39-0.94-0.39-1.58c0-0.96,0.38-1.7,1.14-2.21s1.92-0.8,3.48-0.84l1.66-0.07v-0.59c0-0.83-0.18-1.42-0.54-1.75
			s-0.86-0.5-1.51-0.5c-0.5,0-0.98,0.07-1.44,0.22s-0.89,0.32-1.3,0.52l-0.45-1.11c0.43-0.22,0.93-0.41,1.49-0.57
			S569.85,270.2,570.47,270.2z M572.42,275.24l-1.47,0.06c-1.2,0.05-2.05,0.24-2.54,0.59s-0.74,0.83-0.74,1.47
			c0,0.55,0.17,0.96,0.5,1.22s0.78,0.4,1.33,0.4c0.86,0,1.56-0.24,2.1-0.71s0.82-1.19,0.82-2.14V275.24z"/>
		<path class="st1" d="M581.43,270.18c1.14,0,2.01,0.28,2.59,0.84s0.88,1.46,0.88,2.69v6.28h-1.44v-6.18c0-0.8-0.18-1.4-0.55-1.8
			s-0.93-0.6-1.68-0.6c-1.07,0-1.82,0.3-2.25,0.91s-0.65,1.48-0.65,2.63v5.04h-1.46v-9.63h1.18l0.22,1.39h0.08
			c0.21-0.34,0.47-0.62,0.78-0.86s0.67-0.41,1.06-0.53S580.99,270.18,581.43,270.18z"/>
		<path class="st1" d="M594.14,277.35c0,0.62-0.15,1.13-0.46,1.55c-0.31,0.42-0.75,0.73-1.32,0.94c-0.57,0.21-1.25,0.32-2.04,0.32
			c-0.67,0-1.26-0.05-1.75-0.16s-0.92-0.25-1.29-0.45v-1.34c0.39,0.19,0.86,0.37,1.41,0.53s1.1,0.24,1.67,0.24
			c0.83,0,1.44-0.13,1.81-0.4s0.56-0.64,0.56-1.1c0-0.26-0.08-0.5-0.22-0.7c-0.15-0.2-0.4-0.4-0.75-0.59s-0.84-0.4-1.46-0.63
			c-0.62-0.23-1.15-0.47-1.6-0.7c-0.45-0.23-0.79-0.51-1.04-0.85s-0.36-0.77-0.36-1.3c0-0.81,0.33-1.44,0.99-1.88
			c0.66-0.44,1.52-0.66,2.6-0.66c0.58,0,1.12,0.06,1.63,0.17s0.98,0.27,1.42,0.46l-0.49,1.17c-0.4-0.17-0.82-0.31-1.27-0.43
			s-0.91-0.18-1.38-0.18c-0.67,0-1.19,0.11-1.55,0.33c-0.36,0.22-0.54,0.53-0.54,0.91c0,0.3,0.08,0.54,0.25,0.74
			c0.17,0.19,0.44,0.38,0.8,0.54s0.86,0.37,1.46,0.6c0.6,0.22,1.12,0.45,1.56,0.69s0.78,0.52,1.02,0.86
			C594.02,276.39,594.14,276.83,594.14,277.35z"/>
		<path class="st1" d="M604.85,267.14c1.05,0,1.93,0.13,2.61,0.39s1.2,0.66,1.54,1.19s0.51,1.21,0.51,2.04
			c0,0.68-0.12,1.25-0.37,1.7s-0.57,0.82-0.97,1.1s-0.82,0.5-1.27,0.65l3.52,5.77h-1.74l-3.15-5.36h-2.67v5.36h-1.49v-12.85H604.85z
			 M604.76,268.43h-1.89v4.93h2.04c1.05,0,1.82-0.21,2.32-0.64c0.49-0.43,0.74-1.06,0.74-1.89c0-0.87-0.26-1.49-0.79-1.85
			S605.85,268.43,604.76,268.43z"/>
		<path class="st1" d="M615.98,270.18c0.82,0,1.52,0.18,2.11,0.54s1.03,0.87,1.34,1.53s0.47,1.42,0.47,2.29v0.91h-6.65
			c0.02,1.13,0.3,1.99,0.84,2.58s1.31,0.89,2.3,0.89c0.61,0,1.15-0.06,1.62-0.17s0.96-0.28,1.46-0.49v1.28
			c-0.49,0.22-0.97,0.38-1.45,0.47c-0.48,0.1-1.04,0.15-1.69,0.15c-0.93,0-1.73-0.19-2.42-0.57c-0.69-0.38-1.22-0.93-1.6-1.67
			s-0.57-1.63-0.57-2.69c0-1.04,0.17-1.93,0.52-2.69c0.35-0.76,0.84-1.34,1.48-1.75C614.37,270.39,615.12,270.18,615.98,270.18z
			 M615.96,271.38c-0.78,0-1.4,0.25-1.86,0.76s-0.74,1.22-0.83,2.14h5.1c-0.01-0.57-0.1-1.08-0.27-1.52s-0.43-0.78-0.79-1.02
			S616.51,271.38,615.96,271.38z"/>
		<path class="st1" d="M625.07,284.31c-1.27,0-2.24-0.24-2.93-0.71s-1.03-1.13-1.03-1.98c0-0.6,0.19-1.12,0.58-1.55
			s0.92-0.71,1.6-0.85c-0.25-0.12-0.47-0.29-0.65-0.53s-0.27-0.5-0.27-0.81c0-0.35,0.1-0.66,0.29-0.93c0.2-0.27,0.5-0.52,0.9-0.77
			c-0.5-0.21-0.91-0.55-1.23-1.04s-0.47-1.06-0.47-1.71c0-0.69,0.14-1.28,0.43-1.77s0.7-0.86,1.25-1.12s1.2-0.39,1.98-0.39
			c0.17,0,0.34,0.01,0.51,0.02c0.17,0.01,0.34,0.04,0.5,0.06s0.3,0.06,0.41,0.09h3.3v0.94l-1.78,0.22c0.18,0.23,0.32,0.5,0.44,0.83
			s0.18,0.68,0.18,1.07c0,0.96-0.33,1.72-0.98,2.29s-1.54,0.85-2.68,0.85c-0.27,0-0.54-0.02-0.83-0.07
			c-0.29,0.16-0.5,0.33-0.66,0.53c-0.15,0.19-0.22,0.42-0.22,0.67c0,0.19,0.06,0.34,0.17,0.45c0.12,0.11,0.28,0.19,0.5,0.24
			s0.48,0.07,0.78,0.07h1.7c1.05,0,1.85,0.22,2.41,0.66c0.56,0.44,0.84,1.08,0.84,1.92c0,1.07-0.43,1.88-1.3,2.45
			S626.71,284.31,625.07,284.31z M625.11,283.17c0.8,0,1.46-0.08,1.98-0.24c0.52-0.16,0.92-0.39,1.18-0.69
			c0.26-0.3,0.39-0.66,0.39-1.08c0-0.39-0.09-0.68-0.26-0.87s-0.43-0.33-0.77-0.4s-0.76-0.1-1.25-0.1h-1.67
			c-0.43,0-0.81,0.07-1.13,0.2s-0.57,0.33-0.74,0.6s-0.26,0.59-0.26,0.98c0,0.52,0.22,0.92,0.66,1.19S624.3,283.17,625.11,283.17z
			 M625.49,275.47c0.7,0,1.22-0.18,1.57-0.53s0.53-0.86,0.53-1.54c0-0.72-0.18-1.26-0.54-1.62s-0.88-0.54-1.58-0.54
			c-0.67,0-1.18,0.19-1.54,0.56c-0.36,0.37-0.54,0.92-0.54,1.63c0,0.66,0.18,1.16,0.54,1.51S624.81,275.47,625.49,275.47z"/>
		<path class="st1" d="M640.1,270.36v9.63h-1.2l-0.21-1.35h-0.08c-0.2,0.33-0.46,0.62-0.77,0.84s-0.67,0.4-1.07,0.51
			c-0.4,0.11-0.82,0.17-1.26,0.17c-0.76,0-1.4-0.12-1.92-0.37s-0.9-0.63-1.16-1.14c-0.26-0.52-0.39-1.18-0.39-1.99v-6.31h1.48v6.21
			c0,0.8,0.18,1.4,0.54,1.8s0.92,0.59,1.66,0.59c0.71,0,1.28-0.13,1.71-0.4s0.73-0.67,0.92-1.19s0.28-1.17,0.28-1.93v-5.07H640.1z"
			/>
		<path class="st1" d="M644.66,279.99h-1.47v-13.68h1.47V279.99z"/>
		<path class="st1" d="M651.34,270.2c1.15,0,2,0.26,2.56,0.77s0.83,1.34,0.83,2.47v6.55h-1.06l-0.28-1.42h-0.07
			c-0.27,0.35-0.55,0.65-0.84,0.88s-0.63,0.42-1.02,0.54s-0.85,0.18-1.41,0.18c-0.59,0-1.11-0.1-1.56-0.31s-0.81-0.52-1.07-0.93
			s-0.39-0.94-0.39-1.58c0-0.96,0.38-1.7,1.14-2.21s1.92-0.8,3.48-0.84l1.66-0.07v-0.59c0-0.83-0.18-1.42-0.54-1.75
			s-0.86-0.5-1.51-0.5c-0.5,0-0.98,0.07-1.44,0.22s-0.89,0.32-1.3,0.52l-0.45-1.11c0.43-0.22,0.93-0.41,1.49-0.57
			S650.72,270.2,651.34,270.2z M653.29,275.24l-1.47,0.06c-1.2,0.05-2.05,0.24-2.54,0.59s-0.74,0.83-0.74,1.47
			c0,0.55,0.17,0.96,0.5,1.22s0.78,0.4,1.33,0.4c0.86,0,1.56-0.24,2.1-0.71s0.82-1.19,0.82-2.14V275.24z"/>
		<path class="st1" d="M662.11,270.18c0.19,0,0.4,0.01,0.61,0.03s0.4,0.05,0.56,0.08l-0.18,1.35c-0.16-0.04-0.33-0.07-0.53-0.1
			s-0.38-0.04-0.54-0.04c-0.39,0-0.75,0.08-1.09,0.23c-0.34,0.16-0.64,0.38-0.9,0.67s-0.46,0.64-0.61,1.05s-0.22,0.86-0.22,1.36
			v5.17h-1.47v-9.63h1.21l0.16,1.78h0.06c0.2-0.36,0.44-0.68,0.72-0.98s0.61-0.53,0.98-0.71
			C661.24,270.27,661.65,270.18,662.11,270.18z"/>
	</g>
</g>
<g>
	<g>
		<path class="st1" d="M750.67,130.65h-1.47v-13.68h1.47V130.65z"/>
		<path class="st1" d="M762.05,125.82c0,0.79-0.1,1.5-0.31,2.12s-0.5,1.15-0.89,1.57s-0.85,0.75-1.4,0.98s-1.17,0.34-1.86,0.34
			c-0.64,0-1.24-0.11-1.77-0.34c-0.54-0.23-1-0.55-1.39-0.98c-0.39-0.43-0.69-0.95-0.91-1.57s-0.32-1.33-0.32-2.12
			c0-1.05,0.18-1.95,0.54-2.69s0.87-1.31,1.53-1.7c0.66-0.39,1.46-0.58,2.38-0.58c0.88,0,1.65,0.2,2.31,0.59
			c0.66,0.39,1.17,0.96,1.54,1.7C761.87,123.87,762.05,124.77,762.05,125.82z M754.72,125.82c0,0.77,0.1,1.44,0.31,2.01
			s0.52,1.01,0.95,1.32s0.98,0.47,1.65,0.47c0.67,0,1.22-0.16,1.65-0.47c0.43-0.31,0.75-0.75,0.95-1.32s0.31-1.24,0.31-2.01
			c0-0.77-0.1-1.43-0.31-1.99s-0.52-0.99-0.95-1.3s-0.98-0.46-1.66-0.46c-1,0-1.74,0.33-2.2,0.99
			C754.95,123.73,754.72,124.64,754.72,125.82z"/>
		<path class="st1" d="M767.26,134.97c-1.27,0-2.24-0.24-2.93-0.71s-1.03-1.13-1.03-1.98c0-0.6,0.19-1.12,0.58-1.55
			s0.92-0.71,1.6-0.85c-0.25-0.12-0.47-0.29-0.65-0.53s-0.27-0.5-0.27-0.81c0-0.35,0.1-0.66,0.29-0.93c0.2-0.27,0.5-0.52,0.9-0.77
			c-0.5-0.21-0.91-0.55-1.23-1.04s-0.47-1.06-0.47-1.71c0-0.69,0.14-1.28,0.43-1.77s0.7-0.86,1.25-1.12s1.2-0.39,1.98-0.39
			c0.17,0,0.34,0.01,0.51,0.02c0.17,0.01,0.34,0.04,0.5,0.06s0.3,0.06,0.41,0.09h3.3v0.94l-1.78,0.22c0.18,0.23,0.32,0.5,0.44,0.83
			s0.18,0.68,0.18,1.07c0,0.96-0.33,1.72-0.98,2.29s-1.54,0.85-2.68,0.85c-0.27,0-0.54-0.02-0.83-0.07
			c-0.29,0.16-0.5,0.33-0.66,0.53c-0.15,0.19-0.22,0.42-0.22,0.67c0,0.19,0.06,0.34,0.17,0.45c0.12,0.11,0.28,0.19,0.5,0.24
			s0.48,0.07,0.78,0.07h1.7c1.05,0,1.85,0.22,2.41,0.66c0.56,0.44,0.84,1.08,0.84,1.92c0,1.07-0.43,1.88-1.3,2.45
			S768.9,134.97,767.26,134.97z M767.31,133.83c0.8,0,1.46-0.08,1.98-0.24c0.52-0.16,0.92-0.39,1.18-0.69
			c0.26-0.3,0.39-0.66,0.39-1.08c0-0.39-0.09-0.68-0.26-0.87s-0.43-0.33-0.77-0.4s-0.76-0.1-1.25-0.1h-1.67
			c-0.43,0-0.81,0.07-1.13,0.2s-0.57,0.33-0.74,0.6s-0.26,0.59-0.26,0.98c0,0.52,0.22,0.92,0.66,1.19S766.49,133.83,767.31,133.83z
			 M767.68,126.13c0.7,0,1.22-0.18,1.57-0.53s0.53-0.86,0.53-1.54c0-0.72-0.18-1.26-0.54-1.62s-0.88-0.54-1.58-0.54
			c-0.67,0-1.18,0.19-1.54,0.56c-0.36,0.37-0.54,0.92-0.54,1.63c0,0.66,0.18,1.16,0.54,1.51S767.01,126.13,767.68,126.13z"/>
		<path class="st1" d="M782.65,125.82c0,0.79-0.1,1.5-0.31,2.12s-0.5,1.15-0.89,1.57s-0.85,0.75-1.4,0.98s-1.17,0.34-1.86,0.34
			c-0.64,0-1.24-0.11-1.77-0.34c-0.54-0.23-1-0.55-1.39-0.98c-0.39-0.43-0.69-0.95-0.91-1.57s-0.32-1.33-0.32-2.12
			c0-1.05,0.18-1.95,0.54-2.69s0.87-1.31,1.53-1.7c0.66-0.39,1.46-0.58,2.38-0.58c0.88,0,1.65,0.2,2.31,0.59
			c0.66,0.39,1.17,0.96,1.54,1.7C782.47,123.87,782.65,124.77,782.65,125.82z M775.32,125.82c0,0.77,0.1,1.44,0.31,2.01
			s0.52,1.01,0.95,1.32s0.98,0.47,1.65,0.47c0.67,0,1.22-0.16,1.65-0.47c0.43-0.31,0.75-0.75,0.95-1.32s0.31-1.24,0.31-2.01
			c0-0.77-0.1-1.43-0.31-1.99s-0.52-0.99-0.95-1.3s-0.98-0.46-1.66-0.46c-1,0-1.74,0.33-2.2,0.99
			C775.55,123.73,775.32,124.64,775.32,125.82z"/>
		<path class="st1" d="M796.08,128.01c0,0.62-0.15,1.13-0.46,1.55c-0.31,0.42-0.75,0.73-1.32,0.94c-0.57,0.21-1.25,0.32-2.04,0.32
			c-0.67,0-1.26-0.05-1.75-0.16s-0.92-0.25-1.29-0.45v-1.34c0.39,0.19,0.86,0.37,1.41,0.53s1.1,0.24,1.67,0.24
			c0.83,0,1.44-0.13,1.81-0.4s0.56-0.64,0.56-1.1c0-0.26-0.08-0.5-0.22-0.7c-0.15-0.2-0.4-0.4-0.75-0.59s-0.84-0.4-1.46-0.63
			c-0.62-0.23-1.15-0.47-1.6-0.7c-0.45-0.23-0.79-0.51-1.04-0.85s-0.36-0.77-0.36-1.3c0-0.81,0.33-1.44,0.99-1.88
			c0.66-0.44,1.52-0.65,2.6-0.65c0.58,0,1.12,0.06,1.63,0.17s0.98,0.27,1.42,0.46l-0.49,1.17c-0.4-0.17-0.82-0.31-1.27-0.43
			s-0.91-0.18-1.38-0.18c-0.67,0-1.19,0.11-1.55,0.33c-0.36,0.22-0.54,0.53-0.54,0.91c0,0.3,0.08,0.54,0.25,0.74
			c0.17,0.19,0.44,0.38,0.8,0.54s0.86,0.37,1.46,0.6c0.6,0.22,1.12,0.45,1.56,0.69s0.78,0.52,1.02,0.86
			C795.96,127.05,796.08,127.49,796.08,128.01z"/>
		<path class="st1" d="M801.54,129.63c0.24,0,0.49-0.02,0.74-0.06s0.46-0.09,0.62-0.15v1.13c-0.17,0.08-0.41,0.14-0.71,0.19
			s-0.6,0.08-0.88,0.08c-0.51,0-0.97-0.09-1.39-0.27s-0.75-0.48-1-0.91s-0.37-1.02-0.37-1.78v-5.71h-1.37v-0.71l1.38-0.57l0.58-2.09
			h0.88v2.23h2.82v1.14h-2.82v5.67c0,0.6,0.14,1.05,0.42,1.35S801.08,129.63,801.54,129.63z"/>
		<path class="st1" d="M808.45,120.86c1.15,0,2,0.26,2.56,0.77s0.83,1.34,0.83,2.47v6.55h-1.06l-0.28-1.42h-0.07
			c-0.27,0.35-0.55,0.65-0.84,0.88s-0.63,0.42-1.02,0.54s-0.85,0.18-1.41,0.18c-0.59,0-1.11-0.1-1.56-0.31s-0.81-0.52-1.07-0.93
			s-0.39-0.94-0.39-1.58c0-0.96,0.38-1.7,1.14-2.21s1.92-0.8,3.48-0.84l1.66-0.07v-0.59c0-0.83-0.18-1.42-0.54-1.75
			s-0.86-0.5-1.51-0.5c-0.5,0-0.98,0.07-1.44,0.22s-0.89,0.32-1.3,0.52l-0.45-1.11c0.43-0.22,0.93-0.41,1.49-0.57
			S807.83,120.86,808.45,120.86z M810.4,125.9l-1.47,0.06c-1.2,0.05-2.05,0.24-2.54,0.59s-0.74,0.83-0.74,1.47
			c0,0.55,0.17,0.96,0.5,1.22s0.78,0.4,1.33,0.4c0.86,0,1.56-0.24,2.1-0.71s0.82-1.19,0.82-2.14V125.9z"/>
		<path class="st1" d="M817.96,129.63c0.24,0,0.49-0.02,0.74-0.06s0.46-0.09,0.62-0.15v1.13c-0.17,0.08-0.41,0.14-0.71,0.19
			s-0.6,0.08-0.88,0.08c-0.51,0-0.97-0.09-1.39-0.27s-0.75-0.48-1-0.91s-0.37-1.02-0.37-1.78v-5.71h-1.37v-0.71l1.38-0.57l0.58-2.09
			h0.88v2.23h2.82v1.14h-2.82v5.67c0,0.6,0.14,1.05,0.42,1.35S817.49,129.63,817.96,129.63z"/>
		<path class="st1" d="M822.01,117.41c0.24,0,0.45,0.08,0.62,0.23s0.26,0.4,0.26,0.73c0,0.32-0.09,0.56-0.26,0.72
			s-0.38,0.24-0.62,0.24c-0.25,0-0.46-0.08-0.63-0.24c-0.17-0.16-0.25-0.4-0.25-0.72c0-0.33,0.08-0.57,0.25-0.73
			C821.55,117.49,821.76,117.41,822.01,117.41z M822.72,121.02v9.63h-1.46v-9.63H822.72z"/>
		<path class="st1" d="M829.66,130.82c-0.87,0-1.63-0.18-2.29-0.54s-1.18-0.9-1.55-1.63s-0.55-1.66-0.55-2.77
			c0-1.17,0.19-2.12,0.58-2.86s0.93-1.29,1.61-1.65s1.46-0.54,2.34-0.54c0.48,0,0.95,0.05,1.39,0.15c0.45,0.1,0.82,0.22,1.1,0.36
			l-0.44,1.22c-0.29-0.12-0.63-0.22-1.02-0.32s-0.74-0.14-1.08-0.14c-0.67,0-1.22,0.14-1.67,0.43s-0.77,0.71-0.99,1.27
			c-0.22,0.56-0.33,1.24-0.33,2.06c0,0.78,0.11,1.44,0.32,2s0.53,0.97,0.96,1.26c0.42,0.29,0.96,0.44,1.59,0.44
			c0.51,0,0.97-0.05,1.38-0.16s0.78-0.24,1.12-0.38v1.3c-0.32,0.16-0.68,0.29-1.08,0.38C830.68,130.78,830.21,130.82,829.66,130.82z
			"/>
		<path class="st1" d="M834.21,121.94c0-0.42,0.1-0.72,0.3-0.89s0.44-0.26,0.73-0.26c0.3,0,0.55,0.09,0.76,0.26s0.31,0.47,0.31,0.89
			c0,0.4-0.1,0.69-0.31,0.87s-0.46,0.27-0.76,0.27c-0.29,0-0.53-0.09-0.73-0.27S834.21,122.34,834.21,121.94z M834.21,129.74
			c0-0.41,0.1-0.7,0.3-0.87s0.44-0.26,0.73-0.26c0.3,0,0.55,0.09,0.76,0.26s0.31,0.46,0.31,0.87c0,0.4-0.1,0.7-0.31,0.88
			s-0.46,0.28-0.76,0.28c-0.29,0-0.53-0.09-0.73-0.28S834.21,130.14,834.21,129.74z"/>
		<path class="st1" d="M751.8,140.95h3.24l4.07,11.7h-2.88l-0.86-2.74h-3.87l-0.85,2.74h-2.92L751.8,140.95z M754.77,148.04
			l-1.35-4.32l-1.35,4.32H754.77z"/>
		<path class="st1" d="M762.57,151.48v4.77h-2.52v-12.6h1.94l0.43,1.15c0.65-0.86,1.6-1.37,2.74-1.37c2.27,0,3.93,1.96,3.93,4.65
			c0,2.75-1.6,4.79-3.78,4.79C764.2,152.87,763.25,152.34,762.57,151.48z M764.55,150.42c1.15,0,1.98-0.95,1.98-2.29
			c0-1.33-0.83-2.29-1.98-2.29s-1.98,0.95-1.98,2.29C762.57,149.46,763.39,150.42,764.55,150.42z"/>
		<path class="st1" d="M771.1,144.37v-1.01c0-1.82,1.33-3.17,3.13-3.17c0.7,0,1.53,0.2,2.05,0.5l-0.72,2.23
			c-0.22-0.16-0.61-0.29-0.94-0.29c-0.58,0-1.01,0.43-1.01,1.01v0.72h2.16v2.23h-2.16v6.05h-2.52v-6.05h-1.37v-2.23H771.1z"/>
		<path class="st1" d="M776.86,148.15c0-2.74,1.87-4.72,4.46-4.72c2.52,0,4.36,1.98,4.36,4.72c0,0.25-0.02,0.43-0.04,0.58h-6.18
			c0.2,1.08,0.95,1.8,1.93,1.8c0.74,0,1.42-0.43,1.62-1.04l2.52,0.79c-0.58,1.51-2.23,2.59-4.18,2.59
			C778.75,152.87,776.86,150.88,776.86,148.15z M783.05,147.28c-0.18-0.86-0.88-1.51-1.75-1.51s-1.53,0.61-1.78,1.51H783.05z"/>
		<path class="st1" d="M789.57,140.41v12.24h-2.52v-12.24H789.57z"/>
		<path class="st1" d="M794.6,146.82c0-3.53,2.39-6.09,5.69-6.09c2.43,0,4.66,1.51,5.33,3.6l-2.77,1.04
			c-0.32-1.26-1.39-2.16-2.52-2.16c-1.69,0-2.92,1.49-2.92,3.55c0,2.07,1.26,3.58,2.99,3.58c1.37,0,2.43-0.95,2.56-2.3h-3.85v-1.87
			h6.37l0.58,6.48h-1.58l-0.61-2.3c-0.41,1.49-1.93,2.52-3.85,2.52C796.87,152.87,794.6,150.33,794.6,146.82z"/>
		<path class="st1" d="M807.42,143.65h1.94l0.49,1.3c0.45-0.95,1.21-1.51,2.18-1.51c0.34,0,0.65,0.07,0.94,0.22l-0.43,2.7
			c-0.16-0.07-0.45-0.11-0.72-0.11c-1.1,0-1.87,0.76-1.87,1.87v4.54h-2.52V143.65z"/>
		<path class="st1" d="M813.54,148.15c0-2.74,1.93-4.72,4.57-4.72c2.65,0,4.57,1.98,4.57,4.72s-1.93,4.72-4.57,4.72
			C815.47,152.87,813.54,150.88,813.54,148.15z M818.11,150.45c1.15,0,1.98-0.97,1.98-2.32c0-1.35-0.83-2.32-1.98-2.32
			s-1.98,0.97-1.98,2.32C816.13,149.48,816.96,150.45,818.11,150.45z"/>
		<path class="st1" d="M823.26,143.65h0.58c0.5,0,0.86-0.4,0.86-0.94v-1.58h2.38v2.52h2.02v2.23h-2.02v3.35
			c0,0.86,0.5,1.22,1.22,1.22c0.18,0,0.36-0.02,0.65-0.11l0.43,2.3c-0.36,0.11-0.9,0.22-1.76,0.22c-1.76,0-3.06-1.22-3.06-2.95
			v-4.03h-1.3V143.65z"/>
		<path class="st1" d="M830.03,148.15c0-2.74,1.87-4.72,4.46-4.72c2.52,0,4.36,1.98,4.36,4.72c0,0.25-0.02,0.43-0.04,0.58h-6.18
			c0.2,1.08,0.95,1.8,1.93,1.8c0.74,0,1.42-0.43,1.62-1.04l2.52,0.79c-0.58,1.51-2.23,2.59-4.18,2.59
			C831.92,152.87,830.03,150.88,830.03,148.15z M836.22,147.28c-0.18-0.86-0.88-1.51-1.75-1.51s-1.53,0.61-1.78,1.51H836.22z"/>
		<path class="st1" d="M839.78,150.2l4.9-4.07H840v-2.48h7.2v2.38l-4.83,4.1h4.97v2.52h-7.56V150.2z"/>
		<path class="st1" d="M851.3,140.41v6.48l2.67-3.24h3.24l-3.26,3.56l3.62,5.44h-3.1l-2.2-3.62l-0.97,1.06v2.56h-2.52v-12.24H851.3z
			"/>
		<path class="st1" d="M870.24,140.95v2.41h-5.47v2.63h4.61v1.94h-4.61v4.72h-2.67v-11.7H870.24z"/>
		<path class="st1" d="M870.89,148.15c0-2.74,1.87-4.72,4.46-4.72c2.52,0,4.36,1.98,4.36,4.72c0,0.25-0.02,0.43-0.04,0.58h-6.18
			c0.2,1.08,0.95,1.8,1.93,1.8c0.74,0,1.42-0.43,1.62-1.04l2.52,0.79c-0.58,1.51-2.23,2.59-4.18,2.59
			C872.78,152.87,870.89,150.88,870.89,148.15z M877.08,147.28c-0.18-0.86-0.88-1.51-1.75-1.51s-1.53,0.61-1.78,1.51H877.08z"/>
		<path class="st1" d="M880.28,143.65h0.58c0.5,0,0.87-0.4,0.87-0.94v-1.58h2.38v2.52h2.02v2.23h-2.02v3.35
			c0,0.86,0.5,1.22,1.22,1.22c0.18,0,0.36-0.02,0.65-0.11l0.43,2.3c-0.36,0.11-0.9,0.22-1.76,0.22c-1.76,0-3.06-1.22-3.06-2.95
			v-4.03h-1.3V143.65z"/>
		<path class="st1" d="M886.76,143.65h0.58c0.5,0,0.86-0.4,0.86-0.94v-1.58h2.38v2.52h2.02v2.23h-2.02v3.35
			c0,0.86,0.5,1.22,1.22,1.22c0.18,0,0.36-0.02,0.65-0.11l0.43,2.3c-0.36,0.11-0.9,0.22-1.76,0.22c-1.76,0-3.06-1.22-3.06-2.95
			v-4.03h-1.3V143.65z"/>
	</g>
</g>
<g>
	<g>
		<path class="st1" d="M814.24,277.27h-1.47V263.6h1.47V277.27z"/>
		<path class="st1" d="M825.62,272.44c0,0.79-0.1,1.5-0.31,2.12s-0.5,1.15-0.89,1.57s-0.85,0.75-1.4,0.98s-1.17,0.34-1.86,0.34
			c-0.64,0-1.24-0.11-1.77-0.34c-0.54-0.23-1-0.55-1.39-0.98c-0.39-0.43-0.69-0.95-0.91-1.57s-0.32-1.33-0.32-2.12
			c0-1.05,0.18-1.95,0.54-2.69s0.87-1.31,1.53-1.7c0.66-0.39,1.46-0.58,2.38-0.58c0.88,0,1.65,0.2,2.31,0.59
			c0.66,0.39,1.17,0.96,1.54,1.7C825.44,270.5,825.62,271.39,825.62,272.44z M818.29,272.44c0,0.77,0.1,1.44,0.31,2.01
			s0.52,1.01,0.95,1.32s0.98,0.47,1.65,0.47c0.67,0,1.22-0.16,1.65-0.47c0.43-0.31,0.75-0.75,0.95-1.32s0.31-1.24,0.31-2.01
			c0-0.77-0.1-1.43-0.31-1.99s-0.52-0.99-0.95-1.3s-0.98-0.46-1.66-0.46c-1,0-1.74,0.33-2.2,0.99
			C818.52,270.35,818.29,271.27,818.29,272.44z"/>
		<path class="st1" d="M830.83,281.6c-1.27,0-2.24-0.24-2.93-0.71s-1.03-1.13-1.03-1.98c0-0.6,0.19-1.12,0.58-1.55
			s0.92-0.71,1.6-0.85c-0.25-0.12-0.47-0.29-0.65-0.53s-0.27-0.5-0.27-0.81c0-0.35,0.1-0.66,0.29-0.93c0.2-0.27,0.5-0.52,0.9-0.77
			c-0.5-0.21-0.91-0.55-1.23-1.04s-0.47-1.06-0.47-1.71c0-0.69,0.14-1.28,0.43-1.77s0.7-0.86,1.25-1.12s1.2-0.39,1.98-0.39
			c0.17,0,0.34,0.01,0.51,0.02c0.17,0.01,0.34,0.04,0.5,0.06s0.3,0.06,0.41,0.09h3.3v0.94l-1.78,0.22c0.18,0.23,0.32,0.5,0.44,0.83
			s0.18,0.68,0.18,1.07c0,0.96-0.33,1.72-0.98,2.29s-1.54,0.85-2.68,0.85c-0.27,0-0.54-0.02-0.83-0.07
			c-0.29,0.16-0.5,0.33-0.66,0.53c-0.15,0.19-0.22,0.42-0.22,0.67c0,0.19,0.06,0.34,0.17,0.45c0.12,0.11,0.28,0.19,0.5,0.24
			s0.48,0.07,0.78,0.07h1.7c1.05,0,1.85,0.22,2.41,0.66c0.56,0.44,0.84,1.08,0.84,1.92c0,1.07-0.43,1.88-1.3,2.45
			S832.47,281.6,830.83,281.6z M830.88,280.45c0.8,0,1.46-0.08,1.98-0.24c0.52-0.16,0.92-0.39,1.18-0.69
			c0.26-0.3,0.39-0.66,0.39-1.08c0-0.39-0.09-0.68-0.26-0.87s-0.43-0.33-0.77-0.4s-0.76-0.1-1.25-0.1h-1.67
			c-0.43,0-0.81,0.07-1.13,0.2s-0.57,0.33-0.74,0.6s-0.26,0.59-0.26,0.98c0,0.52,0.22,0.92,0.66,1.19S830.06,280.45,830.88,280.45z
			 M831.25,272.76c0.7,0,1.22-0.18,1.57-0.53s0.53-0.86,0.53-1.54c0-0.72-0.18-1.26-0.54-1.62s-0.88-0.54-1.58-0.54
			c-0.67,0-1.18,0.19-1.54,0.56c-0.36,0.37-0.54,0.92-0.54,1.63c0,0.66,0.18,1.16,0.54,1.51S830.58,272.76,831.25,272.76z"/>
		<path class="st1" d="M846.22,272.44c0,0.79-0.1,1.5-0.31,2.12s-0.5,1.15-0.89,1.57s-0.85,0.75-1.4,0.98s-1.17,0.34-1.86,0.34
			c-0.64,0-1.24-0.11-1.77-0.34c-0.54-0.23-1-0.55-1.39-0.98c-0.39-0.43-0.69-0.95-0.91-1.57s-0.32-1.33-0.32-2.12
			c0-1.05,0.18-1.95,0.54-2.69s0.87-1.31,1.53-1.7c0.66-0.39,1.46-0.58,2.38-0.58c0.88,0,1.65,0.2,2.31,0.59
			c0.66,0.39,1.17,0.96,1.54,1.7C846.04,270.5,846.22,271.39,846.22,272.44z M838.89,272.44c0,0.77,0.1,1.44,0.31,2.01
			s0.52,1.01,0.95,1.32s0.98,0.47,1.65,0.47c0.67,0,1.22-0.16,1.65-0.47c0.43-0.31,0.75-0.75,0.95-1.32s0.31-1.24,0.31-2.01
			c0-0.77-0.1-1.43-0.31-1.99s-0.52-0.99-0.95-1.3s-0.98-0.46-1.66-0.46c-1,0-1.74,0.33-2.2,0.99
			C839.12,270.35,838.89,271.27,838.89,272.44z"/>
		<path class="st1" d="M854.88,263.6v4.09c0,0.23-0.01,0.47-0.02,0.71s-0.03,0.46-0.06,0.65h0.1c0.2-0.34,0.45-0.63,0.76-0.86
			c0.31-0.23,0.66-0.41,1.05-0.53s0.81-0.18,1.25-0.18c0.77,0,1.42,0.12,1.94,0.37c0.52,0.25,0.91,0.63,1.17,1.14s0.39,1.18,0.39,2
			v6.28h-1.44v-6.18c0-0.8-0.18-1.4-0.55-1.8s-0.93-0.6-1.68-0.6c-0.71,0-1.29,0.14-1.71,0.41s-0.73,0.67-0.91,1.2
			c-0.18,0.53-0.28,1.17-0.28,1.93v5.04h-1.46V263.6H854.88z"/>
		<path class="st1" d="M872.76,272.44c0,0.79-0.1,1.5-0.31,2.12s-0.5,1.15-0.89,1.57s-0.85,0.75-1.4,0.98s-1.17,0.34-1.86,0.34
			c-0.64,0-1.24-0.11-1.77-0.34c-0.54-0.23-1-0.55-1.39-0.98c-0.39-0.43-0.69-0.95-0.91-1.57s-0.32-1.33-0.32-2.12
			c0-1.05,0.18-1.95,0.54-2.69s0.87-1.31,1.53-1.7c0.66-0.39,1.46-0.58,2.38-0.58c0.88,0,1.65,0.2,2.31,0.59
			c0.66,0.39,1.17,0.96,1.54,1.7C872.58,270.5,872.76,271.39,872.76,272.44z M865.43,272.44c0,0.77,0.1,1.44,0.31,2.01
			s0.52,1.01,0.95,1.32s0.98,0.47,1.65,0.47c0.67,0,1.22-0.16,1.65-0.47c0.43-0.31,0.75-0.75,0.95-1.32s0.31-1.24,0.31-2.01
			c0-0.77-0.1-1.43-0.31-1.99s-0.52-0.99-0.95-1.3s-0.98-0.46-1.66-0.46c-1,0-1.74,0.33-2.2,0.99
			C865.67,270.35,865.43,271.27,865.43,272.44z"/>
		<path class="st1" d="M877.4,277.27l-3.66-9.63h1.56l2.12,5.83c0.15,0.4,0.3,0.84,0.45,1.32s0.26,0.87,0.32,1.16h0.06
			c0.07-0.29,0.19-0.68,0.35-1.16s0.31-0.92,0.45-1.31l2.12-5.83h1.56l-3.67,9.63H877.4z"/>
		<path class="st1" d="M887.99,267.46c0.82,0,1.52,0.18,2.11,0.54s1.03,0.87,1.34,1.52s0.47,1.42,0.47,2.29v0.91h-6.65
			c0.02,1.13,0.3,1.99,0.84,2.58s1.31,0.89,2.3,0.89c0.61,0,1.15-0.06,1.62-0.17s0.96-0.28,1.46-0.49v1.28
			c-0.49,0.22-0.97,0.38-1.45,0.47c-0.48,0.1-1.04,0.15-1.69,0.15c-0.93,0-1.73-0.19-2.42-0.57c-0.69-0.38-1.22-0.93-1.6-1.67
			s-0.57-1.63-0.57-2.69c0-1.04,0.17-1.94,0.52-2.69c0.35-0.76,0.84-1.34,1.48-1.75C886.38,267.67,887.13,267.46,887.99,267.46z
			 M887.97,268.66c-0.78,0-1.4,0.25-1.86,0.76s-0.74,1.22-0.83,2.14h5.1c-0.01-0.57-0.1-1.08-0.27-1.52s-0.43-0.78-0.79-1.02
			S888.52,268.66,887.97,268.66z"/>
		<path class="st1" d="M898.76,267.46c0.19,0,0.4,0.01,0.61,0.03s0.4,0.05,0.56,0.08l-0.18,1.35c-0.16-0.04-0.33-0.07-0.53-0.1
			s-0.38-0.04-0.54-0.04c-0.39,0-0.75,0.08-1.09,0.23c-0.34,0.16-0.64,0.38-0.9,0.67s-0.46,0.64-0.61,1.05s-0.22,0.86-0.22,1.36
			v5.17h-1.47v-9.63h1.21l0.16,1.78h0.06c0.2-0.36,0.44-0.68,0.72-0.98s0.61-0.53,0.98-0.71
			C897.89,267.55,898.31,267.46,898.76,267.46z"/>
		<path class="st1" d="M901.52,268.56c0-0.42,0.1-0.72,0.3-0.89s0.44-0.26,0.73-0.26c0.3,0,0.55,0.09,0.76,0.26s0.31,0.47,0.31,0.89
			c0,0.4-0.1,0.69-0.31,0.87s-0.46,0.27-0.76,0.27c-0.29,0-0.53-0.09-0.73-0.27S901.52,268.96,901.52,268.56z M901.52,276.36
			c0-0.41,0.1-0.7,0.3-0.87s0.44-0.26,0.73-0.26c0.3,0,0.55,0.09,0.76,0.26s0.31,0.46,0.31,0.87c0,0.4-0.1,0.7-0.31,0.88
			s-0.46,0.28-0.76,0.28c-0.29,0-0.53-0.09-0.73-0.28S901.52,276.76,901.52,276.36z"/>
		<path class="st1" d="M815.91,287.57h1.58l4.61,11.7h-1.73l-0.95-2.52c-0.04-0.11-0.02-0.23,0.05-0.29
			c0.14-0.09,0.23-0.25,0.23-0.43c0-0.29-0.22-0.5-0.5-0.5c-0.23,0-0.43,0.14-0.49,0.36c-0.02,0.13-0.11,0.22-0.22,0.22h-3.62
			c-0.11,0-0.2-0.09-0.22-0.22c-0.05-0.22-0.25-0.36-0.49-0.36c-0.29,0-0.5,0.22-0.5,0.5c0,0.18,0.09,0.34,0.23,0.43
			c0.07,0.05,0.09,0.18,0.05,0.29l-0.94,2.52h-1.73L815.91,287.57z M812.58,298.7c0.29,0,0.5-0.22,0.5-0.5s-0.22-0.5-0.5-0.5
			s-0.5,0.22-0.5,0.5S812.29,298.7,812.58,298.7z M814.76,295.17c0.22,0,0.4-0.13,0.47-0.31c0.04-0.11,0.14-0.2,0.25-0.2h2.41
			c0.11,0,0.22,0.09,0.25,0.2c0.07,0.18,0.25,0.31,0.47,0.31c0.29,0,0.5-0.22,0.5-0.5s-0.22-0.5-0.5-0.5
			c-0.11,0-0.22-0.07-0.25-0.16l-1.42-3.73c-0.05-0.13,0-0.27,0.09-0.36s0.14-0.22,0.14-0.36c0-0.29-0.22-0.5-0.5-0.5
			s-0.5,0.22-0.5,0.5c0,0.14,0.05,0.27,0.14,0.36c0.09,0.09,0.14,0.23,0.09,0.36l-1.39,3.73c-0.04,0.09-0.14,0.16-0.25,0.16
			c-0.29,0-0.5,0.22-0.5,0.5S814.47,295.17,814.76,295.17z M814.67,292.76c0.25,0.11,0.5-0.02,0.61-0.29l0.42-1.01
			c0.11-0.27,0-0.54-0.25-0.65c-0.25-0.09-0.5,0.04-0.61,0.31l-0.41,0.99C814.31,292.38,814.42,292.65,814.67,292.76z
			 M818.13,292.47c0.11,0.27,0.36,0.4,0.61,0.29c0.25-0.11,0.36-0.38,0.25-0.65l-0.41-0.99c-0.11-0.27-0.36-0.4-0.61-0.31
			c-0.25,0.11-0.36,0.38-0.25,0.65L818.13,292.47z M820.81,298.7c0.29,0,0.5-0.22,0.5-0.5s-0.22-0.5-0.5-0.5s-0.5,0.22-0.5,0.5
			S820.52,298.7,820.81,298.7z"/>
		<path class="st1" d="M823.26,290.27h1.22l0.07,0.86c0.02,0.22-0.11,0.38-0.29,0.38c-0.29,0-0.5,0.22-0.5,0.5s0.22,0.5,0.5,0.5
			s0.5-0.22,0.5-0.5v-0.09c0-0.16,0.05-0.36,0.14-0.47c0.7-0.9,1.73-1.4,2.95-1.4c2.43,0,4.29,2.07,4.29,4.75s-1.84,4.68-4.29,4.68
			c-1.08,0-2.02-0.38-2.7-1.08c-0.11-0.13-0.11-0.27-0.04-0.43c0.05-0.11,0.07-0.18,0.07-0.29c0-0.29-0.22-0.5-0.5-0.5
			s-0.5,0.22-0.5,0.5c0,0.2,0.11,0.36,0.29,0.47c0.13,0.07,0.22,0.23,0.22,0.4v4.32h-1.44V290.27z M823.98,296.18
			c0.27,0,0.47-0.22,0.47-0.5v-1.08c0-0.29-0.2-0.5-0.47-0.5c-0.27,0-0.47,0.22-0.47,0.5v1.08
			C823.51,295.96,823.71,296.18,823.98,296.18z M823.98,302.3c0.27,0,0.47-0.22,0.47-0.5v-1.87c0-0.29-0.2-0.5-0.47-0.5
			c-0.27,0-0.47,0.22-0.47,0.5v1.87C823.51,302.08,823.71,302.3,823.98,302.3z M827.65,298.05c1.73,0,2.99-1.37,2.99-3.28
			c0-1.93-1.26-3.31-2.99-3.31s-2.99,1.39-2.99,3.31C824.66,296.68,825.92,298.05,827.65,298.05z M827.15,291.26
			c0.29-0.07,0.72-0.07,1.01,0c0.29,0.07,0.5-0.11,0.5-0.4c0-0.22-0.2-0.41-0.43-0.47c-0.36-0.09-0.79-0.09-1.15,0
			c-0.23,0.05-0.43,0.25-0.43,0.47C826.64,291.15,826.86,291.33,827.15,291.26z M827.22,299.13c0.36,0.09,0.79,0.09,1.15,0
			c0.23-0.05,0.43-0.25,0.43-0.47c0-0.29-0.22-0.47-0.5-0.4s-0.72,0.07-1.01,0s-0.5,0.11-0.5,0.4
			C826.78,298.88,826.98,299.07,827.22,299.13z M830.39,292.47c0.29,0,0.5-0.22,0.5-0.5s-0.22-0.5-0.5-0.5c-0.29,0-0.5,0.22-0.5,0.5
			S830.1,292.47,830.39,292.47z M830.39,298.05c0.29,0,0.5-0.22,0.5-0.5s-0.22-0.5-0.5-0.5c-0.29,0-0.5,0.22-0.5,0.5
			S830.1,298.05,830.39,298.05z M831.29,295.78c0.22,0,0.41-0.2,0.47-0.43c0.09-0.36,0.09-0.79,0-1.15
			c-0.05-0.23-0.25-0.43-0.47-0.43c-0.29,0-0.47,0.22-0.4,0.5c0.07,0.29,0.07,0.72,0,1.01C830.82,295.56,831,295.78,831.29,295.78z"
			/>
		<path class="st1" d="M834.38,292.03h-1.37v-1.4h0.85c0.11,0,0.18,0.07,0.18,0.18c0,0.29,0.22,0.5,0.5,0.5s0.5-0.22,0.5-0.5
			s-0.22-0.5-0.5-0.5c-0.09,0-0.16-0.07-0.16-0.16v-0.74c0-1.51,1.08-2.59,2.41-2.59c0.54,0,1.04,0.11,1.55,0.43l-0.43,1.4
			c-0.23-0.23-0.65-0.36-1.01-0.36c-0.63,0-1.08,0.56-1.08,1.33v1.01h2.16v1.4h-1.66c-0.11,0-0.18-0.07-0.18-0.18
			c0-0.29-0.22-0.5-0.5-0.5s-0.5,0.22-0.5,0.5s0.22,0.5,0.5,0.5c0.11,0,0.18,0.07,0.18,0.18v6.73h-1.44V292.03z M835.1,295.1
			c0.29,0,0.5-0.22,0.5-0.5s-0.22-0.5-0.5-0.5s-0.5,0.22-0.5,0.5S834.81,295.1,835.1,295.1z M835.1,298.7c0.27,0,0.47-0.22,0.47-0.5
			v-1.87c0-0.29-0.2-0.5-0.47-0.5c-0.27,0-0.47,0.22-0.47,0.5v1.87C834.63,298.48,834.83,298.7,835.1,298.7z M836.54,288.11
			c0.29,0,0.5-0.22,0.5-0.5s-0.22-0.5-0.5-0.5s-0.5,0.22-0.5,0.5S836.25,288.11,836.54,288.11z"/>
		<path class="st1" d="M838.99,294.81c0-2.75,1.8-4.75,4.32-4.75c2.59,0,4.25,2.09,4.25,4.97c0,0.07,0,0.16-0.02,0.31h-6.28
			c-0.14,0-0.25-0.09-0.31-0.23c-0.07-0.2-0.25-0.34-0.49-0.34c-0.29,0-0.5,0.22-0.5,0.5s0.22,0.5,0.5,0.5
			c0.11,0,0.23,0.11,0.27,0.25c0.4,1.22,1.39,2.03,2.65,2.03c1.19,0,2.27-0.76,2.48-1.8l1.62,0.5c-0.4,1.58-2.09,2.74-4.1,2.74
			C840.79,299.49,838.99,297.53,838.99,294.81z M840.5,294.5c0.22,0,0.4-0.13,0.47-0.32c0.05-0.14,0.14-0.25,0.32-0.25h4.07
			c0.13,0,0.22,0.09,0.27,0.23c0.07,0.2,0.25,0.34,0.49,0.34c0.29,0,0.5-0.22,0.5-0.5s-0.22-0.5-0.5-0.5
			c-0.14,0-0.23-0.09-0.29-0.23c-0.47-1.15-1.49-1.8-2.59-1.8c-1.12,0-2.02,0.7-2.45,1.8c-0.05,0.14-0.16,0.23-0.29,0.23
			c-0.29,0-0.5,0.22-0.5,0.5S840.21,294.5,840.5,294.5z M840.68,292.5c0.29,0,0.5-0.22,0.5-0.5s-0.22-0.5-0.5-0.5s-0.5,0.22-0.5,0.5
			S840.39,292.5,840.68,292.5z M840.72,298.05c0.29,0,0.5-0.22,0.5-0.5s-0.22-0.5-0.5-0.5s-0.5,0.22-0.5,0.5
			S840.43,298.05,840.72,298.05z M842.77,291.26c0.29-0.07,0.72-0.07,1.01,0c0.29,0.07,0.5-0.11,0.5-0.4c0-0.22-0.2-0.41-0.43-0.47
			c-0.36-0.09-0.79-0.09-1.15,0c-0.23,0.05-0.43,0.25-0.43,0.47C842.26,291.15,842.48,291.33,842.77,291.26z M842.84,299.13
			c0.36,0.09,0.79,0.09,1.15,0c0.23-0.05,0.43-0.25,0.43-0.47c0-0.29-0.22-0.47-0.5-0.4s-0.72,0.07-1.01,0s-0.5,0.11-0.5,0.4
			C842.41,298.88,842.61,299.07,842.84,299.13z M843.34,295.13c0.29,0,0.5-0.22,0.5-0.5s-0.22-0.5-0.5-0.5s-0.5,0.22-0.5,0.5
			S843.06,295.13,843.34,295.13z M845.9,292.5c0.29,0,0.5-0.22,0.5-0.5s-0.22-0.5-0.5-0.5s-0.5,0.22-0.5,0.5
			S845.61,292.5,845.9,292.5z M846.12,298.05c0.29,0,0.5-0.22,0.5-0.5s-0.22-0.5-0.5-0.5s-0.5,0.22-0.5,0.5
			S845.83,298.05,846.12,298.05z"/>
		<path class="st1" d="M850.8,287.03v12.24h-1.44v-12.24H850.8z M850.07,291.71c0.29,0,0.5-0.22,0.5-0.5s-0.22-0.5-0.5-0.5
			s-0.5,0.22-0.5,0.5S849.79,291.71,850.07,291.71z M850.07,289.66c0.27,0,0.47-0.22,0.47-0.5v-1.08c0-0.29-0.2-0.5-0.47-0.5
			c-0.27,0-0.47,0.22-0.47,0.5v1.08C849.61,289.44,849.81,289.66,850.07,289.66z M850.07,298.7c0.27,0,0.47-0.22,0.47-0.5v-1.87
			c0-0.29-0.2-0.5-0.47-0.5c-0.27,0-0.47,0.22-0.47,0.5v1.87C849.61,298.48,849.81,298.7,850.07,298.7z"/>
		<path class="st1" d="M866.1,297.17c-0.65,1.44-2.14,2.32-4,2.32c-3.17,0-5.47-2.56-5.47-6.07c0-3.49,2.34-6.07,5.58-6.07
			c2.58,0,4.74,1.62,5.15,3.85l-1.73,0.58c-0.2-1.73-1.64-2.95-3.46-2.95c-2.29,0-3.96,1.93-3.96,4.56c0,2.66,1.67,4.59,4.03,4.59
			c1.89,0,3.44-1.19,3.73-2.92c0.02-0.14,0.13-0.27,0.25-0.32c0.16-0.07,0.27-0.25,0.27-0.45c0-0.29-0.22-0.5-0.5-0.5
			c-0.2,0-0.38,0.11-0.45,0.27c-0.05,0.14-0.18,0.23-0.32,0.23h-4.45v-1.4h6.59l0.36,6.39h-1.01l-0.22-1.91
			c-0.04-0.25,0.02-0.29,0.22-0.34c0.22-0.05,0.36-0.25,0.36-0.49c0-0.29-0.22-0.5-0.5-0.5s-0.5,0.22-0.5,0.5
			S866.26,296.81,866.1,297.17z M857.53,294.41c0.29,0,0.47-0.22,0.4-0.5s-0.07-0.72,0-1.01s-0.11-0.5-0.4-0.5
			c-0.22,0-0.41,0.2-0.47,0.43c-0.09,0.36-0.09,0.79,0,1.15C857.11,294.21,857.31,294.41,857.53,294.41z M858.75,290.16
			c0.29,0,0.5-0.22,0.5-0.5s-0.22-0.5-0.5-0.5s-0.5,0.22-0.5,0.5S858.46,290.16,858.75,290.16z M858.75,297.65
			c0.29,0,0.5-0.22,0.5-0.5s-0.22-0.5-0.5-0.5s-0.5,0.22-0.5,0.5S858.46,297.65,858.75,297.65z M861.6,299.09
			c0.36,0.09,0.79,0.09,1.15,0c0.23-0.05,0.43-0.25,0.43-0.47c0-0.29-0.22-0.47-0.5-0.4c-0.29,0.07-0.72,0.07-1.01,0
			c-0.29-0.07-0.5,0.11-0.5,0.4C861.16,298.84,861.36,299.04,861.6,299.09z M861.7,288.6c0.29-0.07,0.72-0.07,1.01,0
			c0.29,0.07,0.5-0.11,0.5-0.4c0-0.22-0.2-0.41-0.43-0.47c-0.36-0.09-0.79-0.09-1.15,0c-0.23,0.05-0.43,0.25-0.43,0.47
			C861.2,288.49,861.42,288.67,861.7,288.6z M861.81,294.05h1.87c0.29,0,0.5-0.2,0.5-0.47c0-0.27-0.22-0.47-0.5-0.47h-1.87
			c-0.29,0-0.5,0.2-0.5,0.47C861.31,293.85,861.52,294.05,861.81,294.05z M865.77,290.34c0.29,0,0.5-0.22,0.5-0.5s-0.22-0.5-0.5-0.5
			s-0.5,0.22-0.5,0.5S865.48,290.34,865.77,290.34z"/>
		<path class="st1" d="M873.12,290.05c0.36,0,0.85,0.09,1.15,0.22l-0.07,1.69c-0.47-0.23-0.95-0.29-1.22-0.29
			c-1.17,0-2.02,1.01-2.02,2.41v5.19h-1.44v-9h1.22l0.07,0.54c0.02,0.16-0.05,0.32-0.2,0.43c-0.11,0.09-0.18,0.23-0.18,0.4
			c0,0.29,0.22,0.5,0.5,0.5s0.5-0.22,0.5-0.5c0-0.11-0.02-0.18-0.07-0.29c-0.07-0.16-0.07-0.31,0.04-0.43
			C871.84,290.38,872.43,290.05,873.12,290.05z M870.23,295.1c0.29,0,0.5-0.22,0.5-0.5s-0.22-0.5-0.5-0.5s-0.5,0.22-0.5,0.5
			S869.95,295.1,870.23,295.1z M870.23,298.7c0.27,0,0.47-0.22,0.47-0.5v-1.08c0-0.29-0.2-0.5-0.47-0.5c-0.27,0-0.47,0.22-0.47,0.5
			v1.08C869.77,298.48,869.96,298.7,870.23,298.7z M873.12,291.39c0.29,0,0.5-0.22,0.5-0.5s-0.22-0.5-0.5-0.5s-0.5,0.22-0.5,0.5
			S872.83,291.39,873.12,291.39z"/>
		<path class="st1" d="M875.06,294.77c0-2.74,1.89-4.72,4.5-4.72c2.61,0,4.5,1.98,4.5,4.72s-1.89,4.72-4.5,4.72
			C876.95,299.49,875.06,297.51,875.06,294.77z M875.92,295.78c0.29,0,0.47-0.22,0.4-0.5c-0.07-0.29-0.07-0.72,0-1.01
			c0.07-0.29-0.11-0.5-0.4-0.5c-0.22,0-0.41,0.2-0.47,0.43c-0.09,0.36-0.09,0.79,0,1.15C875.51,295.58,875.71,295.78,875.92,295.78z
			 M876.82,292.47c0.29,0,0.5-0.22,0.5-0.5s-0.22-0.5-0.5-0.5s-0.5,0.22-0.5,0.5S876.53,292.47,876.82,292.47z M876.82,298.05
			c0.29,0,0.5-0.22,0.5-0.5s-0.22-0.5-0.5-0.5s-0.5,0.22-0.5,0.5S876.53,298.05,876.82,298.05z M879.56,298.05
			c1.73,0,2.99-1.37,2.99-3.28c0-1.93-1.26-3.31-2.99-3.31s-2.99,1.39-2.99,3.31C876.57,296.68,877.83,298.05,879.56,298.05z
			 M879.06,291.26c0.29-0.07,0.72-0.07,1.01,0c0.29,0.07,0.5-0.11,0.5-0.4c0-0.22-0.2-0.41-0.43-0.47c-0.36-0.09-0.79-0.09-1.15,0
			c-0.23,0.05-0.43,0.25-0.43,0.47C878.55,291.15,878.77,291.33,879.06,291.26z M878.98,299.13c0.36,0.09,0.79,0.09,1.15,0
			c0.23-0.05,0.43-0.25,0.43-0.47c0-0.29-0.22-0.47-0.5-0.4s-0.72,0.07-1.01,0s-0.5,0.11-0.5,0.4
			C878.55,298.88,878.75,299.07,878.98,299.13z M882.3,292.47c0.29,0,0.5-0.22,0.5-0.5s-0.22-0.5-0.5-0.5s-0.5,0.22-0.5,0.5
			S882.01,292.47,882.3,292.47z M882.3,298.05c0.29,0,0.5-0.22,0.5-0.5s-0.22-0.5-0.5-0.5s-0.5,0.22-0.5,0.5
			S882.01,298.05,882.3,298.05z M883.2,295.78c0.22,0,0.41-0.2,0.47-0.43c0.09-0.36,0.09-0.79,0-1.15
			c-0.05-0.23-0.25-0.43-0.47-0.43c-0.29,0-0.47,0.22-0.4,0.5s0.07,0.72,0,1.01S882.91,295.78,883.2,295.78z"/>
		<path class="st1" d="M886.25,297.18v-5.01c0-0.11,0.07-0.18,0.18-0.18c0.29,0,0.5-0.22,0.5-0.5s-0.22-0.5-0.5-0.5
			s-0.5,0.22-0.5,0.5c0,0.11-0.07,0.18-0.18,0.18h-0.97v-1.4h1.04c0.29,0,0.5-0.22,0.5-0.5v-1.8h1.37v1.82
			c0,0.09-0.07,0.16-0.16,0.16c-0.29,0-0.5,0.22-0.5,0.5s0.22,0.5,0.5,0.5s0.5-0.22,0.5-0.5c0-0.11,0.07-0.18,0.18-0.18h1.46v1.4
			h-1.98v5.22c0,0.67,0.49,1.12,1.22,1.12c0.25,0,0.54-0.04,0.76-0.11l0.04,1.44c-0.29,0.09-0.67,0.14-1.01,0.14
			C887.24,299.49,886.25,298.57,886.25,297.18z M886.98,296.18c0.27,0,0.47-0.22,0.47-0.5v-1.08c0-0.29-0.2-0.5-0.47-0.5
			c-0.27,0-0.47,0.22-0.47,0.5v1.08C886.51,295.96,886.7,296.18,886.98,296.18z M887.08,298.05c0.29,0,0.5-0.22,0.5-0.5
			s-0.22-0.5-0.5-0.5c-0.29,0-0.5,0.22-0.5,0.5S886.8,298.05,887.08,298.05z M888.6,299.22c0.29,0,0.5-0.22,0.5-0.5
			s-0.22-0.5-0.5-0.5s-0.5,0.22-0.5,0.5S888.31,299.22,888.6,299.22z"/>
		<path class="st1" d="M890.79,294.81c0-2.75,1.8-4.75,4.32-4.75c2.59,0,4.25,2.09,4.25,4.97c0,0.07,0,0.16-0.02,0.31h-6.28
			c-0.14,0-0.25-0.09-0.31-0.23c-0.07-0.2-0.25-0.34-0.49-0.34c-0.29,0-0.5,0.22-0.5,0.5s0.22,0.5,0.5,0.5
			c0.11,0,0.23,0.11,0.27,0.25c0.4,1.22,1.39,2.03,2.65,2.03c1.19,0,2.27-0.76,2.48-1.8l1.62,0.5c-0.4,1.58-2.09,2.74-4.11,2.74
			C892.59,299.49,890.79,297.53,890.79,294.81z M892.3,294.5c0.22,0,0.4-0.13,0.47-0.32c0.05-0.14,0.14-0.25,0.32-0.25h4.07
			c0.13,0,0.22,0.09,0.27,0.23c0.07,0.2,0.25,0.34,0.49,0.34c0.29,0,0.5-0.22,0.5-0.5s-0.22-0.5-0.5-0.5
			c-0.14,0-0.23-0.09-0.29-0.23c-0.47-1.15-1.49-1.8-2.59-1.8c-1.12,0-2.02,0.7-2.45,1.8c-0.05,0.14-0.16,0.23-0.29,0.23
			c-0.29,0-0.5,0.22-0.5,0.5S892.02,294.5,892.3,294.5z M892.48,292.5c0.29,0,0.5-0.22,0.5-0.5s-0.22-0.5-0.5-0.5s-0.5,0.22-0.5,0.5
			S892.19,292.5,892.48,292.5z M892.52,298.05c0.29,0,0.5-0.22,0.5-0.5s-0.22-0.5-0.5-0.5s-0.5,0.22-0.5,0.5
			S892.23,298.05,892.52,298.05z M894.57,291.26c0.29-0.07,0.72-0.07,1.01,0c0.29,0.07,0.5-0.11,0.5-0.4c0-0.22-0.2-0.41-0.43-0.47
			c-0.36-0.09-0.79-0.09-1.15,0c-0.23,0.05-0.43,0.25-0.43,0.47C894.07,291.15,894.28,291.33,894.57,291.26z M894.64,299.13
			c0.36,0.09,0.79,0.09,1.15,0c0.23-0.05,0.43-0.25,0.43-0.47c0-0.29-0.22-0.47-0.5-0.4s-0.72,0.07-1.01,0s-0.5,0.11-0.5,0.4
			C894.21,298.88,894.41,299.07,894.64,299.13z M895.15,295.13c0.29,0,0.5-0.22,0.5-0.5s-0.22-0.5-0.5-0.5s-0.5,0.22-0.5,0.5
			S894.86,295.13,895.15,295.13z M897.7,292.5c0.29,0,0.5-0.22,0.5-0.5s-0.22-0.5-0.5-0.5s-0.5,0.22-0.5,0.5
			S897.42,292.5,897.7,292.5z M897.92,298.05c0.29,0,0.5-0.22,0.5-0.5s-0.22-0.5-0.5-0.5s-0.5,0.22-0.5,0.5
			S897.63,298.05,897.92,298.05z"/>
		<path class="st1" d="M900.51,297.8l5.17-5.76c0.2-0.22,0.31-0.07,0.59-0.07s0.5-0.22,0.5-0.5s-0.22-0.5-0.5-0.5s-0.5,0.22-0.5,0.5
			c0,0.11-0.07,0.18-0.2,0.18h-4.92v-1.37h7.13v1.4l-5.08,5.76c-0.18,0.22-0.31,0.07-0.59,0.07s-0.5,0.22-0.5,0.5s0.22,0.5,0.5,0.5
			s0.5-0.22,0.5-0.5c0-0.11,0.07-0.18,0.2-0.18h5.04v1.44h-7.35V297.8z M901.7,291.42h1.08c0.29,0,0.5-0.2,0.5-0.47
			s-0.22-0.47-0.5-0.47h-1.08c-0.29,0-0.5,0.2-0.5,0.47S901.41,291.42,901.7,291.42z M903.66,295.98l0.74-0.79
			c0.18-0.22,0.18-0.5-0.02-0.68s-0.49-0.16-0.68,0.05l-0.72,0.81c-0.2,0.2-0.2,0.5,0,0.68
			C903.19,296.23,903.48,296.19,903.66,295.98z M905.07,293.71c0.22,0.2,0.52,0.18,0.72-0.04c0.2-0.2,0.18-0.5-0.04-0.7
			c-0.22-0.2-0.52-0.18-0.72,0.04C904.85,293.22,904.87,293.53,905.07,293.71z M905.73,299.02h1.08c0.29,0,0.5-0.2,0.5-0.47
			s-0.22-0.47-0.5-0.47h-1.08c-0.29,0-0.5,0.2-0.5,0.47S905.44,299.02,905.73,299.02z"/>
		<path class="st1" d="M913.71,293.66c-0.09-0.05-0.16-0.07-0.27-0.07c-0.29,0-0.5,0.22-0.5,0.5s0.22,0.5,0.5,0.5
			c0.11,0,0.2-0.02,0.29-0.07c0.11-0.07,0.22-0.05,0.29,0.04l3.49,4.72h-1.8l-3.03-4.12l-1.58,1.71v2.41h-1.44v-12.24h1.44v7.13
			c0,0.18-0.07,0.31-0.22,0.41c-0.11,0.09-0.18,0.23-0.18,0.4c0,0.29,0.22,0.5,0.5,0.5s0.5-0.22,0.5-0.5c0-0.11-0.02-0.18-0.07-0.29
			c-0.07-0.16-0.07-0.31,0.04-0.43l3.53-3.98h1.95l-3.03,3.31C914.01,293.71,913.85,293.73,913.71,293.66z M910.37,292.9
			c0.29,0,0.5-0.22,0.5-0.5s-0.22-0.5-0.5-0.5s-0.5,0.22-0.5,0.5S910.09,292.9,910.37,292.9z M910.37,290.45
			c0.27,0,0.47-0.22,0.47-0.5v-1.87c0-0.29-0.2-0.5-0.47-0.5c-0.27,0-0.47,0.22-0.47,0.5v1.87
			C909.91,290.23,910.11,290.45,910.37,290.45z M910.37,298.7c0.27,0,0.47-0.22,0.47-0.5v-1.08c0-0.29-0.2-0.5-0.47-0.5
			c-0.27,0-0.47,0.22-0.47,0.5v1.08C909.91,298.48,910.11,298.7,910.37,298.7z M915.43,298.46c0.16,0.23,0.45,0.31,0.67,0.14
			c0.22-0.16,0.25-0.45,0.09-0.68l-1.12-1.51c-0.16-0.23-0.45-0.31-0.67-0.14s-0.25,0.45-0.09,0.68L915.43,298.46z M915.31,291.71
			c0.29,0,0.5-0.22,0.5-0.5s-0.22-0.5-0.5-0.5s-0.5,0.22-0.5,0.5S915.02,291.71,915.31,291.71z"/>
		<path class="st1" d="M922.72,287.57h5c2,0,3.49,1.28,3.49,2.99c0,0.88-0.4,1.69-1.12,2.23c-0.16,0.13-0.36,0.13-0.49,0
			c-0.09-0.09-0.22-0.14-0.36-0.14c-0.29,0-0.5,0.22-0.5,0.5s0.22,0.5,0.5,0.5c0.14,0,0.25-0.07,0.36-0.14
			c0.14-0.11,0.32-0.13,0.54,0c0.94,0.58,1.5,1.51,1.5,2.59c0,1.78-1.51,3.17-3.46,3.17h-5.47V287.57z M924.23,293.08
			c0.2,0,0.38-0.11,0.45-0.27c0.05-0.14,0.18-0.23,0.32-0.23h2.68c1.17,0,2.02-0.76,2.02-1.78s-0.85-1.78-2.02-1.78h-2.68
			c-0.14,0-0.27-0.09-0.32-0.23c-0.07-0.16-0.25-0.27-0.45-0.27c-0.29,0-0.5,0.22-0.5,0.5c0,0.2,0.11,0.38,0.27,0.45
			c0.14,0.05,0.23,0.18,0.23,0.32v2.02c0,0.14-0.09,0.27-0.23,0.32c-0.16,0.07-0.27,0.25-0.27,0.45
			C923.73,292.86,923.95,293.08,924.23,293.08z M924.69,298.03c0.05-0.14,0.18-0.23,0.32-0.23h2.97c1.22,0,2.12-0.79,2.12-1.89
			c0-1.1-0.9-1.89-2.12-1.89h-2.97c-0.14,0-0.27-0.09-0.32-0.23c-0.07-0.16-0.25-0.27-0.45-0.27c-0.29,0-0.5,0.22-0.5,0.5
			c0,0.2,0.11,0.38,0.27,0.45c0.14,0.05,0.23,0.18,0.23,0.32v2.23c0,0.14-0.09,0.27-0.23,0.32c-0.16,0.07-0.27,0.25-0.27,0.45
			c0,0.29,0.22,0.5,0.5,0.5C924.43,298.3,924.61,298.19,924.69,298.03z M926.36,288.76h1.08c0.29,0,0.5-0.2,0.5-0.47
			s-0.22-0.47-0.5-0.47h-1.08c-0.29,0-0.5,0.2-0.5,0.47S926.07,288.76,926.36,288.76z M926.58,293.8c0.29,0,0.5-0.22,0.5-0.5
			s-0.22-0.5-0.5-0.5s-0.5,0.22-0.5,0.5S926.29,293.8,926.58,293.8z M926.79,298.99h1.08c0.29,0,0.5-0.2,0.5-0.47
			s-0.22-0.47-0.5-0.47h-1.08c-0.29,0-0.5,0.2-0.5,0.47S926.5,298.99,926.79,298.99z M930.39,290.81c0.29,0,0.5-0.22,0.5-0.5
			s-0.22-0.5-0.5-0.5s-0.5,0.22-0.5,0.5S930.11,290.81,930.39,290.81z M930.81,296.9c0.29,0,0.5-0.22,0.5-0.5s-0.22-0.5-0.5-0.5
			s-0.5,0.22-0.5,0.5S930.52,296.9,930.81,296.9z"/>
		<path class="st1" d="M936.98,290.05c0.36,0,0.85,0.09,1.15,0.22l-0.07,1.69c-0.47-0.23-0.95-0.29-1.22-0.29
			c-1.17,0-2.02,1.01-2.02,2.41v5.19h-1.44v-9h1.22l0.07,0.54c0.02,0.16-0.05,0.32-0.2,0.43c-0.11,0.09-0.18,0.23-0.18,0.4
			c0,0.29,0.22,0.5,0.5,0.5s0.5-0.22,0.5-0.5c0-0.11-0.02-0.18-0.07-0.29c-0.07-0.16-0.07-0.31,0.04-0.43
			C935.7,290.38,936.3,290.05,936.98,290.05z M934.1,295.1c0.29,0,0.5-0.22,0.5-0.5s-0.22-0.5-0.5-0.5s-0.5,0.22-0.5,0.5
			S933.81,295.1,934.1,295.1z M934.1,298.7c0.27,0,0.47-0.22,0.47-0.5v-1.08c0-0.29-0.2-0.5-0.47-0.5c-0.27,0-0.47,0.22-0.47,0.5
			v1.08C933.63,298.48,933.83,298.7,934.1,298.7z M936.98,291.39c0.29,0,0.5-0.22,0.5-0.5s-0.22-0.5-0.5-0.5s-0.5,0.22-0.5,0.5
			S936.69,291.39,936.98,291.39z"/>
		<path class="st1" d="M939.28,295.78v-5.51h1.44v5.37c0,1.37,0.88,2.38,2.23,2.38c1.42,0,2.67-1.1,2.67-2.81v-4.93h1.44v7.2
			l0.04,1.8h-1.26l-0.07-0.65c-0.02-0.16,0.05-0.32,0.2-0.43c0.11-0.09,0.18-0.23,0.18-0.4c0-0.29-0.22-0.5-0.5-0.5
			s-0.5,0.22-0.5,0.5c0,0.11,0.02,0.18,0.07,0.29c0.07,0.16,0.07,0.31-0.04,0.43c-0.56,0.61-1.44,0.97-2.43,0.97
			C940.74,299.49,939.28,297.92,939.28,295.78z M940,291.82c0.29,0,0.5-0.22,0.5-0.5s-0.22-0.5-0.5-0.5s-0.5,0.22-0.5,0.5
			S939.71,291.82,940,291.82z M940,296.18c0.27,0,0.47-0.22,0.47-0.5v-1.08c0-0.29-0.2-0.5-0.47-0.5c-0.27,0-0.47,0.22-0.47,0.5
			v1.08C939.53,295.96,939.73,296.18,940,296.18z M940.61,298.12c0.29,0,0.5-0.22,0.5-0.5s-0.22-0.5-0.5-0.5s-0.5,0.22-0.5,0.5
			S940.33,298.12,940.61,298.12z M942.23,299.13c0.36,0.09,0.79,0.09,1.15,0c0.23-0.05,0.43-0.25,0.43-0.47
			c0-0.29-0.22-0.47-0.5-0.4s-0.72,0.07-1.01,0s-0.5,0.11-0.5,0.4C941.8,298.88,942,299.07,942.23,299.13z M946.34,296.18
			c0.29,0,0.5-0.22,0.5-0.5s-0.22-0.5-0.5-0.5s-0.5,0.22-0.5,0.5S946.05,296.18,946.34,296.18z M946.34,292.9
			c0.27,0,0.47-0.22,0.47-0.5v-1.08c0-0.29-0.2-0.5-0.47-0.5c-0.27,0-0.47,0.22-0.47,0.5v1.08
			C945.87,292.68,946.07,292.9,946.34,292.9z"/>
		<path class="st1" d="M953.41,293.66c-0.09-0.05-0.16-0.07-0.27-0.07c-0.29,0-0.5,0.22-0.5,0.5s0.22,0.5,0.5,0.5
			c0.11,0,0.2-0.02,0.29-0.07c0.11-0.07,0.22-0.05,0.29,0.04l3.49,4.72h-1.8l-3.03-4.12l-1.58,1.71v2.41h-1.44v-12.24h1.44v7.13
			c0,0.18-0.07,0.31-0.22,0.41c-0.11,0.09-0.18,0.23-0.18,0.4c0,0.29,0.22,0.5,0.5,0.5s0.5-0.22,0.5-0.5c0-0.11-0.02-0.18-0.07-0.29
			c-0.07-0.16-0.07-0.31,0.04-0.43l3.53-3.98h1.94l-3.03,3.31C953.72,293.71,953.56,293.73,953.41,293.66z M950.08,292.9
			c0.29,0,0.5-0.22,0.5-0.5s-0.22-0.5-0.5-0.5s-0.5,0.22-0.5,0.5S949.79,292.9,950.08,292.9z M950.08,290.45
			c0.27,0,0.47-0.22,0.47-0.5v-1.87c0-0.29-0.2-0.5-0.47-0.5c-0.27,0-0.47,0.22-0.47,0.5v1.87
			C949.61,290.23,949.81,290.45,950.08,290.45z M950.08,298.7c0.27,0,0.47-0.22,0.47-0.5v-1.08c0-0.29-0.2-0.5-0.47-0.5
			c-0.27,0-0.47,0.22-0.47,0.5v1.08C949.61,298.48,949.81,298.7,950.08,298.7z M955.14,298.46c0.16,0.23,0.45,0.31,0.67,0.14
			c0.22-0.16,0.25-0.45,0.09-0.68l-1.12-1.51c-0.16-0.23-0.45-0.31-0.67-0.14c-0.22,0.16-0.25,0.45-0.09,0.68L955.14,298.46z
			 M955.02,291.71c0.29,0,0.5-0.22,0.5-0.5s-0.22-0.5-0.5-0.5s-0.5,0.22-0.5,0.5S954.73,291.71,955.02,291.71z"/>
		<path class="st1" d="M958.87,297.18v-5.01c0-0.11,0.07-0.18,0.18-0.18c0.29,0,0.5-0.22,0.5-0.5s-0.22-0.5-0.5-0.5
			s-0.5,0.22-0.5,0.5c0,0.11-0.07,0.18-0.18,0.18h-0.97v-1.4h1.04c0.29,0,0.5-0.22,0.5-0.5v-1.8h1.37v1.82
			c0,0.09-0.07,0.16-0.16,0.16c-0.29,0-0.5,0.22-0.5,0.5s0.22,0.5,0.5,0.5s0.5-0.22,0.5-0.5c0-0.11,0.07-0.18,0.18-0.18h1.46v1.4
			h-1.98v5.22c0,0.67,0.49,1.12,1.22,1.12c0.25,0,0.54-0.04,0.76-0.11l0.04,1.44c-0.29,0.09-0.67,0.14-1.01,0.14
			C959.86,299.49,958.87,298.57,958.87,297.18z M959.59,296.18c0.27,0,0.47-0.22,0.47-0.5v-1.08c0-0.29-0.2-0.5-0.47-0.5
			c-0.27,0-0.47,0.22-0.47,0.5v1.08C959.12,295.96,959.32,296.18,959.59,296.18z M959.7,298.05c0.29,0,0.5-0.22,0.5-0.5
			s-0.22-0.5-0.5-0.5c-0.29,0-0.5,0.22-0.5,0.5S959.41,298.05,959.7,298.05z M961.21,299.22c0.29,0,0.5-0.22,0.5-0.5
			s-0.22-0.5-0.5-0.5s-0.5,0.22-0.5,0.5S960.92,299.22,961.21,299.22z"/>
	</g>
</g>
</svg>
