<?xml version="1.0" encoding="utf-8"?>
<!-- Generator: Adobe Illustrator 25.2.1, SVG Export Plug-In . SVG Version: 6.00 Build 0)  -->
<svg version="1.1" id="Layer_1" xmlns="http://www.w3.org/2000/svg" xmlns:xlink="http://www.w3.org/1999/xlink" x="0px" y="0px"
	 viewBox="0 0 1048 810.67" style="enable-background:new 0 0 1048 810.67;" xml:space="preserve">
<style type="text/css">
	.st0{fill:#283B00;}
	.st1{fill:#D1E9C5;}
	.st2{fill:#FFF7B1;}
	.st3{fill:#FF5902;}
</style>
<path class="st0" d="M557.72,477.49c-4.97-23.44,13.1-52.9,23.8-67.09c8.37-11.1,18.21-21.11,27.6-31.41
	c16.07-17.62,36.37-28.04,59.33-33.16c14.84-3.31,29.89-5.78,44.93-8.12c33.66-5.22,61.11,0.5,84.99,4.21
	c74.84,11.63,112.26,17.45,132.86,33.85c6.33,5.03,43.67,35.76,47.83,85.11c0.61,7.26,2.88,49.38-23.7,78.42
	c-15.14,16.54-35.5,16.14-139.02,10.89c-69.32-3.52-104.24-5.32-116.96-7.58C648.42,533.57,566.52,519.04,557.72,477.49z"/>
<path class="st0" d="M617,144.53c-13.65-2.34-24.99-7.4-34.92-15.82c-9.76-8.28-14.37-19.05-15.78-31.34
	c-1.16-10.06,4.28-17.44,11.41-23.51c10.43-8.88,22.12-15.82,34.78-21.13c18.37-7.71,37.72-11.57,57.13-15.46
	c24.46-4.91,48.69-11.06,73.7-12.6c15.59-0.96,31.01,0.02,46.05,4.84c4.49,1.44,6.9,4.17,8.42,8.5c6.15,17.54,3.68,32.9-9.79,46.51
	c-6.1,6.17-11.4,13.33-16.09,20.66c-6.87,10.73-16.96,17.01-28.27,21.07c-29.72,10.67-60.84,15.42-91.89,20.24
	C639.77,148.35,627.83,147.43,617,144.53z"/>
<path class="st0" d="M518.5,331.18c-30.77-1.29-60.15-6.33-88.18-16.4c-18.26-6.56-26.69-17.41-25.93-33.13
	c1.39-28.64,14.33-53.87,37.18-75.71c16.06-15.35,38.14-22.55,62.98-22.71c25.98-0.17,51.57,2.52,74.74,13.18
	c10.53,4.84,19.04,10.74,24,20.04c4.59,8.6,11.22,16.51,16.63,24.86c9.64,14.87,7.28,29.79-1.72,44
	c-15.82,24.99-39.48,42.04-76.56,44.3C533.89,330.09,526.13,330.66,518.5,331.18z"/>
<path class="st0" d="M455.52,648.92c0,0-0.02,15.52-4.89,26.56c-2.16,4.9-5.37,8.03-10.99,7.98c-4.56-0.04-8.14-2.95-9.9-9.12
	c-1.32-4.63-2.16-9.51-2.44-14.32c-1.28-21.99-2.29-44-3.37-66.01c-0.08-1.61,0.01-3.25,0.18-4.85
	c1.19-11.27,9.26-15.85,19.04-10.18c4.84,2.81,9.06,6.21,10.88,11.15c1.38,3.74,0.91,7.05,0.77,8.3
	C452.87,615.15,455.69,632.09,455.52,648.92z"/>
<path class="st0" d="M533.42,433.9c-3.05,17.45-7.35,33.91-17.38,48.3c-1.26,1.81-3.01,3.47-4.9,4.61
	c-6.26,3.77-13.55,0.37-14.12-6.87c-0.4-5.09-0.56-10.54,0.82-15.37c3.44-12.09,7.43-24.06,11.95-35.79
	c2.97-7.71,15.42-9.77,20.95-3.61C532.62,427.28,532.62,431.09,533.42,433.9z"/>
<path class="st0" d="M450.36,529.73c-6.08-0.13-12.6-4.64-14.16-9.2c-2.1-6.15,1.46-10.13,5.63-13.24
	c10.11-7.53,22-11.16,34.24-12.56c8.06-0.92,14.43,4.9,20.63,9.46c2.82,2.07,2.46,5.22-0.22,7.51c-1.94,1.66-4.08,3.35-6.42,4.27
	c-11.44,4.46-22.97,8.71-34.51,12.91C453.76,529.53,451.74,529.52,450.36,529.73z"/>
<path class="st0" d="M425.58,779.39c-13.16,0.99-18.34-8.24-17.94-19.04c0.5-13.42,15.54-23.94,28.54-20.63
	c7.99,2.03,16.68,11.55,15.41,19.07c-1.39,8.21-6.88,14.57-14.77,17.95C433.33,778.23,429.34,778.54,425.58,779.39z"/>
<path class="st0" d="M523.21,407.1c-3.94-1.26-7.96-2.3-11.79-3.84c-3.66-1.47-5.33-4.73-5.23-8.51c0.11-4.27,2.66-7.07,6.62-8.6
	c5.74-2.21,15.6,0.18,19.67,4.8c2.66,3.02,2.74,6.44,1.17,9.89C531.67,405.18,528.03,406.78,523.21,407.1z"/>
<path class="st0" d="M448.74,727.26c-4.29-1.07-8.6-1.55-12.32-3.29c-2.17-1.02-4.24-3.84-4.83-6.23c-0.91-3.66,0.86-6.92,4.43-8.86
	c5.2-2.82,18.93-1.15,23.16,2.85c3.89,3.69,2.37,11.28-3.04,13.8C453.88,726.58,451.2,726.71,448.74,727.26z"/>
<path class="st0" d="M432.04,562.96c-1.85-0.86-5.25-2.02-8.18-3.92c-5.05-3.26-6.37-7.28-4.41-11.43c1.97-4.16,7.66-7.2,12.2-5.7
	c3.28,1.08,6.37,3.09,9.15,5.19c3.31,2.5,5.26,5.96,3.04,10.16C441.73,561.26,438.42,563.61,432.04,562.96z"/>
<g>
	<g>
		<path class="st1" d="M645.65,75.58c2.4,0,4.32,0.83,5.75,2.48s2.14,4.14,2.14,7.45c0,2.19-0.33,4.03-0.98,5.52
			s-1.58,2.61-2.77,3.38s-2.59,1.14-4.21,1.14c-1.02,0-1.92-0.13-2.69-0.4s-1.44-0.63-1.99-1.09s-1.01-0.96-1.37-1.49h-0.21
			c0.04,0.46,0.08,1.01,0.13,1.65s0.08,1.21,0.08,1.69v7.91h-2.94V75.93H639l0.39,2.85h0.14c0.38-0.59,0.83-1.12,1.37-1.61
			s1.2-0.87,1.98-1.16S644.58,75.58,645.65,75.58z M645.14,78.04c-1.34,0-2.41,0.26-3.23,0.77s-1.41,1.29-1.78,2.31
			s-0.57,2.31-0.6,3.86v0.56c0,1.63,0.18,3.01,0.54,4.13s0.95,1.98,1.78,2.57s1.94,0.88,3.33,0.88c1.2,0,2.19-0.32,2.99-0.97
			s1.39-1.54,1.78-2.7s0.59-2.48,0.59-3.98c0-2.27-0.44-4.08-1.33-5.42S646.96,78.04,645.14,78.04z"/>
		<path class="st1" d="M667.37,75.58c0.39,0,0.79,0.02,1.21,0.06s0.8,0.1,1.12,0.17l-0.37,2.71c-0.32-0.08-0.67-0.15-1.05-0.19
			s-0.75-0.07-1.09-0.07c-0.77,0-1.5,0.16-2.19,0.47s-1.29,0.76-1.8,1.34s-0.92,1.28-1.21,2.09s-0.44,1.72-0.44,2.72V95.2h-2.94
			V75.93h2.43l0.32,3.55h0.12c0.4-0.71,0.88-1.37,1.44-1.96s1.22-1.06,1.96-1.42S666.46,75.58,667.37,75.58z"/>
		<path class="st1" d="M674.82,68.72c0.48,0,0.89,0.16,1.24,0.47s0.52,0.79,0.52,1.45c0,0.64-0.17,1.12-0.52,1.44
			s-0.76,0.47-1.24,0.47c-0.5,0-0.92-0.16-1.26-0.47s-0.5-0.8-0.5-1.44c0-0.66,0.17-1.14,0.5-1.45S674.32,68.72,674.82,68.72z
			 M676.25,75.93V95.2h-2.92V75.93H676.25z"/>
		<path class="st1" d="M691.54,75.58c2.29,0,4.01,0.56,5.19,1.68s1.76,2.92,1.76,5.39V95.2h-2.88V82.84c0-1.61-0.37-2.81-1.1-3.6
			s-1.85-1.2-3.37-1.2c-2.13,0-3.63,0.6-4.5,1.81s-1.3,2.96-1.3,5.26V95.2h-2.92V75.93h2.36l0.44,2.78h0.16
			c0.41-0.68,0.93-1.25,1.56-1.71s1.34-0.81,2.13-1.05S690.67,75.58,691.54,75.58z"/>
		<path class="st1" d="M710.72,93.16c0.48,0,0.97-0.04,1.48-0.12s0.91-0.18,1.23-0.3V95c-0.34,0.15-0.81,0.28-1.42,0.39
			s-1.19,0.16-1.77,0.16c-1.02,0-1.95-0.18-2.78-0.54s-1.5-0.96-2-1.82s-0.75-2.04-0.75-3.55V78.22h-2.74v-1.42l2.76-1.14l1.16-4.18
			h1.76v4.46h5.64v2.29h-5.64v11.34c0,1.21,0.28,2.11,0.83,2.71S709.79,93.16,710.72,93.16z"/>
	</g>
</g>
<g>
	<g>
		<path class="st1" d="M455.26,244.31c1.06,0,1.86,0.28,2.4,0.83s0.81,1.44,0.81,2.67v6.31h-1.44v-6.24c0-0.78-0.17-1.36-0.51-1.75
			s-0.84-0.58-1.5-0.58c-0.93,0-1.61,0.27-2.03,0.81s-0.63,1.33-0.63,2.38v5.39h-1.45v-6.24c0-0.52-0.07-0.96-0.22-1.3
			c-0.15-0.35-0.37-0.6-0.67-0.78s-0.67-0.26-1.12-0.26c-0.64,0-1.15,0.13-1.54,0.4s-0.67,0.65-0.84,1.17s-0.26,1.16-0.26,1.91v5.1
			h-1.46v-9.63h1.18l0.22,1.36h0.08c0.19-0.33,0.44-0.62,0.73-0.84s0.62-0.4,0.98-0.52s0.75-0.18,1.16-0.18
			c0.73,0,1.35,0.14,1.84,0.41c0.49,0.27,0.85,0.69,1.08,1.24h0.08c0.32-0.56,0.75-0.97,1.3-1.24S454.6,244.31,455.26,244.31z"/>
		<path class="st1" d="M465.06,244.32c1.15,0,2,0.26,2.56,0.77s0.83,1.34,0.83,2.47v6.55h-1.06l-0.28-1.42h-0.07
			c-0.27,0.35-0.55,0.65-0.84,0.88s-0.63,0.42-1.02,0.54s-0.85,0.18-1.41,0.18c-0.59,0-1.11-0.1-1.56-0.31s-0.81-0.52-1.07-0.93
			s-0.39-0.94-0.39-1.58c0-0.96,0.38-1.7,1.14-2.21s1.92-0.8,3.48-0.84l1.66-0.07v-0.59c0-0.83-0.18-1.42-0.54-1.75
			s-0.86-0.5-1.51-0.5c-0.5,0-0.98,0.07-1.44,0.22s-0.89,0.32-1.3,0.52l-0.45-1.11c0.43-0.22,0.93-0.41,1.49-0.57
			S464.44,244.32,465.06,244.32z M467.02,249.37l-1.47,0.06c-1.2,0.05-2.05,0.24-2.54,0.59s-0.74,0.83-0.74,1.47
			c0,0.55,0.17,0.96,0.5,1.22s0.78,0.4,1.33,0.4c0.86,0,1.56-0.24,2.1-0.71s0.82-1.19,0.82-2.14V249.37z"/>
		<path class="st1" d="M472.21,240.88c0.24,0,0.45,0.08,0.62,0.23s0.26,0.4,0.26,0.73c0,0.32-0.09,0.56-0.26,0.72
			s-0.38,0.24-0.62,0.24c-0.25,0-0.46-0.08-0.63-0.24c-0.17-0.16-0.25-0.4-0.25-0.72c0-0.33,0.08-0.57,0.25-0.73
			C471.75,240.96,471.96,240.88,472.21,240.88z M472.92,244.48v9.63h-1.46v-9.63H472.92z"/>
		<path class="st1" d="M480.57,244.31c1.14,0,2.01,0.28,2.59,0.84s0.88,1.46,0.88,2.69v6.28h-1.44v-6.18c0-0.8-0.18-1.4-0.55-1.8
			s-0.93-0.6-1.68-0.6c-1.07,0-1.82,0.3-2.25,0.91s-0.65,1.48-0.65,2.63v5.04h-1.46v-9.63h1.18l0.22,1.39h0.08
			c0.21-0.34,0.47-0.63,0.78-0.86s0.67-0.41,1.06-0.53S480.13,244.31,480.57,244.31z"/>
		<path class="st1" d="M488.51,254.11h-1.47v-13.68h1.47V254.11z"/>
		<path class="st1" d="M490.07,244.48h1.56l2.13,5.59c0.12,0.33,0.24,0.64,0.34,0.94s0.2,0.59,0.28,0.87s0.15,0.54,0.19,0.8h0.06
			c0.08-0.29,0.2-0.68,0.35-1.16s0.32-0.97,0.49-1.46l2.01-5.58h1.57l-4.19,11.05c-0.22,0.59-0.48,1.11-0.78,1.55
			s-0.65,0.78-1.08,1.02s-0.93,0.36-1.53,0.36c-0.28,0-0.52-0.02-0.73-0.05s-0.39-0.07-0.54-0.11v-1.17
			c0.13,0.03,0.29,0.06,0.47,0.08c0.19,0.02,0.38,0.04,0.58,0.04c0.36,0,0.68-0.07,0.95-0.21c0.27-0.14,0.5-0.34,0.69-0.6
			s0.36-0.58,0.5-0.94l0.53-1.35L490.07,244.48z"/>
		<path class="st1" d="M509.66,244.31c0.19,0,0.4,0.01,0.61,0.03s0.4,0.05,0.56,0.08l-0.18,1.35c-0.16-0.04-0.33-0.07-0.53-0.1
			s-0.38-0.04-0.54-0.04c-0.39,0-0.75,0.08-1.09,0.23c-0.34,0.16-0.64,0.38-0.9,0.67s-0.46,0.64-0.61,1.05s-0.22,0.86-0.22,1.36
			v5.17h-1.47v-9.63h1.21l0.16,1.78h0.06c0.2-0.36,0.44-0.68,0.72-0.98s0.61-0.53,0.98-0.71
			C508.79,244.39,509.2,244.31,509.66,244.31z"/>
		<path class="st1" d="M516.35,244.31c0.82,0,1.52,0.18,2.11,0.54s1.03,0.87,1.34,1.52s0.47,1.42,0.47,2.29v0.91h-6.65
			c0.02,1.13,0.3,1.99,0.84,2.58s1.31,0.89,2.3,0.89c0.61,0,1.15-0.06,1.62-0.17s0.96-0.28,1.46-0.49v1.28
			c-0.49,0.22-0.97,0.38-1.45,0.47c-0.48,0.1-1.04,0.15-1.69,0.15c-0.93,0-1.73-0.19-2.42-0.57c-0.69-0.38-1.22-0.93-1.6-1.67
			s-0.57-1.63-0.57-2.69c0-1.04,0.17-1.94,0.52-2.69c0.35-0.76,0.84-1.34,1.48-1.75C514.74,244.51,515.49,244.31,516.35,244.31z
			 M516.33,245.5c-0.78,0-1.4,0.25-1.86,0.76s-0.74,1.22-0.83,2.14h5.1c-0.01-0.57-0.1-1.08-0.27-1.52s-0.43-0.78-0.79-1.02
			S516.88,245.5,516.33,245.5z"/>
		<path class="st1" d="M526.61,254.29c-0.87,0-1.63-0.18-2.29-0.54s-1.18-0.9-1.55-1.63s-0.55-1.66-0.55-2.77
			c0-1.17,0.19-2.12,0.58-2.86s0.93-1.29,1.61-1.65s1.46-0.54,2.34-0.54c0.48,0,0.95,0.05,1.39,0.15c0.45,0.1,0.82,0.22,1.1,0.36
			l-0.44,1.22c-0.29-0.12-0.63-0.22-1.02-0.32s-0.74-0.14-1.08-0.14c-0.67,0-1.22,0.14-1.67,0.43s-0.77,0.71-0.99,1.27
			c-0.22,0.56-0.33,1.24-0.33,2.06c0,0.78,0.11,1.44,0.32,2s0.53,0.97,0.96,1.26c0.42,0.29,0.96,0.44,1.59,0.44
			c0.51,0,0.97-0.05,1.38-0.16s0.78-0.24,1.12-0.38v1.3c-0.32,0.16-0.68,0.29-1.08,0.38C527.62,254.25,527.15,254.29,526.61,254.29z
			"/>
		<path class="st1" d="M529.85,244.48h1.56l2.13,5.59c0.12,0.33,0.24,0.64,0.34,0.94s0.2,0.59,0.28,0.87s0.15,0.54,0.19,0.8h0.06
			c0.08-0.29,0.2-0.68,0.35-1.16s0.32-0.97,0.49-1.46l2.01-5.58h1.57l-4.19,11.05c-0.22,0.59-0.48,1.11-0.78,1.55
			s-0.65,0.78-1.08,1.02s-0.93,0.36-1.53,0.36c-0.28,0-0.52-0.02-0.73-0.05s-0.39-0.07-0.54-0.11v-1.17
			c0.13,0.03,0.29,0.06,0.47,0.08c0.19,0.02,0.38,0.04,0.58,0.04c0.36,0,0.68-0.07,0.95-0.21c0.27-0.14,0.5-0.34,0.69-0.6
			s0.36-0.58,0.5-0.94l0.53-1.35L529.85,244.48z"/>
		<path class="st1" d="M544.24,254.29c-0.87,0-1.63-0.18-2.29-0.54s-1.18-0.9-1.55-1.63s-0.55-1.66-0.55-2.77
			c0-1.17,0.19-2.12,0.58-2.86s0.93-1.29,1.61-1.65s1.46-0.54,2.34-0.54c0.48,0,0.95,0.05,1.39,0.15c0.45,0.1,0.82,0.22,1.1,0.36
			l-0.44,1.22c-0.29-0.12-0.63-0.22-1.02-0.32s-0.74-0.14-1.08-0.14c-0.67,0-1.22,0.14-1.67,0.43s-0.77,0.71-0.99,1.27
			c-0.22,0.56-0.33,1.24-0.33,2.06c0,0.78,0.11,1.44,0.32,2s0.53,0.97,0.96,1.26c0.42,0.29,0.96,0.44,1.59,0.44
			c0.51,0,0.97-0.05,1.38-0.16s0.78-0.24,1.12-0.38v1.3c-0.32,0.16-0.68,0.29-1.08,0.38C545.26,254.25,544.79,254.29,544.24,254.29z
			"/>
		<path class="st1" d="M550.48,254.11h-1.47v-13.68h1.47V254.11z"/>
		<path class="st1" d="M557.26,244.31c0.82,0,1.52,0.18,2.11,0.54s1.03,0.87,1.34,1.52s0.47,1.42,0.47,2.29v0.91h-6.65
			c0.02,1.13,0.3,1.99,0.84,2.58s1.31,0.89,2.3,0.89c0.61,0,1.15-0.06,1.62-0.17s0.96-0.28,1.46-0.49v1.28
			c-0.49,0.22-0.97,0.38-1.45,0.47c-0.48,0.1-1.04,0.15-1.69,0.15c-0.93,0-1.73-0.19-2.42-0.57c-0.69-0.38-1.22-0.93-1.6-1.67
			s-0.57-1.63-0.57-2.69c0-1.04,0.17-1.94,0.52-2.69c0.35-0.76,0.84-1.34,1.48-1.75C555.65,244.51,556.4,244.31,557.26,244.31z
			 M557.24,245.5c-0.78,0-1.4,0.25-1.86,0.76s-0.74,1.22-0.83,2.14h5.1c-0.01-0.57-0.1-1.08-0.27-1.52s-0.43-0.78-0.79-1.02
			S557.79,245.5,557.24,245.5z"/>
		<path class="st1" d="M567.09,254.29c-1.22,0-2.18-0.42-2.9-1.25c-0.71-0.83-1.07-2.07-1.07-3.71c0-1.66,0.36-2.91,1.09-3.76
			s1.69-1.27,2.9-1.27c0.51,0,0.96,0.07,1.34,0.2s0.71,0.31,0.98,0.54s0.51,0.48,0.69,0.77h0.11c-0.02-0.18-0.05-0.43-0.07-0.75
			s-0.04-0.57-0.04-0.77v-3.86h1.46v13.68h-1.18l-0.22-1.37h-0.06c-0.18,0.29-0.41,0.55-0.69,0.78s-0.61,0.42-0.99,0.56
			C568.06,254.22,567.61,254.29,567.09,254.29z M567.32,253.08c1.03,0,1.76-0.29,2.19-0.88s0.64-1.46,0.64-2.61v-0.26
			c0-1.22-0.2-2.17-0.61-2.82c-0.41-0.66-1.15-0.98-2.22-0.98c-0.9,0-1.57,0.34-2.01,1.03s-0.67,1.63-0.67,2.82
			c0,1.18,0.22,2.1,0.66,2.74C565.74,252.75,566.41,253.08,567.32,253.08z"/>
		<path class="st1" d="M453.1,271.28c0,0.79-0.1,1.5-0.31,2.12s-0.5,1.15-0.89,1.57s-0.85,0.75-1.4,0.98s-1.17,0.34-1.86,0.34
			c-0.64,0-1.24-0.11-1.77-0.34c-0.54-0.23-1-0.55-1.39-0.98c-0.39-0.43-0.69-0.95-0.91-1.57s-0.32-1.33-0.32-2.12
			c0-1.05,0.18-1.95,0.54-2.69s0.87-1.31,1.53-1.7c0.66-0.39,1.46-0.58,2.38-0.58c0.88,0,1.65,0.2,2.31,0.59
			c0.66,0.39,1.17,0.96,1.54,1.7C452.92,269.34,453.1,270.23,453.1,271.28z M445.77,271.28c0,0.77,0.1,1.44,0.31,2.01
			s0.52,1.01,0.95,1.32s0.98,0.47,1.65,0.47c0.67,0,1.22-0.16,1.65-0.47c0.43-0.31,0.75-0.75,0.95-1.32s0.31-1.24,0.31-2.01
			c0-0.77-0.1-1.43-0.31-1.99s-0.52-0.99-0.95-1.3s-0.98-0.46-1.66-0.46c-1,0-1.74,0.33-2.2,0.99
			C446,269.19,445.77,270.11,445.77,271.28z"/>
		<path class="st1" d="M460,266.31c0.19,0,0.4,0.01,0.61,0.03s0.4,0.05,0.56,0.08l-0.18,1.35c-0.16-0.04-0.33-0.07-0.53-0.1
			s-0.38-0.04-0.54-0.04c-0.39,0-0.75,0.08-1.09,0.23c-0.34,0.16-0.64,0.38-0.9,0.67s-0.46,0.64-0.61,1.05s-0.22,0.86-0.22,1.36
			v5.17h-1.47v-9.63h1.21l0.16,1.78h0.06c0.2-0.36,0.44-0.68,0.72-0.98s0.61-0.53,0.98-0.71C459.13,266.39,459.54,266.31,460,266.31
			z"/>
		<path class="st1" d="M473.89,273.48c0,0.62-0.15,1.13-0.46,1.55c-0.31,0.42-0.75,0.73-1.32,0.94c-0.57,0.21-1.25,0.32-2.04,0.32
			c-0.67,0-1.26-0.05-1.75-0.16s-0.92-0.25-1.29-0.45v-1.34c0.39,0.19,0.86,0.37,1.41,0.53s1.1,0.24,1.67,0.24
			c0.83,0,1.44-0.13,1.81-0.4s0.56-0.64,0.56-1.1c0-0.26-0.08-0.5-0.22-0.7c-0.15-0.2-0.4-0.4-0.75-0.59s-0.84-0.4-1.46-0.63
			c-0.62-0.23-1.15-0.47-1.6-0.7c-0.45-0.23-0.79-0.51-1.04-0.85s-0.36-0.77-0.36-1.3c0-0.81,0.33-1.44,0.99-1.88
			c0.66-0.44,1.52-0.65,2.6-0.65c0.58,0,1.12,0.06,1.63,0.17s0.98,0.27,1.42,0.46l-0.49,1.17c-0.4-0.17-0.82-0.31-1.27-0.43
			s-0.91-0.18-1.38-0.18c-0.67,0-1.19,0.11-1.55,0.33c-0.36,0.22-0.54,0.53-0.54,0.91c0,0.3,0.08,0.54,0.25,0.74
			c0.17,0.19,0.44,0.38,0.8,0.54s0.86,0.37,1.46,0.6c0.6,0.22,1.12,0.45,1.56,0.69s0.78,0.52,1.02,0.86
			C473.77,272.52,473.89,272.95,473.89,273.48z"/>
		<path class="st1" d="M480.09,276.29c-0.87,0-1.63-0.18-2.29-0.54s-1.18-0.9-1.55-1.63s-0.55-1.66-0.55-2.77
			c0-1.17,0.19-2.12,0.58-2.86s0.93-1.29,1.61-1.65s1.46-0.54,2.34-0.54c0.48,0,0.95,0.05,1.39,0.15c0.45,0.1,0.82,0.22,1.1,0.36
			l-0.44,1.22c-0.29-0.12-0.63-0.22-1.02-0.32s-0.74-0.14-1.08-0.14c-0.67,0-1.22,0.14-1.67,0.43s-0.77,0.71-0.99,1.27
			c-0.22,0.56-0.33,1.24-0.33,2.06c0,0.78,0.11,1.44,0.32,2s0.53,0.97,0.96,1.26c0.42,0.29,0.96,0.44,1.59,0.44
			c0.51,0,0.97-0.05,1.38-0.16s0.78-0.24,1.12-0.38v1.3c-0.32,0.16-0.68,0.29-1.08,0.38C481.11,276.25,480.64,276.29,480.09,276.29z
			"/>
		<path class="st1" d="M489.23,266.31c0.19,0,0.4,0.01,0.61,0.03s0.4,0.05,0.56,0.08l-0.18,1.35c-0.16-0.04-0.33-0.07-0.53-0.1
			s-0.38-0.04-0.54-0.04c-0.39,0-0.75,0.08-1.09,0.23c-0.34,0.16-0.64,0.38-0.9,0.67s-0.46,0.64-0.61,1.05s-0.22,0.86-0.22,1.36
			v5.17h-1.47v-9.63h1.21l0.16,1.78h0.06c0.2-0.36,0.44-0.68,0.72-0.98s0.61-0.53,0.98-0.71
			C488.36,266.39,488.78,266.31,489.23,266.31z"/>
		<path class="st1" d="M495.82,266.32c1.15,0,2,0.26,2.56,0.77s0.83,1.34,0.83,2.47v6.55h-1.06l-0.28-1.42h-0.07
			c-0.27,0.35-0.55,0.65-0.84,0.88s-0.63,0.42-1.02,0.54s-0.85,0.18-1.41,0.18c-0.59,0-1.11-0.1-1.56-0.31s-0.81-0.52-1.07-0.93
			s-0.39-0.94-0.39-1.58c0-0.96,0.38-1.7,1.14-2.21s1.92-0.8,3.48-0.84l1.66-0.07v-0.59c0-0.83-0.18-1.42-0.54-1.75
			s-0.86-0.5-1.51-0.5c-0.5,0-0.98,0.07-1.44,0.22s-0.89,0.32-1.3,0.52l-0.45-1.11c0.43-0.22,0.93-0.41,1.49-0.57
			S495.2,266.32,495.82,266.32z M497.77,271.37l-1.47,0.06c-1.2,0.05-2.05,0.24-2.54,0.59s-0.74,0.83-0.74,1.47
			c0,0.55,0.17,0.96,0.5,1.22s0.78,0.4,1.33,0.4c0.86,0,1.56-0.24,2.1-0.71s0.82-1.19,0.82-2.14V271.37z"/>
		<path class="st1" d="M506.74,266.31c1.2,0,2.16,0.41,2.87,1.24s1.07,2.07,1.07,3.73c0,1.1-0.16,2.02-0.49,2.76
			s-0.79,1.31-1.38,1.69c-0.6,0.38-1.3,0.57-2.11,0.57c-0.51,0-0.96-0.07-1.34-0.2s-0.72-0.32-0.99-0.54s-0.5-0.48-0.69-0.75h-0.11
			c0.02,0.23,0.04,0.5,0.07,0.83c0.03,0.32,0.04,0.6,0.04,0.84v3.96h-1.47v-13.94h1.2l0.19,1.42h0.07c0.19-0.29,0.42-0.56,0.69-0.8
			s0.6-0.44,0.99-0.58S506.21,266.31,506.74,266.31z M506.49,267.54c-0.67,0-1.21,0.13-1.61,0.39c-0.41,0.26-0.71,0.64-0.89,1.16
			s-0.29,1.16-0.3,1.93v0.28c0,0.81,0.09,1.5,0.27,2.07s0.47,0.99,0.89,1.28c0.41,0.29,0.97,0.44,1.67,0.44
			c0.6,0,1.1-0.16,1.49-0.48s0.7-0.77,0.89-1.35s0.29-1.24,0.29-1.99c0-1.14-0.22-2.04-0.66-2.71S507.4,267.54,506.49,267.54z"/>
		<path class="st1" d="M522.43,266.31c1.2,0,2.16,0.41,2.87,1.24s1.07,2.07,1.07,3.73c0,1.1-0.16,2.02-0.49,2.76
			s-0.79,1.31-1.38,1.69c-0.6,0.38-1.3,0.57-2.11,0.57c-0.51,0-0.96-0.07-1.34-0.2s-0.72-0.32-0.99-0.54s-0.5-0.48-0.69-0.75h-0.11
			c0.02,0.23,0.04,0.5,0.07,0.83c0.03,0.32,0.04,0.6,0.04,0.84v3.96h-1.47v-13.94h1.2l0.19,1.42h0.07c0.19-0.29,0.42-0.56,0.69-0.8
			s0.6-0.44,0.99-0.58S521.9,266.31,522.43,266.31z M522.18,267.54c-0.67,0-1.21,0.13-1.61,0.39c-0.41,0.26-0.71,0.64-0.89,1.16
			s-0.29,1.16-0.3,1.93v0.28c0,0.81,0.09,1.5,0.27,2.07s0.47,0.99,0.89,1.28c0.41,0.29,0.97,0.44,1.67,0.44
			c0.6,0,1.1-0.16,1.49-0.48s0.7-0.77,0.89-1.35s0.29-1.24,0.29-1.99c0-1.14-0.22-2.04-0.66-2.71S523.09,267.54,522.18,267.54z"/>
		<path class="st1" d="M532.52,266.32c1.15,0,2,0.26,2.56,0.77s0.83,1.34,0.83,2.47v6.55h-1.06l-0.28-1.42h-0.07
			c-0.27,0.35-0.55,0.65-0.84,0.88s-0.63,0.42-1.02,0.54s-0.85,0.18-1.41,0.18c-0.59,0-1.11-0.1-1.56-0.31s-0.81-0.52-1.07-0.93
			s-0.39-0.94-0.39-1.58c0-0.96,0.38-1.7,1.14-2.21s1.92-0.8,3.48-0.84l1.66-0.07v-0.59c0-0.83-0.18-1.42-0.54-1.75
			s-0.86-0.5-1.51-0.5c-0.5,0-0.98,0.07-1.44,0.22s-0.89,0.32-1.3,0.52l-0.45-1.11c0.43-0.22,0.93-0.41,1.49-0.57
			S531.9,266.32,532.52,266.32z M534.47,271.37l-1.47,0.06c-1.2,0.05-2.05,0.24-2.54,0.59s-0.74,0.83-0.74,1.47
			c0,0.55,0.17,0.96,0.5,1.22s0.78,0.4,1.33,0.4c0.86,0,1.56-0.24,2.1-0.71s0.82-1.19,0.82-2.14V271.37z"/>
		<path class="st1" d="M543.44,266.31c1.2,0,2.16,0.41,2.87,1.24s1.07,2.07,1.07,3.73c0,1.1-0.16,2.02-0.49,2.76
			s-0.79,1.31-1.38,1.69c-0.6,0.38-1.3,0.57-2.11,0.57c-0.51,0-0.96-0.07-1.34-0.2s-0.72-0.32-0.99-0.54s-0.5-0.48-0.69-0.75h-0.11
			c0.02,0.23,0.04,0.5,0.07,0.83c0.03,0.32,0.04,0.6,0.04,0.84v3.96h-1.47v-13.94h1.2l0.19,1.42h0.07c0.19-0.29,0.42-0.56,0.69-0.8
			s0.6-0.44,0.99-0.58S542.91,266.31,543.44,266.31z M543.19,267.54c-0.67,0-1.21,0.13-1.61,0.39c-0.41,0.26-0.71,0.64-0.89,1.16
			s-0.29,1.16-0.3,1.93v0.28c0,0.81,0.09,1.5,0.27,2.07s0.47,0.99,0.89,1.28c0.41,0.29,0.97,0.44,1.67,0.44
			c0.6,0,1.1-0.16,1.49-0.48s0.7-0.77,0.89-1.35s0.29-1.24,0.29-1.99c0-1.14-0.22-2.04-0.66-2.71S544.1,267.54,543.19,267.54z"/>
		<path class="st1" d="M553.64,266.31c0.82,0,1.52,0.18,2.11,0.54s1.03,0.87,1.34,1.52s0.47,1.42,0.47,2.29v0.91h-6.65
			c0.02,1.13,0.3,1.99,0.84,2.58s1.31,0.89,2.3,0.89c0.61,0,1.15-0.06,1.62-0.17s0.96-0.28,1.46-0.49v1.28
			c-0.49,0.22-0.97,0.38-1.45,0.47c-0.48,0.1-1.04,0.15-1.69,0.15c-0.93,0-1.73-0.19-2.42-0.57c-0.69-0.38-1.22-0.93-1.6-1.67
			s-0.57-1.63-0.57-2.69c0-1.04,0.17-1.94,0.52-2.69c0.35-0.76,0.84-1.34,1.48-1.75C552.03,266.51,552.78,266.31,553.64,266.31z
			 M553.62,267.5c-0.78,0-1.4,0.25-1.86,0.76s-0.74,1.22-0.83,2.14h5.1c-0.01-0.57-0.1-1.08-0.27-1.52s-0.43-0.78-0.79-1.02
			S554.17,267.5,553.62,267.5z"/>
		<path class="st1" d="M564.42,266.31c0.19,0,0.4,0.01,0.61,0.03s0.4,0.05,0.56,0.08l-0.18,1.35c-0.16-0.04-0.33-0.07-0.53-0.1
			s-0.38-0.04-0.54-0.04c-0.39,0-0.75,0.08-1.09,0.23c-0.34,0.16-0.64,0.38-0.9,0.67s-0.46,0.64-0.61,1.05s-0.22,0.86-0.22,1.36
			v5.17h-1.47v-9.63h1.21l0.16,1.78h0.06c0.2-0.36,0.44-0.68,0.72-0.98s0.61-0.53,0.98-0.71
			C563.54,266.39,563.96,266.31,564.42,266.31z"/>
	</g>
</g>
<g>
	<g>
		<path class="st1" d="M828.86,418.91c-1.47,0-2.62-0.08-3.76,0.01c-14.76,1.15-29.49,0.82-44.25-0.23
			c-11.21-0.79-22.48-0.91-33.73-1.09c-25.08-0.4-50.15-0.75-75.23-0.93c-9.46-0.07-18.93,0.37-28.54,0.58
			c5.46,43.56,11.66,87.08,18.27,130.45c-1.93,1.31-3.06,0.72-3.56-0.88c-0.84-2.67-1.54-5.4-2.15-8.13
			c-1.13-5.01-2.15-10.04-3.17-14.8c-9.16,0.05-17.8,0.09-26.44,0.14c-9.84,0.05-19.69,0.08-29.53,0.17
			c-2.11,0.02-4.22,0.17-6.31,0.43c-2.28,0.29-3.95-0.22-4.57-3c0.13-0.28,0.3-0.84,0.62-1.3c8.56-12.31,17.17-24.58,25.68-36.93
			c1.42-2.05,3.11-3.06,5.55-2.89c4.79,0.33,9.57,0.78,14.36,0.94c4.77,0.16,9.55,0.04,14.65,0.04c0-0.76,0.08-1.66-0.01-2.54
			c-0.6-5.47-1.15-10.95-1.88-16.4c-1.01-7.55-2.23-15.07-3.21-22.62c-0.76-5.81-1.28-11.65-1.93-17.47
			c-0.1-0.93-0.22-1.89-0.55-2.75c-1.45-3.81-0.18-6.94,1.87-10.2c9.93-15.82,21.45-30.45,33.14-44.96
			c0.88-1.09,1.68-2.25,2.59-3.47c9.12-0.95,18.29-2.14,27.51-2.8c11.56-0.82,23.09-2.32,34.74-1.64
			c11.93,0.7,23.87,1.38,35.81,1.75c9.94,0.31,19.9,0.15,29.86,0.2c0.94,0,1.87-0.06,2.81-0.08c2.83-0.06,4.92,1,6.23,3.66
			c1.46,2.94,3.2,5.73,4.7,8.65c2.93,5.73,5.63,11.59,8.7,17.25c3.66,6.75,5.35,14,5.87,21.53c0.21,3.09-0.32,6.24-0.52,9.37
			c-0.34,5.25-0.58,10.52-1.07,15.76c-0.58,6.18-1.39,12.34-2.09,18.51c-0.18,1.62-0.3,3.24-0.48,5.3
			c4.92,0.98,9.66,2.12,14.47,2.83c6.02,0.89,12.12,1.24,18.13,2.18c5.66,0.89,11.26,2.21,16.87,3.4c5.96,1.27,9.66,5.82,8.99,12.3
			c-0.39,3.72-0.66,7.45-1.02,11.66c2.59,0.52,5.09,0.93,7.54,1.54c3.28,0.82,6.53,1.75,9.75,2.75c1.81,0.56,2.5,1.89,2.19,3.84
			c-0.5,3.24-0.77,6.52-1.31,9.75c-0.51,3.02-0.07,5.61,1.64,8.31c4.52,7.12,8.63,14.5,13.04,21.68c1.71,2.78,3.67,5.43,5.77,7.93
			c1.21,1.44,1.71,2.72,0.8,4.57c-10.24-2.41-20.79-2.17-31.19-3.44c-10.35-1.27-20.68-2.65-31.02-4.01
			c-10.8-1.42-21.61-2.83-32.4-4.32c-2.88-0.4-5.72-1.08-8.96-1.71c-0.56,3.1-1.08,6.06-1.62,9.01c-0.19,1.04-0.4,2.07-0.68,3.09
			c-0.28,1.04-0.92,1.6-2.51,1.11c0-0.99-0.12-2.12,0.02-3.21c0.94-7.56,2.06-15.1,2.86-22.67c1.17-11.07,2.28-22.15,3.11-33.25
			c0.9-12.04,1.31-24.11,2.21-36.15c0.48-6.42,1.69-12.79,2.3-19.2C828.33,430.81,828.5,425.08,828.86,418.91z M654.07,397.55
			c0.71,0.21,0.93,0.33,1.15,0.33c10.42-0.3,20.84-0.67,31.26-0.88c6.67-0.14,13.35,0.17,20.02-0.1c5.96-0.24,11.89-1.19,17.85-1.5
			c11.11-0.59,22.24-1.02,33.36-1.37c16.75-0.52,33.5-0.95,50.25-1.33c5.82-0.13,11.64-0.02,17.69-0.02
			c-5.89-10.63-11.65-21.02-17.54-31.66c-0.09-0.01-0.55-0.08-1-0.05c-11.36,0.75-22.69,0-34.04-0.5
			c-18.01-0.8-36.03-2.42-54.07-0.41c-8.96,1-17.94,1.8-26.92,2.68c-3.02,0.29-6.05,0.72-9.07,0.73c-1.97,0-3.23,0.59-4.42,2.14
			c-7.72,10.03-15.54,19.99-23.31,29.98C654.86,396.08,654.58,396.7,654.07,397.55z M826,396.47c-1.3-0.16-2.44-0.43-3.59-0.44
			c-6.91-0.07-13.82-0.27-20.72-0.08c-17.09,0.45-34.18,0.95-51.26,1.69c-19.18,0.83-38.35,1.98-57.52,2.94
			c-7.83,0.39-15.67,0.73-23.51,0.93c-6.06,0.15-12.13,0.03-17.91,0.03c-2.75,3.81-5.25,7.26-8.2,11.34c1.99,0,3.11,0,4.23,0
			c18.03-0.08,36.06-0.43,54.09-0.17c25.29,0.36,50.57,1.15,75.85,1.82c12.41,0.33,24.81,0.88,37.22,1.15
			c4.39,0.09,8.79-0.39,13.48-0.62C828.4,408.45,827,402.56,826,396.47z M824.6,525.53c7.18,1.48,13.82,2.81,20.45,4.23
			c4.24,0.9,8.4,2.25,12.68,2.84c11.37,1.55,22.79,2.81,34.19,4.16c2.41,0.28,4.83,0.45,7.44,0.68c0.26-1.63,0.51-2.88,0.66-4.14
			c0.65-5.46,1.28-10.91,1.91-16.37c0.52-4.42,0.96-8.85,1.59-13.25c0.3-2.08-0.36-3.43-2.28-4.12c-2.75-0.98-5.47-2.14-8.3-2.78
			c-7.77-1.74-15.56-3.44-23.41-4.78c-11.31-1.93-22.67-3.56-34.02-5.22c-3.87-0.56-5.63,0.64-7.01,4.3
			c-0.21,0.54-0.29,1.13-0.47,1.69C824.67,503.46,825.56,514.57,824.6,525.53z M590.92,520.37c0.9,0.07,1.44,0.14,1.97,0.14
			c8.3-0.03,16.6-0.11,24.91-0.1c9.24,0.01,18.48,0.15,27.72,0.13c2.05,0,4.09-0.43,6.57-0.72c-1.64-11.47-3.21-22.49-4.78-33.46
			c-1.31,0-2.25-0.11-3.16,0.02c-4.93,0.69-9.79,0.23-14.64-0.75c-2.97-0.6-6.03-0.79-9-1.41c-4.25-0.89-7.05,0.64-9.29,4.3
			c-5.14,8.37-10.51,16.59-15.79,24.86C593.99,515.62,592.55,517.84,590.92,520.37z M829.04,459.91
			c-0.95,3.83-1.83,24.93-1.07,27.59c1.52-4.12,4.59-4.58,8.12-4.09c1.25,0.18,2.52,0.18,3.65,0.25c2.19-4.15,2.47-8.78,5.3-12.53
			c1.97,1.29,1.51,2.9,1.12,4.47c-0.7,2.78-1.42,5.56-2.22,8.69c1.92,0.13,3.36,0.22,4.59,0.31c2.26-5.14,4.34-9.87,6.46-14.7
			c3.61,2.68,3.83,3.06,2.59,6.35c-0.82,2.18-1.97,4.23-2.99,6.33c-0.39,0.8-0.81,1.59-1.37,2.69c2.41,0.28,4.46,0.52,6.54,0.77
			c1.99-4.86,3.88-9.47,5.79-14.12c3.77,2.17,4.28,3.21,2.97,6.55c-1.06,2.71-2.36,5.33-3.7,8.32c2.36,0.42,4.61,0.83,6.88,1.23
			c1.77-4.29,3.45-8.36,5.12-12.43c3.16,1.44,3.96,2.62,3.44,5.85c-0.4,2.5-1.22,4.93-1.94,7.74c1.25,0.21,2.42,0.4,3.61,0.6
			c0.31-0.78,0.58-1.2,0.63-1.64c0.61-4.98,1.26-9.97,1.68-14.97c0.07-0.79-0.82-1.88-1.55-2.44c-0.79-0.61-1.91-0.91-2.93-1.1
			c-7.57-1.46-15.14-2.99-22.75-4.25c-5.76-0.96-11.62-1.35-17.37-2.38C836.11,462.37,832.7,461.01,829.04,459.91z M899.36,541.32
			c-13.15-1.37-25.83-2.68-38.51-4c-12.63-1.32-24.85-5.21-37.73-6.26c0.78,1.94,0.77,1.97,2.36,2.24
			c10.5,1.77,20.96,3.73,31.5,5.22c16.1,2.29,32.25,4.29,48.39,6.32c4.73,0.59,9.49,0.87,14.94,1.35
			c-5.24-9.56-9.79-18.73-16.39-27.27C902.42,526.77,902.36,534.23,899.36,541.32z"/>
		<path class="st1" d="M706.47,401.88c3.42,0,6.67-0.09,9.92,0.02c7.13,0.25,14.26,0.56,21.38,0.92c3.49,0.18,6.98,0.47,10.46,0.79
			c2.73,0.25,2.9,0.5,3.11,3.61c-2.79,1.53-5.96,1.82-9.05,1.94c-10.76,0.4-21.51,0.27-32.21-1.18
			C706.16,407.44,705.47,406.34,706.47,401.88z"/>
		<path class="st1" d="M772.2,408.93c-1.34-0.2-2.83-0.25-4.2-0.66c-1.22-0.36-1.43-1.96-0.34-2.36c1.11-0.4,2.49-0.49,3.63-0.21
			C772.59,406.03,772.9,407.22,772.2,408.93z"/>
		<path class="st1" d="M757.91,403.84c1.71,0.67,3.06,0.97,4.14,1.68c1.07,0.7,0.64,2-0.62,2.35
			C759.29,408.46,758.03,407.34,757.91,403.84z"/>
		<path class="st1" d="M796.62,410.42c-2.48,0.26-4.77,0.13-6.92-1.55C793.2,407.68,795.08,408.11,796.62,410.42z"/>
		<path class="st1" d="M774.28,412.98c-1.02-0.33-2.04-0.67-2.97-0.97c-0.05-2.04,1.29-2.35,2.32-2.06
			c0.64,0.19,0.96,1.49,1.43,2.29C774.8,412.49,774.54,412.74,774.28,412.98z"/>
		<path class="st1" d="M806,408.38c1.95-0.66,3.66-0.56,5.13,1.31C808.97,410.15,807.36,409.71,806,408.38z"/>
		<path class="st1" d="M779.54,407.11c-1.26,1.9-2.44,1.28-3.49,0.2c-0.19-0.2,0.05-1.25,0.36-1.43
			C778,404.98,778.89,405.82,779.54,407.11z"/>
		<path class="st1" d="M754.68,410.86c0.86-0.52,1.62-1.19,1.83-1.05c0.56,0.38,1.04,1.06,1.22,1.72c0.06,0.23-0.99,1.13-1.23,1.02
			C755.89,412.29,755.45,411.63,754.68,410.86z"/>
		<path class="st1" d="M803.76,403.21c2.32-0.78,4-0.63,5.68,0.62C806.98,404.72,806.7,404.69,803.76,403.21z"/>
		<path class="st1" d="M794.85,404.13c-1.62-0.32-3.23-0.65-4.85-0.97c0.05-0.25,0.1-0.5,0.16-0.74c1.76-0.36,3.44-0.33,4.87,0.86
			C794.97,403.57,794.91,403.85,794.85,404.13z"/>
		<path class="st1" d="M763.03,411c1.58-0.29,1.58-0.29,2.39,1.17C763.99,412.12,763.99,412.12,763.03,411z"/>
		<path class="st1" d="M899.58,503.51c-0.55,3.46-0.85,6.83-1.67,10.07c-1.18,4.62-2.69,9.17-4.21,13.7
			c-0.47,1.41-1.32,2.73-2.17,3.97c-1.02,1.48-2.59,1.93-4.33,1.68c-2.07-0.29-2.93-1.3-2.54-3.35c0.35-1.83,0.85-3.65,1.54-5.38
			c2.49-6.29,5.07-12.54,7.65-18.79C895.12,502.33,895.45,502.21,899.58,503.51z"/>
		<path class="st1" d="M837.62,526.3c3.23-11.66,4.77-23.82,11.13-34.43c2.77,0.7,3.15,0.94,2.77,3.06
			c-0.57,3.22-1.28,6.44-2.25,9.55c-2.03,6.48-4.29,12.89-6.43,19.33C841.87,526.7,841.26,527.03,837.62,526.3z"/>
		<path class="st1" d="M862.06,527.79c-1.42-1.29-2.24-2.34-1.58-4.14c3.09-8.33,6.08-16.7,9.14-25.04
			c0.32-0.86,0.86-1.64,1.33-2.52c2.25,0.04,2.98,1.39,2.81,3.2c-0.25,2.55-0.44,5.18-1.22,7.6c-1.75,5.45-3.81,10.8-5.82,16.16
			C865.9,525.21,864.25,526.64,862.06,527.79z"/>
		<path class="st1" d="M870.58,529.56c2.73-8.34,11.64-27.28,14.46-30.81c2.29,1.37,2.46,1.42,1.61,4.04
			c-2.01,6.21-4.12,12.39-6.33,18.54c-0.79,2.18-1.88,4.28-3,6.32C875.56,530.84,874.51,531.11,870.58,529.56z"/>
		<path class="st1" d="M828.13,519.39c0.89-3.77,1.73-7.39,2.59-11.01c0.84-3.53,1.64-7.06,2.58-10.56c0.6-2.24,1.33-4.46,3.1-6.08
			c2.86,1.1,3.38,1.52,2.91,3.95c-0.59,3.08-1.44,6.14-2.5,9.09c-1.53,4.28-3.4,8.44-5.01,12.7
			C831.21,519.06,830.7,520.37,828.13,519.39z"/>
		<path class="st1" d="M857.23,497.42c2.13,0.41,2.75,1.58,2.25,3.37c-0.85,3.03-1.62,6.1-2.67,9.06c-1.33,3.73-2.85,7.4-4.42,11.05
			c-1.17,2.71-1.55,2.8-4.9,2.12C847.26,520.29,854.17,502.07,857.23,497.42z"/>
	</g>
</g>
<path class="st0" d="M913.91,182.12c24.18,8.41,43.94,23.25,62.38,39.53c9.11,8.05,12.27,15.99,10.16,24.34
	c-2.42,9.56-7.2,18.02-15.57,24.24c-16.11,11.98-31.95,24.33-50.2,34.47c-24.27,13.48-56.97,14.57-90.95,11.77
	c-40.7-3.35-81.77-12.73-122.73-26.32c-3.85-1.28-7.67-2.85-11.54-3.89c-6.48-1.74-12.07-4.15-16.99-7.05
	c-7-4.13-21.22-11.02-25.79-25.4c-1.82-5.75-1.5-10.6-1.38-11.94c1.52-17.62,18.85-28.83,31.23-37.96
	c4.73-3.49,10.01-6.65,15.95-9.38c14.2-6.53,27.34-14.1,40.9-21.26c9.76-5.15,20.85-8.7,33.73-9.86c23.94-2.15,48.6-2.6,74.3-0.18
	C869.61,165.32,891.42,171.84,913.91,182.12z"/>
<g>
	<g>
		<path class="st1" d="M728.75,222c0.19,0,0.4,0.01,0.61,0.03s0.4,0.05,0.56,0.08l-0.18,1.35c-0.16-0.04-0.33-0.07-0.53-0.1
			s-0.38-0.04-0.54-0.04c-0.39,0-0.75,0.08-1.09,0.23c-0.34,0.16-0.64,0.38-0.9,0.67s-0.46,0.64-0.61,1.05s-0.22,0.86-0.22,1.36
			v5.17h-1.47v-9.63h1.21l0.16,1.78h0.06c0.2-0.36,0.44-0.68,0.72-0.98s0.61-0.53,0.98-0.71C727.88,222.09,728.29,222,728.75,222z"
			/>
		<path class="st1" d="M732.48,218.57c0.24,0,0.45,0.08,0.62,0.23s0.26,0.4,0.26,0.73c0,0.32-0.09,0.56-0.26,0.72
			s-0.38,0.24-0.62,0.24c-0.25,0-0.46-0.08-0.63-0.24c-0.17-0.16-0.25-0.4-0.25-0.72c0-0.33,0.08-0.57,0.25-0.73
			C732.02,218.65,732.23,218.57,732.48,218.57z M733.19,222.17v9.63h-1.46v-9.63H733.19z"/>
		<path class="st1" d="M742.51,229.17c0,0.62-0.15,1.13-0.46,1.55c-0.31,0.42-0.75,0.73-1.32,0.94c-0.57,0.21-1.25,0.32-2.04,0.32
			c-0.67,0-1.26-0.05-1.75-0.16s-0.92-0.25-1.29-0.45v-1.34c0.39,0.19,0.86,0.37,1.41,0.53s1.1,0.24,1.67,0.24
			c0.83,0,1.44-0.13,1.81-0.4s0.56-0.64,0.56-1.1c0-0.26-0.08-0.5-0.22-0.7c-0.15-0.2-0.4-0.4-0.75-0.59s-0.84-0.4-1.46-0.63
			c-0.62-0.23-1.15-0.47-1.6-0.7c-0.45-0.23-0.79-0.51-1.04-0.85s-0.36-0.77-0.36-1.3c0-0.81,0.33-1.44,0.99-1.88
			c0.66-0.44,1.52-0.65,2.6-0.65c0.58,0,1.12,0.06,1.63,0.17s0.98,0.27,1.42,0.46l-0.49,1.17c-0.4-0.17-0.82-0.31-1.27-0.43
			s-0.91-0.18-1.38-0.18c-0.67,0-1.19,0.11-1.55,0.33c-0.36,0.22-0.54,0.53-0.54,0.91c0,0.3,0.08,0.54,0.25,0.74
			c0.17,0.19,0.44,0.38,0.8,0.54s0.86,0.37,1.46,0.6c0.6,0.22,1.12,0.45,1.56,0.69s0.78,0.52,1.02,0.86
			C742.39,228.21,742.51,228.64,742.51,229.17z"/>
		<path class="st1" d="M753.16,226.97c0,0.79-0.1,1.5-0.31,2.12s-0.5,1.15-0.89,1.57s-0.85,0.75-1.4,0.98s-1.17,0.34-1.86,0.34
			c-0.64,0-1.24-0.11-1.77-0.34c-0.54-0.23-1-0.55-1.39-0.98c-0.39-0.43-0.69-0.95-0.91-1.57s-0.32-1.33-0.32-2.12
			c0-1.05,0.18-1.95,0.54-2.69s0.87-1.31,1.53-1.7c0.66-0.39,1.46-0.58,2.38-0.58c0.88,0,1.65,0.2,2.31,0.59
			c0.66,0.39,1.17,0.96,1.54,1.7C752.98,225.03,753.16,225.92,753.16,226.97z M745.83,226.97c0,0.77,0.1,1.44,0.31,2.01
			s0.52,1.01,0.95,1.32s0.98,0.47,1.65,0.47c0.67,0,1.22-0.16,1.65-0.47c0.43-0.31,0.75-0.75,0.95-1.32s0.31-1.24,0.31-2.01
			c0-0.77-0.1-1.43-0.31-1.99s-0.52-0.99-0.95-1.3s-0.98-0.46-1.66-0.46c-1,0-1.74,0.33-2.2,0.99
			C746.06,224.88,745.83,225.8,745.83,226.97z"/>
		<path class="st1" d="M758.37,236.13c-1.27,0-2.24-0.24-2.93-0.71s-1.03-1.13-1.03-1.98c0-0.6,0.19-1.12,0.58-1.55
			s0.92-0.71,1.6-0.85c-0.25-0.12-0.47-0.29-0.65-0.53s-0.27-0.5-0.27-0.81c0-0.35,0.1-0.66,0.29-0.93c0.2-0.27,0.5-0.52,0.9-0.77
			c-0.5-0.21-0.91-0.55-1.23-1.04s-0.47-1.06-0.47-1.71c0-0.69,0.14-1.28,0.43-1.77s0.7-0.86,1.25-1.12s1.2-0.39,1.98-0.39
			c0.17,0,0.34,0.01,0.51,0.02c0.17,0.01,0.34,0.04,0.5,0.06s0.3,0.06,0.41,0.09h3.3v0.94l-1.78,0.22c0.18,0.23,0.32,0.5,0.44,0.83
			s0.18,0.68,0.18,1.07c0,0.96-0.33,1.72-0.98,2.29s-1.54,0.85-2.68,0.85c-0.27,0-0.54-0.02-0.83-0.07
			c-0.29,0.16-0.5,0.33-0.66,0.53c-0.15,0.19-0.22,0.42-0.22,0.67c0,0.19,0.06,0.34,0.17,0.45c0.12,0.11,0.28,0.19,0.5,0.24
			s0.48,0.07,0.78,0.07h1.7c1.05,0,1.85,0.22,2.41,0.66c0.56,0.44,0.84,1.08,0.84,1.92c0,1.07-0.43,1.88-1.3,2.45
			S760.01,236.13,758.37,236.13z M758.41,234.99c0.8,0,1.46-0.08,1.98-0.24c0.52-0.16,0.92-0.39,1.18-0.69
			c0.26-0.3,0.39-0.66,0.39-1.08c0-0.39-0.09-0.68-0.26-0.87s-0.43-0.33-0.77-0.4s-0.76-0.1-1.25-0.1h-1.67
			c-0.43,0-0.81,0.07-1.13,0.2s-0.57,0.33-0.74,0.6s-0.26,0.59-0.26,0.98c0,0.52,0.22,0.92,0.66,1.19S757.6,234.99,758.41,234.99z
			 M758.79,227.29c0.7,0,1.22-0.18,1.57-0.53s0.53-0.86,0.53-1.54c0-0.72-0.18-1.26-0.54-1.62s-0.88-0.54-1.58-0.54
			c-0.67,0-1.18,0.19-1.54,0.56c-0.36,0.37-0.54,0.92-0.54,1.63c0,0.66,0.18,1.16,0.54,1.51S758.12,227.29,758.79,227.29z"/>
		<path class="st1" d="M769.83,222c0.19,0,0.4,0.01,0.61,0.03s0.4,0.05,0.56,0.08l-0.18,1.35c-0.16-0.04-0.33-0.07-0.53-0.1
			s-0.38-0.04-0.54-0.04c-0.39,0-0.75,0.08-1.09,0.23c-0.34,0.16-0.64,0.38-0.9,0.67s-0.46,0.64-0.61,1.05s-0.22,0.86-0.22,1.36
			v5.17h-1.47v-9.63h1.21l0.16,1.78h0.06c0.2-0.36,0.44-0.68,0.72-0.98s0.61-0.53,0.98-0.71C768.96,222.09,769.37,222,769.83,222z"
			/>
		<path class="st1" d="M776.41,222.02c1.15,0,2,0.26,2.56,0.77s0.83,1.34,0.83,2.47v6.55h-1.06l-0.28-1.42h-0.07
			c-0.27,0.35-0.55,0.65-0.84,0.88s-0.63,0.42-1.02,0.54s-0.85,0.18-1.41,0.18c-0.59,0-1.11-0.1-1.56-0.31s-0.81-0.52-1.07-0.93
			s-0.39-0.94-0.39-1.58c0-0.96,0.38-1.7,1.14-2.21s1.92-0.8,3.48-0.84l1.66-0.07v-0.59c0-0.83-0.18-1.42-0.54-1.75
			s-0.86-0.5-1.51-0.5c-0.5,0-0.98,0.07-1.44,0.22s-0.89,0.32-1.3,0.52l-0.45-1.11c0.43-0.22,0.93-0.41,1.49-0.57
			S775.79,222.02,776.41,222.02z M778.37,227.06l-1.47,0.06c-1.2,0.05-2.05,0.24-2.54,0.59s-0.74,0.83-0.74,1.47
			c0,0.55,0.17,0.96,0.5,1.22s0.78,0.4,1.33,0.4c0.86,0,1.56-0.24,2.1-0.71s0.82-1.19,0.82-2.14V227.06z"/>
		<path class="st1" d="M787.34,222c1.2,0,2.16,0.41,2.87,1.24s1.07,2.07,1.07,3.73c0,1.1-0.16,2.02-0.49,2.76s-0.79,1.31-1.38,1.69
			c-0.6,0.38-1.3,0.57-2.11,0.57c-0.51,0-0.96-0.07-1.34-0.2s-0.72-0.32-0.99-0.54s-0.5-0.48-0.69-0.75h-0.11
			c0.02,0.23,0.04,0.5,0.07,0.83c0.03,0.32,0.04,0.6,0.04,0.84v3.96h-1.47v-13.94h1.2l0.19,1.42h0.07c0.19-0.29,0.42-0.56,0.69-0.8
			s0.6-0.44,0.99-0.58S786.81,222,787.34,222z M787.08,223.23c-0.67,0-1.21,0.13-1.61,0.39c-0.41,0.26-0.71,0.64-0.89,1.16
			s-0.29,1.16-0.3,1.93v0.28c0,0.81,0.09,1.5,0.27,2.07s0.47,0.99,0.89,1.28c0.41,0.29,0.97,0.44,1.67,0.44
			c0.6,0,1.1-0.16,1.49-0.48s0.7-0.77,0.89-1.35s0.29-1.24,0.29-1.99c0-1.14-0.22-2.04-0.66-2.71S788,223.23,787.08,223.23z"/>
		<path class="st1" d="M795.28,218.13v4.09c0,0.23-0.01,0.47-0.02,0.71s-0.03,0.46-0.06,0.65h0.1c0.2-0.34,0.45-0.63,0.76-0.86
			c0.31-0.23,0.66-0.41,1.05-0.53s0.81-0.18,1.25-0.18c0.77,0,1.42,0.12,1.94,0.37c0.52,0.25,0.91,0.63,1.17,1.14s0.39,1.18,0.39,2
			v6.28h-1.44v-6.18c0-0.8-0.18-1.4-0.55-1.8s-0.93-0.6-1.68-0.6c-0.71,0-1.29,0.14-1.71,0.41s-0.73,0.67-0.91,1.2
			c-0.18,0.53-0.28,1.17-0.28,1.93v5.04h-1.46v-13.68H795.28z"/>
		<path class="st1" d="M728.57,246.86h3.62v1.2h-3.62v3.73h-1.2v-3.73h-3.62v-1.2h3.62v-3.74h1.2V246.86z"/>
		<path class="st1" d="M745.57,251.17c0,0.62-0.15,1.13-0.46,1.55c-0.31,0.42-0.75,0.73-1.32,0.94c-0.57,0.21-1.25,0.32-2.04,0.32
			c-0.67,0-1.26-0.05-1.75-0.16s-0.92-0.25-1.29-0.45v-1.34c0.39,0.19,0.86,0.37,1.41,0.53s1.1,0.24,1.67,0.24
			c0.83,0,1.44-0.13,1.81-0.4s0.56-0.64,0.56-1.1c0-0.26-0.08-0.5-0.22-0.7c-0.15-0.2-0.4-0.4-0.75-0.59s-0.84-0.4-1.46-0.63
			c-0.62-0.23-1.15-0.47-1.6-0.7c-0.45-0.23-0.79-0.51-1.04-0.85s-0.36-0.77-0.36-1.3c0-0.81,0.33-1.44,0.99-1.88
			c0.66-0.44,1.52-0.65,2.6-0.65c0.58,0,1.12,0.06,1.63,0.17s0.98,0.27,1.42,0.46l-0.49,1.17c-0.4-0.17-0.82-0.31-1.27-0.43
			s-0.91-0.18-1.38-0.18c-0.67,0-1.19,0.11-1.55,0.33c-0.36,0.22-0.54,0.53-0.54,0.91c0,0.3,0.08,0.54,0.25,0.74
			c0.17,0.19,0.44,0.38,0.8,0.54s0.86,0.37,1.46,0.6c0.6,0.22,1.12,0.45,1.56,0.69s0.78,0.52,1.02,0.86
			C745.45,250.21,745.57,250.64,745.57,251.17z"/>
		<path class="st1" d="M751.78,253.98c-0.87,0-1.63-0.18-2.29-0.54s-1.18-0.9-1.55-1.63s-0.55-1.66-0.55-2.77
			c0-1.17,0.19-2.12,0.58-2.86s0.93-1.29,1.61-1.65s1.46-0.54,2.34-0.54c0.48,0,0.95,0.05,1.39,0.15c0.45,0.1,0.82,0.22,1.1,0.36
			l-0.44,1.22c-0.29-0.12-0.63-0.22-1.02-0.32s-0.74-0.14-1.08-0.14c-0.67,0-1.22,0.14-1.67,0.43s-0.77,0.71-0.99,1.27
			c-0.22,0.56-0.33,1.24-0.33,2.06c0,0.78,0.11,1.44,0.32,2s0.53,0.97,0.96,1.26c0.42,0.29,0.96,0.44,1.59,0.44
			c0.51,0,0.97-0.05,1.38-0.16s0.78-0.24,1.12-0.38v1.3c-0.32,0.16-0.68,0.29-1.08,0.38C752.79,253.94,752.32,253.98,751.78,253.98z
			"/>
		<path class="st1" d="M760.92,244c0.19,0,0.4,0.01,0.61,0.03s0.4,0.05,0.56,0.08l-0.18,1.35c-0.16-0.04-0.33-0.07-0.53-0.1
			s-0.38-0.04-0.54-0.04c-0.39,0-0.75,0.08-1.09,0.23c-0.34,0.16-0.64,0.38-0.9,0.67s-0.46,0.64-0.61,1.05s-0.22,0.86-0.22,1.36
			v5.17h-1.47v-9.63h1.21l0.16,1.78h0.06c0.2-0.36,0.44-0.68,0.72-0.98s0.61-0.53,0.98-0.71C760.05,244.09,760.46,244,760.92,244z"
			/>
		<path class="st1" d="M767.61,244c0.82,0,1.52,0.18,2.11,0.54s1.03,0.87,1.34,1.52s0.47,1.42,0.47,2.29v0.91h-6.65
			c0.02,1.13,0.3,1.99,0.84,2.58s1.31,0.89,2.3,0.89c0.61,0,1.15-0.06,1.62-0.17s0.96-0.28,1.46-0.49v1.28
			c-0.49,0.22-0.97,0.38-1.45,0.47c-0.48,0.1-1.04,0.15-1.69,0.15c-0.93,0-1.73-0.19-2.42-0.57c-0.69-0.38-1.22-0.93-1.6-1.67
			s-0.57-1.63-0.57-2.69c0-1.04,0.17-1.94,0.52-2.69c0.35-0.76,0.84-1.34,1.48-1.75C766,244.2,766.75,244,767.61,244z
			 M767.59,245.19c-0.78,0-1.4,0.25-1.86,0.76s-0.74,1.22-0.83,2.14h5.1c-0.01-0.57-0.1-1.08-0.27-1.52s-0.43-0.78-0.79-1.02
			S768.14,245.19,767.59,245.19z"/>
		<path class="st1" d="M777.72,244c0.82,0,1.52,0.18,2.11,0.54s1.03,0.87,1.34,1.52s0.47,1.42,0.47,2.29v0.91h-6.65
			c0.02,1.13,0.3,1.99,0.84,2.58s1.31,0.89,2.3,0.89c0.61,0,1.15-0.06,1.62-0.17s0.96-0.28,1.46-0.49v1.28
			c-0.49,0.22-0.97,0.38-1.45,0.47c-0.48,0.1-1.04,0.15-1.69,0.15c-0.93,0-1.73-0.19-2.42-0.57c-0.69-0.38-1.22-0.93-1.6-1.67
			s-0.57-1.63-0.57-2.69c0-1.04,0.17-1.94,0.52-2.69c0.35-0.76,0.84-1.34,1.48-1.75C776.11,244.2,776.85,244,777.72,244z
			 M777.7,245.19c-0.78,0-1.4,0.25-1.86,0.76s-0.74,1.22-0.83,2.14h5.1c-0.01-0.57-0.1-1.08-0.27-1.52s-0.43-0.78-0.79-1.02
			S778.25,245.19,777.7,245.19z"/>
		<path class="st1" d="M788.68,244c1.14,0,2.01,0.28,2.59,0.84s0.88,1.46,0.88,2.69v6.28h-1.44v-6.18c0-0.8-0.18-1.4-0.55-1.8
			s-0.93-0.6-1.68-0.6c-1.07,0-1.82,0.3-2.25,0.91s-0.65,1.48-0.65,2.63v5.04h-1.46v-9.63h1.18l0.22,1.39h0.08
			c0.21-0.34,0.47-0.63,0.78-0.86s0.67-0.41,1.06-0.53S788.24,244,788.68,244z"/>
		<path class="st1" d="M799.68,244c1.2,0,2.16,0.41,2.87,1.24s1.07,2.07,1.07,3.73c0,1.1-0.16,2.02-0.49,2.76s-0.79,1.31-1.38,1.69
			c-0.6,0.38-1.3,0.57-2.11,0.57c-0.51,0-0.96-0.07-1.34-0.2s-0.72-0.32-0.99-0.54s-0.5-0.48-0.69-0.75h-0.11
			c0.02,0.23,0.04,0.5,0.07,0.83c0.03,0.32,0.04,0.6,0.04,0.84v3.96h-1.47v-13.94h1.2l0.19,1.42h0.07c0.19-0.29,0.42-0.56,0.69-0.8
			s0.6-0.44,0.99-0.58S799.15,244,799.68,244z M799.42,245.23c-0.67,0-1.21,0.13-1.61,0.39c-0.41,0.26-0.71,0.64-0.89,1.16
			s-0.29,1.16-0.3,1.93v0.28c0,0.81,0.09,1.5,0.27,2.07s0.47,0.99,0.89,1.28c0.41,0.29,0.97,0.44,1.67,0.44
			c0.6,0,1.1-0.16,1.49-0.48s0.7-0.77,0.89-1.35s0.29-1.24,0.29-1.99c0-1.14-0.22-2.04-0.66-2.71S800.34,245.23,799.42,245.23z"/>
		<path class="st1" d="M810.54,244c0.19,0,0.4,0.01,0.61,0.03s0.4,0.05,0.56,0.08l-0.18,1.35c-0.16-0.04-0.33-0.07-0.53-0.1
			s-0.38-0.04-0.54-0.04c-0.39,0-0.75,0.08-1.09,0.23c-0.34,0.16-0.64,0.38-0.9,0.67s-0.46,0.64-0.61,1.05s-0.22,0.86-0.22,1.36
			v5.17h-1.47v-9.63h1.21l0.16,1.78h0.06c0.2-0.36,0.44-0.68,0.72-0.98s0.61-0.53,0.98-0.71C809.67,244.09,810.09,244,810.54,244z"
			/>
		<path class="st1" d="M814.27,240.57c0.24,0,0.45,0.08,0.62,0.23s0.26,0.4,0.26,0.73c0,0.32-0.09,0.56-0.26,0.72
			s-0.38,0.24-0.62,0.24c-0.25,0-0.46-0.08-0.63-0.24c-0.17-0.16-0.25-0.4-0.25-0.72c0-0.33,0.08-0.57,0.25-0.73
			C813.81,240.65,814.02,240.57,814.27,240.57z M814.98,244.17v9.63h-1.46v-9.63H814.98z"/>
		<path class="st1" d="M822.63,244c1.14,0,2.01,0.28,2.59,0.84s0.88,1.46,0.88,2.69v6.28h-1.44v-6.18c0-0.8-0.18-1.4-0.55-1.8
			s-0.93-0.6-1.68-0.6c-1.07,0-1.82,0.3-2.25,0.91s-0.65,1.48-0.65,2.63v5.04h-1.46v-9.63h1.18l0.22,1.39h0.08
			c0.21-0.34,0.47-0.63,0.78-0.86s0.67-0.41,1.06-0.53S822.19,244,822.63,244z"/>
		<path class="st1" d="M832.22,252.79c0.24,0,0.49-0.02,0.74-0.06s0.46-0.09,0.62-0.15v1.13c-0.17,0.08-0.41,0.14-0.71,0.19
			s-0.6,0.08-0.88,0.08c-0.51,0-0.97-0.09-1.39-0.27s-0.75-0.48-1-0.91s-0.37-1.02-0.37-1.78v-5.71h-1.37v-0.71l1.38-0.57l0.58-2.09
			h0.88v2.23h2.82v1.14h-2.82v5.67c0,0.6,0.14,1.05,0.42,1.35S831.75,252.79,832.22,252.79z"/>
		<path class="st1" d="M836.27,240.57c0.24,0,0.45,0.08,0.62,0.23s0.26,0.4,0.26,0.73c0,0.32-0.09,0.56-0.26,0.72
			s-0.38,0.24-0.62,0.24c-0.25,0-0.46-0.08-0.63-0.24c-0.17-0.16-0.25-0.4-0.25-0.72c0-0.33,0.08-0.57,0.25-0.73
			C835.81,240.65,836.02,240.57,836.27,240.57z M836.98,244.17v9.63h-1.46v-9.63H836.98z"/>
		<path class="st1" d="M844.63,244c1.14,0,2.01,0.28,2.59,0.84s0.88,1.46,0.88,2.69v6.28h-1.44v-6.18c0-0.8-0.18-1.4-0.55-1.8
			s-0.93-0.6-1.68-0.6c-1.07,0-1.82,0.3-2.25,0.91s-0.65,1.48-0.65,2.63v5.04h-1.46v-9.63h1.18l0.22,1.39h0.08
			c0.21-0.34,0.47-0.63,0.78-0.86s0.67-0.41,1.06-0.53S844.19,244,844.63,244z"/>
		<path class="st1" d="M853.79,258.13c-1.27,0-2.24-0.24-2.93-0.71s-1.03-1.13-1.03-1.98c0-0.6,0.19-1.12,0.58-1.55
			s0.92-0.71,1.6-0.85c-0.25-0.12-0.47-0.29-0.65-0.53s-0.27-0.5-0.27-0.81c0-0.35,0.1-0.66,0.29-0.93c0.2-0.27,0.5-0.52,0.9-0.77
			c-0.5-0.21-0.91-0.55-1.23-1.04s-0.47-1.06-0.47-1.71c0-0.69,0.14-1.28,0.43-1.77s0.7-0.86,1.25-1.12s1.2-0.39,1.98-0.39
			c0.17,0,0.34,0.01,0.51,0.02c0.17,0.01,0.34,0.04,0.5,0.06s0.3,0.06,0.41,0.09h3.3v0.94l-1.78,0.22c0.18,0.23,0.32,0.5,0.44,0.83
			s0.18,0.68,0.18,1.07c0,0.96-0.33,1.72-0.98,2.29s-1.54,0.85-2.68,0.85c-0.27,0-0.54-0.02-0.83-0.07
			c-0.29,0.16-0.5,0.33-0.66,0.53c-0.15,0.19-0.22,0.42-0.22,0.67c0,0.19,0.06,0.34,0.17,0.45c0.12,0.11,0.28,0.19,0.5,0.24
			s0.48,0.07,0.78,0.07h1.7c1.05,0,1.85,0.22,2.41,0.66c0.56,0.44,0.84,1.08,0.84,1.92c0,1.07-0.43,1.88-1.3,2.45
			S855.43,258.13,853.79,258.13z M853.84,256.99c0.8,0,1.46-0.08,1.98-0.24c0.52-0.16,0.92-0.39,1.18-0.69
			c0.26-0.3,0.39-0.66,0.39-1.08c0-0.39-0.09-0.68-0.26-0.87s-0.43-0.33-0.77-0.4s-0.76-0.1-1.25-0.1h-1.67
			c-0.43,0-0.81,0.07-1.13,0.2s-0.57,0.33-0.74,0.6s-0.26,0.59-0.26,0.98c0,0.52,0.22,0.92,0.66,1.19S853.02,256.99,853.84,256.99z
			 M854.22,249.29c0.7,0,1.22-0.18,1.57-0.53s0.53-0.86,0.53-1.54c0-0.72-0.18-1.26-0.54-1.62s-0.88-0.54-1.58-0.54
			c-0.67,0-1.18,0.19-1.54,0.56c-0.36,0.37-0.54,0.92-0.54,1.63c0,0.66,0.18,1.16,0.54,1.51S853.54,249.29,854.22,249.29z"/>
		<path class="st1" d="M873.86,248.97c0,0.79-0.1,1.5-0.31,2.12s-0.5,1.15-0.89,1.57s-0.85,0.75-1.4,0.98s-1.17,0.34-1.86,0.34
			c-0.64,0-1.24-0.11-1.77-0.34c-0.54-0.23-1-0.55-1.39-0.98c-0.39-0.43-0.69-0.95-0.91-1.57s-0.32-1.33-0.32-2.12
			c0-1.05,0.18-1.95,0.54-2.69s0.87-1.31,1.53-1.7c0.66-0.39,1.46-0.58,2.38-0.58c0.88,0,1.65,0.2,2.31,0.59
			c0.66,0.39,1.17,0.96,1.54,1.7C873.68,247.03,873.86,247.92,873.86,248.97z M866.53,248.97c0,0.77,0.1,1.44,0.31,2.01
			s0.52,1.01,0.95,1.32s0.98,0.47,1.65,0.47c0.67,0,1.22-0.16,1.65-0.47c0.43-0.31,0.75-0.75,0.95-1.32s0.31-1.24,0.31-2.01
			c0-0.77-0.1-1.43-0.31-1.99s-0.52-0.99-0.95-1.3s-0.98-0.46-1.66-0.46c-1,0-1.74,0.33-2.2,0.99
			C866.76,246.88,866.53,247.8,866.53,248.97z"/>
		<path class="st1" d="M880.94,244c1.14,0,2.01,0.28,2.59,0.84s0.88,1.46,0.88,2.69v6.28h-1.44v-6.18c0-0.8-0.18-1.4-0.55-1.8
			s-0.93-0.6-1.68-0.6c-1.07,0-1.82,0.3-2.25,0.91s-0.65,1.48-0.65,2.63v5.04h-1.46v-9.63h1.18l0.22,1.39h0.08
			c0.21-0.34,0.47-0.63,0.78-0.86s0.67-0.41,1.06-0.53S880.51,244,880.94,244z"/>
		<path class="st1" d="M888.89,253.81h-1.47v-13.68h1.47V253.81z"/>
		<path class="st1" d="M890.44,244.17h1.56l2.13,5.59c0.12,0.33,0.24,0.64,0.34,0.94s0.2,0.59,0.28,0.87s0.15,0.54,0.19,0.8h0.06
			c0.08-0.29,0.2-0.68,0.35-1.16s0.32-0.97,0.49-1.46l2.01-5.58h1.57l-4.19,11.05c-0.22,0.59-0.48,1.11-0.78,1.55
			s-0.65,0.78-1.08,1.02s-0.93,0.36-1.53,0.36c-0.28,0-0.52-0.02-0.73-0.05s-0.39-0.07-0.54-0.11v-1.17
			c0.13,0.03,0.29,0.06,0.47,0.08c0.19,0.02,0.38,0.04,0.58,0.04c0.36,0,0.68-0.07,0.95-0.21c0.27-0.14,0.5-0.34,0.69-0.6
			c0.19-0.26,0.36-0.58,0.5-0.94l0.53-1.35L890.44,244.17z"/>
	</g>
</g>
<g>
	<g>
		<path class="st1" d="M854.01,391.78c0.19,0,0.4,0.01,0.61,0.03s0.4,0.05,0.56,0.08l-0.18,1.35c-0.16-0.04-0.33-0.07-0.53-0.1
			s-0.38-0.04-0.54-0.04c-0.39,0-0.75,0.08-1.09,0.23c-0.34,0.16-0.64,0.38-0.9,0.67s-0.46,0.64-0.61,1.05s-0.22,0.86-0.22,1.36
			v5.17h-1.47v-9.63h1.21l0.16,1.78h0.06c0.2-0.36,0.44-0.68,0.72-0.98s0.61-0.53,0.98-0.71
			C853.14,391.87,853.55,391.78,854.01,391.78z"/>
		<path class="st1" d="M857.73,388.35c0.24,0,0.45,0.08,0.62,0.23s0.26,0.4,0.26,0.73c0,0.32-0.09,0.56-0.26,0.72
			s-0.38,0.24-0.62,0.24c-0.25,0-0.46-0.08-0.63-0.24c-0.17-0.16-0.25-0.4-0.25-0.72c0-0.33,0.08-0.57,0.25-0.73
			C857.27,388.43,857.48,388.35,857.73,388.35z M858.45,391.96v9.63h-1.46v-9.63H858.45z"/>
		<path class="st1" d="M867.76,398.95c0,0.62-0.15,1.13-0.46,1.55c-0.31,0.42-0.75,0.73-1.32,0.94c-0.57,0.21-1.25,0.32-2.04,0.32
			c-0.67,0-1.26-0.05-1.75-0.16s-0.92-0.25-1.29-0.45v-1.34c0.39,0.19,0.86,0.37,1.41,0.53s1.1,0.24,1.67,0.24
			c0.83,0,1.44-0.13,1.81-0.4s0.56-0.64,0.56-1.1c0-0.26-0.08-0.5-0.22-0.7c-0.15-0.2-0.4-0.4-0.75-0.59s-0.84-0.4-1.46-0.63
			c-0.62-0.23-1.15-0.47-1.6-0.7c-0.45-0.23-0.79-0.51-1.04-0.85s-0.36-0.77-0.36-1.3c0-0.81,0.33-1.44,0.99-1.88
			c0.66-0.44,1.52-0.65,2.6-0.65c0.58,0,1.12,0.06,1.63,0.17s0.98,0.27,1.42,0.46l-0.49,1.17c-0.4-0.17-0.82-0.31-1.27-0.43
			s-0.91-0.18-1.38-0.18c-0.67,0-1.19,0.11-1.55,0.33c-0.36,0.22-0.54,0.53-0.54,0.91c0,0.3,0.08,0.54,0.25,0.74
			c0.17,0.19,0.44,0.38,0.8,0.54s0.86,0.37,1.46,0.6c0.6,0.22,1.12,0.45,1.56,0.69s0.78,0.52,1.02,0.86
			C867.64,397.99,867.76,398.43,867.76,398.95z"/>
		<path class="st1" d="M878.42,396.76c0,0.79-0.1,1.5-0.31,2.12s-0.5,1.15-0.89,1.57s-0.85,0.75-1.4,0.98s-1.17,0.34-1.86,0.34
			c-0.64,0-1.24-0.11-1.77-0.34c-0.54-0.23-1-0.55-1.39-0.98c-0.39-0.43-0.69-0.95-0.91-1.57s-0.32-1.33-0.32-2.12
			c0-1.05,0.18-1.95,0.54-2.69s0.87-1.31,1.53-1.7c0.66-0.39,1.46-0.58,2.38-0.58c0.88,0,1.65,0.2,2.31,0.59
			c0.66,0.39,1.17,0.96,1.54,1.7C878.23,394.81,878.42,395.71,878.42,396.76z M871.09,396.76c0,0.77,0.1,1.44,0.31,2.01
			s0.52,1.01,0.95,1.32s0.98,0.47,1.65,0.47c0.67,0,1.22-0.16,1.65-0.47c0.43-0.31,0.75-0.75,0.95-1.32s0.31-1.24,0.31-2.01
			c0-0.77-0.1-1.43-0.31-1.99s-0.52-0.99-0.95-1.3s-0.98-0.46-1.66-0.46c-1,0-1.74,0.33-2.2,0.99
			C871.32,394.67,871.09,395.58,871.09,396.76z"/>
		<path class="st1" d="M880.72,392.88c0-0.42,0.1-0.72,0.3-0.89s0.44-0.26,0.73-0.26c0.3,0,0.55,0.09,0.76,0.26s0.31,0.47,0.31,0.89
			c0,0.4-0.1,0.69-0.31,0.87s-0.46,0.27-0.76,0.27c-0.29,0-0.53-0.09-0.73-0.27S880.72,393.28,880.72,392.88z M880.72,400.68
			c0-0.41,0.1-0.7,0.3-0.87s0.44-0.26,0.73-0.26c0.3,0,0.55,0.09,0.76,0.26s0.31,0.46,0.31,0.87c0,0.4-0.1,0.7-0.31,0.88
			s-0.46,0.28-0.76,0.28c-0.29,0-0.53-0.09-0.73-0.28S880.72,401.08,880.72,400.68z"/>
		<path class="st1" d="M851.08,409.51v7.1c0,0.23-0.01,0.52-0.03,0.86s-0.03,0.63-0.04,0.89h0.06c0.12-0.15,0.3-0.38,0.54-0.68
			c0.24-0.3,0.44-0.54,0.6-0.72l3.2-3.41h1.71l-3.88,4.11l4.16,5.52h-1.76l-3.4-4.56l-1.17,1.07v3.49h-1.45v-13.68H851.08z"/>
		<path class="st1" d="M862.8,413.38c0.82,0,1.52,0.18,2.11,0.54s1.03,0.87,1.34,1.52s0.47,1.42,0.47,2.29v0.91h-6.65
			c0.02,1.13,0.3,1.99,0.84,2.58s1.31,0.89,2.3,0.89c0.61,0,1.15-0.06,1.62-0.17s0.96-0.28,1.46-0.49v1.28
			c-0.49,0.22-0.97,0.38-1.45,0.47c-0.48,0.1-1.04,0.15-1.69,0.15c-0.93,0-1.73-0.19-2.42-0.57c-0.69-0.38-1.22-0.93-1.6-1.67
			s-0.57-1.63-0.57-2.69c0-1.04,0.17-1.94,0.52-2.69c0.35-0.76,0.84-1.34,1.48-1.75C861.19,413.59,861.94,413.38,862.8,413.38z
			 M862.78,414.58c-0.78,0-1.4,0.25-1.86,0.76s-0.74,1.22-0.83,2.14h5.1c-0.01-0.57-0.1-1.08-0.27-1.52s-0.43-0.78-0.79-1.02
			S863.33,414.58,862.78,414.58z"/>
		<path class="st1" d="M870.66,423.19h-1.47v-13.68h1.47V423.19z"/>
		<path class="st1" d="M875.21,423.19h-1.47v-13.68h1.47V423.19z"/>
		<path class="st1" d="M876.76,413.56h1.56l2.13,5.59c0.12,0.33,0.24,0.64,0.34,0.94s0.2,0.59,0.28,0.87s0.15,0.54,0.19,0.8h0.06
			c0.08-0.29,0.2-0.68,0.35-1.16s0.32-0.97,0.49-1.46l2.01-5.58h1.57l-4.19,11.05c-0.22,0.59-0.48,1.11-0.78,1.55
			s-0.65,0.78-1.08,1.02s-0.93,0.36-1.53,0.36c-0.28,0-0.52-0.02-0.73-0.05s-0.39-0.07-0.54-0.11v-1.17
			c0.13,0.03,0.29,0.06,0.47,0.08c0.19,0.02,0.38,0.04,0.58,0.04c0.36,0,0.68-0.07,0.95-0.21c0.27-0.14,0.5-0.34,0.69-0.6
			s0.36-0.58,0.5-0.94l0.53-1.35L876.76,413.56z"/>
		<path class="st1" d="M894.67,427.51c-1.27,0-2.24-0.24-2.93-0.71s-1.03-1.13-1.03-1.98c0-0.6,0.19-1.12,0.58-1.55
			s0.92-0.71,1.6-0.85c-0.25-0.12-0.47-0.29-0.65-0.53s-0.27-0.5-0.27-0.81c0-0.35,0.1-0.66,0.29-0.93c0.2-0.27,0.5-0.52,0.9-0.77
			c-0.5-0.21-0.91-0.55-1.23-1.04s-0.47-1.06-0.47-1.71c0-0.69,0.14-1.28,0.43-1.77s0.7-0.86,1.25-1.12s1.2-0.39,1.98-0.39
			c0.17,0,0.34,0.01,0.51,0.02c0.17,0.01,0.34,0.04,0.5,0.06s0.3,0.06,0.41,0.09h3.3v0.94l-1.78,0.22c0.18,0.23,0.32,0.5,0.44,0.83
			s0.18,0.68,0.18,1.07c0,0.96-0.33,1.72-0.98,2.29s-1.54,0.85-2.68,0.85c-0.27,0-0.54-0.02-0.83-0.07
			c-0.29,0.16-0.5,0.33-0.66,0.53c-0.15,0.19-0.22,0.42-0.22,0.67c0,0.19,0.06,0.34,0.17,0.45c0.12,0.11,0.28,0.19,0.5,0.24
			s0.48,0.07,0.78,0.07h1.7c1.05,0,1.85,0.22,2.41,0.66c0.56,0.44,0.84,1.08,0.84,1.92c0,1.07-0.43,1.88-1.3,2.45
			S896.31,427.51,894.67,427.51z M894.71,426.37c0.8,0,1.46-0.08,1.98-0.24c0.52-0.16,0.92-0.39,1.18-0.69
			c0.26-0.3,0.39-0.66,0.39-1.08c0-0.39-0.09-0.68-0.26-0.87s-0.43-0.33-0.77-0.4s-0.76-0.1-1.25-0.1h-1.67
			c-0.43,0-0.81,0.07-1.13,0.2s-0.57,0.33-0.74,0.6s-0.26,0.59-0.26,0.98c0,0.52,0.22,0.92,0.66,1.19S893.9,426.37,894.71,426.37z
			 M895.09,418.67c0.7,0,1.22-0.18,1.57-0.53s0.53-0.86,0.53-1.54c0-0.72-0.18-1.26-0.54-1.62s-0.88-0.54-1.58-0.54
			c-0.67,0-1.18,0.19-1.54,0.56c-0.36,0.37-0.54,0.92-0.54,1.63c0,0.66,0.18,1.16,0.54,1.51S894.41,418.67,895.09,418.67z"/>
		<path class="st1" d="M906.13,413.38c0.19,0,0.4,0.01,0.61,0.03s0.4,0.05,0.56,0.08l-0.18,1.35c-0.16-0.04-0.33-0.07-0.53-0.1
			s-0.38-0.04-0.54-0.04c-0.39,0-0.75,0.08-1.09,0.23c-0.34,0.16-0.64,0.38-0.9,0.67s-0.46,0.64-0.61,1.05s-0.22,0.86-0.22,1.36
			v5.17h-1.47v-9.63h1.21l0.16,1.78h0.06c0.2-0.36,0.44-0.68,0.72-0.98s0.61-0.53,0.98-0.71
			C905.26,413.47,905.67,413.38,906.13,413.38z"/>
		<path class="st1" d="M912.82,413.38c0.82,0,1.52,0.18,2.11,0.54s1.03,0.87,1.34,1.52s0.47,1.42,0.47,2.29v0.91h-6.65
			c0.02,1.13,0.3,1.99,0.84,2.58s1.31,0.89,2.3,0.89c0.61,0,1.15-0.06,1.62-0.17s0.96-0.28,1.46-0.49v1.28
			c-0.49,0.22-0.97,0.38-1.45,0.47c-0.48,0.1-1.04,0.15-1.69,0.15c-0.93,0-1.73-0.19-2.42-0.57c-0.69-0.38-1.22-0.93-1.6-1.67
			s-0.57-1.63-0.57-2.69c0-1.04,0.17-1.94,0.52-2.69c0.35-0.76,0.84-1.34,1.48-1.75C911.21,413.59,911.95,413.38,912.82,413.38z
			 M912.8,414.58c-0.78,0-1.4,0.25-1.86,0.76s-0.74,1.22-0.83,2.14h5.1c-0.01-0.57-0.1-1.08-0.27-1.52s-0.43-0.78-0.79-1.02
			S913.35,414.58,912.8,414.58z"/>
		<path class="st1" d="M922.92,413.38c0.82,0,1.52,0.18,2.11,0.54s1.03,0.87,1.34,1.52s0.47,1.42,0.47,2.29v0.91h-6.65
			c0.02,1.13,0.3,1.99,0.84,2.58s1.31,0.89,2.3,0.89c0.61,0,1.15-0.06,1.62-0.17s0.96-0.28,1.46-0.49v1.28
			c-0.49,0.22-0.97,0.38-1.45,0.47c-0.48,0.1-1.04,0.15-1.69,0.15c-0.93,0-1.73-0.19-2.42-0.57c-0.69-0.38-1.22-0.93-1.6-1.67
			s-0.57-1.63-0.57-2.69c0-1.04,0.17-1.94,0.52-2.69c0.35-0.76,0.84-1.34,1.48-1.75C921.31,413.59,922.06,413.38,922.92,413.38z
			 M922.91,414.58c-0.78,0-1.4,0.25-1.86,0.76s-0.74,1.22-0.83,2.14h5.1c-0.01-0.57-0.1-1.08-0.27-1.52s-0.43-0.78-0.79-1.02
			S923.46,414.58,922.91,414.58z"/>
		<path class="st1" d="M933.88,413.38c1.14,0,2.01,0.28,2.59,0.84s0.88,1.46,0.88,2.69v6.28h-1.44v-6.18c0-0.8-0.18-1.4-0.55-1.8
			s-0.93-0.6-1.68-0.6c-1.07,0-1.82,0.3-2.25,0.91s-0.65,1.48-0.65,2.63v5.04h-1.46v-9.63h1.18l0.22,1.39h0.08
			c0.21-0.34,0.47-0.63,0.78-0.86s0.67-0.41,1.06-0.53S933.45,413.38,933.88,413.38z"/>
		<path class="st1" d="M853.82,437.85h3.62v1.2h-3.62v3.73h-1.2v-3.73H849v-1.2h3.62v-3.74h1.2V437.85z"/>
		<path class="st1" d="M872.9,439.96c0,0.79-0.1,1.5-0.31,2.12s-0.5,1.15-0.89,1.57s-0.85,0.75-1.4,0.98s-1.17,0.34-1.86,0.34
			c-0.64,0-1.24-0.11-1.77-0.34c-0.54-0.23-1-0.55-1.39-0.98c-0.39-0.43-0.69-0.95-0.91-1.57s-0.32-1.33-0.32-2.12
			c0-1.05,0.18-1.95,0.54-2.69s0.87-1.31,1.53-1.7c0.66-0.39,1.46-0.58,2.38-0.58c0.88,0,1.65,0.2,2.31,0.59
			c0.66,0.39,1.17,0.96,1.54,1.7C872.72,438.01,872.9,438.91,872.9,439.96z M865.57,439.96c0,0.77,0.1,1.44,0.31,2.01
			s0.52,1.01,0.95,1.32s0.98,0.47,1.65,0.47c0.67,0,1.22-0.16,1.65-0.47c0.43-0.31,0.75-0.75,0.95-1.32s0.31-1.24,0.31-2.01
			c0-0.77-0.1-1.43-0.31-1.99s-0.52-0.99-0.95-1.3s-0.98-0.46-1.66-0.46c-1,0-1.74,0.33-2.2,0.99
			C865.81,437.87,865.57,438.78,865.57,439.96z"/>
		<path class="st1" d="M879.8,434.98c0.19,0,0.4,0.01,0.61,0.03s0.4,0.05,0.56,0.08l-0.18,1.35c-0.16-0.04-0.33-0.07-0.53-0.1
			s-0.38-0.04-0.54-0.04c-0.39,0-0.75,0.08-1.09,0.23c-0.34,0.16-0.64,0.38-0.9,0.67s-0.46,0.64-0.61,1.05s-0.22,0.86-0.22,1.36
			v5.17h-1.47v-9.63h1.21l0.16,1.78h0.06c0.2-0.36,0.44-0.68,0.72-0.98s0.61-0.53,0.98-0.71
			C878.93,435.07,879.35,434.98,879.8,434.98z"/>
		<path class="st1" d="M886.39,435c1.15,0,2,0.26,2.56,0.77s0.83,1.34,0.83,2.47v6.55h-1.06l-0.28-1.42h-0.07
			c-0.27,0.35-0.55,0.65-0.84,0.88s-0.63,0.42-1.02,0.54s-0.85,0.18-1.41,0.18c-0.59,0-1.11-0.1-1.56-0.31s-0.81-0.52-1.07-0.93
			s-0.39-0.94-0.39-1.58c0-0.96,0.38-1.7,1.14-2.21s1.92-0.8,3.48-0.84l1.66-0.07v-0.59c0-0.83-0.18-1.42-0.54-1.75
			s-0.86-0.5-1.51-0.5c-0.5,0-0.98,0.07-1.44,0.22s-0.89,0.32-1.3,0.52l-0.45-1.11c0.43-0.22,0.93-0.41,1.49-0.57
			S885.77,435,886.39,435z M888.34,440.04l-1.47,0.06c-1.2,0.05-2.05,0.24-2.54,0.59s-0.74,0.83-0.74,1.47
			c0,0.55,0.17,0.96,0.5,1.22s0.78,0.4,1.33,0.4c0.86,0,1.56-0.24,2.1-0.71s0.82-1.19,0.82-2.14V440.04z"/>
		<path class="st1" d="M897.35,434.98c1.14,0,2.01,0.28,2.59,0.84s0.88,1.46,0.88,2.69v6.28h-1.44v-6.18c0-0.8-0.18-1.4-0.55-1.8
			s-0.93-0.6-1.68-0.6c-1.07,0-1.82,0.3-2.25,0.91s-0.65,1.48-0.65,2.63v5.04h-1.46v-9.63h1.18l0.22,1.39h0.08
			c0.21-0.34,0.47-0.63,0.78-0.86s0.67-0.41,1.06-0.53S896.91,434.98,897.35,434.98z"/>
		<path class="st1" d="M906.51,449.11c-1.27,0-2.24-0.24-2.93-0.71s-1.03-1.13-1.03-1.98c0-0.6,0.19-1.12,0.58-1.55
			s0.92-0.71,1.6-0.85c-0.25-0.12-0.47-0.29-0.65-0.53s-0.27-0.5-0.27-0.81c0-0.35,0.1-0.66,0.29-0.93c0.2-0.27,0.5-0.52,0.9-0.77
			c-0.5-0.21-0.91-0.55-1.23-1.04s-0.47-1.06-0.47-1.71c0-0.69,0.14-1.28,0.43-1.77s0.7-0.86,1.25-1.12s1.2-0.39,1.98-0.39
			c0.17,0,0.34,0.01,0.51,0.02c0.17,0.01,0.34,0.04,0.5,0.06s0.3,0.06,0.41,0.09h3.3v0.94l-1.78,0.22c0.18,0.23,0.32,0.5,0.44,0.83
			s0.18,0.68,0.18,1.07c0,0.96-0.33,1.72-0.98,2.29s-1.54,0.85-2.68,0.85c-0.27,0-0.54-0.02-0.83-0.07
			c-0.29,0.16-0.5,0.33-0.66,0.53c-0.15,0.19-0.22,0.42-0.22,0.67c0,0.19,0.06,0.34,0.17,0.45c0.12,0.11,0.28,0.19,0.5,0.24
			s0.48,0.07,0.78,0.07h1.7c1.05,0,1.85,0.22,2.41,0.66c0.56,0.44,0.84,1.08,0.84,1.92c0,1.07-0.43,1.88-1.3,2.45
			S908.15,449.11,906.51,449.11z M906.56,447.97c0.8,0,1.46-0.08,1.98-0.24c0.52-0.16,0.92-0.39,1.18-0.69
			c0.26-0.3,0.39-0.66,0.39-1.08c0-0.39-0.09-0.68-0.26-0.87s-0.43-0.33-0.77-0.4s-0.76-0.1-1.25-0.1h-1.67
			c-0.43,0-0.81,0.07-1.13,0.2s-0.57,0.33-0.74,0.6s-0.26,0.59-0.26,0.98c0,0.52,0.22,0.92,0.66,1.19S905.74,447.97,906.56,447.97z
			 M906.94,440.27c0.7,0,1.22-0.18,1.57-0.53s0.53-0.86,0.53-1.54c0-0.72-0.18-1.26-0.54-1.62s-0.88-0.54-1.58-0.54
			c-0.67,0-1.18,0.19-1.54,0.56c-0.36,0.37-0.54,0.92-0.54,1.63c0,0.66,0.18,1.16,0.54,1.51S906.26,440.27,906.94,440.27z"/>
		<path class="st1" d="M917.31,434.98c0.82,0,1.52,0.18,2.11,0.54s1.03,0.87,1.34,1.52s0.47,1.42,0.47,2.29v0.91h-6.65
			c0.02,1.13,0.3,1.99,0.84,2.58s1.31,0.89,2.3,0.89c0.61,0,1.15-0.06,1.62-0.17s0.96-0.28,1.46-0.49v1.28
			c-0.49,0.22-0.97,0.38-1.45,0.47c-0.48,0.1-1.04,0.15-1.69,0.15c-0.93,0-1.73-0.19-2.42-0.57c-0.69-0.38-1.22-0.93-1.6-1.67
			s-0.57-1.63-0.57-2.69c0-1.04,0.17-1.94,0.52-2.69c0.35-0.76,0.84-1.34,1.48-1.75C915.7,435.19,916.45,434.98,917.31,434.98z
			 M917.29,436.18c-0.78,0-1.4,0.25-1.86,0.76s-0.74,1.22-0.83,2.14h5.1c-0.01-0.57-0.1-1.08-0.27-1.52s-0.43-0.78-0.79-1.02
			S917.84,436.18,917.29,436.18z"/>
	</g>
</g>
</svg>
