<?xml version="1.0" encoding="utf-8"?>
<!-- Generator: Adobe Illustrator 25.2.1, SVG Export Plug-In . SVG Version: 6.00 Build 0)  -->
<svg version="1.1" id="Layer_1" xmlns="http://www.w3.org/2000/svg" xmlns:xlink="http://www.w3.org/1999/xlink" x="0px" y="0px"
	 viewBox="0 0 1048 576.81" style="enable-background:new 0 0 1048 576.81;" xml:space="preserve">
<style type="text/css">
	.st0{fill:#283B00;}
	.st1{fill:#D1E9C5;}
	.st2{fill:#FFF7B1;}
	.st3{fill:#FF5902;}
</style>
<path class="st0" d="M272.88,22.64c47.12,1.88,86.01,21.19,86.01,21.19c29.5,14.02,52.27,35.68,72.77,60.39
	c9.54,11.5,18.68,23.14,26.06,36.25c5.3,9.42,6.04,18.94,4.51,29.08c-0.99,6.51-5.1,10.04-11.28,11.89
	c-15.7,4.71-31.77,6.95-48.05,5.81c-57.18-4.01-109.92-21.27-156.98-54.45c-13.56-9.56-25.41-21.12-35.48-34.47
	c-9.38-12.44-12.04-26.44-10.1-41.43c1.72-13.25,10.19-22.16,22.06-26.19c14.71-4.99,27.22-7.39,36.88-7.94
	C259.95,22.73,266.3,22.38,272.88,22.64z"/>
<path class="st0" d="M647.99,339.82c-20.14-0.23-35.24-6.36-41.38-9.15c-8.34-3.78-28.4-14.52-41.74-36.55
	c-9.61-15.87-6.22-28.98,9.17-37.74c12.65-7.2,26.46-10.59,40.58-10.41c13.32,0.17,26.64,1.74,39.92,3.11
	c20.43,2.11,34.83,15.84,47.45,32.18c6.18,8,6.74,18.4,6.36,28.55c-0.13,3.54-2.73,7.55-7.53,12.57
	C683.77,340.22,657.35,339.93,647.99,339.82z"/>
<path class="st2" d="M711.31,229.82c-14.47,1.81-25.51-3.64-35.02-12.49c-1.61-1.5-3.27-2.96-4.78-4.54
	c-11.1-11.57-21.12-23.28-15.33-40.09c6.73-19.55,19.14-34.88,40.48-43.52c4.37-1.77,10.18-1.76,15.14-1.22
	c28.98,3.17,61.56,21.66,65.86,49.12c3.42,21.84-16.66,46.98-41.23,50.39C728.13,228.62,719.69,229.05,711.31,229.82z"/>
<path class="st3" d="M499.48,174.2c-18.74-25.03-8.52-54.58,20.58-61.25c16.47-3.77,33.25-6.48,50.04-8.52
	c20.33-2.47,37.37,10.03,40.74,30.59c4.59,27.91-3.04,50.49-32.41,61.09c-4.6,1.66-8.98,4.53-13.7,5.16
	c-7.78,1.04-16.41,2.83-23.52,0.55C524.56,196.52,508.6,188.98,499.48,174.2z"/>
<path class="st1" d="M491.85,277.9c-3.56,5.85-18.96,21.75-43.46,34.58c-26.15,13.69-60.95,4.19-69.49-18.25
	c-1.22-3.21-1.22-7.1,0.37-10.1c11.49-21.68,23.85-43.09,49.6-59.11c5.06-3.15,10.17-6.38,15.96-8.89
	c18.92-8.19,48.57-0.51,56.93,18.15C508.83,250.03,498.02,267.77,491.85,277.9z"/>
<path d="M295.38,247.06c-29.1-0.64-48.8-8.24-62.67-21.65c-8.52-8.25-7.23-17.02,2.82-24.78c8.76-6.77,19.68-11.88,32.87-14.88
	c18.39-4.19,49.4,1.63,63.47,12.36c11.18,8.53,17.73,23.65,6.17,35.95c-4.98,5.3-11.1,9.06-20.37,10.5
	C309.4,245.82,300.88,246.46,295.38,247.06z"/>
<path class="st0" d="M212.46,357.68c-4.37-4.44-9.78-8.68-13.62-14.05c-16.99-23.74-32.23-48.51-41.09-76.65
	c-0.78-2.46-1.45-4.98-1.88-7.52c-0.64-3.78-0.15-7.27,4.17-8.62c3.62-1.13,5.98,0.48,8.04,3.6c10.35,15.64,20.92,31.12,31.33,46.72
	c4.13,6.19,7.82,12.67,12.08,18.76c5.13,7.34,8.07,15.39,9.4,24.17C222.25,352.97,222.34,352.96,212.46,357.68z"/>
<path class="st0" d="M498.09,455.87c3.68,1.8,3.32,2.32,7.79,4.46c4.84,2.32,9.89,3.96,15.3,5.07c9.38,1.92,16.68,6.75,19.89,16.47
	c2.92,8.82,0.57,12.8-8.49,12.04c-5.64-0.47-11.38-2.25-16.58-4.56c-5.57-2.48-10.79-5.94-15.73-9.57
	c-7.02-5.16-14.6-6.29-22.95-4.98c-6.98,1.1-11.05-1.6-13.07-8.14c-0.72-2.33-0.72-4.53-0.01-6.49c1.37-3.79,5.03-5.54,7.1-6.49
	C482.32,448.65,495.07,454.4,498.09,455.87z"/>
<path class="st0" d="M328.26,438.64c12.49,3.11,25.07,5.89,37.4,9.54c3.4,1.01,6.42,4.27,8.93,7.11c3,3.39,1.94,6.72-2.19,8.38
	c-1.45,0.58-3.21,1.03-4.69,0.77c-12.03-2.15-24.12-4.14-36-6.98c-3.83-0.91-7.22-4.04-10.56-6.5c-2.82-2.08-4.06-5.12-2.61-8.57
	c0,0,0.53-1.12,1.53-2.04C322.87,437.79,327.64,438.53,328.26,438.64z"/>
<path class="st0" d="M162.39,149.09c-2.22-0.26-3.55-0.25-4.78-0.6c-4.29-1.21-9.38-1.56-10.91-6.79
	c-1.6-5.49,0.65-10.21,4.43-14.14c4.84-5.03,10.65-7.22,17.59-5.09c4.31,1.32,8.8,2.35,12.82,4.31c4.77,2.32,5.84,6.49,2.32,10.36
	C177.93,143.67,170.78,148.55,162.39,149.09z"/>
<path class="st0" d="M139.29,173.24c0.33-2.54,0.81-4.95,2.77-6.62c1.18-1,2.76-1.52,4.83-1.66c4.8-0.33,9.96,2.33,10.66,6.42
	c1.19,6.99,2.18,14.1,2.24,21.17c0.06,6.74-3.04,10.31-7.52,10.79c-2.67,0.29-4.9-0.07-6.73-1.15c-0.71-0.42-2.93-1.81-5.07-7.79
	C137.6,186.36,138.42,180,139.29,173.24z"/>
<path class="st0" d="M257.61,384.02c-0.54,1.92-1.23,6.1-2.86,9.87c-2.27,5.26-9.81,8.01-15.7,6.34c-4.61-1.31-6.55-5.82-5.54-12.8
	c1.06-7.35,4.8-12.4,12.12-14.59C254.26,370.25,257.9,372.92,257.61,384.02z"/>
<path class="st0" d="M264.82,415.72c9.07-7.35,12.34-7.2,19.16,0.38c4.11,4.57,5.99,10.02,5.61,16.07
	c-0.36,5.77-8.15,9.51-12.21,5.48C271.24,431.56,265.85,424.63,264.82,415.72z"/>
<path class="st0" d="M404.24,466.27c-5.37-0.12-11.87-6.56-11.44-11.35c0.37-4.22,6.33-9.26,11.12-9.42
	c4.78-0.16,11.95,6.42,12.04,11.06C416.05,461.03,409.58,466.39,404.24,466.27z"/>
<path class="st0" d="M437.7,471.25c-4.56,1.21-11.43-2.22-11.66-6.93c-0.16-3.14,0.42-6.49,1.43-9.48c1.19-3.5,2.21-8.07,7.3-7.57
	c1.91,0.19,3.57,0.8,4.93,1.8c2.72,1.99,3.53,4.92,3.83,6.01C445.02,460.41,443.69,469.66,437.7,471.25z"/>
<path class="st0" d="M153.31,240.97c-5.86-0.02-9.33-3.08-9.55-8.44c-0.18-4.41,4.74-8.75,9.68-8.54c4.86,0.21,8.13,3.67,8.25,8.73
	C161.82,237.82,158.61,240.98,153.31,240.97z"/>
<path class="st0" d="M234.25,353.35c5.24,0.11,8.1,2.88,7.74,7.51c-0.35,4.63-4.03,7.2-9.79,6.86c-4.46-0.27-8.53-4.83-8.1-9.07
	C224.44,355.42,228.63,353.23,234.25,353.35z"/>
<path class="st0" d="M311.76,442.57c-0.04,3.43-4.1,7.01-7.87,6.96c-3.84-0.06-7.44-3.71-6.93-7.4c0.49-3.53,1.49-7.12,5.67-7.87
	C306.04,433.64,311.8,439.14,311.76,442.57z"/>
<path class="st0" d="M180.53,115.58c-0.68-0.09-1.65-0.14-2.58-0.35c-3.4-0.74-6.42-2.54-6.25-6.2c0.2-4.26,4.15-4.12,7.3-4.42
	c0.94-0.09,1.96-0.08,2.86,0.18c3.35,1,7.2,1.65,7.35,6.24C189.29,113.83,185.56,115.71,180.53,115.58z"/>
<path class="st0" d="M193.69,110.42c-0.18-5.13,1.57-7.61,5.25-7.46c4.26,0.17,6.86,2.58,6.93,6.42c0.09,4.64-2.63,8.21-6.27,8.25
	C195.84,117.68,193.85,115.26,193.69,110.42z"/>
<path class="st0" d="M258.71,395.28c0.03-0.2,0.07-0.61,1.04-1.27c2.44-1.65,5.98-1.91,9.1-2.14c0.8-0.06,2.54,2.29,2.47,3.46
	c-0.11,2-0.86,3.96-2.31,4.82C265.24,402.4,258.37,397.67,258.71,395.28z"/>
<g>
	<g>
		<path class="st1" d="M281.65,110.43c-1.73,0-3.26-0.36-4.59-1.07s-2.36-1.8-3.09-3.27s-1.11-3.31-1.11-5.54
			c0-2.33,0.39-4.24,1.17-5.72s1.85-2.58,3.23-3.3s2.93-1.07,4.68-1.07c0.96,0,1.89,0.1,2.79,0.29s1.63,0.44,2.21,0.73l-0.88,2.44
			c-0.59-0.23-1.26-0.45-2.03-0.63s-1.49-0.28-2.15-0.28c-1.34,0-2.45,0.29-3.33,0.86s-1.55,1.42-1.99,2.53s-0.66,2.48-0.66,4.11
			c0,1.56,0.21,2.89,0.64,3.99s1.07,1.94,1.92,2.52s1.91,0.87,3.19,0.87c1.02,0,1.94-0.11,2.76-0.33s1.56-0.47,2.23-0.76v2.6
			c-0.64,0.33-1.36,0.58-2.15,0.76S282.74,110.43,281.65,110.43z"/>
		<path class="st1" d="M307.79,100.41c0,1.58-0.21,2.99-0.62,4.24s-1,2.29-1.78,3.15s-1.71,1.51-2.8,1.96s-2.33,0.68-3.72,0.68
			c-1.29,0-2.47-0.23-3.54-0.68s-2-1.1-2.78-1.96s-1.38-1.9-1.81-3.15s-0.64-2.65-0.64-4.24c0-2.11,0.36-3.91,1.07-5.39
			s1.74-2.61,3.07-3.39s2.92-1.17,4.75-1.17c1.76,0,3.3,0.39,4.61,1.18s2.34,1.92,3.08,3.4S307.79,98.31,307.79,100.41z
			 M293.12,100.41c0,1.55,0.21,2.89,0.62,4.03s1.04,2.02,1.9,2.64s1.96,0.93,3.3,0.93c1.34,0,2.43-0.31,3.3-0.93s1.5-1.5,1.91-2.64
			s0.62-2.48,0.62-4.03c0-1.54-0.21-2.86-0.62-3.98s-1.04-1.98-1.9-2.59s-1.96-0.91-3.32-0.91c-2,0-3.47,0.66-4.4,1.99
			S293.12,98.07,293.12,100.41z"/>
		<path class="st1" d="M315.77,110.08h-2.94V82.73h2.94V110.08z"/>
		<path class="st1" d="M338.53,100.41c0,1.58-0.21,2.99-0.62,4.24s-1,2.29-1.78,3.15s-1.71,1.51-2.8,1.96s-2.33,0.68-3.72,0.68
			c-1.29,0-2.47-0.23-3.54-0.68s-2-1.1-2.78-1.96s-1.38-1.9-1.81-3.15s-0.64-2.65-0.64-4.24c0-2.11,0.36-3.91,1.07-5.39
			s1.74-2.61,3.07-3.39s2.92-1.17,4.75-1.17c1.76,0,3.3,0.39,4.61,1.18s2.34,1.92,3.08,3.4S338.53,98.31,338.53,100.41z
			 M323.87,100.41c0,1.55,0.21,2.89,0.62,4.03s1.04,2.02,1.9,2.64s1.96,0.93,3.3,0.93c1.34,0,2.43-0.31,3.3-0.93s1.5-1.5,1.91-2.64
			s0.62-2.48,0.62-4.03c0-1.54-0.21-2.86-0.62-3.98s-1.04-1.98-1.9-2.59s-1.96-0.91-3.32-0.91c-2,0-3.47,0.66-4.4,1.99
			S323.87,98.07,323.87,100.41z"/>
		<path class="st1" d="M352.33,90.46c0.39,0,0.79,0.02,1.21,0.06s0.8,0.1,1.12,0.17l-0.37,2.71c-0.32-0.08-0.67-0.15-1.05-0.19
			s-0.75-0.07-1.09-0.07c-0.77,0-1.5,0.16-2.19,0.47s-1.29,0.76-1.8,1.34s-0.92,1.28-1.21,2.09s-0.44,1.72-0.44,2.72v10.34h-2.94
			V90.81H346l0.32,3.55h0.12c0.4-0.71,0.88-1.37,1.44-1.96s1.22-1.06,1.96-1.42S351.41,90.46,352.33,90.46z"/>
		<path class="st1" d="M370.75,104.8c0,1.23-0.31,2.26-0.92,3.1s-1.49,1.47-2.64,1.89s-2.5,0.63-4.09,0.63
			c-1.35,0-2.51-0.11-3.5-0.32s-1.85-0.51-2.58-0.9v-2.69c0.79,0.39,1.72,0.74,2.81,1.05s2.2,0.47,3.34,0.47
			c1.66,0,2.87-0.27,3.62-0.81s1.12-1.27,1.12-2.2c0-0.53-0.15-0.99-0.45-1.4s-0.8-0.8-1.5-1.18s-1.68-0.8-2.92-1.26
			c-1.23-0.47-2.29-0.93-3.19-1.4s-1.59-1.03-2.07-1.7s-0.73-1.54-0.73-2.6c0-1.63,0.66-2.88,1.98-3.75s3.05-1.31,5.19-1.31
			c1.16,0,2.25,0.11,3.26,0.34s1.96,0.54,2.84,0.92l-0.98,2.34c-0.8-0.34-1.65-0.63-2.55-0.86s-1.82-0.35-2.76-0.35
			c-1.35,0-2.38,0.22-3.1,0.67s-1.08,1.05-1.08,1.83c0,0.6,0.17,1.09,0.5,1.48s0.87,0.75,1.61,1.09s1.71,0.74,2.92,1.2
			c1.21,0.45,2.25,0.91,3.13,1.38s1.56,1.05,2.03,1.72S370.75,103.75,370.75,104.8z"/>
	</g>
</g>
<g>
	<g>
		<path class="st1" d="M609.21,286.8l-0.57,2.99h2.49v1.12h-2.71l-0.75,3.8h-1.19l0.75-3.8h-2.68l-0.72,3.8h-1.17l0.69-3.8h-2.3
			v-1.12h2.52l0.59-2.99h-2.44v-1.1h2.65l0.73-3.85h1.2l-0.73,3.85h2.7l0.73-3.85h1.16l-0.73,3.85h2.33v1.1H609.21z M604.77,289.79
			h2.68l0.58-2.99h-2.68L604.77,289.79z"/>
		<path class="st1" d="M621.53,294.7h-8.42v-1.22l3.44-3.49c0.64-0.64,1.18-1.22,1.61-1.72c0.44-0.5,0.77-1,1-1.49
			s0.34-1.03,0.34-1.61c0-0.73-0.21-1.28-0.65-1.67c-0.43-0.38-1-0.58-1.7-0.58c-0.62,0-1.16,0.11-1.63,0.32s-0.96,0.51-1.46,0.9
			l-0.78-0.98c0.34-0.29,0.71-0.54,1.11-0.76s0.83-0.4,1.29-0.53c0.46-0.13,0.95-0.19,1.47-0.19c0.79,0,1.47,0.14,2.05,0.41
			s1.02,0.67,1.33,1.18c0.31,0.51,0.47,1.12,0.47,1.82c0,0.68-0.13,1.31-0.4,1.89s-0.65,1.16-1.13,1.73s-1.05,1.18-1.71,1.81
			l-2.79,2.79v0.06h6.57V294.7z"/>
		<path class="st1" d="M627.65,281.67c0.74,0,1.4,0.12,1.98,0.35s1.02,0.58,1.35,1.03c0.33,0.45,0.49,1.01,0.49,1.67
			c0,0.52-0.11,0.98-0.34,1.37c-0.23,0.39-0.53,0.73-0.91,1.02s-0.8,0.55-1.27,0.78c0.55,0.25,1.05,0.54,1.49,0.85
			c0.44,0.32,0.79,0.69,1.05,1.12s0.39,0.93,0.39,1.52c0,0.72-0.17,1.34-0.52,1.87c-0.35,0.52-0.84,0.93-1.46,1.21
			s-1.36,0.42-2.21,0.42c-0.91,0-1.68-0.14-2.32-0.41s-1.12-0.67-1.45-1.18c-0.33-0.51-0.5-1.13-0.5-1.85
			c0-0.59,0.13-1.11,0.38-1.54s0.59-0.81,1-1.13s0.87-0.58,1.36-0.8c-0.43-0.23-0.82-0.5-1.17-0.8c-0.36-0.3-0.64-0.65-0.84-1.05
			c-0.21-0.4-0.31-0.87-0.31-1.4c0-0.65,0.17-1.2,0.5-1.66s0.79-0.8,1.36-1.04C626.27,281.79,626.93,281.67,627.65,281.67z
			 M624.86,291.45c0,0.66,0.23,1.2,0.69,1.62s1.16,0.64,2.1,0.64c0.89,0,1.58-0.21,2.07-0.64s0.73-0.98,0.73-1.67
			c0-0.43-0.11-0.8-0.33-1.13s-0.54-0.62-0.95-0.87s-0.89-0.49-1.45-0.7l-0.32-0.11c-0.54,0.22-1,0.47-1.38,0.74
			c-0.38,0.27-0.67,0.58-0.87,0.93S624.86,290.99,624.86,291.45z M627.63,282.86c-0.69,0-1.26,0.17-1.7,0.5s-0.66,0.81-0.66,1.43
			c0,0.45,0.11,0.82,0.32,1.13s0.51,0.57,0.88,0.79s0.78,0.42,1.24,0.61c0.45-0.19,0.84-0.39,1.19-0.62s0.62-0.49,0.82-0.8
			s0.3-0.68,0.3-1.12c0-0.62-0.22-1.1-0.66-1.42S628.35,282.86,627.63,282.86z"/>
		<path class="st1" d="M641.64,284.85c0,0.57-0.11,1.07-0.33,1.49s-0.53,0.77-0.93,1.03s-0.87,0.45-1.41,0.56v0.07
			c1.02,0.13,1.79,0.46,2.3,0.98s0.77,1.22,0.77,2.07c0,0.74-0.17,1.4-0.52,1.98s-0.88,1.02-1.6,1.35s-1.64,0.49-2.75,0.49
			c-0.68,0-1.31-0.05-1.89-0.16s-1.13-0.29-1.66-0.54v-1.37c0.53,0.26,1.11,0.47,1.74,0.62s1.23,0.22,1.82,0.22
			c1.17,0,2.02-0.23,2.54-0.7s0.78-1.1,0.78-1.91c0-0.56-0.15-1.01-0.43-1.35c-0.29-0.34-0.71-0.59-1.25-0.76
			c-0.54-0.16-1.19-0.24-1.96-0.24h-1.28v-1.25h1.29c0.7,0,1.29-0.1,1.78-0.31s0.86-0.49,1.11-0.87c0.26-0.37,0.38-0.81,0.38-1.32
			c0-0.65-0.22-1.15-0.65-1.51s-1.02-0.53-1.77-0.53c-0.46,0-0.87,0.05-1.25,0.14s-0.73,0.22-1.05,0.39s-0.66,0.35-0.98,0.57
			l-0.74-1c0.47-0.36,1.04-0.68,1.71-0.94s1.44-0.4,2.29-0.4c1.31,0,2.3,0.3,2.95,0.9S641.64,283.92,641.64,284.85z"/>
		<path class="st1" d="M646.1,281.03v3.42c0,0.39-0.01,0.77-0.03,1.14c-0.02,0.37-0.04,0.66-0.05,0.86h0.08
			c0.26-0.43,0.64-0.8,1.14-1.1s1.13-0.45,1.91-0.45c1.21,0,2.17,0.42,2.89,1.25s1.08,2.08,1.08,3.72c0,1.08-0.16,2-0.49,2.74
			s-0.79,1.31-1.39,1.69s-1.3,0.57-2.12,0.57c-0.76,0-1.39-0.14-1.88-0.43s-0.87-0.63-1.13-1.04h-0.11l-0.3,1.29h-1.05v-13.68H646.1
			z M648.91,286.12c-0.7,0-1.25,0.14-1.66,0.41s-0.71,0.68-0.88,1.23c-0.18,0.55-0.27,1.24-0.27,2.08v0.08
			c0,1.21,0.2,2.14,0.61,2.78s1.14,0.96,2.21,0.96c0.9,0,1.57-0.33,2.02-0.98c0.45-0.66,0.67-1.59,0.67-2.81
			c0-1.24-0.22-2.18-0.66-2.8C650.5,286.44,649.82,286.12,648.91,286.12z"/>
		<path class="st1" d="M663.49,288.26c0,1.04-0.08,1.97-0.24,2.79s-0.41,1.51-0.75,2.08s-0.78,1-1.32,1.3s-1.19,0.44-1.94,0.44
			c-0.96,0-1.74-0.26-2.37-0.78c-0.62-0.52-1.09-1.28-1.4-2.26c-0.31-0.99-0.46-2.18-0.46-3.57c0-1.37,0.14-2.55,0.42-3.54
			s0.73-1.75,1.35-2.28s1.44-0.8,2.46-0.8c0.97,0,1.76,0.26,2.39,0.79s1.09,1.28,1.4,2.27S663.49,286.88,663.49,288.26z
			 M656.49,288.26c0,1.2,0.09,2.19,0.27,2.99s0.48,1.39,0.88,1.79c0.41,0.4,0.94,0.59,1.6,0.59s1.2-0.2,1.6-0.59s0.7-0.99,0.89-1.78
			c0.18-0.8,0.28-1.8,0.28-3c0-1.18-0.09-2.16-0.27-2.96s-0.47-1.39-0.88-1.79s-0.94-0.6-1.62-0.6s-1.21,0.2-1.62,0.6
			s-0.7,1-0.88,1.79S656.49,287.08,656.49,288.26z"/>
		<path class="st1" d="M673.79,288.26c0,1.04-0.08,1.97-0.24,2.79s-0.41,1.51-0.75,2.08s-0.78,1-1.32,1.3s-1.19,0.44-1.94,0.44
			c-0.96,0-1.74-0.26-2.37-0.78c-0.62-0.52-1.09-1.28-1.4-2.26c-0.31-0.99-0.46-2.18-0.46-3.57c0-1.37,0.14-2.55,0.42-3.54
			s0.73-1.75,1.35-2.28s1.44-0.8,2.46-0.8c0.97,0,1.76,0.26,2.39,0.79s1.09,1.28,1.4,2.27S673.79,286.88,673.79,288.26z
			 M666.78,288.26c0,1.2,0.09,2.19,0.27,2.99s0.48,1.39,0.88,1.79c0.41,0.4,0.94,0.59,1.6,0.59s1.2-0.2,1.6-0.59s0.7-0.99,0.89-1.78
			c0.18-0.8,0.28-1.8,0.28-3c0-1.18-0.09-2.16-0.27-2.96s-0.47-1.39-0.88-1.79s-0.94-0.6-1.62-0.6s-1.21,0.2-1.62,0.6
			s-0.7,1-0.88,1.79S666.78,287.08,666.78,288.26z"/>
	</g>
</g>
<g>
	<g>
		<path class="st1" d="M259.05,213.99l-0.57,2.99h2.49v1.12h-2.71l-0.75,3.8h-1.19l0.75-3.8h-2.68l-0.72,3.8h-1.17l0.69-3.8h-2.3
			v-1.12h2.52l0.59-2.99h-2.44v-1.1h2.65l0.73-3.85h1.2l-0.73,3.85h2.7l0.73-3.85H260l-0.73,3.85h2.33v1.1H259.05z M254.6,216.98
			h2.68l0.58-2.99h-2.68L254.6,216.98z"/>
		<path class="st1" d="M271.44,215.45c0,1.04-0.08,1.97-0.24,2.79s-0.41,1.51-0.75,2.08s-0.78,1-1.32,1.3s-1.19,0.44-1.94,0.44
			c-0.96,0-1.74-0.26-2.37-0.78c-0.62-0.52-1.09-1.28-1.4-2.26c-0.31-0.99-0.46-2.18-0.46-3.57c0-1.37,0.14-2.55,0.42-3.54
			s0.73-1.75,1.35-2.28s1.44-0.8,2.46-0.8c0.97,0,1.76,0.26,2.39,0.79s1.09,1.28,1.4,2.27S271.44,214.06,271.44,215.45z
			 M264.43,215.45c0,1.2,0.09,2.19,0.27,2.99s0.48,1.39,0.88,1.79c0.41,0.4,0.94,0.59,1.6,0.59s1.2-0.2,1.6-0.59s0.7-0.99,0.89-1.78
			c0.18-0.8,0.28-1.8,0.28-3c0-1.18-0.09-2.16-0.27-2.96s-0.47-1.39-0.88-1.79s-0.94-0.6-1.62-0.6s-1.21,0.2-1.62,0.6
			s-0.7,1-0.88,1.79S264.43,214.27,264.43,215.45z"/>
		<path class="st1" d="M281.73,215.45c0,1.04-0.08,1.97-0.24,2.79s-0.41,1.51-0.75,2.08s-0.78,1-1.32,1.3s-1.19,0.44-1.94,0.44
			c-0.96,0-1.74-0.26-2.37-0.78c-0.62-0.52-1.09-1.28-1.4-2.26c-0.31-0.99-0.46-2.18-0.46-3.57c0-1.37,0.14-2.55,0.42-3.54
			s0.73-1.75,1.35-2.28s1.44-0.8,2.46-0.8c0.97,0,1.76,0.26,2.39,0.79s1.09,1.28,1.4,2.27S281.73,214.06,281.73,215.45z
			 M274.73,215.45c0,1.2,0.09,2.19,0.27,2.99s0.48,1.39,0.88,1.79c0.41,0.4,0.94,0.59,1.6,0.59s1.2-0.2,1.6-0.59s0.7-0.99,0.89-1.78
			c0.18-0.8,0.28-1.8,0.28-3c0-1.18-0.09-2.16-0.27-2.96s-0.47-1.39-0.88-1.79s-0.94-0.6-1.62-0.6s-1.21,0.2-1.62,0.6
			s-0.7,1-0.88,1.79S274.73,214.27,274.73,215.45z"/>
		<path class="st1" d="M292.02,215.45c0,1.04-0.08,1.97-0.24,2.79s-0.41,1.51-0.75,2.08s-0.78,1-1.32,1.3s-1.19,0.44-1.94,0.44
			c-0.96,0-1.74-0.26-2.37-0.78c-0.62-0.52-1.09-1.28-1.4-2.26c-0.31-0.99-0.46-2.18-0.46-3.57c0-1.37,0.14-2.55,0.42-3.54
			s0.73-1.75,1.35-2.28s1.44-0.8,2.46-0.8c0.97,0,1.76,0.26,2.39,0.79s1.09,1.28,1.4,2.27S292.02,214.06,292.02,215.45z
			 M285.02,215.45c0,1.2,0.09,2.19,0.27,2.99s0.48,1.39,0.88,1.79c0.41,0.4,0.94,0.59,1.6,0.59s1.2-0.2,1.6-0.59s0.7-0.99,0.89-1.78
			c0.18-0.8,0.28-1.8,0.28-3c0-1.18-0.09-2.16-0.27-2.96s-0.47-1.39-0.88-1.79s-0.94-0.6-1.62-0.6s-1.21,0.2-1.62,0.6
			s-0.7,1-0.88,1.79S285.02,214.27,285.02,215.45z"/>
		<path class="st1" d="M302.31,215.45c0,1.04-0.08,1.97-0.24,2.79s-0.41,1.51-0.75,2.08s-0.78,1-1.32,1.3s-1.19,0.44-1.94,0.44
			c-0.96,0-1.74-0.26-2.37-0.78c-0.62-0.52-1.09-1.28-1.4-2.26c-0.31-0.99-0.46-2.18-0.46-3.57c0-1.37,0.14-2.55,0.42-3.54
			s0.73-1.75,1.35-2.28s1.44-0.8,2.46-0.8c0.97,0,1.76,0.26,2.39,0.79s1.09,1.28,1.4,2.27S302.31,214.06,302.31,215.45z
			 M295.31,215.45c0,1.2,0.09,2.19,0.27,2.99s0.48,1.39,0.88,1.79c0.41,0.4,0.94,0.59,1.6,0.59s1.2-0.2,1.6-0.59s0.7-0.99,0.89-1.78
			c0.18-0.8,0.28-1.8,0.28-3c0-1.18-0.09-2.16-0.27-2.96s-0.47-1.39-0.88-1.79s-0.94-0.6-1.62-0.6s-1.21,0.2-1.62,0.6
			s-0.7,1-0.88,1.79S295.31,214.27,295.31,215.45z"/>
		<path class="st1" d="M312.61,215.45c0,1.04-0.08,1.97-0.24,2.79s-0.41,1.51-0.75,2.08s-0.78,1-1.32,1.3s-1.19,0.44-1.94,0.44
			c-0.96,0-1.74-0.26-2.37-0.78c-0.62-0.52-1.09-1.28-1.4-2.26c-0.31-0.99-0.46-2.18-0.46-3.57c0-1.37,0.14-2.55,0.42-3.54
			s0.73-1.75,1.35-2.28s1.44-0.8,2.46-0.8c0.97,0,1.76,0.26,2.39,0.79s1.09,1.28,1.4,2.27S312.61,214.06,312.61,215.45z
			 M305.6,215.45c0,1.2,0.09,2.19,0.27,2.99s0.48,1.39,0.88,1.79c0.41,0.4,0.94,0.59,1.6,0.59s1.2-0.2,1.6-0.59s0.7-0.99,0.89-1.78
			c0.18-0.8,0.28-1.8,0.28-3c0-1.18-0.09-2.16-0.27-2.96s-0.47-1.39-0.88-1.79s-0.94-0.6-1.62-0.6s-1.21,0.2-1.62,0.6
			s-0.7,1-0.88,1.79S305.6,214.27,305.6,215.45z"/>
		<path class="st1" d="M322.9,215.45c0,1.04-0.08,1.97-0.24,2.79s-0.41,1.51-0.75,2.08s-0.78,1-1.32,1.3s-1.19,0.44-1.94,0.44
			c-0.96,0-1.74-0.26-2.37-0.78c-0.62-0.52-1.09-1.28-1.4-2.26c-0.31-0.99-0.46-2.18-0.46-3.57c0-1.37,0.14-2.55,0.42-3.54
			s0.73-1.75,1.35-2.28s1.44-0.8,2.46-0.8c0.97,0,1.76,0.26,2.39,0.79s1.09,1.28,1.4,2.27S322.9,214.06,322.9,215.45z
			 M315.89,215.45c0,1.2,0.09,2.19,0.27,2.99s0.48,1.39,0.88,1.79c0.41,0.4,0.94,0.59,1.6,0.59s1.2-0.2,1.6-0.59s0.7-0.99,0.89-1.78
			c0.18-0.8,0.28-1.8,0.28-3c0-1.18-0.09-2.16-0.27-2.96s-0.47-1.39-0.88-1.79s-0.94-0.6-1.62-0.6s-1.21,0.2-1.62,0.6
			s-0.7,1-0.88,1.79S315.89,214.27,315.89,215.45z"/>
	</g>
</g>
<g>
	<g>
		<path class="st0" d="M416.74,261.07l-0.57,2.99h2.49v1.12h-2.71l-0.75,3.8h-1.19l0.75-3.8h-2.68l-0.72,3.8h-1.17l0.69-3.8h-2.3
			v-1.12h2.52l0.59-2.99h-2.44v-1.1h2.65l0.73-3.85h1.2l-0.73,3.85h2.7l0.73-3.85h1.16l-0.73,3.85h2.33v1.1H416.74z M412.29,264.06
			h2.68l0.58-2.99h-2.68L412.29,264.06z"/>
		<path class="st0" d="M424.72,269.15c-1.22,0-2.18-0.42-2.9-1.25c-0.71-0.83-1.07-2.07-1.07-3.71c0-1.66,0.36-2.91,1.09-3.76
			s1.69-1.27,2.9-1.27c0.51,0,0.96,0.07,1.34,0.2s0.71,0.31,0.98,0.54s0.51,0.48,0.69,0.77h0.11c-0.02-0.18-0.05-0.43-0.07-0.75
			s-0.04-0.57-0.04-0.77v-3.86h1.46v13.68h-1.18l-0.22-1.37h-0.06c-0.18,0.29-0.41,0.55-0.69,0.78s-0.61,0.42-0.99,0.56
			C425.69,269.08,425.24,269.15,424.72,269.15z M424.95,267.93c1.03,0,1.76-0.29,2.19-0.88s0.64-1.46,0.64-2.61v-0.26
			c0-1.22-0.2-2.17-0.61-2.82c-0.41-0.66-1.15-0.98-2.22-0.98c-0.9,0-1.57,0.34-2.01,1.03s-0.67,1.63-0.67,2.82
			c0,1.18,0.22,2.1,0.66,2.74C423.37,267.61,424.04,267.93,424.95,267.93z"/>
		<path class="st0" d="M439.6,259.12c0,0.57-0.11,1.07-0.33,1.49s-0.53,0.77-0.93,1.03s-0.87,0.45-1.41,0.56v0.07
			c1.02,0.13,1.79,0.46,2.3,0.98s0.77,1.22,0.77,2.07c0,0.74-0.17,1.4-0.52,1.98s-0.88,1.02-1.6,1.35s-1.64,0.49-2.75,0.49
			c-0.68,0-1.31-0.05-1.89-0.16s-1.13-0.29-1.66-0.54v-1.37c0.53,0.26,1.11,0.47,1.74,0.62s1.23,0.22,1.82,0.22
			c1.17,0,2.02-0.23,2.54-0.7s0.78-1.1,0.78-1.91c0-0.56-0.15-1.01-0.43-1.35c-0.29-0.34-0.71-0.59-1.25-0.76
			c-0.54-0.16-1.19-0.24-1.96-0.24h-1.28v-1.25h1.29c0.7,0,1.29-0.1,1.78-0.31s0.86-0.49,1.11-0.87c0.26-0.37,0.38-0.81,0.38-1.32
			c0-0.65-0.22-1.15-0.65-1.51s-1.02-0.53-1.77-0.53c-0.46,0-0.87,0.05-1.25,0.14s-0.73,0.22-1.05,0.39s-0.66,0.35-0.98,0.57
			l-0.74-1c0.47-0.36,1.04-0.68,1.71-0.94s1.44-0.4,2.29-0.4c1.31,0,2.3,0.3,2.95,0.9S439.6,258.19,439.6,259.12z"/>
		<path class="st0" d="M446.3,259.16c0.82,0,1.52,0.18,2.11,0.54s1.03,0.87,1.34,1.52s0.47,1.42,0.47,2.29v0.91h-6.65
			c0.02,1.13,0.3,1.99,0.84,2.58s1.31,0.89,2.3,0.89c0.61,0,1.15-0.06,1.62-0.17s0.96-0.28,1.46-0.49v1.28
			c-0.49,0.22-0.97,0.38-1.45,0.47c-0.48,0.1-1.04,0.15-1.69,0.15c-0.93,0-1.73-0.19-2.42-0.57c-0.69-0.38-1.22-0.93-1.6-1.67
			s-0.57-1.63-0.57-2.69c0-1.04,0.17-1.94,0.52-2.69c0.35-0.76,0.84-1.34,1.48-1.75C444.69,259.37,445.44,259.16,446.3,259.16z
			 M446.29,260.36c-0.78,0-1.4,0.25-1.86,0.76s-0.74,1.22-0.83,2.14h5.1c-0.01-0.57-0.1-1.08-0.27-1.52s-0.43-0.78-0.79-1.02
			S446.84,260.36,446.29,260.36z"/>
		<path class="st0" d="M454.16,255.3v3.42c0,0.39-0.01,0.77-0.03,1.14c-0.02,0.37-0.04,0.66-0.05,0.86h0.08
			c0.26-0.43,0.64-0.8,1.14-1.1s1.13-0.45,1.91-0.45c1.21,0,2.17,0.42,2.89,1.25s1.08,2.08,1.08,3.72c0,1.08-0.16,2-0.49,2.74
			s-0.79,1.31-1.39,1.69s-1.3,0.57-2.12,0.57c-0.76,0-1.39-0.14-1.88-0.43s-0.87-0.63-1.13-1.04h-0.11l-0.3,1.29h-1.05V255.3H454.16
			z M456.97,260.39c-0.7,0-1.25,0.14-1.66,0.41s-0.71,0.68-0.88,1.23c-0.18,0.55-0.27,1.24-0.27,2.08v0.08
			c0,1.21,0.2,2.14,0.61,2.78s1.14,0.96,2.21,0.96c0.9,0,1.57-0.33,2.02-0.98c0.45-0.66,0.67-1.59,0.67-2.81
			c0-1.24-0.22-2.18-0.66-2.8C458.56,260.71,457.88,260.39,456.97,260.39z"/>
		<path class="st0" d="M467.57,269.15c-0.87,0-1.63-0.18-2.29-0.54s-1.18-0.9-1.55-1.63s-0.55-1.66-0.55-2.77
			c0-1.17,0.19-2.12,0.58-2.86s0.93-1.29,1.61-1.65s1.46-0.54,2.34-0.54c0.48,0,0.95,0.05,1.39,0.15c0.45,0.1,0.82,0.22,1.1,0.36
			l-0.44,1.22c-0.29-0.12-0.63-0.22-1.02-0.32s-0.74-0.14-1.08-0.14c-0.67,0-1.22,0.14-1.67,0.43s-0.77,0.71-0.99,1.27
			c-0.22,0.56-0.33,1.24-0.33,2.06c0,0.78,0.11,1.44,0.32,2s0.53,0.97,0.96,1.26c0.42,0.29,0.96,0.44,1.59,0.44
			c0.51,0,0.97-0.05,1.38-0.16s0.78-0.24,1.12-0.38v1.3c-0.32,0.16-0.68,0.29-1.08,0.38C468.59,269.1,468.12,269.15,467.57,269.15z"
			/>
		<path class="st0" d="M473.35,268.97l5.27-11.51h-7v-1.34h8.57v1.12l-5.24,11.72H473.35z"/>
	</g>
</g>
<g>
	<g>
		<path class="st3" d="M690.9,178.24l-0.57,2.99h2.49v1.12h-2.71l-0.75,3.8h-1.19l0.75-3.8h-2.68l-0.72,3.8h-1.17l0.69-3.8h-2.3
			v-1.12h2.52l0.59-2.99h-2.44v-1.1h2.65l0.73-3.85h1.2l-0.73,3.85h2.7l0.73-3.85h1.16l-0.73,3.85h2.33v1.1H690.9z M686.45,181.22
			h2.68l0.58-2.99h-2.68L686.45,181.22z"/>
		<path class="st3" d="M699.74,177.65h-2.4v8.49h-1.46v-8.49h-1.71v-0.7l1.71-0.48v-0.64c0-0.81,0.12-1.47,0.36-1.97
			s0.59-0.88,1.05-1.12s1.01-0.36,1.67-0.36c0.37,0,0.71,0.03,1.02,0.1c0.31,0.06,0.58,0.14,0.81,0.22l-0.38,1.15
			c-0.2-0.06-0.42-0.12-0.67-0.18s-0.5-0.08-0.76-0.08c-0.56,0-0.97,0.18-1.23,0.54c-0.27,0.36-0.4,0.92-0.4,1.69v0.7h2.4V177.65z
			 M705.79,177.65h-2.4v8.49h-1.46v-8.49h-1.71v-0.7l1.71-0.48v-0.64c0-0.81,0.12-1.47,0.36-1.97s0.59-0.88,1.05-1.12
			s1.01-0.36,1.67-0.36c0.37,0,0.71,0.03,1.01,0.1c0.31,0.06,0.58,0.14,0.81,0.22l-0.38,1.15c-0.2-0.06-0.42-0.12-0.67-0.18
			c-0.25-0.06-0.5-0.08-0.76-0.08c-0.56,0-0.97,0.18-1.24,0.54s-0.4,0.92-0.4,1.69v0.7h2.4V177.65z"/>
		<path class="st3" d="M711.85,177.65h-2.4v8.49h-1.46v-8.49h-1.71v-0.7l1.71-0.48v-0.64c0-0.81,0.12-1.47,0.36-1.97
			s0.59-0.88,1.05-1.12s1.01-0.36,1.67-0.36c0.37,0,0.71,0.03,1.02,0.1c0.31,0.06,0.58,0.14,0.81,0.22l-0.38,1.15
			c-0.2-0.06-0.42-0.12-0.67-0.18s-0.5-0.08-0.76-0.08c-0.56,0-0.97,0.18-1.23,0.54c-0.27,0.36-0.4,0.92-0.4,1.69v0.7h2.4V177.65z"
			/>
		<path class="st3" d="M721.4,178.76c0,0.78-0.05,1.54-0.16,2.28s-0.29,1.43-0.55,2.07c-0.26,0.64-0.61,1.2-1.06,1.68
			s-1,0.86-1.67,1.13s-1.47,0.41-2.4,0.41c-0.25,0-0.54-0.02-0.86-0.05s-0.59-0.08-0.79-0.14v-1.27c0.22,0.08,0.47,0.14,0.76,0.18
			s0.58,0.07,0.86,0.07c1.1,0,1.96-0.24,2.58-0.71s1.08-1.11,1.35-1.92s0.43-1.72,0.47-2.74h-0.11c-0.18,0.28-0.41,0.54-0.69,0.78
			s-0.63,0.43-1.03,0.57s-0.88,0.22-1.42,0.22c-0.74,0-1.39-0.15-1.95-0.46c-0.55-0.3-0.98-0.75-1.29-1.33
			c-0.31-0.58-0.46-1.28-0.46-2.1c0-0.88,0.17-1.65,0.5-2.3s0.81-1.15,1.42-1.5s1.33-0.53,2.15-0.53c0.63,0,1.21,0.12,1.74,0.36
			s0.99,0.6,1.38,1.08c0.39,0.48,0.69,1.07,0.9,1.77S721.4,177.83,721.4,178.76z M717.06,174.34c-0.78,0-1.41,0.25-1.89,0.76
			c-0.48,0.51-0.73,1.28-0.73,2.3c0,0.85,0.21,1.52,0.62,2.01s1.06,0.74,1.92,0.74c0.6,0,1.11-0.12,1.55-0.36
			c0.44-0.24,0.77-0.54,1.01-0.91c0.24-0.37,0.36-0.75,0.36-1.13s-0.06-0.78-0.17-1.18c-0.12-0.4-0.29-0.77-0.52-1.1
			s-0.53-0.61-0.89-0.82S717.55,174.34,717.06,174.34z"/>
		<path class="st3" d="M725.37,172.46v3.42c0,0.39-0.01,0.77-0.03,1.14c-0.02,0.37-0.04,0.66-0.05,0.86h0.08
			c0.26-0.43,0.64-0.8,1.14-1.1s1.13-0.45,1.91-0.45c1.21,0,2.17,0.42,2.89,1.25s1.08,2.08,1.08,3.72c0,1.08-0.16,2-0.49,2.74
			s-0.79,1.31-1.39,1.69s-1.3,0.57-2.12,0.57c-0.76,0-1.39-0.14-1.88-0.43s-0.87-0.63-1.13-1.04h-0.11l-0.3,1.29h-1.05v-13.68
			H725.37z M728.18,177.56c-0.7,0-1.25,0.14-1.66,0.41s-0.71,0.68-0.88,1.23c-0.18,0.55-0.27,1.24-0.27,2.08v0.08
			c0,1.21,0.2,2.14,0.61,2.78s1.14,0.96,2.21,0.96c0.9,0,1.57-0.33,2.02-0.98c0.45-0.66,0.67-1.59,0.67-2.81
			c0-1.24-0.22-2.18-0.66-2.8C729.76,177.87,729.09,177.56,728.18,177.56z"/>
		<path class="st3" d="M742.22,176.29c0,0.57-0.11,1.07-0.33,1.49s-0.53,0.77-0.93,1.03s-0.87,0.45-1.41,0.56v0.07
			c1.02,0.13,1.79,0.46,2.3,0.98s0.77,1.22,0.77,2.07c0,0.74-0.17,1.4-0.52,1.98s-0.88,1.02-1.6,1.35s-1.64,0.49-2.75,0.49
			c-0.68,0-1.31-0.05-1.89-0.16s-1.13-0.29-1.66-0.54v-1.37c0.53,0.26,1.11,0.47,1.74,0.62s1.23,0.22,1.82,0.22
			c1.17,0,2.02-0.23,2.54-0.7s0.78-1.1,0.78-1.91c0-0.56-0.15-1.01-0.43-1.35c-0.29-0.34-0.71-0.59-1.25-0.76
			c-0.54-0.16-1.19-0.24-1.96-0.24h-1.28v-1.25h1.29c0.7,0,1.29-0.1,1.78-0.31s0.86-0.49,1.11-0.87c0.26-0.37,0.38-0.81,0.38-1.32
			c0-0.65-0.22-1.15-0.65-1.51s-1.02-0.53-1.77-0.53c-0.46,0-0.87,0.05-1.25,0.14s-0.73,0.22-1.05,0.39s-0.66,0.35-0.98,0.57
			l-0.74-1c0.47-0.36,1.04-0.68,1.71-0.94s1.44-0.4,2.29-0.4c1.31,0,2.3,0.3,2.95,0.9S742.22,175.36,742.22,176.29z"/>
	</g>
</g>
<g>
	<g>
		<path class="st2" d="M526.52,146.86l-0.57,2.99h2.49v1.12h-2.71l-0.75,3.8h-1.19l0.75-3.8h-2.68l-0.72,3.8h-1.17l0.69-3.8h-2.3
			v-1.12h2.52l0.59-2.99h-2.44v-1.1h2.65l0.73-3.85h1.2l-0.73,3.85h2.7l0.73-3.85h1.16l-0.73,3.85h2.33v1.1H526.52z M522.07,149.85
			h2.68l0.58-2.99h-2.68L522.07,149.85z"/>
		<path class="st2" d="M535.36,146.27h-2.4v8.49h-1.46v-8.49h-1.71v-0.7l1.71-0.48v-0.64c0-0.81,0.12-1.47,0.36-1.97
			s0.59-0.88,1.05-1.12s1.01-0.36,1.67-0.36c0.37,0,0.71,0.03,1.02,0.1c0.31,0.06,0.58,0.14,0.81,0.22l-0.38,1.15
			c-0.2-0.06-0.42-0.12-0.67-0.18s-0.5-0.08-0.76-0.08c-0.56,0-0.97,0.18-1.23,0.54c-0.27,0.36-0.4,0.92-0.4,1.69v0.7h2.4V146.27z
			 M541.42,146.27h-2.4v8.49h-1.46v-8.49h-1.71v-0.7l1.71-0.48v-0.64c0-0.81,0.12-1.47,0.36-1.97s0.59-0.88,1.05-1.12
			s1.01-0.36,1.67-0.36c0.37,0,0.71,0.03,1.01,0.1c0.31,0.06,0.58,0.14,0.81,0.22l-0.38,1.15c-0.2-0.06-0.42-0.12-0.67-0.18
			c-0.25-0.06-0.5-0.08-0.76-0.08c-0.56,0-0.97,0.18-1.24,0.54s-0.4,0.92-0.4,1.69v0.7h2.4V146.27z"/>
		<path class="st2" d="M546.59,146.91c0.87,0,1.63,0.15,2.28,0.44s1.14,0.73,1.5,1.29s0.53,1.25,0.53,2.05
			c0,0.88-0.19,1.64-0.57,2.27s-0.93,1.12-1.64,1.47s-1.57,0.51-2.57,0.51c-0.67,0-1.29-0.06-1.86-0.18s-1.06-0.29-1.45-0.53v-1.39
			c0.43,0.26,0.95,0.46,1.56,0.62s1.2,0.23,1.78,0.23c0.65,0,1.22-0.1,1.71-0.31c0.49-0.21,0.87-0.52,1.14-0.95
			c0.27-0.42,0.41-0.96,0.41-1.6c0-0.86-0.26-1.52-0.79-1.98s-1.35-0.7-2.48-0.7c-0.36,0-0.76,0.03-1.2,0.09s-0.79,0.12-1.07,0.19
			l-0.74-0.48l0.49-6.03H550v1.34h-5.14l-0.33,3.88c0.22-0.05,0.51-0.1,0.86-0.15S546.15,146.91,546.59,146.91z"/>
		<path class="st2" d="M561.26,147.39c0,0.78-0.05,1.54-0.16,2.28s-0.29,1.43-0.55,2.07c-0.26,0.64-0.61,1.2-1.06,1.68
			s-1,0.86-1.67,1.13s-1.47,0.41-2.4,0.41c-0.25,0-0.54-0.02-0.86-0.05s-0.59-0.08-0.79-0.14v-1.27c0.22,0.08,0.47,0.14,0.76,0.18
			s0.58,0.07,0.86,0.07c1.1,0,1.96-0.24,2.58-0.71s1.08-1.11,1.35-1.92s0.43-1.72,0.47-2.74h-0.11c-0.18,0.28-0.41,0.54-0.69,0.78
			s-0.63,0.43-1.03,0.57s-0.88,0.22-1.42,0.22c-0.74,0-1.39-0.15-1.95-0.46c-0.55-0.3-0.98-0.75-1.29-1.33
			c-0.31-0.58-0.46-1.28-0.46-2.1c0-0.88,0.17-1.65,0.5-2.3s0.81-1.15,1.42-1.5s1.33-0.53,2.15-0.53c0.63,0,1.21,0.12,1.74,0.36
			s0.99,0.6,1.38,1.08c0.39,0.48,0.69,1.07,0.9,1.77S561.26,146.46,561.26,147.39z M556.92,142.97c-0.78,0-1.41,0.25-1.89,0.76
			c-0.48,0.51-0.73,1.28-0.73,2.3c0,0.85,0.21,1.52,0.62,2.01s1.06,0.74,1.92,0.74c0.6,0,1.11-0.12,1.55-0.36
			c0.44-0.24,0.77-0.54,1.01-0.91c0.24-0.37,0.36-0.75,0.36-1.13s-0.06-0.78-0.17-1.18c-0.12-0.4-0.29-0.77-0.52-1.1
			s-0.53-0.61-0.89-0.82S557.41,142.97,556.92,142.97z"/>
		<path class="st2" d="M571.61,148.32c0,1.04-0.08,1.97-0.24,2.79s-0.41,1.51-0.75,2.08s-0.78,1-1.32,1.3s-1.19,0.44-1.94,0.44
			c-0.96,0-1.74-0.26-2.37-0.78c-0.62-0.52-1.09-1.28-1.4-2.26c-0.31-0.99-0.46-2.18-0.46-3.57c0-1.37,0.14-2.55,0.42-3.54
			s0.73-1.75,1.35-2.28s1.44-0.8,2.46-0.8c0.97,0,1.76,0.26,2.39,0.79s1.09,1.28,1.4,2.27S571.61,146.94,571.61,148.32z
			 M564.6,148.32c0,1.2,0.09,2.19,0.27,2.99s0.48,1.39,0.88,1.79c0.41,0.4,0.94,0.59,1.6,0.59s1.2-0.2,1.6-0.59s0.7-0.99,0.89-1.78
			c0.18-0.8,0.28-1.8,0.28-3c0-1.18-0.09-2.16-0.27-2.96s-0.47-1.39-0.88-1.79s-0.94-0.6-1.62-0.6s-1.21,0.2-1.62,0.6
			s-0.7,1-0.88,1.79S564.6,147.14,564.6,148.32z"/>
		<path class="st2" d="M581.83,154.76h-8.42v-1.22l3.44-3.49c0.64-0.64,1.18-1.22,1.61-1.72c0.44-0.5,0.77-1,1-1.49
			s0.34-1.03,0.34-1.61c0-0.73-0.21-1.28-0.65-1.67c-0.43-0.38-1-0.58-1.7-0.58c-0.62,0-1.16,0.11-1.63,0.32s-0.96,0.51-1.46,0.9
			l-0.78-0.98c0.34-0.29,0.71-0.54,1.11-0.76s0.83-0.4,1.29-0.53c0.46-0.13,0.95-0.19,1.47-0.19c0.79,0,1.47,0.14,2.05,0.41
			s1.02,0.67,1.33,1.18c0.31,0.51,0.47,1.12,0.47,1.82c0,0.68-0.13,1.31-0.4,1.89s-0.65,1.16-1.13,1.73s-1.05,1.18-1.71,1.81
			l-2.79,2.79v0.06h6.57V154.76z"/>
	</g>
</g>
<path class="st0" d="M529.68,555.03c-10.26-0.04-24.93-12.17-26.78-22.19c-0.22-1.2-0.46-2.53-0.16-3.67
	c2.54-9.92,11.84-13.05,19.04-17.87c5.32-3.57,10.88-0.49,15.68,3.38c7.64,6.16,10.34,14.86,11.5,23.76
	C550.1,547.1,540.06,555.07,529.68,555.03z"/>
<path class="st0" d="M564.59,516.82c-6.84-0.5-18.67-12.18-19.12-17.39c-0.37-4.35,3.82-8.93,8.09-8.84
	c8.02,0.18,17.99,13.71,15.44,21.53C568.31,514.28,565.62,515.78,564.59,516.82z"/>
</svg>
