<?xml version="1.0" encoding="utf-8"?>
<!-- Generator: Adobe Illustrator 25.2.1, SVG Export Plug-In . SVG Version: 6.00 Build 0)  -->
<svg version="1.1" id="Layer_1" xmlns="http://www.w3.org/2000/svg" xmlns:xlink="http://www.w3.org/1999/xlink" x="0px" y="0px"
	 viewBox="0 0 1048 629.05" style="enable-background:new 0 0 1048 629.05;" xml:space="preserve">
<style type="text/css">
	.st0{fill:#283B00;}
	.st1{fill:#D1E9C5;}
	.st2{fill:#FFF7B1;}
	.st3{fill:#FF5902;}
</style>
<path class="st0" d="M234.51,166.16c39.96,1.02,69.93,2.01,98.2,12.82c15.96,6.1,31.42,13.84,46.39,22.13
	c15.86,8.79,30.93,19.01,46.23,28.79c22.47,14.37,39.56,33.14,48.85,58.7c8.7,23.95,5.8,45.41-12.3,63.81
	c-40.01,40.68-84.53,74.65-139.59,92.74c-27.4,9-54.63,18.47-83.35,22.72c-53.98,7.99-102.46-4.08-144.16-39.82
	C84,418.8,74.17,408.23,65.14,397.26c-5.86-7.11-11.14-15.56-13.8-24.29c-6.41-21.05-11.86-42.46-16.33-64.01
	c-4.6-22.17,0.29-43.24,11.6-62.73c6.02-10.38,11.94-20.88,18.84-30.66c12.31-17.43,29.59-27.83,50.31-32.29
	c18.35-3.95,36.68-8.4,55.24-10.9C195.37,169.1,219.97,167.53,234.51,166.16z"/>
<path class="st0" d="M142.94,118.35c-19.08-6.7-31.12-14.31-36.85-29.39c-4.02-10.58-2.42-19.67,4.97-28
	c10.29-11.61,22.94-20.07,37.77-24.69c35.51-11.06,71.5-20.46,109.48-18.51c29.43,1.51,58.93,2.85,86.78,14.82
	c14.82,6.37,27.78,15.1,38.05,27.3c3.88,4.61,6.53,10.27,9.36,15.65c3.87,7.36,1.56,13.82-3.92,19.18c-3.09,3.02-6.6,5.86-10.42,7.9
	c-18.94,10.16-38.85,17.74-60.63,20.21c-17.66,2.01-35.22,4.92-52.93,6.41c-12.89,1.09-25.99,1.19-38.95,0.53
	c-16.76-0.85-33.55-2.34-50.19-4.62C162.95,123.41,150.63,120,142.94,118.35z"/>
<path class="st0" d="M593.1,225.31c-54.81,19.24-102.8,25.74-144.94-6.14c-13.15-9.95-26.09-20.62-25.91-38.32
	c0.25-26.04,8.05-51.1,24.81-73.35c7.81-10.37,22.04-13.56,34.65-15.7c10.83-1.84,22.66-2.7,32.9-0.54
	c31,6.55,61.64,14.31,92.04,22.55c15.03,4.07,27.22,12.63,36.55,24.18c16.38,20.29,13.11,44.88-9.79,61.84
	C619.35,210.23,603.66,218.71,593.1,225.31z"/>
<path class="st0" d="M591.76,404.6c-25.64-3.89-45.37-15.47-59.21-36.5c-4.77-7.25-3.05-15.1-1.27-22.59
	c1.2-5.05,8.3-7.85,13.71-5.88c22.46,8.19,42.8,19.9,59.75,37.03c0.68,0.69,1.3,1.45,1.92,2.19c10.73,12.84,8.19,20.44-8.24,24.52
	C595.93,403.98,593.37,404.3,591.76,404.6z"/>
<path class="st0" d="M649.13,499.37c-4.79,12.7-8.74,16.46-11.72,18.43c-2.8,1.85-6.42,3.27-9.72,3.38
	c-8.6,0.27-11.91-2.92-9.71-11.22c4.96-18.7,10.81-37.18,16.89-55.56c2.11-6.4,6.43-7.71,13.26-6.03c2.38,0.59,4.02,1.35,5.11,2.62
	c2.28,2.64,2.1,6.33,1.95,8.27C653.59,479.54,652.79,489.68,649.13,499.37z"/>
<path class="st0" d="M676.79,605.77c-1.49-3.25,0.5-8.55,4.61-11.77c9.14-7.15,18.26-14.65,28.41-20.09
	c7.96-4.27,16.34,0.63,23.83,4.37c1.1,0.55,1.61,4.29,0.93,5.96c-1.04,2.58-3.01,5.04-5.17,6.85
	c-14.97,12.56-23.74,17.19-34.08,18.3C692.21,609.73,679.25,611.12,676.79,605.77z"/>
<path class="st0" d="M670.54,576.82c-2.01-0.15-4.28-0.26-6.54-0.52c-4.68-0.54-9.38-1.67-10.82-6.78
	c-1.43-5.07-0.85-10.04,2.82-14.53c5.23-6.4,11.57-8.99,19.73-7.63c8.87,1.48,13.42,6.64,13.07,15.21
	c-0.35,8.55-5.17,13.34-14.12,14C673.39,576.67,672.1,576.73,670.54,576.82z"/>
<path class="st0" d="M639.36,423.98c-0.66,6.82-2.72,9.88-7.66,11.01c-6.93,1.59-11.98-1.92-16.71-5.86
	c-3.64-3.03-3.56-7.48-2.31-11.73c1.74-5.94,5.22-7.98,11.03-6.18c3.38,1.05,7.12,2.14,9.66,4.39
	C636.27,418.17,638.03,422.03,639.36,423.98z"/>
<path class="st0" d="M528.95,333.45c-0.17,6.48-4.81,11.48-10.95,10.84c-9.02-0.94-13.69-4.28-13.44-14.06
	c0.2-7.97,3.36-11.83,9.72-11.46C523.12,319.28,529.16,325.32,528.95,333.45z"/>
<path class="st0" d="M646.23,546.47c-1.58-0.31-3.82-0.62-5.99-1.2c-5.1-1.38-8.35-5.22-8.08-9.36c0.25-3.88,3.45-6.74,8.87-7.31
	c2.5-0.26,5.12,0.11,7.62,0.55c7.41,1.3,8.63,2.59,8.23,8.05C656.43,543.34,652.98,546.53,646.23,546.47z"/>
<path class="st0" d="M740.1,615.16c-0.38,0.91-0.7,1.8-1.1,2.65c-2.15,4.6-5.83,4.21-9.8,3.04c-6.7-1.98-12-6.08-10.84-9.17
	c0.87-2.31,3.45-4.53,5.8-5.59c3.75-1.69,13.18,2.63,15.09,6.31C739.68,613.23,739.82,614.2,740.1,615.16z"/>
<g>
	<g>
		<path class="st1" d="M167.8,64.94c2.3,0,4,0.52,5.12,1.55s1.67,2.68,1.67,4.94v13.1h-2.13l-0.56-2.85h-0.14
			c-0.54,0.7-1.1,1.29-1.69,1.77s-1.26,0.83-2.03,1.07s-1.71,0.36-2.82,0.36c-1.17,0-2.21-0.21-3.12-0.62s-1.62-1.03-2.14-1.86
			s-0.78-1.89-0.78-3.16c0-1.92,0.76-3.4,2.29-4.43s3.84-1.59,6.96-1.69l3.32-0.14v-1.18c0-1.66-0.36-2.83-1.07-3.5s-1.72-1-3.02-1
			c-1.01,0-1.97,0.15-2.88,0.44s-1.78,0.64-2.6,1.04l-0.9-2.21c0.87-0.45,1.86-0.83,2.99-1.14S166.56,64.94,167.8,64.94z
			 M171.7,75.02l-2.94,0.12c-2.4,0.09-4.1,0.49-5.08,1.18s-1.48,1.67-1.48,2.94c0,1.1,0.33,1.92,1,2.44s1.55,0.79,2.65,0.79
			c1.71,0,3.11-0.47,4.2-1.42s1.63-2.37,1.63-4.27V75.02z"/>
		<path class="st1" d="M187.45,84.87c-2.44,0-4.37-0.83-5.79-2.5s-2.14-4.14-2.14-7.42c0-3.32,0.73-5.82,2.18-7.52
			s3.39-2.54,5.8-2.54c1.02,0,1.91,0.13,2.67,0.4s1.42,0.63,1.97,1.08s1.01,0.96,1.39,1.54h0.21c-0.05-0.36-0.09-0.86-0.14-1.49
			s-0.07-1.15-0.07-1.55v-7.72h2.92v27.35h-2.36l-0.44-2.74h-0.12c-0.36,0.57-0.82,1.1-1.38,1.56s-1.22,0.84-1.99,1.12
			S188.49,84.87,187.45,84.87z M187.91,82.44c2.06,0,3.52-0.59,4.38-1.76s1.28-2.91,1.28-5.22v-0.53c0-2.45-0.41-4.33-1.22-5.64
			s-2.29-1.97-4.44-1.97c-1.79,0-3.13,0.69-4.03,2.06s-1.34,3.26-1.34,5.63c0,2.37,0.44,4.2,1.33,5.48S186.1,82.44,187.91,82.44z"/>
		<path class="st1" d="M206.86,84.52l-7.31-19.27h3.13l4.24,11.65c0.29,0.8,0.59,1.68,0.9,2.64s0.52,1.73,0.63,2.32h0.12
			c0.14-0.59,0.38-1.36,0.7-2.33s0.63-1.84,0.9-2.63l4.24-11.65h3.13l-7.33,19.27H206.86z"/>
		<path class="st1" d="M228.02,64.9c1.64,0,3.05,0.36,4.22,1.09s2.07,1.74,2.69,3.05s0.93,2.83,0.93,4.58v1.81h-13.31
			c0.04,2.26,0.6,3.98,1.69,5.17s2.62,1.78,4.61,1.78c1.22,0,2.3-0.11,3.23-0.33s1.91-0.55,2.92-0.98v2.57
			c-0.97,0.43-1.94,0.75-2.89,0.95s-2.08,0.3-3.38,0.3c-1.85,0-3.47-0.38-4.84-1.13s-2.45-1.87-3.21-3.33s-1.14-3.26-1.14-5.38
			c0-2.07,0.35-3.87,1.05-5.39s1.68-2.69,2.95-3.51S226.3,64.9,228.02,64.9z M227.99,67.29c-1.56,0-2.8,0.51-3.73,1.53
			s-1.48,2.44-1.65,4.27h10.2c-0.01-1.15-0.19-2.16-0.54-3.03s-0.87-1.55-1.57-2.04S229.09,67.29,227.99,67.29z"/>
		<path class="st1" d="M249.57,64.9c0.39,0,0.79,0.02,1.21,0.06s0.8,0.1,1.12,0.17l-0.37,2.71c-0.32-0.08-0.67-0.15-1.05-0.19
			s-0.75-0.07-1.09-0.07c-0.77,0-1.5,0.15-2.19,0.46s-1.29,0.76-1.8,1.34s-0.92,1.28-1.21,2.09s-0.44,1.72-0.44,2.72v10.34h-2.94
			V65.25h2.43l0.32,3.55h0.12c0.4-0.71,0.88-1.37,1.44-1.96s1.22-1.06,1.96-1.41S248.66,64.9,249.57,64.9z"/>
		<path class="st1" d="M261.75,82.48c0.48,0,0.97-0.04,1.48-0.12s0.91-0.18,1.23-0.3v2.27c-0.34,0.15-0.81,0.28-1.42,0.39
			s-1.19,0.16-1.77,0.16c-1.02,0-1.95-0.18-2.78-0.54s-1.5-0.96-2-1.82s-0.75-2.04-0.75-3.55V67.54h-2.74v-1.42l2.76-1.14l1.16-4.18
			h1.76v4.46h5.64v2.29h-5.64v11.34c0,1.21,0.28,2.11,0.83,2.71S260.83,82.48,261.75,82.48z"/>
		<path class="st1" d="M269.86,58.04c0.48,0,0.89,0.15,1.24,0.46s0.52,0.79,0.52,1.45c0,0.64-0.17,1.12-0.52,1.44
			s-0.76,0.47-1.24,0.47c-0.5,0-0.92-0.16-1.26-0.47s-0.5-0.8-0.5-1.44c0-0.66,0.17-1.14,0.5-1.45S269.35,58.04,269.86,58.04z
			 M271.28,65.25v19.27h-2.92V65.25H271.28z"/>
		<path class="st1" d="M289.91,79.24c0,1.23-0.31,2.26-0.92,3.1s-1.49,1.47-2.64,1.89s-2.5,0.63-4.09,0.63
			c-1.35,0-2.51-0.11-3.5-0.32s-1.85-0.51-2.58-0.9v-2.69c0.79,0.39,1.72,0.74,2.81,1.05s2.2,0.47,3.34,0.47
			c1.66,0,2.87-0.27,3.62-0.81s1.12-1.27,1.12-2.2c0-0.53-0.15-0.99-0.45-1.4s-0.8-0.8-1.5-1.18s-1.68-0.8-2.92-1.26
			c-1.23-0.47-2.29-0.94-3.19-1.4s-1.59-1.03-2.07-1.7s-0.73-1.54-0.73-2.6c0-1.63,0.66-2.88,1.98-3.75s3.05-1.31,5.19-1.31
			c1.16,0,2.25,0.11,3.26,0.34s1.96,0.54,2.84,0.92l-0.98,2.34c-0.8-0.34-1.65-0.63-2.55-0.86s-1.82-0.35-2.76-0.35
			c-1.35,0-2.38,0.22-3.1,0.67s-1.08,1.05-1.08,1.83c0,0.6,0.17,1.09,0.5,1.48s0.87,0.75,1.61,1.09s1.71,0.74,2.92,1.2
			c1.21,0.45,2.25,0.9,3.13,1.38s1.56,1.05,2.03,1.72S289.91,78.19,289.91,79.24z"/>
		<path class="st1" d="M296.1,58.04c0.48,0,0.89,0.15,1.24,0.46s0.52,0.79,0.52,1.45c0,0.64-0.17,1.12-0.52,1.44
			s-0.76,0.47-1.24,0.47c-0.5,0-0.92-0.16-1.26-0.47s-0.5-0.8-0.5-1.44c0-0.66,0.17-1.14,0.5-1.45S295.6,58.04,296.1,58.04z
			 M297.53,65.25v19.27h-2.92V65.25H297.53z"/>
		<path class="st1" d="M312.82,64.9c2.29,0,4.01,0.56,5.19,1.68s1.76,2.92,1.76,5.39v12.55h-2.88V72.16c0-1.61-0.37-2.81-1.1-3.6
			s-1.85-1.2-3.37-1.2c-2.13,0-3.63,0.6-4.5,1.81s-1.3,2.96-1.3,5.26v10.09h-2.92V65.25h2.36l0.44,2.78h0.16
			c0.41-0.68,0.93-1.25,1.56-1.71s1.34-0.81,2.13-1.05S311.95,64.9,312.82,64.9z"/>
		<path class="st1" d="M331.15,93.17c-2.53,0-4.48-0.47-5.85-1.42s-2.06-2.26-2.06-3.96c0-1.21,0.38-2.24,1.15-3.09
			s1.83-1.42,3.19-1.71c-0.5-0.23-0.93-0.59-1.29-1.05s-0.54-1.01-0.54-1.62c0-0.7,0.2-1.32,0.59-1.86s0.99-1.04,1.8-1.54
			c-1.01-0.41-1.83-1.11-2.45-2.08s-0.94-2.12-0.94-3.42c0-1.38,0.29-2.56,0.86-3.54s1.41-1.72,2.5-2.24s2.41-0.77,3.96-0.77
			c0.34,0,0.68,0.01,1.03,0.04s0.68,0.07,0.99,0.12s0.59,0.12,0.83,0.19h6.61v1.88l-3.55,0.44c0.35,0.46,0.64,1.01,0.88,1.65
			s0.35,1.36,0.35,2.14c0,1.92-0.65,3.45-1.95,4.58s-3.09,1.7-5.36,1.7c-0.54,0-1.09-0.05-1.65-0.14c-0.57,0.32-1.01,0.67-1.31,1.05
			s-0.45,0.83-0.45,1.34c0,0.38,0.11,0.67,0.34,0.9s0.56,0.38,0.99,0.48s0.96,0.15,1.56,0.15h3.39c2.1,0,3.71,0.44,4.83,1.32
			s1.68,2.16,1.68,3.85c0,2.13-0.87,3.77-2.6,4.9S334.43,93.17,331.15,93.17z M331.24,90.88c1.59,0,2.92-0.16,3.96-0.48
			s1.83-0.79,2.36-1.39s0.78-1.32,0.78-2.15c0-0.77-0.18-1.36-0.53-1.75s-0.87-0.66-1.55-0.79s-1.51-0.2-2.5-0.2h-3.34
			c-0.87,0-1.62,0.13-2.27,0.4s-1.14,0.67-1.49,1.2s-0.52,1.18-0.52,1.97c0,1.04,0.44,1.84,1.32,2.38S329.61,90.88,331.24,90.88z
			 M332,75.48c1.39,0,2.44-0.35,3.15-1.05s1.05-1.73,1.05-3.08c0-1.44-0.36-2.52-1.07-3.24s-1.77-1.08-3.16-1.08
			c-1.34,0-2.36,0.37-3.08,1.12s-1.08,1.83-1.08,3.26c0,1.31,0.36,2.32,1.09,3.02S330.65,75.48,332,75.48z"/>
	</g>
</g>
<g>
	<g>
		<path class="st1" d="M114.84,383.2c0.24,0,0.49-0.02,0.74-0.06s0.46-0.09,0.62-0.15v1.13c-0.17,0.08-0.41,0.14-0.71,0.19
			s-0.6,0.08-0.88,0.08c-0.51,0-0.97-0.09-1.39-0.27s-0.75-0.48-1-0.91s-0.37-1.02-0.37-1.78v-5.71h-1.37v-0.71l1.38-0.57l0.58-2.09
			h0.88v2.23h2.82v1.14h-2.82v5.67c0,0.6,0.14,1.05,0.42,1.35S114.37,383.2,114.84,383.2z"/>
		<path class="st1" d="M119.6,370.55v4.09c0,0.23-0.01,0.47-0.02,0.71s-0.03,0.46-0.06,0.66h0.1c0.2-0.34,0.45-0.63,0.76-0.86
			c0.31-0.23,0.66-0.41,1.05-0.53s0.81-0.18,1.25-0.18c0.77,0,1.42,0.12,1.94,0.37c0.52,0.25,0.91,0.63,1.17,1.14s0.39,1.18,0.39,2
			v6.28h-1.44v-6.18c0-0.8-0.18-1.4-0.55-1.8s-0.93-0.6-1.68-0.6c-0.71,0-1.29,0.14-1.71,0.41s-0.73,0.67-0.91,1.2
			c-0.18,0.53-0.28,1.17-0.28,1.93v5.04h-1.46v-13.68H119.6z"/>
		<path class="st1" d="M129.93,370.99c0.24,0,0.45,0.08,0.62,0.23s0.26,0.4,0.26,0.73c0,0.32-0.09,0.56-0.26,0.72
			s-0.38,0.24-0.62,0.24c-0.25,0-0.46-0.08-0.63-0.24c-0.17-0.16-0.25-0.4-0.25-0.72c0-0.33,0.08-0.57,0.25-0.73
			C129.47,371.06,129.68,370.99,129.93,370.99z M130.64,374.59v9.63h-1.46v-9.63H130.64z"/>
		<path class="st1" d="M137.58,384.4c-0.87,0-1.63-0.18-2.29-0.54s-1.18-0.9-1.55-1.63s-0.55-1.66-0.55-2.77
			c0-1.17,0.19-2.12,0.58-2.86s0.93-1.29,1.61-1.65s1.46-0.54,2.34-0.54c0.48,0,0.95,0.05,1.39,0.14c0.45,0.1,0.82,0.22,1.1,0.37
			l-0.44,1.22c-0.29-0.12-0.63-0.22-1.02-0.32s-0.74-0.14-1.08-0.14c-0.67,0-1.22,0.14-1.67,0.43s-0.77,0.71-0.99,1.27
			c-0.22,0.56-0.33,1.24-0.33,2.06c0,0.78,0.11,1.44,0.32,2s0.53,0.97,0.96,1.26c0.42,0.29,0.96,0.44,1.59,0.44
			c0.51,0,0.97-0.05,1.38-0.16s0.78-0.24,1.12-0.38v1.3c-0.32,0.16-0.68,0.29-1.08,0.38C138.6,384.35,138.13,384.4,137.58,384.4z"/>
		<path class="st1" d="M143.8,370.55v7.1c0,0.23-0.01,0.52-0.03,0.86s-0.03,0.63-0.04,0.89h0.06c0.12-0.15,0.3-0.38,0.54-0.68
			c0.24-0.3,0.44-0.54,0.6-0.72l3.2-3.41h1.71l-3.88,4.11l4.16,5.52h-1.76l-3.4-4.56l-1.17,1.07v3.49h-1.45v-13.68H143.8z"/>
		<path class="st1" d="M157.23,370.99c0.24,0,0.45,0.08,0.62,0.23s0.26,0.4,0.26,0.73c0,0.32-0.09,0.56-0.26,0.72
			s-0.38,0.24-0.62,0.24c-0.25,0-0.46-0.08-0.63-0.24c-0.17-0.16-0.25-0.4-0.25-0.72c0-0.33,0.08-0.57,0.25-0.73
			C156.77,371.06,156.97,370.99,157.23,370.99z M157.94,374.59v9.63h-1.46v-9.63H157.94z"/>
		<path class="st1" d="M162.49,384.22h-1.47v-13.68h1.47V384.22z"/>
		<path class="st1" d="M167.03,384.22h-1.47v-13.68h1.47V384.22z"/>
		<path class="st1" d="M178.06,374.59v9.63h-1.2l-0.21-1.35h-0.08c-0.2,0.33-0.46,0.62-0.77,0.84s-0.67,0.4-1.07,0.51
			c-0.4,0.11-0.82,0.17-1.26,0.17c-0.76,0-1.4-0.12-1.92-0.37s-0.9-0.63-1.16-1.14c-0.26-0.52-0.39-1.18-0.39-1.99v-6.31h1.48v6.21
			c0,0.8,0.18,1.4,0.54,1.8s0.92,0.59,1.66,0.59c0.71,0,1.28-0.13,1.71-0.4s0.73-0.67,0.92-1.19s0.28-1.17,0.28-1.93v-5.07H178.06z"
			/>
		<path class="st1" d="M187.38,381.59c0,0.62-0.15,1.13-0.46,1.55c-0.31,0.42-0.75,0.73-1.32,0.95c-0.57,0.21-1.25,0.32-2.04,0.32
			c-0.67,0-1.26-0.05-1.75-0.16s-0.92-0.25-1.29-0.45v-1.34c0.39,0.19,0.86,0.37,1.41,0.53s1.1,0.24,1.67,0.24
			c0.83,0,1.44-0.13,1.81-0.4s0.56-0.64,0.56-1.1c0-0.26-0.08-0.5-0.22-0.7c-0.15-0.2-0.4-0.4-0.75-0.59s-0.84-0.4-1.46-0.63
			c-0.62-0.23-1.15-0.47-1.6-0.7c-0.45-0.23-0.79-0.51-1.04-0.85s-0.36-0.77-0.36-1.3c0-0.81,0.33-1.44,0.99-1.88
			c0.66-0.44,1.52-0.65,2.6-0.65c0.58,0,1.12,0.06,1.63,0.17s0.98,0.27,1.42,0.46l-0.49,1.17c-0.4-0.17-0.82-0.31-1.27-0.43
			s-0.91-0.18-1.38-0.18c-0.67,0-1.19,0.11-1.55,0.33c-0.36,0.22-0.54,0.53-0.54,0.91c0,0.3,0.08,0.54,0.25,0.74
			c0.17,0.19,0.44,0.38,0.8,0.54s0.86,0.37,1.46,0.6c0.6,0.22,1.12,0.45,1.56,0.69s0.78,0.52,1.02,0.86
			C187.26,380.63,187.38,381.06,187.38,381.59z"/>
		<path class="st1" d="M192.84,383.2c0.24,0,0.49-0.02,0.74-0.06s0.46-0.09,0.62-0.15v1.13c-0.17,0.08-0.41,0.14-0.71,0.19
			s-0.6,0.08-0.88,0.08c-0.51,0-0.97-0.09-1.39-0.27s-0.75-0.48-1-0.91s-0.37-1.02-0.37-1.78v-5.71h-1.37v-0.71l1.38-0.57l0.58-2.09
			h0.88v2.23h2.82v1.14h-2.82v5.67c0,0.6,0.14,1.05,0.42,1.35S192.38,383.2,192.84,383.2z"/>
		<path class="st1" d="M200.52,374.41c0.19,0,0.4,0.01,0.61,0.03s0.4,0.05,0.56,0.08l-0.18,1.35c-0.16-0.04-0.33-0.07-0.53-0.1
			s-0.38-0.04-0.54-0.04c-0.39,0-0.75,0.08-1.09,0.23c-0.34,0.16-0.64,0.38-0.9,0.67s-0.46,0.64-0.61,1.05s-0.22,0.86-0.22,1.36
			v5.17h-1.47v-9.63h1.21l0.16,1.78h0.06c0.2-0.36,0.44-0.68,0.72-0.98s0.61-0.53,0.98-0.71
			C199.65,374.5,200.06,374.41,200.52,374.41z"/>
		<path class="st1" d="M207.1,374.43c1.15,0,2,0.26,2.56,0.77s0.83,1.34,0.83,2.47v6.55h-1.06l-0.28-1.42h-0.07
			c-0.27,0.35-0.55,0.65-0.84,0.88s-0.63,0.42-1.02,0.54s-0.85,0.18-1.41,0.18c-0.59,0-1.11-0.1-1.56-0.31s-0.81-0.52-1.07-0.93
			s-0.39-0.94-0.39-1.58c0-0.96,0.38-1.7,1.14-2.21s1.92-0.8,3.48-0.84l1.66-0.07v-0.59c0-0.83-0.18-1.42-0.54-1.75
			s-0.86-0.5-1.51-0.5c-0.5,0-0.98,0.07-1.44,0.22s-0.89,0.32-1.3,0.52l-0.45-1.11c0.43-0.22,0.93-0.41,1.49-0.57
			S206.48,374.43,207.1,374.43z M209.06,379.48l-1.47,0.06c-1.2,0.05-2.05,0.24-2.54,0.59s-0.74,0.83-0.74,1.47
			c0,0.55,0.17,0.96,0.5,1.22s0.78,0.4,1.33,0.4c0.86,0,1.56-0.24,2.1-0.71s0.82-1.19,0.82-2.14V379.48z"/>
		<path class="st1" d="M216.61,383.2c0.24,0,0.49-0.02,0.74-0.06s0.46-0.09,0.62-0.15v1.13c-0.17,0.08-0.41,0.14-0.71,0.19
			s-0.6,0.08-0.88,0.08c-0.51,0-0.97-0.09-1.39-0.27s-0.75-0.48-1-0.91s-0.37-1.02-0.37-1.78v-5.71h-1.37v-0.71l1.38-0.57l0.58-2.09
			h0.88v2.23h2.82v1.14h-2.82v5.67c0,0.6,0.14,1.05,0.42,1.35S216.15,383.2,216.61,383.2z"/>
		<path class="st1" d="M220.67,370.99c0.24,0,0.45,0.08,0.62,0.23s0.26,0.4,0.26,0.73c0,0.32-0.09,0.56-0.26,0.72
			s-0.38,0.24-0.62,0.24c-0.25,0-0.46-0.08-0.63-0.24c-0.17-0.16-0.25-0.4-0.25-0.72c0-0.33,0.08-0.57,0.25-0.73
			C220.2,371.06,220.41,370.99,220.67,370.99z M221.38,374.59v9.63h-1.46v-9.63H221.38z"/>
		<path class="st1" d="M232.77,379.39c0,0.79-0.1,1.5-0.31,2.12s-0.5,1.15-0.89,1.57s-0.85,0.75-1.4,0.98s-1.17,0.34-1.86,0.34
			c-0.64,0-1.24-0.11-1.77-0.34c-0.54-0.23-1-0.55-1.39-0.98c-0.39-0.43-0.69-0.95-0.91-1.57s-0.32-1.33-0.32-2.12
			c0-1.05,0.18-1.95,0.54-2.69s0.87-1.31,1.53-1.7c0.66-0.39,1.46-0.58,2.38-0.58c0.88,0,1.65,0.2,2.31,0.59
			c0.66,0.39,1.17,0.96,1.54,1.7C232.58,377.44,232.77,378.34,232.77,379.39z M225.44,379.39c0,0.77,0.1,1.44,0.31,2.01
			s0.52,1.01,0.95,1.32s0.98,0.47,1.65,0.47c0.67,0,1.22-0.16,1.65-0.47c0.43-0.31,0.75-0.75,0.95-1.32s0.31-1.24,0.31-2.01
			c0-0.77-0.1-1.43-0.31-1.99s-0.52-0.99-0.95-1.3s-0.98-0.46-1.66-0.46c-1,0-1.74,0.33-2.2,0.99
			C225.67,377.3,225.44,378.22,225.44,379.39z"/>
		<path class="st1" d="M239.85,374.41c1.14,0,2.01,0.28,2.59,0.84s0.88,1.46,0.88,2.69v6.28h-1.44v-6.18c0-0.8-0.18-1.4-0.55-1.8
			s-0.93-0.6-1.68-0.6c-1.07,0-1.82,0.3-2.25,0.91s-0.65,1.48-0.65,2.63v5.04h-1.46v-9.63h1.18l0.22,1.39h0.08
			c0.21-0.34,0.47-0.63,0.78-0.86s0.67-0.41,1.06-0.53S239.42,374.41,239.85,374.41z"/>
		<path class="st1" d="M252.56,381.59c0,0.62-0.15,1.13-0.46,1.55c-0.31,0.42-0.75,0.73-1.32,0.95c-0.57,0.21-1.25,0.32-2.04,0.32
			c-0.67,0-1.26-0.05-1.75-0.16s-0.92-0.25-1.29-0.45v-1.34c0.39,0.19,0.86,0.37,1.41,0.53s1.1,0.24,1.67,0.24
			c0.83,0,1.44-0.13,1.81-0.4s0.56-0.64,0.56-1.1c0-0.26-0.08-0.5-0.22-0.7c-0.15-0.2-0.4-0.4-0.75-0.59s-0.84-0.4-1.46-0.63
			c-0.62-0.23-1.15-0.47-1.6-0.7c-0.45-0.23-0.79-0.51-1.04-0.85s-0.36-0.77-0.36-1.3c0-0.81,0.33-1.44,0.99-1.88
			c0.66-0.44,1.52-0.65,2.6-0.65c0.58,0,1.12,0.06,1.63,0.17s0.98,0.27,1.42,0.46l-0.49,1.17c-0.4-0.17-0.82-0.31-1.27-0.43
			s-0.91-0.18-1.38-0.18c-0.67,0-1.19,0.11-1.55,0.33c-0.36,0.22-0.54,0.53-0.54,0.91c0,0.3,0.08,0.54,0.25,0.74
			c0.17,0.19,0.44,0.38,0.8,0.54s0.86,0.37,1.46,0.6c0.6,0.22,1.12,0.45,1.56,0.69s0.78,0.52,1.02,0.86
			C252.44,380.63,252.56,381.06,252.56,381.59z"/>
		<path class="st1" d="M260.33,370.99c0.24,0,0.45,0.08,0.62,0.23s0.26,0.4,0.26,0.73c0,0.32-0.09,0.56-0.26,0.72
			s-0.38,0.24-0.62,0.24c-0.25,0-0.46-0.08-0.63-0.24c-0.17-0.16-0.25-0.4-0.25-0.72c0-0.33,0.08-0.57,0.25-0.73
			C259.87,371.06,260.08,370.99,260.33,370.99z M261.04,374.59v9.63h-1.46v-9.63H261.04z"/>
		<path class="st1" d="M268.69,374.41c1.14,0,2.01,0.28,2.59,0.84s0.88,1.46,0.88,2.69v6.28h-1.44v-6.18c0-0.8-0.18-1.4-0.55-1.8
			s-0.93-0.6-1.68-0.6c-1.07,0-1.82,0.3-2.25,0.91s-0.65,1.48-0.65,2.63v5.04h-1.46v-9.63h1.18l0.22,1.39h0.08
			c0.21-0.34,0.47-0.63,0.78-0.86s0.67-0.41,1.06-0.53S268.26,374.41,268.69,374.41z"/>
		<path class="st1" d="M115.58,406.4c-0.87,0-1.63-0.18-2.29-0.54s-1.18-0.9-1.55-1.63s-0.55-1.66-0.55-2.77
			c0-1.17,0.19-2.12,0.58-2.86s0.93-1.29,1.61-1.65s1.46-0.54,2.34-0.54c0.48,0,0.95,0.05,1.39,0.14c0.45,0.1,0.82,0.22,1.1,0.37
			l-0.44,1.22c-0.29-0.12-0.63-0.22-1.02-0.32s-0.74-0.14-1.08-0.14c-0.67,0-1.22,0.14-1.67,0.43s-0.77,0.71-0.99,1.27
			c-0.22,0.56-0.33,1.24-0.33,2.06c0,0.78,0.11,1.44,0.32,2s0.53,0.97,0.96,1.26c0.42,0.29,0.96,0.44,1.59,0.44
			c0.51,0,0.97-0.05,1.38-0.16s0.78-0.24,1.12-0.38v1.3c-0.32,0.16-0.68,0.29-1.08,0.38C116.6,406.35,116.13,406.4,115.58,406.4z"/>
		<path class="st1" d="M121.81,406.22h-1.47v-13.68h1.47V406.22z"/>
		<path class="st1" d="M133.2,401.39c0,0.79-0.1,1.5-0.31,2.12s-0.5,1.15-0.89,1.57s-0.85,0.75-1.4,0.98s-1.17,0.34-1.86,0.34
			c-0.64,0-1.24-0.11-1.77-0.34c-0.54-0.23-1-0.55-1.39-0.98c-0.39-0.43-0.69-0.95-0.91-1.57s-0.32-1.33-0.32-2.12
			c0-1.05,0.18-1.95,0.54-2.69s0.87-1.31,1.53-1.7c0.66-0.39,1.46-0.58,2.38-0.58c0.88,0,1.65,0.2,2.31,0.59
			c0.66,0.39,1.17,0.96,1.54,1.7C133.01,399.44,133.2,400.34,133.2,401.39z M125.87,401.39c0,0.77,0.1,1.44,0.31,2.01
			s0.52,1.01,0.95,1.32s0.98,0.47,1.65,0.47c0.67,0,1.22-0.16,1.65-0.47c0.43-0.31,0.75-0.75,0.95-1.32s0.31-1.24,0.31-2.01
			c0-0.77-0.1-1.43-0.31-1.99s-0.52-0.99-0.95-1.3s-0.98-0.46-1.66-0.46c-1,0-1.74,0.33-2.2,0.99
			C126.1,399.3,125.87,400.22,125.87,401.39z"/>
		<path class="st1" d="M141.95,403.59c0,0.62-0.15,1.13-0.46,1.55c-0.31,0.42-0.75,0.73-1.32,0.95c-0.57,0.21-1.25,0.32-2.04,0.32
			c-0.67,0-1.26-0.05-1.75-0.16s-0.92-0.25-1.29-0.45v-1.34c0.39,0.19,0.86,0.37,1.41,0.53s1.1,0.24,1.67,0.24
			c0.83,0,1.44-0.13,1.81-0.4s0.56-0.64,0.56-1.1c0-0.26-0.08-0.5-0.22-0.7c-0.15-0.2-0.4-0.4-0.75-0.59s-0.84-0.4-1.46-0.63
			c-0.62-0.23-1.15-0.47-1.6-0.7c-0.45-0.23-0.79-0.51-1.04-0.85s-0.36-0.77-0.36-1.3c0-0.81,0.33-1.44,0.99-1.88
			c0.66-0.44,1.52-0.65,2.6-0.65c0.58,0,1.12,0.06,1.63,0.17s0.98,0.27,1.42,0.46l-0.49,1.17c-0.4-0.17-0.82-0.31-1.27-0.43
			s-0.91-0.18-1.38-0.18c-0.67,0-1.19,0.11-1.55,0.33c-0.36,0.22-0.54,0.53-0.54,0.91c0,0.3,0.08,0.54,0.25,0.74
			c0.17,0.19,0.44,0.38,0.8,0.54s0.86,0.37,1.46,0.6c0.6,0.22,1.12,0.45,1.56,0.69s0.78,0.52,1.02,0.86
			C141.83,402.63,141.95,403.06,141.95,403.59z"/>
		<path class="st1" d="M148.01,396.41c0.82,0,1.52,0.18,2.11,0.54s1.03,0.87,1.34,1.52s0.47,1.42,0.47,2.29v0.91h-6.65
			c0.02,1.13,0.3,1.99,0.84,2.58s1.31,0.89,2.3,0.89c0.61,0,1.15-0.06,1.62-0.17s0.96-0.28,1.46-0.49v1.28
			c-0.49,0.22-0.97,0.38-1.45,0.47c-0.48,0.1-1.04,0.15-1.69,0.15c-0.93,0-1.73-0.19-2.42-0.57c-0.69-0.38-1.22-0.93-1.6-1.67
			s-0.57-1.63-0.57-2.69c0-1.04,0.17-1.94,0.52-2.69c0.35-0.76,0.84-1.34,1.48-1.75C146.4,396.62,147.15,396.41,148.01,396.41z
			 M147.99,397.61c-0.78,0-1.4,0.25-1.86,0.76s-0.74,1.22-0.83,2.14h5.1c-0.01-0.57-0.1-1.08-0.27-1.52s-0.43-0.78-0.79-1.02
			S148.54,397.61,147.99,397.61z"/>
		<path class="st1" d="M157.83,406.4c-1.22,0-2.18-0.42-2.9-1.25c-0.71-0.83-1.07-2.07-1.07-3.71c0-1.66,0.36-2.91,1.09-3.76
			s1.69-1.27,2.9-1.27c0.51,0,0.96,0.07,1.34,0.2s0.71,0.31,0.98,0.54s0.51,0.48,0.69,0.77h0.11c-0.02-0.18-0.05-0.43-0.07-0.75
			s-0.04-0.57-0.04-0.77v-3.86h1.46v13.68h-1.18l-0.22-1.37h-0.06c-0.18,0.29-0.41,0.55-0.69,0.78s-0.61,0.42-0.99,0.56
			C158.81,406.33,158.35,406.4,157.83,406.4z M158.06,405.19c1.03,0,1.76-0.29,2.19-0.88s0.64-1.46,0.64-2.61v-0.26
			c0-1.22-0.2-2.17-0.61-2.82c-0.41-0.66-1.15-0.98-2.22-0.98c-0.9,0-1.57,0.34-2.01,1.03s-0.67,1.63-0.67,2.82
			c0,1.18,0.22,2.1,0.66,2.74C156.49,404.86,157.16,405.19,158.06,405.19z"/>
		<path class="st1" d="M171.56,406.22h-1.47v-13.68h1.47V406.22z"/>
		<path class="st1" d="M182.94,401.39c0,0.79-0.1,1.5-0.31,2.12s-0.5,1.15-0.89,1.57s-0.85,0.75-1.4,0.98s-1.17,0.34-1.86,0.34
			c-0.64,0-1.24-0.11-1.77-0.34c-0.54-0.23-1-0.55-1.39-0.98c-0.39-0.43-0.69-0.95-0.91-1.57s-0.32-1.33-0.32-2.12
			c0-1.05,0.18-1.95,0.54-2.69s0.87-1.31,1.53-1.7c0.66-0.39,1.46-0.58,2.38-0.58c0.88,0,1.65,0.2,2.31,0.59
			c0.66,0.39,1.17,0.96,1.54,1.7C182.76,399.44,182.94,400.34,182.94,401.39z M175.61,401.39c0,0.77,0.1,1.44,0.31,2.01
			s0.52,1.01,0.95,1.32s0.98,0.47,1.65,0.47c0.67,0,1.22-0.16,1.65-0.47c0.43-0.31,0.75-0.75,0.95-1.32s0.31-1.24,0.31-2.01
			c0-0.77-0.1-1.43-0.31-1.99s-0.52-0.99-0.95-1.3s-0.98-0.46-1.66-0.46c-1,0-1.74,0.33-2.2,0.99
			C175.85,399.3,175.61,400.22,175.61,401.39z"/>
		<path class="st1" d="M193.77,401.39c0,0.79-0.1,1.5-0.31,2.12s-0.5,1.15-0.89,1.57s-0.85,0.75-1.4,0.98s-1.17,0.34-1.86,0.34
			c-0.64,0-1.24-0.11-1.77-0.34c-0.54-0.23-1-0.55-1.39-0.98c-0.39-0.43-0.69-0.95-0.91-1.57s-0.32-1.33-0.32-2.12
			c0-1.05,0.18-1.95,0.54-2.69s0.87-1.31,1.53-1.7c0.66-0.39,1.46-0.58,2.38-0.58c0.88,0,1.65,0.2,2.31,0.59
			c0.66,0.39,1.17,0.96,1.54,1.7C193.59,399.44,193.77,400.34,193.77,401.39z M186.44,401.39c0,0.77,0.1,1.44,0.31,2.01
			s0.52,1.01,0.95,1.32s0.98,0.47,1.65,0.47c0.67,0,1.22-0.16,1.65-0.47c0.43-0.31,0.75-0.75,0.95-1.32s0.31-1.24,0.31-2.01
			c0-0.77-0.1-1.43-0.31-1.99s-0.52-0.99-0.95-1.3s-0.98-0.46-1.66-0.46c-1,0-1.74,0.33-2.2,0.99
			C186.67,399.3,186.44,400.22,186.44,401.39z"/>
		<path class="st1" d="M200.82,396.41c1.2,0,2.16,0.41,2.87,1.24s1.07,2.07,1.07,3.73c0,1.1-0.16,2.02-0.49,2.76
			s-0.79,1.31-1.38,1.69c-0.6,0.38-1.3,0.57-2.11,0.57c-0.51,0-0.96-0.07-1.34-0.2s-0.72-0.32-0.99-0.54s-0.5-0.48-0.69-0.75h-0.11
			c0.02,0.23,0.04,0.5,0.07,0.83c0.03,0.32,0.04,0.6,0.04,0.84v3.96h-1.47v-13.94h1.2l0.19,1.42h0.07c0.19-0.29,0.42-0.56,0.69-0.8
			s0.6-0.44,0.99-0.58S200.29,396.41,200.82,396.41z M200.56,397.64c-0.67,0-1.21,0.13-1.61,0.39c-0.41,0.26-0.71,0.64-0.89,1.16
			s-0.29,1.16-0.3,1.93v0.28c0,0.81,0.09,1.5,0.27,2.07s0.47,0.99,0.89,1.28c0.41,0.29,0.97,0.44,1.67,0.44
			c0.6,0,1.1-0.16,1.49-0.48s0.7-0.77,0.89-1.35s0.29-1.24,0.29-1.99c0-1.14-0.22-2.04-0.66-2.71S201.48,397.64,200.56,397.64z"/>
		<path class="st1" d="M213.54,403.59c0,0.62-0.15,1.13-0.46,1.55c-0.31,0.42-0.75,0.73-1.32,0.95c-0.57,0.21-1.25,0.32-2.04,0.32
			c-0.67,0-1.26-0.05-1.75-0.16s-0.92-0.25-1.29-0.45v-1.34c0.39,0.19,0.86,0.37,1.41,0.53s1.1,0.24,1.67,0.24
			c0.83,0,1.44-0.13,1.81-0.4s0.56-0.64,0.56-1.1c0-0.26-0.08-0.5-0.22-0.7c-0.15-0.2-0.4-0.4-0.75-0.59s-0.84-0.4-1.46-0.63
			c-0.62-0.23-1.15-0.47-1.6-0.7c-0.45-0.23-0.79-0.51-1.04-0.85s-0.36-0.77-0.36-1.3c0-0.81,0.33-1.44,0.99-1.88
			c0.66-0.44,1.52-0.65,2.6-0.65c0.58,0,1.12,0.06,1.63,0.17s0.98,0.27,1.42,0.46l-0.49,1.17c-0.4-0.17-0.82-0.31-1.27-0.43
			s-0.91-0.18-1.38-0.18c-0.67,0-1.19,0.11-1.55,0.33c-0.36,0.22-0.54,0.53-0.54,0.91c0,0.3,0.08,0.54,0.25,0.74
			c0.17,0.19,0.44,0.38,0.8,0.54s0.86,0.37,1.46,0.6c0.6,0.22,1.12,0.45,1.56,0.69s0.78,0.52,1.02,0.86
			C213.42,402.63,213.54,403.06,213.54,403.59z"/>
	</g>
</g>
<path class="st0" d="M567.18,278.28c5.33-12.29,15.71-24.32,34.28-33.4c24.04-11.75,56.4-17.66,91.14-21.28
	c22.31-2.32,46.92-0.16,72.09,8.02c11.29,3.67,23.72,5.97,35.35,9.31c8.35,2.39,16.37,5.36,24.29,8.28
	c5.98,2.21,11.46,4.84,17.37,7.12c31.2,12.08,42.6,26.08,31.69,40.14c-12.43,16.02-35.3,26.79-67.68,32.8
	c-17.62,3.27-35.38,6.59-51.34,11.06c-30.8,8.64-67.53,7.37-107.16,1.67c-23.77-3.42-42.55-11.34-56.1-22.66
	C575.35,306.17,564.13,292.92,567.18,278.28z"/>
<g>
	<g>
		<path class="st1" d="M622.19,293l-3.66-9.63h1.56l2.12,5.83c0.15,0.4,0.3,0.84,0.45,1.32s0.26,0.87,0.32,1.16h0.06
			c0.07-0.29,0.19-0.68,0.35-1.17c0.16-0.48,0.31-0.92,0.45-1.31l2.12-5.83h1.56l-3.67,9.63H622.19z"/>
		<path class="st1" d="M632.77,283.19c0.82,0,1.52,0.18,2.11,0.54s1.03,0.87,1.34,1.53c0.31,0.65,0.47,1.42,0.47,2.29v0.91h-6.65
			c0.02,1.13,0.3,1.99,0.84,2.58s1.31,0.89,2.3,0.89c0.61,0,1.15-0.06,1.62-0.17s0.96-0.28,1.46-0.49v1.28
			c-0.49,0.22-0.97,0.38-1.45,0.47c-0.48,0.1-1.04,0.15-1.69,0.15c-0.93,0-1.73-0.19-2.42-0.57c-0.69-0.38-1.22-0.93-1.6-1.67
			s-0.57-1.63-0.57-2.69c0-1.04,0.17-1.94,0.52-2.69c0.35-0.76,0.84-1.34,1.48-1.75C631.16,283.4,631.91,283.19,632.77,283.19z
			 M632.76,284.39c-0.78,0-1.4,0.25-1.86,0.76s-0.74,1.22-0.83,2.14h5.1c-0.01-0.57-0.1-1.08-0.27-1.52
			c-0.17-0.44-0.43-0.78-0.79-1.02C633.76,284.51,633.31,284.39,632.76,284.39z"/>
		<path class="st1" d="M643.03,293.18c-0.87,0-1.63-0.18-2.29-0.54s-1.18-0.9-1.55-1.63s-0.55-1.66-0.55-2.77
			c0-1.17,0.19-2.12,0.58-2.86c0.39-0.74,0.93-1.29,1.61-1.65s1.46-0.54,2.34-0.54c0.48,0,0.95,0.05,1.39,0.14
			c0.45,0.1,0.82,0.22,1.1,0.37l-0.44,1.22c-0.29-0.12-0.63-0.22-1.02-0.32s-0.74-0.14-1.08-0.14c-0.67,0-1.22,0.14-1.67,0.43
			s-0.77,0.71-0.99,1.27c-0.22,0.56-0.33,1.24-0.33,2.06c0,0.78,0.11,1.44,0.32,2s0.53,0.97,0.96,1.26
			c0.42,0.29,0.96,0.44,1.59,0.44c0.51,0,0.97-0.05,1.38-0.16c0.41-0.11,0.78-0.24,1.12-0.38v1.3c-0.32,0.16-0.68,0.29-1.08,0.38
			C644.05,293.13,643.58,293.18,643.03,293.18z"/>
		<path class="st1" d="M650.91,291.98c0.24,0,0.49-0.02,0.74-0.06s0.46-0.09,0.62-0.15v1.13c-0.17,0.08-0.41,0.14-0.71,0.19
			s-0.6,0.08-0.88,0.08c-0.51,0-0.97-0.09-1.39-0.27c-0.42-0.18-0.75-0.48-1-0.91s-0.37-1.02-0.37-1.78v-5.71h-1.37v-0.71l1.38-0.57
			l0.58-2.09h0.88v2.23h2.82v1.14h-2.82v5.67c0,0.6,0.14,1.05,0.42,1.35S650.44,291.98,650.91,291.98z"/>
		<path class="st1" d="M662.52,288.17c0,0.79-0.1,1.5-0.31,2.12s-0.5,1.15-0.89,1.57s-0.85,0.75-1.4,0.98
			c-0.55,0.22-1.17,0.34-1.86,0.34c-0.64,0-1.24-0.11-1.77-0.34c-0.54-0.23-1-0.55-1.39-0.98c-0.39-0.43-0.69-0.95-0.91-1.57
			s-0.32-1.33-0.32-2.12c0-1.05,0.18-1.95,0.54-2.69c0.36-0.74,0.87-1.31,1.53-1.7c0.66-0.39,1.46-0.58,2.38-0.58
			c0.88,0,1.65,0.2,2.31,0.59c0.66,0.39,1.17,0.96,1.54,1.7C662.33,286.22,662.52,287.12,662.52,288.17z M655.19,288.17
			c0,0.77,0.1,1.44,0.31,2.01s0.52,1.01,0.95,1.32s0.98,0.47,1.65,0.47c0.67,0,1.22-0.16,1.65-0.47c0.43-0.31,0.75-0.75,0.95-1.32
			s0.31-1.24,0.31-2.01c0-0.77-0.1-1.43-0.31-1.99c-0.21-0.56-0.52-0.99-0.95-1.3s-0.98-0.46-1.66-0.46c-1,0-1.74,0.33-2.2,0.99
			C655.42,286.08,655.19,287,655.19,288.17z"/>
		<path class="st1" d="M669.42,283.19c0.19,0,0.4,0.01,0.61,0.03c0.21,0.02,0.4,0.05,0.56,0.08l-0.18,1.35
			c-0.16-0.04-0.33-0.07-0.53-0.1s-0.38-0.04-0.54-0.04c-0.39,0-0.75,0.08-1.09,0.23c-0.34,0.16-0.64,0.38-0.9,0.67
			c-0.26,0.29-0.46,0.64-0.61,1.05c-0.15,0.41-0.22,0.86-0.22,1.36V293h-1.47v-9.63h1.21l0.16,1.78h0.06
			c0.2-0.36,0.44-0.68,0.72-0.98c0.28-0.29,0.61-0.53,0.98-0.71C668.54,283.28,668.96,283.19,669.42,283.19z"/>
		<path class="st1" d="M681.36,284.51h-2.4V293h-1.46v-8.49h-1.71v-0.7l1.71-0.48v-0.64c0-0.81,0.12-1.47,0.36-1.97
			c0.24-0.51,0.59-0.88,1.05-1.12s1.01-0.36,1.67-0.36c0.37,0,0.71,0.03,1.02,0.1c0.31,0.06,0.58,0.14,0.81,0.22l-0.38,1.15
			c-0.2-0.06-0.42-0.12-0.67-0.18c-0.25-0.06-0.5-0.08-0.76-0.08c-0.56,0-0.97,0.18-1.23,0.54c-0.27,0.36-0.4,0.92-0.4,1.69v0.7h2.4
			V284.51z"/>
		<path class="st1" d="M691.43,288.17c0,0.79-0.1,1.5-0.31,2.12s-0.5,1.15-0.89,1.57s-0.85,0.75-1.4,0.98
			c-0.55,0.22-1.17,0.34-1.86,0.34c-0.64,0-1.24-0.11-1.77-0.34c-0.54-0.23-1-0.55-1.39-0.98c-0.39-0.43-0.69-0.95-0.91-1.57
			s-0.32-1.33-0.32-2.12c0-1.05,0.18-1.95,0.54-2.69c0.36-0.74,0.87-1.31,1.53-1.7c0.66-0.39,1.46-0.58,2.38-0.58
			c0.88,0,1.65,0.2,2.31,0.59c0.66,0.39,1.17,0.96,1.54,1.7C691.25,286.22,691.43,287.12,691.43,288.17z M684.1,288.17
			c0,0.77,0.1,1.44,0.31,2.01s0.52,1.01,0.95,1.32s0.98,0.47,1.65,0.47c0.67,0,1.22-0.16,1.65-0.47c0.43-0.31,0.75-0.75,0.95-1.32
			s0.31-1.24,0.31-2.01c0-0.77-0.1-1.43-0.31-1.99c-0.21-0.56-0.52-0.99-0.95-1.3s-0.98-0.46-1.66-0.46c-1,0-1.74,0.33-2.2,0.99
			C684.33,286.08,684.1,287,684.1,288.17z"/>
		<path class="st1" d="M698.33,283.19c0.19,0,0.4,0.01,0.61,0.03c0.21,0.02,0.4,0.05,0.56,0.08l-0.18,1.35
			c-0.16-0.04-0.33-0.07-0.53-0.1s-0.38-0.04-0.54-0.04c-0.39,0-0.75,0.08-1.09,0.23c-0.34,0.16-0.64,0.38-0.9,0.67
			c-0.26,0.29-0.46,0.64-0.61,1.05c-0.15,0.41-0.22,0.86-0.22,1.36V293h-1.47v-9.63h1.21l0.16,1.78h0.06
			c0.2-0.36,0.44-0.68,0.72-0.98c0.28-0.29,0.61-0.53,0.98-0.71C697.46,283.28,697.88,283.19,698.33,283.19z"/>
		<path class="st1" d="M712.22,290.36c0,0.62-0.15,1.13-0.46,1.55c-0.31,0.42-0.75,0.73-1.32,0.95c-0.57,0.21-1.25,0.32-2.04,0.32
			c-0.67,0-1.26-0.05-1.75-0.16s-0.92-0.25-1.29-0.45v-1.34c0.39,0.19,0.86,0.37,1.41,0.53s1.1,0.24,1.67,0.24
			c0.83,0,1.44-0.13,1.81-0.4s0.56-0.64,0.56-1.1c0-0.26-0.08-0.5-0.22-0.7c-0.15-0.2-0.4-0.4-0.75-0.59
			c-0.35-0.19-0.84-0.4-1.46-0.63c-0.62-0.23-1.15-0.47-1.6-0.7c-0.45-0.23-0.79-0.51-1.04-0.85s-0.36-0.77-0.36-1.3
			c0-0.81,0.33-1.44,0.99-1.88c0.66-0.44,1.52-0.65,2.6-0.65c0.58,0,1.12,0.06,1.63,0.17c0.51,0.11,0.98,0.27,1.42,0.46l-0.49,1.17
			c-0.4-0.17-0.82-0.31-1.27-0.43s-0.91-0.18-1.38-0.18c-0.67,0-1.19,0.11-1.55,0.33c-0.36,0.22-0.54,0.53-0.54,0.91
			c0,0.3,0.08,0.54,0.25,0.74c0.17,0.19,0.44,0.38,0.8,0.54s0.86,0.37,1.46,0.6c0.6,0.22,1.12,0.45,1.56,0.69
			c0.44,0.24,0.78,0.53,1.02,0.86C712.1,289.41,712.22,289.84,712.22,290.36z"/>
		<path class="st1" d="M725.02,283.19c1.06,0,1.86,0.28,2.4,0.83c0.54,0.55,0.81,1.44,0.81,2.67V293h-1.44v-6.24
			c0-0.78-0.17-1.36-0.51-1.75c-0.34-0.39-0.84-0.58-1.5-0.58c-0.93,0-1.61,0.27-2.03,0.81s-0.63,1.33-0.63,2.38V293h-1.45v-6.24
			c0-0.52-0.07-0.96-0.22-1.3c-0.15-0.35-0.37-0.61-0.67-0.78c-0.3-0.17-0.67-0.26-1.12-0.26c-0.64,0-1.15,0.13-1.54,0.4
			s-0.67,0.66-0.84,1.17c-0.17,0.52-0.26,1.16-0.26,1.91v5.1h-1.46v-9.63h1.18l0.22,1.36h0.08c0.19-0.33,0.44-0.62,0.73-0.84
			s0.62-0.4,0.98-0.52s0.75-0.18,1.16-0.18c0.73,0,1.35,0.14,1.84,0.41c0.49,0.27,0.85,0.69,1.08,1.24h0.08
			c0.32-0.56,0.75-0.97,1.3-1.24C723.76,283.33,724.37,283.19,725.02,283.19z"/>
		<path class="st1" d="M734.83,283.21c1.15,0,2,0.26,2.56,0.77s0.83,1.34,0.83,2.47V293h-1.06l-0.28-1.42h-0.07
			c-0.27,0.35-0.55,0.65-0.84,0.88c-0.29,0.24-0.63,0.42-1.02,0.54c-0.38,0.12-0.85,0.18-1.41,0.18c-0.59,0-1.11-0.1-1.56-0.31
			s-0.81-0.52-1.07-0.93s-0.39-0.94-0.39-1.58c0-0.96,0.38-1.7,1.14-2.21s1.92-0.8,3.48-0.84l1.66-0.07v-0.59
			c0-0.83-0.18-1.42-0.54-1.75s-0.86-0.5-1.51-0.5c-0.5,0-0.98,0.07-1.44,0.22s-0.89,0.32-1.3,0.52l-0.45-1.11
			c0.43-0.22,0.93-0.41,1.49-0.57S734.21,283.21,734.83,283.21z M736.78,288.26l-1.47,0.06c-1.2,0.05-2.05,0.24-2.54,0.59
			s-0.74,0.83-0.74,1.47c0,0.55,0.17,0.96,0.5,1.22s0.78,0.4,1.33,0.4c0.86,0,1.56-0.24,2.1-0.71s0.82-1.19,0.82-2.14V288.26z"/>
		<path class="st1" d="M742.7,293h-1.47v-13.68h1.47V293z"/>
		<path class="st1" d="M747.24,293h-1.47v-13.68h1.47V293z"/>
		<path class="st1" d="M754.03,283.19c0.82,0,1.52,0.18,2.11,0.54s1.03,0.87,1.34,1.53c0.31,0.65,0.47,1.42,0.47,2.29v0.91h-6.65
			c0.02,1.13,0.3,1.99,0.84,2.58s1.31,0.89,2.3,0.89c0.61,0,1.15-0.06,1.62-0.17s0.96-0.28,1.46-0.49v1.28
			c-0.49,0.22-0.97,0.38-1.45,0.47c-0.48,0.1-1.04,0.15-1.69,0.15c-0.93,0-1.73-0.19-2.42-0.57c-0.69-0.38-1.22-0.93-1.6-1.67
			s-0.57-1.63-0.57-2.69c0-1.04,0.17-1.94,0.52-2.69c0.35-0.76,0.84-1.34,1.48-1.75C752.42,283.4,753.17,283.19,754.03,283.19z
			 M754.01,284.39c-0.78,0-1.4,0.25-1.86,0.76s-0.74,1.22-0.83,2.14h5.1c-0.01-0.57-0.1-1.08-0.27-1.52
			c-0.17-0.44-0.43-0.78-0.79-1.02C755.01,284.51,754.56,284.39,754.01,284.39z"/>
		<path class="st1" d="M764.8,283.19c0.19,0,0.4,0.01,0.61,0.03c0.21,0.02,0.4,0.05,0.56,0.08l-0.18,1.35
			c-0.16-0.04-0.33-0.07-0.53-0.1s-0.38-0.04-0.54-0.04c-0.39,0-0.75,0.08-1.09,0.23c-0.34,0.16-0.64,0.38-0.9,0.67
			c-0.26,0.29-0.46,0.64-0.61,1.05c-0.15,0.41-0.22,0.86-0.22,1.36V293h-1.47v-9.63h1.21l0.16,1.78h0.06
			c0.2-0.36,0.44-0.68,0.72-0.98c0.28-0.29,0.61-0.53,0.98-0.71C763.93,283.28,764.35,283.19,764.8,283.19z"/>
		<path class="st1" d="M776.75,284.51h-2.4V293h-1.46v-8.49h-1.71v-0.7l1.71-0.48v-0.64c0-0.81,0.12-1.47,0.36-1.97
			c0.24-0.51,0.59-0.88,1.05-1.12s1.01-0.36,1.67-0.36c0.37,0,0.71,0.03,1.02,0.1c0.31,0.06,0.58,0.14,0.81,0.22l-0.38,1.15
			c-0.2-0.06-0.42-0.12-0.67-0.18c-0.25-0.06-0.5-0.08-0.76-0.08c-0.56,0-0.97,0.18-1.23,0.54c-0.27,0.36-0.4,0.92-0.4,1.69v0.7h2.4
			V284.51z M779.26,279.77c0.24,0,0.45,0.08,0.62,0.23c0.17,0.16,0.26,0.4,0.26,0.73c0,0.32-0.09,0.56-0.26,0.72
			c-0.17,0.16-0.38,0.24-0.62,0.24c-0.25,0-0.46-0.08-0.63-0.24c-0.17-0.16-0.25-0.4-0.25-0.72c0-0.33,0.08-0.57,0.25-0.73
			C778.8,279.84,779.01,279.77,779.26,279.77z M779.97,283.37V293h-1.46v-9.63H779.97z"/>
		<path class="st1" d="M784.53,293h-1.47v-13.68h1.47V293z"/>
		<path class="st1" d="M791.31,283.19c0.82,0,1.52,0.18,2.11,0.54s1.03,0.87,1.34,1.53c0.31,0.65,0.47,1.42,0.47,2.29v0.91h-6.65
			c0.02,1.13,0.3,1.99,0.84,2.58s1.31,0.89,2.3,0.89c0.61,0,1.15-0.06,1.62-0.17s0.96-0.28,1.46-0.49v1.28
			c-0.49,0.22-0.97,0.38-1.45,0.47c-0.48,0.1-1.04,0.15-1.69,0.15c-0.93,0-1.73-0.19-2.42-0.57c-0.69-0.38-1.22-0.93-1.6-1.67
			s-0.57-1.63-0.57-2.69c0-1.04,0.17-1.94,0.52-2.69c0.35-0.76,0.84-1.34,1.48-1.75C789.7,283.4,790.45,283.19,791.31,283.19z
			 M791.29,284.39c-0.78,0-1.4,0.25-1.86,0.76s-0.74,1.22-0.83,2.14h5.1c-0.01-0.57-0.1-1.08-0.27-1.52
			c-0.17-0.44-0.43-0.78-0.79-1.02C792.3,284.51,791.84,284.39,791.29,284.39z"/>
		<path class="st1" d="M803.94,290.36c0,0.62-0.15,1.13-0.46,1.55c-0.31,0.42-0.75,0.73-1.32,0.95c-0.57,0.21-1.25,0.32-2.04,0.32
			c-0.67,0-1.26-0.05-1.75-0.16s-0.92-0.25-1.29-0.45v-1.34c0.39,0.19,0.86,0.37,1.41,0.53s1.1,0.24,1.67,0.24
			c0.83,0,1.44-0.13,1.81-0.4s0.56-0.64,0.56-1.1c0-0.26-0.08-0.5-0.22-0.7c-0.15-0.2-0.4-0.4-0.75-0.59
			c-0.35-0.19-0.84-0.4-1.46-0.63c-0.62-0.23-1.15-0.47-1.6-0.7c-0.45-0.23-0.79-0.51-1.04-0.85s-0.36-0.77-0.36-1.3
			c0-0.81,0.33-1.44,0.99-1.88c0.66-0.44,1.52-0.65,2.6-0.65c0.58,0,1.12,0.06,1.63,0.17c0.51,0.11,0.98,0.27,1.42,0.46l-0.49,1.17
			c-0.4-0.17-0.82-0.31-1.27-0.43s-0.91-0.18-1.38-0.18c-0.67,0-1.19,0.11-1.55,0.33c-0.36,0.22-0.54,0.53-0.54,0.91
			c0,0.3,0.08,0.54,0.25,0.74c0.17,0.19,0.44,0.38,0.8,0.54s0.86,0.37,1.46,0.6c0.6,0.22,1.12,0.45,1.56,0.69
			c0.44,0.24,0.78,0.53,1.02,0.86C803.82,289.41,803.94,289.84,803.94,290.36z"/>
	</g>
</g>
<g>
	<g>
		<path class="st1" d="M479.47,146.62c1.14,0,2.01,0.28,2.59,0.84s0.88,1.46,0.88,2.69v6.28h-1.44v-6.18c0-0.8-0.18-1.4-0.55-1.8
			s-0.93-0.6-1.68-0.6c-1.07,0-1.82,0.3-2.25,0.91s-0.65,1.48-0.65,2.63v5.04h-1.46v-9.63h1.18l0.22,1.39h0.08
			c0.21-0.34,0.47-0.62,0.78-0.86s0.67-0.41,1.06-0.53S479.04,146.62,479.47,146.62z"/>
		<path class="st1" d="M494.25,151.59c0,0.79-0.1,1.5-0.31,2.12s-0.5,1.15-0.89,1.57s-0.85,0.75-1.4,0.98s-1.17,0.34-1.86,0.34
			c-0.64,0-1.24-0.11-1.77-0.34c-0.54-0.23-1-0.55-1.39-0.98c-0.39-0.43-0.69-0.95-0.91-1.57s-0.32-1.33-0.32-2.12
			c0-1.05,0.18-1.95,0.54-2.69s0.87-1.31,1.53-1.7c0.66-0.39,1.46-0.58,2.38-0.58c0.88,0,1.65,0.2,2.31,0.59
			c0.66,0.39,1.17,0.96,1.54,1.7C494.07,149.65,494.25,150.54,494.25,151.59z M486.92,151.59c0,0.77,0.1,1.44,0.31,2.01
			s0.52,1.01,0.95,1.32s0.98,0.47,1.65,0.47c0.67,0,1.22-0.16,1.65-0.47c0.43-0.31,0.75-0.75,0.95-1.32s0.31-1.24,0.31-2.01
			c0-0.77-0.1-1.43-0.31-1.99s-0.52-0.99-0.95-1.3s-0.98-0.46-1.66-0.46c-1,0-1.74,0.33-2.2,0.99
			C487.15,149.5,486.92,150.42,486.92,151.59z"/>
		<path class="st1" d="M509.4,146.79v9.63h-1.2l-0.21-1.35h-0.08c-0.2,0.33-0.46,0.62-0.77,0.84s-0.67,0.4-1.07,0.51
			c-0.4,0.11-0.82,0.17-1.26,0.17c-0.76,0-1.4-0.12-1.92-0.37s-0.9-0.63-1.16-1.14c-0.26-0.52-0.39-1.18-0.39-1.99v-6.31h1.48V153
			c0,0.8,0.18,1.4,0.54,1.8s0.92,0.59,1.66,0.59c0.71,0,1.28-0.13,1.71-0.4s0.73-0.67,0.92-1.19s0.28-1.17,0.28-1.93v-5.07H509.4z"
			/>
		<path class="st1" d="M518.72,153.79c0,0.62-0.15,1.13-0.46,1.55c-0.31,0.42-0.75,0.73-1.32,0.94c-0.57,0.21-1.25,0.32-2.04,0.32
			c-0.67,0-1.26-0.05-1.75-0.16s-0.92-0.25-1.29-0.45v-1.34c0.39,0.19,0.86,0.37,1.41,0.53s1.1,0.24,1.67,0.24
			c0.83,0,1.44-0.13,1.81-0.4s0.56-0.64,0.56-1.1c0-0.26-0.08-0.5-0.22-0.7c-0.15-0.2-0.4-0.4-0.75-0.59s-0.84-0.4-1.46-0.63
			c-0.62-0.23-1.15-0.47-1.6-0.7c-0.45-0.23-0.79-0.51-1.04-0.85s-0.36-0.77-0.36-1.3c0-0.81,0.33-1.44,0.99-1.88
			c0.66-0.44,1.52-0.66,2.6-0.66c0.58,0,1.12,0.06,1.63,0.17s0.98,0.27,1.42,0.46l-0.49,1.17c-0.4-0.17-0.82-0.31-1.27-0.43
			s-0.91-0.18-1.38-0.18c-0.67,0-1.19,0.11-1.55,0.33c-0.36,0.22-0.54,0.53-0.54,0.91c0,0.3,0.08,0.54,0.25,0.74
			c0.17,0.19,0.44,0.38,0.8,0.54s0.86,0.37,1.46,0.6c0.6,0.22,1.12,0.45,1.56,0.69s0.78,0.52,1.02,0.86
			C518.6,152.83,518.72,153.26,518.72,153.79z"/>
		<path class="st1" d="M524.78,146.62c0.82,0,1.52,0.18,2.11,0.54s1.03,0.87,1.34,1.53s0.47,1.42,0.47,2.29v0.91h-6.65
			c0.02,1.13,0.3,1.99,0.84,2.58s1.31,0.89,2.3,0.89c0.61,0,1.15-0.06,1.62-0.17s0.96-0.28,1.46-0.49v1.28
			c-0.49,0.22-0.97,0.38-1.45,0.47c-0.48,0.1-1.04,0.15-1.69,0.15c-0.93,0-1.73-0.19-2.42-0.57c-0.69-0.38-1.22-0.93-1.6-1.67
			s-0.57-1.63-0.57-2.69c0-1.04,0.17-1.93,0.52-2.69c0.35-0.76,0.84-1.34,1.48-1.75C523.17,146.82,523.92,146.62,524.78,146.62z
			 M524.76,147.81c-0.78,0-1.4,0.25-1.86,0.76s-0.74,1.22-0.83,2.14h5.1c-0.01-0.57-0.1-1.08-0.27-1.52s-0.43-0.78-0.79-1.02
			S525.31,147.81,524.76,147.81z"/>
		<path class="st1" d="M544.16,151.59c0,0.79-0.1,1.5-0.31,2.12s-0.5,1.15-0.89,1.57s-0.85,0.75-1.4,0.98s-1.17,0.34-1.86,0.34
			c-0.64,0-1.24-0.11-1.77-0.34c-0.54-0.23-1-0.55-1.39-0.98c-0.39-0.43-0.69-0.95-0.91-1.57s-0.32-1.33-0.32-2.12
			c0-1.05,0.18-1.95,0.54-2.69s0.87-1.31,1.53-1.7c0.66-0.39,1.46-0.58,2.38-0.58c0.88,0,1.65,0.2,2.31,0.59
			c0.66,0.39,1.17,0.96,1.54,1.7C543.97,149.65,544.16,150.54,544.16,151.59z M536.83,151.59c0,0.77,0.1,1.44,0.31,2.01
			s0.52,1.01,0.95,1.32s0.98,0.47,1.65,0.47c0.67,0,1.22-0.16,1.65-0.47c0.43-0.31,0.75-0.75,0.95-1.32s0.31-1.24,0.31-2.01
			c0-0.77-0.1-1.43-0.31-1.99s-0.52-0.99-0.95-1.3s-0.98-0.46-1.66-0.46c-1,0-1.74,0.33-2.2,0.99
			C537.06,149.5,536.83,150.42,536.83,151.59z"/>
		<path class="st1" d="M550.97,147.94h-2.4v8.49h-1.46v-8.49h-1.71v-0.7l1.71-0.48v-0.64c0-0.81,0.12-1.47,0.36-1.97
			s0.59-0.88,1.05-1.12s1.01-0.36,1.67-0.36c0.37,0,0.71,0.03,1.02,0.1c0.31,0.06,0.58,0.14,0.81,0.22l-0.38,1.15
			c-0.2-0.06-0.42-0.12-0.67-0.18s-0.5-0.08-0.76-0.08c-0.56,0-0.97,0.18-1.23,0.54c-0.27,0.36-0.4,0.92-0.4,1.69v0.7h2.4V147.94z"
			/>
		<path class="st1" d="M561.01,146.63c1.15,0,2,0.26,2.56,0.77s0.83,1.34,0.83,2.47v6.55h-1.06l-0.28-1.42h-0.07
			c-0.27,0.35-0.55,0.65-0.84,0.88s-0.63,0.42-1.02,0.54s-0.85,0.18-1.41,0.18c-0.59,0-1.11-0.1-1.56-0.31s-0.81-0.52-1.07-0.93
			s-0.39-0.94-0.39-1.58c0-0.96,0.38-1.7,1.14-2.21s1.92-0.8,3.48-0.84l1.66-0.07v-0.59c0-0.83-0.18-1.42-0.54-1.75
			s-0.86-0.5-1.51-0.5c-0.5,0-0.98,0.07-1.44,0.22s-0.89,0.32-1.3,0.52l-0.45-1.11c0.43-0.22,0.93-0.41,1.49-0.57
			S560.39,146.63,561.01,146.63z M562.96,151.68l-1.47,0.06c-1.2,0.05-2.05,0.24-2.54,0.59s-0.74,0.83-0.74,1.47
			c0,0.55,0.17,0.96,0.5,1.22s0.78,0.4,1.33,0.4c0.86,0,1.56-0.24,2.1-0.71s0.82-1.19,0.82-2.14V151.68z"/>
		<path class="st1" d="M571.97,146.62c1.14,0,2.01,0.28,2.59,0.84s0.88,1.46,0.88,2.69v6.28H574v-6.18c0-0.8-0.18-1.4-0.55-1.8
			s-0.93-0.6-1.68-0.6c-1.07,0-1.82,0.3-2.25,0.91s-0.65,1.48-0.65,2.63v5.04h-1.46v-9.63h1.18l0.22,1.39h0.08
			c0.21-0.34,0.47-0.62,0.78-0.86s0.67-0.41,1.06-0.53S571.54,146.62,571.97,146.62z"/>
		<path class="st1" d="M576.93,146.79h1.56l2.13,5.59c0.12,0.33,0.24,0.64,0.34,0.95s0.2,0.59,0.28,0.87s0.15,0.54,0.19,0.8h0.06
			c0.08-0.29,0.2-0.68,0.35-1.16s0.32-0.97,0.49-1.46l2.01-5.58h1.57l-4.19,11.05c-0.22,0.59-0.48,1.11-0.78,1.55
			s-0.65,0.78-1.08,1.02s-0.93,0.36-1.53,0.36c-0.28,0-0.52-0.02-0.73-0.05s-0.39-0.07-0.54-0.11v-1.17
			c0.13,0.03,0.29,0.06,0.47,0.08c0.19,0.02,0.38,0.04,0.58,0.04c0.36,0,0.68-0.07,0.95-0.21c0.27-0.14,0.5-0.34,0.69-0.6
			s0.36-0.58,0.5-0.94l0.53-1.35L576.93,146.79z"/>
		<path class="st1" d="M482.75,178.41l-1.71-5.61c-0.08-0.24-0.15-0.48-0.21-0.71c-0.07-0.23-0.13-0.45-0.19-0.67
			s-0.11-0.41-0.15-0.6c-0.04-0.18-0.08-0.34-0.11-0.48h-0.06c-0.02,0.13-0.06,0.29-0.1,0.48s-0.09,0.38-0.15,0.6
			s-0.12,0.44-0.18,0.68s-0.14,0.48-0.22,0.72l-1.79,5.58h-1.64l-2.65-9.63h1.51l1.39,5.32c0.09,0.35,0.18,0.7,0.27,1.04
			s0.16,0.67,0.22,0.97c0.06,0.3,0.11,0.56,0.14,0.79h0.07c0.04-0.15,0.08-0.32,0.12-0.53c0.04-0.21,0.09-0.42,0.15-0.65
			c0.05-0.23,0.12-0.46,0.18-0.69s0.13-0.45,0.19-0.66l1.78-5.58h1.57l1.71,5.57c0.09,0.28,0.17,0.57,0.26,0.88
			c0.08,0.3,0.16,0.6,0.23,0.88s0.12,0.54,0.15,0.76h0.07c0.02-0.2,0.07-0.45,0.13-0.74s0.14-0.62,0.22-0.97
			c0.08-0.35,0.17-0.71,0.27-1.07l1.41-5.32h1.49l-2.66,9.63H482.75z"/>
		<path class="st1" d="M490.31,164.75v4.09c0,0.23-0.01,0.47-0.02,0.71s-0.03,0.46-0.06,0.65h0.1c0.2-0.34,0.45-0.62,0.76-0.86
			c0.31-0.23,0.66-0.41,1.05-0.53s0.81-0.18,1.25-0.18c0.77,0,1.42,0.12,1.94,0.37c0.52,0.25,0.91,0.63,1.17,1.14s0.39,1.18,0.39,2
			v6.28h-1.44v-6.18c0-0.8-0.18-1.4-0.55-1.8s-0.93-0.6-1.68-0.6c-0.71,0-1.29,0.14-1.71,0.41s-0.73,0.67-0.91,1.2
			c-0.18,0.53-0.28,1.17-0.28,1.93v5.04h-1.46v-13.68H490.31z"/>
		<path class="st1" d="M500.64,165.19c0.24,0,0.45,0.08,0.62,0.23s0.26,0.4,0.26,0.72c0,0.32-0.09,0.56-0.26,0.72
			s-0.38,0.24-0.62,0.24c-0.25,0-0.46-0.08-0.63-0.24c-0.17-0.16-0.25-0.4-0.25-0.72c0-0.33,0.08-0.57,0.25-0.72
			C500.18,165.27,500.39,165.19,500.64,165.19z M501.35,168.79v9.63h-1.46v-9.63H501.35z"/>
		<path class="st1" d="M507.55,177.41c0.24,0,0.49-0.02,0.74-0.06s0.46-0.09,0.62-0.15v1.13c-0.17,0.08-0.41,0.14-0.71,0.19
			s-0.6,0.08-0.88,0.08c-0.51,0-0.97-0.09-1.39-0.27s-0.75-0.48-1-0.91s-0.37-1.02-0.37-1.78v-5.71h-1.37v-0.71l1.38-0.57l0.58-2.09
			h0.88v2.23h2.82v1.14h-2.82v5.67c0,0.6,0.14,1.05,0.42,1.35S507.09,177.41,507.55,177.41z"/>
		<path class="st1" d="M514.56,168.62c0.82,0,1.52,0.18,2.11,0.54s1.03,0.87,1.34,1.53s0.47,1.42,0.47,2.29v0.91h-6.65
			c0.02,1.13,0.3,1.99,0.84,2.58s1.31,0.89,2.3,0.89c0.61,0,1.15-0.06,1.62-0.17s0.96-0.28,1.46-0.49v1.28
			c-0.49,0.22-0.97,0.38-1.45,0.47c-0.48,0.1-1.04,0.15-1.69,0.15c-0.93,0-1.73-0.19-2.42-0.57c-0.69-0.38-1.22-0.93-1.6-1.67
			s-0.57-1.63-0.57-2.69c0-1.04,0.17-1.93,0.52-2.69c0.35-0.76,0.84-1.34,1.48-1.75C512.95,168.82,513.7,168.62,514.56,168.62z
			 M514.55,169.81c-0.78,0-1.4,0.25-1.86,0.76s-0.74,1.22-0.83,2.14h5.1c-0.01-0.57-0.1-1.08-0.27-1.52s-0.43-0.78-0.79-1.02
			S515.1,169.81,514.55,169.81z"/>
		<path class="st1" d="M530.16,168.62c1.2,0,2.16,0.41,2.87,1.24s1.07,2.07,1.07,3.73c0,1.1-0.16,2.02-0.49,2.76
			s-0.79,1.31-1.38,1.69c-0.6,0.38-1.3,0.57-2.11,0.57c-0.51,0-0.96-0.07-1.34-0.2s-0.72-0.32-0.99-0.54s-0.5-0.48-0.69-0.75H527
			c0.02,0.23,0.04,0.5,0.07,0.83c0.03,0.32,0.04,0.6,0.04,0.84v3.96h-1.47v-13.94h1.2l0.19,1.42h0.07c0.19-0.29,0.42-0.56,0.69-0.8
			s0.6-0.44,0.99-0.58S529.63,168.62,530.16,168.62z M529.91,169.85c-0.67,0-1.21,0.13-1.61,0.39c-0.41,0.26-0.71,0.64-0.89,1.16
			s-0.29,1.16-0.3,1.93v0.28c0,0.81,0.09,1.5,0.27,2.07s0.47,0.99,0.89,1.28c0.41,0.29,0.97,0.44,1.67,0.44
			c0.6,0,1.1-0.16,1.49-0.48s0.7-0.77,0.89-1.35s0.29-1.24,0.29-1.99c0-1.14-0.22-2.04-0.66-2.71S530.82,169.85,529.91,169.85z"/>
		<path class="st1" d="M537.4,165.19c0.24,0,0.45,0.08,0.62,0.23s0.26,0.4,0.26,0.72c0,0.32-0.09,0.56-0.26,0.72
			s-0.38,0.24-0.62,0.24c-0.25,0-0.46-0.08-0.63-0.24c-0.17-0.16-0.25-0.4-0.25-0.72c0-0.33,0.08-0.57,0.25-0.72
			C536.94,165.27,537.15,165.19,537.4,165.19z M538.11,168.79v9.63h-1.46v-9.63H538.11z"/>
		<path class="st1" d="M543.49,173.49l-3.33-4.7h1.67l2.54,3.71l2.53-3.71h1.65l-3.33,4.7l3.52,4.93h-1.67l-2.7-3.93l-2.72,3.93H540
			L543.49,173.49z"/>
		<path class="st1" d="M554.33,168.62c0.82,0,1.52,0.18,2.11,0.54s1.03,0.87,1.34,1.53s0.47,1.42,0.47,2.29v0.91h-6.65
			c0.02,1.13,0.3,1.99,0.84,2.58s1.31,0.89,2.3,0.89c0.61,0,1.15-0.06,1.62-0.17s0.96-0.28,1.46-0.49v1.28
			c-0.49,0.22-0.97,0.38-1.45,0.47c-0.48,0.1-1.04,0.15-1.69,0.15c-0.93,0-1.73-0.19-2.42-0.57c-0.69-0.38-1.22-0.93-1.6-1.67
			s-0.57-1.63-0.57-2.69c0-1.04,0.17-1.93,0.52-2.69c0.35-0.76,0.84-1.34,1.48-1.75C552.71,168.82,553.46,168.62,554.33,168.62z
			 M554.31,169.81c-0.78,0-1.4,0.25-1.86,0.76s-0.74,1.22-0.83,2.14h5.1c-0.01-0.57-0.1-1.08-0.27-1.52s-0.43-0.78-0.79-1.02
			S554.86,169.81,554.31,169.81z"/>
		<path class="st1" d="M562.19,178.43h-1.47v-13.68h1.47V178.43z"/>
		<path class="st1" d="M571.5,175.79c0,0.62-0.15,1.13-0.46,1.55c-0.31,0.42-0.75,0.73-1.32,0.94c-0.57,0.21-1.25,0.32-2.04,0.32
			c-0.67,0-1.26-0.05-1.75-0.16s-0.92-0.25-1.29-0.45v-1.34c0.39,0.19,0.86,0.37,1.41,0.53s1.1,0.24,1.67,0.24
			c0.83,0,1.44-0.13,1.81-0.4s0.56-0.64,0.56-1.1c0-0.26-0.08-0.5-0.22-0.7c-0.15-0.2-0.4-0.4-0.75-0.59s-0.84-0.4-1.46-0.63
			c-0.62-0.23-1.15-0.47-1.6-0.7c-0.45-0.23-0.79-0.51-1.04-0.85s-0.36-0.77-0.36-1.3c0-0.81,0.33-1.44,0.99-1.88
			c0.66-0.44,1.52-0.66,2.6-0.66c0.58,0,1.12,0.06,1.63,0.17s0.98,0.27,1.42,0.46l-0.49,1.17c-0.4-0.17-0.82-0.31-1.27-0.43
			s-0.91-0.18-1.38-0.18c-0.67,0-1.19,0.11-1.55,0.33c-0.36,0.22-0.54,0.53-0.54,0.91c0,0.3,0.08,0.54,0.25,0.74
			c0.17,0.19,0.44,0.38,0.8,0.54s0.86,0.37,1.46,0.6c0.6,0.22,1.12,0.45,1.56,0.69s0.78,0.52,1.02,0.86
			C571.38,174.83,571.5,175.26,571.5,175.79z"/>
	</g>
</g>
<path class="st1" d="M439.34,446.67c-0.96-2.6-1.85-5.23-2.89-7.81c-1.11-2.76-2.3-5.5-3.57-8.18c-1.96-4.12-4.06-8.17-6.02-12.29
	c-2.02-4.24-4.04-8.48-5.9-12.78c-3-6.92-5.68-13.98-8.85-20.82c-2.19-4.73-4.93-9.2-7.54-13.73c-0.85-1.48-2.1-2.72-3.1-4.12
	c-1.92-2.69-3.75-5.44-5.67-8.12c-1.46-2.04-3.01-4.02-4.53-6.01c-4.33-5.68-8.57-11.43-13.01-17.02
	c-5.23-6.57-10.79-12.86-16.74-18.8c-1.59-1.59-3.02-3.33-4.56-4.97c-0.63-0.67-1.26-1.46-2.06-1.82c-0.99-0.45-1.3-0.99-1.11-1.98
	c0.38-2.01,0.61-4.06,1.13-6.03c0.62-2.31,0.76-4.62,0-6.85c-0.87-2.56-1.93-5.06-3.05-7.52c-0.61-1.35-1.78-2.28-3.09-2.99
	c-0.73-0.4-1.41-0.53-1.86,0.31c-0.38,0.7-0.96,0.91-1.65,0.83c-0.99-0.11-1.56,0.5-2.24,1.05c-0.96,0.78-1.97,1.52-3.04,2.14
	c-1.3,0.74-1.68,1.98-2.02,3.25c-0.69,2.54-0.44,5.13-0.29,7.7c0.12,2.05,0.15,4.1,0.31,6.14c0.23,2.93-1.05,5.44-2.3,7.9
	c-0.46,0.9-1.55,1.64-2.52,2.09c-1.95,0.89-4.09,1.09-6.23,0.9c-2.36-0.21-4.23-1.43-5.27-3.46c-2.66-5.2-6.48-9.5-10.31-13.81
	c-3.33-3.75-5.46-8.28-8.22-12.4c-2.77-4.13-3.42-8.83-4.1-13.56c-0.51-3.55-2.36-6.5-4.34-9.45c-0.7,2.38-0.93,4.76-0.63,7.19
	c0.1,0.82,0.59,1.79-0.65,2.14c-1.19,0.34-2.1,0.15-2.75-1.19c-1.24-2.56-2.67-5.02-4.07-7.49c-0.27-0.48-0.71-0.86-1.29-1.54
	c-0.25,2.26,0.62,3.86,1.13,5.54c0.5,1.64,1.03,3.27,1.54,4.89c-1.78,0.84-2.57,0.81-3.71-0.49c-1.09-1.24-2-2.63-3-3.95
	c-0.79-1.04-1.5-2.16-2.8-2.85c-0.8,1.19-0.48,2.32,0.14,3.21c1.02,1.45,2.2,2.8,3.42,4.09c0.9,0.95,1.97,1.73,3.11,2.7
	c-1.61,0.77-2.95,0.78-4.3-0.02c-1.25-0.75-2.49-1.52-3.78-2.19c-0.61-0.31-1.32-0.41-2-0.61c-0.58,2.33,0.63,4.53,2.98,5.48
	c0.97,0.39,2.05,0.51,3.06,0.82c0.71,0.21,1.4,0.53,2.1,0.8c0.01,0.16,0.03,0.32,0.04,0.48c-0.58,0.34-1.13,0.77-1.75,1
	c-0.99,0.37-2.03,0.6-3.05,0.91c-0.5,0.16-1.01,0.34-1.47,0.59c-0.63,0.33-1.05,0.82-0.83,1.61c0.21,0.74,1.06,1.31,1.85,1.18
	c0.45-0.07,0.88-0.29,1.32-0.42c2.05-0.57,4.09-1.06,6.26-0.93c2.29,0.13,4.13,1.02,5.29,3c1.31,2.22,2.58,4.47,3.72,6.78
	c2.14,4.34,3.96,8.8,5.48,13.41c3.12,9.49,6.4,18.93,9.56,28.41c0.99,2.98,2.5,5.7,4.07,8.37c1.07,1.81,2.22,3.6,3.51,5.25
	c0.75,0.96,1.75,1.86,2.84,2.42c2.47,1.26,5.06,2.28,7.59,3.42c2.9,1.3,5.69,2.74,8.22,4.75c4.97,3.97,8.47,9.06,11.64,14.45
	c4.36,7.43,8.27,15.11,11.12,23.25c2,5.74,3.48,11.66,5.11,17.53c1.3,4.66,2.43,9.36,3.7,14.02c2.97,10.85,5.98,21.7,8.97,32.55
	c0.3,1.08,0.49,2.19,0.74,3.29c-2.28,0.72-4.55,1.44-6.83,2.16c-0.85-2.57-1.76-5.13-2.55-7.72c-3.14-10.39-6.2-20.81-9.36-31.19
	c-2.68-8.8-5.12-17.7-8.29-26.32c-2.34-6.37-5.54-12.45-8.66-18.5c-2.36-4.58-4.93-9.09-7.86-13.33
	c-3.84-5.56-8.58-10.19-15.17-12.6c-2.46-0.9-4.76-2.31-7.04-3.66c-1.93-1.14-3.18-3.07-4.18-4.96c-2.1-3.97-4.48-7.81-5.87-12.13
	c-1.88-5.86-3.9-11.68-5.78-17.55c-2.38-7.44-4.62-14.92-7.03-22.35c-0.88-2.7-2.04-5.32-3.17-7.93c-0.44-1.01-1.17-1.89-1.57-2.52
	c-2.77,0.25-5.19,0.62-7.61,0.61c-1.25-0.01-2.63-0.48-3.72-1.13c-1.67-1-1.6-2.61,0.09-3.58c1.07-0.62,2.31-0.95,3.49-1.38
	c0.61-0.23,1.24-0.4,1.92-0.88c-0.91-0.22-1.81-0.45-2.73-0.65c-2.25-0.51-3.99-1.72-5.11-3.77c-1.14-2.11-0.6-3.44,1.73-3.95
	c1.28-0.28,2.6-0.33,4.09-0.51c-0.26-0.47-0.47-0.84-0.67-1.22c-0.37-0.7-0.84-1.37-1.08-2.11c-0.64-1.91-0.02-3.15,1.93-3.6
	c1.27-0.29,2.62-0.25,3.94-0.31c0.45-0.02,0.91,0.12,1.67,0.23c-0.11-0.74-0.21-1.34-0.29-1.95c-0.19-1.39,0.08-1.8,1.46-2.05
	c2.79-0.51,5.3-0.16,7.07,2.37c0.19,0.27,0.44,0.49,0.87,0.97c0.15-0.73,0.27-1.25,0.38-1.78c0.35-1.73,0.71-2.04,2.47-2.31
	c2.42-0.37,4.19,0.44,5.55,2.55c2.56,3.97,4.37,8.12,4.58,12.94c0.16,3.54,1.27,6.88,2.91,10.04c1.26,2.41,2.4,4.87,3.58,7.32
	c1.73,3.59,4.34,6.47,7.25,9.12c2.96,2.69,5.64,5.58,7.38,9.25c1.07,2.24,1.74,2.76,3.55,3.53c1-0.55,0.84-1.56,0.94-2.45
	c0.43-3.78,0-7.53-0.44-11.28c-0.2-1.71-0.34-3.43-0.57-5.13c-0.48-3.59,0.75-6.5,3.45-8.84c1.77-1.54,3.7-2.82,6-3.38
	c3.21-0.79,6.43-1.56,9.67-2.2c2.48-0.49,4.98-0.46,7.5,0.07c3.18,0.66,5.39,2.44,6.69,5.35c1.59,3.55,2.35,7.31,2.38,11.19
	c0.02,2.36-0.8,4.55-1.63,6.72c-0.3,0.77-0.48,1.59-0.78,2.58c3.11,0.44,5,2.44,7.01,4.25c4.18,3.77,8.44,7.44,12.5,11.33
	c4.62,4.43,9.07,9.02,12.72,14.35c2.65,3.87,5.69,7.46,8.47,11.24c2.7,3.67,5.35,7.39,7.91,11.16c2.04,3.01,3.97,6.1,5.81,9.23
	c3.16,5.36,6.04,10.86,8.34,16.66c2.63,6.64,5.29,13.27,8.06,19.86c1.3,3.11,2.94,6.07,4.32,9.15c0.94,2.11,1.69,4.31,2.54,6.46
	c2.06,5.23,4.14,10.46,6.19,15.7c0.74,1.91,1.42,3.84,2.1,5.77c0.08,0.23,0.01,0.52,0,0.78
	C444.9,444.91,442.12,445.79,439.34,446.67z"/>
<path class="st1" d="M32.34,367.65c0.61-0.58,1.28-1.11,1.81-1.75c2.22-2.69,4.4-5.43,6.6-8.14c0.69-0.85,1.39-1.7,2.15-2.49
	c4.51-4.7,7.77-10.24,10.64-16.01c2.33-4.68,5.16-9.01,8.65-12.88c1.42-1.58,3.17-2.88,4.81-4.25c0.96-0.8,2-1.49,3.01-2.23
	c1.55-1.13,2.39-2.79,3.22-4.44c0.76-1.49,0.86-1.56,2.54-1.43c0.35,0.03,0.69,0.12,1.03,0.16c1.04,0.13,1.5,0.75,1.75,1.75
	c0.55,2.22,1.09,4.46,1.88,6.61c1.4,3.81,3.24,7.41,6.1,10.38c2.37,2.46,5.17,4.38,8.05,6.18c1.46,0.91,3.07,0.73,4.65,0.32
	c2.45-0.64,4.62-1.83,6.72-3.21c3.85-2.54,6.88-5.93,9.67-9.52c3.92-5.04,7.65-10.23,11.45-15.36c2.58-3.49,5.14-7,8.2-10.11
	c2.64-2.68,5.44-5.14,8.74-6.98c0.3-0.17,0.58-0.37,0.98-0.63c-0.48-0.62-0.39-1.1,0.27-1.57c1.01-0.72,1.97-1.52,2.89-2.37
	c0.62-0.57,1.17-1.18,1-2.2c-0.06-0.34,0.42-0.84,0.75-1.16c0.57-0.55,1.28-0.96,1.83-1.53c0.41-0.43,0.65-1.03,0.96-1.55
	c-0.08-0.07-0.17-0.13-0.25-0.2c-0.41,0.25-0.87,0.44-1.21,0.76c-0.98,0.93-2.06,0.84-3.19,0.4c-0.41-0.16-0.8-0.37-1.38-0.66
	c1.53-1.92,3.74-3.07,4.85-5.17c-0.07-0.08-0.15-0.15-0.22-0.23c-0.65,0.58-1.31,1.15-1.93,1.76c-1.57,1.56-2.27,1.62-4.43,0.25
	c0.37-0.51,0.69-1.06,1.12-1.5c1.15-1.18,2.38-2.28,3.52-3.46c0.61-0.63,1.26-1.29,1.07-2.52c-0.66,0.19-1.27,0.32-1.84,0.55
	c-3.2,1.26-5.98,3.19-8.51,5.5c-6.14,5.59-11.77,11.66-17.06,18.05c-2.96,3.58-6.06,7.03-9.75,9.9c-5.54,4.31-11.76,5.43-18.52,3.93
	c-1.6-0.36-3.18-0.86-4.74-1.38c-2.05-0.68-3.46-2.08-4.32-4.08c-1.5-3.48-2.26-7.11-2.6-10.87c-0.28-3.1-0.53-6.17,0.29-9.22
	c0.3-1.1,0.62-2.21,1.06-3.26c0.26-0.62,0.74-1.17,1.19-1.7c0.59-0.7,1.26-1.34,2.03-2.14c-0.08,0,0.08-0.05,0.2,0.01
	c1.43,0.73,2.55,0.21,3.64-0.78c1.51-1.36,2.43-3.04,2.83-4.98c1.06-5.07,1.22-10.2,0.65-15.33c-0.44-3.93-2.21-7.23-5.4-9.65
	c-1.15-0.87-2.4-1.59-3.61-2.39c-0.77-0.51-1.47-0.38-2.21,0.12c-2.34,1.58-3.97,3.75-5.21,6.24c-0.46,0.94-0.91,1.88-1.36,2.82
	c-0.08,0.17-0.19,0.37-0.17,0.55c0.35,2.9-0.94,5.37-2.12,7.84c-3.08,6.45-6.78,12.55-10.83,18.43c-2.44,3.53-5.24,6.79-8.22,9.88
	c-4.29,4.45-8.59,8.89-12.83,13.4c-2.53,2.69-4.91,5.5-7.4,8.23c-0.94,1.03-1.98,1.97-2.99,2.94c-0.13,0.13-0.36,0.15-0.54,0.23
	c0-2.5,0-4.99,0-7.49c0.28-0.19,0.62-0.33,0.83-0.57c5.8-6.45,11.67-12.84,17.36-19.39c3.14-3.61,6.08-7.4,8.91-11.25
	c2.98-4.06,5.78-8.24,8.54-12.46c1.96-3.01,3.65-6.18,4.92-9.56c0.34-0.89,0.73-1.74,1.79-2.08c-0.45-3.01,0.92-5.27,2.81-7.32
	c1.34-1.46,3.02-2.22,4.99-2.42c5.77-0.58,10.66,1.36,15.03,5.02c2.82,2.36,4.12,5.48,4.63,8.95c0.77,5.3,0.34,10.59-0.99,15.73
	c-1.26,4.83-4.23,6.73-9.36,7.06c-0.7,0.04-1.4,0.01-2.16,0.01c-0.05,0.18-0.15,0.36-0.16,0.54c-0.15,2.33-0.33,4.67-0.43,7
	c-0.22,5.28-0.45,10.58,0.88,15.77c0.27,1.06,0.67,2.09,1.07,3.11c0.53,1.38,1.55,2.22,2.93,2.8c4.77,2,9.11,0.78,13.24-1.72
	c2.87-1.74,5.34-4.03,7.65-6.45c4.17-4.37,8.25-8.82,12.41-13.19c3.64-3.84,7.41-7.55,11.51-10.91c2.46-2.01,5.22-3.49,8.18-4.61
	c1.61-0.61,3.23-0.56,4.84-0.02c1.29,0.43,1.6,0.92,1.29,2.25c-0.17,0.72-0.52,1.39-0.81,2.12c0.15,0.09,0.32,0.19,0.49,0.27
	c1.47,0.68,1.66,1.15,1.01,2.67c-0.19,0.45-0.42,0.89-0.69,1.46c0.68,0.25,1.32,0.46,1.94,0.73c1.22,0.54,1.57,1.22,1.31,2.5
	c-0.3,1.41-0.97,2.62-2.09,3.54c-0.56,0.46-0.94,0.91-0.95,1.74c-0.01,0.59-0.34,1.29-0.75,1.73c-1.03,1.08-2.07,2.23-3.32,2.99
	c-4.63,2.81-8.53,6.43-11.82,10.67c-3.59,4.6-6.95,9.37-10.46,14.04c-3.36,4.46-6.55,9.05-10.41,13.13
	c-2.67,2.81-5.63,5.21-9.01,7.09c-3.83,2.13-7.9,2.55-12.18,1.93c-2.95-0.42-5.55-1.54-7.86-3.4c-0.85-0.69-1.74-1.33-2.63-1.98
	c-3.05-2.23-5.36-5.06-6.9-8.5c-0.71-1.59-1.29-3.24-1.92-4.87c-0.2-0.5-0.37-1.01-0.6-1.63c-3.37,2.72-6.84,5.14-9.49,8.53
	c-3.28,4.18-6.1,8.61-8.57,13.31c-2.53,4.82-5.65,9.25-9.41,13.26c-3.14,3.34-5.98,6.96-8.95,10.46c-0.03,0.04-0.06,0.08-0.09,0.12
	c-1.65,2.15-3.73,3.26-6.5,2.65C32.34,368.44,32.34,368.04,32.34,367.65z"/>
<path class="st1" d="M196.89,259.76c-0.52,0.28-0.76,0.5-1.04,0.55c-2.54,0.44-3.55-0.04-3.53-2.35c0.02-2.24,0.1-4.49,0.2-6.73
	c0.15-3.39,0.21-6.78,0.53-10.16c0.46-5.02,1.22-10.01,2.78-14.82c1.34-4.15,3.31-8.02,5.82-11.57c2.15-3.04,4.42-6.03,6.9-8.81
	c4.45-4.99,9.37-9.5,15.05-13.09c2.7-1.7,5.61-2.93,8.76-3.67c4.34-1.01,8.69-1.8,13.17-1.49c5.83,0.41,11.29,2.05,16.26,5.12
	c2.3,1.41,4.31,3.25,5.94,5.42c1.64,2.19,3.3,4.38,4.74,6.71c1.15,1.86,1.64,4.02,2.09,6.18c1.1,5.27,0.23,10.42-1.08,15.48
	c-1.11,4.28-2.86,8.37-5.27,12.12c-2.48,3.87-5.55,7.16-9.62,9.4c-3.32,1.83-6,4.44-8.73,6.98c-1.64,1.52-3.12,3.2-4.71,4.77
	c-0.29,0.29-0.77,0.56-1.16,0.56c-3.12-0.01-6-0.84-8.54-2.71c-0.11-0.08-0.16-0.24-0.25-0.38c0.25-1.99,1.66-3.25,2.96-4.52
	c2.31-2.25,4.68-4.43,7.11-6.55c1.23-1.07,2.6-2,3.98-2.89c2.59-1.67,4.64-3.85,6.48-6.31c1.85-2.48,2.94-5.28,3.96-8.14
	c0.68-1.91,1.44-3.83,1.82-5.81c0.95-4.83,1.73-9.66,1.21-14.66c-0.5-4.82-2.49-8.87-5.39-12.58c-0.76-0.98-1.61-1.9-2.51-2.75
	c-0.4-0.38-1.01-0.61-1.57-0.74c-2.68-0.62-5.38-0.23-8.04,0.09c-2.36,0.29-4.7,0.85-6.99,1.49c-3.2,0.89-6.04,2.57-8.79,4.38
	c-3.67,2.41-7.08,5.17-10.35,8.08c-2.87,2.55-5.45,5.39-7.85,8.39c-2.44,3.04-4.56,6.29-6.38,9.73c-1.52,2.88-2.59,5.95-3.26,9.13
	c-1.15,5.46-2.13,10.96-3.25,16.42c-0.55,2.69-1.27,5.34-1.92,8C196.26,258.62,195.96,259.25,196.89,259.76z"/>
<path class="st1" d="M215.72,161.31c-0.67,0.6-1.38,0.77-2.13,0.78c-2.81,0.07-5.5,0.79-8.14,1.62c-1.43,0.45-2.73,1.3-4.07,2
	c-2.7,1.4-5.12,3.19-7.47,5.1c-1.78,1.45-3.63,2.82-5.3,4.4c-2.01,1.9-3.89,3.94-5.78,5.96c-2.29,2.44-4.21,5.18-5.91,8.05
	c-1.81,3.06-3.3,6.27-4.62,9.58c-1.45,3.65-2.17,7.46-2.87,11.3c-1.03,5.64-1.48,11.34-1.61,17.06c-0.1,4.42-0.09,8.84-0.26,13.26
	c-0.09,2.42-0.36,4.84-0.7,7.24c-0.19,1.32-0.49,1.46-1.83,1.57c-0.6,0.05-1.21,0.03-1.82,0.03c-0.81,0-1.31-0.41-1.5-1.18
	c-0.27-1.14-0.62-2.27-0.76-3.43c-0.58-4.56-1.23-9.11-1.6-13.69c-0.47-5.7-0.54-11.44,0.1-17.13c0.36-3.22,0.99-6.42,1.55-9.62
	c0.92-5.26,3.1-10.07,5.52-14.77c1.51-2.93,3.36-5.64,5.26-8.34c2.11-2.99,4.5-5.72,6.98-8.38c1.32-1.43,2.8-2.72,4.27-3.99
	c2.1-1.8,4.2-3.62,6.42-5.26c2.26-1.67,4.71-3.05,7.41-3.98c2.27-0.78,4.58-1.4,6.97-1.48c3.37-0.11,6.68,0.29,9.79,1.69
	C214.4,160.05,215.23,160.37,215.72,161.31z"/>
<path class="st1" d="M344.79,301c-1.09-0.09-2.49-0.76-3.68-1.86c-0.78-0.73-0.72-1.96,0.02-3.24c0.58-1.01,1.19-1.36,2.32-1
	c1.15,0.37,2.29,0.87,3.34,1.48c1.35,0.79,1.66,1.79,1.21,3.11C347.61,300.6,346.89,301.01,344.79,301z"/>
<path class="st1" d="M91.86,265.72c-0.03,0.54-0.03,0.89-0.07,1.24c-0.21,1.6-1,2.36-2.62,2.13c-1.31-0.18-2.65-0.52-3.83-1.09
	c-1.64-0.78-2.01-3.97-0.69-5.22c0.35-0.33,0.98-0.56,1.47-0.53c1.65,0.08,3.23,0.52,4.72,1.27
	C91.88,264.03,92.04,264.89,91.86,265.72z"/>
</svg>
