<?xml version="1.0" encoding="utf-8"?>
<!-- Generator: Adobe Illustrator 25.2.1, SVG Export Plug-In . SVG Version: 6.00 Build 0)  -->
<svg version="1.1" id="Layer_1" xmlns="http://www.w3.org/2000/svg" xmlns:xlink="http://www.w3.org/1999/xlink" x="0px" y="0px"
	 viewBox="0 0 1048 547.85" style="enable-background:new 0 0 1048 547.85;" xml:space="preserve">
<style type="text/css">
	.st0{fill:#283B00;}
	.st1{fill:#D1E9C5;}
	.st2{fill:#FFF7B1;}
	.st3{fill:#FF5902;}
</style>
<path class="st0" d="M808.03,280.21c-33.46,4.11-62.39,7.38-91.75,4.93c-21.63-1.8-43.43-1.41-65.07-3.14
	c-22.8-1.82-44.75-7.42-64.5-19.7c-21.16-13.15-32.78-32.7-37.42-56.68c-3.32-17.17-2.01-34.31,2.23-51.16
	c4.63-18.38,16.16-30.42,34.04-36.97c22.2-8.13,45.13-8.48,68.2-7.21c10.65,0.59,21.42,1.71,31.81,4.05
	c30.65,6.89,61.7,7.14,92.86,7.42c29.33,0.26,58.19-3.98,87.19-7.31c21.27-2.45,42.41-3.99,63.68,2.1
	c22.04,6.31,32.11,21.75,36.08,42.56c0.94,4.91,0.7,10.66-0.94,15.34c-5.18,14.78-12.47,28.48-23.86,39.68
	c-28.17,27.68-61.53,46.17-99.44,56.72C828.65,274.31,816.2,277.9,808.03,280.21z"/>
<path class="st0" d="M545.17,292.75c-2.47,4.89-3.9,10.15-7.17,13.77c-10.39,11.5-23.44,19.26-38.17,24.04
	c-7.53,2.44-13.99-0.34-19.84-4.95c-2.83-2.23-3.45-5.04-2.52-8.64c4.66-18.03,16.88-28.32,34.03-33.52c4.3-1.31,8.8-2,13.24-2.83
	c5.85-1.09,10.96,1,15.29,4.61C542.05,286.91,543.14,289.69,545.17,292.75z"/>
<path class="st0" d="M471.08,384.3c4.27-3.09,12.6-1.03,16.68,3.78c3.77,4.44,2.97,10.18,2.57,13.78
	c-1.68,14.95-12.14,22.23-24.63,17.26c-2.72-1.08-4.66-3.11-4.43-5.12c0.13-1.14,0.94-1.94,1.18-2.17
	C467.18,407.2,464.36,389.18,471.08,384.3z"/>
<path class="st0" d="M434.89,446.96c0.38-15.26,14.05-25.23,25.75-19.66c4.98,2.37,6.24,4.86,4.41,10.11
	c-2.99,8.54-9.09,14.92-16.09,20.14c-1.68,1.25-5.94-0.25-8.7-1.32C435.8,454.51,434.06,450.84,434.89,446.96z"/>
<path class="st0" d="M476.15,342.8c6.43-0.06,12.87,4.36,15.02,10.32c2.31,6.41-1.85,12.1-8.69,11.09
	c-4.05-0.59-8.16-2.18-11.73-4.21c-3.74-2.12-6.34-5.7-5.34-10.46C466.22,345.69,471.06,342.85,476.15,342.8z"/>
<path class="st0" d="M554.62,282.84c-6.03,0.08-10.49-3.1-10.64-7.56c-0.17-5.02,4.25-9.43,9.98-9.98
	c6.35-0.61,14.19,3.36,14.44,7.32C568.66,276.83,560.67,282.76,554.62,282.84z"/>
<path class="st0" d="M430.3,477.66c-6.23-0.02-10.64-3.69-10.48-8.72c0.14-4.36,2.83-6.95,7.34-7.06c6.2-0.15,12.49,3.92,12.55,8.11
	C439.77,474.02,435.28,477.67,430.3,477.66z"/>
<path class="st0" d="M494.46,370.52c2.84,0.38,4.46,3.43,4.76,3.83c2.18,2.9,1.56,6.26-1.81,6.62c-1.61,0.17-9.59,1.69-10.98-1.45
	C485.12,376.55,489.88,369.91,494.46,370.52z"/>
<path class="st0" d="M428.75,489.75c-0.02-0.19-0.15-1.91,0.98-3.26c1.01-1.2,2.71-1.65,4.73-1.68c4.03-0.06,9.7,2.36,9.72,5.74
	c0.01,2.55-3.2,4.96-6.16,5.42C433.63,496.65,429.06,493.14,428.75,489.75z"/>
<g>
	<g>
		<path class="st1" d="M620.66,181.9c0,1.52-0.38,2.82-1.13,3.89s-1.81,1.89-3.17,2.45s-2.96,0.84-4.8,0.84
			c-0.97,0-1.89-0.05-2.76-0.14s-1.66-0.23-2.39-0.4s-1.37-0.39-1.92-0.65v-2.87c0.88,0.36,1.95,0.7,3.22,1.01s2.59,0.47,3.97,0.47
			c1.29,0,2.38-0.17,3.27-0.52s1.57-0.84,2.03-1.49s0.69-1.43,0.69-2.35c0-0.88-0.19-1.61-0.58-2.21s-1.03-1.13-1.92-1.62
			s-2.12-1-3.67-1.56c-1.09-0.39-2.05-0.81-2.88-1.27s-1.53-0.99-2.09-1.57s-0.99-1.27-1.27-2.04s-0.43-1.66-0.43-2.65
			c0-1.37,0.35-2.55,1.05-3.52s1.66-1.73,2.9-2.25s2.66-0.78,4.26-0.78c1.37,0,2.64,0.13,3.81,0.39s2.24,0.6,3.21,1.04l-0.93,2.57
			c-0.93-0.39-1.91-0.71-2.94-0.97s-2.11-0.39-3.21-0.39s-2.03,0.16-2.79,0.48s-1.33,0.78-1.73,1.36s-0.6,1.28-0.6,2.09
			c0,0.9,0.19,1.65,0.57,2.25s0.99,1.13,1.83,1.59s1.95,0.95,3.33,1.45c1.51,0.55,2.79,1.13,3.85,1.75s1.86,1.37,2.41,2.25
			S620.66,180.54,620.66,181.9z"/>
		<path class="st1" d="M631.69,186.7c0.48,0,0.97-0.04,1.48-0.12s0.91-0.18,1.23-0.3v2.27c-0.34,0.15-0.81,0.28-1.42,0.39
			s-1.19,0.16-1.77,0.16c-1.02,0-1.95-0.18-2.78-0.54s-1.5-0.96-2-1.82s-0.75-2.04-0.75-3.55v-11.43h-2.74v-1.42l2.76-1.14
			l1.16-4.18h1.76v4.46h5.64v2.29h-5.64v11.34c0,1.21,0.28,2.11,0.83,2.71S630.76,186.7,631.69,186.7z"/>
		<path class="st1" d="M645.71,169.12c1.64,0,3.05,0.36,4.22,1.09s2.07,1.74,2.69,3.05s0.93,2.83,0.93,4.58v1.81h-13.31
			c0.04,2.26,0.6,3.98,1.69,5.17s2.62,1.78,4.61,1.78c1.22,0,2.3-0.11,3.23-0.33s1.91-0.55,2.92-0.98v2.57
			c-0.97,0.43-1.94,0.75-2.89,0.95s-2.08,0.3-3.38,0.3c-1.85,0-3.47-0.38-4.84-1.13s-2.45-1.87-3.21-3.33s-1.14-3.26-1.14-5.38
			c0-2.07,0.35-3.87,1.05-5.39s1.68-2.69,2.95-3.51S643.99,169.12,645.71,169.12z M645.68,171.52c-1.56,0-2.8,0.51-3.73,1.53
			s-1.48,2.44-1.65,4.27h10.2c-0.01-1.15-0.19-2.16-0.54-3.03s-0.87-1.55-1.57-2.04S646.78,171.52,645.68,171.52z"/>
		<path class="st1" d="M667.56,169.12c2.4,0,4.32,0.83,5.75,2.48s2.14,4.14,2.14,7.45c0,2.19-0.33,4.03-0.98,5.52
			s-1.58,2.61-2.77,3.38s-2.59,1.14-4.21,1.14c-1.02,0-1.92-0.13-2.69-0.4s-1.44-0.63-1.99-1.09s-1.01-0.96-1.37-1.49h-0.21
			c0.04,0.46,0.08,1.01,0.13,1.65s0.08,1.21,0.08,1.69v7.91h-2.94v-27.88h2.41l0.39,2.85h0.14c0.38-0.59,0.83-1.12,1.37-1.61
			s1.2-0.87,1.98-1.16S666.5,169.12,667.56,169.12z M667.05,171.59c-1.34,0-2.41,0.26-3.23,0.77s-1.41,1.29-1.78,2.31
			s-0.57,2.31-0.6,3.86v0.56c0,1.63,0.18,3.01,0.54,4.13s0.95,1.98,1.78,2.57s1.94,0.88,3.33,0.88c1.2,0,2.19-0.32,2.99-0.97
			s1.39-1.54,1.78-2.7s0.59-2.48,0.59-3.98c0-2.27-0.44-4.08-1.33-5.42S668.88,171.59,667.05,171.59z"/>
		<path class="st1" d="M712.62,175.86c0,1.98-0.25,3.78-0.76,5.41s-1.25,3.02-2.24,4.18s-2.22,2.07-3.68,2.7s-3.16,0.95-5.1,0.95
			c-1.99,0-3.73-0.32-5.21-0.95s-2.71-1.54-3.69-2.71s-1.71-2.57-2.2-4.2s-0.73-3.43-0.73-5.41c0-2.62,0.43-4.93,1.3-6.91
			s2.18-3.52,3.95-4.62s3.98-1.65,6.64-1.65c2.54,0,4.68,0.54,6.42,1.63s3.06,2.62,3.96,4.6S712.62,173.17,712.62,175.86z
			 M692.15,175.86c0,2.18,0.31,4.07,0.93,5.66s1.57,2.82,2.86,3.69s2.92,1.3,4.9,1.3c1.99,0,3.62-0.43,4.9-1.3s2.21-2.1,2.82-3.69
			s0.91-3.48,0.91-5.66c0-3.32-0.69-5.91-2.08-7.78s-3.55-2.8-6.5-2.8c-1.99,0-3.63,0.43-4.92,1.28s-2.25,2.07-2.87,3.65
			S692.15,173.67,692.15,175.86z"/>
		<path class="st1" d="M727.01,169.12c2.29,0,4.01,0.56,5.19,1.68s1.76,2.92,1.76,5.39v12.55h-2.88v-12.36c0-1.61-0.37-2.81-1.1-3.6
			s-1.85-1.2-3.37-1.2c-2.13,0-3.63,0.6-4.5,1.81s-1.3,2.96-1.3,5.26v10.09h-2.92v-19.27h2.36l0.44,2.78h0.16
			c0.41-0.68,0.93-1.25,1.56-1.71s1.34-0.81,2.13-1.05S726.14,169.12,727.01,169.12z"/>
		<path class="st1" d="M747.38,169.12c1.64,0,3.05,0.36,4.22,1.09s2.07,1.74,2.69,3.05s0.93,2.83,0.93,4.58v1.81h-13.31
			c0.04,2.26,0.6,3.98,1.69,5.17s2.62,1.78,4.61,1.78c1.22,0,2.3-0.11,3.23-0.33s1.91-0.55,2.92-0.98v2.57
			c-0.97,0.43-1.94,0.75-2.89,0.95s-2.08,0.3-3.38,0.3c-1.85,0-3.47-0.38-4.84-1.13s-2.45-1.87-3.21-3.33s-1.14-3.26-1.14-5.38
			c0-2.07,0.35-3.87,1.05-5.39s1.68-2.69,2.95-3.51S745.66,169.12,747.38,169.12z M747.35,171.52c-1.56,0-2.8,0.51-3.73,1.53
			s-1.48,2.44-1.65,4.27h10.2c-0.01-1.15-0.19-2.16-0.54-3.03s-0.87-1.55-1.57-2.04S748.45,171.52,747.35,171.52z"/>
		<path class="st1" d="M759.74,171.32c0-0.84,0.2-1.44,0.6-1.78s0.88-0.52,1.46-0.52c0.6,0,1.1,0.17,1.51,0.52s0.62,0.94,0.62,1.78
			c0,0.8-0.21,1.38-0.62,1.74s-0.91,0.54-1.51,0.54c-0.57,0-1.06-0.18-1.46-0.54S759.74,172.12,759.74,171.32z M759.74,186.91
			c0-0.82,0.2-1.4,0.6-1.75s0.88-0.52,1.46-0.52c0.6,0,1.1,0.17,1.51,0.52s0.62,0.93,0.62,1.75c0,0.81-0.21,1.4-0.62,1.77
			s-0.91,0.55-1.51,0.55c-0.57,0-1.06-0.18-1.46-0.55S759.74,187.72,759.74,186.91z"/>
		<path class="st1" d="M624.11,207.04l-9.23,25.7h-3.01l-9.23-25.7h3.13l6.01,16.93c0.25,0.68,0.47,1.33,0.66,1.95
			s0.37,1.22,0.52,1.79s0.29,1.13,0.4,1.67c0.12-0.54,0.25-1.1,0.4-1.68s0.33-1.18,0.53-1.81s0.42-1.29,0.67-1.98l5.98-16.88H624.11
			z"/>
		<path class="st1" d="M628.68,206.27c0.48,0,0.89,0.16,1.24,0.47s0.52,0.79,0.52,1.45c0,0.64-0.17,1.12-0.52,1.44
			s-0.76,0.47-1.24,0.47c-0.5,0-0.92-0.16-1.26-0.47s-0.5-0.8-0.5-1.44c0-0.66,0.17-1.14,0.5-1.45S628.18,206.27,628.68,206.27z
			 M630.1,213.48v19.27h-2.92v-19.27H630.1z"/>
		<path class="st1" d="M648.74,227.47c0,1.23-0.31,2.26-0.92,3.1s-1.49,1.47-2.64,1.89s-2.5,0.63-4.09,0.63
			c-1.35,0-2.51-0.11-3.5-0.32s-1.85-0.51-2.58-0.9v-2.69c0.79,0.39,1.72,0.74,2.81,1.05s2.2,0.47,3.34,0.47
			c1.66,0,2.87-0.27,3.62-0.81s1.12-1.27,1.12-2.2c0-0.53-0.15-0.99-0.45-1.4s-0.8-0.8-1.5-1.18s-1.68-0.8-2.92-1.26
			c-1.23-0.47-2.29-0.93-3.19-1.4s-1.59-1.03-2.07-1.7s-0.73-1.54-0.73-2.6c0-1.63,0.66-2.88,1.98-3.75s3.05-1.31,5.19-1.31
			c1.16,0,2.25,0.11,3.26,0.34s1.96,0.54,2.84,0.92l-0.98,2.34c-0.8-0.34-1.65-0.63-2.55-0.86s-1.82-0.35-2.76-0.35
			c-1.35,0-2.38,0.22-3.1,0.67s-1.08,1.05-1.08,1.83c0,0.6,0.17,1.09,0.5,1.48s0.87,0.75,1.61,1.09s1.71,0.74,2.92,1.2
			c1.21,0.45,2.25,0.91,3.13,1.38s1.56,1.05,2.03,1.72S648.74,226.41,648.74,227.47z"/>
		<path class="st1" d="M669.34,213.48v19.27h-2.39l-0.42-2.71h-0.16c-0.4,0.67-0.91,1.23-1.55,1.69s-1.34,0.8-2.14,1.03
			s-1.63,0.34-2.52,0.34c-1.52,0-2.8-0.25-3.83-0.74s-1.81-1.25-2.33-2.29s-0.78-2.36-0.78-3.97v-12.62h2.95v12.41
			c0,1.61,0.36,2.8,1.09,3.59s1.83,1.19,3.32,1.19c1.43,0,2.57-0.27,3.42-0.81s1.46-1.33,1.84-2.38s0.56-2.33,0.56-3.86v-10.14
			H669.34z"/>
		<path class="st1" d="M682.71,213.16c2.3,0,4,0.52,5.12,1.55s1.67,2.68,1.67,4.94v13.1h-2.13l-0.56-2.85h-0.14
			c-0.54,0.7-1.1,1.29-1.69,1.77s-1.26,0.83-2.03,1.07s-1.71,0.36-2.82,0.36c-1.17,0-2.21-0.21-3.12-0.62s-1.62-1.03-2.14-1.86
			s-0.78-1.89-0.78-3.16c0-1.92,0.76-3.4,2.29-4.43s3.84-1.59,6.96-1.69l3.32-0.14v-1.18c0-1.66-0.36-2.83-1.07-3.5s-1.72-1-3.02-1
			c-1.01,0-1.97,0.15-2.88,0.44s-1.78,0.64-2.6,1.04l-0.9-2.21c0.87-0.45,1.86-0.83,2.99-1.14S681.47,213.16,682.71,213.16z
			 M686.62,223.25l-2.94,0.12c-2.4,0.09-4.1,0.49-5.08,1.18s-1.48,1.67-1.48,2.94c0,1.1,0.33,1.92,1,2.44s1.55,0.79,2.65,0.79
			c1.71,0,3.11-0.47,4.2-1.42s1.63-2.37,1.63-4.27V223.25z"/>
		<path class="st1" d="M698.45,232.74h-2.94v-27.35h2.94V232.74z"/>
		<path class="st1" d="M714.39,232.74v-25.7h2.99v25.7H714.39z"/>
		<path class="st1" d="M730.86,233.09c-2.44,0-4.37-0.83-5.79-2.5s-2.14-4.14-2.14-7.42c0-3.32,0.73-5.82,2.18-7.51
			s3.39-2.54,5.8-2.54c1.02,0,1.91,0.13,2.67,0.4s1.42,0.63,1.97,1.08s1.01,0.96,1.39,1.54h0.21c-0.05-0.36-0.09-0.86-0.14-1.49
			s-0.07-1.15-0.07-1.55v-7.72h2.92v27.35h-2.36l-0.44-2.74h-0.12c-0.36,0.57-0.82,1.1-1.38,1.56s-1.22,0.84-1.99,1.12
			S731.9,233.09,730.86,233.09z M731.32,230.67c2.06,0,3.52-0.59,4.38-1.76s1.28-2.91,1.28-5.22v-0.53c0-2.45-0.41-4.33-1.22-5.64
			s-2.29-1.97-4.44-1.97c-1.79,0-3.13,0.69-4.03,2.07s-1.34,3.25-1.34,5.63c0,2.37,0.44,4.2,1.33,5.48S729.51,230.67,731.32,230.67z
			"/>
		<path class="st1" d="M753.45,213.12c1.64,0,3.05,0.36,4.22,1.09s2.07,1.74,2.69,3.05s0.93,2.83,0.93,4.58v1.81h-13.31
			c0.04,2.26,0.6,3.98,1.69,5.17s2.62,1.78,4.61,1.78c1.22,0,2.3-0.11,3.23-0.33s1.91-0.55,2.92-0.98v2.57
			c-0.97,0.43-1.94,0.75-2.89,0.95s-2.08,0.3-3.38,0.3c-1.85,0-3.47-0.38-4.84-1.13s-2.45-1.87-3.21-3.33s-1.14-3.26-1.14-5.38
			c0-2.07,0.35-3.87,1.05-5.39s1.68-2.69,2.95-3.51S751.73,213.12,753.45,213.12z M753.41,215.52c-1.56,0-2.8,0.51-3.73,1.53
			s-1.48,2.44-1.65,4.27h10.2c-0.01-1.15-0.19-2.16-0.54-3.03s-0.87-1.55-1.57-2.04S754.52,215.52,753.41,215.52z"/>
		<path class="st1" d="M775.37,213.12c2.29,0,4.01,0.56,5.19,1.68s1.76,2.92,1.76,5.39v12.55h-2.88v-12.36c0-1.61-0.37-2.81-1.1-3.6
			s-1.85-1.2-3.37-1.2c-2.13,0-3.63,0.6-4.5,1.81s-1.3,2.96-1.3,5.26v10.09h-2.92v-19.27h2.36l0.44,2.78h0.16
			c0.41-0.68,0.93-1.25,1.56-1.71s1.34-0.81,2.13-1.05S774.5,213.12,775.37,213.12z"/>
		<path class="st1" d="M794.55,230.7c0.48,0,0.97-0.04,1.48-0.12s0.91-0.18,1.23-0.3v2.27c-0.34,0.15-0.81,0.28-1.42,0.39
			s-1.19,0.16-1.77,0.16c-1.02,0-1.95-0.18-2.78-0.54s-1.5-0.96-2-1.82s-0.75-2.04-0.75-3.55v-11.43h-2.74v-1.42l2.76-1.14
			l1.16-4.18h1.76v4.46h5.64v2.29h-5.64v11.34c0,1.21,0.28,2.11,0.83,2.71S793.62,230.7,794.55,230.7z"/>
		<path class="st1" d="M802.65,206.27c0.48,0,0.89,0.16,1.24,0.47s0.52,0.79,0.52,1.45c0,0.64-0.17,1.12-0.52,1.44
			s-0.76,0.47-1.24,0.47c-0.5,0-0.92-0.16-1.26-0.47s-0.5-0.8-0.5-1.44c0-0.66,0.17-1.14,0.5-1.45S802.15,206.27,802.65,206.27z
			 M804.07,213.48v19.27h-2.92v-19.27H804.07z"/>
		<path class="st1" d="M816.47,230.7c0.48,0,0.97-0.04,1.48-0.12s0.91-0.18,1.23-0.3v2.27c-0.34,0.15-0.81,0.28-1.42,0.39
			s-1.19,0.16-1.77,0.16c-1.02,0-1.95-0.18-2.78-0.54s-1.5-0.96-2-1.82s-0.75-2.04-0.75-3.55v-11.43h-2.74v-1.42l2.76-1.14
			l1.16-4.18h1.76v4.46h5.64v2.29h-5.64v11.34c0,1.21,0.28,2.11,0.83,2.71S815.54,230.7,816.47,230.7z"/>
		<path class="st1" d="M820.04,213.48h3.13l4.25,11.18c0.25,0.66,0.47,1.29,0.69,1.89s0.4,1.18,0.56,1.73s0.29,1.08,0.39,1.6h0.12
			c0.16-0.59,0.4-1.36,0.7-2.31s0.63-1.93,0.98-2.93l4.03-11.16h3.15l-8.38,22.1c-0.45,1.18-0.96,2.21-1.56,3.09
			s-1.31,1.56-2.15,2.03s-1.86,0.71-3.06,0.71c-0.55,0-1.04-0.03-1.46-0.1s-0.79-0.14-1.09-0.22v-2.34
			c0.26,0.06,0.57,0.11,0.94,0.16s0.75,0.07,1.15,0.07c0.73,0,1.36-0.14,1.89-0.41s0.99-0.68,1.38-1.2s0.72-1.15,1-1.88l1.05-2.71
			L820.04,213.48z"/>
	</g>
</g>
</svg>
