<?xml version="1.0" encoding="utf-8"?>
<!-- Generator: Adobe Illustrator 25.2.1, SVG Export Plug-In . SVG Version: 6.00 Build 0)  -->
<svg version="1.1" id="Layer_1" xmlns="http://www.w3.org/2000/svg" xmlns:xlink="http://www.w3.org/1999/xlink" x="0px" y="0px"
	 viewBox="0 0 214.1 80.9" style="enable-background:new 0 0 214.1 80.9;" xml:space="preserve">
<style type="text/css">
	.st0{clip-path:url(#SVGID_2_);fill:#FF5902;}
	.st1{enable-background:new    ;}
	.st2{fill:#FFF9B3;}
</style>
<g>
	<g>
		<defs>
			<rect id="SVGID_1_" x="6" y="8.9" width="211.1" height="66.9"/>
		</defs>
		<clipPath id="SVGID_2_">
			<use xlink:href="#SVGID_1_"  style="overflow:visible;"/>
		</clipPath>
		<path class="st0" d="M6.1,35.1c0-0.2-0.1-0.4,0-0.6c0-0.6,0.1-1.2,0.6-1.7c0.3-0.3,0.7-0.8,0.8-1.3c0.2-0.6,0.2-1.2,0.6-1.8
			c0.3-0.5,0.6-0.9,0.9-1.4c0.2-0.4,0.6-0.7,0.9-1c0.1-0.1,0.1-0.1,0.2-0.2c0.2-0.3,0.4-0.6,0.7-0.8c0.3-0.3,0.6-0.7,0.9-1
			c0.1-0.1,0.2-0.1,0.3-0.2c0.2-0.2,0.3-0.3,0.5-0.5c0.1-0.1,0.3-0.3,0.4-0.4c0.1,0,0.2,0,0.2-0.1c0.1-0.4,0.5-0.4,0.7-0.6
			c0.4-0.4,1-0.7,1.5-1c0.3-0.2,0.6-0.4,0.9-0.5c0,0,0.1,0,0.1-0.1c0.2-0.3,0.5-0.5,0.8-0.7c0.4-0.2,0.8-0.6,1.2-0.8
			c0.4-0.2,0.8-0.4,1.1-0.7c0.6-0.6,1.5-0.9,2.1-1.5c0.4-0.4,0.9-0.6,1.4-0.8c0.8-0.4,1.6-0.7,2.5-1c0.5-0.2,1.1-0.3,1.6-0.4
			c0.1,0,0.2,0,0.2,0c0.8-0.4,1.7-0.5,2.5-0.7c0.9-0.2,1.7-0.6,2.6-0.8c0.4-0.1,0.8-0.3,1.2-0.5c0.4-0.1,0.8-0.2,1.1-0.3
			c0.9-0.2,1.8-0.3,2.7-0.6c0.5-0.1,0.9-0.2,1.3-0.3c0.7-0.1,1.5-0.4,2.2-0.6c0,0,0.1,0,0.2,0c0.7,0,1.4-0.3,2.1-0.5
			c0.8-0.2,1.5-0.3,2.3-0.4c0.2,0,0.5-0.1,0.7-0.1c0.7-0.2,1.4-0.1,2.1-0.4c0.5-0.2,1.1-0.2,1.7-0.3c0.4-0.1,0.8-0.2,1.2-0.2
			c0.3-0.1,0.7-0.1,1.1-0.1c0.5-0.1,1-0.2,1.6-0.3c0.3-0.1,0.6-0.1,0.9-0.1c0.8,0.1,1.4-0.4,2.2-0.3c0.3,0,0.7-0.1,1-0.1
			c0.6-0.1,1.3-0.1,1.9-0.1c0.3,0,0.6-0.1,0.8-0.1c0.5,0,0.9,0,1.3,0c0.5,0,1.1-0.1,1.7-0.1c0.4,0,0.9-0.2,1.3,0c0.1,0,0.1,0,0.2,0
			c0.4,0,0.8-0.1,1.2-0.1c0.6-0.1,1.1-0.1,1.7-0.1c0,0,0,0,0.1,0c1.1,0.2,2.1-0.2,3.2,0.1c0.1,0,0.1,0,0.2,0c0.5-0.1,1.1,0,1.6-0.1
			c0.1,0,0.2,0,0.3,0.1c0.1,0,0.2,0.1,0.3,0c0.3-0.2,0.6,0,1,0c0.6,0,1.1,0,1.7,0c0.1,0,0.1,0,0.2,0C77,9,77.5,9,78,9
			c0.5-0.1,0.9,0,1.4,0.1c0.8,0,1.5,0,2.3,0c0,0,0.1,0,0.1,0c0.5,0.3,1,0.1,1.5,0.1c0.4,0,0.8,0.1,1.3,0.1c0.6,0,1.2,0,1.8,0
			c0.1,0,0.3,0,0.4,0c0.4,0.2,0.9,0.2,1.4,0.1c0.2,0,0.4,0.1,0.6,0.1c0.6-0.1,1.2,0.1,1.9,0c1.1-0.1,2.2,0,3.3,0.1
			c0.9,0,1.7,0,2.6,0c0.3,0,0.7,0.1,1,0.1c0.2,0,0.5-0.1,0.7-0.1c0.4,0,0.9,0,1.3,0.1c0.3,0.1,0.5,0,0.8,0c0.9,0,1.8-0.1,2.6-0.1
			c0.4,0,0.9-0.1,1.3-0.1c1,0,2-0.1,3-0.1c0.5,0,1,0.1,1.5,0.1c0.3,0,0.6-0.1,0.8-0.1c0.5,0,0.9,0.1,1.4,0.1c0.2,0,0.4,0,0.6,0
			c0.1,0,0.3,0,0.4,0c0.9,0.1,1.7,0.1,2.6,0c0.6-0.1,1.3,0,1.9,0c0.4,0,0.7,0,1.1,0c0.3,0,0.7,0,1,0c0,0,0.1,0,0.1,0
			c0.6-0.2,1.1,0.2,1.7,0c0.2-0.1,0.5,0,0.8,0c0.3,0,0.5-0.1,0.8-0.1c0.1,0,0.1,0,0.2,0c1.1,0.2,2.3,0.2,3.4,0.2c0.8,0,1.5,0,2.3,0
			c0.4,0,0.9,0.1,1.3,0.1c0.3,0,0.6,0,1,0c0.6,0,1.2,0,1.8,0.1c0.3,0,0.6,0.1,0.9-0.1c0.1-0.1,0.4,0.1,0.6,0.1c0.6,0,1.3,0,2,0
			c0.5,0,1,0.1,1.5,0c0.5-0.1,1,0,1.5-0.1c0.3,0,0.5,0.1,0.8,0.1c0.5,0,1.1,0,1.6,0c0.7,0.1,1.4-0.1,2.1,0.1c0.1,0,0.1,0,0.2,0
			c0.7-0.2,1.3,0.1,2,0.1c0.7,0,1.3,0.1,2,0.1c0.1,0,0.1,0,0.1,0c0.5,0.3,1.2,0.3,1.8,0.4c0.5,0.1,1,0.1,1.5,0.1
			c0.7,0.1,1.4,0.2,2,0.3c0.4,0.1,0.9,0.1,1.3,0.2c0.5,0.1,0.9,0.1,1.4,0.2c0.3,0.1,0.6,0.2,0.9,0c0.1,0,0.2,0,0.2,0
			c0.5,0.2,0.9,0.4,1.5,0.2c0.2-0.1,0.5,0,0.7,0.1c0.8,0.2,1.6,0.3,2.3,0.3c0.5,0,1.1,0.2,1.6,0.3c0.8,0.1,1.6,0.3,2.4,0.4
			c0.4,0.1,0.9,0.1,1.2,0.3c0.1,0,0.1,0.1,0.1,0c0.4-0.2,0.8,0.1,1.2,0.1c0.4,0,0.8,0.2,1.2,0.3c0.5,0.1,1,0.2,1.4,0.3
			c0,0,0.1,0,0.1,0c0.5,0.3,1,0.4,1.6,0.5c0.6,0.2,1.1,0.3,1.7,0.4c0.6,0.1,1.3,0.3,1.9,0.4c0.1,0,0.3,0.1,0.4,0.1
			c0.3,0.1,0.6,0.1,0.9,0.3c0.2,0.1,0.5,0.2,0.7,0.2c0.6,0.1,1.1,0.2,1.7,0.3c0.2,0,0.4,0.1,0.6,0.2c0.2,0.1,0.3,0.2,0.5,0.2
			c0.9,0.2,1.8,0.5,2.6,0.8c0.6,0.2,1.2,0.2,1.8,0.4c0.5,0.1,1,0.3,1.5,0.5c0.2,0.1,0.3,0.1,0.5,0.2c1.1,0.4,2.2,0.7,3.2,1.1
			c0.6,0.3,1.2,0.6,1.9,0.9c0.5,0.2,0.9,0.5,1.4,0.8c0.6,0.3,1.2,0.5,1.7,1c0.1,0.1,0.2,0.1,0.3,0.2c0.4,0.2,0.8,0.3,1.1,0.7
			c0.1,0.2,0.4,0.2,0.6,0.4c0.4,0.4,0.9,0.7,1.3,1.1c0.4,0.4,0.8,0.9,1.1,1.4c0.7,1,1.3,2,1.7,3.1c0.5,1.2,1,2.4,1.4,3.7
			c0.9,2.7,1.5,5.4,1.8,8.2c0.2,1.3,0.2,2.5,0,3.8c-0.1,0.6-0.1,1.3-0.3,1.9c-0.2,0.7-0.5,1.3-0.7,1.9c-0.1,0.3-0.3,0.7-0.4,1
			c-0.1,0.3-0.2,0.5-0.5,0.7c-0.3,0.2-0.5,0.6-0.6,0.9c-0.4,0.8-0.9,1.4-1.4,2.1c-0.3,0.4-0.6,0.8-1,1.1c-0.1,0.1-0.1,0.2-0.2,0.3
			c-0.1,0.2-0.3,0.4-0.5,0.6c-0.1,0.1-0.1,0.1-0.2,0.2c-0.3,0.6-0.8,0.9-1.2,1.4c-0.6,0.6-1.3,1.2-2,1.7c-0.6,0.5-1.2,1-1.8,1.5
			c-0.1,0.1-0.2,0.3-0.4,0.4c-0.5,0.5-1,1-1.7,1.2c0,0-0.1,0-0.1,0.1c-0.4,0.6-1,0.8-1.6,1.2c-0.2,0.1-0.4,0.2-0.5,0.3
			c-0.1,0.1-0.2,0.1-0.3,0.2c-0.2,0.2-0.3,0.4-0.6,0.4c-0.1,0-0.1,0.1-0.2,0.2c-0.3,0.2-0.5,0.3-0.8,0.5c-0.4,0.2-0.8,0.3-1.2,0.6
			c-0.2,0.2-0.4,0.3-0.6,0.4c-0.6,0.3-1.3,0.7-1.9,1c-0.1,0.1-0.3,0.1-0.5,0.2c-0.3,0.1-0.5,0.3-0.8,0.4c-0.4,0.2-0.7,0.5-1.1,0.5
			c0,0-0.1,0-0.1,0c-0.5,0.4-1.2,0.4-1.7,0.8c-0.1,0.1-0.2,0.1-0.3,0.1c-0.5,0.2-1,0.4-1.5,0.6c-0.3,0.1-0.6,0.1-0.9,0.2
			c-0.4,0.1-0.8,0.3-1.1,0.5c-0.1,0-0.1,0.1-0.2,0.1c-0.5,0.2-1.1,0.3-1.6,0.5c-0.1,0-0.2,0.1-0.3,0.2c-0.7,0.2-1.3,0.6-2.1,0.7
			c-0.1,0-0.1,0-0.1,0c-0.6,0.4-1.2,0.3-1.8,0.6c-0.9,0.4-1.9,0.4-2.9,0.8c-0.1,0-0.2,0.1-0.4,0c-0.4-0.1-0.8,0-1.2,0.2
			c-0.3,0.1-0.6,0.2-0.9,0.1c-0.4,0-0.9,0.1-1.3,0.2c-0.3,0.1-0.6,0.2-0.9,0.2c-0.4-0.1-0.8,0.1-1.3,0.1c-0.5,0-1,0.1-1.5,0.2
			c-0.8,0.1-1.5,0.2-2.3,0.3c-0.6,0.1-1.3,0-1.9,0.1c-0.3,0-0.6,0.1-0.9,0.2c-0.3,0.1-0.6-0.1-1,0c-0.6,0.1-1.1,0.3-1.7,0.1
			c0,0-0.1,0-0.1,0c-0.6,0.2-1.2,0.1-1.8,0.2c-0.1,0-0.2,0.1-0.2,0.1c-0.5-0.2-0.9,0-1.4,0.1c-0.2,0.1-0.5,0-0.8,0
			c-0.5,0.1-0.9,0.2-1.4,0.2c-0.4,0-0.8,0-1.2,0.1c-0.2,0-0.5,0.1-0.8,0.1c-0.4,0-0.8,0.2-1.2,0.1c-0.1,0-0.3,0-0.4,0.1
			c-0.2,0.1-0.3,0.1-0.5,0c-0.3,0-0.5,0-0.8,0c-0.6,0-1.2,0.1-1.9,0c-0.2,0-0.4,0-0.6,0.1c-0.8,0.1-1.6-0.1-2.4,0
			c-0.7,0-1.4-0.1-2.1-0.1c-0.5,0-1.1,0.1-1.6,0.1c-0.2,0-0.4,0-0.6,0c-0.4-0.1-0.7-0.1-1.1,0c-0.2,0.1-0.4-0.1-0.6,0
			c-0.9,0.1-1.8-0.1-2.7-0.1c-0.4,0-0.7,0.1-1.1,0.1c-0.6,0-1.3,0.1-1.9,0c-0.4,0-0.9,0.1-1.3-0.1c-0.1-0.1-0.3,0.1-0.5,0
			c-0.6-0.1-1.2,0-1.8-0.1c-0.7-0.1-1.3-0.1-1.9,0c-0.3,0-0.7-0.1-1.1-0.1c-0.2,0-0.4-0.1-0.6-0.1c-0.6,0.1-1.2,0-1.8-0.1
			c-0.2,0-0.4,0-0.6,0c-0.7,0-1.3-0.1-1.9-0.1c-0.3,0-0.6,0-0.9,0c-0.3,0-0.6,0-0.9,0c-0.3,0-0.7-0.1-1-0.1c-0.5,0-0.9,0.1-1.4,0
			c-0.4-0.1-0.9,0-1.3-0.1c-0.3-0.1-0.6-0.2-1-0.1c-0.3,0.1-0.6-0.1-0.9-0.1c-0.5-0.1-1.1-0.1-1.6-0.2c-0.7,0-1.3,0-2-0.1
			c-0.7-0.1-1.4-0.1-2.1-0.2c-0.4-0.1-0.8,0-1.3-0.1c-0.3,0-0.6,0-0.9-0.1c-0.6-0.1-1.2-0.3-1.8-0.2c-0.9,0-1.7-0.1-2.6-0.1
			c-1-0.1-1.9-0.1-2.9-0.2c-0.2,0-0.4-0.1-0.6-0.1c-0.7,0.1-1.3-0.2-2-0.2c-0.6,0-1.2,0-1.8-0.1c-0.2,0-0.4-0.1-0.7-0.1
			c0,0,0,0-0.1,0c-0.4,0.2-0.7,0-1.1-0.1c-1-0.1-2,0-3.1-0.2c-0.5-0.1-1.1-0.1-1.6-0.1c-0.5,0-1,0.1-1.5-0.1c-0.1,0-0.2,0-0.2,0
			c-0.4,0.2-0.8,0-1.1,0c-0.5,0-0.9,0-1.4-0.1c-0.7,0-1.3,0.1-1.9-0.1c-0.4-0.1-0.8,0-1.2,0c-0.1,0-0.3-0.1-0.4-0.1
			c-0.2,0-0.3,0-0.5-0.1c-0.6,0-1.1-0.1-1.6-0.1c-0.2,0-0.4,0-0.6,0c-0.4,0-0.8,0-1.2-0.1c-0.3-0.1-0.7-0.1-1.1-0.1
			c-0.7-0.1-1.4-0.1-2.1-0.2c-0.4-0.1-0.8-0.2-1.2-0.1c-0.1,0-0.2,0-0.2,0c-0.5-0.3-1.1-0.3-1.6-0.3c-0.6,0-1.1-0.3-1.7-0.2
			c-0.5,0.1-1-0.2-1.6-0.1c-0.5,0-1-0.2-1.6-0.3c-0.1,0-0.2-0.1-0.2-0.1c-1.2,0.1-2.3-0.3-3.5-0.5c-0.6-0.1-1.2-0.1-1.8-0.2
			c-0.4-0.1-0.9-0.1-1.3-0.2c-0.4-0.1-0.8-0.1-1.2-0.2c-0.2,0-0.3-0.1-0.5-0.1c-0.7-0.1-1.3-0.1-2-0.2c-0.3,0-0.6-0.1-1-0.2
			c-0.8-0.1-1.5-0.2-2.3-0.4c-0.7-0.1-1.3-0.3-2-0.4c-0.6-0.1-1.3-0.3-1.9-0.3c-0.7,0-1.3-0.4-2-0.2c-0.1,0-0.2-0.1-0.3-0.1
			c-0.3-0.1-0.5-0.2-0.8-0.1c-0.1,0-0.3,0-0.4-0.1c-0.3-0.1-0.7-0.3-1.1-0.2c0,0,0,0,0,0c-1-0.3-2.1-0.4-3-0.9
			c-0.1,0-0.1-0.1-0.2-0.1c-0.6-0.1-1.2-0.4-1.8-0.7c-0.7-0.4-1.4-0.7-2.1-1.1c-0.5-0.3-1-0.7-1.5-1c-0.3-0.2-0.5-0.3-0.8-0.5
			c-0.9-0.6-1.8-1.2-2.7-1.9c-1.1-0.9-2.1-1.8-3.1-2.7c-0.8-0.7-1.4-1.6-2.1-2.4c-0.8-1-1.6-2.1-2.3-3.1c-0.5-0.7-1-1.5-1.5-2.2
			c-0.4-0.6-0.9-1.2-1.4-1.9c-0.4-0.5-0.7-1-1-1.5c-1.3-2-2.4-4.1-3-6.4c-0.3-1.4-0.8-2.7-1.1-4.1C6.1,36.3,6.1,35.7,6.1,35.1
			C6.1,35.1,6.1,35.1,6.1,35.1"/>
	</g>
</g>
<g class="st1">
	<path class="st2" d="M37.7,33c2.2,0,4.5,1.3,5.2,2.3c0.2,0.3,0.3,0.6,0.3,0.9v0.2c0,0.5,0.4,0.9,0.9,0.9s0.9-0.4,0.9-0.9
		c0-0.5-0.4-0.9-0.9-0.9c-0.3,0-0.5-0.2-0.5-0.7l0.1-1.4h2.3v15.2c0,4.5-3.2,7.7-7.7,7.7c-3.9,0-7.1-2.4-7.6-5.7l2.8-0.8
		c0.3,2.3,2.3,3.8,4.9,3.8c2.9,0,5-2,5-4.8v-1c0-0.3,0.2-0.6,0.4-0.7c0.3-0.2,0.5-0.5,0.5-0.8c0-0.5-0.4-0.9-0.9-0.9
		s-0.9,0.4-0.9,0.9c0,0.2,0,0.3,0.1,0.5c0.1,0.3,0.2,0.5-0.1,0.8c-1.3,1.3-2.9,1.9-4.9,1.9c-4.2,0-7.7-3.3-7.7-8.2
		C29.9,36.5,33.4,33,37.7,33z M31.5,43.1c0.5,0,0.8-0.4,0.7-0.9c-0.1-0.5-0.1-1.3,0-1.8c0.1-0.5-0.2-0.9-0.7-0.9
		c-0.4,0-0.7,0.4-0.8,0.8c-0.2,0.6-0.2,1.4,0,2.1C30.8,42.8,31.1,43.1,31.5,43.1z M33.2,37.3c0.5,0,0.9-0.4,0.9-0.9
		c0-0.5-0.4-0.9-0.9-0.9s-0.9,0.4-0.9,0.9C32.2,36.9,32.6,37.3,33.2,37.3z M33.2,47.2c0.5,0,0.9-0.4,0.9-0.9c0-0.5-0.4-0.9-0.9-0.9
		s-0.9,0.4-0.9,0.9C32.2,46.8,32.6,47.2,33.2,47.2z M43.3,41.3c0-3.4-2.3-5.8-5.4-5.8s-5.4,2.4-5.4,5.8s2.3,5.8,5.4,5.8
		S43.3,44.7,43.3,41.3z M33.5,54.2c0.5,0,0.9-0.4,0.9-0.9c0-0.5-0.4-0.9-0.9-0.9s-0.9,0.4-0.9,0.9C32.6,53.8,33,54.2,33.5,54.2z
		 M36.8,48.9c0.6,0.2,1.4,0.2,2.1,0c0.4-0.1,0.8-0.5,0.8-0.8c0-0.5-0.4-0.8-0.9-0.7s-1.3,0.1-1.8,0s-0.9,0.2-0.9,0.7
		C36.1,48.5,36.4,48.8,36.8,48.9z M37.2,35.2c0.5-0.1,1.3-0.1,1.8,0s0.9-0.2,0.9-0.7c0-0.4-0.4-0.7-0.8-0.8c-0.6-0.2-1.4-0.2-2.1,0
		c-0.4,0.1-0.8,0.5-0.8,0.8C36.3,35,36.7,35.3,37.2,35.2z M37.2,55.7c0.6,0.2,1.4,0.2,2.1,0c0.4-0.1,0.8-0.5,0.8-0.8
		c0-0.5-0.4-0.8-0.9-0.7c-0.5,0.1-1.3,0.1-1.8,0c-0.5-0.1-0.9,0.2-0.9,0.7C36.4,55.3,36.7,55.6,37.2,55.7z M43.3,53.7
		c0.5,0,0.9-0.4,0.9-0.9c0-0.5-0.4-0.9-0.9-0.9s-0.9,0.4-0.9,0.9C42.4,53.3,42.8,53.7,43.3,53.7z M44.6,44c0.5,0,0.8-0.4,0.8-0.9
		v-1.9c0-0.5-0.4-0.9-0.8-0.9c-0.5,0-0.8,0.4-0.8,0.9v1.9C43.8,43.6,44.2,44,44.6,44z"/>
	<path class="st2" d="M51.4,27.2c1.2,0,2,0.9,2,2.1c0,1.2-0.8,2.1-2,2.1s-2-0.9-2-2.1C49.4,28.1,50.3,27.2,51.4,27.2z M52.7,33.4
		v16.1h-2.6V33.4H52.7z M51.4,30.3c0.6,0,1-0.4,1-1c0-0.6-0.4-1-1-1s-1,0.4-1,1C50.4,29.8,50.8,30.3,51.4,30.3z M51.4,48.5
		c0.5,0,0.9-0.4,0.9-0.9c0-0.5-0.4-0.9-0.9-0.9s-0.9,0.4-0.9,0.9C50.5,48.1,50.9,48.5,51.4,48.5z M51.4,38.1c0.5,0,0.8-0.4,0.8-0.9
		v-1.9c0-0.5-0.4-0.9-0.8-0.9s-0.8,0.4-0.8,0.9v1.9C50.6,37.7,50.9,38.1,51.4,38.1z"/>
</g>
<g class="st1">
	<path class="st2" d="M55,33.4h3l4.2,11.8c0.1,0.4,0.1,0.6-0.1,0.7c-0.2,0.2-0.3,0.4-0.3,0.7c0,0.5,0.4,0.9,0.9,0.9s0.9-0.4,0.9-0.9
		c0-0.3-0.1-0.5-0.3-0.7c-0.2-0.2-0.3-0.4-0.2-0.7l4.2-11.8h2.9l-6.1,16.1h-3L55,33.4z M57.3,36.2c0.5,0,0.9-0.4,0.9-0.9
		c0-0.5-0.4-0.9-0.9-0.9c-0.5,0-0.9,0.4-0.9,0.9C56.4,35.8,56.8,36.2,57.3,36.2z M59.3,43.2c0.2,0.5,0.6,0.7,1.1,0.5
		c0.5-0.2,0.6-0.7,0.5-1.2l-0.7-1.8c-0.2-0.5-0.6-0.7-1.1-0.5c-0.5,0.2-0.6,0.7-0.5,1.2L59.3,43.2z M65,43.8
		c0.5,0.2,0.9-0.1,1.1-0.5l0.7-1.8c0.2-0.5,0-1-0.5-1.2c-0.5-0.2-0.9,0.1-1.1,0.5l-0.7,1.8C64.4,43.1,64.6,43.6,65,43.8z M68.2,36.2
		c0.5,0,0.9-0.4,0.9-0.9c0-0.5-0.4-0.9-0.9-0.9s-0.9,0.4-0.9,0.9C67.3,35.8,67.6,36.2,68.2,36.2z"/>
</g>
<g class="st1">
	<path class="st2" d="M71.8,41.5c0-4.9,3.2-8.5,7.7-8.5c4.6,0,7.6,3.7,7.6,8.9c0,0.1,0,0.3,0,0.5H75.9c-0.3,0-0.5-0.2-0.5-0.4
		c-0.1-0.4-0.5-0.6-0.9-0.6c-0.5,0-0.9,0.4-0.9,0.9c0,0.5,0.4,0.9,0.9,0.9c0.2,0,0.4,0.2,0.5,0.5c0.7,2.2,2.5,3.6,4.7,3.6
		c2.1,0,4.1-1.4,4.5-3.2l2.9,0.9c-0.7,2.8-3.7,4.9-7.4,4.9C75.1,49.9,71.8,46.4,71.8,41.5z M74.5,41c0.4,0,0.7-0.2,0.8-0.6
		c0.1-0.3,0.3-0.5,0.6-0.5h7.3c0.2,0,0.4,0.2,0.5,0.4c0.1,0.4,0.5,0.6,0.9,0.6c0.5,0,0.9-0.4,0.9-0.9c0-0.5-0.4-0.9-0.9-0.9
		c-0.3,0-0.4-0.2-0.5-0.4c-0.8-2.1-2.7-3.2-4.6-3.2c-2,0-3.6,1.3-4.4,3.2c-0.1,0.3-0.3,0.4-0.5,0.4c-0.5,0-0.9,0.4-0.9,0.9
		C73.6,40.6,74,41,74.5,41z M74.9,37.4c0.5,0,0.9-0.4,0.9-0.9c0-0.5-0.4-0.9-0.9-0.9S74,36,74,36.5C74,37,74.4,37.4,74.9,37.4z
		 M74.9,47.3c0.5,0,0.9-0.4,0.9-0.9s-0.4-0.9-0.9-0.9S74,45.9,74,46.4S74.4,47.3,74.9,47.3z M78.6,35.2c0.5-0.1,1.3-0.1,1.8,0
		s0.9-0.2,0.9-0.7c0-0.4-0.4-0.7-0.8-0.8c-0.6-0.2-1.4-0.2-2.1,0c-0.4,0.1-0.8,0.5-0.8,0.8C77.7,35,78.1,35.3,78.6,35.2z M78.7,49.3
		c0.6,0.2,1.4,0.2,2.1,0c0.4-0.1,0.8-0.5,0.8-0.8c0-0.5-0.4-0.8-0.9-0.7s-1.3,0.1-1.8,0S78,47.9,78,48.4
		C78,48.8,78.3,49.2,78.7,49.3z M79.6,42.1c0.5,0,0.9-0.4,0.9-0.9c0-0.5-0.4-0.9-0.9-0.9s-0.9,0.4-0.9,0.9
		C78.7,41.7,79.1,42.1,79.6,42.1z M84.2,37.4c0.5,0,0.9-0.4,0.9-0.9c0-0.5-0.4-0.9-0.9-0.9s-0.9,0.4-0.9,0.9
		C83.3,37,83.7,37.4,84.2,37.4z M84.6,47.3c0.5,0,0.9-0.4,0.9-0.9s-0.4-0.9-0.9-0.9s-0.9,0.4-0.9,0.9S84.1,47.3,84.6,47.3z"/>
</g>
<g class="st1">
	<path class="st2" d="M97.4,43.8c0-2.1,1.1-4,3.1-5.1c0.3-0.2,0.5-0.1,0.7,0.2c0.2,0.2,0.4,0.3,0.7,0.3c0.5,0,0.9-0.4,0.9-0.9
		c0-0.5-0.4-0.9-0.9-0.9c-0.3,0-0.5,0.1-0.7,0.3c-0.3,0.3-0.5,0.3-0.7,0.1c-1.5-1-2.3-2.5-2.3-4.2c0-3.1,2.7-5.4,6.4-5.4
		c1.4,0,3,0.4,3.7,0.8l-0.8,2.6c-0.6-0.5-1.9-0.9-3-0.9c-2.1,0-3.7,1.3-3.7,3.2s1.5,3.3,3.7,3.3h2.9c1,0,1.7-0.8,1.7-2v-2.2h2.5v3.3
		c0,0.2-0.1,0.3-0.3,0.3c-0.5,0-0.9,0.4-0.9,0.9c0,0.5,0.4,0.9,0.9,0.9c0.5,0,0.9-0.4,0.9-0.9c0-0.2,0.1-0.3,0.3-0.3h2.5v2.5h-3.5
		v4.2c0,3.5-2.8,6.1-7,6.1C100.6,49.9,97.4,47.5,97.4,43.8z M99,45.4c0.5,0,0.8-0.4,0.7-0.9c-0.1-0.5-0.1-1.3,0-1.8
		c0.1-0.5-0.2-0.9-0.7-0.9c-0.4,0-0.7,0.4-0.8,0.8c-0.2,0.6-0.2,1.4,0,2.1C98.3,45,98.6,45.4,99,45.4z M99.6,34.2
		c0.5,0,0.9-0.4,0.9-0.9c0-0.5-0.4-0.9-0.9-0.9s-0.9,0.4-0.9,0.9C98.7,33.8,99.1,34.2,99.6,34.2z M104.6,47.3c2.6,0,4.5-1.5,4.5-3.7
		v-3.1c0-0.2,0.1-0.3,0.3-0.3c0.5,0,0.9-0.4,0.9-0.9c0-0.5-0.4-0.9-0.9-0.9c-0.5,0-0.9,0.4-0.9,0.9c0,0.2-0.1,0.3-0.3,0.3h-3.6
		c-2.6,0-4.4,1.8-4.4,4C100.2,45.8,102,47.3,104.6,47.3z M103.6,30.4c0.5-0.1,1.3-0.1,1.8,0c0.5,0.1,0.9-0.2,0.9-0.7
		c0-0.4-0.4-0.7-0.8-0.8c-0.6-0.2-1.4-0.2-2.1,0c-0.4,0.1-0.8,0.5-0.8,0.8C102.7,30.2,103.1,30.5,103.6,30.4z M103.6,49.3
		c0.6,0.2,1.4,0.2,2.1,0c0.4-0.1,0.8-0.5,0.8-0.8c0-0.5-0.4-0.8-0.9-0.7c-0.5,0.1-1.3,0.1-1.8,0s-0.9,0.2-0.9,0.7
		C102.8,48.8,103.2,49.2,103.6,49.3z M109.5,47.3c0.5,0,0.9-0.4,0.9-0.9s-0.4-0.9-0.9-0.9c-0.5,0-0.9,0.4-0.9,0.9
		S108.9,47.3,109.5,47.3z M110.3,44c0.5,0,0.9-0.4,0.9-0.9c0-0.5-0.4-0.9-0.9-0.9c-0.5,0-0.9,0.4-0.9,0.9
		C109.4,43.6,109.8,44,110.3,44z"/>
</g>
<g class="st1">
	<path class="st2" d="M127,45.8v-9c0-0.2,0.1-0.3,0.3-0.3c0.5,0,0.9-0.4,0.9-0.9c0-0.5-0.4-0.9-0.9-0.9c-0.5,0-0.9,0.4-0.9,0.9
		c0,0.2-0.1,0.3-0.3,0.3h-1.7v-2.5h1.9c0.5,0,0.9-0.4,0.9-0.9v-3.2h2.5v3.3c0,0.2-0.1,0.3-0.3,0.3c-0.5,0-0.9,0.4-0.9,0.9
		c0,0.5,0.4,0.9,0.9,0.9c0.5,0,0.9-0.4,0.9-0.9c0-0.2,0.1-0.3,0.3-0.3h2.6v2.5h-3.5v9.4c0,1.2,0.9,2,2.2,2c0.5,0,1-0.1,1.4-0.2
		l0.1,2.6c-0.5,0.2-1.2,0.3-1.8,0.3C128.8,49.9,127,48.3,127,45.8z M128.3,44c0.5,0,0.8-0.4,0.8-0.9v-1.9c0-0.5-0.4-0.9-0.8-0.9
		c-0.5,0-0.8,0.4-0.8,0.9v1.9C127.5,43.6,127.8,44,128.3,44z M128.5,47.3c0.5,0,0.9-0.4,0.9-0.9s-0.4-0.9-0.9-0.9
		c-0.5,0-0.9,0.4-0.9,0.9S128,47.3,128.5,47.3z M131.2,49.4c0.5,0,0.9-0.4,0.9-0.9c0-0.5-0.4-0.9-0.9-0.9c-0.5,0-0.9,0.4-0.9,0.9
		C130.3,49,130.7,49.4,131.2,49.4z"/>
</g>
<g class="st1">
	<path class="st2" d="M135.7,45.3c0-2.3,1.5-4,4.5-4.5l5-0.9c0.6-0.1,1-0.5,1-0.9v-0.1c0-2-1.5-3.5-3.5-3.5c-2.1,0-3.5,1.6-3.6,3.9
		l-2.8-0.5c0.3-3.3,2.9-5.7,6.4-5.7c3.5,0,6.2,2.3,6.2,5.8v7.5l0.1,3.2h-2.1l-0.2-1.4c0-0.3,0.2-0.6,0.5-0.6c0.5,0,0.9-0.4,0.9-0.9
		c0-0.5-0.4-0.9-0.9-0.9c-0.5,0-0.9,0.4-0.9,0.9v0.2c0,0.3-0.1,0.6-0.3,0.9c-1.1,1.5-2.6,2.2-4.9,2.2
		C137.7,49.9,135.7,48,135.7,45.3z M137.2,46.6c0.5,0,0.9-0.4,0.9-0.9c0-0.5-0.4-0.9-0.9-0.9c-0.5,0-0.9,0.4-0.9,0.9
		C136.3,46.2,136.7,46.6,137.2,46.6z M138,38.3c0.5,0,0.9-0.4,0.9-0.9c0-0.5-0.4-0.9-0.9-0.9c-0.5,0-0.9,0.4-0.9,0.9
		C137.1,37.9,137.5,38.3,138,38.3z M141.3,47.4c2.7,0,4.8-2,4.8-4.6v-0.1c0-0.2,0.2-0.4,0.4-0.4c0.5,0,0.9-0.4,0.9-0.9
		c0-0.5-0.4-0.9-0.9-0.9c-0.5,0-0.9,0.4-0.9,0.9v0.1c0,0.3-0.2,0.5-0.5,0.5l-4.4,0.8c-1.5,0.3-2.3,1.3-2.3,2.5
		C138.5,46.5,139.5,47.4,141.3,47.4z M139.7,42.7l3.5-0.6c0.5-0.1,0.7-0.4,0.6-0.8c-0.1-0.4-0.5-0.6-0.9-0.5l-3.5,0.6
		c-0.5,0.1-0.7,0.4-0.6,0.8C138.8,42.5,139.2,42.7,139.7,42.7z M140.2,49.3c0.6,0.2,1.4,0.2,2.1,0c0.4-0.1,0.8-0.5,0.8-0.8
		c0-0.5-0.4-0.8-0.9-0.7c-0.5,0.1-1.3,0.1-1.8,0c-0.5-0.1-0.9,0.2-0.9,0.7C139.4,48.8,139.8,49.2,140.2,49.3z M141.6,35
		c0.5-0.1,1.3-0.1,1.7,0c0.5,0.1,0.9-0.2,0.9-0.7c0-0.4-0.4-0.7-0.7-0.8c-0.6-0.2-1.4-0.2-2,0c-0.4,0.1-0.7,0.4-0.7,0.8
		C140.8,34.8,141.1,35.1,141.6,35z M147.1,38c0.5,0,0.9-0.4,0.9-0.9s-0.4-0.9-0.9-0.9c-0.5,0-0.9,0.4-0.9,0.9S146.6,38,147.1,38z"/>
</g>
<g class="st1">
	<path class="st2" d="M159.9,39.5c-0.2-0.1-0.3-0.1-0.5-0.1c-0.5,0-0.9,0.4-0.9,0.9s0.4,0.9,0.9,0.9c0.2,0,0.4,0,0.5-0.1
		c0.2-0.1,0.4-0.1,0.5,0.1l6.3,8.5h-3.2l-5.4-7.4l-2.8,3.1v4.3h-2.6V27.6h2.6v12.8c0,0.3-0.1,0.5-0.4,0.7c-0.2,0.2-0.3,0.4-0.3,0.7
		c0,0.5,0.4,0.9,0.9,0.9c0.5,0,0.9-0.4,0.9-0.9c0-0.2,0-0.3-0.1-0.5c-0.1-0.3-0.1-0.5,0.1-0.8l6.3-7.1h3.5l-5.4,5.9
		C160.4,39.6,160.1,39.6,159.9,39.5z M153.9,38.1c0.5,0,0.9-0.4,0.9-0.9c0-0.5-0.4-0.9-0.9-0.9c-0.5,0-0.9,0.4-0.9,0.9
		C153,37.7,153.4,38.1,153.9,38.1z M153.9,33.7c0.5,0,0.8-0.4,0.8-0.9v-3.4c0-0.5-0.4-0.9-0.8-0.9c-0.5,0-0.8,0.4-0.8,0.9v3.4
		C153.1,33.3,153.4,33.7,153.9,33.7z M153.9,48.5c0.5,0,0.8-0.4,0.8-0.9v-1.9c0-0.5-0.4-0.9-0.8-0.9c-0.5,0-0.8,0.4-0.8,0.9v1.9
		C153.1,48.1,153.4,48.5,153.9,48.5z M163,48.1c0.3,0.4,0.8,0.5,1.2,0.3c0.4-0.3,0.5-0.8,0.2-1.2l-2-2.7c-0.3-0.4-0.8-0.5-1.2-0.3
		c-0.4,0.3-0.5,0.8-0.2,1.2L163,48.1z M162.8,36c0.5,0,0.9-0.4,0.9-0.9s-0.4-0.9-0.9-0.9c-0.5,0-0.9,0.4-0.9,0.9S162.2,36,162.8,36z
		"/>
</g>
<g class="st1">
	<path class="st2" d="M168.4,41.5c0-4.9,3.2-8.5,7.7-8.5c4.6,0,7.6,3.7,7.6,8.9c0,0.1,0,0.3,0,0.5h-11.3c-0.3,0-0.5-0.2-0.5-0.4
		c-0.1-0.4-0.5-0.6-0.9-0.6c-0.5,0-0.9,0.4-0.9,0.9c0,0.5,0.4,0.9,0.9,0.9c0.2,0,0.4,0.2,0.5,0.5c0.7,2.2,2.5,3.6,4.7,3.6
		c2.1,0,4.1-1.4,4.5-3.2l2.9,0.9c-0.7,2.8-3.7,4.9-7.4,4.9C171.7,49.9,168.4,46.4,168.4,41.5z M171.1,41c0.4,0,0.7-0.2,0.8-0.6
		c0.1-0.3,0.3-0.5,0.6-0.5h7.3c0.2,0,0.4,0.2,0.5,0.4c0.1,0.4,0.5,0.6,0.9,0.6c0.5,0,0.9-0.4,0.9-0.9c0-0.5-0.4-0.9-0.9-0.9
		c-0.3,0-0.4-0.2-0.5-0.4c-0.8-2.1-2.7-3.2-4.6-3.2c-2,0-3.6,1.3-4.4,3.2c-0.1,0.3-0.3,0.4-0.5,0.4c-0.5,0-0.9,0.4-0.9,0.9
		C170.2,40.6,170.6,41,171.1,41z M171.5,37.4c0.5,0,0.9-0.4,0.9-0.9c0-0.5-0.4-0.9-0.9-0.9c-0.5,0-0.9,0.4-0.9,0.9
		C170.6,37,171,37.4,171.5,37.4z M171.5,47.3c0.5,0,0.9-0.4,0.9-0.9s-0.4-0.9-0.9-0.9c-0.5,0-0.9,0.4-0.9,0.9S171,47.3,171.5,47.3z
		 M175.2,35.2c0.5-0.1,1.3-0.1,1.8,0c0.5,0.1,0.9-0.2,0.9-0.7c0-0.4-0.4-0.7-0.8-0.8c-0.6-0.2-1.4-0.2-2.1,0
		c-0.4,0.1-0.8,0.5-0.8,0.8C174.3,35,174.7,35.3,175.2,35.2z M175.3,49.3c0.6,0.2,1.4,0.2,2.1,0c0.4-0.1,0.8-0.5,0.8-0.8
		c0-0.5-0.4-0.8-0.9-0.7c-0.5,0.1-1.3,0.1-1.8,0c-0.5-0.1-0.9,0.2-0.9,0.7C174.6,48.8,174.9,49.2,175.3,49.3z M176.2,42.1
		c0.5,0,0.9-0.4,0.9-0.9c0-0.5-0.4-0.9-0.9-0.9c-0.5,0-0.9,0.4-0.9,0.9C175.3,41.7,175.7,42.1,176.2,42.1z M180.8,37.4
		c0.5,0,0.9-0.4,0.9-0.9c0-0.5-0.4-0.9-0.9-0.9c-0.5,0-0.9,0.4-0.9,0.9C179.9,37,180.3,37.4,180.8,37.4z M181.2,47.3
		c0.5,0,0.9-0.4,0.9-0.9s-0.4-0.9-0.9-0.9c-0.5,0-0.9,0.4-0.9,0.9S180.7,47.3,181.2,47.3z"/>
</g>
</svg>
