<?xml version="1.0" encoding="utf-8"?>
<!-- Generator: Adobe Illustrator 25.2.1, SVG Export Plug-In . SVG Version: 6.00 Build 0)  -->
<svg version="1.1" id="Layer_1" xmlns="http://www.w3.org/2000/svg" xmlns:xlink="http://www.w3.org/1999/xlink" x="0px" y="0px"
	 viewBox="0 0 214.12 80.93" style="enable-background:new 0 0 214.12 80.93;" xml:space="preserve">
<style type="text/css">
	.st0{fill:#D3EBC7;}
	.st1{fill:#FFF9B3;}
	.st2{fill:#283B00;}
	.st3{fill:#3A9609;}
	.st4{fill:#FFFFFF;}
	.st5{fill:#FF5902;}
	.st6{fill:#3A9609;stroke:#3A9609;stroke-width:14;stroke-miterlimit:10;}
	.st7{fill:#D3EBC7;stroke:#FFFFFF;stroke-width:0.3;stroke-miterlimit:10;}
	.st8{stroke:#000000;stroke-width:0.2;stroke-miterlimit:10;}
	.st9{fill:none;stroke:#FF0000;stroke-miterlimit:10;}
	.st10{clip-path:url(#SVGID_2_);fill:#283B00;}
	.st11{clip-path:url(#SVGID_4_);fill:#283B00;}
	.st12{clip-path:url(#SVGID_6_);fill:#D3EBC7;}
	.st13{clip-path:url(#SVGID_8_);fill:#D3EBC7;}
	.st14{clip-path:url(#SVGID_10_);fill:#283B00;}
	.st15{clip-path:url(#SVGID_12_);fill:#283B00;}
	.st16{font-family:'ApfelGrotezk-Fett';}
	.st17{font-size:32.2643px;}
	.st18{clip-path:url(#SVGID_14_);fill:#FFF9B3;}
	.st19{clip-path:url(#SVGID_16_);fill:#FFF9B3;}
	.st20{clip-path:url(#SVGID_18_);fill:#FF5902;}
	.st21{clip-path:url(#SVGID_20_);fill:#FF5902;}
	.st22{clip-path:url(#SVGID_22_);}
	.st23{clip-path:url(#SVGID_24_);}
</style>
<g>
	<defs>
		<rect id="SVGID_11_" x="6.04" y="8.87" width="211.15" height="66.95"/>
	</defs>
	<clipPath id="SVGID_2_">
		<use xlink:href="#SVGID_11_"  style="overflow:visible;"/>
	</clipPath>
	<path class="st10" d="M6.09,35.1c-0.01-0.19-0.05-0.38-0.04-0.57c0.02-0.63,0.11-1.2,0.61-1.69c0.35-0.34,0.65-0.75,0.8-1.29
		c0.17-0.6,0.23-1.25,0.59-1.79c0.3-0.45,0.58-0.92,0.86-1.38c0.25-0.4,0.59-0.66,0.91-0.96c0.08-0.07,0.15-0.15,0.2-0.24
		c0.19-0.31,0.44-0.56,0.72-0.79c0.33-0.28,0.57-0.67,0.86-1c0.08-0.09,0.18-0.15,0.27-0.23c0.17-0.17,0.33-0.34,0.5-0.51
		c0.13-0.13,0.26-0.26,0.39-0.38c0.05-0.04,0.16-0.05,0.18-0.09c0.12-0.35,0.48-0.42,0.71-0.64c0.45-0.43,0.99-0.73,1.53-1.03
		c0.3-0.17,0.55-0.42,0.91-0.46c0.05,0,0.11-0.04,0.13-0.08c0.19-0.33,0.5-0.49,0.82-0.67c0.43-0.24,0.8-0.57,1.21-0.84
		c0.37-0.25,0.81-0.41,1.13-0.72c0.62-0.61,1.46-0.88,2.1-1.48c0.39-0.36,0.93-0.56,1.43-0.79c0.81-0.37,1.63-0.72,2.47-1.02
		c0.51-0.18,1.07-0.26,1.6-0.37c0.08-0.02,0.18,0.01,0.25-0.03c0.79-0.38,1.67-0.46,2.5-0.68c0.88-0.23,1.71-0.63,2.6-0.8
		c0.43-0.08,0.82-0.32,1.24-0.46c0.37-0.13,0.75-0.24,1.14-0.33c0.9-0.21,1.83-0.34,2.71-0.63c0.45-0.15,0.9-0.17,1.34-0.26
		c0.73-0.14,1.46-0.36,2.18-0.55c0.05-0.01,0.1-0.03,0.15-0.04c0.74-0.03,1.41-0.33,2.11-0.49c0.75-0.16,1.5-0.26,2.26-0.39
		c0.24-0.04,0.48-0.08,0.71-0.15c0.67-0.22,1.39-0.11,2.07-0.37c0.53-0.2,1.14-0.17,1.71-0.26c0.41-0.06,0.81-0.16,1.22-0.23
		c0.35-0.06,0.71-0.09,1.06-0.15c0.53-0.09,1.05-0.21,1.58-0.3c0.3-0.05,0.61-0.1,0.91-0.07c0.76,0.08,1.44-0.37,2.21-0.27
		c0.32,0.04,0.67-0.11,1-0.15c0.63-0.06,1.26-0.09,1.89-0.15c0.29-0.03,0.57-0.11,0.85-0.12c0.45-0.01,0.9,0.04,1.34,0.01
		c0.55-0.04,1.12-0.14,1.66-0.1c0.44,0.04,0.88-0.17,1.31,0.02c0.06,0.02,0.14,0,0.2-0.01C65.61,9.1,66,9.05,66.39,9.01
		c0.56-0.05,1.13-0.09,1.69-0.13c0.02,0,0.04-0.01,0.05-0.01c1.05,0.25,2.11-0.16,3.16,0.08c0.06,0.02,0.14,0.03,0.2,0.01
		c0.53-0.15,1.08-0.01,1.62-0.09c0.11-0.02,0.23,0.04,0.35,0.06c0.1,0.02,0.23,0.08,0.29,0.04c0.32-0.19,0.64-0.04,0.96-0.03
		c0.55,0.02,1.1,0.01,1.65,0.01c0.07,0,0.14-0.02,0.21-0.02c0.46,0.02,0.93,0.11,1.38,0.04c0.48-0.07,0.93,0.04,1.39,0.05
		c0.76,0.01,1.52,0,2.28,0c0.03,0,0.08-0.01,0.1,0c0.5,0.27,1.01,0.08,1.52,0.09c0.42,0.01,0.84,0.1,1.27,0.11
		c0.59,0.02,1.19,0.01,1.78,0.01c0.14,0,0.28-0.01,0.41,0.04c0.45,0.17,0.9,0.17,1.37,0.12c0.2-0.02,0.42,0.09,0.61,0.06
		c0.63-0.12,1.24,0.06,1.87,0.01c1.09-0.09,2.19,0.04,3.29,0.05c0.87,0.01,1.74-0.03,2.62-0.03c0.33,0,0.65,0.07,0.98,0.07
		c0.24,0,0.47-0.07,0.71-0.06c0.44,0.02,0.89,0.04,1.33,0.13c0.27,0.06,0.51,0.02,0.76,0c0.88-0.04,1.75-0.06,2.63-0.09
		c0.43-0.02,0.86-0.06,1.29-0.07c1-0.03,1.99-0.06,2.99-0.06c0.49,0,0.98,0.06,1.47,0.06c0.27,0,0.55-0.1,0.82-0.1
		c0.46,0.01,0.92,0.09,1.38,0.12c0.18,0.01,0.37-0.03,0.56-0.04c0.14-0.01,0.27-0.02,0.41-0.01c0.86,0.07,1.71,0.09,2.58,0.01
		c0.64-0.06,1.3,0.01,1.95,0.02c0.36,0,0.72-0.01,1.08-0.01c0.34,0,0.68,0.02,1.03,0.03c0.03,0,0.07,0.03,0.1,0.02
		c0.57-0.25,1.13,0.23,1.71,0.04c0.23-0.07,0.51,0.02,0.77,0.01c0.27-0.01,0.54-0.05,0.81-0.08c0.05-0.01,0.11-0.02,0.15-0.01
		c1.12,0.25,2.26,0.18,3.39,0.17c0.77-0.01,1.53-0.02,2.3,0c0.44,0.01,0.89,0.07,1.33,0.09c0.32,0.01,0.64-0.02,0.97-0.01
		c0.61,0.01,1.21,0.02,1.82,0.06c0.31,0.02,0.6,0.09,0.91-0.05c0.15-0.06,0.36,0.06,0.55,0.06c0.65,0.02,1.31,0.02,1.96,0.04
		c0.5,0.01,1,0.1,1.49,0.03c0.5-0.07,0.99-0.03,1.48-0.06c0.27-0.02,0.54,0.08,0.81,0.1c0.54,0.03,1.09,0,1.63,0.04
		c0.69,0.06,1.4-0.12,2.07,0.15c0.06,0.02,0.14,0.04,0.2,0.03c0.67-0.16,1.32,0.08,1.97,0.12c0.67,0.04,1.34,0.12,2.01,0.07
		c0.05,0,0.11-0.01,0.15,0.01c0.54,0.32,1.16,0.28,1.75,0.36c0.51,0.08,1.03,0.08,1.54,0.13c0.68,0.08,1.36,0.18,2.03,0.27
		c0.44,0.06,0.88,0.1,1.32,0.17c0.48,0.07,0.95,0.15,1.42,0.24c0.3,0.06,0.59,0.17,0.91,0.04c0.07-0.03,0.17,0.01,0.25,0.04
		c0.48,0.16,0.95,0.36,1.5,0.24c0.23-0.05,0.5,0.04,0.74,0.1c0.77,0.18,1.55,0.3,2.34,0.34c0.54,0.03,1.08,0.19,1.62,0.29
		c0.81,0.15,1.61,0.32,2.42,0.43c0.43,0.06,0.85,0.13,1.24,0.3c0.05,0.02,0.11,0.05,0.15,0.04c0.43-0.2,0.8,0.1,1.2,0.13
		c0.41,0.03,0.8,0.18,1.21,0.26c0.48,0.1,0.97,0.18,1.45,0.26c0.03,0.01,0.07,0.01,0.1,0.03c0.48,0.28,1.03,0.35,1.55,0.5
		c0.55,0.16,1.09,0.28,1.66,0.36c0.64,0.09,1.27,0.28,1.91,0.43c0.13,0.03,0.27,0.06,0.4,0.09c0.31,0.08,0.63,0.09,0.92,0.3
		c0.2,0.14,0.49,0.16,0.74,0.21c0.55,0.11,1.11,0.2,1.66,0.33c0.22,0.05,0.42,0.15,0.63,0.24c0.17,0.07,0.33,0.19,0.5,0.23
		c0.88,0.23,1.75,0.48,2.61,0.77c0.56,0.19,1.18,0.21,1.76,0.36c0.5,0.13,0.97,0.34,1.46,0.51c0.16,0.06,0.32,0.12,0.48,0.18
		c1.07,0.38,2.17,0.69,3.2,1.15c0.64,0.28,1.25,0.64,1.9,0.91c0.49,0.2,0.94,0.5,1.41,0.75c0.58,0.32,1.23,0.53,1.7,1.04
		c0.08,0.08,0.2,0.13,0.31,0.18c0.41,0.16,0.79,0.33,1.09,0.67c0.15,0.17,0.41,0.25,0.59,0.4c0.43,0.37,0.88,0.73,1.27,1.14
		c0.41,0.44,0.8,0.91,1.13,1.41c0.66,0.99,1.26,2.02,1.74,3.11c0.53,1.2,1.01,2.42,1.42,3.67c0.88,2.69,1.47,5.44,1.82,8.24
		c0.16,1.26,0.16,2.52,0,3.78c-0.08,0.63-0.12,1.28-0.28,1.89c-0.18,0.66-0.47,1.29-0.72,1.94c-0.13,0.34-0.28,0.67-0.39,1.02
		c-0.09,0.29-0.23,0.51-0.46,0.72c-0.26,0.25-0.47,0.6-0.62,0.93c-0.36,0.77-0.91,1.41-1.4,2.09c-0.29,0.4-0.56,0.83-0.98,1.11
		c-0.11,0.07-0.15,0.23-0.23,0.34c-0.15,0.2-0.32,0.4-0.48,0.59c-0.05,0.07-0.14,0.11-0.17,0.19c-0.27,0.58-0.8,0.93-1.24,1.36
		c-0.62,0.61-1.31,1.15-1.98,1.71c-0.61,0.5-1.23,0.99-1.84,1.49c-0.13,0.11-0.23,0.26-0.36,0.37c-0.52,0.46-1,0.97-1.67,1.22
		c-0.03,0.01-0.07,0.03-0.09,0.06c-0.36,0.61-1.04,0.82-1.55,1.24c-0.16,0.13-0.36,0.2-0.54,0.3c-0.1,0.06-0.24,0.1-0.3,0.19
		c-0.16,0.22-0.32,0.4-0.61,0.42c-0.07,0.01-0.13,0.1-0.2,0.15c-0.26,0.16-0.5,0.35-0.78,0.47c-0.41,0.18-0.82,0.35-1.17,0.64
		c-0.18,0.15-0.4,0.26-0.62,0.37c-0.65,0.35-1.3,0.69-1.95,1.03c-0.15,0.08-0.32,0.12-0.47,0.2c-0.27,0.14-0.53,0.32-0.81,0.45
		c-0.38,0.18-0.72,0.46-1.15,0.51c-0.03,0-0.08-0.01-0.1,0.01c-0.49,0.42-1.2,0.39-1.69,0.8c-0.07,0.06-0.18,0.08-0.28,0.11
		c-0.53,0.17-1.03,0.42-1.53,0.64c-0.29,0.13-0.64,0.12-0.94,0.23c-0.38,0.14-0.75,0.32-1.12,0.49c-0.08,0.04-0.15,0.1-0.23,0.12
		c-0.54,0.16-1.08,0.31-1.62,0.47c-0.11,0.03-0.21,0.12-0.33,0.15c-0.71,0.18-1.34,0.6-2.08,0.65c-0.05,0-0.11,0-0.15,0.03
		c-0.55,0.4-1.25,0.34-1.84,0.57c-0.93,0.36-1.94,0.4-2.86,0.78c-0.11,0.04-0.24,0.07-0.35,0.04c-0.43-0.1-0.81,0.02-1.2,0.19
		c-0.29,0.13-0.58,0.15-0.9,0.14c-0.44-0.02-0.88,0.08-1.32,0.15c-0.32,0.05-0.64,0.23-0.94,0.19c-0.44-0.05-0.84,0.11-1.27,0.13
		c-0.49,0.02-0.98,0.13-1.47,0.19c-0.76,0.11-1.51,0.24-2.27,0.31c-0.63,0.06-1.26,0.03-1.89,0.08c-0.32,0.03-0.63,0.13-0.94,0.21
		c-0.32,0.08-0.6-0.11-0.96-0.03c-0.55,0.13-1.13,0.34-1.72,0.11c-0.03-0.01-0.07-0.02-0.1-0.01c-0.56,0.22-1.17,0.1-1.75,0.23
		c-0.08,0.02-0.18,0.1-0.24,0.07c-0.49-0.17-0.95,0.02-1.42,0.11c-0.24,0.05-0.51-0.03-0.76-0.01c-0.46,0.05-0.91,0.15-1.37,0.2
		c-0.38,0.04-0.77,0.03-1.16,0.07c-0.25,0.02-0.5,0.1-0.76,0.12c-0.4,0.03-0.79,0.2-1.21,0.07c-0.11-0.03-0.28,0.02-0.4,0.08
		c-0.18,0.1-0.34,0.07-0.54,0.04c-0.26-0.04-0.53,0.02-0.8,0.03c-0.61,0.02-1.23,0.14-1.85,0.01c-0.19-0.04-0.41,0.02-0.61,0.05
		c-0.8,0.13-1.6-0.05-2.4-0.04c-0.7,0.01-1.39-0.08-2.09-0.08c-0.54,0-1.08,0.05-1.62,0.07c-0.19,0.01-0.38,0.02-0.56-0.03
		c-0.37-0.1-0.73-0.12-1.11-0.01c-0.18,0.05-0.41-0.07-0.6-0.04c-0.91,0.1-1.8-0.11-2.7-0.11c-0.36,0-0.71,0.06-1.07,0.07
		c-0.63,0.02-1.27,0.08-1.89,0.02c-0.44-0.04-0.88,0.13-1.32-0.05c-0.14-0.06-0.34,0.06-0.5,0.03c-0.59-0.1-1.2-0.03-1.79-0.1
		c-0.66-0.08-1.3-0.07-1.95-0.01c-0.34,0.03-0.7-0.07-1.05-0.11c-0.19-0.02-0.38-0.08-0.56-0.06c-0.63,0.07-1.23-0.04-1.85-0.12
		c-0.2-0.03-0.41-0.01-0.62-0.02c-0.65-0.03-1.3-0.06-1.95-0.09c-0.31-0.01-0.61-0.01-0.92-0.02c-0.31-0.01-0.61-0.02-0.92-0.04
		c-0.34-0.02-0.68-0.05-1.02-0.05c-0.46,0-0.94,0.1-1.37,0c-0.44-0.11-0.87,0.04-1.31-0.05c-0.29-0.06-0.62-0.19-0.99-0.05
		c-0.26,0.1-0.62-0.09-0.94-0.13c-0.53-0.06-1.05-0.12-1.58-0.15c-0.67-0.04-1.34-0.01-2.01-0.07c-0.68-0.06-1.37-0.05-2.05-0.2
		c-0.41-0.09-0.85-0.04-1.28-0.06c-0.29-0.01-0.59-0.02-0.87-0.05c-0.61-0.08-1.22-0.26-1.83-0.25c-0.88,0.02-1.74-0.07-2.61-0.14
		c-0.96-0.08-1.92-0.09-2.87-0.15c-0.2-0.01-0.41-0.12-0.6-0.11c-0.68,0.05-1.35-0.16-2.02-0.15c-0.6,0.01-1.2-0.02-1.8-0.05
		c-0.22-0.01-0.44-0.07-0.66-0.1c-0.02,0-0.04-0.02-0.05-0.02c-0.37,0.18-0.72-0.03-1.08-0.06c-1.01-0.09-2.03,0.01-3.05-0.19
		c-0.52-0.1-1.06-0.05-1.6-0.06c-0.49-0.01-0.98,0.11-1.46-0.07c-0.06-0.02-0.15-0.03-0.2,0c-0.37,0.21-0.75,0.01-1.1-0.01
		c-0.46-0.03-0.91-0.04-1.37-0.06c-0.65-0.03-1.29,0.11-1.94-0.09c-0.37-0.11-0.8-0.03-1.2-0.04c-0.13-0.01-0.27-0.05-0.4-0.07
		c-0.17-0.02-0.34-0.04-0.51-0.06c-0.55-0.04-1.09-0.08-1.64-0.11c-0.19-0.01-0.37-0.02-0.56-0.02c-0.41,0.01-0.82,0.01-1.23-0.11
		c-0.35-0.1-0.74-0.09-1.11-0.13c-0.7-0.06-1.41-0.08-2.1-0.2c-0.41-0.07-0.8-0.15-1.22-0.1c-0.08,0.01-0.19,0-0.25-0.04
		c-0.49-0.33-1.08-0.3-1.6-0.29c-0.59,0.01-1.12-0.28-1.7-0.23c-0.53,0.05-1.03-0.16-1.57-0.13c-0.51,0.03-1.04-0.17-1.56-0.27
		c-0.08-0.02-0.17-0.06-0.25-0.05c-1.2,0.05-2.34-0.33-3.51-0.5c-0.61-0.09-1.23-0.12-1.84-0.18c-0.44-0.05-0.89-0.12-1.33-0.18
		c-0.4-0.05-0.81-0.1-1.21-0.17c-0.17-0.03-0.33-0.1-0.5-0.11c-0.65-0.06-1.3-0.1-1.95-0.17c-0.32-0.03-0.64-0.1-0.96-0.16
		c-0.76-0.13-1.52-0.25-2.28-0.39c-0.66-0.12-1.31-0.29-1.97-0.37c-0.64-0.08-1.27-0.34-1.89-0.33c-0.68,0.02-1.28-0.43-1.96-0.25
		c-0.1,0.03-0.23-0.05-0.34-0.1c-0.27-0.12-0.54-0.2-0.85-0.11c-0.12,0.03-0.27-0.03-0.4-0.06c-0.35-0.06-0.67-0.29-1.06-0.18
		c-0.02,0-0.04,0-0.05-0.01c-1-0.34-2.09-0.4-3.03-0.93c-0.06-0.03-0.13-0.05-0.19-0.07c-0.65-0.11-1.23-0.38-1.81-0.69
		c-0.71-0.39-1.44-0.73-2.14-1.14c-0.52-0.3-0.99-0.69-1.48-1.03c-0.27-0.18-0.55-0.34-0.83-0.52c-0.91-0.58-1.83-1.16-2.66-1.86
		c-1.06-0.89-2.15-1.75-3.14-2.7c-0.77-0.74-1.43-1.59-2.09-2.43c-0.8-1.02-1.55-2.07-2.3-3.13c-0.52-0.73-1.01-1.49-1.52-2.22
		c-0.45-0.64-0.92-1.25-1.36-1.89c-0.36-0.51-0.72-1.02-1.03-1.55C9.04,45.41,7.96,43.31,7.35,41C7,39.63,6.6,38.27,6.27,36.9
		c-0.14-0.58-0.16-1.19-0.23-1.79C6.06,35.1,6.07,35.1,6.09,35.1"/>
</g>
<text transform="matrix(1 0 0 1 28.8927 49.5252)"><tspan x="0" y="0" class="st0 st16 st17">gi</tspan><tspan x="26.07" y="0" class="st0 st16 st17">v</tspan><tspan x="42.75" y="0" class="st0 st16 st17">e &amp; ta</tspan><tspan x="121.99" y="0" class="st0 st16 st17">k</tspan><tspan x="138.77" y="0" class="st0 st16 st17">e</tspan></text>
</svg>
